<svg xmlns="http://www.w3.org/2000/svg" viewBox="0 0 56 56" width="56" height="56">
  <!-- Outer kiln shape -->
  <path d="M28 4 C20 4, 10 14, 10 28 C10 42, 18 52, 28 52 C38 52, 46 42, 46 28 C46 14, 36 4, 28 4Z"
        fill="none" stroke="#ff6b35" stroke-width="2.5"/>
  <!-- Outer flame -->
  <path d="M28 18 C24 22, 20 28, 22 34 C23 37, 26 40, 28 40 C30 40, 33 37, 34 34 C36 28, 32 22, 28 18Z"
        fill="#ff6b35" opacity="0.8"/>
  <!-- Inner flame -->
  <path d="M28 26 C26 29, 25 32, 26 35 C26.5 37, 28 38, 28 38 C28 38, 29.5 37, 30 35 C31 32, 30 29, 28 26Z"
        fill="#ffaa44"/>
</svg>
