%TF.GenerationSoftware,KiCad,Pcbnew,10.0.4*%
%TF.CreationDate,2026-07-21T19:34:37-07:00*%
%TF.ProjectId,bisque-controller,62697371-7565-42d6-936f-6e74726f6c6c,rev?*%
%TF.SameCoordinates,Original*%
%TF.FileFunction,Copper,L2,Bot*%
%TF.FilePolarity,Positive*%
%FSLAX46Y46*%
G04 Gerber Fmt 4.6, Leading zero omitted, Abs format (unit mm)*
G04 Created by KiCad (PCBNEW 10.0.4) date 2026-07-21 19:34:37*
%MOMM*%
%LPD*%
G01*
G04 APERTURE LIST*
G04 Aperture macros list*
%AMRoundRect*
0 Rectangle with rounded corners*
0 $1 Rounding radius*
0 $2 $3 $4 $5 $6 $7 $8 $9 X,Y pos of 4 corners*
0 Add a 4 corners polygon primitive as box body*
4,1,4,$2,$3,$4,$5,$6,$7,$8,$9,$2,$3,0*
0 Add four circle primitives for the rounded corners*
1,1,$1+$1,$2,$3*
1,1,$1+$1,$4,$5*
1,1,$1+$1,$6,$7*
1,1,$1+$1,$8,$9*
0 Add four rect primitives between the rounded corners*
20,1,$1+$1,$2,$3,$4,$5,0*
20,1,$1+$1,$4,$5,$6,$7,0*
20,1,$1+$1,$6,$7,$8,$9,0*
20,1,$1+$1,$8,$9,$2,$3,0*%
G04 Aperture macros list end*
%TA.AperFunction,ComponentPad*%
%ADD10RoundRect,0.250000X-0.620000X-0.845000X0.620000X-0.845000X0.620000X0.845000X-0.620000X0.845000X0*%
%TD*%
%TA.AperFunction,ComponentPad*%
%ADD11O,1.740000X2.190000*%
%TD*%
%TA.AperFunction,HeatsinkPad*%
%ADD12C,0.600000*%
%TD*%
%TA.AperFunction,ComponentPad*%
%ADD13C,2.000000*%
%TD*%
%TA.AperFunction,ComponentPad*%
%ADD14O,1.000000X2.100000*%
%TD*%
%TA.AperFunction,ComponentPad*%
%ADD15O,1.000000X1.600000*%
%TD*%
%TA.AperFunction,ComponentPad*%
%ADD16C,0.800000*%
%TD*%
%TA.AperFunction,ComponentPad*%
%ADD17C,6.400000*%
%TD*%
%TA.AperFunction,ComponentPad*%
%ADD18RoundRect,0.250000X1.050000X-1.050000X1.050000X1.050000X-1.050000X1.050000X-1.050000X-1.050000X0*%
%TD*%
%TA.AperFunction,ComponentPad*%
%ADD19C,2.600000*%
%TD*%
%TA.AperFunction,ComponentPad*%
%ADD20R,2.000000X2.000000*%
%TD*%
%TA.AperFunction,ComponentPad*%
%ADD21RoundRect,0.250000X-1.050000X1.050000X-1.050000X-1.050000X1.050000X-1.050000X1.050000X1.050000X0*%
%TD*%
%TA.AperFunction,ViaPad*%
%ADD22C,0.600000*%
%TD*%
%TA.AperFunction,Conductor*%
%ADD23C,0.700000*%
%TD*%
%TA.AperFunction,Conductor*%
%ADD24C,0.300000*%
%TD*%
%TA.AperFunction,Conductor*%
%ADD25C,0.250000*%
%TD*%
%TA.AperFunction,Conductor*%
%ADD26C,0.500000*%
%TD*%
%TA.AperFunction,Conductor*%
%ADD27C,0.600000*%
%TD*%
G04 APERTURE END LIST*
D10*
%TO.P,J7,1*%
%TO.N,+3V3*%
X70500000Y-95000000D03*
D11*
%TO.P,J7,2*%
%TO.N,GND*%
X73040000Y-95000000D03*
%TO.P,J7,3*%
%TO.N,TXD0*%
X75580000Y-95000000D03*
%TO.P,J7,4*%
%TO.N,RXD0*%
X78120000Y-95000000D03*
%TO.P,J7,5*%
%TO.N,VENT*%
X80660000Y-95000000D03*
%TO.P,J7,6*%
%TO.N,LID_SW*%
X83200000Y-95000000D03*
%TO.P,J7,7*%
%TO.N,AUX_A*%
X85740000Y-95000000D03*
%TO.P,J7,8*%
%TO.N,AUX_B*%
X88280000Y-95000000D03*
%TD*%
D10*
%TO.P,J6,1*%
%TO.N,BTN_UP*%
X53000000Y-95000000D03*
D11*
%TO.P,J6,2*%
%TO.N,BTN_DOWN*%
X55540000Y-95000000D03*
%TO.P,J6,3*%
%TO.N,BTN_LEFT*%
X58080000Y-95000000D03*
%TO.P,J6,4*%
%TO.N,BTN_RIGHT*%
X60620000Y-95000000D03*
%TO.P,J6,5*%
%TO.N,BTN_SEL*%
X63160000Y-95000000D03*
%TO.P,J6,6*%
%TO.N,GND*%
X65700000Y-95000000D03*
%TD*%
D12*
%TO.P,U1,41*%
%TO.N,GND*%
X85100000Y-34760000D03*
X85100000Y-36160000D03*
X85800000Y-34060000D03*
X85800000Y-35460000D03*
X85800000Y-36860000D03*
X86500000Y-34760000D03*
X86500000Y-36160000D03*
X87200000Y-34060000D03*
X87200000Y-35460000D03*
X87200000Y-36860000D03*
X87900000Y-34760000D03*
X87900000Y-36160000D03*
%TD*%
D13*
%TO.P,SW1,1*%
%TO.N,EN*%
X55000000Y-22500000D03*
X61500000Y-22500000D03*
%TO.P,SW1,2*%
%TO.N,GND*%
X55000000Y-27000000D03*
X61500000Y-27000000D03*
%TD*%
D14*
%TO.P,J1,SH*%
%TO.N,GND*%
X91680000Y-92470000D03*
D15*
X91680000Y-96650000D03*
D14*
X100320000Y-92470000D03*
D15*
X100320000Y-96650000D03*
%TD*%
D16*
%TO.P,H1,1*%
%TO.N,GND*%
X23100000Y-25000000D03*
X23802944Y-23302944D03*
X23802944Y-26697056D03*
X25500000Y-22600000D03*
D17*
X25500000Y-25000000D03*
D16*
X25500000Y-27400000D03*
X27197056Y-23302944D03*
X27197056Y-26697056D03*
X27900000Y-25000000D03*
%TD*%
D13*
%TO.P,SW2,1*%
%TO.N,IO0*%
X101000000Y-47000000D03*
X107500000Y-47000000D03*
%TO.P,SW2,2*%
%TO.N,GND*%
X101000000Y-51500000D03*
X107500000Y-51500000D03*
%TD*%
D16*
%TO.P,H4,1*%
%TO.N,GND*%
X113100000Y-95000000D03*
X113802944Y-93302944D03*
X113802944Y-96697056D03*
X115500000Y-92600000D03*
D17*
X115500000Y-95000000D03*
D16*
X115500000Y-97400000D03*
X117197056Y-93302944D03*
X117197056Y-96697056D03*
X117900000Y-95000000D03*
%TD*%
D18*
%TO.P,J3,1*%
%TO.N,TC_P*%
X114000000Y-65000000D03*
D19*
%TO.P,J3,2*%
%TO.N,GND*%
X114000000Y-59920000D03*
%TD*%
D20*
%TO.P,BZ1,1*%
%TO.N,+5V*%
X38000000Y-78000000D03*
D13*
%TO.P,BZ1,2*%
%TO.N,BUZZ_K*%
X45600000Y-78000000D03*
%TD*%
D16*
%TO.P,H2,1*%
%TO.N,GND*%
X113100000Y-25000000D03*
X113802944Y-23302944D03*
X113802944Y-26697056D03*
X115500000Y-22600000D03*
D17*
X115500000Y-25000000D03*
D16*
X115500000Y-27400000D03*
X117197056Y-23302944D03*
X117197056Y-26697056D03*
X117900000Y-25000000D03*
%TD*%
D21*
%TO.P,J2,1*%
%TO.N,VIN*%
X27000000Y-33000000D03*
D19*
%TO.P,J2,2*%
%TO.N,GND*%
X27000000Y-38080000D03*
%TD*%
D16*
%TO.P,H3,1*%
%TO.N,GND*%
X23100000Y-95000000D03*
X23802944Y-93302944D03*
X23802944Y-96697056D03*
X25500000Y-92600000D03*
D17*
X25500000Y-95000000D03*
D16*
X25500000Y-97400000D03*
X27197056Y-93302944D03*
X27197056Y-96697056D03*
X27900000Y-95000000D03*
%TD*%
D10*
%TO.P,J5,1*%
%TO.N,+3V3*%
X31000000Y-95000000D03*
D11*
%TO.P,J5,2*%
%TO.N,GND*%
X33540000Y-95000000D03*
%TO.P,J5,3*%
%TO.N,LCD_CS*%
X36080000Y-95000000D03*
%TO.P,J5,4*%
%TO.N,LCD_RST*%
X38620000Y-95000000D03*
%TO.P,J5,5*%
%TO.N,LCD_DC*%
X41160000Y-95000000D03*
%TO.P,J5,6*%
%TO.N,SPI_MOSI*%
X43700000Y-95000000D03*
%TO.P,J5,7*%
%TO.N,SPI_SCLK*%
X46240000Y-95000000D03*
%TO.P,J5,8*%
%TO.N,LCD_BL*%
X48780000Y-95000000D03*
%TD*%
D21*
%TO.P,J4,1*%
%TO.N,+5V*%
X27000000Y-55000000D03*
D19*
%TO.P,J4,2*%
%TO.N,SSR_OUT*%
X27000000Y-60080000D03*
%TD*%
D22*
%TO.N,+3V3*%
X86800000Y-76400000D03*
X70400000Y-93200000D03*
%TO.N,GND*%
X60000000Y-48000000D03*
X66000000Y-66000000D03*
X60000000Y-36000000D03*
X24000000Y-72000000D03*
X108000000Y-96000000D03*
X54000000Y-72000000D03*
X72000000Y-60000000D03*
X84000000Y-84000000D03*
X36000000Y-72000000D03*
X54000000Y-79600000D03*
X48000000Y-30000000D03*
X114000000Y-90000000D03*
X36000000Y-54000000D03*
X108000000Y-36000000D03*
X24000000Y-90000000D03*
X48000000Y-48000000D03*
X72000000Y-54000000D03*
X90000000Y-42000000D03*
X78000000Y-72000000D03*
X72000000Y-96000000D03*
X24000000Y-48000000D03*
X84000000Y-30000000D03*
X42000000Y-48000000D03*
X84000000Y-60000000D03*
X24000000Y-84000000D03*
X93200000Y-86800000D03*
X84000000Y-90000000D03*
X36000000Y-24000000D03*
X54000000Y-48000000D03*
X48000000Y-24000000D03*
X42000000Y-54000000D03*
X42000000Y-24000000D03*
X42000000Y-90000000D03*
X24000000Y-36000000D03*
X24000000Y-30000000D03*
X54000000Y-54000000D03*
X54000000Y-24000000D03*
X24000000Y-66000000D03*
X114000000Y-84000000D03*
X114000000Y-54000000D03*
X60000000Y-54000000D03*
X72000000Y-42000000D03*
X114000000Y-72000000D03*
X108000000Y-90000000D03*
X108000000Y-72000000D03*
X24000000Y-54000000D03*
X48000000Y-54000000D03*
X30000000Y-48000000D03*
X30000000Y-42000000D03*
X108000000Y-42000000D03*
X54000000Y-60000000D03*
X96000000Y-85400000D03*
X66000000Y-42000000D03*
X30000000Y-60000000D03*
X30000000Y-84000000D03*
X66000000Y-84000000D03*
X96000000Y-48000000D03*
X36000000Y-66000000D03*
X84000000Y-36000000D03*
X96000000Y-84000000D03*
X36000000Y-84000000D03*
X69200000Y-82000000D03*
X66000000Y-48000000D03*
X60000000Y-30000000D03*
X102000000Y-72000000D03*
X60000000Y-90000000D03*
X66000000Y-90000000D03*
X42000000Y-42000000D03*
X42000000Y-60000000D03*
X114000000Y-78000000D03*
X108000000Y-84000000D03*
X42000000Y-66000000D03*
X108000000Y-78000000D03*
X60000000Y-72000000D03*
X60000000Y-66000000D03*
X65599999Y-33600000D03*
X114000000Y-30000000D03*
X108000000Y-30000000D03*
X48000000Y-42000000D03*
X54000000Y-42000000D03*
X30000000Y-24000000D03*
X102000000Y-90000000D03*
X96000000Y-60000000D03*
X54000000Y-36000000D03*
X60000000Y-42000000D03*
X102000000Y-66000000D03*
X84000000Y-72000000D03*
X108000000Y-54000000D03*
X30000000Y-66000000D03*
X66800000Y-27200000D03*
X36000000Y-36000000D03*
X30000000Y-78000000D03*
X72000000Y-36000000D03*
X102000000Y-78000000D03*
X48000000Y-66000000D03*
X102000000Y-30000000D03*
X30000000Y-72000000D03*
X30000000Y-36000000D03*
X42000000Y-78000000D03*
X96000000Y-72000000D03*
X78000000Y-90000000D03*
X82000000Y-28000000D03*
X54000000Y-30000000D03*
X114000000Y-48000000D03*
X114000000Y-36000000D03*
X90000000Y-30000000D03*
X36000000Y-60000000D03*
X96000000Y-96000000D03*
X114000000Y-42000000D03*
X108000000Y-60000000D03*
X66000000Y-36000000D03*
X36000000Y-30000000D03*
X36000000Y-78000000D03*
X60000000Y-24000000D03*
X24000000Y-60000000D03*
X84000000Y-66000000D03*
X24000000Y-78000000D03*
X42000000Y-72000000D03*
X24000000Y-42000000D03*
X48000000Y-60000000D03*
X66000000Y-60000000D03*
%TO.N,TXD0*%
X74400000Y-78800000D03*
X84400000Y-41600000D03*
X76800000Y-73200000D03*
X77200000Y-48800000D03*
%TO.N,RXD0*%
X75200000Y-78800000D03*
X75200000Y-52400000D03*
X85200000Y-42400000D03*
X75200000Y-76400000D03*
X76000000Y-92400000D03*
%TO.N,VENT*%
X82000000Y-78800000D03*
X97200000Y-54000000D03*
%TO.N,LID_SW*%
X98000000Y-54400000D03*
X86400000Y-78800000D03*
%TO.N,AUX_A*%
X76000000Y-76400000D03*
X76000000Y-78800000D03*
X79200000Y-36800000D03*
X77200000Y-44000000D03*
%TO.N,AUX_B*%
X94000000Y-78800000D03*
X89600000Y-52400000D03*
X88800000Y-70800000D03*
X85200000Y-44000000D03*
%TO.N,BTN_UP*%
X46400000Y-85200000D03*
X53200000Y-92000000D03*
X43200000Y-80000000D03*
%TO.N,BTN_DOWN*%
X62000000Y-80800000D03*
X59600000Y-83200000D03*
X73600000Y-48800000D03*
X73600000Y-38400000D03*
X55600000Y-92000000D03*
%TO.N,BTN_LEFT*%
X74400000Y-38400000D03*
X74400000Y-48000000D03*
X64400000Y-80800000D03*
%TO.N,BTN_RIGHT*%
X93600000Y-54000000D03*
X98000000Y-44400000D03*
X93200000Y-52400000D03*
%TO.N,BTN_SEL*%
X95200000Y-79600000D03*
X99600000Y-46000000D03*
%TO.N,CC1*%
X94400000Y-89600000D03*
X92800000Y-89600000D03*
%TO.N,BUZZ_K*%
X51200000Y-83600000D03*
%TO.N,EN*%
X71200000Y-30400000D03*
X67600000Y-28800000D03*
%TO.N,ALARM*%
X75200000Y-38400000D03*
X75200000Y-46000000D03*
%TO.N,LCD_CS*%
X44000000Y-82400000D03*
%TO.N,USB_DN*%
X95600000Y-88000000D03*
X95200000Y-82800000D03*
X95200000Y-81200000D03*
X95600000Y-89600000D03*
X87600000Y-73600000D03*
%TO.N,USB_DP*%
X95600000Y-78800000D03*
X96800000Y-89600000D03*
X89200000Y-72400000D03*
X96800000Y-88000000D03*
%TO.N,LCD_BL*%
X81200000Y-62800000D03*
%TO.N,LCD_RST*%
X82000000Y-54400000D03*
%TO.N,LCD_DC*%
X82000000Y-55600000D03*
%TO.N,TC_CS*%
X101600000Y-56000000D03*
X104800000Y-59200000D03*
%TO.N,SPI_MOSI*%
X86000000Y-46400000D03*
%TO.N,SPI_SCLK*%
X87200000Y-47600000D03*
X104000000Y-56800000D03*
%TO.N,SPI_MISO*%
X99200000Y-55200000D03*
X103600000Y-59600000D03*
%TO.N,LED_DATA*%
X93200000Y-47200000D03*
X88800000Y-51600000D03*
X86000000Y-68000000D03*
X82800000Y-78800000D03*
%TO.N,IO0*%
X104000000Y-47200000D03*
%TO.N,CC2*%
X97600000Y-92800000D03*
X97600000Y-90000000D03*
%TO.N,SSR_OUT*%
X31200000Y-56000000D03*
%TO.N,LEDS_K*%
X34000000Y-49200000D03*
X36400000Y-49200000D03*
%TD*%
%TO.N,+3V3*%
D23*
X70400000Y-95200000D02*
X70500000Y-95000000D01*
X86800000Y-76400000D02*
X70400000Y-92800000D01*
X70400000Y-92800000D02*
X70400000Y-95200000D01*
%TO.N,GND*%
D24*
X61600000Y-27200000D02*
X66800000Y-27200000D01*
X84000000Y-30000000D02*
X82000000Y-28000000D01*
X54000000Y-72000000D02*
X54000000Y-79600000D01*
X66000000Y-36000000D02*
X66000000Y-34000000D01*
X66000000Y-84000000D02*
X67200000Y-84000000D01*
X66000000Y-34000000D02*
X65599999Y-33600000D01*
X96000000Y-84000000D02*
X93200000Y-86800000D01*
X67200000Y-84000000D02*
X69200000Y-82000000D01*
%TO.N,TXD0*%
X74400000Y-75600000D02*
X76800000Y-73200000D01*
X77200000Y-48800000D02*
X84400000Y-41600000D01*
X74400000Y-78800000D02*
X74400000Y-75600000D01*
%TO.N,RXD0*%
X78000000Y-94400000D02*
X76000000Y-92400000D01*
X75200000Y-78800000D02*
X75200000Y-76400000D01*
X75200000Y-52400000D02*
X85200000Y-42400000D01*
X78000000Y-95200000D02*
X78000000Y-94400000D01*
%TO.N,VENT*%
X82000000Y-78800000D02*
X82000000Y-69200000D01*
X82000000Y-69200000D02*
X97200000Y-54000000D01*
%TO.N,LID_SW*%
X98000000Y-54800000D02*
X98000000Y-54400000D01*
X87600000Y-77600000D02*
X87600000Y-75200000D01*
X86800000Y-74400000D02*
X86800000Y-66000000D01*
X87600000Y-75200000D02*
X86800000Y-74400000D01*
X86800000Y-66000000D02*
X98000000Y-54800000D01*
X86400000Y-78800000D02*
X87600000Y-77600000D01*
%TO.N,AUX_A*%
X77200000Y-38800000D02*
X79200000Y-36800000D01*
X77200000Y-44000000D02*
X77200000Y-38800000D01*
X76000000Y-78800000D02*
X76000000Y-76400000D01*
%TO.N,AUX_B*%
X88400000Y-73200000D02*
X88400000Y-71200000D01*
X88000000Y-46800000D02*
X85200000Y-44000000D01*
X88000000Y-52400000D02*
X88000000Y-46800000D01*
X88400000Y-71200000D02*
X88800000Y-70800000D01*
X94000000Y-78800000D02*
X88400000Y-73200000D01*
X89600000Y-52400000D02*
X88000000Y-52400000D01*
%TO.N,BTN_UP*%
X52800000Y-92400000D02*
X53200000Y-92000000D01*
X52800000Y-95200000D02*
X52800000Y-92400000D01*
X46400000Y-83200000D02*
X43200000Y-80000000D01*
X46400000Y-85200000D02*
X46400000Y-83200000D01*
%TO.N,BTN_DOWN*%
X55600000Y-95200000D02*
X55600000Y-92000000D01*
X73600000Y-48800000D02*
X73600000Y-38400000D01*
X59600000Y-83200000D02*
X62000000Y-80800000D01*
%TO.N,BTN_LEFT*%
X58000000Y-87200000D02*
X64400000Y-80800000D01*
X74400000Y-48000000D02*
X74400000Y-38400000D01*
X58000000Y-95200000D02*
X58000000Y-87200000D01*
%TO.N,BTN_RIGHT*%
X60800000Y-95200000D02*
X60800000Y-86800000D01*
X93200000Y-49200000D02*
X98000000Y-44400000D01*
X60800000Y-86800000D02*
X93600000Y-54000000D01*
X93200000Y-52400000D02*
X93200000Y-49200000D01*
%TO.N,BTN_SEL*%
X96400000Y-79600000D02*
X105600000Y-70400000D01*
X105600000Y-53600000D02*
X100400000Y-48400000D01*
X100000000Y-48400000D02*
X99600000Y-48000000D01*
X100400000Y-48400000D02*
X100000000Y-48400000D01*
X105600000Y-70400000D02*
X105600000Y-53600000D01*
X99600000Y-48000000D02*
X99600000Y-46000000D01*
X95200000Y-79600000D02*
X96400000Y-79600000D01*
%TO.N,CC1*%
D25*
X94400000Y-89600000D02*
X92800000Y-89600000D01*
%TO.N,BUZZ_K*%
D26*
X45600000Y-78000000D02*
X51200000Y-83600000D01*
%TO.N,EN*%
D24*
X69600000Y-28800000D02*
X71200000Y-30400000D01*
X67600000Y-28800000D02*
X69600000Y-28800000D01*
%TO.N,ALARM*%
X75200000Y-46000000D02*
X75200000Y-38400000D01*
%TO.N,LCD_CS*%
X36000000Y-90400000D02*
X44000000Y-82400000D01*
X36000000Y-95200000D02*
X36000000Y-90400000D01*
%TO.N,USB_DN*%
D25*
X95200000Y-82800000D02*
X95200000Y-81200000D01*
X95200000Y-81200000D02*
X87600000Y-73600000D01*
X95600000Y-89600000D02*
X95600000Y-88000000D01*
%TO.N,USB_DP*%
X95600000Y-78800000D02*
X89200000Y-72400000D01*
X96800000Y-89600000D02*
X96800000Y-88000000D01*
%TO.N,LCD_BL*%
D24*
X48800000Y-95200000D02*
X81200000Y-62800000D01*
%TO.N,LCD_RST*%
X38800000Y-95200000D02*
X38800000Y-94400000D01*
X52000000Y-84400000D02*
X82000000Y-54400000D01*
X38800000Y-94400000D02*
X48800000Y-84400000D01*
X48800000Y-84400000D02*
X52000000Y-84400000D01*
%TO.N,LCD_DC*%
X41200000Y-95200000D02*
X41200000Y-94400000D01*
X52400000Y-85200000D02*
X82000000Y-55600000D01*
X41200000Y-94400000D02*
X50400000Y-85200000D01*
X50400000Y-85200000D02*
X52400000Y-85200000D01*
%TO.N,TC_CS*%
X101600000Y-56000000D02*
X104800000Y-59200000D01*
%TO.N,SPI_MOSI*%
X43600000Y-94400000D02*
X52000000Y-86000000D01*
X43600000Y-95200000D02*
X43600000Y-94400000D01*
X86000000Y-53200000D02*
X86000000Y-46400000D01*
X53200000Y-86000000D02*
X86000000Y-53200000D01*
X52000000Y-86000000D02*
X53200000Y-86000000D01*
%TO.N,SPI_SCLK*%
X47200000Y-94400000D02*
X47200000Y-93200000D01*
X87200000Y-53200000D02*
X100400000Y-53200000D01*
X47200000Y-93200000D02*
X87200000Y-53200000D01*
X46400000Y-95200000D02*
X47200000Y-94400000D01*
X100400000Y-53200000D02*
X104000000Y-56800000D01*
X87200000Y-53200000D02*
X87200000Y-47600000D01*
%TO.N,SPI_MISO*%
X99200000Y-55200000D02*
X103600000Y-59600000D01*
%TO.N,LED_DATA*%
X82800000Y-78800000D02*
X82800000Y-71200000D01*
X88800000Y-51600000D02*
X93200000Y-47200000D01*
X82800000Y-71200000D02*
X86000000Y-68000000D01*
%TO.N,IO0*%
X100800000Y-47200000D02*
X107600000Y-47200000D01*
X107600000Y-47200000D02*
X107500000Y-47000000D01*
%TO.N,CC2*%
D25*
X97600000Y-90000000D02*
X97600000Y-92800000D01*
%TO.N,SSR_OUT*%
D27*
X27200000Y-60000000D02*
X31200000Y-56000000D01*
%TO.N,LEDS_K*%
D24*
X36400000Y-49200000D02*
X34000000Y-49200000D01*
%TD*%
%TA.AperFunction,Conductor*%
%TO.N,GND*%
G36*
X100230580Y-53669407D02*
G01*
X100242393Y-53679496D01*
X101804849Y-55241952D01*
X101832626Y-55296469D01*
X101823055Y-55356901D01*
X101779790Y-55400166D01*
X101719358Y-55409737D01*
X101709227Y-55407584D01*
X101679057Y-55399500D01*
X101520943Y-55399500D01*
X101368216Y-55440423D01*
X101231284Y-55519480D01*
X101119480Y-55631284D01*
X101040423Y-55768216D01*
X101016578Y-55857209D01*
X100999500Y-55920944D01*
X100999500Y-56079059D01*
X101007582Y-56109222D01*
X101004379Y-56170323D01*
X100965873Y-56217872D01*
X100906772Y-56233707D01*
X100849651Y-56211779D01*
X100841951Y-56204847D01*
X99829496Y-55192392D01*
X99801719Y-55137875D01*
X99800500Y-55122388D01*
X99800500Y-55120944D01*
X99800108Y-55119480D01*
X99759577Y-54968216D01*
X99680520Y-54831284D01*
X99568716Y-54719480D01*
X99431784Y-54640423D01*
X99279057Y-54599500D01*
X99120943Y-54599500D01*
X98968216Y-54640423D01*
X98831284Y-54719480D01*
X98719480Y-54831284D01*
X98640423Y-54968216D01*
X98599500Y-55120943D01*
X98599500Y-55279057D01*
X98640423Y-55431784D01*
X98719480Y-55568716D01*
X98831284Y-55680520D01*
X98968216Y-55759577D01*
X99120943Y-55800500D01*
X99122389Y-55800500D01*
X99123373Y-55800819D01*
X99127377Y-55801347D01*
X99127279Y-55802088D01*
X99180580Y-55819407D01*
X99192393Y-55829496D01*
X102970504Y-59607607D01*
X102998281Y-59662124D01*
X102999500Y-59677611D01*
X102999500Y-59679057D01*
X103040423Y-59831784D01*
X103119480Y-59968716D01*
X103231284Y-60080520D01*
X103368216Y-60159577D01*
X103520943Y-60200500D01*
X103520945Y-60200500D01*
X103679055Y-60200500D01*
X103679057Y-60200500D01*
X103831784Y-60159577D01*
X103968716Y-60080520D01*
X104080520Y-59968716D01*
X104159577Y-59831784D01*
X104200500Y-59679057D01*
X104200500Y-59679054D01*
X104200975Y-59675448D01*
X104202096Y-59673096D01*
X104202179Y-59672789D01*
X104202235Y-59672804D01*
X104227316Y-59620223D01*
X104281087Y-59591029D01*
X104341749Y-59599015D01*
X104369128Y-59618364D01*
X104431284Y-59680520D01*
X104568216Y-59759577D01*
X104720943Y-59800500D01*
X104720945Y-59800500D01*
X104879055Y-59800500D01*
X104879057Y-59800500D01*
X105024879Y-59761427D01*
X105085978Y-59764630D01*
X105133528Y-59803135D01*
X105149500Y-59857054D01*
X105149500Y-70172388D01*
X105130593Y-70230579D01*
X105120504Y-70242392D01*
X96358047Y-79004849D01*
X96303530Y-79032626D01*
X96243098Y-79023055D01*
X96199833Y-78979790D01*
X96190262Y-78919358D01*
X96192413Y-78909235D01*
X96200500Y-78879057D01*
X96200500Y-78720943D01*
X96159577Y-78568216D01*
X96080520Y-78431284D01*
X95968716Y-78319480D01*
X95831784Y-78240423D01*
X95679057Y-78199500D01*
X95679055Y-78199500D01*
X95642256Y-78199500D01*
X95584065Y-78180593D01*
X95572252Y-78170504D01*
X89829496Y-72427748D01*
X89801719Y-72373231D01*
X89800500Y-72357744D01*
X89800500Y-72320944D01*
X89800500Y-72320943D01*
X89759577Y-72168216D01*
X89680520Y-72031284D01*
X89568716Y-71919480D01*
X89431784Y-71840423D01*
X89279057Y-71799500D01*
X89120943Y-71799500D01*
X89024975Y-71825214D01*
X88975123Y-71838572D01*
X88914021Y-71835369D01*
X88866471Y-71796864D01*
X88850500Y-71742945D01*
X88850500Y-71484117D01*
X88869407Y-71425926D01*
X88918907Y-71389962D01*
X88923857Y-71388495D01*
X89031784Y-71359577D01*
X89168716Y-71280520D01*
X89280520Y-71168716D01*
X89359577Y-71031784D01*
X89400500Y-70879057D01*
X89400500Y-70720943D01*
X89359577Y-70568216D01*
X89280520Y-70431284D01*
X89168716Y-70319480D01*
X89031784Y-70240423D01*
X88879057Y-70199500D01*
X88720943Y-70199500D01*
X88568216Y-70240423D01*
X88431284Y-70319480D01*
X88319480Y-70431284D01*
X88240423Y-70568216D01*
X88199500Y-70720944D01*
X88199500Y-70722389D01*
X88199180Y-70723373D01*
X88198653Y-70727377D01*
X88197911Y-70727279D01*
X88180593Y-70780580D01*
X88170504Y-70792392D01*
X88039511Y-70923385D01*
X88039507Y-70923390D01*
X87980200Y-71026112D01*
X87980200Y-71026113D01*
X87980201Y-71026114D01*
X87949500Y-71140692D01*
X87949500Y-72942945D01*
X87930593Y-73001136D01*
X87881093Y-73037100D01*
X87824877Y-73038572D01*
X87748014Y-73017977D01*
X87679057Y-72999500D01*
X87520943Y-72999500D01*
X87451986Y-73017977D01*
X87375123Y-73038572D01*
X87314021Y-73035369D01*
X87266471Y-72996864D01*
X87250500Y-72942945D01*
X87250500Y-66227610D01*
X87269407Y-66169419D01*
X87279490Y-66157612D01*
X98360489Y-55076614D01*
X98404723Y-55000000D01*
X98419797Y-54973891D01*
X98419797Y-54973890D01*
X98419799Y-54973887D01*
X98433330Y-54923387D01*
X98450500Y-54859309D01*
X98450500Y-54830517D01*
X98452205Y-54821450D01*
X98462664Y-54802304D01*
X98469407Y-54781552D01*
X98479490Y-54769745D01*
X98480520Y-54768716D01*
X98559577Y-54631784D01*
X98600500Y-54479057D01*
X98600500Y-54320943D01*
X98559577Y-54168216D01*
X98480520Y-54031284D01*
X98368716Y-53919480D01*
X98231784Y-53840423D01*
X98231781Y-53840422D01*
X98226164Y-53837179D01*
X98226987Y-53835752D01*
X98186563Y-53801225D01*
X98172281Y-53741730D01*
X98195698Y-53685202D01*
X98247868Y-53653235D01*
X98270976Y-53650500D01*
X100172389Y-53650500D01*
X100230580Y-53669407D01*
G37*
%TD.AperFunction*%
%TA.AperFunction,Conductor*%
G36*
X86256420Y-68563080D02*
G01*
X86285978Y-68564630D01*
X86286826Y-68565316D01*
X86287916Y-68565397D01*
X86310545Y-68584524D01*
X86333528Y-68603135D01*
X86333850Y-68604222D01*
X86334645Y-68604894D01*
X86337529Y-68616643D01*
X86349500Y-68657054D01*
X86349500Y-74459309D01*
X86373713Y-74549673D01*
X86373712Y-74549673D01*
X86380200Y-74573886D01*
X86380202Y-74573890D01*
X86439507Y-74676609D01*
X86439509Y-74676611D01*
X86439511Y-74676614D01*
X87120505Y-75357608D01*
X87148281Y-75412123D01*
X87149500Y-75427610D01*
X87149500Y-75692508D01*
X87130593Y-75750699D01*
X87081093Y-75786663D01*
X87019907Y-75786663D01*
X87012617Y-75783973D01*
X86989743Y-75774499D01*
X86864071Y-75749501D01*
X86864069Y-75749501D01*
X86735931Y-75749501D01*
X86735928Y-75749501D01*
X86610256Y-75774499D01*
X86610254Y-75774499D01*
X86491875Y-75823533D01*
X86385333Y-75894721D01*
X83555268Y-78724784D01*
X83500751Y-78752561D01*
X83440319Y-78742990D01*
X83397054Y-78699725D01*
X83389637Y-78680403D01*
X83359577Y-78568216D01*
X83280520Y-78431284D01*
X83280517Y-78431281D01*
X83280516Y-78431279D01*
X83279490Y-78430253D01*
X83279016Y-78429324D01*
X83276569Y-78426134D01*
X83277160Y-78425680D01*
X83251717Y-78375734D01*
X83250500Y-78360256D01*
X83250500Y-71427611D01*
X83269407Y-71369420D01*
X83279496Y-71357607D01*
X86007607Y-68629496D01*
X86054006Y-68603355D01*
X86065635Y-68600500D01*
X86079057Y-68600500D01*
X86225914Y-68561149D01*
X86226895Y-68560909D01*
X86256420Y-68563080D01*
G37*
%TD.AperFunction*%
%TA.AperFunction,Conductor*%
G36*
X102407948Y-51046776D02*
G01*
X102419762Y-51056865D01*
X105120504Y-53757607D01*
X105148281Y-53812124D01*
X105149500Y-53827611D01*
X105149500Y-58542945D01*
X105141112Y-58568758D01*
X105134645Y-58595104D01*
X105131760Y-58597541D01*
X105130593Y-58601136D01*
X105108635Y-58617088D01*
X105087917Y-58634602D01*
X105084209Y-58634835D01*
X105081093Y-58637100D01*
X105026896Y-58639090D01*
X105025859Y-58638835D01*
X104879057Y-58599500D01*
X104865636Y-58599500D01*
X104854007Y-58596645D01*
X104837684Y-58586527D01*
X104819420Y-58580593D01*
X104807607Y-58570504D01*
X103795150Y-57558047D01*
X103767373Y-57503530D01*
X103776944Y-57443098D01*
X103820209Y-57399833D01*
X103880641Y-57390262D01*
X103890772Y-57392415D01*
X103920943Y-57400500D01*
X103920944Y-57400500D01*
X104079055Y-57400500D01*
X104079057Y-57400500D01*
X104231784Y-57359577D01*
X104368716Y-57280520D01*
X104480520Y-57168716D01*
X104559577Y-57031784D01*
X104600500Y-56879057D01*
X104600500Y-56720943D01*
X104559577Y-56568216D01*
X104480520Y-56431284D01*
X104368716Y-56319480D01*
X104231784Y-56240423D01*
X104079057Y-56199500D01*
X104079055Y-56199500D01*
X104077612Y-56199500D01*
X104076628Y-56199180D01*
X104072623Y-56198653D01*
X104072720Y-56197910D01*
X104019421Y-56180593D01*
X104007608Y-56170504D01*
X102428074Y-54590970D01*
X100803511Y-52966408D01*
X100775735Y-52911892D01*
X100785306Y-52851460D01*
X100828571Y-52808195D01*
X100889003Y-52798624D01*
X100889010Y-52798625D01*
X100897687Y-52800000D01*
X101102315Y-52800000D01*
X101304412Y-52767991D01*
X101499027Y-52704756D01*
X101681348Y-52611860D01*
X101681353Y-52611856D01*
X101766876Y-52549720D01*
X101766876Y-52549719D01*
X101223312Y-52006155D01*
X101337708Y-51940110D01*
X101440110Y-51837708D01*
X101506155Y-51723312D01*
X102049719Y-52266876D01*
X102049720Y-52266876D01*
X102111856Y-52181353D01*
X102111860Y-52181348D01*
X102204756Y-51999027D01*
X102267991Y-51804412D01*
X102300000Y-51602315D01*
X102300000Y-51397684D01*
X102267990Y-51195583D01*
X102255604Y-51157463D01*
X102255603Y-51096277D01*
X102291566Y-51046777D01*
X102349757Y-51027869D01*
X102407948Y-51046776D01*
G37*
%TD.AperFunction*%
%TA.AperFunction,Conductor*%
G36*
X63959191Y-20518907D02*
G01*
X63995155Y-20568407D01*
X64000000Y-20599000D01*
X64000000Y-26250000D01*
X64000001Y-26250000D01*
X111999999Y-26250000D01*
X112000000Y-26250000D01*
X112000000Y-20599000D01*
X112018907Y-20540809D01*
X112068407Y-20504845D01*
X112099000Y-20500000D01*
X119401000Y-20500000D01*
X119459191Y-20518907D01*
X119495155Y-20568407D01*
X119500000Y-20599000D01*
X119500000Y-99401000D01*
X119481093Y-99459191D01*
X119431593Y-99495155D01*
X119401000Y-99500000D01*
X20599000Y-99500000D01*
X20540809Y-99481093D01*
X20504845Y-99431593D01*
X20500000Y-99401000D01*
X20500000Y-94111893D01*
X29829500Y-94111893D01*
X29829500Y-95888106D01*
X29840123Y-95976565D01*
X29895637Y-96117339D01*
X29895638Y-96117341D01*
X29895639Y-96117342D01*
X29987078Y-96237922D01*
X30107658Y-96329361D01*
X30107659Y-96329361D01*
X30107660Y-96329362D01*
X30178047Y-96357119D01*
X30248436Y-96384877D01*
X30336898Y-96395500D01*
X30336900Y-96395500D01*
X31663100Y-96395500D01*
X31663102Y-96395500D01*
X31751564Y-96384877D01*
X31892342Y-96329361D01*
X32012922Y-96237922D01*
X32104361Y-96117342D01*
X32159877Y-95976564D01*
X32170500Y-95888102D01*
X32170500Y-94682915D01*
X32370000Y-94682915D01*
X32370000Y-94799999D01*
X32370001Y-94800000D01*
X32977600Y-94800000D01*
X32945000Y-94921667D01*
X32945000Y-95078333D01*
X32977600Y-95200000D01*
X32370001Y-95200000D01*
X32370000Y-95200001D01*
X32370000Y-95317084D01*
X32398807Y-95498971D01*
X32455718Y-95674124D01*
X32539324Y-95838211D01*
X32647573Y-95987202D01*
X32777797Y-96117426D01*
X32926788Y-96225675D01*
X33090875Y-96309281D01*
X33266027Y-96366192D01*
X33339999Y-96377907D01*
X33340000Y-96377906D01*
X33340000Y-95562399D01*
X33461667Y-95595000D01*
X33618333Y-95595000D01*
X33740000Y-95562399D01*
X33740000Y-96377907D01*
X33813972Y-96366192D01*
X33989124Y-96309281D01*
X34153211Y-96225675D01*
X34302202Y-96117426D01*
X34432426Y-95987202D01*
X34540675Y-95838211D01*
X34624281Y-95674124D01*
X34681192Y-95498971D01*
X34710000Y-95317084D01*
X34710000Y-95200001D01*
X34709999Y-95200000D01*
X34102400Y-95200000D01*
X34135000Y-95078333D01*
X34135000Y-94921667D01*
X34102400Y-94800000D01*
X34709999Y-94800000D01*
X34710000Y-94799999D01*
X34710000Y-94682915D01*
X34709994Y-94682876D01*
X34909500Y-94682876D01*
X34909500Y-95317123D01*
X34938321Y-95499090D01*
X34995253Y-95674312D01*
X34995254Y-95674315D01*
X34995255Y-95674316D01*
X35078899Y-95838475D01*
X35187193Y-95987529D01*
X35317471Y-96117807D01*
X35466525Y-96226101D01*
X35630684Y-96309745D01*
X35805907Y-96366678D01*
X35876797Y-96377906D01*
X35987877Y-96395500D01*
X35987880Y-96395500D01*
X36172123Y-96395500D01*
X36263106Y-96381089D01*
X36354093Y-96366678D01*
X36529316Y-96309745D01*
X36693475Y-96226101D01*
X36842529Y-96117807D01*
X36972807Y-95987529D01*
X37081101Y-95838475D01*
X37164745Y-95674316D01*
X37221678Y-95499093D01*
X37250500Y-95317120D01*
X37250500Y-94682880D01*
X37250500Y-94682876D01*
X37225317Y-94523882D01*
X37221678Y-94500907D01*
X37164745Y-94325684D01*
X37081101Y-94161525D01*
X36972807Y-94012471D01*
X36842529Y-93882193D01*
X36693475Y-93773899D01*
X36693474Y-93773898D01*
X36693472Y-93773897D01*
X36529312Y-93690253D01*
X36518901Y-93686870D01*
X36469403Y-93650902D01*
X36450500Y-93592717D01*
X36450500Y-90627611D01*
X36469407Y-90569420D01*
X36479496Y-90557607D01*
X44007607Y-83029496D01*
X44062124Y-83001719D01*
X44077611Y-83000500D01*
X44079055Y-83000500D01*
X44079057Y-83000500D01*
X44231784Y-82959577D01*
X44368716Y-82880520D01*
X44480520Y-82768716D01*
X44559577Y-82631784D01*
X44600500Y-82479057D01*
X44600500Y-82320943D01*
X44592417Y-82290776D01*
X44595618Y-82229677D01*
X44634123Y-82182126D01*
X44693223Y-82166290D01*
X44750345Y-82188216D01*
X44758047Y-82195150D01*
X45920504Y-83357607D01*
X45948281Y-83412124D01*
X45949500Y-83427611D01*
X45949500Y-84760256D01*
X45930593Y-84818447D01*
X45920510Y-84830253D01*
X45919483Y-84831279D01*
X45919480Y-84831283D01*
X45919480Y-84831284D01*
X45840423Y-84968216D01*
X45799500Y-85120943D01*
X45799500Y-85279057D01*
X45840423Y-85431784D01*
X45919480Y-85568716D01*
X46031284Y-85680520D01*
X46168216Y-85759577D01*
X46320943Y-85800500D01*
X46320945Y-85800500D01*
X46479055Y-85800500D01*
X46479057Y-85800500D01*
X46509222Y-85792417D01*
X46570320Y-85795618D01*
X46617871Y-85834121D01*
X46633708Y-85893222D01*
X46611783Y-85950344D01*
X46604848Y-85958047D01*
X38960391Y-93602504D01*
X38905874Y-93630281D01*
X38874900Y-93630281D01*
X38712123Y-93604500D01*
X38712120Y-93604500D01*
X38527880Y-93604500D01*
X38527877Y-93604500D01*
X38345909Y-93633321D01*
X38170687Y-93690253D01*
X38006527Y-93773897D01*
X37857472Y-93882192D01*
X37727192Y-94012472D01*
X37618897Y-94161527D01*
X37535253Y-94325687D01*
X37478321Y-94500909D01*
X37449500Y-94682876D01*
X37449500Y-95317123D01*
X37478321Y-95499090D01*
X37535253Y-95674312D01*
X37535254Y-95674315D01*
X37535255Y-95674316D01*
X37618899Y-95838475D01*
X37727193Y-95987529D01*
X37857471Y-96117807D01*
X38006525Y-96226101D01*
X38170684Y-96309745D01*
X38345907Y-96366678D01*
X38416797Y-96377906D01*
X38527877Y-96395500D01*
X38527880Y-96395500D01*
X38712123Y-96395500D01*
X38803106Y-96381089D01*
X38894093Y-96366678D01*
X39069316Y-96309745D01*
X39233475Y-96226101D01*
X39382529Y-96117807D01*
X39512807Y-95987529D01*
X39621101Y-95838475D01*
X39704745Y-95674316D01*
X39761678Y-95499093D01*
X39790500Y-95317120D01*
X39790500Y-94682880D01*
X39790500Y-94682876D01*
X39765317Y-94523882D01*
X39761678Y-94500907D01*
X39704745Y-94325684D01*
X39672142Y-94261698D01*
X39662572Y-94201269D01*
X39690347Y-94146754D01*
X48957608Y-84879496D01*
X49012125Y-84851719D01*
X49027612Y-84850500D01*
X49873388Y-84850500D01*
X49931579Y-84869407D01*
X49967543Y-84918907D01*
X49967543Y-84980093D01*
X49943392Y-85019504D01*
X41379533Y-93583362D01*
X41325016Y-93611139D01*
X41294043Y-93611139D01*
X41252124Y-93604500D01*
X41252120Y-93604500D01*
X41067880Y-93604500D01*
X41067877Y-93604500D01*
X40885909Y-93633321D01*
X40710687Y-93690253D01*
X40546527Y-93773897D01*
X40397472Y-93882192D01*
X40267192Y-94012472D01*
X40158897Y-94161527D01*
X40075253Y-94325687D01*
X40018321Y-94500909D01*
X39989500Y-94682876D01*
X39989500Y-95317123D01*
X40018321Y-95499090D01*
X40075253Y-95674312D01*
X40075254Y-95674315D01*
X40075255Y-95674316D01*
X40158899Y-95838475D01*
X40267193Y-95987529D01*
X40397471Y-96117807D01*
X40546525Y-96226101D01*
X40710684Y-96309745D01*
X40885907Y-96366678D01*
X40956797Y-96377906D01*
X41067877Y-96395500D01*
X41067880Y-96395500D01*
X41252123Y-96395500D01*
X41343106Y-96381089D01*
X41434093Y-96366678D01*
X41609316Y-96309745D01*
X41773475Y-96226101D01*
X41922529Y-96117807D01*
X42052807Y-95987529D01*
X42161101Y-95838475D01*
X42244745Y-95674316D01*
X42301678Y-95499093D01*
X42330500Y-95317120D01*
X42330500Y-94682880D01*
X42330500Y-94682876D01*
X42305317Y-94523882D01*
X42301678Y-94500907D01*
X42244745Y-94325684D01*
X42164887Y-94168957D01*
X42155316Y-94108526D01*
X42183093Y-94054009D01*
X50557608Y-85679496D01*
X50612125Y-85651719D01*
X50627612Y-85650500D01*
X51473389Y-85650500D01*
X51531580Y-85669407D01*
X51567544Y-85718907D01*
X51567544Y-85780093D01*
X51543393Y-85819504D01*
X43787393Y-93575504D01*
X43732876Y-93603281D01*
X43717389Y-93604500D01*
X43607877Y-93604500D01*
X43425909Y-93633321D01*
X43250687Y-93690253D01*
X43086527Y-93773897D01*
X42937472Y-93882192D01*
X42807192Y-94012472D01*
X42698897Y-94161527D01*
X42615253Y-94325687D01*
X42558321Y-94500909D01*
X42529500Y-94682876D01*
X42529500Y-95317123D01*
X42558321Y-95499090D01*
X42615253Y-95674312D01*
X42615254Y-95674315D01*
X42615255Y-95674316D01*
X42698899Y-95838475D01*
X42807193Y-95987529D01*
X42937471Y-96117807D01*
X43086525Y-96226101D01*
X43250684Y-96309745D01*
X43425907Y-96366678D01*
X43496797Y-96377906D01*
X43607877Y-96395500D01*
X43607880Y-96395500D01*
X43792123Y-96395500D01*
X43883106Y-96381089D01*
X43974093Y-96366678D01*
X44149316Y-96309745D01*
X44313475Y-96226101D01*
X44462529Y-96117807D01*
X44592807Y-95987529D01*
X44701101Y-95838475D01*
X44784745Y-95674316D01*
X44841678Y-95499093D01*
X44870500Y-95317120D01*
X44870500Y-94682880D01*
X44870500Y-94682876D01*
X44845317Y-94523882D01*
X44841678Y-94500907D01*
X44784745Y-94325684D01*
X44701101Y-94161525D01*
X44655897Y-94099307D01*
X44636991Y-94041118D01*
X44655898Y-93982927D01*
X44665981Y-93971120D01*
X52157607Y-86479496D01*
X52212124Y-86451719D01*
X52227611Y-86450500D01*
X53073388Y-86450500D01*
X53131579Y-86469407D01*
X53167543Y-86518907D01*
X53167543Y-86580093D01*
X53143392Y-86619504D01*
X46839508Y-92923389D01*
X46839507Y-92923390D01*
X46780200Y-93026112D01*
X46780200Y-93026113D01*
X46780201Y-93026114D01*
X46749500Y-93140692D01*
X46749500Y-93573547D01*
X46730593Y-93631738D01*
X46681093Y-93667702D01*
X46619908Y-93667702D01*
X46514090Y-93633321D01*
X46332123Y-93604500D01*
X46332120Y-93604500D01*
X46147880Y-93604500D01*
X46147877Y-93604500D01*
X45965909Y-93633321D01*
X45790687Y-93690253D01*
X45626527Y-93773897D01*
X45477472Y-93882192D01*
X45347192Y-94012472D01*
X45238897Y-94161527D01*
X45155253Y-94325687D01*
X45098321Y-94500909D01*
X45069500Y-94682876D01*
X45069500Y-95317123D01*
X45098321Y-95499090D01*
X45155253Y-95674312D01*
X45155254Y-95674315D01*
X45155255Y-95674316D01*
X45238899Y-95838475D01*
X45347193Y-95987529D01*
X45477471Y-96117807D01*
X45626525Y-96226101D01*
X45790684Y-96309745D01*
X45965907Y-96366678D01*
X46036797Y-96377906D01*
X46147877Y-96395500D01*
X46147880Y-96395500D01*
X46332123Y-96395500D01*
X46423106Y-96381089D01*
X46514093Y-96366678D01*
X46689316Y-96309745D01*
X46853475Y-96226101D01*
X47002529Y-96117807D01*
X47132807Y-95987529D01*
X47241101Y-95838475D01*
X47324745Y-95674316D01*
X47381678Y-95499093D01*
X47410500Y-95317120D01*
X47410500Y-94867610D01*
X47412968Y-94860012D01*
X47411719Y-94852123D01*
X47422243Y-94831467D01*
X47429407Y-94809419D01*
X47439489Y-94797614D01*
X47440498Y-94796604D01*
X47495013Y-94768829D01*
X47555445Y-94778400D01*
X47598710Y-94821665D01*
X47609500Y-94866610D01*
X47609500Y-95317123D01*
X47638321Y-95499090D01*
X47695253Y-95674312D01*
X47695254Y-95674315D01*
X47695255Y-95674316D01*
X47778899Y-95838475D01*
X47887193Y-95987529D01*
X48017471Y-96117807D01*
X48166525Y-96226101D01*
X48330684Y-96309745D01*
X48505907Y-96366678D01*
X48576797Y-96377906D01*
X48687877Y-96395500D01*
X48687880Y-96395500D01*
X48872123Y-96395500D01*
X48963106Y-96381089D01*
X49054093Y-96366678D01*
X49229316Y-96309745D01*
X49393475Y-96226101D01*
X49542529Y-96117807D01*
X49672807Y-95987529D01*
X49781101Y-95838475D01*
X49864745Y-95674316D01*
X49921678Y-95499093D01*
X49950500Y-95317120D01*
X49950500Y-94727610D01*
X49969407Y-94669419D01*
X49979490Y-94657612D01*
X52180496Y-92456605D01*
X52235013Y-92428829D01*
X52295445Y-92438400D01*
X52338710Y-92481665D01*
X52349500Y-92526610D01*
X52349500Y-93515163D01*
X52330593Y-93573354D01*
X52281093Y-93609318D01*
X52262308Y-93613456D01*
X52248436Y-93615122D01*
X52107660Y-93670637D01*
X52107656Y-93670640D01*
X51987081Y-93762075D01*
X51987075Y-93762081D01*
X51895640Y-93882656D01*
X51895637Y-93882660D01*
X51840123Y-94023434D01*
X51829500Y-94111893D01*
X51829500Y-95888106D01*
X51840123Y-95976565D01*
X51895637Y-96117339D01*
X51895638Y-96117341D01*
X51895639Y-96117342D01*
X51987078Y-96237922D01*
X52107658Y-96329361D01*
X52107659Y-96329361D01*
X52107660Y-96329362D01*
X52178047Y-96357119D01*
X52248436Y-96384877D01*
X52336898Y-96395500D01*
X52336900Y-96395500D01*
X53663100Y-96395500D01*
X53663102Y-96395500D01*
X53751564Y-96384877D01*
X53892342Y-96329361D01*
X54012922Y-96237922D01*
X54104361Y-96117342D01*
X54159877Y-95976564D01*
X54170500Y-95888102D01*
X54170500Y-94682876D01*
X54369500Y-94682876D01*
X54369500Y-95317123D01*
X54398321Y-95499090D01*
X54455253Y-95674312D01*
X54455254Y-95674315D01*
X54455255Y-95674316D01*
X54538899Y-95838475D01*
X54647193Y-95987529D01*
X54777471Y-96117807D01*
X54926525Y-96226101D01*
X55090684Y-96309745D01*
X55265907Y-96366678D01*
X55336797Y-96377906D01*
X55447877Y-96395500D01*
X55447880Y-96395500D01*
X55632123Y-96395500D01*
X55723106Y-96381089D01*
X55814093Y-96366678D01*
X55989316Y-96309745D01*
X56153475Y-96226101D01*
X56302529Y-96117807D01*
X56432807Y-95987529D01*
X56541101Y-95838475D01*
X56624745Y-95674316D01*
X56681678Y-95499093D01*
X56710500Y-95317120D01*
X56710500Y-94682880D01*
X56710500Y-94682876D01*
X56685317Y-94523882D01*
X56681678Y-94500907D01*
X56624745Y-94325684D01*
X56541101Y-94161525D01*
X56432807Y-94012471D01*
X56302529Y-93882193D01*
X56153475Y-93773899D01*
X56153474Y-93773898D01*
X56153472Y-93773897D01*
X56122702Y-93758219D01*
X56104554Y-93748972D01*
X56061290Y-93705708D01*
X56050500Y-93660763D01*
X56050500Y-92439743D01*
X56069407Y-92381552D01*
X56079490Y-92369745D01*
X56080520Y-92368716D01*
X56159577Y-92231784D01*
X56200500Y-92079057D01*
X56200500Y-91920943D01*
X56159577Y-91768216D01*
X56080520Y-91631284D01*
X55968716Y-91519480D01*
X55831784Y-91440423D01*
X55679057Y-91399500D01*
X55520943Y-91399500D01*
X55368216Y-91440423D01*
X55231284Y-91519480D01*
X55119480Y-91631284D01*
X55040423Y-91768216D01*
X54999500Y-91920943D01*
X54999500Y-92079057D01*
X55040423Y-92231784D01*
X55119480Y-92368716D01*
X55120505Y-92369741D01*
X55120977Y-92370668D01*
X55123431Y-92373866D01*
X55122838Y-92374320D01*
X55148281Y-92424256D01*
X55149500Y-92439743D01*
X55149500Y-93599743D01*
X55130593Y-93657934D01*
X55093486Y-93687189D01*
X55094149Y-93688490D01*
X55090686Y-93690254D01*
X55090684Y-93690255D01*
X55035871Y-93718183D01*
X54926527Y-93773897D01*
X54777472Y-93882192D01*
X54647192Y-94012472D01*
X54538897Y-94161527D01*
X54455253Y-94325687D01*
X54398321Y-94500909D01*
X54369500Y-94682876D01*
X54170500Y-94682876D01*
X54170500Y-94111898D01*
X54159877Y-94023436D01*
X54104361Y-93882658D01*
X54012922Y-93762078D01*
X53892342Y-93670639D01*
X53892341Y-93670638D01*
X53892339Y-93670637D01*
X53751565Y-93615123D01*
X53663106Y-93604500D01*
X53663102Y-93604500D01*
X53349500Y-93604500D01*
X53291309Y-93585593D01*
X53255345Y-93536093D01*
X53250500Y-93505500D01*
X53250500Y-92684117D01*
X53269407Y-92625926D01*
X53318907Y-92589962D01*
X53323857Y-92588495D01*
X53431784Y-92559577D01*
X53568716Y-92480520D01*
X53680520Y-92368716D01*
X53759577Y-92231784D01*
X53800500Y-92079057D01*
X53800500Y-91920943D01*
X53759577Y-91768216D01*
X53680520Y-91631284D01*
X53568716Y-91519480D01*
X53431784Y-91440423D01*
X53431783Y-91440422D01*
X53431782Y-91440422D01*
X53411991Y-91435119D01*
X53360678Y-91401794D01*
X53338753Y-91344671D01*
X53354590Y-91285571D01*
X53367608Y-91269494D01*
X57380496Y-87256605D01*
X57435013Y-87228829D01*
X57495445Y-87238400D01*
X57538710Y-87281665D01*
X57549500Y-87326610D01*
X57549500Y-93670953D01*
X57530593Y-93729144D01*
X57495447Y-93759162D01*
X57466525Y-93773899D01*
X57317472Y-93882192D01*
X57187192Y-94012472D01*
X57078897Y-94161527D01*
X56995253Y-94325687D01*
X56938321Y-94500909D01*
X56909500Y-94682876D01*
X56909500Y-95317123D01*
X56938321Y-95499090D01*
X56995253Y-95674312D01*
X56995254Y-95674315D01*
X56995255Y-95674316D01*
X57078899Y-95838475D01*
X57187193Y-95987529D01*
X57317471Y-96117807D01*
X57466525Y-96226101D01*
X57630684Y-96309745D01*
X57805907Y-96366678D01*
X57876797Y-96377906D01*
X57987877Y-96395500D01*
X57987880Y-96395500D01*
X58172123Y-96395500D01*
X58263106Y-96381089D01*
X58354093Y-96366678D01*
X58529316Y-96309745D01*
X58693475Y-96226101D01*
X58842529Y-96117807D01*
X58972807Y-95987529D01*
X59081101Y-95838475D01*
X59164745Y-95674316D01*
X59221678Y-95499093D01*
X59250500Y-95317120D01*
X59250500Y-94682880D01*
X59250500Y-94682876D01*
X59225317Y-94523882D01*
X59221678Y-94500907D01*
X59164745Y-94325684D01*
X59081101Y-94161525D01*
X58972807Y-94012471D01*
X58842529Y-93882193D01*
X58693475Y-93773899D01*
X58693474Y-93773898D01*
X58693472Y-93773897D01*
X58529312Y-93690253D01*
X58518901Y-93686870D01*
X58469403Y-93650902D01*
X58450500Y-93592717D01*
X58450500Y-87427611D01*
X58469407Y-87369420D01*
X58479496Y-87357607D01*
X64407608Y-81429496D01*
X64462125Y-81401719D01*
X64477612Y-81400500D01*
X64479055Y-81400500D01*
X64479057Y-81400500D01*
X64631784Y-81359577D01*
X64768716Y-81280520D01*
X64880520Y-81168716D01*
X64959577Y-81031784D01*
X65000500Y-80879057D01*
X65000500Y-80720943D01*
X64959577Y-80568216D01*
X64880520Y-80431284D01*
X64768716Y-80319480D01*
X64631784Y-80240423D01*
X64631783Y-80240422D01*
X64631782Y-80240422D01*
X64611991Y-80235119D01*
X64560678Y-80201794D01*
X64538753Y-80144671D01*
X64554590Y-80085571D01*
X64567608Y-80069494D01*
X81207607Y-63429496D01*
X81262124Y-63401719D01*
X81277611Y-63400500D01*
X81279055Y-63400500D01*
X81279057Y-63400500D01*
X81431784Y-63359577D01*
X81568716Y-63280520D01*
X81680520Y-63168716D01*
X81759577Y-63031784D01*
X81800500Y-62879057D01*
X81800500Y-62720943D01*
X81759577Y-62568216D01*
X81680520Y-62431284D01*
X81568716Y-62319480D01*
X81431784Y-62240423D01*
X81279057Y-62199500D01*
X81120943Y-62199500D01*
X80968216Y-62240423D01*
X80831284Y-62319480D01*
X80719480Y-62431284D01*
X80640423Y-62568216D01*
X80599500Y-62720944D01*
X80599500Y-62722389D01*
X80599180Y-62723373D01*
X80598653Y-62727377D01*
X80597911Y-62727279D01*
X80580593Y-62780580D01*
X80570504Y-62792393D01*
X62730510Y-80632386D01*
X62675993Y-80660163D01*
X62615561Y-80650592D01*
X62572296Y-80607327D01*
X62564879Y-80588005D01*
X62562893Y-80580593D01*
X62559577Y-80568216D01*
X62480520Y-80431284D01*
X62368716Y-80319480D01*
X62231784Y-80240423D01*
X62079057Y-80199500D01*
X61920943Y-80199500D01*
X61768216Y-80240423D01*
X61631284Y-80319480D01*
X61519480Y-80431284D01*
X61440423Y-80568216D01*
X61418351Y-80650592D01*
X61399500Y-80720944D01*
X61399500Y-80722389D01*
X61399180Y-80723373D01*
X61398653Y-80727377D01*
X61397911Y-80727279D01*
X61380593Y-80780580D01*
X61370504Y-80792393D01*
X59592393Y-82570504D01*
X59537876Y-82598281D01*
X59522389Y-82599500D01*
X59520943Y-82599500D01*
X59368216Y-82640423D01*
X59231284Y-82719480D01*
X59119480Y-82831284D01*
X59040423Y-82968216D01*
X58999500Y-83120943D01*
X58999500Y-83279057D01*
X59040423Y-83431784D01*
X59119480Y-83568716D01*
X59231284Y-83680520D01*
X59368216Y-83759577D01*
X59388006Y-83764879D01*
X59439320Y-83798203D01*
X59461246Y-83855325D01*
X59445410Y-83914425D01*
X59432386Y-83930510D01*
X49566508Y-93796387D01*
X49511991Y-93824164D01*
X49451559Y-93814593D01*
X49438316Y-93806478D01*
X49393475Y-93773899D01*
X49393474Y-93773898D01*
X49393472Y-93773897D01*
X49229312Y-93690253D01*
X49054090Y-93633321D01*
X48872123Y-93604500D01*
X48872120Y-93604500D01*
X48687880Y-93604500D01*
X48687877Y-93604500D01*
X48505909Y-93633321D01*
X48330687Y-93690253D01*
X48166527Y-93773897D01*
X48017472Y-93882192D01*
X47887192Y-94012472D01*
X47829593Y-94091751D01*
X47780092Y-94127715D01*
X47718907Y-94127715D01*
X47669407Y-94091751D01*
X47650500Y-94033560D01*
X47650500Y-93427611D01*
X47669407Y-93369420D01*
X47679496Y-93357607D01*
X87357607Y-53679496D01*
X87412124Y-53651719D01*
X87427611Y-53650500D01*
X92942946Y-53650500D01*
X92968756Y-53658886D01*
X92995106Y-53665355D01*
X92997544Y-53668239D01*
X93001137Y-53669407D01*
X93017089Y-53691364D01*
X93034603Y-53712084D01*
X93034836Y-53715790D01*
X93037101Y-53718907D01*
X93039091Y-53773105D01*
X93038850Y-53774085D01*
X92999500Y-53920943D01*
X92999500Y-53934364D01*
X92996645Y-53945993D01*
X92986527Y-53962314D01*
X92980593Y-53980579D01*
X92970504Y-53992392D01*
X60439508Y-86523389D01*
X60439507Y-86523390D01*
X60380200Y-86626112D01*
X60380200Y-86626113D01*
X60380201Y-86626114D01*
X60349500Y-86740692D01*
X60349500Y-93560226D01*
X60330593Y-93618417D01*
X60281093Y-93654381D01*
X60170686Y-93690254D01*
X60006527Y-93773897D01*
X59857472Y-93882192D01*
X59727192Y-94012472D01*
X59618897Y-94161527D01*
X59535253Y-94325687D01*
X59478321Y-94500909D01*
X59449500Y-94682876D01*
X59449500Y-95317123D01*
X59478321Y-95499090D01*
X59535253Y-95674312D01*
X59535254Y-95674315D01*
X59535255Y-95674316D01*
X59618899Y-95838475D01*
X59727193Y-95987529D01*
X59857471Y-96117807D01*
X60006525Y-96226101D01*
X60170684Y-96309745D01*
X60345907Y-96366678D01*
X60416797Y-96377906D01*
X60527877Y-96395500D01*
X60527880Y-96395500D01*
X60712123Y-96395500D01*
X60803106Y-96381089D01*
X60894093Y-96366678D01*
X61069316Y-96309745D01*
X61233475Y-96226101D01*
X61382529Y-96117807D01*
X61512807Y-95987529D01*
X61621101Y-95838475D01*
X61704745Y-95674316D01*
X61761678Y-95499093D01*
X61790500Y-95317120D01*
X61790500Y-94682880D01*
X61790500Y-94682876D01*
X61989500Y-94682876D01*
X61989500Y-95317123D01*
X62018321Y-95499090D01*
X62075253Y-95674312D01*
X62075254Y-95674315D01*
X62075255Y-95674316D01*
X62158899Y-95838475D01*
X62267193Y-95987529D01*
X62397471Y-96117807D01*
X62546525Y-96226101D01*
X62710684Y-96309745D01*
X62885907Y-96366678D01*
X62956797Y-96377906D01*
X63067877Y-96395500D01*
X63067880Y-96395500D01*
X63252123Y-96395500D01*
X63343106Y-96381089D01*
X63434093Y-96366678D01*
X63609316Y-96309745D01*
X63773475Y-96226101D01*
X63922529Y-96117807D01*
X64052807Y-95987529D01*
X64161101Y-95838475D01*
X64244745Y-95674316D01*
X64301678Y-95499093D01*
X64330500Y-95317120D01*
X64330500Y-94682915D01*
X64530000Y-94682915D01*
X64530000Y-94799999D01*
X64530001Y-94800000D01*
X65137600Y-94800000D01*
X65105000Y-94921667D01*
X65105000Y-95078333D01*
X65137600Y-95200000D01*
X64530001Y-95200000D01*
X64530000Y-95200001D01*
X64530000Y-95317084D01*
X64558807Y-95498971D01*
X64615718Y-95674124D01*
X64699324Y-95838211D01*
X64807573Y-95987202D01*
X64937797Y-96117426D01*
X65086788Y-96225675D01*
X65250875Y-96309281D01*
X65426027Y-96366192D01*
X65499999Y-96377907D01*
X65500000Y-96377906D01*
X65500000Y-95562399D01*
X65621667Y-95595000D01*
X65778333Y-95595000D01*
X65900000Y-95562399D01*
X65900000Y-96377907D01*
X65973972Y-96366192D01*
X66149124Y-96309281D01*
X66313211Y-96225675D01*
X66462202Y-96117426D01*
X66592426Y-95987202D01*
X66700675Y-95838211D01*
X66784281Y-95674124D01*
X66841192Y-95498971D01*
X66870000Y-95317084D01*
X66870000Y-95200001D01*
X66869999Y-95200000D01*
X66262400Y-95200000D01*
X66295000Y-95078333D01*
X66295000Y-94921667D01*
X66262400Y-94800000D01*
X66869999Y-94800000D01*
X66870000Y-94799999D01*
X66870000Y-94682915D01*
X66841192Y-94501028D01*
X66784281Y-94325875D01*
X66700675Y-94161788D01*
X66592426Y-94012797D01*
X66462202Y-93882573D01*
X66313211Y-93774324D01*
X66149124Y-93690718D01*
X65973971Y-93633807D01*
X65900000Y-93622091D01*
X65900000Y-94437600D01*
X65778333Y-94405000D01*
X65621667Y-94405000D01*
X65500000Y-94437600D01*
X65500000Y-93622092D01*
X65499999Y-93622091D01*
X65426028Y-93633807D01*
X65250875Y-93690718D01*
X65086788Y-93774324D01*
X64937797Y-93882573D01*
X64807573Y-94012797D01*
X64699324Y-94161788D01*
X64615718Y-94325875D01*
X64558807Y-94501028D01*
X64530000Y-94682915D01*
X64330500Y-94682915D01*
X64330500Y-94682880D01*
X64330500Y-94682876D01*
X64305317Y-94523882D01*
X64301678Y-94500907D01*
X64244745Y-94325684D01*
X64161101Y-94161525D01*
X64052807Y-94012471D01*
X63922529Y-93882193D01*
X63773475Y-93773899D01*
X63773474Y-93773898D01*
X63773472Y-93773897D01*
X63609312Y-93690253D01*
X63434090Y-93633321D01*
X63252123Y-93604500D01*
X63252120Y-93604500D01*
X63067880Y-93604500D01*
X63067877Y-93604500D01*
X62885909Y-93633321D01*
X62710687Y-93690253D01*
X62546527Y-93773897D01*
X62397472Y-93882192D01*
X62267192Y-94012472D01*
X62158897Y-94161527D01*
X62075253Y-94325687D01*
X62018321Y-94500909D01*
X61989500Y-94682876D01*
X61790500Y-94682876D01*
X61765317Y-94523882D01*
X61761678Y-94500907D01*
X61704745Y-94325684D01*
X61621101Y-94161525D01*
X61512807Y-94012471D01*
X61382529Y-93882193D01*
X61382525Y-93882190D01*
X61382523Y-93882188D01*
X61291309Y-93815916D01*
X61255345Y-93766416D01*
X61250500Y-93735824D01*
X61250500Y-87027611D01*
X61269407Y-86969420D01*
X61279496Y-86957607D01*
X69516160Y-78720943D01*
X73799500Y-78720943D01*
X73799500Y-78879057D01*
X73840423Y-79031784D01*
X73919480Y-79168716D01*
X74031284Y-79280520D01*
X74168216Y-79359577D01*
X74320943Y-79400500D01*
X74320945Y-79400500D01*
X74479055Y-79400500D01*
X74479057Y-79400500D01*
X74631784Y-79359577D01*
X74750502Y-79291035D01*
X74810349Y-79278315D01*
X74849496Y-79291034D01*
X74968216Y-79359577D01*
X75120943Y-79400500D01*
X75120945Y-79400500D01*
X75279055Y-79400500D01*
X75279057Y-79400500D01*
X75431784Y-79359577D01*
X75550502Y-79291035D01*
X75610349Y-79278315D01*
X75649496Y-79291034D01*
X75768216Y-79359577D01*
X75920943Y-79400500D01*
X75920945Y-79400500D01*
X76079055Y-79400500D01*
X76079057Y-79400500D01*
X76231784Y-79359577D01*
X76368716Y-79280520D01*
X76480520Y-79168716D01*
X76559577Y-79031784D01*
X76600500Y-78879057D01*
X76600500Y-78720943D01*
X76559577Y-78568216D01*
X76480520Y-78431284D01*
X76480517Y-78431281D01*
X76480516Y-78431279D01*
X76479490Y-78430253D01*
X76479016Y-78429324D01*
X76476569Y-78426134D01*
X76477160Y-78425680D01*
X76451717Y-78375734D01*
X76450500Y-78360256D01*
X76450500Y-76839743D01*
X76469407Y-76781552D01*
X76479490Y-76769745D01*
X76480520Y-76768716D01*
X76559577Y-76631784D01*
X76600500Y-76479057D01*
X76600500Y-76320943D01*
X76559577Y-76168216D01*
X76480520Y-76031284D01*
X76368716Y-75919480D01*
X76231784Y-75840423D01*
X76079057Y-75799500D01*
X75920943Y-75799500D01*
X75844579Y-75819961D01*
X75768214Y-75840423D01*
X75649499Y-75908963D01*
X75589651Y-75921684D01*
X75550501Y-75908963D01*
X75431785Y-75840423D01*
X75368757Y-75823535D01*
X75279057Y-75799500D01*
X75120943Y-75799500D01*
X75103967Y-75804048D01*
X75090776Y-75807583D01*
X75029674Y-75804380D01*
X74982125Y-75765874D01*
X74966290Y-75706774D01*
X74988217Y-75649652D01*
X74995140Y-75641962D01*
X76807607Y-73829496D01*
X76862124Y-73801719D01*
X76877611Y-73800500D01*
X76879055Y-73800500D01*
X76879057Y-73800500D01*
X77031784Y-73759577D01*
X77168716Y-73680520D01*
X77280520Y-73568716D01*
X77359577Y-73431784D01*
X77400500Y-73279057D01*
X77400500Y-73120943D01*
X77359577Y-72968216D01*
X77280520Y-72831284D01*
X77168716Y-72719480D01*
X77031784Y-72640423D01*
X76879057Y-72599500D01*
X76720943Y-72599500D01*
X76568216Y-72640423D01*
X76431284Y-72719480D01*
X76319480Y-72831284D01*
X76240423Y-72968216D01*
X76220359Y-73043098D01*
X76199500Y-73120944D01*
X76199500Y-73122389D01*
X76199180Y-73123373D01*
X76198653Y-73127377D01*
X76197911Y-73127279D01*
X76180593Y-73180580D01*
X76170504Y-73192393D01*
X74039507Y-75323390D01*
X73980200Y-75426112D01*
X73980200Y-75426113D01*
X73980201Y-75426114D01*
X73949500Y-75540692D01*
X73949500Y-78360256D01*
X73930593Y-78418447D01*
X73920510Y-78430253D01*
X73919483Y-78431279D01*
X73919480Y-78431283D01*
X73919480Y-78431284D01*
X73840423Y-78568216D01*
X73799500Y-78720943D01*
X69516160Y-78720943D01*
X69592653Y-78644450D01*
X77444712Y-70792392D01*
X93607608Y-54629496D01*
X93662125Y-54601719D01*
X93677612Y-54600500D01*
X93679055Y-54600500D01*
X93679057Y-54600500D01*
X93831784Y-54559577D01*
X93968716Y-54480520D01*
X94080520Y-54368716D01*
X94159577Y-54231784D01*
X94200500Y-54079057D01*
X94200500Y-53920943D01*
X94161427Y-53775120D01*
X94164630Y-53714022D01*
X94203135Y-53666472D01*
X94257054Y-53650500D01*
X96542946Y-53650500D01*
X96568756Y-53658886D01*
X96595106Y-53665355D01*
X96597544Y-53668239D01*
X96601137Y-53669407D01*
X96617089Y-53691364D01*
X96634603Y-53712084D01*
X96634836Y-53715790D01*
X96637101Y-53718907D01*
X96639091Y-53773105D01*
X96638850Y-53774085D01*
X96599500Y-53920943D01*
X96599500Y-53934365D01*
X96596645Y-53945994D01*
X96586527Y-53962315D01*
X96580593Y-53980580D01*
X96570504Y-53992393D01*
X81639507Y-68923390D01*
X81580200Y-69026112D01*
X81580200Y-69026113D01*
X81580201Y-69026114D01*
X81549500Y-69140692D01*
X81549500Y-78360256D01*
X81530593Y-78418447D01*
X81520510Y-78430253D01*
X81519483Y-78431279D01*
X81519480Y-78431283D01*
X81519480Y-78431284D01*
X81440423Y-78568216D01*
X81399500Y-78720943D01*
X81399500Y-78879057D01*
X81440423Y-79031784D01*
X81519480Y-79168716D01*
X81631284Y-79280520D01*
X81768216Y-79359577D01*
X81920943Y-79400500D01*
X81920945Y-79400500D01*
X82079055Y-79400500D01*
X82079057Y-79400500D01*
X82231784Y-79359577D01*
X82350502Y-79291035D01*
X82410349Y-79278315D01*
X82449496Y-79291034D01*
X82568216Y-79359577D01*
X82680403Y-79389637D01*
X82731717Y-79422961D01*
X82753644Y-79480083D01*
X82737808Y-79539183D01*
X82724784Y-79555268D01*
X69894718Y-92385336D01*
X69842348Y-92463717D01*
X69842347Y-92463719D01*
X69832941Y-92477796D01*
X69823534Y-92491874D01*
X69774500Y-92610252D01*
X69774499Y-92610257D01*
X69749500Y-92735930D01*
X69749500Y-93547324D01*
X69730593Y-93605515D01*
X69686819Y-93639421D01*
X69607661Y-93670637D01*
X69607656Y-93670640D01*
X69487081Y-93762075D01*
X69487075Y-93762081D01*
X69395640Y-93882656D01*
X69395637Y-93882660D01*
X69340123Y-94023434D01*
X69329500Y-94111893D01*
X69329500Y-95888106D01*
X69340123Y-95976565D01*
X69395637Y-96117339D01*
X69395638Y-96117341D01*
X69395639Y-96117342D01*
X69487078Y-96237922D01*
X69607658Y-96329361D01*
X69607659Y-96329361D01*
X69607660Y-96329362D01*
X69678047Y-96357119D01*
X69748436Y-96384877D01*
X69836898Y-96395500D01*
X69836900Y-96395500D01*
X71163100Y-96395500D01*
X71163102Y-96395500D01*
X71251564Y-96384877D01*
X71392342Y-96329361D01*
X71512922Y-96237922D01*
X71604361Y-96117342D01*
X71659877Y-95976564D01*
X71670500Y-95888102D01*
X71670500Y-94682915D01*
X71870000Y-94682915D01*
X71870000Y-94799999D01*
X71870001Y-94800000D01*
X72477600Y-94800000D01*
X72445000Y-94921667D01*
X72445000Y-95078333D01*
X72477600Y-95200000D01*
X71870001Y-95200000D01*
X71870000Y-95200001D01*
X71870000Y-95317084D01*
X71898807Y-95498971D01*
X71955718Y-95674124D01*
X72039324Y-95838211D01*
X72147573Y-95987202D01*
X72277797Y-96117426D01*
X72426788Y-96225675D01*
X72590875Y-96309281D01*
X72766027Y-96366192D01*
X72839999Y-96377907D01*
X72840000Y-96377906D01*
X72840000Y-95562399D01*
X72961667Y-95595000D01*
X73118333Y-95595000D01*
X73240000Y-95562399D01*
X73240000Y-96377907D01*
X73313972Y-96366192D01*
X73489124Y-96309281D01*
X73653211Y-96225675D01*
X73802202Y-96117426D01*
X73932426Y-95987202D01*
X74040675Y-95838211D01*
X74124281Y-95674124D01*
X74181192Y-95498971D01*
X74210000Y-95317084D01*
X74210000Y-95200001D01*
X74209999Y-95200000D01*
X73602400Y-95200000D01*
X73635000Y-95078333D01*
X73635000Y-94921667D01*
X73602400Y-94800000D01*
X74209999Y-94800000D01*
X74210000Y-94799999D01*
X74210000Y-94682915D01*
X74209994Y-94682876D01*
X74409500Y-94682876D01*
X74409500Y-95317123D01*
X74438321Y-95499090D01*
X74495253Y-95674312D01*
X74495254Y-95674315D01*
X74495255Y-95674316D01*
X74578899Y-95838475D01*
X74687193Y-95987529D01*
X74817471Y-96117807D01*
X74966525Y-96226101D01*
X75130684Y-96309745D01*
X75305907Y-96366678D01*
X75376797Y-96377906D01*
X75487877Y-96395500D01*
X75487880Y-96395500D01*
X75672123Y-96395500D01*
X75763106Y-96381089D01*
X75854093Y-96366678D01*
X76029316Y-96309745D01*
X76193475Y-96226101D01*
X76342529Y-96117807D01*
X76472807Y-95987529D01*
X76581101Y-95838475D01*
X76664745Y-95674316D01*
X76721678Y-95499093D01*
X76750500Y-95317120D01*
X76750500Y-94682880D01*
X76750500Y-94682876D01*
X76725317Y-94523882D01*
X76721678Y-94500907D01*
X76664745Y-94325684D01*
X76581101Y-94161525D01*
X76472807Y-94012471D01*
X76342529Y-93882193D01*
X76193475Y-93773899D01*
X76193474Y-93773898D01*
X76193472Y-93773897D01*
X76029312Y-93690253D01*
X75854090Y-93633321D01*
X75672123Y-93604500D01*
X75672120Y-93604500D01*
X75487880Y-93604500D01*
X75487877Y-93604500D01*
X75305909Y-93633321D01*
X75130687Y-93690253D01*
X74966527Y-93773897D01*
X74817472Y-93882192D01*
X74687192Y-94012472D01*
X74578897Y-94161527D01*
X74495253Y-94325687D01*
X74438321Y-94500909D01*
X74409500Y-94682876D01*
X74209994Y-94682876D01*
X74181192Y-94501028D01*
X74124281Y-94325875D01*
X74040675Y-94161788D01*
X73932426Y-94012797D01*
X73802202Y-93882573D01*
X73653211Y-93774324D01*
X73489124Y-93690718D01*
X73313971Y-93633807D01*
X73240000Y-93622091D01*
X73240000Y-94437600D01*
X73118333Y-94405000D01*
X72961667Y-94405000D01*
X72840000Y-94437600D01*
X72840000Y-93622092D01*
X72839999Y-93622091D01*
X72766028Y-93633807D01*
X72590875Y-93690718D01*
X72426788Y-93774324D01*
X72277797Y-93882573D01*
X72147573Y-94012797D01*
X72039324Y-94161788D01*
X71955718Y-94325875D01*
X71898807Y-94501028D01*
X71870000Y-94682915D01*
X71670500Y-94682915D01*
X71670500Y-94111898D01*
X71659877Y-94023436D01*
X71604361Y-93882658D01*
X71512922Y-93762078D01*
X71392342Y-93670639D01*
X71392341Y-93670638D01*
X71392339Y-93670637D01*
X71251565Y-93615123D01*
X71163106Y-93604500D01*
X71163102Y-93604500D01*
X71149500Y-93604500D01*
X71091309Y-93585593D01*
X71055345Y-93536093D01*
X71050500Y-93505500D01*
X71050500Y-93110454D01*
X71069407Y-93052263D01*
X71079496Y-93040450D01*
X71799003Y-92320943D01*
X75399500Y-92320943D01*
X75399500Y-92479057D01*
X75440423Y-92631784D01*
X75519480Y-92768716D01*
X75631284Y-92880520D01*
X75768216Y-92959577D01*
X75920943Y-93000500D01*
X75922389Y-93000500D01*
X75923373Y-93000819D01*
X75927377Y-93001347D01*
X75927279Y-93002088D01*
X75980580Y-93019407D01*
X75992393Y-93029496D01*
X77069902Y-94107005D01*
X77097679Y-94161522D01*
X77088108Y-94221954D01*
X77035253Y-94325687D01*
X76978321Y-94500909D01*
X76949500Y-94682876D01*
X76949500Y-95317123D01*
X76978321Y-95499090D01*
X77035253Y-95674312D01*
X77035254Y-95674315D01*
X77035255Y-95674316D01*
X77118899Y-95838475D01*
X77227193Y-95987529D01*
X77357471Y-96117807D01*
X77506525Y-96226101D01*
X77670684Y-96309745D01*
X77845907Y-96366678D01*
X77916797Y-96377906D01*
X78027877Y-96395500D01*
X78027880Y-96395500D01*
X78212123Y-96395500D01*
X78303106Y-96381089D01*
X78394093Y-96366678D01*
X78569316Y-96309745D01*
X78733475Y-96226101D01*
X78882529Y-96117807D01*
X79012807Y-95987529D01*
X79121101Y-95838475D01*
X79204745Y-95674316D01*
X79261678Y-95499093D01*
X79290500Y-95317120D01*
X79290500Y-94682880D01*
X79290500Y-94682876D01*
X79489500Y-94682876D01*
X79489500Y-95317123D01*
X79518321Y-95499090D01*
X79575253Y-95674312D01*
X79575254Y-95674315D01*
X79575255Y-95674316D01*
X79658899Y-95838475D01*
X79767193Y-95987529D01*
X79897471Y-96117807D01*
X80046525Y-96226101D01*
X80210684Y-96309745D01*
X80385907Y-96366678D01*
X80456797Y-96377906D01*
X80567877Y-96395500D01*
X80567880Y-96395500D01*
X80752123Y-96395500D01*
X80843106Y-96381089D01*
X80934093Y-96366678D01*
X81109316Y-96309745D01*
X81273475Y-96226101D01*
X81422529Y-96117807D01*
X81552807Y-95987529D01*
X81661101Y-95838475D01*
X81744745Y-95674316D01*
X81801678Y-95499093D01*
X81830500Y-95317120D01*
X81830500Y-94682880D01*
X81830500Y-94682876D01*
X82029500Y-94682876D01*
X82029500Y-95317123D01*
X82058321Y-95499090D01*
X82115253Y-95674312D01*
X82115254Y-95674315D01*
X82115255Y-95674316D01*
X82198899Y-95838475D01*
X82307193Y-95987529D01*
X82437471Y-96117807D01*
X82586525Y-96226101D01*
X82750684Y-96309745D01*
X82925907Y-96366678D01*
X82996797Y-96377906D01*
X83107877Y-96395500D01*
X83107880Y-96395500D01*
X83292123Y-96395500D01*
X83383106Y-96381089D01*
X83474093Y-96366678D01*
X83649316Y-96309745D01*
X83813475Y-96226101D01*
X83962529Y-96117807D01*
X84092807Y-95987529D01*
X84201101Y-95838475D01*
X84284745Y-95674316D01*
X84341678Y-95499093D01*
X84370500Y-95317120D01*
X84370500Y-94682880D01*
X84370500Y-94682876D01*
X84569500Y-94682876D01*
X84569500Y-95317123D01*
X84598321Y-95499090D01*
X84655253Y-95674312D01*
X84655254Y-95674315D01*
X84655255Y-95674316D01*
X84738899Y-95838475D01*
X84847193Y-95987529D01*
X84977471Y-96117807D01*
X85126525Y-96226101D01*
X85290684Y-96309745D01*
X85465907Y-96366678D01*
X85536797Y-96377906D01*
X85647877Y-96395500D01*
X85647880Y-96395500D01*
X85832123Y-96395500D01*
X85923106Y-96381089D01*
X86014093Y-96366678D01*
X86189316Y-96309745D01*
X86353475Y-96226101D01*
X86502529Y-96117807D01*
X86632807Y-95987529D01*
X86741101Y-95838475D01*
X86824745Y-95674316D01*
X86881678Y-95499093D01*
X86910500Y-95317120D01*
X86910500Y-94682880D01*
X86910500Y-94682876D01*
X87109500Y-94682876D01*
X87109500Y-95317123D01*
X87138321Y-95499090D01*
X87195253Y-95674312D01*
X87195254Y-95674315D01*
X87195255Y-95674316D01*
X87278899Y-95838475D01*
X87387193Y-95987529D01*
X87517471Y-96117807D01*
X87666525Y-96226101D01*
X87830684Y-96309745D01*
X88005907Y-96366678D01*
X88076797Y-96377906D01*
X88187877Y-96395500D01*
X88187880Y-96395500D01*
X88372123Y-96395500D01*
X88463106Y-96381089D01*
X88554093Y-96366678D01*
X88729316Y-96309745D01*
X88804956Y-96271204D01*
X90880000Y-96271204D01*
X90880000Y-96449999D01*
X90880001Y-96450000D01*
X91380000Y-96450000D01*
X91380000Y-96850000D01*
X90880001Y-96850000D01*
X90880000Y-96850001D01*
X90880000Y-97028795D01*
X90910742Y-97183349D01*
X90971048Y-97328940D01*
X90971052Y-97328949D01*
X91058599Y-97459969D01*
X91058602Y-97459973D01*
X91170026Y-97571397D01*
X91170030Y-97571400D01*
X91301050Y-97658947D01*
X91301059Y-97658951D01*
X91446644Y-97719254D01*
X91446655Y-97719258D01*
X91480000Y-97725890D01*
X91480000Y-97174265D01*
X91495795Y-97190060D01*
X91564204Y-97229556D01*
X91640504Y-97250000D01*
X91719496Y-97250000D01*
X91795796Y-97229556D01*
X91864205Y-97190060D01*
X91880000Y-97174265D01*
X91880000Y-97725889D01*
X91913344Y-97719258D01*
X91913355Y-97719254D01*
X92058940Y-97658951D01*
X92058949Y-97658947D01*
X92189969Y-97571400D01*
X92189973Y-97571397D01*
X92301397Y-97459973D01*
X92301400Y-97459969D01*
X92388947Y-97328949D01*
X92388951Y-97328940D01*
X92449257Y-97183349D01*
X92479999Y-97028795D01*
X92480000Y-97028792D01*
X92480000Y-96850001D01*
X92479999Y-96850000D01*
X91980000Y-96850000D01*
X91980000Y-96450000D01*
X92479999Y-96450000D01*
X92480000Y-96449999D01*
X92480000Y-96271207D01*
X92479999Y-96271204D01*
X99520000Y-96271204D01*
X99520000Y-96449999D01*
X99520001Y-96450000D01*
X100020000Y-96450000D01*
X100020000Y-96850000D01*
X99520001Y-96850000D01*
X99520000Y-96850001D01*
X99520000Y-97028795D01*
X99550742Y-97183349D01*
X99611048Y-97328940D01*
X99611052Y-97328949D01*
X99698599Y-97459969D01*
X99698602Y-97459973D01*
X99810026Y-97571397D01*
X99810030Y-97571400D01*
X99941050Y-97658947D01*
X99941059Y-97658951D01*
X100086644Y-97719254D01*
X100086655Y-97719258D01*
X100120000Y-97725890D01*
X100120000Y-97174265D01*
X100135795Y-97190060D01*
X100204204Y-97229556D01*
X100280504Y-97250000D01*
X100359496Y-97250000D01*
X100435796Y-97229556D01*
X100504205Y-97190060D01*
X100520000Y-97174265D01*
X100520000Y-97725889D01*
X100553344Y-97719258D01*
X100553355Y-97719254D01*
X100698940Y-97658951D01*
X100698949Y-97658947D01*
X100829969Y-97571400D01*
X100829973Y-97571397D01*
X100941397Y-97459973D01*
X100941400Y-97459969D01*
X101028947Y-97328949D01*
X101028951Y-97328940D01*
X101089257Y-97183349D01*
X101119999Y-97028795D01*
X101120000Y-97028792D01*
X101120000Y-96850001D01*
X101119999Y-96850000D01*
X100620000Y-96850000D01*
X100620000Y-96450000D01*
X101119999Y-96450000D01*
X101120000Y-96449999D01*
X101120000Y-96271207D01*
X101119999Y-96271204D01*
X101089257Y-96116650D01*
X101028951Y-95971059D01*
X101028947Y-95971050D01*
X100941400Y-95840030D01*
X100941397Y-95840026D01*
X100829973Y-95728602D01*
X100829969Y-95728599D01*
X100698949Y-95641052D01*
X100698940Y-95641048D01*
X100553349Y-95580742D01*
X100520000Y-95574109D01*
X100520000Y-96125735D01*
X100504205Y-96109940D01*
X100435796Y-96070444D01*
X100359496Y-96050000D01*
X100280504Y-96050000D01*
X100204204Y-96070444D01*
X100135795Y-96109940D01*
X100120000Y-96125735D01*
X100120000Y-95574109D01*
X100086650Y-95580742D01*
X99941059Y-95641048D01*
X99941050Y-95641052D01*
X99810030Y-95728599D01*
X99810026Y-95728602D01*
X99698602Y-95840026D01*
X99698599Y-95840030D01*
X99611052Y-95971050D01*
X99611048Y-95971059D01*
X99550742Y-96116650D01*
X99520000Y-96271204D01*
X92479999Y-96271204D01*
X92449257Y-96116650D01*
X92388951Y-95971059D01*
X92388947Y-95971050D01*
X92301400Y-95840030D01*
X92301397Y-95840026D01*
X92189973Y-95728602D01*
X92189969Y-95728599D01*
X92058949Y-95641052D01*
X92058940Y-95641048D01*
X91913349Y-95580742D01*
X91880000Y-95574109D01*
X91880000Y-96125735D01*
X91864205Y-96109940D01*
X91795796Y-96070444D01*
X91719496Y-96050000D01*
X91640504Y-96050000D01*
X91564204Y-96070444D01*
X91495795Y-96109940D01*
X91480000Y-96125735D01*
X91480000Y-95574109D01*
X91446650Y-95580742D01*
X91301059Y-95641048D01*
X91301050Y-95641052D01*
X91170030Y-95728599D01*
X91170026Y-95728602D01*
X91058602Y-95840026D01*
X91058599Y-95840030D01*
X90971052Y-95971050D01*
X90971048Y-95971059D01*
X90910742Y-96116650D01*
X90880000Y-96271204D01*
X88804956Y-96271204D01*
X88893475Y-96226101D01*
X89042529Y-96117807D01*
X89172807Y-95987529D01*
X89281101Y-95838475D01*
X89364745Y-95674316D01*
X89421678Y-95499093D01*
X89450500Y-95317120D01*
X89450500Y-94682880D01*
X89450500Y-94682876D01*
X89425317Y-94523882D01*
X89421678Y-94500907D01*
X89364745Y-94325684D01*
X89281101Y-94161525D01*
X89172807Y-94012471D01*
X89042529Y-93882193D01*
X88893475Y-93773899D01*
X88893474Y-93773898D01*
X88893472Y-93773897D01*
X88729312Y-93690253D01*
X88554090Y-93633321D01*
X88372123Y-93604500D01*
X88372120Y-93604500D01*
X88187880Y-93604500D01*
X88187877Y-93604500D01*
X88005909Y-93633321D01*
X87830687Y-93690253D01*
X87666527Y-93773897D01*
X87517472Y-93882192D01*
X87387192Y-94012472D01*
X87278897Y-94161527D01*
X87195253Y-94325687D01*
X87138321Y-94500909D01*
X87109500Y-94682876D01*
X86910500Y-94682876D01*
X86885317Y-94523882D01*
X86881678Y-94500907D01*
X86824745Y-94325684D01*
X86741101Y-94161525D01*
X86632807Y-94012471D01*
X86502529Y-93882193D01*
X86353475Y-93773899D01*
X86353474Y-93773898D01*
X86353472Y-93773897D01*
X86189312Y-93690253D01*
X86014090Y-93633321D01*
X85832123Y-93604500D01*
X85832120Y-93604500D01*
X85647880Y-93604500D01*
X85647877Y-93604500D01*
X85465909Y-93633321D01*
X85290687Y-93690253D01*
X85126527Y-93773897D01*
X84977472Y-93882192D01*
X84847192Y-94012472D01*
X84738897Y-94161527D01*
X84655253Y-94325687D01*
X84598321Y-94500909D01*
X84569500Y-94682876D01*
X84370500Y-94682876D01*
X84345317Y-94523882D01*
X84341678Y-94500907D01*
X84284745Y-94325684D01*
X84201101Y-94161525D01*
X84092807Y-94012471D01*
X83962529Y-93882193D01*
X83813475Y-93773899D01*
X83813474Y-93773898D01*
X83813472Y-93773897D01*
X83649312Y-93690253D01*
X83474090Y-93633321D01*
X83292123Y-93604500D01*
X83292120Y-93604500D01*
X83107880Y-93604500D01*
X83107877Y-93604500D01*
X82925909Y-93633321D01*
X82750687Y-93690253D01*
X82586527Y-93773897D01*
X82437472Y-93882192D01*
X82307192Y-94012472D01*
X82198897Y-94161527D01*
X82115253Y-94325687D01*
X82058321Y-94500909D01*
X82029500Y-94682876D01*
X81830500Y-94682876D01*
X81805317Y-94523882D01*
X81801678Y-94500907D01*
X81744745Y-94325684D01*
X81661101Y-94161525D01*
X81552807Y-94012471D01*
X81422529Y-93882193D01*
X81273475Y-93773899D01*
X81273474Y-93773898D01*
X81273472Y-93773897D01*
X81109312Y-93690253D01*
X80934090Y-93633321D01*
X80752123Y-93604500D01*
X80752120Y-93604500D01*
X80567880Y-93604500D01*
X80567877Y-93604500D01*
X80385909Y-93633321D01*
X80210687Y-93690253D01*
X80046527Y-93773897D01*
X79897472Y-93882192D01*
X79767192Y-94012472D01*
X79658897Y-94161527D01*
X79575253Y-94325687D01*
X79518321Y-94500909D01*
X79489500Y-94682876D01*
X79290500Y-94682876D01*
X79265317Y-94523882D01*
X79261678Y-94500907D01*
X79204745Y-94325684D01*
X79121101Y-94161525D01*
X79012807Y-94012471D01*
X78882529Y-93882193D01*
X78733475Y-93773899D01*
X78733474Y-93773898D01*
X78733472Y-93773897D01*
X78569312Y-93690253D01*
X78394090Y-93633321D01*
X78212123Y-93604500D01*
X78212120Y-93604500D01*
X78027880Y-93604500D01*
X78027876Y-93604500D01*
X77916893Y-93622077D01*
X77856461Y-93612505D01*
X77831403Y-93594300D01*
X76629496Y-92392393D01*
X76601719Y-92337876D01*
X76600500Y-92322389D01*
X76600500Y-92320944D01*
X76600500Y-92320943D01*
X76559577Y-92168216D01*
X76480520Y-92031284D01*
X76368716Y-91919480D01*
X76233137Y-91841204D01*
X90880000Y-91841204D01*
X90880000Y-92269999D01*
X90880001Y-92270000D01*
X91380000Y-92270000D01*
X91380000Y-92670000D01*
X90880001Y-92670000D01*
X90880000Y-92670001D01*
X90880000Y-93098795D01*
X90910742Y-93253349D01*
X90971048Y-93398940D01*
X90971052Y-93398949D01*
X91058599Y-93529969D01*
X91058602Y-93529973D01*
X91170026Y-93641397D01*
X91170030Y-93641400D01*
X91301050Y-93728947D01*
X91301059Y-93728951D01*
X91446644Y-93789254D01*
X91446655Y-93789258D01*
X91480000Y-93795890D01*
X91480000Y-93244265D01*
X91495795Y-93260060D01*
X91564204Y-93299556D01*
X91640504Y-93320000D01*
X91719496Y-93320000D01*
X91795796Y-93299556D01*
X91864205Y-93260060D01*
X91880000Y-93244265D01*
X91880000Y-93795889D01*
X91913344Y-93789258D01*
X91913355Y-93789254D01*
X92058940Y-93728951D01*
X92058949Y-93728947D01*
X92189969Y-93641400D01*
X92189973Y-93641397D01*
X92301397Y-93529973D01*
X92301400Y-93529969D01*
X92388947Y-93398949D01*
X92388953Y-93398937D01*
X92431953Y-93295125D01*
X92471689Y-93248599D01*
X92531184Y-93234315D01*
X92587712Y-93257729D01*
X92609153Y-93283510D01*
X92649481Y-93353360D01*
X92649483Y-93353362D01*
X92649485Y-93353365D01*
X92756635Y-93460515D01*
X92756637Y-93460516D01*
X92756639Y-93460518D01*
X92887861Y-93536279D01*
X92887859Y-93536279D01*
X92887863Y-93536280D01*
X92887865Y-93536281D01*
X93034234Y-93575500D01*
X93034236Y-93575500D01*
X93185764Y-93575500D01*
X93185766Y-93575500D01*
X93332135Y-93536281D01*
X93332137Y-93536279D01*
X93332139Y-93536279D01*
X93463360Y-93460518D01*
X93463360Y-93460517D01*
X93463365Y-93460515D01*
X93570515Y-93353365D01*
X93570518Y-93353360D01*
X93646279Y-93222139D01*
X93646279Y-93222137D01*
X93646281Y-93222135D01*
X93685500Y-93075766D01*
X93685500Y-92924234D01*
X93646281Y-92777865D01*
X93646279Y-92777862D01*
X93646279Y-92777860D01*
X93570518Y-92646639D01*
X93570516Y-92646637D01*
X93570515Y-92646635D01*
X93463365Y-92539485D01*
X93463362Y-92539483D01*
X93463360Y-92539481D01*
X93332138Y-92463720D01*
X93332140Y-92463720D01*
X93242654Y-92439743D01*
X93185766Y-92424500D01*
X93034234Y-92424500D01*
X92977346Y-92439743D01*
X92887860Y-92463720D01*
X92756639Y-92539481D01*
X92649481Y-92646639D01*
X92643402Y-92657168D01*
X92597930Y-92698106D01*
X92537079Y-92704497D01*
X92487665Y-92677666D01*
X92479999Y-92670000D01*
X91980000Y-92670000D01*
X91980000Y-92270000D01*
X92479999Y-92270000D01*
X92480000Y-92269999D01*
X92480000Y-91841207D01*
X92479999Y-91841204D01*
X92449257Y-91686650D01*
X92388951Y-91541059D01*
X92388947Y-91541050D01*
X92301400Y-91410030D01*
X92301397Y-91410026D01*
X92189973Y-91298602D01*
X92189969Y-91298599D01*
X92058949Y-91211052D01*
X92058940Y-91211048D01*
X91913349Y-91150742D01*
X91880000Y-91144109D01*
X91880000Y-91695735D01*
X91864205Y-91679940D01*
X91795796Y-91640444D01*
X91719496Y-91620000D01*
X91640504Y-91620000D01*
X91564204Y-91640444D01*
X91495795Y-91679940D01*
X91480000Y-91695735D01*
X91480000Y-91144109D01*
X91446650Y-91150742D01*
X91301059Y-91211048D01*
X91301050Y-91211052D01*
X91170030Y-91298599D01*
X91170026Y-91298602D01*
X91058602Y-91410026D01*
X91058599Y-91410030D01*
X90971052Y-91541050D01*
X90971048Y-91541059D01*
X90910742Y-91686650D01*
X90880000Y-91841204D01*
X76233137Y-91841204D01*
X76231784Y-91840423D01*
X76079057Y-91799500D01*
X75920943Y-91799500D01*
X75768216Y-91840423D01*
X75631284Y-91919480D01*
X75519480Y-92031284D01*
X75440423Y-92168216D01*
X75399500Y-92320943D01*
X71799003Y-92320943D01*
X74599003Y-89520943D01*
X92199500Y-89520943D01*
X92199500Y-89679057D01*
X92240423Y-89831784D01*
X92319480Y-89968716D01*
X92431284Y-90080520D01*
X92568216Y-90159577D01*
X92720943Y-90200500D01*
X92720945Y-90200500D01*
X92879055Y-90200500D01*
X92879057Y-90200500D01*
X93031784Y-90159577D01*
X93168716Y-90080520D01*
X93181730Y-90067506D01*
X93194742Y-90054495D01*
X93249259Y-90026719D01*
X93264744Y-90025500D01*
X93935256Y-90025500D01*
X93993447Y-90044407D01*
X94005258Y-90054495D01*
X94029819Y-90079055D01*
X94031284Y-90080520D01*
X94168216Y-90159577D01*
X94320943Y-90200500D01*
X94320945Y-90200500D01*
X94479055Y-90200500D01*
X94479057Y-90200500D01*
X94631784Y-90159577D01*
X94768716Y-90080520D01*
X94880520Y-89968716D01*
X94914264Y-89910269D01*
X94959733Y-89869328D01*
X95020583Y-89862932D01*
X95073571Y-89893525D01*
X95085734Y-89910266D01*
X95119480Y-89968716D01*
X95231284Y-90080520D01*
X95368216Y-90159577D01*
X95520943Y-90200500D01*
X95520945Y-90200500D01*
X95679055Y-90200500D01*
X95679057Y-90200500D01*
X95831784Y-90159577D01*
X95968716Y-90080520D01*
X96080520Y-89968716D01*
X96114264Y-89910269D01*
X96159733Y-89869328D01*
X96220583Y-89862932D01*
X96273571Y-89893525D01*
X96285734Y-89910266D01*
X96319480Y-89968716D01*
X96431284Y-90080520D01*
X96568216Y-90159577D01*
X96720943Y-90200500D01*
X96720945Y-90200500D01*
X96879056Y-90200500D01*
X96879057Y-90200500D01*
X96929786Y-90186907D01*
X96990886Y-90190109D01*
X97038436Y-90228614D01*
X97041139Y-90233025D01*
X97119480Y-90368716D01*
X97145505Y-90394741D01*
X97173281Y-90449256D01*
X97174500Y-90464743D01*
X97174500Y-92335256D01*
X97155593Y-92393447D01*
X97145505Y-92405258D01*
X97119482Y-92431281D01*
X97119480Y-92431283D01*
X97119480Y-92431284D01*
X97040423Y-92568216D01*
X96999500Y-92720943D01*
X96999500Y-92879057D01*
X97040423Y-93031784D01*
X97119480Y-93168716D01*
X97231284Y-93280520D01*
X97368216Y-93359577D01*
X97520943Y-93400500D01*
X97520945Y-93400500D01*
X97679055Y-93400500D01*
X97679057Y-93400500D01*
X97831784Y-93359577D01*
X97968716Y-93280520D01*
X98080520Y-93168716D01*
X98137839Y-93069434D01*
X98183307Y-93028494D01*
X98244158Y-93022098D01*
X98297146Y-93052691D01*
X98319200Y-93093309D01*
X98339406Y-93168716D01*
X98353720Y-93222139D01*
X98429481Y-93353360D01*
X98429483Y-93353362D01*
X98429485Y-93353365D01*
X98536635Y-93460515D01*
X98536637Y-93460516D01*
X98536639Y-93460518D01*
X98667861Y-93536279D01*
X98667859Y-93536279D01*
X98667863Y-93536280D01*
X98667865Y-93536281D01*
X98814234Y-93575500D01*
X98814236Y-93575500D01*
X98965764Y-93575500D01*
X98965766Y-93575500D01*
X99112135Y-93536281D01*
X99112137Y-93536279D01*
X99112139Y-93536279D01*
X99243360Y-93460518D01*
X99243360Y-93460517D01*
X99243365Y-93460515D01*
X99350515Y-93353365D01*
X99390847Y-93283508D01*
X99436315Y-93242569D01*
X99497165Y-93236173D01*
X99550153Y-93266766D01*
X99568046Y-93295124D01*
X99611048Y-93398940D01*
X99611052Y-93398949D01*
X99698599Y-93529969D01*
X99698602Y-93529973D01*
X99810026Y-93641397D01*
X99810030Y-93641400D01*
X99941050Y-93728947D01*
X99941059Y-93728951D01*
X100086644Y-93789254D01*
X100086655Y-93789258D01*
X100120000Y-93795890D01*
X100120000Y-93244265D01*
X100135795Y-93260060D01*
X100204204Y-93299556D01*
X100280504Y-93320000D01*
X100359496Y-93320000D01*
X100435796Y-93299556D01*
X100504205Y-93260060D01*
X100520000Y-93244265D01*
X100520000Y-93795889D01*
X100553344Y-93789258D01*
X100553355Y-93789254D01*
X100698940Y-93728951D01*
X100698949Y-93728947D01*
X100829969Y-93641400D01*
X100829973Y-93641397D01*
X100941397Y-93529973D01*
X100941400Y-93529969D01*
X101028947Y-93398949D01*
X101028951Y-93398940D01*
X101089257Y-93253349D01*
X101119999Y-93098795D01*
X101120000Y-93098792D01*
X101120000Y-92670001D01*
X101119999Y-92670000D01*
X100620000Y-92670000D01*
X100620000Y-92270000D01*
X101119999Y-92270000D01*
X101120000Y-92269999D01*
X101120000Y-91841207D01*
X101119999Y-91841204D01*
X101089257Y-91686650D01*
X101028951Y-91541059D01*
X101028947Y-91541050D01*
X100941400Y-91410030D01*
X100941397Y-91410026D01*
X100829973Y-91298602D01*
X100829969Y-91298599D01*
X100698949Y-91211052D01*
X100698940Y-91211048D01*
X100553349Y-91150742D01*
X100520000Y-91144109D01*
X100520000Y-91695735D01*
X100504205Y-91679940D01*
X100435796Y-91640444D01*
X100359496Y-91620000D01*
X100280504Y-91620000D01*
X100204204Y-91640444D01*
X100135795Y-91679940D01*
X100120000Y-91695735D01*
X100120000Y-91144109D01*
X100086650Y-91150742D01*
X99941059Y-91211048D01*
X99941050Y-91211052D01*
X99810030Y-91298599D01*
X99810026Y-91298602D01*
X99698602Y-91410026D01*
X99698599Y-91410030D01*
X99611052Y-91541050D01*
X99611048Y-91541059D01*
X99550742Y-91686650D01*
X99520000Y-91841204D01*
X99520000Y-92269999D01*
X99520001Y-92270000D01*
X100020000Y-92270000D01*
X100020000Y-92670000D01*
X99520000Y-92670000D01*
X99512333Y-92677667D01*
X99457816Y-92705443D01*
X99397384Y-92695871D01*
X99356595Y-92657164D01*
X99350518Y-92646639D01*
X99350516Y-92646637D01*
X99350515Y-92646635D01*
X99243365Y-92539485D01*
X99243362Y-92539483D01*
X99243360Y-92539481D01*
X99112138Y-92463720D01*
X99112140Y-92463720D01*
X99022654Y-92439743D01*
X98965766Y-92424500D01*
X98814234Y-92424500D01*
X98757346Y-92439743D01*
X98667860Y-92463720D01*
X98536639Y-92539481D01*
X98429483Y-92646637D01*
X98378988Y-92734096D01*
X98333518Y-92775036D01*
X98272668Y-92781431D01*
X98219680Y-92750838D01*
X98197627Y-92710222D01*
X98159577Y-92568216D01*
X98080520Y-92431284D01*
X98073492Y-92424256D01*
X98054495Y-92405258D01*
X98026719Y-92350741D01*
X98025500Y-92335256D01*
X98025500Y-90464743D01*
X98044407Y-90406552D01*
X98054490Y-90394745D01*
X98080520Y-90368716D01*
X98159577Y-90231784D01*
X98200500Y-90079057D01*
X98200500Y-89920943D01*
X98159577Y-89768216D01*
X98080520Y-89631284D01*
X97968716Y-89519480D01*
X97831784Y-89440423D01*
X97679057Y-89399500D01*
X97520943Y-89399500D01*
X97520940Y-89399500D01*
X97470212Y-89413092D01*
X97409111Y-89409889D01*
X97361561Y-89371382D01*
X97358866Y-89366985D01*
X97280520Y-89231284D01*
X97280517Y-89231281D01*
X97254495Y-89205258D01*
X97226719Y-89150741D01*
X97225500Y-89135256D01*
X97225500Y-88464743D01*
X97244407Y-88406552D01*
X97254490Y-88394745D01*
X97280520Y-88368716D01*
X97359577Y-88231784D01*
X97400500Y-88079057D01*
X97400500Y-87920943D01*
X97359577Y-87768216D01*
X97280520Y-87631284D01*
X97168716Y-87519480D01*
X97031784Y-87440423D01*
X96879057Y-87399500D01*
X96720943Y-87399500D01*
X96568216Y-87440423D01*
X96431284Y-87519480D01*
X96319478Y-87631286D01*
X96285736Y-87689730D01*
X96240267Y-87730671D01*
X96179417Y-87737067D01*
X96126429Y-87706474D01*
X96114264Y-87689730D01*
X96080521Y-87631286D01*
X96080520Y-87631284D01*
X95968716Y-87519480D01*
X95831784Y-87440423D01*
X95679057Y-87399500D01*
X95520943Y-87399500D01*
X95368216Y-87440423D01*
X95231284Y-87519480D01*
X95119480Y-87631284D01*
X95040423Y-87768216D01*
X94999500Y-87920943D01*
X94999500Y-88079057D01*
X95040423Y-88231784D01*
X95119480Y-88368716D01*
X95145505Y-88394741D01*
X95173281Y-88449256D01*
X95174500Y-88464743D01*
X95174500Y-89135256D01*
X95155871Y-89193061D01*
X95151178Y-89199585D01*
X95119480Y-89231284D01*
X95083263Y-89294012D01*
X95080371Y-89298035D01*
X95059504Y-89313348D01*
X95040267Y-89330671D01*
X95035172Y-89331206D01*
X95031045Y-89334236D01*
X95005163Y-89334360D01*
X94979417Y-89337067D01*
X94974981Y-89334506D01*
X94969860Y-89334531D01*
X94948843Y-89319415D01*
X94926429Y-89306474D01*
X94921589Y-89299813D01*
X94920188Y-89298805D01*
X94919630Y-89297116D01*
X94914264Y-89289730D01*
X94880521Y-89231286D01*
X94880520Y-89231284D01*
X94768716Y-89119480D01*
X94631784Y-89040423D01*
X94479057Y-88999500D01*
X94320943Y-88999500D01*
X94168216Y-89040423D01*
X94031281Y-89119482D01*
X94005258Y-89145505D01*
X93950741Y-89173281D01*
X93935256Y-89174500D01*
X93264744Y-89174500D01*
X93206553Y-89155593D01*
X93194742Y-89145505D01*
X93168718Y-89119482D01*
X93168716Y-89119480D01*
X93031784Y-89040423D01*
X92879057Y-88999500D01*
X92720943Y-88999500D01*
X92568216Y-89040423D01*
X92431284Y-89119480D01*
X92319480Y-89231284D01*
X92240423Y-89368216D01*
X92199500Y-89520943D01*
X74599003Y-89520943D01*
X74675496Y-89444450D01*
X80181236Y-83938710D01*
X85703055Y-78416890D01*
X85757570Y-78389115D01*
X85818002Y-78398686D01*
X85861267Y-78441951D01*
X85870838Y-78502383D01*
X85858795Y-78536394D01*
X85840423Y-78568215D01*
X85840423Y-78568216D01*
X85799500Y-78720943D01*
X85799500Y-78879057D01*
X85840423Y-79031784D01*
X85919480Y-79168716D01*
X86031284Y-79280520D01*
X86168216Y-79359577D01*
X86320943Y-79400500D01*
X86320945Y-79400500D01*
X86479055Y-79400500D01*
X86479057Y-79400500D01*
X86631784Y-79359577D01*
X86768716Y-79280520D01*
X86880520Y-79168716D01*
X86959577Y-79031784D01*
X87000500Y-78879057D01*
X87000500Y-78877610D01*
X87000820Y-78876624D01*
X87001347Y-78872623D01*
X87002088Y-78872720D01*
X87019407Y-78819419D01*
X87029490Y-78807612D01*
X87960489Y-77876614D01*
X87989690Y-77826035D01*
X88019767Y-77773942D01*
X88019776Y-77773924D01*
X88019798Y-77773887D01*
X88019799Y-77773886D01*
X88050500Y-77659309D01*
X88050500Y-75140691D01*
X88019799Y-75026114D01*
X88019799Y-75026113D01*
X87960490Y-74923386D01*
X87395149Y-74358045D01*
X87381987Y-74332212D01*
X87367956Y-74306844D01*
X87368172Y-74305097D01*
X87367374Y-74303531D01*
X87371910Y-74274889D01*
X87375470Y-74246121D01*
X87376669Y-74244836D01*
X87376945Y-74243099D01*
X87397448Y-74222595D01*
X87417239Y-74201412D01*
X87418826Y-74201217D01*
X87420210Y-74199834D01*
X87477312Y-74189793D01*
X87484134Y-74190637D01*
X87520943Y-74200500D01*
X87563847Y-74200500D01*
X87569901Y-74201249D01*
X87592357Y-74211746D01*
X87615935Y-74219407D01*
X87624627Y-74226831D01*
X87625329Y-74227159D01*
X87625613Y-74227672D01*
X87627748Y-74229496D01*
X94570504Y-81172252D01*
X94598281Y-81226769D01*
X94599500Y-81242256D01*
X94599500Y-81279057D01*
X94640423Y-81431784D01*
X94719480Y-81568716D01*
X94745505Y-81594741D01*
X94773281Y-81649256D01*
X94774500Y-81664743D01*
X94774500Y-82335256D01*
X94755593Y-82393447D01*
X94745505Y-82405258D01*
X94719482Y-82431281D01*
X94719480Y-82431283D01*
X94719480Y-82431284D01*
X94640423Y-82568216D01*
X94599500Y-82720943D01*
X94599500Y-82879057D01*
X94640423Y-83031784D01*
X94719480Y-83168716D01*
X94831284Y-83280520D01*
X94968216Y-83359577D01*
X95120943Y-83400500D01*
X95120945Y-83400500D01*
X95279055Y-83400500D01*
X95279057Y-83400500D01*
X95431784Y-83359577D01*
X95568716Y-83280520D01*
X95680520Y-83168716D01*
X95759577Y-83031784D01*
X95800500Y-82879057D01*
X95800500Y-82720943D01*
X95759577Y-82568216D01*
X95680520Y-82431284D01*
X95680517Y-82431281D01*
X95654495Y-82405258D01*
X95626719Y-82350741D01*
X95625500Y-82335256D01*
X95625500Y-81664743D01*
X95644407Y-81606552D01*
X95654490Y-81594745D01*
X95680520Y-81568716D01*
X95759577Y-81431784D01*
X95800500Y-81279057D01*
X95800500Y-81120943D01*
X95759577Y-80968216D01*
X95680520Y-80831284D01*
X95568716Y-80719480D01*
X95431784Y-80640423D01*
X95279057Y-80599500D01*
X95279055Y-80599500D01*
X95242256Y-80599500D01*
X95184065Y-80580593D01*
X95172252Y-80570504D01*
X94946854Y-80345106D01*
X94919077Y-80290589D01*
X94928648Y-80230157D01*
X94971913Y-80186892D01*
X95032345Y-80177321D01*
X95042473Y-80179474D01*
X95120943Y-80200500D01*
X95120944Y-80200500D01*
X95279055Y-80200500D01*
X95279057Y-80200500D01*
X95431784Y-80159577D01*
X95568716Y-80080520D01*
X95569741Y-80079494D01*
X95570668Y-80079022D01*
X95573866Y-80076569D01*
X95574320Y-80077161D01*
X95624256Y-80051719D01*
X95639743Y-80050500D01*
X96459309Y-80050500D01*
X96549669Y-80026287D01*
X96549672Y-80026287D01*
X96562903Y-80022741D01*
X96573887Y-80019799D01*
X96676614Y-79960489D01*
X105960490Y-70676614D01*
X106019799Y-70573887D01*
X106033330Y-70523387D01*
X106050500Y-70459309D01*
X106050500Y-63906893D01*
X112399500Y-63906893D01*
X112399500Y-66093106D01*
X112410123Y-66181565D01*
X112465637Y-66322339D01*
X112465638Y-66322341D01*
X112465639Y-66322342D01*
X112557078Y-66442922D01*
X112677658Y-66534361D01*
X112677659Y-66534361D01*
X112677660Y-66534362D01*
X112748047Y-66562119D01*
X112818436Y-66589877D01*
X112906898Y-66600500D01*
X112906900Y-66600500D01*
X115093100Y-66600500D01*
X115093102Y-66600500D01*
X115181564Y-66589877D01*
X115322342Y-66534361D01*
X115442922Y-66442922D01*
X115534361Y-66322342D01*
X115589877Y-66181564D01*
X115600500Y-66093102D01*
X115600500Y-63906898D01*
X115589877Y-63818436D01*
X115534361Y-63677658D01*
X115442922Y-63557078D01*
X115322342Y-63465639D01*
X115322341Y-63465638D01*
X115322339Y-63465637D01*
X115181565Y-63410123D01*
X115093106Y-63399500D01*
X115093102Y-63399500D01*
X112906898Y-63399500D01*
X112906893Y-63399500D01*
X112818434Y-63410123D01*
X112677660Y-63465637D01*
X112677656Y-63465640D01*
X112557081Y-63557075D01*
X112557075Y-63557081D01*
X112465640Y-63677656D01*
X112465637Y-63677660D01*
X112410123Y-63818434D01*
X112399500Y-63906893D01*
X106050500Y-63906893D01*
X106050500Y-59794073D01*
X112400000Y-59794073D01*
X112400000Y-60045926D01*
X112439395Y-60294663D01*
X112517221Y-60534187D01*
X112631556Y-60758582D01*
X112631560Y-60758588D01*
X112735503Y-60901652D01*
X113419668Y-60217486D01*
X113423978Y-60227890D01*
X113495112Y-60334351D01*
X113585649Y-60424888D01*
X113692110Y-60496022D01*
X113702510Y-60500330D01*
X113018346Y-61184494D01*
X113018346Y-61184495D01*
X113161411Y-61288439D01*
X113161417Y-61288443D01*
X113385812Y-61402778D01*
X113625336Y-61480604D01*
X113874074Y-61520000D01*
X114125926Y-61520000D01*
X114374663Y-61480604D01*
X114614187Y-61402778D01*
X114838582Y-61288443D01*
X114838587Y-61288439D01*
X114981652Y-61184495D01*
X114981652Y-61184494D01*
X114297488Y-60500330D01*
X114307890Y-60496022D01*
X114414351Y-60424888D01*
X114504888Y-60334351D01*
X114576022Y-60227890D01*
X114580330Y-60217488D01*
X115264494Y-60901652D01*
X115264495Y-60901652D01*
X115368439Y-60758587D01*
X115368443Y-60758582D01*
X115482778Y-60534187D01*
X115560604Y-60294663D01*
X115600000Y-60045926D01*
X115600000Y-59794073D01*
X115560604Y-59545336D01*
X115482778Y-59305812D01*
X115368443Y-59081417D01*
X115368439Y-59081411D01*
X115264495Y-58938346D01*
X115264494Y-58938346D01*
X114580330Y-59622510D01*
X114576022Y-59612110D01*
X114504888Y-59505649D01*
X114414351Y-59415112D01*
X114307890Y-59343978D01*
X114297486Y-59339668D01*
X114981652Y-58655503D01*
X114838588Y-58551560D01*
X114838582Y-58551556D01*
X114614187Y-58437221D01*
X114374663Y-58359395D01*
X114125926Y-58320000D01*
X113874074Y-58320000D01*
X113625336Y-58359395D01*
X113385812Y-58437221D01*
X113161419Y-58551555D01*
X113018347Y-58655504D01*
X113702512Y-59339669D01*
X113692110Y-59343978D01*
X113585649Y-59415112D01*
X113495112Y-59505649D01*
X113423978Y-59612110D01*
X113419669Y-59622512D01*
X112735504Y-58938347D01*
X112631555Y-59081419D01*
X112517221Y-59305812D01*
X112439395Y-59545336D01*
X112400000Y-59794073D01*
X106050500Y-59794073D01*
X106050500Y-53540691D01*
X106019799Y-53426114D01*
X106010567Y-53410123D01*
X106010566Y-53410121D01*
X106010566Y-53410120D01*
X105960491Y-53323389D01*
X105960490Y-53323387D01*
X104034787Y-51397684D01*
X106200000Y-51397684D01*
X106200000Y-51602315D01*
X106232008Y-51804412D01*
X106295243Y-51999027D01*
X106388139Y-52181348D01*
X106388143Y-52181354D01*
X106450279Y-52266876D01*
X106993843Y-51723311D01*
X107059890Y-51837708D01*
X107162292Y-51940110D01*
X107276686Y-52006154D01*
X106733122Y-52549718D01*
X106733122Y-52549719D01*
X106818645Y-52611856D01*
X106818651Y-52611860D01*
X107000972Y-52704756D01*
X107195587Y-52767991D01*
X107397685Y-52800000D01*
X107602315Y-52800000D01*
X107804412Y-52767991D01*
X107999027Y-52704756D01*
X108181348Y-52611860D01*
X108181353Y-52611856D01*
X108266876Y-52549720D01*
X108266876Y-52549719D01*
X107723312Y-52006155D01*
X107837708Y-51940110D01*
X107940110Y-51837708D01*
X108006155Y-51723312D01*
X108549719Y-52266876D01*
X108549720Y-52266876D01*
X108611856Y-52181353D01*
X108611860Y-52181348D01*
X108704756Y-51999027D01*
X108767991Y-51804412D01*
X108800000Y-51602315D01*
X108800000Y-51397684D01*
X108767991Y-51195587D01*
X108704756Y-51000972D01*
X108611860Y-50818651D01*
X108611856Y-50818645D01*
X108549719Y-50733122D01*
X108549718Y-50733122D01*
X108006154Y-51276686D01*
X107940110Y-51162292D01*
X107837708Y-51059890D01*
X107723311Y-50993843D01*
X108266876Y-50450279D01*
X108181354Y-50388143D01*
X108181348Y-50388139D01*
X107999027Y-50295243D01*
X107804412Y-50232008D01*
X107602315Y-50200000D01*
X107397685Y-50200000D01*
X107195587Y-50232008D01*
X107000972Y-50295243D01*
X106818651Y-50388139D01*
X106818647Y-50388141D01*
X106733122Y-50450279D01*
X107276687Y-50993844D01*
X107162292Y-51059890D01*
X107059890Y-51162292D01*
X106993844Y-51276687D01*
X106450279Y-50733122D01*
X106388141Y-50818647D01*
X106388139Y-50818651D01*
X106295243Y-51000972D01*
X106232008Y-51195587D01*
X106200000Y-51397684D01*
X104034787Y-51397684D01*
X101097519Y-48460416D01*
X101069742Y-48405899D01*
X101079313Y-48345467D01*
X101122578Y-48302202D01*
X101152036Y-48292631D01*
X101304529Y-48268478D01*
X101304530Y-48268477D01*
X101304534Y-48268477D01*
X101499219Y-48205220D01*
X101681610Y-48112287D01*
X101847219Y-47991966D01*
X101991966Y-47847219D01*
X102105240Y-47691309D01*
X102154739Y-47655346D01*
X102185332Y-47650500D01*
X103560257Y-47650500D01*
X103618448Y-47669407D01*
X103630254Y-47679490D01*
X103631284Y-47680520D01*
X103768216Y-47759577D01*
X103920943Y-47800500D01*
X103920945Y-47800500D01*
X104079055Y-47800500D01*
X104079057Y-47800500D01*
X104231784Y-47759577D01*
X104368716Y-47680520D01*
X104369741Y-47679494D01*
X104370668Y-47679022D01*
X104373866Y-47676569D01*
X104374320Y-47677161D01*
X104424256Y-47651719D01*
X104439743Y-47650500D01*
X106314668Y-47650500D01*
X106372859Y-47669407D01*
X106394758Y-47691307D01*
X106444358Y-47759576D01*
X106508029Y-47847213D01*
X106508031Y-47847215D01*
X106508034Y-47847219D01*
X106652781Y-47991966D01*
X106652784Y-47991968D01*
X106652786Y-47991970D01*
X106818386Y-48112285D01*
X106818390Y-48112287D01*
X107000781Y-48205220D01*
X107195466Y-48268477D01*
X107195467Y-48268477D01*
X107195470Y-48268478D01*
X107397645Y-48300500D01*
X107397648Y-48300500D01*
X107602355Y-48300500D01*
X107804529Y-48268478D01*
X107804530Y-48268477D01*
X107804534Y-48268477D01*
X107999219Y-48205220D01*
X108181610Y-48112287D01*
X108347219Y-47991966D01*
X108491966Y-47847219D01*
X108612287Y-47681610D01*
X108705220Y-47499219D01*
X108768477Y-47304534D01*
X108788110Y-47180579D01*
X108800500Y-47102355D01*
X108800500Y-46897644D01*
X108768478Y-46695470D01*
X108745943Y-46626114D01*
X108705220Y-46500781D01*
X108612287Y-46318390D01*
X108612285Y-46318386D01*
X108491970Y-46152786D01*
X108491968Y-46152784D01*
X108491966Y-46152781D01*
X108347219Y-46008034D01*
X108347215Y-46008031D01*
X108347213Y-46008029D01*
X108181613Y-45887714D01*
X108181609Y-45887712D01*
X107999219Y-45794780D01*
X107804529Y-45731521D01*
X107602355Y-45699500D01*
X107602352Y-45699500D01*
X107397648Y-45699500D01*
X107397645Y-45699500D01*
X107195470Y-45731521D01*
X107000780Y-45794780D01*
X106818390Y-45887712D01*
X106818386Y-45887714D01*
X106652786Y-46008029D01*
X106508029Y-46152786D01*
X106387714Y-46318386D01*
X106387712Y-46318390D01*
X106294780Y-46500780D01*
X106236193Y-46681093D01*
X106200229Y-46730593D01*
X106142038Y-46749500D01*
X104439743Y-46749500D01*
X104381552Y-46730593D01*
X104369745Y-46720509D01*
X104368716Y-46719480D01*
X104231784Y-46640423D01*
X104079057Y-46599500D01*
X103920943Y-46599500D01*
X103768216Y-46640423D01*
X103631284Y-46719480D01*
X103630258Y-46720505D01*
X103629331Y-46720977D01*
X103626134Y-46723431D01*
X103625679Y-46722838D01*
X103575744Y-46748281D01*
X103560257Y-46749500D01*
X102357962Y-46749500D01*
X102299771Y-46730593D01*
X102263807Y-46681093D01*
X102245943Y-46626113D01*
X102205220Y-46500781D01*
X102112287Y-46318390D01*
X102112285Y-46318386D01*
X101991970Y-46152786D01*
X101991968Y-46152784D01*
X101991966Y-46152781D01*
X101847219Y-46008034D01*
X101847215Y-46008031D01*
X101847213Y-46008029D01*
X101681613Y-45887714D01*
X101681609Y-45887712D01*
X101499219Y-45794780D01*
X101304529Y-45731521D01*
X101102355Y-45699500D01*
X101102352Y-45699500D01*
X100897648Y-45699500D01*
X100897645Y-45699500D01*
X100695470Y-45731521D01*
X100500780Y-45794780D01*
X100315756Y-45889054D01*
X100255324Y-45898625D01*
X100200807Y-45870847D01*
X100175185Y-45826469D01*
X100159577Y-45768216D01*
X100080520Y-45631284D01*
X99968716Y-45519480D01*
X99831784Y-45440423D01*
X99679057Y-45399500D01*
X99520943Y-45399500D01*
X99368216Y-45440423D01*
X99231284Y-45519480D01*
X99119480Y-45631284D01*
X99040423Y-45768216D01*
X98999500Y-45920943D01*
X98999500Y-46079057D01*
X99040423Y-46231784D01*
X99119480Y-46368716D01*
X99120505Y-46369741D01*
X99120977Y-46370668D01*
X99123431Y-46373866D01*
X99122838Y-46374320D01*
X99148281Y-46424256D01*
X99149500Y-46439743D01*
X99149500Y-48059308D01*
X99166668Y-48123383D01*
X99166669Y-48123385D01*
X99166670Y-48123387D01*
X99180201Y-48173887D01*
X99180202Y-48173889D01*
X99180203Y-48173892D01*
X99239507Y-48276609D01*
X99239509Y-48276611D01*
X99239511Y-48276614D01*
X99723386Y-48760489D01*
X99782696Y-48794731D01*
X99826114Y-48819799D01*
X99940691Y-48850500D01*
X100172389Y-48850500D01*
X100230580Y-48869407D01*
X100242393Y-48879496D01*
X101443134Y-50080237D01*
X101470911Y-50134754D01*
X101461340Y-50195186D01*
X101418075Y-50238451D01*
X101357643Y-50248022D01*
X101342538Y-50244396D01*
X101304414Y-50232009D01*
X101102315Y-50200000D01*
X100897685Y-50200000D01*
X100695587Y-50232008D01*
X100500972Y-50295243D01*
X100318651Y-50388139D01*
X100318647Y-50388141D01*
X100233122Y-50450279D01*
X100776687Y-50993844D01*
X100662292Y-51059890D01*
X100559890Y-51162292D01*
X100493844Y-51276687D01*
X99950279Y-50733122D01*
X99888141Y-50818647D01*
X99888139Y-50818651D01*
X99795243Y-51000972D01*
X99732008Y-51195587D01*
X99700000Y-51397684D01*
X99700000Y-51602315D01*
X99732008Y-51804412D01*
X99795243Y-51999027D01*
X99888139Y-52181348D01*
X99888143Y-52181354D01*
X99950279Y-52266876D01*
X100493843Y-51723311D01*
X100559890Y-51837708D01*
X100662292Y-51940110D01*
X100776686Y-52006154D01*
X100233122Y-52549718D01*
X100233122Y-52549719D01*
X100261597Y-52570408D01*
X100297561Y-52619908D01*
X100297560Y-52681093D01*
X100261596Y-52730593D01*
X100203406Y-52749500D01*
X93857054Y-52749500D01*
X93798863Y-52730593D01*
X93762899Y-52681093D01*
X93761427Y-52624879D01*
X93800500Y-52479057D01*
X93800500Y-52320943D01*
X93759577Y-52168216D01*
X93680520Y-52031284D01*
X93680517Y-52031281D01*
X93680516Y-52031279D01*
X93679490Y-52030253D01*
X93679016Y-52029324D01*
X93676569Y-52026134D01*
X93677160Y-52025680D01*
X93651717Y-51975734D01*
X93650500Y-51960256D01*
X93650500Y-49427611D01*
X93669407Y-49369420D01*
X93679496Y-49357607D01*
X98007607Y-45029496D01*
X98062124Y-45001719D01*
X98077611Y-45000500D01*
X98079055Y-45000500D01*
X98079057Y-45000500D01*
X98231784Y-44959577D01*
X98368716Y-44880520D01*
X98480520Y-44768716D01*
X98559577Y-44631784D01*
X98600500Y-44479057D01*
X98600500Y-44320943D01*
X98559577Y-44168216D01*
X98480520Y-44031284D01*
X98368716Y-43919480D01*
X98231784Y-43840423D01*
X98079057Y-43799500D01*
X97920943Y-43799500D01*
X97768216Y-43840423D01*
X97631284Y-43919480D01*
X97519480Y-44031284D01*
X97440423Y-44168216D01*
X97399500Y-44320944D01*
X97399500Y-44322389D01*
X97399180Y-44323373D01*
X97398653Y-44327377D01*
X97397911Y-44327279D01*
X97380593Y-44380580D01*
X97370504Y-44392393D01*
X92839507Y-48923390D01*
X92780200Y-49026112D01*
X92780200Y-49026113D01*
X92780201Y-49026114D01*
X92754792Y-49120943D01*
X92749500Y-49140692D01*
X92749500Y-51960256D01*
X92730593Y-52018447D01*
X92720510Y-52030253D01*
X92719483Y-52031279D01*
X92719480Y-52031283D01*
X92719480Y-52031284D01*
X92640423Y-52168216D01*
X92599500Y-52320943D01*
X92599500Y-52479057D01*
X92638572Y-52624879D01*
X92635370Y-52685978D01*
X92596865Y-52733528D01*
X92542946Y-52749500D01*
X90257054Y-52749500D01*
X90198863Y-52730593D01*
X90162899Y-52681093D01*
X90161427Y-52624879D01*
X90200500Y-52479057D01*
X90200500Y-52320943D01*
X90159577Y-52168216D01*
X90080520Y-52031284D01*
X89968716Y-51919480D01*
X89831784Y-51840423D01*
X89679057Y-51799500D01*
X89520943Y-51799500D01*
X89520942Y-51799500D01*
X89514511Y-51800347D01*
X89514307Y-51798801D01*
X89460934Y-51795999D01*
X89413388Y-51757490D01*
X89397557Y-51698388D01*
X89398110Y-51691921D01*
X89398948Y-51684845D01*
X89400500Y-51679057D01*
X89400500Y-51671764D01*
X89401189Y-51665954D01*
X89411671Y-51643227D01*
X89419407Y-51619420D01*
X89426464Y-51611157D01*
X89426816Y-51610394D01*
X89427390Y-51610072D01*
X89429496Y-51607607D01*
X93207608Y-47829496D01*
X93262125Y-47801719D01*
X93277612Y-47800500D01*
X93279055Y-47800500D01*
X93279057Y-47800500D01*
X93431784Y-47759577D01*
X93568716Y-47680520D01*
X93680520Y-47568716D01*
X93759577Y-47431784D01*
X93800500Y-47279057D01*
X93800500Y-47120943D01*
X93759577Y-46968216D01*
X93680520Y-46831284D01*
X93568716Y-46719480D01*
X93431784Y-46640423D01*
X93279057Y-46599500D01*
X93120943Y-46599500D01*
X92968216Y-46640423D01*
X92831284Y-46719480D01*
X92719480Y-46831284D01*
X92640423Y-46968216D01*
X92604482Y-47102352D01*
X92599500Y-47120944D01*
X92599500Y-47122388D01*
X92599180Y-47123371D01*
X92598653Y-47127377D01*
X92597910Y-47127279D01*
X92580593Y-47180579D01*
X92570504Y-47192392D01*
X88792393Y-50970504D01*
X88745993Y-50996645D01*
X88734364Y-50999500D01*
X88720943Y-50999500D01*
X88574140Y-51038835D01*
X88573104Y-51039090D01*
X88543577Y-51036918D01*
X88514021Y-51035369D01*
X88513172Y-51034682D01*
X88512083Y-51034602D01*
X88489478Y-51015495D01*
X88466471Y-50996864D01*
X88466148Y-50995774D01*
X88465355Y-50995104D01*
X88462475Y-50983374D01*
X88450500Y-50942945D01*
X88450500Y-46740692D01*
X88445217Y-46720977D01*
X88419799Y-46626114D01*
X88419799Y-46626113D01*
X88419799Y-46626112D01*
X88360492Y-46523390D01*
X88360491Y-46523389D01*
X88360490Y-46523388D01*
X88360489Y-46523386D01*
X85829496Y-43992393D01*
X85801719Y-43937876D01*
X85800500Y-43922389D01*
X85800500Y-43920944D01*
X85792417Y-43890777D01*
X85759577Y-43768216D01*
X85680520Y-43631284D01*
X85568716Y-43519480D01*
X85431784Y-43440423D01*
X85279057Y-43399500D01*
X85120943Y-43399500D01*
X85120940Y-43399500D01*
X85090777Y-43407582D01*
X85029675Y-43404379D01*
X84982126Y-43365872D01*
X84966292Y-43306771D01*
X84988220Y-43249650D01*
X84995153Y-43241951D01*
X85207609Y-43029496D01*
X85262125Y-43001719D01*
X85277612Y-43000500D01*
X85279055Y-43000500D01*
X85279057Y-43000500D01*
X85431784Y-42959577D01*
X85568716Y-42880520D01*
X85680520Y-42768716D01*
X85759577Y-42631784D01*
X85800500Y-42479057D01*
X85800500Y-42320943D01*
X85759577Y-42168216D01*
X85680520Y-42031284D01*
X85568716Y-41919480D01*
X85431784Y-41840423D01*
X85279057Y-41799500D01*
X85120943Y-41799500D01*
X85120942Y-41799500D01*
X85114511Y-41800347D01*
X85114307Y-41798801D01*
X85060934Y-41795999D01*
X85013388Y-41757490D01*
X84997557Y-41698388D01*
X84999904Y-41683577D01*
X85000500Y-41679056D01*
X85000500Y-41520944D01*
X85000500Y-41520943D01*
X84959577Y-41368216D01*
X84880520Y-41231284D01*
X84768716Y-41119480D01*
X84631784Y-41040423D01*
X84479057Y-40999500D01*
X84320943Y-40999500D01*
X84168216Y-41040423D01*
X84031284Y-41119480D01*
X83919480Y-41231284D01*
X83840423Y-41368216D01*
X83799500Y-41520944D01*
X83799500Y-41522388D01*
X83799180Y-41523371D01*
X83798653Y-41527377D01*
X83797910Y-41527279D01*
X83780593Y-41580579D01*
X83770504Y-41592392D01*
X77192393Y-48170504D01*
X77137876Y-48198281D01*
X77122389Y-48199500D01*
X77120943Y-48199500D01*
X76968216Y-48240423D01*
X76831284Y-48319480D01*
X76719480Y-48431284D01*
X76640423Y-48568216D01*
X76599500Y-48720943D01*
X76599500Y-48879057D01*
X76640423Y-49031784D01*
X76719480Y-49168716D01*
X76831284Y-49280520D01*
X76968216Y-49359577D01*
X77120943Y-49400500D01*
X77120945Y-49400500D01*
X77279055Y-49400500D01*
X77279057Y-49400500D01*
X77309222Y-49392417D01*
X77370320Y-49395618D01*
X77417871Y-49434121D01*
X77433708Y-49493222D01*
X77411783Y-49550344D01*
X77404848Y-49558047D01*
X75192393Y-51770504D01*
X75137876Y-51798281D01*
X75122389Y-51799500D01*
X75120943Y-51799500D01*
X74968216Y-51840423D01*
X74831284Y-51919480D01*
X74719480Y-52031284D01*
X74640423Y-52168216D01*
X74599500Y-52320943D01*
X74599500Y-52479057D01*
X74640423Y-52631784D01*
X74719480Y-52768716D01*
X74831284Y-52880520D01*
X74968216Y-52959577D01*
X75120943Y-53000500D01*
X75120945Y-53000500D01*
X75279055Y-53000500D01*
X75279057Y-53000500D01*
X75431784Y-52959577D01*
X75568716Y-52880520D01*
X75680520Y-52768716D01*
X75759577Y-52631784D01*
X75800500Y-52479057D01*
X75800500Y-52477611D01*
X75800819Y-52476626D01*
X75801347Y-52472623D01*
X75802088Y-52472720D01*
X75819407Y-52419420D01*
X75829496Y-52407607D01*
X80477527Y-47759576D01*
X84441952Y-43795151D01*
X84496468Y-43767375D01*
X84556900Y-43776946D01*
X84600165Y-43820211D01*
X84609736Y-43880643D01*
X84607582Y-43890777D01*
X84599500Y-43920940D01*
X84599500Y-43920943D01*
X84599500Y-44079057D01*
X84640423Y-44231784D01*
X84719480Y-44368716D01*
X84831284Y-44480520D01*
X84968216Y-44559577D01*
X85120943Y-44600500D01*
X85122389Y-44600500D01*
X85123373Y-44600819D01*
X85127377Y-44601347D01*
X85127279Y-44602088D01*
X85180580Y-44619407D01*
X85192393Y-44629496D01*
X86204849Y-45641952D01*
X86232626Y-45696469D01*
X86223055Y-45756901D01*
X86179790Y-45800166D01*
X86119358Y-45809737D01*
X86109227Y-45807584D01*
X86079057Y-45799500D01*
X85920943Y-45799500D01*
X85768216Y-45840423D01*
X85631284Y-45919480D01*
X85519480Y-46031284D01*
X85440423Y-46168216D01*
X85399500Y-46320943D01*
X85399500Y-46479057D01*
X85440423Y-46631784D01*
X85519480Y-46768716D01*
X85520505Y-46769741D01*
X85520977Y-46770668D01*
X85523431Y-46773866D01*
X85522838Y-46774320D01*
X85548281Y-46824256D01*
X85549500Y-46839743D01*
X85549500Y-52972388D01*
X85530593Y-53030579D01*
X85520504Y-53042392D01*
X82758048Y-55804847D01*
X82703531Y-55832624D01*
X82643099Y-55823053D01*
X82599834Y-55779788D01*
X82590263Y-55719356D01*
X82592418Y-55709219D01*
X82600499Y-55679059D01*
X82600500Y-55679056D01*
X82600500Y-55520944D01*
X82600108Y-55519480D01*
X82559577Y-55368216D01*
X82480520Y-55231284D01*
X82368716Y-55119480D01*
X82310269Y-55085735D01*
X82269328Y-55040267D01*
X82262932Y-54979417D01*
X82293525Y-54926429D01*
X82310266Y-54914265D01*
X82368716Y-54880520D01*
X82480520Y-54768716D01*
X82559577Y-54631784D01*
X82600500Y-54479057D01*
X82600500Y-54320943D01*
X82559577Y-54168216D01*
X82480520Y-54031284D01*
X82368716Y-53919480D01*
X82231784Y-53840423D01*
X82079057Y-53799500D01*
X81920943Y-53799500D01*
X81768216Y-53840423D01*
X81631284Y-53919480D01*
X81519480Y-54031284D01*
X81440423Y-54168216D01*
X81399500Y-54320944D01*
X81399500Y-54322389D01*
X81399180Y-54323373D01*
X81398653Y-54327377D01*
X81397911Y-54327279D01*
X81380593Y-54380580D01*
X81370504Y-54392393D01*
X51958047Y-83804849D01*
X51903530Y-83832626D01*
X51843098Y-83823055D01*
X51799833Y-83779790D01*
X51790262Y-83719358D01*
X51792413Y-83709235D01*
X51800500Y-83679057D01*
X51800500Y-83520943D01*
X51759577Y-83368216D01*
X51680520Y-83231284D01*
X51568716Y-83119480D01*
X51431784Y-83040423D01*
X51431783Y-83040422D01*
X51431777Y-83040419D01*
X51428057Y-83038878D01*
X51395946Y-83017421D01*
X46865902Y-78487377D01*
X46838125Y-78432860D01*
X46841751Y-78386785D01*
X46868477Y-78304534D01*
X46873707Y-78271514D01*
X46900500Y-78102355D01*
X46900500Y-77897644D01*
X46868478Y-77695470D01*
X46856728Y-77659307D01*
X46805220Y-77500781D01*
X46712287Y-77318390D01*
X46712285Y-77318386D01*
X46591970Y-77152786D01*
X46591968Y-77152784D01*
X46591966Y-77152781D01*
X46447219Y-77008034D01*
X46447215Y-77008031D01*
X46447213Y-77008029D01*
X46281613Y-76887714D01*
X46281609Y-76887712D01*
X46099219Y-76794780D01*
X45904529Y-76731521D01*
X45702355Y-76699500D01*
X45702352Y-76699500D01*
X45497648Y-76699500D01*
X45497645Y-76699500D01*
X45295470Y-76731521D01*
X45100780Y-76794780D01*
X44918390Y-76887712D01*
X44918386Y-76887714D01*
X44752786Y-77008029D01*
X44608029Y-77152786D01*
X44487714Y-77318386D01*
X44487712Y-77318390D01*
X44394780Y-77500780D01*
X44331521Y-77695470D01*
X44299500Y-77897644D01*
X44299500Y-78102355D01*
X44331521Y-78304529D01*
X44394780Y-78499219D01*
X44487712Y-78681609D01*
X44487714Y-78681613D01*
X44608029Y-78847213D01*
X44608031Y-78847215D01*
X44608034Y-78847219D01*
X44752781Y-78991966D01*
X44752784Y-78991968D01*
X44752786Y-78991970D01*
X44918386Y-79112285D01*
X44918390Y-79112287D01*
X45100781Y-79205220D01*
X45295466Y-79268477D01*
X45295467Y-79268477D01*
X45295470Y-79268478D01*
X45497645Y-79300500D01*
X45497648Y-79300500D01*
X45702355Y-79300500D01*
X45904529Y-79268478D01*
X45904530Y-79268477D01*
X45904534Y-79268477D01*
X45986783Y-79241751D01*
X46047964Y-79241751D01*
X46087377Y-79265902D01*
X50601971Y-83780496D01*
X50629748Y-83835013D01*
X50620177Y-83895445D01*
X50576912Y-83938710D01*
X50531967Y-83949500D01*
X48740691Y-83949500D01*
X48626114Y-83980201D01*
X48523386Y-84039510D01*
X47158047Y-85404849D01*
X47103530Y-85432626D01*
X47043098Y-85423055D01*
X46999833Y-85379790D01*
X46990262Y-85319358D01*
X46992413Y-85309235D01*
X47000500Y-85279057D01*
X47000500Y-85120943D01*
X46959577Y-84968216D01*
X46880520Y-84831284D01*
X46880517Y-84831281D01*
X46880516Y-84831279D01*
X46879490Y-84830253D01*
X46879016Y-84829324D01*
X46876569Y-84826134D01*
X46877160Y-84825680D01*
X46851717Y-84775734D01*
X46850500Y-84760256D01*
X46850500Y-83140692D01*
X46850500Y-83140691D01*
X46819799Y-83026114D01*
X46784074Y-82964237D01*
X46760489Y-82923386D01*
X43829496Y-79992393D01*
X43801719Y-79937876D01*
X43800500Y-79922389D01*
X43800500Y-79920944D01*
X43800500Y-79920943D01*
X43759577Y-79768216D01*
X43680520Y-79631284D01*
X43568716Y-79519480D01*
X43431784Y-79440423D01*
X43279057Y-79399500D01*
X43120943Y-79399500D01*
X42968216Y-79440423D01*
X42831284Y-79519480D01*
X42719480Y-79631284D01*
X42640423Y-79768216D01*
X42599500Y-79920943D01*
X42599500Y-80079057D01*
X42640423Y-80231784D01*
X42719480Y-80368716D01*
X42831284Y-80480520D01*
X42968216Y-80559577D01*
X43120943Y-80600500D01*
X43122389Y-80600500D01*
X43123373Y-80600819D01*
X43127377Y-80601347D01*
X43127279Y-80602088D01*
X43180580Y-80619407D01*
X43192393Y-80629496D01*
X44204849Y-81641952D01*
X44232626Y-81696469D01*
X44223055Y-81756901D01*
X44179790Y-81800166D01*
X44119358Y-81809737D01*
X44109227Y-81807584D01*
X44079057Y-81799500D01*
X43920943Y-81799500D01*
X43768216Y-81840423D01*
X43631284Y-81919480D01*
X43519480Y-82031284D01*
X43440423Y-82168216D01*
X43399500Y-82320944D01*
X43399500Y-82322389D01*
X43399180Y-82323373D01*
X43398653Y-82327377D01*
X43397911Y-82327279D01*
X43380593Y-82380580D01*
X43370504Y-82392393D01*
X35639507Y-90123390D01*
X35580200Y-90226112D01*
X35580200Y-90226113D01*
X35580201Y-90226114D01*
X35549500Y-90340692D01*
X35549500Y-93670953D01*
X35530593Y-93729144D01*
X35495447Y-93759162D01*
X35466525Y-93773899D01*
X35317472Y-93882192D01*
X35187192Y-94012472D01*
X35078897Y-94161527D01*
X34995253Y-94325687D01*
X34938321Y-94500909D01*
X34909500Y-94682876D01*
X34709994Y-94682876D01*
X34681192Y-94501028D01*
X34624281Y-94325875D01*
X34540675Y-94161788D01*
X34432426Y-94012797D01*
X34302202Y-93882573D01*
X34153211Y-93774324D01*
X33989124Y-93690718D01*
X33813971Y-93633807D01*
X33740000Y-93622091D01*
X33740000Y-94437600D01*
X33618333Y-94405000D01*
X33461667Y-94405000D01*
X33340000Y-94437600D01*
X33340000Y-93622092D01*
X33339999Y-93622091D01*
X33266028Y-93633807D01*
X33090875Y-93690718D01*
X32926788Y-93774324D01*
X32777797Y-93882573D01*
X32647573Y-94012797D01*
X32539324Y-94161788D01*
X32455718Y-94325875D01*
X32398807Y-94501028D01*
X32370000Y-94682915D01*
X32170500Y-94682915D01*
X32170500Y-94111898D01*
X32159877Y-94023436D01*
X32104361Y-93882658D01*
X32012922Y-93762078D01*
X31892342Y-93670639D01*
X31892341Y-93670638D01*
X31892339Y-93670637D01*
X31751565Y-93615123D01*
X31663106Y-93604500D01*
X31663102Y-93604500D01*
X30336898Y-93604500D01*
X30336893Y-93604500D01*
X30248434Y-93615123D01*
X30107660Y-93670637D01*
X30107656Y-93670640D01*
X29987081Y-93762075D01*
X29987075Y-93762081D01*
X29895640Y-93882656D01*
X29895637Y-93882660D01*
X29840123Y-94023434D01*
X29829500Y-94111893D01*
X20500000Y-94111893D01*
X20500000Y-76955130D01*
X36699500Y-76955130D01*
X36699500Y-79044860D01*
X36699501Y-79044863D01*
X36702414Y-79069990D01*
X36724266Y-79119480D01*
X36747794Y-79172765D01*
X36827235Y-79252206D01*
X36930009Y-79297585D01*
X36955135Y-79300500D01*
X39044864Y-79300499D01*
X39069991Y-79297585D01*
X39172765Y-79252206D01*
X39252206Y-79172765D01*
X39297585Y-79069991D01*
X39300500Y-79044865D01*
X39300499Y-76955136D01*
X39297585Y-76930009D01*
X39252206Y-76827235D01*
X39172765Y-76747794D01*
X39069991Y-76702415D01*
X39069990Y-76702414D01*
X39069988Y-76702414D01*
X39044868Y-76699500D01*
X36955139Y-76699500D01*
X36955136Y-76699501D01*
X36930009Y-76702414D01*
X36827235Y-76747794D01*
X36747794Y-76827235D01*
X36702414Y-76930011D01*
X36699500Y-76955130D01*
X20500000Y-76955130D01*
X20500000Y-59954034D01*
X25399500Y-59954034D01*
X25399500Y-60205965D01*
X25438908Y-60454780D01*
X25516759Y-60694379D01*
X25622369Y-60901652D01*
X25631130Y-60918845D01*
X25779207Y-61122656D01*
X25957344Y-61300793D01*
X26161155Y-61448870D01*
X26385621Y-61563241D01*
X26625215Y-61641090D01*
X26625216Y-61641090D01*
X26625219Y-61641091D01*
X26874035Y-61680500D01*
X26874038Y-61680500D01*
X27125965Y-61680500D01*
X27374780Y-61641091D01*
X27374781Y-61641090D01*
X27374785Y-61641090D01*
X27614379Y-61563241D01*
X27838845Y-61448870D01*
X28042656Y-61300793D01*
X28220793Y-61122656D01*
X28368870Y-60918845D01*
X28483241Y-60694379D01*
X28561090Y-60454785D01*
X28600500Y-60205962D01*
X28600500Y-59954038D01*
X28600500Y-59954034D01*
X28561091Y-59705219D01*
X28556670Y-59691614D01*
X28526603Y-59599075D01*
X28526603Y-59537890D01*
X28550752Y-59498481D01*
X31568713Y-56480521D01*
X31568716Y-56480520D01*
X31680520Y-56368716D01*
X31733695Y-56276613D01*
X31759577Y-56231785D01*
X31800500Y-56079058D01*
X31800500Y-55920943D01*
X31759577Y-55768216D01*
X31759150Y-55767476D01*
X31733695Y-55723386D01*
X31733695Y-55723385D01*
X31680521Y-55631286D01*
X31680520Y-55631284D01*
X31568716Y-55519480D01*
X31431784Y-55440423D01*
X31279057Y-55399500D01*
X31120942Y-55399500D01*
X31027469Y-55424545D01*
X30968210Y-55440424D01*
X30918095Y-55469359D01*
X30831284Y-55519479D01*
X30719479Y-55631283D01*
X30719480Y-55631284D01*
X30719478Y-55631286D01*
X27757736Y-58593027D01*
X27703219Y-58620804D01*
X27642788Y-58611233D01*
X27614382Y-58596760D01*
X27374780Y-58518908D01*
X27125965Y-58479500D01*
X27125962Y-58479500D01*
X26874038Y-58479500D01*
X26874035Y-58479500D01*
X26625219Y-58518908D01*
X26385620Y-58596759D01*
X26161157Y-58711128D01*
X25957345Y-58859206D01*
X25779206Y-59037345D01*
X25631128Y-59241157D01*
X25516759Y-59465620D01*
X25438908Y-59705219D01*
X25399500Y-59954034D01*
X20500000Y-59954034D01*
X20500000Y-53906893D01*
X25399500Y-53906893D01*
X25399500Y-56093106D01*
X25410123Y-56181565D01*
X25465637Y-56322339D01*
X25465638Y-56322341D01*
X25465639Y-56322342D01*
X25557078Y-56442922D01*
X25677658Y-56534361D01*
X25677659Y-56534361D01*
X25677660Y-56534362D01*
X25741601Y-56559577D01*
X25818436Y-56589877D01*
X25906898Y-56600500D01*
X25906900Y-56600500D01*
X28093100Y-56600500D01*
X28093102Y-56600500D01*
X28181564Y-56589877D01*
X28322342Y-56534361D01*
X28442922Y-56442922D01*
X28534361Y-56322342D01*
X28589877Y-56181564D01*
X28600500Y-56093102D01*
X28600500Y-53906898D01*
X28589877Y-53818436D01*
X28550628Y-53718907D01*
X28534362Y-53677660D01*
X28534361Y-53677659D01*
X28534361Y-53677658D01*
X28442922Y-53557078D01*
X28322342Y-53465639D01*
X28322341Y-53465638D01*
X28322339Y-53465637D01*
X28181565Y-53410123D01*
X28093106Y-53399500D01*
X28093102Y-53399500D01*
X25906898Y-53399500D01*
X25906893Y-53399500D01*
X25818434Y-53410123D01*
X25677660Y-53465637D01*
X25677656Y-53465640D01*
X25557081Y-53557075D01*
X25557075Y-53557081D01*
X25465640Y-53677656D01*
X25465637Y-53677660D01*
X25410123Y-53818434D01*
X25399500Y-53906893D01*
X20500000Y-53906893D01*
X20500000Y-49120943D01*
X33399500Y-49120943D01*
X33399500Y-49279057D01*
X33440423Y-49431784D01*
X33519480Y-49568716D01*
X33631284Y-49680520D01*
X33768216Y-49759577D01*
X33920943Y-49800500D01*
X33920945Y-49800500D01*
X34079055Y-49800500D01*
X34079057Y-49800500D01*
X34231784Y-49759577D01*
X34368716Y-49680520D01*
X34369741Y-49679494D01*
X34370668Y-49679022D01*
X34373866Y-49676569D01*
X34374320Y-49677161D01*
X34424256Y-49651719D01*
X34439743Y-49650500D01*
X35960257Y-49650500D01*
X36018448Y-49669407D01*
X36030254Y-49679490D01*
X36031284Y-49680520D01*
X36168216Y-49759577D01*
X36320943Y-49800500D01*
X36320945Y-49800500D01*
X36479055Y-49800500D01*
X36479057Y-49800500D01*
X36631784Y-49759577D01*
X36768716Y-49680520D01*
X36880520Y-49568716D01*
X36959577Y-49431784D01*
X37000500Y-49279057D01*
X37000500Y-49120943D01*
X36959577Y-48968216D01*
X36880520Y-48831284D01*
X36768716Y-48719480D01*
X36631784Y-48640423D01*
X36479057Y-48599500D01*
X36320943Y-48599500D01*
X36168216Y-48640423D01*
X36031284Y-48719480D01*
X36030258Y-48720505D01*
X36029331Y-48720977D01*
X36026134Y-48723431D01*
X36025679Y-48722838D01*
X35975744Y-48748281D01*
X35960257Y-48749500D01*
X34439743Y-48749500D01*
X34381552Y-48730593D01*
X34369745Y-48720509D01*
X34368716Y-48719480D01*
X34231784Y-48640423D01*
X34079057Y-48599500D01*
X33920943Y-48599500D01*
X33768216Y-48640423D01*
X33631284Y-48719480D01*
X33519480Y-48831284D01*
X33440423Y-48968216D01*
X33399500Y-49120943D01*
X20500000Y-49120943D01*
X20500000Y-37954073D01*
X25400000Y-37954073D01*
X25400000Y-38205926D01*
X25439395Y-38454663D01*
X25517221Y-38694187D01*
X25631556Y-38918582D01*
X25631560Y-38918588D01*
X25735503Y-39061652D01*
X26419668Y-38377486D01*
X26423978Y-38387890D01*
X26495112Y-38494351D01*
X26585649Y-38584888D01*
X26692110Y-38656022D01*
X26702510Y-38660330D01*
X26018346Y-39344494D01*
X26018346Y-39344495D01*
X26161411Y-39448439D01*
X26161417Y-39448443D01*
X26385812Y-39562778D01*
X26625336Y-39640604D01*
X26874074Y-39680000D01*
X27125926Y-39680000D01*
X27374663Y-39640604D01*
X27614187Y-39562778D01*
X27838582Y-39448443D01*
X27838587Y-39448439D01*
X27981652Y-39344495D01*
X27981652Y-39344494D01*
X27297488Y-38660330D01*
X27307890Y-38656022D01*
X27414351Y-38584888D01*
X27504888Y-38494351D01*
X27576022Y-38387890D01*
X27580330Y-38377488D01*
X28264494Y-39061652D01*
X28264495Y-39061652D01*
X28368439Y-38918587D01*
X28368443Y-38918582D01*
X28482778Y-38694187D01*
X28560604Y-38454663D01*
X28581783Y-38320943D01*
X72999500Y-38320943D01*
X72999500Y-38479057D01*
X73040423Y-38631784D01*
X73119480Y-38768716D01*
X73120505Y-38769741D01*
X73120977Y-38770668D01*
X73123431Y-38773866D01*
X73122838Y-38774320D01*
X73148281Y-38824256D01*
X73149500Y-38839743D01*
X73149500Y-48360256D01*
X73130593Y-48418447D01*
X73120510Y-48430253D01*
X73119483Y-48431279D01*
X73119480Y-48431283D01*
X73119480Y-48431284D01*
X73040423Y-48568216D01*
X72999500Y-48720943D01*
X72999500Y-48879057D01*
X73040423Y-49031784D01*
X73119480Y-49168716D01*
X73231284Y-49280520D01*
X73368216Y-49359577D01*
X73520943Y-49400500D01*
X73520945Y-49400500D01*
X73679055Y-49400500D01*
X73679057Y-49400500D01*
X73831784Y-49359577D01*
X73968716Y-49280520D01*
X74080520Y-49168716D01*
X74159577Y-49031784D01*
X74200500Y-48879057D01*
X74200500Y-48720943D01*
X74200499Y-48720942D01*
X74199653Y-48714511D01*
X74201202Y-48714307D01*
X74203993Y-48660951D01*
X74242494Y-48613398D01*
X74301593Y-48597556D01*
X74316407Y-48599902D01*
X74320942Y-48600499D01*
X74320943Y-48600500D01*
X74320944Y-48600500D01*
X74479055Y-48600500D01*
X74479057Y-48600500D01*
X74631784Y-48559577D01*
X74768716Y-48480520D01*
X74880520Y-48368716D01*
X74959577Y-48231784D01*
X75000500Y-48079057D01*
X75000500Y-47920943D01*
X74959577Y-47768216D01*
X74880520Y-47631284D01*
X74880517Y-47631281D01*
X74880516Y-47631279D01*
X74879490Y-47630253D01*
X74879016Y-47629324D01*
X74876569Y-47626134D01*
X74877160Y-47625680D01*
X74851717Y-47575734D01*
X74850500Y-47560256D01*
X74850500Y-46657054D01*
X74869407Y-46598863D01*
X74918907Y-46562899D01*
X74975120Y-46561427D01*
X75120943Y-46600500D01*
X75120945Y-46600500D01*
X75279055Y-46600500D01*
X75279057Y-46600500D01*
X75431784Y-46559577D01*
X75568716Y-46480520D01*
X75680520Y-46368716D01*
X75759577Y-46231784D01*
X75800500Y-46079057D01*
X75800500Y-45920943D01*
X75759577Y-45768216D01*
X75680520Y-45631284D01*
X75680517Y-45631281D01*
X75680516Y-45631279D01*
X75679490Y-45630253D01*
X75679016Y-45629324D01*
X75676569Y-45626134D01*
X75677160Y-45625680D01*
X75651717Y-45575734D01*
X75650500Y-45560256D01*
X75650500Y-43920943D01*
X76599500Y-43920943D01*
X76599500Y-44079057D01*
X76640423Y-44231784D01*
X76719480Y-44368716D01*
X76831284Y-44480520D01*
X76968216Y-44559577D01*
X77120943Y-44600500D01*
X77120945Y-44600500D01*
X77279055Y-44600500D01*
X77279057Y-44600500D01*
X77431784Y-44559577D01*
X77568716Y-44480520D01*
X77680520Y-44368716D01*
X77759577Y-44231784D01*
X77800500Y-44079057D01*
X77800500Y-43920943D01*
X77759577Y-43768216D01*
X77680520Y-43631284D01*
X77680517Y-43631281D01*
X77680516Y-43631279D01*
X77679490Y-43630253D01*
X77679016Y-43629324D01*
X77676569Y-43626134D01*
X77677160Y-43625680D01*
X77651717Y-43575734D01*
X77650500Y-43560256D01*
X77650500Y-39027611D01*
X77669407Y-38969420D01*
X77679496Y-38957607D01*
X79207607Y-37429496D01*
X79262124Y-37401719D01*
X79277611Y-37400500D01*
X79279055Y-37400500D01*
X79279057Y-37400500D01*
X79431784Y-37359577D01*
X79568716Y-37280520D01*
X79680520Y-37168716D01*
X79759577Y-37031784D01*
X79800500Y-36879057D01*
X79800500Y-36720943D01*
X79759577Y-36568216D01*
X79680520Y-36431284D01*
X79568716Y-36319480D01*
X79431784Y-36240423D01*
X79279057Y-36199500D01*
X79120943Y-36199500D01*
X78968216Y-36240423D01*
X78831284Y-36319480D01*
X78719480Y-36431284D01*
X78640423Y-36568216D01*
X78599500Y-36720944D01*
X78599500Y-36722389D01*
X78599180Y-36723373D01*
X78598653Y-36727377D01*
X78597911Y-36727279D01*
X78580593Y-36780580D01*
X78570504Y-36792393D01*
X76839507Y-38523390D01*
X76780200Y-38626112D01*
X76780200Y-38626113D01*
X76780201Y-38626114D01*
X76749500Y-38740692D01*
X76749500Y-43560256D01*
X76730593Y-43618447D01*
X76720510Y-43630253D01*
X76719483Y-43631279D01*
X76719480Y-43631283D01*
X76719480Y-43631284D01*
X76640423Y-43768216D01*
X76599500Y-43920943D01*
X75650500Y-43920943D01*
X75650500Y-38839743D01*
X75669407Y-38781552D01*
X75679490Y-38769745D01*
X75680520Y-38768716D01*
X75759577Y-38631784D01*
X75800500Y-38479057D01*
X75800500Y-38320943D01*
X75759577Y-38168216D01*
X75680520Y-38031284D01*
X75568716Y-37919480D01*
X75431784Y-37840423D01*
X75279057Y-37799500D01*
X75120943Y-37799500D01*
X75044579Y-37819961D01*
X74968214Y-37840423D01*
X74849499Y-37908963D01*
X74789651Y-37921684D01*
X74750501Y-37908963D01*
X74631785Y-37840423D01*
X74580875Y-37826782D01*
X74479057Y-37799500D01*
X74320943Y-37799500D01*
X74244579Y-37819961D01*
X74168214Y-37840423D01*
X74049499Y-37908963D01*
X73989651Y-37921684D01*
X73950501Y-37908963D01*
X73831785Y-37840423D01*
X73780875Y-37826782D01*
X73679057Y-37799500D01*
X73520943Y-37799500D01*
X73368216Y-37840423D01*
X73231284Y-37919480D01*
X73119480Y-38031284D01*
X73040423Y-38168216D01*
X72999500Y-38320943D01*
X28581783Y-38320943D01*
X28585264Y-38298967D01*
X28600000Y-38205926D01*
X28600000Y-37954073D01*
X28560604Y-37705336D01*
X28482778Y-37465812D01*
X28368443Y-37241417D01*
X28368439Y-37241411D01*
X28264495Y-37098346D01*
X28264494Y-37098346D01*
X27580330Y-37782510D01*
X27576022Y-37772110D01*
X27504888Y-37665649D01*
X27414351Y-37575112D01*
X27307890Y-37503978D01*
X27297486Y-37499668D01*
X27981652Y-36815503D01*
X27838588Y-36711560D01*
X27838582Y-36711556D01*
X27614187Y-36597221D01*
X27374663Y-36519395D01*
X27125926Y-36480000D01*
X26874074Y-36480000D01*
X26625336Y-36519395D01*
X26385812Y-36597221D01*
X26161419Y-36711555D01*
X26018347Y-36815504D01*
X26702512Y-37499669D01*
X26692110Y-37503978D01*
X26585649Y-37575112D01*
X26495112Y-37665649D01*
X26423978Y-37772110D01*
X26419669Y-37782512D01*
X25735504Y-37098347D01*
X25631555Y-37241419D01*
X25517221Y-37465812D01*
X25439395Y-37705336D01*
X25400000Y-37954073D01*
X20500000Y-37954073D01*
X20500000Y-31906893D01*
X25399500Y-31906893D01*
X25399500Y-34093106D01*
X25410123Y-34181565D01*
X25465637Y-34322339D01*
X25465638Y-34322341D01*
X25465639Y-34322342D01*
X25557078Y-34442922D01*
X25677658Y-34534361D01*
X25677659Y-34534361D01*
X25677660Y-34534362D01*
X25748047Y-34562119D01*
X25818436Y-34589877D01*
X25906898Y-34600500D01*
X25906900Y-34600500D01*
X28093100Y-34600500D01*
X28093102Y-34600500D01*
X28181564Y-34589877D01*
X28322342Y-34534361D01*
X28442922Y-34442922D01*
X28534361Y-34322342D01*
X28589877Y-34181564D01*
X28600500Y-34093102D01*
X28600500Y-31906898D01*
X28589877Y-31818436D01*
X28534361Y-31677658D01*
X28442922Y-31557078D01*
X28322342Y-31465639D01*
X28322341Y-31465638D01*
X28322339Y-31465637D01*
X28181565Y-31410123D01*
X28093106Y-31399500D01*
X28093102Y-31399500D01*
X25906898Y-31399500D01*
X25906893Y-31399500D01*
X25818434Y-31410123D01*
X25677660Y-31465637D01*
X25677656Y-31465640D01*
X25557081Y-31557075D01*
X25557075Y-31557081D01*
X25465640Y-31677656D01*
X25465637Y-31677660D01*
X25410123Y-31818434D01*
X25399500Y-31906893D01*
X20500000Y-31906893D01*
X20500000Y-28720943D01*
X66999500Y-28720943D01*
X66999500Y-28879057D01*
X67040423Y-29031784D01*
X67119480Y-29168716D01*
X67231284Y-29280520D01*
X67368216Y-29359577D01*
X67520943Y-29400500D01*
X67520945Y-29400500D01*
X67679055Y-29400500D01*
X67679057Y-29400500D01*
X67831784Y-29359577D01*
X67968716Y-29280520D01*
X67969741Y-29279494D01*
X67970668Y-29279022D01*
X67973866Y-29276569D01*
X67974320Y-29277161D01*
X68024256Y-29251719D01*
X68039743Y-29250500D01*
X69372389Y-29250500D01*
X69430580Y-29269407D01*
X69442393Y-29279496D01*
X70570504Y-30407607D01*
X70598281Y-30462124D01*
X70599500Y-30477611D01*
X70599500Y-30479057D01*
X70640423Y-30631784D01*
X70719480Y-30768716D01*
X70831284Y-30880520D01*
X70968216Y-30959577D01*
X71120943Y-31000500D01*
X71120945Y-31000500D01*
X71279055Y-31000500D01*
X71279057Y-31000500D01*
X71431784Y-30959577D01*
X71568716Y-30880520D01*
X71680520Y-30768716D01*
X71759577Y-30631784D01*
X71800500Y-30479057D01*
X71800500Y-30320943D01*
X71759577Y-30168216D01*
X71680520Y-30031284D01*
X71568716Y-29919480D01*
X71431784Y-29840423D01*
X71279057Y-29799500D01*
X71279055Y-29799500D01*
X71277612Y-29799500D01*
X71276628Y-29799180D01*
X71272623Y-29798653D01*
X71272720Y-29797910D01*
X71219421Y-29780593D01*
X71207608Y-29770504D01*
X71179822Y-29742718D01*
X69876614Y-28439511D01*
X69876611Y-28439509D01*
X69876610Y-28439508D01*
X69876609Y-28439507D01*
X69773890Y-28380202D01*
X69773886Y-28380200D01*
X69749673Y-28373712D01*
X69749673Y-28373713D01*
X69659309Y-28349500D01*
X69659307Y-28349500D01*
X68039743Y-28349500D01*
X67981552Y-28330593D01*
X67969745Y-28320509D01*
X67968716Y-28319480D01*
X67831784Y-28240423D01*
X67679057Y-28199500D01*
X67520943Y-28199500D01*
X67368216Y-28240423D01*
X67231284Y-28319480D01*
X67119480Y-28431284D01*
X67040423Y-28568216D01*
X66999500Y-28720943D01*
X20500000Y-28720943D01*
X20500000Y-26897684D01*
X53700000Y-26897684D01*
X53700000Y-27102315D01*
X53732008Y-27304412D01*
X53795243Y-27499027D01*
X53888139Y-27681348D01*
X53888143Y-27681354D01*
X53950279Y-27766876D01*
X54493843Y-27223311D01*
X54559890Y-27337708D01*
X54662292Y-27440110D01*
X54776686Y-27506154D01*
X54233122Y-28049718D01*
X54233122Y-28049719D01*
X54318645Y-28111856D01*
X54318651Y-28111860D01*
X54500972Y-28204756D01*
X54695587Y-28267991D01*
X54897685Y-28300000D01*
X55102315Y-28300000D01*
X55304412Y-28267991D01*
X55499027Y-28204756D01*
X55681348Y-28111860D01*
X55681353Y-28111856D01*
X55766876Y-28049720D01*
X55766876Y-28049719D01*
X55223312Y-27506155D01*
X55337708Y-27440110D01*
X55440110Y-27337708D01*
X55506155Y-27223312D01*
X56049719Y-27766876D01*
X56049720Y-27766876D01*
X56111856Y-27681353D01*
X56111860Y-27681348D01*
X56204756Y-27499027D01*
X56267991Y-27304412D01*
X56300000Y-27102315D01*
X56300000Y-26897684D01*
X60200000Y-26897684D01*
X60200000Y-27102315D01*
X60232008Y-27304412D01*
X60295243Y-27499027D01*
X60388139Y-27681348D01*
X60388143Y-27681354D01*
X60450279Y-27766876D01*
X60993843Y-27223311D01*
X61059890Y-27337708D01*
X61162292Y-27440110D01*
X61276686Y-27506154D01*
X60733122Y-28049718D01*
X60733122Y-28049719D01*
X60818645Y-28111856D01*
X60818651Y-28111860D01*
X61000972Y-28204756D01*
X61195587Y-28267991D01*
X61397685Y-28300000D01*
X61602315Y-28300000D01*
X61804412Y-28267991D01*
X61999027Y-28204756D01*
X62181348Y-28111860D01*
X62181353Y-28111856D01*
X62266876Y-28049720D01*
X62266876Y-28049719D01*
X61723312Y-27506155D01*
X61837708Y-27440110D01*
X61940110Y-27337708D01*
X62006155Y-27223312D01*
X62549719Y-27766876D01*
X62549720Y-27766876D01*
X62611856Y-27681353D01*
X62611860Y-27681348D01*
X62704756Y-27499027D01*
X62767991Y-27304412D01*
X62800000Y-27102315D01*
X62800000Y-26897684D01*
X62767991Y-26695587D01*
X62704756Y-26500972D01*
X62611860Y-26318651D01*
X62611856Y-26318645D01*
X62549719Y-26233122D01*
X62549718Y-26233122D01*
X62006154Y-26776686D01*
X61940110Y-26662292D01*
X61837708Y-26559890D01*
X61723311Y-26493843D01*
X62266876Y-25950279D01*
X62181354Y-25888143D01*
X62181348Y-25888139D01*
X61999027Y-25795243D01*
X61804412Y-25732008D01*
X61602315Y-25700000D01*
X61397685Y-25700000D01*
X61195587Y-25732008D01*
X61000972Y-25795243D01*
X60818651Y-25888139D01*
X60818647Y-25888141D01*
X60733122Y-25950279D01*
X61276687Y-26493844D01*
X61162292Y-26559890D01*
X61059890Y-26662292D01*
X60993844Y-26776687D01*
X60450279Y-26233122D01*
X60388141Y-26318647D01*
X60388139Y-26318651D01*
X60295243Y-26500972D01*
X60232008Y-26695587D01*
X60200000Y-26897684D01*
X56300000Y-26897684D01*
X56267991Y-26695587D01*
X56204756Y-26500972D01*
X56111860Y-26318651D01*
X56111856Y-26318645D01*
X56049719Y-26233122D01*
X56049718Y-26233122D01*
X55506154Y-26776686D01*
X55440110Y-26662292D01*
X55337708Y-26559890D01*
X55223311Y-26493843D01*
X55766876Y-25950279D01*
X55681354Y-25888143D01*
X55681348Y-25888139D01*
X55499027Y-25795243D01*
X55304412Y-25732008D01*
X55102315Y-25700000D01*
X54897685Y-25700000D01*
X54695587Y-25732008D01*
X54500972Y-25795243D01*
X54318651Y-25888139D01*
X54318647Y-25888141D01*
X54233122Y-25950279D01*
X54776687Y-26493844D01*
X54662292Y-26559890D01*
X54559890Y-26662292D01*
X54493844Y-26776687D01*
X53950279Y-26233122D01*
X53888141Y-26318647D01*
X53888139Y-26318651D01*
X53795243Y-26500972D01*
X53732008Y-26695587D01*
X53700000Y-26897684D01*
X20500000Y-26897684D01*
X20500000Y-22397644D01*
X53699500Y-22397644D01*
X53699500Y-22602355D01*
X53731521Y-22804529D01*
X53794780Y-22999219D01*
X53887712Y-23181609D01*
X53887714Y-23181613D01*
X54008029Y-23347213D01*
X54008031Y-23347215D01*
X54008034Y-23347219D01*
X54152781Y-23491966D01*
X54152784Y-23491968D01*
X54152786Y-23491970D01*
X54318386Y-23612285D01*
X54318390Y-23612287D01*
X54500781Y-23705220D01*
X54695466Y-23768477D01*
X54695467Y-23768477D01*
X54695470Y-23768478D01*
X54897645Y-23800500D01*
X54897648Y-23800500D01*
X55102355Y-23800500D01*
X55304529Y-23768478D01*
X55304530Y-23768477D01*
X55304534Y-23768477D01*
X55499219Y-23705220D01*
X55681610Y-23612287D01*
X55847219Y-23491966D01*
X55991966Y-23347219D01*
X56112287Y-23181610D01*
X56205220Y-22999219D01*
X56268477Y-22804534D01*
X56300500Y-22602352D01*
X56300500Y-22397648D01*
X56300500Y-22397644D01*
X60199500Y-22397644D01*
X60199500Y-22602355D01*
X60231521Y-22804529D01*
X60294780Y-22999219D01*
X60387712Y-23181609D01*
X60387714Y-23181613D01*
X60508029Y-23347213D01*
X60508031Y-23347215D01*
X60508034Y-23347219D01*
X60652781Y-23491966D01*
X60652784Y-23491968D01*
X60652786Y-23491970D01*
X60818386Y-23612285D01*
X60818390Y-23612287D01*
X61000781Y-23705220D01*
X61195466Y-23768477D01*
X61195467Y-23768477D01*
X61195470Y-23768478D01*
X61397645Y-23800500D01*
X61397648Y-23800500D01*
X61602355Y-23800500D01*
X61804529Y-23768478D01*
X61804530Y-23768477D01*
X61804534Y-23768477D01*
X61999219Y-23705220D01*
X62181610Y-23612287D01*
X62347219Y-23491966D01*
X62491966Y-23347219D01*
X62612287Y-23181610D01*
X62705220Y-22999219D01*
X62768477Y-22804534D01*
X62800500Y-22602352D01*
X62800500Y-22397648D01*
X62800500Y-22397644D01*
X62768478Y-22195470D01*
X62768477Y-22195466D01*
X62705220Y-22000781D01*
X62612287Y-21818390D01*
X62612285Y-21818386D01*
X62491970Y-21652786D01*
X62491968Y-21652784D01*
X62491966Y-21652781D01*
X62347219Y-21508034D01*
X62347215Y-21508031D01*
X62347213Y-21508029D01*
X62181613Y-21387714D01*
X62181609Y-21387712D01*
X61999219Y-21294780D01*
X61804529Y-21231521D01*
X61602355Y-21199500D01*
X61602352Y-21199500D01*
X61397648Y-21199500D01*
X61397645Y-21199500D01*
X61195470Y-21231521D01*
X61000780Y-21294780D01*
X60818390Y-21387712D01*
X60818386Y-21387714D01*
X60652786Y-21508029D01*
X60508029Y-21652786D01*
X60387714Y-21818386D01*
X60387712Y-21818390D01*
X60294780Y-22000780D01*
X60231521Y-22195470D01*
X60199500Y-22397644D01*
X56300500Y-22397644D01*
X56268478Y-22195470D01*
X56268477Y-22195466D01*
X56205220Y-22000781D01*
X56112287Y-21818390D01*
X56112285Y-21818386D01*
X55991970Y-21652786D01*
X55991968Y-21652784D01*
X55991966Y-21652781D01*
X55847219Y-21508034D01*
X55847215Y-21508031D01*
X55847213Y-21508029D01*
X55681613Y-21387714D01*
X55681609Y-21387712D01*
X55499219Y-21294780D01*
X55304529Y-21231521D01*
X55102355Y-21199500D01*
X55102352Y-21199500D01*
X54897648Y-21199500D01*
X54897645Y-21199500D01*
X54695470Y-21231521D01*
X54500780Y-21294780D01*
X54318390Y-21387712D01*
X54318386Y-21387714D01*
X54152786Y-21508029D01*
X54008029Y-21652786D01*
X53887714Y-21818386D01*
X53887712Y-21818390D01*
X53794780Y-22000780D01*
X53731521Y-22195470D01*
X53699500Y-22397644D01*
X20500000Y-22397644D01*
X20500000Y-20599000D01*
X20518907Y-20540809D01*
X20568407Y-20504845D01*
X20599000Y-20500000D01*
X63901000Y-20500000D01*
X63959191Y-20518907D01*
G37*
%TD.AperFunction*%
%TD*%
M02*
