M48
; DRILL file KiCad 10.0.5 date 2026-08-22T00:46:38
; FORMAT={-:-/ absolute / metric / decimal}
; #@! TF.CreationDate,2026-08-22T00:46:38-07:00
; #@! TF.GenerationSoftware,Kicad,Pcbnew,10.0.5
; #@! TF.FileFunction,MixedPlating,1,4
FMAT,2
METRIC
; #@! TA.AperFunction,Plated,PTH,ViaDrill
T1C0.300
; #@! TA.AperFunction,Plated,PTH,ComponentDrill
T2C0.300
; #@! TA.AperFunction,Plated,PTH,ComponentDrill
T3C0.500
; #@! TA.AperFunction,Plated,PTH,ComponentDrill
T4C0.600
; #@! TA.AperFunction,Plated,PTH,ComponentDrill
T5C1.000
; #@! TA.AperFunction,Plated,PTH,ComponentDrill
T6C1.190
; #@! TA.AperFunction,Plated,PTH,ComponentDrill
T7C1.300
; #@! TA.AperFunction,Plated,PTH,ComponentDrill
T8C3.200
; #@! TA.AperFunction,NonPlated,NPTH,ComponentDrill
T9C0.650
%
G90
G05
T1
X32.25Y-28.5
X32.75Y-45.0
X33.5Y-39.5
X34.75Y-43.0
X35.0Y-36.0
X35.0Y-59.5
X37.0Y-115.0
X37.5Y-79.75
X37.5Y-91.75
X38.0Y-58.75
X38.0Y-105.5
X38.0Y-111.0
X38.5Y-85.25
X38.75Y-77.0
X38.75Y-89.0
X39.0Y-51.75
X39.25Y-58.0
X39.75Y-38.75
X39.75Y-39.5
X39.75Y-40.25
X39.75Y-50.75
X39.75Y-84.0
X40.25Y-74.5
X40.25Y-77.25
X40.5Y-29.25
X40.75Y-90.0
X41.25Y-70.0
X41.25Y-101.75
X41.5Y-49.75
X42.0Y-80.25
X42.25Y-60.5
X42.25Y-72.5
X42.25Y-77.25
X42.25Y-115.5
X42.75Y-38.25
X42.75Y-88.0
X43.0Y-56.5
X43.0Y-58.25
X43.0Y-76.5
X43.0Y-115.0
X43.75Y-95.5
X44.0Y-29.0
X44.0Y-33.5
X44.0Y-59.0
X44.0Y-66.0
X44.5Y-45.5
X44.75Y-29.75
X44.75Y-31.75
X44.75Y-67.0
X45.0Y-52.25
X45.0Y-86.75
X45.5Y-34.75
X45.5Y-39.5
X45.5Y-55.75
X45.5Y-93.5
X45.75Y-91.25
X46.0Y-53.5
X46.25Y-31.75
X46.25Y-50.75
X46.25Y-86.75
X46.5Y-52.75
X46.5Y-95.5
X46.5Y-112.25
X46.75Y-97.75
X47.0Y-111.0
X47.25Y-76.5
X47.25Y-82.0
X47.5Y-83.5
X47.75Y-93.25
X48.0Y-30.75
X48.0Y-33.25
X48.0Y-54.5
X48.0Y-58.0
X48.0Y-61.25
X48.25Y-31.75
X48.25Y-50.75
X48.5Y-95.5
X48.5Y-97.0
X48.75Y-48.75
X48.75Y-50.0
X48.75Y-59.25
X49.5Y-93.5
X49.75Y-31.75
X49.75Y-60.75
X49.75Y-65.0
X50.0Y-39.5
X50.5Y-35.75
X50.5Y-38.75
X50.5Y-52.5
X50.75Y-90.25
X51.0Y-59.25
X51.25Y-29.75
X51.25Y-32.5
X51.25Y-97.75
X51.5Y-53.5
X51.75Y-67.0
X52.0Y-29.0
X52.0Y-114.0
X52.0Y-115.0
X52.25Y-95.5
X52.5Y-38.0
X52.5Y-112.5
X52.75Y-54.75
X53.0Y-97.75
X53.0Y-111.0
X53.25Y-76.75
X53.25Y-79.25
X53.5Y-56.5
X53.5Y-115.0
X54.0Y-38.75
X54.0Y-42.25
X54.0Y-43.25
X54.0Y-82.0
X54.0Y-92.5
X54.25Y-95.5
X54.75Y-76.75
X54.75Y-93.5
X55.0Y-33.5
X55.0Y-43.5
X55.0Y-116.75
X55.25Y-48.0
X55.25Y-52.25
X55.25Y-57.5
X55.25Y-65.0
X55.5Y-53.5
X56.0Y-47.5
X56.0Y-54.25
X56.0Y-62.75
X56.0Y-80.5
X56.0Y-116.5
X56.25Y-40.0
X56.25Y-82.75
X56.25Y-95.5
X56.5Y-23.75
X57.0Y-91.5
X57.5Y-22.0
X57.75Y-84.25
X57.75Y-89.0
X58.0Y-83.0
X58.5Y-84.75
X58.5Y-115.0
X58.75Y-21.75
X58.75Y-26.0
X58.75Y-30.0
X58.75Y-57.5
X58.75Y-79.25
X59.0Y-73.25
X59.0Y-91.25
X59.0Y-92.5
X59.25Y-38.75
X59.75Y-24.0
X59.75Y-55.25
X60.0Y-26.75
X60.0Y-118.0
X60.25Y-95.5
X60.5Y-69.75
X60.5Y-77.0
X60.75Y-56.25
X61.25Y-24.5
X61.25Y-69.0
X61.5Y-53.5
X62.25Y-70.0
X62.5Y-29.75
X62.5Y-31.0
X62.5Y-36.5
X62.5Y-39.75
X62.75Y-70.75
X63.25Y-37.25
X63.75Y-50.0
X63.75Y-51.25
X64.0Y-71.75
X64.25Y-72.75
X64.5Y-34.75
X64.5Y-39.75
X65.25Y-40.5
X65.75Y-42.0
X65.75Y-65.0
X65.75Y-95.5
X66.0Y-33.25
X66.0Y-72.75
X66.0Y-93.5
X67.0Y-78.0
X67.0Y-95.5
X67.75Y-35.75
X68.0Y-42.0
X68.0Y-47.0
X68.0Y-49.0
X68.5Y-35.75
X69.25Y-42.0
X69.25Y-47.75
X69.5Y-86.75
X70.0Y-52.25
X70.25Y-44.75
X70.25Y-93.5
X71.0Y-33.25
X71.75Y-96.5
X72.0Y-58.0
X73.0Y-86.5
X73.75Y-56.25
X74.25Y-53.0
X75.0Y-52.25
X75.75Y-96.5
X76.5Y-44.75
X76.5Y-53.75
X76.5Y-55.5
X76.5Y-88.75
X76.75Y-57.0
X77.0Y-40.0
X77.5Y-40.75
X77.5Y-42.0
X77.75Y-93.0
X78.0Y-44.0
X78.75Y-24.5
X80.0Y-39.5
X80.0Y-60.0
X81.25Y-96.0
X81.5Y-94.5
X82.0Y-60.5
X82.0Y-88.0
X83.25Y-62.75
X83.5Y-60.5
X84.0Y-63.5
X84.0Y-117.75
X84.5Y-27.75
X85.0Y-64.5
X85.0Y-94.5
X85.75Y-91.5
X85.75Y-113.75
X86.5Y-77.25
X86.75Y-66.25
X87.25Y-39.0
X87.25Y-41.0
X87.5Y-76.0
X87.5Y-112.5
X87.75Y-37.5
X88.0Y-26.0
X88.0Y-34.0
X88.0Y-35.0
X88.0Y-40.5
X88.0Y-47.0
X88.0Y-52.5
X88.25Y-65.75
X88.25Y-67.75
X88.25Y-80.25
X88.25Y-82.25
X88.25Y-88.25
X89.0Y-36.25
X89.0Y-65.0
X89.0Y-95.75
X89.0Y-104.75
X89.25Y-33.75
X89.25Y-66.25
X89.5Y-38.0
X89.75Y-31.75
X89.75Y-42.75
X89.75Y-80.25
X90.25Y-70.0
X90.25Y-71.75
X90.25Y-73.5
X90.5Y-31.0
X90.5Y-43.25
X90.75Y-33.75
X91.0Y-30.25
X91.0Y-67.0
X91.0Y-79.0
X91.25Y-45.5
X92.0Y-35.0
X92.0Y-40.5
X92.0Y-47.0
X92.0Y-52.5
X92.0Y-77.75
X92.0Y-117.75
X92.25Y-60.0
X92.5Y-41.25
X92.5Y-74.25
X92.75Y-40.0
X92.75Y-84.75
X92.75Y-85.75
X93.25Y-43.25
X93.5Y-77.5
X93.75Y-40.0
X93.75Y-66.25
X93.75Y-67.25
X93.75Y-80.5
X94.0Y-26.0
X94.0Y-42.75
X94.0Y-64.0
X94.25Y-47.0
X94.25Y-88.25
X94.75Y-76.75
X95.0Y-43.5
X95.0Y-55.5
X95.0Y-79.0
X95.0Y-85.0
X95.25Y-66.0
X95.5Y-45.5
X95.5Y-58.75
X95.5Y-83.25
X96.0Y-65.5
X96.25Y-32.25
X96.25Y-43.5
X96.25Y-56.75
X96.25Y-75.5
X96.5Y-79.75
X96.75Y-55.25
X97.0Y-26.0
X97.0Y-42.75
X97.0Y-45.5
X97.0Y-58.5
X97.0Y-76.75
X97.25Y-44.5
X97.25Y-66.75
X97.25Y-74.5
X97.5Y-32.75
X97.75Y-55.5
X98.0Y-69.75
X98.25Y-62.75
X98.5Y-45.75
X98.75Y-62.0
X99.0Y-32.25
X99.0Y-43.5
X99.0Y-58.75
X99.25Y-61.25
X99.75Y-34.25
X99.75Y-41.5
X99.75Y-47.0
X99.75Y-78.0
X100.0Y-64.0
X100.0Y-65.5
X100.0Y-84.75
X100.0Y-87.25
X100.5Y-72.5
X100.5Y-83.5
X100.75Y-58.0
X101.0Y-66.0
X101.0Y-81.5
X101.25Y-56.5
X101.25Y-58.75
X101.5Y-36.25
X102.25Y-39.0
X102.5Y-58.75
X102.5Y-81.75
X102.5Y-86.0
X102.75Y-75.5
X103.0Y-26.0
X103.0Y-53.75
X103.25Y-52.25
X103.5Y-62.75
X103.75Y-85.25
X104.0Y-22.5
X104.0Y-60.0
X104.0Y-64.0
X104.5Y-64.75
X104.5Y-87.0
X104.75Y-32.75
X104.75Y-56.5
X105.0Y-42.0
X105.0Y-45.5
X105.0Y-54.0
X105.5Y-67.5
X105.5Y-79.0
X105.5Y-83.5
X105.5Y-84.75
X106.5Y-85.5
X106.75Y-69.5
X106.75Y-72.5
X106.75Y-75.5
X108.0Y-38.0
X108.0Y-50.5
X108.25Y-53.75
T2
X67.1Y-32.61
X67.1Y-34.01
X67.8Y-31.91
X67.8Y-33.31
X67.8Y-34.71
X68.5Y-32.61
X68.5Y-34.01
X69.2Y-31.91
X69.2Y-33.31
X69.2Y-34.71
X69.9Y-32.61
X69.9Y-34.01
T3
X23.1Y-25.0
X23.1Y-115.0
X23.803Y-23.303
X23.803Y-26.697
X23.803Y-113.303
X23.803Y-116.697
X25.5Y-22.6
X25.5Y-27.4
X25.5Y-112.6
X25.5Y-117.4
X27.197Y-23.303
X27.197Y-26.697
X27.197Y-113.303
X27.197Y-116.697
X27.9Y-25.0
X27.9Y-115.0
X112.1Y-25.0
X112.1Y-115.0
X112.803Y-23.303
X112.803Y-26.697
X112.803Y-113.303
X112.803Y-116.697
X114.5Y-22.6
X114.5Y-27.4
X114.5Y-112.6
X114.5Y-117.4
X116.197Y-23.303
X116.197Y-26.697
X116.197Y-113.303
X116.197Y-116.697
X116.9Y-25.0
X116.9Y-115.0
T5
X41.0Y-68.95
X48.6Y-68.95
X98.5Y-79.3
X98.5Y-81.84
T6
X24.0Y-104.0
X26.54Y-104.0
X29.08Y-104.0
X31.62Y-104.0
X34.16Y-104.0
X36.7Y-104.0
X39.24Y-104.0
X41.78Y-104.0
X44.32Y-104.0
X46.86Y-104.0
X49.4Y-104.0
X51.94Y-104.0
X54.48Y-104.0
X57.02Y-104.0
X62.0Y-104.0
X64.54Y-104.0
X67.08Y-104.0
X69.62Y-104.0
X72.16Y-104.0
X74.7Y-104.0
X80.0Y-104.0
X82.54Y-104.0
X85.08Y-104.0
X87.62Y-104.0
X90.16Y-104.0
X92.7Y-104.0
X95.24Y-104.0
X97.78Y-104.0
T7
X26.0Y-39.0
X26.0Y-44.08
X26.0Y-52.0
X26.0Y-57.08
X26.0Y-62.16
X26.0Y-67.24
X26.0Y-75.5
X26.0Y-80.58
X26.0Y-88.0
X26.0Y-93.08
X64.0Y-114.0
X69.08Y-114.0
X74.16Y-114.0
X79.24Y-114.0
X114.0Y-35.92
X114.0Y-41.0
X114.0Y-47.92
X114.0Y-53.0
X114.0Y-76.76
X114.0Y-81.84
X114.0Y-86.92
X114.0Y-92.0
T8
X25.5Y-25.0
X25.5Y-115.0
X114.5Y-25.0
X114.5Y-115.0
T9
X45.11Y-27.0
X50.89Y-27.0
T4
X43.68Y-23.65G85X43.68Y-23.05
G05
X43.68Y-28.08G85X43.68Y-26.98
G05
X52.32Y-23.65G85X52.32Y-23.05
G05
X52.32Y-28.08G85X52.32Y-26.98
G05
M30
