%TF.GenerationSoftware,KiCad,Pcbnew,10.0.4*%
%TF.CreationDate,2026-07-21T14:05:12-07:00*%
%TF.ProjectId,bisque-controller,62697371-7565-42d6-936f-6e74726f6c6c,rev?*%
%TF.SameCoordinates,Original*%
%TF.FileFunction,Copper,L2,Bot*%
%TF.FilePolarity,Positive*%
%FSLAX46Y46*%
G04 Gerber Fmt 4.6, Leading zero omitted, Abs format (unit mm)*
G04 Created by KiCad (PCBNEW 10.0.4) date 2026-07-21 14:05:12*
%MOMM*%
%LPD*%
G01*
G04 APERTURE LIST*
G04 Aperture macros list*
%AMRoundRect*
0 Rectangle with rounded corners*
0 $1 Rounding radius*
0 $2 $3 $4 $5 $6 $7 $8 $9 X,Y pos of 4 corners*
0 Add a 4 corners polygon primitive as box body*
4,1,4,$2,$3,$4,$5,$6,$7,$8,$9,$2,$3,0*
0 Add four circle primitives for the rounded corners*
1,1,$1+$1,$2,$3*
1,1,$1+$1,$4,$5*
1,1,$1+$1,$6,$7*
1,1,$1+$1,$8,$9*
0 Add four rect primitives between the rounded corners*
20,1,$1+$1,$2,$3,$4,$5,0*
20,1,$1+$1,$4,$5,$6,$7,0*
20,1,$1+$1,$6,$7,$8,$9,0*
20,1,$1+$1,$8,$9,$2,$3,0*%
G04 Aperture macros list end*
%TA.AperFunction,ComponentPad*%
%ADD10RoundRect,0.250000X-0.620000X-0.845000X0.620000X-0.845000X0.620000X0.845000X-0.620000X0.845000X0*%
%TD*%
%TA.AperFunction,ComponentPad*%
%ADD11O,1.740000X2.190000*%
%TD*%
%TA.AperFunction,ComponentPad*%
%ADD12R,2.000000X2.000000*%
%TD*%
%TA.AperFunction,ComponentPad*%
%ADD13C,2.000000*%
%TD*%
%TA.AperFunction,ComponentPad*%
%ADD14O,1.000000X2.100000*%
%TD*%
%TA.AperFunction,ComponentPad*%
%ADD15O,1.000000X1.600000*%
%TD*%
%TA.AperFunction,ComponentPad*%
%ADD16RoundRect,0.250000X-1.050000X1.050000X-1.050000X-1.050000X1.050000X-1.050000X1.050000X1.050000X0*%
%TD*%
%TA.AperFunction,ComponentPad*%
%ADD17C,2.600000*%
%TD*%
%TA.AperFunction,ComponentPad*%
%ADD18C,0.800000*%
%TD*%
%TA.AperFunction,ComponentPad*%
%ADD19C,6.400000*%
%TD*%
%TA.AperFunction,HeatsinkPad*%
%ADD20C,0.600000*%
%TD*%
%TA.AperFunction,ComponentPad*%
%ADD21RoundRect,0.250000X1.050000X-1.050000X1.050000X1.050000X-1.050000X1.050000X-1.050000X-1.050000X0*%
%TD*%
%TA.AperFunction,ViaPad*%
%ADD22C,0.600000*%
%TD*%
%TA.AperFunction,Conductor*%
%ADD23C,0.300000*%
%TD*%
%TA.AperFunction,Conductor*%
%ADD24C,0.600000*%
%TD*%
%TA.AperFunction,Conductor*%
%ADD25C,0.500000*%
%TD*%
%TA.AperFunction,Conductor*%
%ADD26C,0.400000*%
%TD*%
%TA.AperFunction,Conductor*%
%ADD27C,0.250000*%
%TD*%
G04 APERTURE END LIST*
D10*
%TO.P,J5,1*%
%TO.N,+3V3*%
X24500000Y-95000000D03*
D11*
%TO.P,J5,2*%
%TO.N,GND*%
X27040000Y-95000000D03*
%TO.P,J5,3*%
%TO.N,LCD_CS*%
X29580000Y-95000000D03*
%TO.P,J5,4*%
%TO.N,LCD_RST*%
X32120000Y-95000000D03*
%TO.P,J5,5*%
%TO.N,LCD_DC*%
X34660000Y-95000000D03*
%TO.P,J5,6*%
%TO.N,SPI_MOSI*%
X37200000Y-95000000D03*
%TO.P,J5,7*%
%TO.N,SPI_SCLK*%
X39740000Y-95000000D03*
%TO.P,J5,8*%
%TO.N,LCD_BL*%
X42280000Y-95000000D03*
%TD*%
D12*
%TO.P,BZ1,1*%
%TO.N,+5V*%
X38000000Y-78000000D03*
D13*
%TO.P,BZ1,2*%
%TO.N,BUZZ_K*%
X45600000Y-78000000D03*
%TD*%
D14*
%TO.P,J1,SH*%
%TO.N,GND*%
X84680000Y-92470000D03*
D15*
X84680000Y-96650000D03*
D14*
X93320000Y-92470000D03*
D15*
X93320000Y-96650000D03*
%TD*%
D16*
%TO.P,J2,1*%
%TO.N,VIN*%
X27000000Y-33000000D03*
D17*
%TO.P,J2,2*%
%TO.N,GND*%
X27000000Y-38080000D03*
%TD*%
D13*
%TO.P,SW1,1*%
%TO.N,EN*%
X55000000Y-22500000D03*
X61500000Y-22500000D03*
%TO.P,SW1,2*%
%TO.N,GND*%
X55000000Y-27000000D03*
X61500000Y-27000000D03*
%TD*%
D18*
%TO.P,H2,1*%
%TO.N,GND*%
X113100000Y-24500000D03*
X113802944Y-22802944D03*
X113802944Y-26197056D03*
X115500000Y-22100000D03*
D19*
X115500000Y-24500000D03*
D18*
X115500000Y-26900000D03*
X117197056Y-22802944D03*
X117197056Y-26197056D03*
X117900000Y-24500000D03*
%TD*%
D10*
%TO.P,J7,1*%
%TO.N,+3V3*%
X64000000Y-95000000D03*
D11*
%TO.P,J7,2*%
%TO.N,GND*%
X66540000Y-95000000D03*
%TO.P,J7,3*%
%TO.N,TXD0*%
X69080000Y-95000000D03*
%TO.P,J7,4*%
%TO.N,RXD0*%
X71620000Y-95000000D03*
%TO.P,J7,5*%
%TO.N,VENT*%
X74160000Y-95000000D03*
%TO.P,J7,6*%
%TO.N,LID_SW*%
X76700000Y-95000000D03*
%TO.P,J7,7*%
%TO.N,AUX_A*%
X79240000Y-95000000D03*
%TO.P,J7,8*%
%TO.N,AUX_B*%
X81780000Y-95000000D03*
%TD*%
D20*
%TO.P,U1,41*%
%TO.N,GND*%
X85100000Y-34760000D03*
X85100000Y-36160000D03*
X85800000Y-34060000D03*
X85800000Y-35460000D03*
X85800000Y-36860000D03*
X86500000Y-34760000D03*
X86500000Y-36160000D03*
X87200000Y-34060000D03*
X87200000Y-35460000D03*
X87200000Y-36860000D03*
X87900000Y-34760000D03*
X87900000Y-36160000D03*
%TD*%
D21*
%TO.P,J3,1*%
%TO.N,TC_P*%
X114000000Y-65000000D03*
D17*
%TO.P,J3,2*%
%TO.N,GND*%
X114000000Y-59920000D03*
%TD*%
D18*
%TO.P,H3,1*%
%TO.N,GND*%
X22100000Y-68000000D03*
X22802944Y-66302944D03*
X22802944Y-69697056D03*
X24500000Y-65600000D03*
D19*
X24500000Y-68000000D03*
D18*
X24500000Y-70400000D03*
X26197056Y-66302944D03*
X26197056Y-69697056D03*
X26900000Y-68000000D03*
%TD*%
D10*
%TO.P,J6,1*%
%TO.N,BTN_UP*%
X46000000Y-95000000D03*
D11*
%TO.P,J6,2*%
%TO.N,BTN_DOWN*%
X48540000Y-95000000D03*
%TO.P,J6,3*%
%TO.N,BTN_LEFT*%
X51080000Y-95000000D03*
%TO.P,J6,4*%
%TO.N,BTN_RIGHT*%
X53620000Y-95000000D03*
%TO.P,J6,5*%
%TO.N,BTN_SEL*%
X56160000Y-95000000D03*
%TO.P,J6,6*%
%TO.N,GND*%
X58700000Y-95000000D03*
%TD*%
D18*
%TO.P,H1,1*%
%TO.N,GND*%
X22100000Y-24500000D03*
X22802944Y-22802944D03*
X22802944Y-26197056D03*
X24500000Y-22100000D03*
D19*
X24500000Y-24500000D03*
D18*
X24500000Y-26900000D03*
X26197056Y-22802944D03*
X26197056Y-26197056D03*
X26900000Y-24500000D03*
%TD*%
%TO.P,H4,1*%
%TO.N,GND*%
X113100000Y-95500000D03*
X113802944Y-93802944D03*
X113802944Y-97197056D03*
X115500000Y-93100000D03*
D19*
X115500000Y-95500000D03*
D18*
X115500000Y-97900000D03*
X117197056Y-93802944D03*
X117197056Y-97197056D03*
X117900000Y-95500000D03*
%TD*%
D16*
%TO.P,J4,1*%
%TO.N,+5V*%
X27000000Y-55000000D03*
D17*
%TO.P,J4,2*%
%TO.N,SSR_OUT*%
X27000000Y-60080000D03*
%TD*%
D13*
%TO.P,SW2,1*%
%TO.N,IO0*%
X101000000Y-47000000D03*
X107500000Y-47000000D03*
%TO.P,SW2,2*%
%TO.N,GND*%
X101000000Y-51500000D03*
X107500000Y-51500000D03*
%TD*%
D22*
%TO.N,GND*%
X54000000Y-48000000D03*
X84000000Y-60000000D03*
X66000000Y-36000000D03*
X66000000Y-66000000D03*
X102000000Y-90000000D03*
X96000000Y-90000000D03*
X30000000Y-66000000D03*
X90000000Y-60000000D03*
X90000000Y-42000000D03*
X108000000Y-30000000D03*
X48000000Y-30000000D03*
X36000000Y-30000000D03*
X60000000Y-48000000D03*
X102000000Y-78000000D03*
X30000000Y-78000000D03*
X80000000Y-86000000D03*
X54000000Y-24000000D03*
X96000000Y-72000000D03*
X48000000Y-66000000D03*
X102000000Y-30000000D03*
X66000000Y-84000000D03*
X42000000Y-24000000D03*
X48000000Y-24000000D03*
X30000000Y-48000000D03*
X30000000Y-84000000D03*
X66800000Y-27200000D03*
X102000000Y-84000000D03*
X102000000Y-72000000D03*
X96000000Y-66000000D03*
X36000000Y-36000000D03*
X24000000Y-78000000D03*
X36000000Y-84000000D03*
X36000000Y-54000000D03*
X82000000Y-28000000D03*
X65599999Y-33600000D03*
X30000000Y-60000000D03*
X36000000Y-24000000D03*
X36000000Y-72000000D03*
X68400000Y-80000000D03*
X84000000Y-36000000D03*
X108000000Y-78000000D03*
X60000000Y-72000000D03*
X84000000Y-96000000D03*
X66000000Y-42000000D03*
X114000000Y-42000000D03*
X36000000Y-60000000D03*
X42000000Y-66000000D03*
X60000000Y-42000000D03*
X108000000Y-90000000D03*
X108000000Y-42000000D03*
X114000000Y-36000000D03*
X54000000Y-30000000D03*
X24000000Y-84000000D03*
X24000000Y-42000000D03*
X108000000Y-96000000D03*
X60000000Y-66000000D03*
X42000000Y-48000000D03*
X66000000Y-90000000D03*
X90000000Y-36000000D03*
X60000000Y-54000000D03*
X48000000Y-42000000D03*
X24000000Y-54000000D03*
X114000000Y-84000000D03*
X66000000Y-48000000D03*
X108000000Y-60000000D03*
X90000000Y-30000000D03*
X30000000Y-36000000D03*
X54000000Y-60000000D03*
X24000000Y-60000000D03*
X24000000Y-72000000D03*
X114000000Y-90000000D03*
X102000000Y-96000000D03*
X42000000Y-78000000D03*
X96000000Y-78000000D03*
X90000000Y-72000000D03*
X114000000Y-54000000D03*
X42000000Y-60000000D03*
X108000000Y-36000000D03*
X54000000Y-72000000D03*
X66000000Y-96000000D03*
X36000000Y-66000000D03*
X102000000Y-66000000D03*
X42000000Y-42000000D03*
X54000000Y-36000000D03*
X30000000Y-72000000D03*
X114000000Y-72000000D03*
X42000000Y-54000000D03*
X96000000Y-60000000D03*
X48000000Y-54000000D03*
X90000000Y-96000000D03*
X108000000Y-84000000D03*
X48000000Y-48000000D03*
X30000000Y-90000000D03*
X114000000Y-48000000D03*
X84000000Y-90000000D03*
X30000000Y-42000000D03*
X108000000Y-72000000D03*
X84000000Y-30000000D03*
X114000000Y-78000000D03*
X90000000Y-66000000D03*
X24000000Y-36000000D03*
X42000000Y-72000000D03*
X24000000Y-90000000D03*
X84000000Y-42000000D03*
X24000000Y-30000000D03*
X24000000Y-48000000D03*
X48000000Y-60000000D03*
X54000000Y-54000000D03*
X36000000Y-78000000D03*
X114000000Y-30000000D03*
X60000000Y-36000000D03*
X60000000Y-30000000D03*
X84000000Y-66000000D03*
X108000000Y-54000000D03*
X54000000Y-79600000D03*
X60000000Y-24000000D03*
X89000000Y-85400000D03*
X60000000Y-90000000D03*
X66000000Y-60000000D03*
X54000000Y-42000000D03*
X72000000Y-36000000D03*
X30000000Y-24000000D03*
%TO.N,LCD_CS*%
X42800000Y-81200000D03*
%TO.N,LCD_RST*%
X77200000Y-50800000D03*
X82000000Y-46000000D03*
X44000000Y-82400000D03*
%TO.N,LCD_DC*%
X80000000Y-59200000D03*
X56000000Y-83200000D03*
%TO.N,SPI_MOSI*%
X86000000Y-46400000D03*
%TO.N,SPI_SCLK*%
X57600000Y-83200000D03*
X104000000Y-56800000D03*
X87200000Y-47600000D03*
%TO.N,LCD_BL*%
X80000000Y-57600000D03*
%TO.N,SSR_OUT*%
X31200000Y-56000000D03*
%TO.N,BUZZ_K*%
X51200000Y-83600000D03*
%TO.N,IO0*%
X104000000Y-47200000D03*
%TO.N,VBUS*%
X87200000Y-87600000D03*
X87200000Y-85200000D03*
%TO.N,CC1*%
X86000000Y-88800000D03*
X87600000Y-89600000D03*
%TO.N,USB_DP*%
X90000000Y-85200000D03*
X89600000Y-89600000D03*
X88800000Y-76400000D03*
X88800000Y-78800000D03*
%TO.N,USB_DN*%
X88000000Y-81200000D03*
X88400000Y-89600000D03*
X83200000Y-76400000D03*
X88000000Y-85200000D03*
%TO.N,ALARM*%
X71200000Y-51600000D03*
X77200000Y-38400000D03*
%TO.N,EN*%
X71200000Y-30400000D03*
X67600000Y-28800000D03*
%TO.N,TXD0*%
X81200000Y-67600000D03*
X84400000Y-46800000D03*
X86400000Y-42000000D03*
%TO.N,RXD0*%
X85600000Y-44000000D03*
X74400000Y-55200000D03*
X74000000Y-76400000D03*
%TO.N,VENT*%
X88000000Y-50800000D03*
X85600000Y-72000000D03*
X90000000Y-46800000D03*
%TO.N,LID_SW*%
X97600000Y-54400000D03*
X76000000Y-90000000D03*
X76000000Y-78800000D03*
%TO.N,AUX_A*%
X79200000Y-90000000D03*
X76400000Y-51600000D03*
X77600000Y-78800000D03*
X79200000Y-83600000D03*
X77600000Y-76400000D03*
X81600000Y-44000000D03*
%TO.N,AUX_B*%
X75200000Y-87600000D03*
X80800000Y-44000000D03*
X75200000Y-51600000D03*
X75200000Y-78800000D03*
X75200000Y-76400000D03*
%TO.N,LED_DATA*%
X87200000Y-78800000D03*
X98400000Y-54400000D03*
%TO.N,BTN_UP*%
X44800000Y-88400000D03*
X44000000Y-74800000D03*
X46000000Y-89600000D03*
X44400000Y-86000000D03*
%TO.N,BTN_DOWN*%
X72000000Y-51600000D03*
X82400000Y-40800000D03*
X61200000Y-83200000D03*
X63600000Y-80800000D03*
%TO.N,BTN_LEFT*%
X74800000Y-38400000D03*
X62000000Y-80800000D03*
X70400000Y-53600000D03*
%TO.N,TC_CS*%
X101600000Y-56000000D03*
X104800000Y-59200000D03*
%TO.N,SPI_MISO*%
X103600000Y-59600000D03*
X99200000Y-55200000D03*
%TO.N,BTN_RIGHT*%
X98000000Y-44000000D03*
X89600000Y-52400000D03*
X88800000Y-58400000D03*
%TO.N,BTN_SEL*%
X93600000Y-52800000D03*
X98800000Y-45200000D03*
X94000000Y-54400000D03*
X62800000Y-83200000D03*
%TO.N,LEDS_K*%
X36400000Y-49200000D03*
X34000000Y-49200000D03*
%TD*%
%TO.N,GND*%
D23*
X61600000Y-27200000D02*
X66800000Y-27200000D01*
X84000000Y-30000000D02*
X82000000Y-28000000D01*
X66000000Y-34000000D02*
X65599999Y-33600000D01*
X84000000Y-90000000D02*
X80000000Y-86000000D01*
X68400000Y-81600000D02*
X68400000Y-80000000D01*
X66000000Y-84000000D02*
X68400000Y-81600000D01*
X66000000Y-36000000D02*
X66000000Y-34000000D01*
X54000000Y-72000000D02*
X54000000Y-79600000D01*
%TO.N,LCD_CS*%
X29600000Y-94400000D02*
X42800000Y-81200000D01*
X29600000Y-95200000D02*
X29600000Y-94400000D01*
%TO.N,LCD_RST*%
X33200000Y-94000000D02*
X33200000Y-93200000D01*
X33200000Y-93200000D02*
X44000000Y-82400000D01*
X77200000Y-50800000D02*
X82000000Y-46000000D01*
X32000000Y-95200000D02*
X33200000Y-94000000D01*
%TO.N,LCD_DC*%
X56000000Y-83200000D02*
X80000000Y-59200000D01*
%TO.N,SPI_MOSI*%
X37200000Y-95200000D02*
X38400000Y-94000000D01*
X52000000Y-84400000D02*
X79200000Y-57200000D01*
X38400000Y-94000000D02*
X38400000Y-93200000D01*
X47200000Y-84400000D02*
X52000000Y-84400000D01*
X38400000Y-93200000D02*
X47200000Y-84400000D01*
X79200000Y-57200000D02*
X79200000Y-53200000D01*
X79200000Y-53200000D02*
X86000000Y-46400000D01*
%TO.N,SPI_SCLK*%
X87200000Y-53600000D02*
X87200000Y-47600000D01*
X87200000Y-53600000D02*
X100800000Y-53600000D01*
X100800000Y-53600000D02*
X104000000Y-56800000D01*
X57600000Y-83200000D02*
X87200000Y-53600000D01*
%TO.N,LCD_BL*%
X42400000Y-95200000D02*
X80000000Y-57600000D01*
%TO.N,SSR_OUT*%
D24*
X27200000Y-60000000D02*
X31200000Y-56000000D01*
%TO.N,BUZZ_K*%
D25*
X45600000Y-78000000D02*
X51200000Y-83600000D01*
%TO.N,IO0*%
D23*
X100800000Y-47200000D02*
X107600000Y-47200000D01*
X107600000Y-47200000D02*
X107500000Y-47000000D01*
%TO.N,VBUS*%
D26*
X87200000Y-87600000D02*
X87200000Y-85200000D01*
%TO.N,CC1*%
D27*
X87600000Y-89600000D02*
X86800000Y-88800000D01*
X86800000Y-88800000D02*
X86000000Y-88800000D01*
%TO.N,USB_DP*%
X89600000Y-85600000D02*
X90000000Y-85200000D01*
X88800000Y-78800000D02*
X88800000Y-76400000D01*
X89600000Y-89600000D02*
X89600000Y-85600000D01*
%TO.N,USB_DN*%
X88400000Y-89600000D02*
X88400000Y-85600000D01*
X88000000Y-85200000D02*
X88000000Y-81200000D01*
X88400000Y-85600000D02*
X88000000Y-85200000D01*
X88000000Y-81200000D02*
X83200000Y-76400000D01*
%TO.N,ALARM*%
D23*
X71200000Y-44400000D02*
X77200000Y-38400000D01*
X71200000Y-51600000D02*
X71200000Y-44400000D01*
%TO.N,EN*%
X69600000Y-28800000D02*
X71200000Y-30400000D01*
X67600000Y-28800000D02*
X69600000Y-28800000D01*
%TO.N,TXD0*%
X69200000Y-79600000D02*
X81200000Y-67600000D01*
X86400000Y-44800000D02*
X86400000Y-42000000D01*
X85200000Y-45600000D02*
X86000000Y-44800000D01*
X84400000Y-46800000D02*
X85200000Y-46000000D01*
X86000000Y-44800000D02*
X86400000Y-44800000D01*
X85200000Y-46000000D02*
X85200000Y-45600000D01*
X69200000Y-95200000D02*
X69200000Y-79600000D01*
%TO.N,RXD0*%
X71600000Y-95200000D02*
X71600000Y-78800000D01*
X74400000Y-55200000D02*
X85600000Y-44000000D01*
X71600000Y-78800000D02*
X74000000Y-76400000D01*
%TO.N,VENT*%
X74000000Y-83600000D02*
X85600000Y-72000000D01*
X88000000Y-48800000D02*
X90000000Y-46800000D01*
X88000000Y-50800000D02*
X88000000Y-48800000D01*
X74000000Y-95200000D02*
X74000000Y-83600000D01*
%TO.N,LID_SW*%
X76000000Y-76000000D02*
X97600000Y-54400000D01*
X76800000Y-90800000D02*
X76000000Y-90000000D01*
X76000000Y-78800000D02*
X76000000Y-76000000D01*
X76800000Y-95200000D02*
X76800000Y-90800000D01*
%TO.N,AUX_A*%
X77600000Y-78800000D02*
X77600000Y-76400000D01*
X81600000Y-44800000D02*
X81600000Y-44000000D01*
X76400000Y-51600000D02*
X76400000Y-50000000D01*
X79200000Y-90000000D02*
X79200000Y-83600000D01*
X76400000Y-50000000D02*
X81600000Y-44800000D01*
%TO.N,AUX_B*%
X75200000Y-49600000D02*
X80800000Y-44000000D01*
X80800000Y-94400000D02*
X80800000Y-93200000D01*
X80800000Y-93200000D02*
X75200000Y-87600000D01*
X75200000Y-51600000D02*
X75200000Y-49600000D01*
X75200000Y-78800000D02*
X75200000Y-76400000D01*
X81600000Y-95200000D02*
X80800000Y-94400000D01*
%TO.N,LED_DATA*%
X87200000Y-66400000D02*
X98400000Y-55200000D01*
X98400000Y-55200000D02*
X98400000Y-54400000D01*
X87200000Y-78800000D02*
X87200000Y-66400000D01*
%TO.N,BTN_UP*%
X44800000Y-79600000D02*
X44000000Y-78800000D01*
X44000000Y-78800000D02*
X44000000Y-74800000D01*
X44800000Y-83200000D02*
X44800000Y-79600000D01*
X46000000Y-89600000D02*
X44800000Y-88400000D01*
X44400000Y-83600000D02*
X44800000Y-83200000D01*
X44400000Y-86000000D02*
X44400000Y-83600000D01*
%TO.N,BTN_DOWN*%
X80000000Y-43600000D02*
X80000000Y-43200000D01*
X72000000Y-51600000D02*
X80000000Y-43600000D01*
X61200000Y-83200000D02*
X63600000Y-80800000D01*
X80000000Y-43200000D02*
X82400000Y-40800000D01*
%TO.N,BTN_LEFT*%
X70400000Y-42800000D02*
X74800000Y-38400000D01*
X51200000Y-91600000D02*
X62000000Y-80800000D01*
X70400000Y-53600000D02*
X70400000Y-42800000D01*
X51200000Y-95200000D02*
X51200000Y-91600000D01*
%TO.N,TC_CS*%
X101600000Y-56000000D02*
X104800000Y-59200000D01*
%TO.N,SPI_MISO*%
X99200000Y-55200000D02*
X103600000Y-59600000D01*
%TO.N,BTN_RIGHT*%
X89600000Y-52400000D02*
X98000000Y-44000000D01*
X53600000Y-95200000D02*
X53600000Y-93600000D01*
X53600000Y-93600000D02*
X88800000Y-58400000D01*
%TO.N,BTN_SEL*%
X62800000Y-83200000D02*
X88000000Y-58000000D01*
X88000000Y-58000000D02*
X88000000Y-57600000D01*
X88000000Y-57600000D02*
X91200000Y-54400000D01*
X91200000Y-54400000D02*
X94000000Y-54400000D01*
X93600000Y-50400000D02*
X98800000Y-45200000D01*
X93600000Y-52800000D02*
X93600000Y-50400000D01*
%TO.N,LEDS_K*%
X36400000Y-49200000D02*
X34000000Y-49200000D01*
%TD*%
%TA.AperFunction,Conductor*%
%TO.N,GND*%
G36*
X96968756Y-54058886D02*
G01*
X96995106Y-54065355D01*
X96997544Y-54068239D01*
X97001137Y-54069407D01*
X97017089Y-54091364D01*
X97034603Y-54112084D01*
X97034879Y-54115850D01*
X97037101Y-54118907D01*
X97038204Y-54161052D01*
X97039091Y-54173105D01*
X97038850Y-54174085D01*
X96999500Y-54320943D01*
X96999500Y-54334365D01*
X96996645Y-54345994D01*
X96970504Y-54392393D01*
X75639509Y-75723388D01*
X75586399Y-75815376D01*
X75540929Y-75856316D01*
X75480079Y-75862711D01*
X75451166Y-75851613D01*
X75431784Y-75840423D01*
X75279057Y-75799500D01*
X75120943Y-75799500D01*
X74968216Y-75840423D01*
X74831284Y-75919480D01*
X74719478Y-76031286D01*
X74685736Y-76089730D01*
X74640267Y-76130671D01*
X74579417Y-76137067D01*
X74526429Y-76106474D01*
X74514264Y-76089730D01*
X74480521Y-76031286D01*
X74480520Y-76031284D01*
X74368716Y-75919480D01*
X74231784Y-75840423D01*
X74079057Y-75799500D01*
X73920943Y-75799500D01*
X73890776Y-75807582D01*
X73829676Y-75804380D01*
X73782126Y-75765875D01*
X73766291Y-75706774D01*
X73788218Y-75649653D01*
X73795151Y-75641952D01*
X76807608Y-72629496D01*
X81207608Y-68229496D01*
X81262125Y-68201719D01*
X81277612Y-68200500D01*
X81279055Y-68200500D01*
X81279057Y-68200500D01*
X81431784Y-68159577D01*
X81568716Y-68080520D01*
X81680520Y-67968716D01*
X81759577Y-67831784D01*
X81800500Y-67679057D01*
X81800500Y-67520943D01*
X81759577Y-67368216D01*
X81680520Y-67231284D01*
X81568716Y-67119480D01*
X81431784Y-67040423D01*
X81279057Y-66999500D01*
X81120943Y-66999500D01*
X81103967Y-67004048D01*
X81090776Y-67007583D01*
X81029674Y-67004380D01*
X80982125Y-66965874D01*
X80966290Y-66906774D01*
X80988217Y-66849652D01*
X80995143Y-66841959D01*
X88807607Y-59029496D01*
X88862124Y-59001719D01*
X88877611Y-59000500D01*
X88879055Y-59000500D01*
X88879057Y-59000500D01*
X89031784Y-58959577D01*
X89168716Y-58880520D01*
X89280520Y-58768716D01*
X89359577Y-58631784D01*
X89400500Y-58479057D01*
X89400500Y-58320943D01*
X89359577Y-58168216D01*
X89280520Y-58031284D01*
X89168716Y-57919480D01*
X89031784Y-57840423D01*
X88879057Y-57799500D01*
X88720943Y-57799500D01*
X88703967Y-57804048D01*
X88690776Y-57807583D01*
X88629674Y-57804380D01*
X88582125Y-57765874D01*
X88566290Y-57706774D01*
X88588217Y-57649652D01*
X88595140Y-57641962D01*
X91357607Y-54879496D01*
X91412124Y-54851719D01*
X91427611Y-54850500D01*
X93560257Y-54850500D01*
X93618448Y-54869407D01*
X93630254Y-54879490D01*
X93631284Y-54880520D01*
X93768216Y-54959577D01*
X93920943Y-55000500D01*
X93920945Y-55000500D01*
X94079055Y-55000500D01*
X94079057Y-55000500D01*
X94231784Y-54959577D01*
X94368716Y-54880520D01*
X94480520Y-54768716D01*
X94559577Y-54631784D01*
X94600500Y-54479057D01*
X94600500Y-54320943D01*
X94561427Y-54175120D01*
X94564630Y-54114022D01*
X94603135Y-54066472D01*
X94657054Y-54050500D01*
X96942946Y-54050500D01*
X96968756Y-54058886D01*
G37*
%TD.AperFunction*%
%TA.AperFunction,Conductor*%
G36*
X63959191Y-20518907D02*
G01*
X63995155Y-20568407D01*
X64000000Y-20599000D01*
X64000000Y-26250000D01*
X64000001Y-26250000D01*
X111999999Y-26250000D01*
X112000000Y-26250000D01*
X112000000Y-20599000D01*
X112018907Y-20540809D01*
X112068407Y-20504845D01*
X112099000Y-20500000D01*
X119401000Y-20500000D01*
X119459191Y-20518907D01*
X119495155Y-20568407D01*
X119500000Y-20599000D01*
X119500000Y-99401000D01*
X119481093Y-99459191D01*
X119431593Y-99495155D01*
X119401000Y-99500000D01*
X20599000Y-99500000D01*
X20540809Y-99481093D01*
X20504845Y-99431593D01*
X20500000Y-99401000D01*
X20500000Y-94111893D01*
X23329500Y-94111893D01*
X23329500Y-95888106D01*
X23340123Y-95976565D01*
X23395637Y-96117339D01*
X23395638Y-96117341D01*
X23395639Y-96117342D01*
X23487078Y-96237922D01*
X23607658Y-96329361D01*
X23607659Y-96329361D01*
X23607660Y-96329362D01*
X23678047Y-96357119D01*
X23748436Y-96384877D01*
X23836898Y-96395500D01*
X23836900Y-96395500D01*
X25163100Y-96395500D01*
X25163102Y-96395500D01*
X25251564Y-96384877D01*
X25392342Y-96329361D01*
X25512922Y-96237922D01*
X25604361Y-96117342D01*
X25659877Y-95976564D01*
X25670500Y-95888102D01*
X25670500Y-94682915D01*
X25870000Y-94682915D01*
X25870000Y-94799999D01*
X25870001Y-94800000D01*
X26477600Y-94800000D01*
X26445000Y-94921667D01*
X26445000Y-95078333D01*
X26477600Y-95200000D01*
X25870001Y-95200000D01*
X25870000Y-95200001D01*
X25870000Y-95317084D01*
X25898807Y-95498971D01*
X25955718Y-95674124D01*
X26039324Y-95838211D01*
X26147573Y-95987202D01*
X26277797Y-96117426D01*
X26426788Y-96225675D01*
X26590875Y-96309281D01*
X26766027Y-96366192D01*
X26839999Y-96377907D01*
X26840000Y-96377906D01*
X26840000Y-95562399D01*
X26961667Y-95595000D01*
X27118333Y-95595000D01*
X27240000Y-95562399D01*
X27240000Y-96377907D01*
X27313972Y-96366192D01*
X27489124Y-96309281D01*
X27653211Y-96225675D01*
X27802202Y-96117426D01*
X27932426Y-95987202D01*
X28040675Y-95838211D01*
X28124281Y-95674124D01*
X28181192Y-95498971D01*
X28210000Y-95317084D01*
X28210000Y-95200001D01*
X28209999Y-95200000D01*
X27602400Y-95200000D01*
X27635000Y-95078333D01*
X27635000Y-94921667D01*
X27602400Y-94800000D01*
X28209999Y-94800000D01*
X28210000Y-94799999D01*
X28210000Y-94682915D01*
X28209994Y-94682876D01*
X28409500Y-94682876D01*
X28409500Y-95317123D01*
X28438321Y-95499090D01*
X28495253Y-95674312D01*
X28495254Y-95674315D01*
X28495255Y-95674316D01*
X28578899Y-95838475D01*
X28687193Y-95987529D01*
X28817471Y-96117807D01*
X28966525Y-96226101D01*
X29130684Y-96309745D01*
X29305907Y-96366678D01*
X29376797Y-96377906D01*
X29487877Y-96395500D01*
X29487880Y-96395500D01*
X29672123Y-96395500D01*
X29763106Y-96381089D01*
X29854093Y-96366678D01*
X30029316Y-96309745D01*
X30193475Y-96226101D01*
X30342529Y-96117807D01*
X30472807Y-95987529D01*
X30581101Y-95838475D01*
X30664745Y-95674316D01*
X30721678Y-95499093D01*
X30750500Y-95317120D01*
X30750500Y-94682880D01*
X30750500Y-94682878D01*
X30750500Y-94682876D01*
X30949500Y-94682876D01*
X30949500Y-95317123D01*
X30978321Y-95499090D01*
X31035253Y-95674312D01*
X31035254Y-95674315D01*
X31035255Y-95674316D01*
X31118899Y-95838475D01*
X31227193Y-95987529D01*
X31357471Y-96117807D01*
X31506525Y-96226101D01*
X31670684Y-96309745D01*
X31845907Y-96366678D01*
X31916797Y-96377906D01*
X32027877Y-96395500D01*
X32027880Y-96395500D01*
X32212123Y-96395500D01*
X32303106Y-96381089D01*
X32394093Y-96366678D01*
X32569316Y-96309745D01*
X32733475Y-96226101D01*
X32882529Y-96117807D01*
X33012807Y-95987529D01*
X33121101Y-95838475D01*
X33204745Y-95674316D01*
X33261678Y-95499093D01*
X33290500Y-95317120D01*
X33290500Y-94682880D01*
X33290499Y-94682876D01*
X33283329Y-94637606D01*
X33279757Y-94615057D01*
X33282209Y-94599570D01*
X33279757Y-94584083D01*
X33286874Y-94570113D01*
X33289327Y-94554627D01*
X33307528Y-94529573D01*
X33337150Y-94499951D01*
X33391663Y-94472177D01*
X33452095Y-94481748D01*
X33495360Y-94525013D01*
X33504931Y-94585444D01*
X33489500Y-94682875D01*
X33489500Y-95317123D01*
X33518321Y-95499090D01*
X33575253Y-95674312D01*
X33575254Y-95674315D01*
X33575255Y-95674316D01*
X33658899Y-95838475D01*
X33767193Y-95987529D01*
X33897471Y-96117807D01*
X34046525Y-96226101D01*
X34210684Y-96309745D01*
X34385907Y-96366678D01*
X34456797Y-96377906D01*
X34567877Y-96395500D01*
X34567880Y-96395500D01*
X34752123Y-96395500D01*
X34843106Y-96381089D01*
X34934093Y-96366678D01*
X35109316Y-96309745D01*
X35273475Y-96226101D01*
X35422529Y-96117807D01*
X35552807Y-95987529D01*
X35661101Y-95838475D01*
X35744745Y-95674316D01*
X35801678Y-95499093D01*
X35830500Y-95317120D01*
X35830500Y-94682880D01*
X35830500Y-94682878D01*
X35830500Y-94682876D01*
X35811285Y-94561564D01*
X35801678Y-94500907D01*
X35744745Y-94325684D01*
X35661101Y-94161525D01*
X35552807Y-94012471D01*
X35422529Y-93882193D01*
X35273475Y-93773899D01*
X35273474Y-93773898D01*
X35273472Y-93773897D01*
X35109312Y-93690253D01*
X34934090Y-93633321D01*
X34752123Y-93604500D01*
X34752120Y-93604500D01*
X34567880Y-93604500D01*
X34567877Y-93604500D01*
X34385909Y-93633321D01*
X34210687Y-93690253D01*
X34046527Y-93773897D01*
X33897478Y-93882188D01*
X33897471Y-93882193D01*
X33819501Y-93960162D01*
X33764987Y-93987938D01*
X33704555Y-93978367D01*
X33661290Y-93935102D01*
X33650500Y-93890157D01*
X33650500Y-93427611D01*
X33669407Y-93369420D01*
X33679496Y-93357607D01*
X44007607Y-83029496D01*
X44058179Y-83002426D01*
X44067800Y-83000500D01*
X44079057Y-83000500D01*
X44112306Y-82991590D01*
X44115413Y-82990969D01*
X44142796Y-82994176D01*
X44170322Y-82995618D01*
X44172894Y-82997700D01*
X44176183Y-82998086D01*
X44196452Y-83016777D01*
X44217872Y-83034122D01*
X44218728Y-83037319D01*
X44221163Y-83039564D01*
X44226574Y-83066599D01*
X44233709Y-83093222D01*
X44232522Y-83096312D01*
X44233173Y-83099560D01*
X44221659Y-83124614D01*
X44211784Y-83150344D01*
X44207806Y-83154761D01*
X44207625Y-83155156D01*
X44207273Y-83155353D01*
X44204849Y-83158046D01*
X44039511Y-83323385D01*
X44039507Y-83323390D01*
X43980200Y-83426112D01*
X43980200Y-83426113D01*
X43980201Y-83426114D01*
X43954792Y-83520943D01*
X43949500Y-83540692D01*
X43949500Y-85560256D01*
X43930593Y-85618447D01*
X43920510Y-85630253D01*
X43919483Y-85631279D01*
X43919480Y-85631283D01*
X43919480Y-85631284D01*
X43840423Y-85768216D01*
X43799500Y-85920943D01*
X43799500Y-86079057D01*
X43840423Y-86231784D01*
X43919480Y-86368716D01*
X44031284Y-86480520D01*
X44168216Y-86559577D01*
X44188006Y-86564879D01*
X44239320Y-86598203D01*
X44261246Y-86655325D01*
X44245410Y-86714425D01*
X44232386Y-86730510D01*
X38039508Y-92923389D01*
X38039507Y-92923390D01*
X37980200Y-93026112D01*
X37980200Y-93026113D01*
X37980201Y-93026114D01*
X37949500Y-93140692D01*
X37949500Y-93681653D01*
X37930593Y-93739844D01*
X37881093Y-93775808D01*
X37819907Y-93775808D01*
X37805555Y-93769863D01*
X37649312Y-93690253D01*
X37474090Y-93633321D01*
X37292123Y-93604500D01*
X37292120Y-93604500D01*
X37107880Y-93604500D01*
X37107877Y-93604500D01*
X36925909Y-93633321D01*
X36750687Y-93690253D01*
X36586527Y-93773897D01*
X36437472Y-93882192D01*
X36307192Y-94012472D01*
X36198897Y-94161527D01*
X36115253Y-94325687D01*
X36058321Y-94500909D01*
X36029500Y-94682876D01*
X36029500Y-95317123D01*
X36058321Y-95499090D01*
X36115253Y-95674312D01*
X36115254Y-95674315D01*
X36115255Y-95674316D01*
X36198899Y-95838475D01*
X36307193Y-95987529D01*
X36437471Y-96117807D01*
X36586525Y-96226101D01*
X36750684Y-96309745D01*
X36925907Y-96366678D01*
X36996797Y-96377906D01*
X37107877Y-96395500D01*
X37107880Y-96395500D01*
X37292123Y-96395500D01*
X37383106Y-96381089D01*
X37474093Y-96366678D01*
X37649316Y-96309745D01*
X37813475Y-96226101D01*
X37962529Y-96117807D01*
X38092807Y-95987529D01*
X38201101Y-95838475D01*
X38284745Y-95674316D01*
X38341678Y-95499093D01*
X38370500Y-95317120D01*
X38370500Y-94707610D01*
X38372968Y-94700012D01*
X38371719Y-94692123D01*
X38382243Y-94671467D01*
X38389407Y-94649419D01*
X38399496Y-94637606D01*
X38400496Y-94636606D01*
X38455013Y-94608829D01*
X38515445Y-94618400D01*
X38558710Y-94661665D01*
X38569500Y-94706610D01*
X38569500Y-95317123D01*
X38598321Y-95499090D01*
X38655253Y-95674312D01*
X38655254Y-95674315D01*
X38655255Y-95674316D01*
X38738899Y-95838475D01*
X38847193Y-95987529D01*
X38977471Y-96117807D01*
X39126525Y-96226101D01*
X39290684Y-96309745D01*
X39465907Y-96366678D01*
X39536797Y-96377906D01*
X39647877Y-96395500D01*
X39647880Y-96395500D01*
X39832123Y-96395500D01*
X39923106Y-96381089D01*
X40014093Y-96366678D01*
X40189316Y-96309745D01*
X40353475Y-96226101D01*
X40502529Y-96117807D01*
X40632807Y-95987529D01*
X40741101Y-95838475D01*
X40824745Y-95674316D01*
X40881678Y-95499093D01*
X40910500Y-95317120D01*
X40910500Y-94682880D01*
X40910500Y-94682878D01*
X40910500Y-94682876D01*
X40891285Y-94561564D01*
X40881678Y-94500907D01*
X40824745Y-94325684D01*
X40741101Y-94161525D01*
X40632807Y-94012471D01*
X40502529Y-93882193D01*
X40353475Y-93773899D01*
X40353474Y-93773898D01*
X40353472Y-93773897D01*
X40189312Y-93690253D01*
X40014090Y-93633321D01*
X39832123Y-93604500D01*
X39832120Y-93604500D01*
X39647880Y-93604500D01*
X39647877Y-93604500D01*
X39465909Y-93633321D01*
X39290687Y-93690253D01*
X39126527Y-93773897D01*
X39007691Y-93860237D01*
X38949500Y-93879144D01*
X38891309Y-93860237D01*
X38855345Y-93810736D01*
X38850500Y-93780144D01*
X38850500Y-93427611D01*
X38869407Y-93369420D01*
X38879496Y-93357607D01*
X41279496Y-90957607D01*
X44041954Y-88195148D01*
X44096469Y-88167373D01*
X44156901Y-88176944D01*
X44200166Y-88220209D01*
X44209737Y-88280641D01*
X44207583Y-88290776D01*
X44199500Y-88320943D01*
X44199500Y-88479057D01*
X44240423Y-88631784D01*
X44319480Y-88768716D01*
X44431284Y-88880520D01*
X44568216Y-88959577D01*
X44720943Y-89000500D01*
X44722389Y-89000500D01*
X44723373Y-89000819D01*
X44727377Y-89001347D01*
X44727279Y-89002088D01*
X44780580Y-89019407D01*
X44792393Y-89029496D01*
X45370504Y-89607607D01*
X45398281Y-89662124D01*
X45399500Y-89677611D01*
X45399500Y-89679057D01*
X45440423Y-89831784D01*
X45519480Y-89968716D01*
X45631284Y-90080520D01*
X45768216Y-90159577D01*
X45920943Y-90200500D01*
X45920945Y-90200500D01*
X46079055Y-90200500D01*
X46079057Y-90200500D01*
X46231784Y-90159577D01*
X46368716Y-90080520D01*
X46480520Y-89968716D01*
X46559577Y-89831784D01*
X46600500Y-89679057D01*
X46600500Y-89520943D01*
X46559577Y-89368216D01*
X46480520Y-89231284D01*
X46368716Y-89119480D01*
X46231784Y-89040423D01*
X46079057Y-88999500D01*
X46079055Y-88999500D01*
X46077611Y-88999500D01*
X46076626Y-88999180D01*
X46072623Y-88998653D01*
X46072720Y-88997911D01*
X46019420Y-88980593D01*
X46007607Y-88970504D01*
X45429496Y-88392393D01*
X45401719Y-88337876D01*
X45400500Y-88322389D01*
X45400500Y-88320944D01*
X45400500Y-88320943D01*
X45359577Y-88168216D01*
X45280520Y-88031284D01*
X45168716Y-87919480D01*
X45031784Y-87840423D01*
X44879057Y-87799500D01*
X44720943Y-87799500D01*
X44703967Y-87804048D01*
X44690776Y-87807583D01*
X44629674Y-87804380D01*
X44582125Y-87765874D01*
X44566290Y-87706774D01*
X44588217Y-87649652D01*
X44595140Y-87641962D01*
X47357607Y-84879496D01*
X47412124Y-84851719D01*
X47427611Y-84850500D01*
X51873388Y-84850500D01*
X51931579Y-84869407D01*
X51967543Y-84918907D01*
X51967543Y-84980093D01*
X51943392Y-85019504D01*
X43124427Y-93838468D01*
X43069910Y-93866245D01*
X43009478Y-93856674D01*
X42996238Y-93848560D01*
X42893475Y-93773899D01*
X42893474Y-93773898D01*
X42893472Y-93773897D01*
X42729312Y-93690253D01*
X42554090Y-93633321D01*
X42372123Y-93604500D01*
X42372120Y-93604500D01*
X42187880Y-93604500D01*
X42187877Y-93604500D01*
X42005909Y-93633321D01*
X41830687Y-93690253D01*
X41666527Y-93773897D01*
X41517472Y-93882192D01*
X41387192Y-94012472D01*
X41278897Y-94161527D01*
X41195253Y-94325687D01*
X41138321Y-94500909D01*
X41109500Y-94682876D01*
X41109500Y-95317123D01*
X41138321Y-95499090D01*
X41195253Y-95674312D01*
X41195254Y-95674315D01*
X41195255Y-95674316D01*
X41278899Y-95838475D01*
X41387193Y-95987529D01*
X41517471Y-96117807D01*
X41666525Y-96226101D01*
X41830684Y-96309745D01*
X42005907Y-96366678D01*
X42076797Y-96377906D01*
X42187877Y-96395500D01*
X42187880Y-96395500D01*
X42372123Y-96395500D01*
X42463106Y-96381089D01*
X42554093Y-96366678D01*
X42729316Y-96309745D01*
X42893475Y-96226101D01*
X43042529Y-96117807D01*
X43172807Y-95987529D01*
X43281101Y-95838475D01*
X43364745Y-95674316D01*
X43421678Y-95499093D01*
X43450500Y-95317120D01*
X43450500Y-94827611D01*
X43469407Y-94769420D01*
X43479496Y-94757607D01*
X44125210Y-94111893D01*
X44829500Y-94111893D01*
X44829500Y-95888106D01*
X44840123Y-95976565D01*
X44895637Y-96117339D01*
X44895638Y-96117341D01*
X44895639Y-96117342D01*
X44987078Y-96237922D01*
X45107658Y-96329361D01*
X45107659Y-96329361D01*
X45107660Y-96329362D01*
X45178047Y-96357119D01*
X45248436Y-96384877D01*
X45336898Y-96395500D01*
X45336900Y-96395500D01*
X46663100Y-96395500D01*
X46663102Y-96395500D01*
X46751564Y-96384877D01*
X46892342Y-96329361D01*
X47012922Y-96237922D01*
X47104361Y-96117342D01*
X47159877Y-95976564D01*
X47170500Y-95888102D01*
X47170500Y-94682876D01*
X47369500Y-94682876D01*
X47369500Y-95317123D01*
X47398321Y-95499090D01*
X47455253Y-95674312D01*
X47455254Y-95674315D01*
X47455255Y-95674316D01*
X47538899Y-95838475D01*
X47647193Y-95987529D01*
X47777471Y-96117807D01*
X47926525Y-96226101D01*
X48090684Y-96309745D01*
X48265907Y-96366678D01*
X48336797Y-96377906D01*
X48447877Y-96395500D01*
X48447880Y-96395500D01*
X48632123Y-96395500D01*
X48723106Y-96381089D01*
X48814093Y-96366678D01*
X48989316Y-96309745D01*
X49153475Y-96226101D01*
X49302529Y-96117807D01*
X49432807Y-95987529D01*
X49541101Y-95838475D01*
X49624745Y-95674316D01*
X49681678Y-95499093D01*
X49710500Y-95317120D01*
X49710500Y-94682880D01*
X49710500Y-94682878D01*
X49710500Y-94682876D01*
X49691285Y-94561564D01*
X49681678Y-94500907D01*
X49624745Y-94325684D01*
X49541101Y-94161525D01*
X49432807Y-94012471D01*
X49302529Y-93882193D01*
X49153475Y-93773899D01*
X49153474Y-93773898D01*
X49153472Y-93773897D01*
X48989312Y-93690253D01*
X48814090Y-93633321D01*
X48632123Y-93604500D01*
X48632120Y-93604500D01*
X48447880Y-93604500D01*
X48447877Y-93604500D01*
X48265909Y-93633321D01*
X48090687Y-93690253D01*
X47926527Y-93773897D01*
X47777472Y-93882192D01*
X47647192Y-94012472D01*
X47538897Y-94161527D01*
X47455253Y-94325687D01*
X47398321Y-94500909D01*
X47369500Y-94682876D01*
X47170500Y-94682876D01*
X47170500Y-94111898D01*
X47159877Y-94023436D01*
X47104361Y-93882658D01*
X47012922Y-93762078D01*
X46892342Y-93670639D01*
X46892341Y-93670638D01*
X46892339Y-93670637D01*
X46751565Y-93615123D01*
X46663106Y-93604500D01*
X46663102Y-93604500D01*
X45336898Y-93604500D01*
X45336893Y-93604500D01*
X45248434Y-93615123D01*
X45107660Y-93670637D01*
X45107656Y-93670640D01*
X44987081Y-93762075D01*
X44987075Y-93762081D01*
X44895640Y-93882656D01*
X44895637Y-93882660D01*
X44840123Y-94023434D01*
X44829500Y-94111893D01*
X44125210Y-94111893D01*
X44198168Y-94038935D01*
X49668887Y-88568216D01*
X55241954Y-82995148D01*
X55296469Y-82967373D01*
X55356901Y-82976944D01*
X55400166Y-83020209D01*
X55409737Y-83080641D01*
X55407583Y-83090776D01*
X55399892Y-83119480D01*
X55399500Y-83120943D01*
X55399500Y-83279057D01*
X55440423Y-83431784D01*
X55519480Y-83568716D01*
X55631284Y-83680520D01*
X55768216Y-83759577D01*
X55920943Y-83800500D01*
X55920945Y-83800500D01*
X56079055Y-83800500D01*
X56079057Y-83800500D01*
X56231784Y-83759577D01*
X56368716Y-83680520D01*
X56480520Y-83568716D01*
X56559577Y-83431784D01*
X56600500Y-83279057D01*
X56600500Y-83277611D01*
X56600819Y-83276626D01*
X56601347Y-83272623D01*
X56602088Y-83272720D01*
X56619407Y-83219420D01*
X56629496Y-83207608D01*
X56841952Y-82995151D01*
X56896469Y-82967373D01*
X56956901Y-82976944D01*
X57000166Y-83020209D01*
X57009737Y-83080641D01*
X57007583Y-83090776D01*
X56999892Y-83119480D01*
X56999500Y-83120943D01*
X56999500Y-83279057D01*
X57040423Y-83431784D01*
X57119480Y-83568716D01*
X57231284Y-83680520D01*
X57368216Y-83759577D01*
X57520943Y-83800500D01*
X57520945Y-83800500D01*
X57679055Y-83800500D01*
X57679057Y-83800500D01*
X57831784Y-83759577D01*
X57968716Y-83680520D01*
X58080520Y-83568716D01*
X58159577Y-83431784D01*
X58200500Y-83279057D01*
X58200500Y-83277611D01*
X58200819Y-83276626D01*
X58201347Y-83272623D01*
X58202088Y-83272720D01*
X58219407Y-83219420D01*
X58229496Y-83207607D01*
X87357607Y-54079496D01*
X87412124Y-54051719D01*
X87427611Y-54050500D01*
X90673389Y-54050500D01*
X90731580Y-54069407D01*
X90767544Y-54118907D01*
X90767544Y-54180093D01*
X90743393Y-54219504D01*
X87639507Y-57323390D01*
X87580200Y-57426112D01*
X87580200Y-57426113D01*
X87580201Y-57426114D01*
X87554792Y-57520943D01*
X87549500Y-57540692D01*
X87549500Y-57772388D01*
X87530593Y-57830579D01*
X87520504Y-57842392D01*
X64358047Y-81004849D01*
X64303530Y-81032626D01*
X64243098Y-81023055D01*
X64199833Y-80979790D01*
X64190262Y-80919358D01*
X64192413Y-80909235D01*
X64200500Y-80879057D01*
X64200500Y-80720943D01*
X64159577Y-80568216D01*
X64080520Y-80431284D01*
X63968716Y-80319480D01*
X63831784Y-80240423D01*
X63679057Y-80199500D01*
X63520943Y-80199500D01*
X63368216Y-80240423D01*
X63231284Y-80319480D01*
X63119480Y-80431284D01*
X63040423Y-80568216D01*
X63032041Y-80599500D01*
X62999500Y-80720944D01*
X62999500Y-80722389D01*
X62999180Y-80723373D01*
X62998653Y-80727377D01*
X62997911Y-80727279D01*
X62980593Y-80780580D01*
X62970503Y-80792393D01*
X62758046Y-81004849D01*
X62703530Y-81032626D01*
X62643098Y-81023055D01*
X62599833Y-80979790D01*
X62590262Y-80919358D01*
X62592413Y-80909235D01*
X62600500Y-80879057D01*
X62600500Y-80720943D01*
X62559577Y-80568216D01*
X62480520Y-80431284D01*
X62368716Y-80319480D01*
X62231784Y-80240423D01*
X62079057Y-80199500D01*
X61920943Y-80199500D01*
X61768216Y-80240423D01*
X61631284Y-80319480D01*
X61519480Y-80431284D01*
X61440423Y-80568216D01*
X61432041Y-80599500D01*
X61399500Y-80720944D01*
X61399500Y-80722389D01*
X61399180Y-80723373D01*
X61398653Y-80727377D01*
X61397911Y-80727279D01*
X61380593Y-80780580D01*
X61370504Y-80792393D01*
X50839507Y-91323390D01*
X50780200Y-91426112D01*
X50780200Y-91426113D01*
X50780201Y-91426114D01*
X50749500Y-91540692D01*
X50749500Y-93579721D01*
X50730593Y-93637912D01*
X50681093Y-93673875D01*
X50630692Y-93690251D01*
X50630690Y-93690252D01*
X50466527Y-93773897D01*
X50317472Y-93882192D01*
X50187192Y-94012472D01*
X50078897Y-94161527D01*
X49995253Y-94325687D01*
X49938321Y-94500909D01*
X49909500Y-94682876D01*
X49909500Y-95317123D01*
X49938321Y-95499090D01*
X49995253Y-95674312D01*
X49995254Y-95674315D01*
X49995255Y-95674316D01*
X50078899Y-95838475D01*
X50187193Y-95987529D01*
X50317471Y-96117807D01*
X50466525Y-96226101D01*
X50630684Y-96309745D01*
X50805907Y-96366678D01*
X50876797Y-96377906D01*
X50987877Y-96395500D01*
X50987880Y-96395500D01*
X51172123Y-96395500D01*
X51263106Y-96381089D01*
X51354093Y-96366678D01*
X51529316Y-96309745D01*
X51693475Y-96226101D01*
X51842529Y-96117807D01*
X51972807Y-95987529D01*
X52081101Y-95838475D01*
X52164745Y-95674316D01*
X52221678Y-95499093D01*
X52250500Y-95317120D01*
X52250500Y-94682880D01*
X52250500Y-94682878D01*
X52250500Y-94682876D01*
X52231285Y-94561564D01*
X52221678Y-94500907D01*
X52164745Y-94325684D01*
X52081101Y-94161525D01*
X51972807Y-94012471D01*
X51842529Y-93882193D01*
X51842525Y-93882190D01*
X51842523Y-93882188D01*
X51691309Y-93772324D01*
X51655345Y-93722824D01*
X51650500Y-93692232D01*
X51650500Y-91827611D01*
X51669407Y-91769420D01*
X51679496Y-91757607D01*
X56032801Y-87404302D01*
X60441954Y-82995148D01*
X60496469Y-82967373D01*
X60556901Y-82976944D01*
X60600166Y-83020209D01*
X60609737Y-83080641D01*
X60607583Y-83090776D01*
X60599892Y-83119480D01*
X60599500Y-83120943D01*
X60599500Y-83279057D01*
X60640423Y-83431784D01*
X60719480Y-83568716D01*
X60831284Y-83680520D01*
X60968216Y-83759577D01*
X61120943Y-83800500D01*
X61120945Y-83800500D01*
X61279055Y-83800500D01*
X61279057Y-83800500D01*
X61431784Y-83759577D01*
X61568716Y-83680520D01*
X61680520Y-83568716D01*
X61759577Y-83431784D01*
X61800500Y-83279057D01*
X61800500Y-83277611D01*
X61800819Y-83276626D01*
X61801347Y-83272623D01*
X61802088Y-83272720D01*
X61819407Y-83219420D01*
X61829496Y-83207608D01*
X62041952Y-82995151D01*
X62096469Y-82967373D01*
X62156901Y-82976944D01*
X62200166Y-83020209D01*
X62209737Y-83080641D01*
X62207583Y-83090776D01*
X62199892Y-83119480D01*
X62199500Y-83120943D01*
X62199500Y-83279057D01*
X62240423Y-83431784D01*
X62319480Y-83568716D01*
X62431284Y-83680520D01*
X62568216Y-83759577D01*
X62588006Y-83764879D01*
X62639320Y-83798203D01*
X62661246Y-83855325D01*
X62645410Y-83914425D01*
X62632386Y-83930510D01*
X53239508Y-93323389D01*
X53239507Y-93323390D01*
X53180200Y-93426112D01*
X53180200Y-93426113D01*
X53180201Y-93426114D01*
X53170983Y-93460518D01*
X53149500Y-93540692D01*
X53149500Y-93640381D01*
X53130593Y-93698572D01*
X53095447Y-93728589D01*
X53006525Y-93773899D01*
X53006522Y-93773900D01*
X53006522Y-93773901D01*
X52857472Y-93882192D01*
X52727192Y-94012472D01*
X52618897Y-94161527D01*
X52535253Y-94325687D01*
X52478321Y-94500909D01*
X52449500Y-94682876D01*
X52449500Y-95317123D01*
X52478321Y-95499090D01*
X52535253Y-95674312D01*
X52535254Y-95674315D01*
X52535255Y-95674316D01*
X52618899Y-95838475D01*
X52727193Y-95987529D01*
X52857471Y-96117807D01*
X53006525Y-96226101D01*
X53170684Y-96309745D01*
X53345907Y-96366678D01*
X53416797Y-96377906D01*
X53527877Y-96395500D01*
X53527880Y-96395500D01*
X53712123Y-96395500D01*
X53803106Y-96381089D01*
X53894093Y-96366678D01*
X54069316Y-96309745D01*
X54233475Y-96226101D01*
X54382529Y-96117807D01*
X54512807Y-95987529D01*
X54621101Y-95838475D01*
X54704745Y-95674316D01*
X54761678Y-95499093D01*
X54790500Y-95317120D01*
X54790500Y-94682880D01*
X54790500Y-94682878D01*
X54790500Y-94682876D01*
X54989500Y-94682876D01*
X54989500Y-95317123D01*
X55018321Y-95499090D01*
X55075253Y-95674312D01*
X55075254Y-95674315D01*
X55075255Y-95674316D01*
X55158899Y-95838475D01*
X55267193Y-95987529D01*
X55397471Y-96117807D01*
X55546525Y-96226101D01*
X55710684Y-96309745D01*
X55885907Y-96366678D01*
X55956797Y-96377906D01*
X56067877Y-96395500D01*
X56067880Y-96395500D01*
X56252123Y-96395500D01*
X56343106Y-96381089D01*
X56434093Y-96366678D01*
X56609316Y-96309745D01*
X56773475Y-96226101D01*
X56922529Y-96117807D01*
X57052807Y-95987529D01*
X57161101Y-95838475D01*
X57244745Y-95674316D01*
X57301678Y-95499093D01*
X57330500Y-95317120D01*
X57330500Y-94682915D01*
X57530000Y-94682915D01*
X57530000Y-94799999D01*
X57530001Y-94800000D01*
X58137600Y-94800000D01*
X58105000Y-94921667D01*
X58105000Y-95078333D01*
X58137600Y-95200000D01*
X57530001Y-95200000D01*
X57530000Y-95200001D01*
X57530000Y-95317084D01*
X57558807Y-95498971D01*
X57615718Y-95674124D01*
X57699324Y-95838211D01*
X57807573Y-95987202D01*
X57937797Y-96117426D01*
X58086788Y-96225675D01*
X58250875Y-96309281D01*
X58426027Y-96366192D01*
X58499999Y-96377907D01*
X58500000Y-96377906D01*
X58500000Y-95562399D01*
X58621667Y-95595000D01*
X58778333Y-95595000D01*
X58900000Y-95562399D01*
X58900000Y-96377907D01*
X58973972Y-96366192D01*
X59149124Y-96309281D01*
X59313211Y-96225675D01*
X59462202Y-96117426D01*
X59592426Y-95987202D01*
X59700675Y-95838211D01*
X59784281Y-95674124D01*
X59841192Y-95498971D01*
X59870000Y-95317084D01*
X59870000Y-95200001D01*
X59869999Y-95200000D01*
X59262400Y-95200000D01*
X59295000Y-95078333D01*
X59295000Y-94921667D01*
X59262400Y-94800000D01*
X59869999Y-94800000D01*
X59870000Y-94799999D01*
X59870000Y-94682915D01*
X59841192Y-94501028D01*
X59784281Y-94325875D01*
X59700675Y-94161788D01*
X59664424Y-94111893D01*
X62829500Y-94111893D01*
X62829500Y-95888106D01*
X62840123Y-95976565D01*
X62895637Y-96117339D01*
X62895638Y-96117341D01*
X62895639Y-96117342D01*
X62987078Y-96237922D01*
X63107658Y-96329361D01*
X63107659Y-96329361D01*
X63107660Y-96329362D01*
X63178047Y-96357119D01*
X63248436Y-96384877D01*
X63336898Y-96395500D01*
X63336900Y-96395500D01*
X64663100Y-96395500D01*
X64663102Y-96395500D01*
X64751564Y-96384877D01*
X64892342Y-96329361D01*
X65012922Y-96237922D01*
X65104361Y-96117342D01*
X65159877Y-95976564D01*
X65170500Y-95888102D01*
X65170500Y-94682915D01*
X65370000Y-94682915D01*
X65370000Y-94799999D01*
X65370001Y-94800000D01*
X65977600Y-94800000D01*
X65945000Y-94921667D01*
X65945000Y-95078333D01*
X65977600Y-95200000D01*
X65370001Y-95200000D01*
X65370000Y-95200001D01*
X65370000Y-95317084D01*
X65398807Y-95498971D01*
X65455718Y-95674124D01*
X65539324Y-95838211D01*
X65647573Y-95987202D01*
X65777797Y-96117426D01*
X65926788Y-96225675D01*
X66090875Y-96309281D01*
X66266027Y-96366192D01*
X66339999Y-96377907D01*
X66340000Y-96377906D01*
X66340000Y-95562399D01*
X66461667Y-95595000D01*
X66618333Y-95595000D01*
X66740000Y-95562399D01*
X66740000Y-96377907D01*
X66813972Y-96366192D01*
X66989124Y-96309281D01*
X67153211Y-96225675D01*
X67302202Y-96117426D01*
X67432426Y-95987202D01*
X67540675Y-95838211D01*
X67624281Y-95674124D01*
X67681192Y-95498971D01*
X67710000Y-95317084D01*
X67710000Y-95200001D01*
X67709999Y-95200000D01*
X67102400Y-95200000D01*
X67135000Y-95078333D01*
X67135000Y-94921667D01*
X67102400Y-94800000D01*
X67709999Y-94800000D01*
X67710000Y-94799999D01*
X67710000Y-94682915D01*
X67681192Y-94501028D01*
X67624281Y-94325875D01*
X67540675Y-94161788D01*
X67432426Y-94012797D01*
X67302202Y-93882573D01*
X67153211Y-93774324D01*
X66989124Y-93690718D01*
X66813971Y-93633807D01*
X66740000Y-93622091D01*
X66740000Y-94437600D01*
X66618333Y-94405000D01*
X66461667Y-94405000D01*
X66340000Y-94437600D01*
X66340000Y-93622092D01*
X66339999Y-93622091D01*
X66266028Y-93633807D01*
X66090875Y-93690718D01*
X65926788Y-93774324D01*
X65777797Y-93882573D01*
X65647573Y-94012797D01*
X65539324Y-94161788D01*
X65455718Y-94325875D01*
X65398807Y-94501028D01*
X65370000Y-94682915D01*
X65170500Y-94682915D01*
X65170500Y-94111898D01*
X65159877Y-94023436D01*
X65104361Y-93882658D01*
X65012922Y-93762078D01*
X64892342Y-93670639D01*
X64892341Y-93670638D01*
X64892339Y-93670637D01*
X64751565Y-93615123D01*
X64663106Y-93604500D01*
X64663102Y-93604500D01*
X63336898Y-93604500D01*
X63336893Y-93604500D01*
X63248434Y-93615123D01*
X63107660Y-93670637D01*
X63107656Y-93670640D01*
X62987081Y-93762075D01*
X62987075Y-93762081D01*
X62895640Y-93882656D01*
X62895637Y-93882660D01*
X62840123Y-94023434D01*
X62829500Y-94111893D01*
X59664424Y-94111893D01*
X59592426Y-94012797D01*
X59462202Y-93882573D01*
X59313211Y-93774324D01*
X59149124Y-93690718D01*
X58973971Y-93633807D01*
X58900000Y-93622091D01*
X58900000Y-94437600D01*
X58778333Y-94405000D01*
X58621667Y-94405000D01*
X58500000Y-94437600D01*
X58500000Y-93622092D01*
X58499999Y-93622091D01*
X58426028Y-93633807D01*
X58250875Y-93690718D01*
X58086788Y-93774324D01*
X57937797Y-93882573D01*
X57807573Y-94012797D01*
X57699324Y-94161788D01*
X57615718Y-94325875D01*
X57558807Y-94501028D01*
X57530000Y-94682915D01*
X57330500Y-94682915D01*
X57330500Y-94682880D01*
X57330500Y-94682878D01*
X57330500Y-94682876D01*
X57311285Y-94561564D01*
X57301678Y-94500907D01*
X57244745Y-94325684D01*
X57161101Y-94161525D01*
X57052807Y-94012471D01*
X56922529Y-93882193D01*
X56773475Y-93773899D01*
X56773474Y-93773898D01*
X56773472Y-93773897D01*
X56609312Y-93690253D01*
X56434090Y-93633321D01*
X56252123Y-93604500D01*
X56252120Y-93604500D01*
X56067880Y-93604500D01*
X56067877Y-93604500D01*
X55885909Y-93633321D01*
X55710687Y-93690253D01*
X55546527Y-93773897D01*
X55397472Y-93882192D01*
X55267192Y-94012472D01*
X55158897Y-94161527D01*
X55075253Y-94325687D01*
X55018321Y-94500909D01*
X54989500Y-94682876D01*
X54790500Y-94682876D01*
X54771285Y-94561564D01*
X54761678Y-94500907D01*
X54704745Y-94325684D01*
X54621101Y-94161525D01*
X54512807Y-94012471D01*
X54382529Y-93882193D01*
X54233475Y-93773899D01*
X54233473Y-93773897D01*
X54230328Y-93771613D01*
X54231208Y-93770401D01*
X54195245Y-93728309D01*
X54190433Y-93667314D01*
X54216696Y-93620405D01*
X80441953Y-67395149D01*
X80443817Y-67394199D01*
X80444842Y-67392375D01*
X80470911Y-67380394D01*
X80496469Y-67367373D01*
X80498535Y-67367700D01*
X80500438Y-67366826D01*
X80528568Y-67372456D01*
X80556901Y-67376944D01*
X80558381Y-67378424D01*
X80560433Y-67378835D01*
X80579875Y-67399918D01*
X80600166Y-67420209D01*
X80600493Y-67422276D01*
X80601912Y-67423815D01*
X80603262Y-67439759D01*
X80609737Y-67480641D01*
X80609030Y-67484585D01*
X80608403Y-67487713D01*
X80599500Y-67520943D01*
X80599500Y-67532196D01*
X80597574Y-67541819D01*
X80587163Y-67560355D01*
X80580593Y-67580579D01*
X80570504Y-67592392D01*
X68839508Y-79323389D01*
X68839507Y-79323390D01*
X68780200Y-79426112D01*
X68780200Y-79426113D01*
X68780201Y-79426114D01*
X68749500Y-79540692D01*
X68749500Y-93579721D01*
X68730593Y-93637912D01*
X68681093Y-93673875D01*
X68630692Y-93690251D01*
X68630690Y-93690252D01*
X68466527Y-93773897D01*
X68317472Y-93882192D01*
X68187192Y-94012472D01*
X68078897Y-94161527D01*
X67995253Y-94325687D01*
X67938321Y-94500909D01*
X67909500Y-94682876D01*
X67909500Y-95317123D01*
X67938321Y-95499090D01*
X67995253Y-95674312D01*
X67995254Y-95674315D01*
X67995255Y-95674316D01*
X68078899Y-95838475D01*
X68187193Y-95987529D01*
X68317471Y-96117807D01*
X68466525Y-96226101D01*
X68630684Y-96309745D01*
X68805907Y-96366678D01*
X68876797Y-96377906D01*
X68987877Y-96395500D01*
X68987880Y-96395500D01*
X69172123Y-96395500D01*
X69263106Y-96381089D01*
X69354093Y-96366678D01*
X69529316Y-96309745D01*
X69693475Y-96226101D01*
X69842529Y-96117807D01*
X69972807Y-95987529D01*
X70081101Y-95838475D01*
X70164745Y-95674316D01*
X70221678Y-95499093D01*
X70250500Y-95317120D01*
X70250500Y-94682880D01*
X70250500Y-94682878D01*
X70250500Y-94682876D01*
X70231285Y-94561564D01*
X70221678Y-94500907D01*
X70164745Y-94325684D01*
X70081101Y-94161525D01*
X69972807Y-94012471D01*
X69842529Y-93882193D01*
X69842525Y-93882190D01*
X69842523Y-93882188D01*
X69691309Y-93772324D01*
X69655345Y-93722824D01*
X69650500Y-93692232D01*
X69650500Y-79827611D01*
X69669407Y-79769420D01*
X69679496Y-79757607D01*
X73241952Y-76195151D01*
X73243817Y-76194200D01*
X73244842Y-76192376D01*
X73270911Y-76180395D01*
X73296469Y-76167374D01*
X73298535Y-76167701D01*
X73300438Y-76166827D01*
X73328568Y-76172457D01*
X73356901Y-76176945D01*
X73358381Y-76178425D01*
X73360433Y-76178836D01*
X73379875Y-76199919D01*
X73400166Y-76220210D01*
X73400493Y-76222277D01*
X73401912Y-76223816D01*
X73403262Y-76239760D01*
X73409737Y-76280642D01*
X73409030Y-76284586D01*
X73408404Y-76287710D01*
X73399500Y-76320943D01*
X73399500Y-76332197D01*
X73397574Y-76341820D01*
X73387163Y-76360356D01*
X73380593Y-76380580D01*
X73370504Y-76392393D01*
X71239507Y-78523390D01*
X71180200Y-78626112D01*
X71180200Y-78626113D01*
X71180201Y-78626114D01*
X71154792Y-78720943D01*
X71149500Y-78740692D01*
X71149500Y-93640381D01*
X71130593Y-93698572D01*
X71095447Y-93728589D01*
X71006525Y-93773899D01*
X71006522Y-93773900D01*
X71006522Y-93773901D01*
X70857472Y-93882192D01*
X70727192Y-94012472D01*
X70618897Y-94161527D01*
X70535253Y-94325687D01*
X70478321Y-94500909D01*
X70449500Y-94682876D01*
X70449500Y-95317123D01*
X70478321Y-95499090D01*
X70535253Y-95674312D01*
X70535254Y-95674315D01*
X70535255Y-95674316D01*
X70618899Y-95838475D01*
X70727193Y-95987529D01*
X70857471Y-96117807D01*
X71006525Y-96226101D01*
X71170684Y-96309745D01*
X71345907Y-96366678D01*
X71416797Y-96377906D01*
X71527877Y-96395500D01*
X71527880Y-96395500D01*
X71712123Y-96395500D01*
X71803106Y-96381089D01*
X71894093Y-96366678D01*
X72069316Y-96309745D01*
X72233475Y-96226101D01*
X72382529Y-96117807D01*
X72512807Y-95987529D01*
X72621101Y-95838475D01*
X72704745Y-95674316D01*
X72761678Y-95499093D01*
X72790500Y-95317120D01*
X72790500Y-94682880D01*
X72790500Y-94682878D01*
X72790500Y-94682876D01*
X72989500Y-94682876D01*
X72989500Y-95317123D01*
X73018321Y-95499090D01*
X73075253Y-95674312D01*
X73075254Y-95674315D01*
X73075255Y-95674316D01*
X73158899Y-95838475D01*
X73267193Y-95987529D01*
X73397471Y-96117807D01*
X73546525Y-96226101D01*
X73710684Y-96309745D01*
X73885907Y-96366678D01*
X73956797Y-96377906D01*
X74067877Y-96395500D01*
X74067880Y-96395500D01*
X74252123Y-96395500D01*
X74343106Y-96381089D01*
X74434093Y-96366678D01*
X74609316Y-96309745D01*
X74773475Y-96226101D01*
X74922529Y-96117807D01*
X75052807Y-95987529D01*
X75161101Y-95838475D01*
X75244745Y-95674316D01*
X75301678Y-95499093D01*
X75330500Y-95317120D01*
X75330500Y-94682880D01*
X75330500Y-94682878D01*
X75330500Y-94682876D01*
X75311285Y-94561564D01*
X75301678Y-94500907D01*
X75244745Y-94325684D01*
X75161101Y-94161525D01*
X75052807Y-94012471D01*
X74922529Y-93882193D01*
X74773475Y-93773899D01*
X74773474Y-93773898D01*
X74773472Y-93773897D01*
X74679632Y-93726083D01*
X74609316Y-93690255D01*
X74559907Y-93674201D01*
X74518907Y-93660879D01*
X74469407Y-93624915D01*
X74450500Y-93566725D01*
X74450500Y-87870975D01*
X74469407Y-87812784D01*
X74518907Y-87776820D01*
X74580093Y-87776820D01*
X74629593Y-87812784D01*
X74637108Y-87826204D01*
X74637179Y-87826164D01*
X74640422Y-87831781D01*
X74640423Y-87831784D01*
X74719480Y-87968716D01*
X74831284Y-88080520D01*
X74968216Y-88159577D01*
X75120943Y-88200500D01*
X75122389Y-88200500D01*
X75123373Y-88200819D01*
X75127377Y-88201347D01*
X75127279Y-88202088D01*
X75180580Y-88219407D01*
X75192393Y-88229496D01*
X76204849Y-89241952D01*
X76232626Y-89296469D01*
X76223055Y-89356901D01*
X76179790Y-89400166D01*
X76119358Y-89409737D01*
X76109227Y-89407584D01*
X76079057Y-89399500D01*
X75920943Y-89399500D01*
X75768216Y-89440423D01*
X75631284Y-89519480D01*
X75519480Y-89631284D01*
X75440423Y-89768216D01*
X75399500Y-89920943D01*
X75399500Y-90079057D01*
X75440423Y-90231784D01*
X75519480Y-90368716D01*
X75631284Y-90480520D01*
X75768216Y-90559577D01*
X75920943Y-90600500D01*
X75922389Y-90600500D01*
X75923373Y-90600819D01*
X75927377Y-90601347D01*
X75927279Y-90602088D01*
X75980580Y-90619407D01*
X75992393Y-90629496D01*
X76320504Y-90957607D01*
X76348281Y-91012124D01*
X76349500Y-91027611D01*
X76349500Y-93586220D01*
X76330593Y-93644411D01*
X76281093Y-93680374D01*
X76250689Y-93690252D01*
X76250686Y-93690254D01*
X76086527Y-93773897D01*
X75937472Y-93882192D01*
X75807192Y-94012472D01*
X75698897Y-94161527D01*
X75615253Y-94325687D01*
X75558321Y-94500909D01*
X75529500Y-94682876D01*
X75529500Y-95317123D01*
X75558321Y-95499090D01*
X75615253Y-95674312D01*
X75615254Y-95674315D01*
X75615255Y-95674316D01*
X75698899Y-95838475D01*
X75807193Y-95987529D01*
X75937471Y-96117807D01*
X76086525Y-96226101D01*
X76250684Y-96309745D01*
X76425907Y-96366678D01*
X76496797Y-96377906D01*
X76607877Y-96395500D01*
X76607880Y-96395500D01*
X76792123Y-96395500D01*
X76883106Y-96381089D01*
X76974093Y-96366678D01*
X77149316Y-96309745D01*
X77313475Y-96226101D01*
X77462529Y-96117807D01*
X77592807Y-95987529D01*
X77701101Y-95838475D01*
X77784745Y-95674316D01*
X77841678Y-95499093D01*
X77870500Y-95317120D01*
X77870500Y-94682880D01*
X77870500Y-94682878D01*
X77870500Y-94682876D01*
X77851285Y-94561564D01*
X77841678Y-94500907D01*
X77784745Y-94325684D01*
X77701101Y-94161525D01*
X77592807Y-94012471D01*
X77462529Y-93882193D01*
X77313475Y-93773899D01*
X77304548Y-93769350D01*
X77261287Y-93726083D01*
X77250500Y-93681144D01*
X77250500Y-90740692D01*
X77240542Y-90703530D01*
X77219799Y-90626114D01*
X77219799Y-90626113D01*
X77160490Y-90523386D01*
X76629496Y-89992392D01*
X76602426Y-89941820D01*
X76600500Y-89932198D01*
X76600500Y-89920943D01*
X76591591Y-89887696D01*
X76590969Y-89884586D01*
X76594175Y-89857202D01*
X76595618Y-89829677D01*
X76597700Y-89827104D01*
X76598086Y-89823816D01*
X76616778Y-89803545D01*
X76634123Y-89782126D01*
X76637320Y-89781269D01*
X76639564Y-89778836D01*
X76666596Y-89773424D01*
X76693223Y-89766290D01*
X76696312Y-89767476D01*
X76699560Y-89766826D01*
X76724617Y-89778340D01*
X76750345Y-89788216D01*
X76754762Y-89792193D01*
X76755156Y-89792374D01*
X76755352Y-89792724D01*
X76758047Y-89795150D01*
X80320504Y-93357607D01*
X80348281Y-93412124D01*
X80349500Y-93427611D01*
X80349500Y-94006032D01*
X80330593Y-94064223D01*
X80281093Y-94100187D01*
X80219907Y-94100187D01*
X80170408Y-94064223D01*
X80132811Y-94012476D01*
X80132809Y-94012474D01*
X80132807Y-94012471D01*
X80002529Y-93882193D01*
X79853475Y-93773899D01*
X79853474Y-93773898D01*
X79853472Y-93773897D01*
X79689312Y-93690253D01*
X79514090Y-93633321D01*
X79332123Y-93604500D01*
X79332120Y-93604500D01*
X79147880Y-93604500D01*
X79147877Y-93604500D01*
X78965909Y-93633321D01*
X78790687Y-93690253D01*
X78626527Y-93773897D01*
X78477472Y-93882192D01*
X78347192Y-94012472D01*
X78238897Y-94161527D01*
X78155253Y-94325687D01*
X78098321Y-94500909D01*
X78069500Y-94682876D01*
X78069500Y-95317123D01*
X78098321Y-95499090D01*
X78155253Y-95674312D01*
X78155254Y-95674315D01*
X78155255Y-95674316D01*
X78238899Y-95838475D01*
X78347193Y-95987529D01*
X78477471Y-96117807D01*
X78626525Y-96226101D01*
X78790684Y-96309745D01*
X78965907Y-96366678D01*
X79036797Y-96377906D01*
X79147877Y-96395500D01*
X79147880Y-96395500D01*
X79332123Y-96395500D01*
X79423106Y-96381089D01*
X79514093Y-96366678D01*
X79689316Y-96309745D01*
X79853475Y-96226101D01*
X80002529Y-96117807D01*
X80132807Y-95987529D01*
X80241101Y-95838475D01*
X80324745Y-95674316D01*
X80381678Y-95499093D01*
X80410500Y-95317120D01*
X80410500Y-94886610D01*
X80417663Y-94864562D01*
X80421290Y-94841665D01*
X80426938Y-94836016D01*
X80429407Y-94828419D01*
X80448163Y-94814791D01*
X80464555Y-94798400D01*
X80472444Y-94797150D01*
X80478907Y-94792455D01*
X80502092Y-94792455D01*
X80524987Y-94788829D01*
X80532104Y-94792455D01*
X80540093Y-94792455D01*
X80579501Y-94816604D01*
X80580505Y-94817608D01*
X80608281Y-94872123D01*
X80609500Y-94887610D01*
X80609500Y-95317123D01*
X80638321Y-95499090D01*
X80695253Y-95674312D01*
X80695254Y-95674315D01*
X80695255Y-95674316D01*
X80778899Y-95838475D01*
X80887193Y-95987529D01*
X81017471Y-96117807D01*
X81166525Y-96226101D01*
X81330684Y-96309745D01*
X81505907Y-96366678D01*
X81576797Y-96377906D01*
X81687877Y-96395500D01*
X81687880Y-96395500D01*
X81872123Y-96395500D01*
X81963106Y-96381089D01*
X82054093Y-96366678D01*
X82229316Y-96309745D01*
X82304956Y-96271204D01*
X83880000Y-96271204D01*
X83880000Y-96449999D01*
X83880001Y-96450000D01*
X84380000Y-96450000D01*
X84380000Y-96850000D01*
X83880001Y-96850000D01*
X83880000Y-96850001D01*
X83880000Y-97028795D01*
X83910742Y-97183349D01*
X83971048Y-97328940D01*
X83971052Y-97328949D01*
X84058599Y-97459969D01*
X84058602Y-97459973D01*
X84170026Y-97571397D01*
X84170030Y-97571400D01*
X84301050Y-97658947D01*
X84301059Y-97658951D01*
X84446644Y-97719254D01*
X84446655Y-97719258D01*
X84480000Y-97725890D01*
X84480000Y-97174265D01*
X84495795Y-97190060D01*
X84564204Y-97229556D01*
X84640504Y-97250000D01*
X84719496Y-97250000D01*
X84795796Y-97229556D01*
X84864205Y-97190060D01*
X84880000Y-97174265D01*
X84880000Y-97725889D01*
X84913344Y-97719258D01*
X84913355Y-97719254D01*
X85058940Y-97658951D01*
X85058949Y-97658947D01*
X85189969Y-97571400D01*
X85189973Y-97571397D01*
X85301397Y-97459973D01*
X85301400Y-97459969D01*
X85388947Y-97328949D01*
X85388951Y-97328940D01*
X85449257Y-97183349D01*
X85479999Y-97028795D01*
X85480000Y-97028792D01*
X85480000Y-96850001D01*
X85479999Y-96850000D01*
X84980000Y-96850000D01*
X84980000Y-96450000D01*
X85479999Y-96450000D01*
X85480000Y-96449999D01*
X85480000Y-96271207D01*
X85479999Y-96271204D01*
X92520000Y-96271204D01*
X92520000Y-96449999D01*
X92520001Y-96450000D01*
X93020000Y-96450000D01*
X93020000Y-96850000D01*
X92520001Y-96850000D01*
X92520000Y-96850001D01*
X92520000Y-97028795D01*
X92550742Y-97183349D01*
X92611048Y-97328940D01*
X92611052Y-97328949D01*
X92698599Y-97459969D01*
X92698602Y-97459973D01*
X92810026Y-97571397D01*
X92810030Y-97571400D01*
X92941050Y-97658947D01*
X92941059Y-97658951D01*
X93086644Y-97719254D01*
X93086655Y-97719258D01*
X93120000Y-97725890D01*
X93120000Y-97174265D01*
X93135795Y-97190060D01*
X93204204Y-97229556D01*
X93280504Y-97250000D01*
X93359496Y-97250000D01*
X93435796Y-97229556D01*
X93504205Y-97190060D01*
X93520000Y-97174265D01*
X93520000Y-97725889D01*
X93553344Y-97719258D01*
X93553355Y-97719254D01*
X93698940Y-97658951D01*
X93698949Y-97658947D01*
X93829969Y-97571400D01*
X93829973Y-97571397D01*
X93941397Y-97459973D01*
X93941400Y-97459969D01*
X94028947Y-97328949D01*
X94028951Y-97328940D01*
X94089257Y-97183349D01*
X94119999Y-97028795D01*
X94120000Y-97028792D01*
X94120000Y-96850001D01*
X94119999Y-96850000D01*
X93620000Y-96850000D01*
X93620000Y-96450000D01*
X94119999Y-96450000D01*
X94120000Y-96449999D01*
X94120000Y-96271207D01*
X94119999Y-96271204D01*
X94089257Y-96116650D01*
X94028951Y-95971059D01*
X94028947Y-95971050D01*
X93941400Y-95840030D01*
X93941397Y-95840026D01*
X93829973Y-95728602D01*
X93829969Y-95728599D01*
X93698949Y-95641052D01*
X93698940Y-95641048D01*
X93553349Y-95580742D01*
X93520000Y-95574109D01*
X93520000Y-96125735D01*
X93504205Y-96109940D01*
X93435796Y-96070444D01*
X93359496Y-96050000D01*
X93280504Y-96050000D01*
X93204204Y-96070444D01*
X93135795Y-96109940D01*
X93120000Y-96125735D01*
X93120000Y-95574109D01*
X93086650Y-95580742D01*
X92941059Y-95641048D01*
X92941050Y-95641052D01*
X92810030Y-95728599D01*
X92810026Y-95728602D01*
X92698602Y-95840026D01*
X92698599Y-95840030D01*
X92611052Y-95971050D01*
X92611048Y-95971059D01*
X92550742Y-96116650D01*
X92520000Y-96271204D01*
X85479999Y-96271204D01*
X85449257Y-96116650D01*
X85388951Y-95971059D01*
X85388947Y-95971050D01*
X85301400Y-95840030D01*
X85301397Y-95840026D01*
X85189973Y-95728602D01*
X85189969Y-95728599D01*
X85058949Y-95641052D01*
X85058940Y-95641048D01*
X84913349Y-95580742D01*
X84880000Y-95574109D01*
X84880000Y-96125735D01*
X84864205Y-96109940D01*
X84795796Y-96070444D01*
X84719496Y-96050000D01*
X84640504Y-96050000D01*
X84564204Y-96070444D01*
X84495795Y-96109940D01*
X84480000Y-96125735D01*
X84480000Y-95574109D01*
X84446650Y-95580742D01*
X84301059Y-95641048D01*
X84301050Y-95641052D01*
X84170030Y-95728599D01*
X84170026Y-95728602D01*
X84058602Y-95840026D01*
X84058599Y-95840030D01*
X83971052Y-95971050D01*
X83971048Y-95971059D01*
X83910742Y-96116650D01*
X83880000Y-96271204D01*
X82304956Y-96271204D01*
X82393475Y-96226101D01*
X82542529Y-96117807D01*
X82672807Y-95987529D01*
X82781101Y-95838475D01*
X82864745Y-95674316D01*
X82921678Y-95499093D01*
X82950500Y-95317120D01*
X82950500Y-94682880D01*
X82950500Y-94682878D01*
X82950500Y-94682876D01*
X82931285Y-94561564D01*
X82921678Y-94500907D01*
X82864745Y-94325684D01*
X82781101Y-94161525D01*
X82672807Y-94012471D01*
X82542529Y-93882193D01*
X82393475Y-93773899D01*
X82393474Y-93773898D01*
X82393472Y-93773897D01*
X82229312Y-93690253D01*
X82054090Y-93633321D01*
X81872123Y-93604500D01*
X81872120Y-93604500D01*
X81687880Y-93604500D01*
X81687877Y-93604500D01*
X81505909Y-93633321D01*
X81380092Y-93674201D01*
X81318907Y-93674200D01*
X81269407Y-93638236D01*
X81250500Y-93580046D01*
X81250500Y-93140692D01*
X81219799Y-93026114D01*
X81219799Y-93026112D01*
X81160492Y-92923390D01*
X81160490Y-92923388D01*
X81160489Y-92923386D01*
X80078307Y-91841204D01*
X83880000Y-91841204D01*
X83880000Y-92269999D01*
X83880001Y-92270000D01*
X84380000Y-92270000D01*
X84380000Y-92670000D01*
X83880001Y-92670000D01*
X83880000Y-92670001D01*
X83880000Y-93098795D01*
X83910742Y-93253349D01*
X83971048Y-93398940D01*
X83971052Y-93398949D01*
X84058599Y-93529969D01*
X84058602Y-93529973D01*
X84170026Y-93641397D01*
X84170030Y-93641400D01*
X84301050Y-93728947D01*
X84301059Y-93728951D01*
X84446644Y-93789254D01*
X84446655Y-93789258D01*
X84480000Y-93795890D01*
X84480000Y-93244265D01*
X84495795Y-93260060D01*
X84564204Y-93299556D01*
X84640504Y-93320000D01*
X84719496Y-93320000D01*
X84795796Y-93299556D01*
X84864205Y-93260060D01*
X84880000Y-93244265D01*
X84880000Y-93795889D01*
X84913344Y-93789258D01*
X84913355Y-93789254D01*
X85058940Y-93728951D01*
X85058949Y-93728947D01*
X85189969Y-93641400D01*
X85189973Y-93641397D01*
X85301397Y-93529973D01*
X85301400Y-93529969D01*
X85388947Y-93398949D01*
X85388953Y-93398937D01*
X85431953Y-93295125D01*
X85471689Y-93248599D01*
X85531184Y-93234315D01*
X85587712Y-93257729D01*
X85609153Y-93283510D01*
X85649481Y-93353360D01*
X85649483Y-93353362D01*
X85649485Y-93353365D01*
X85756635Y-93460515D01*
X85756637Y-93460516D01*
X85756639Y-93460518D01*
X85887861Y-93536279D01*
X85887859Y-93536279D01*
X85887863Y-93536280D01*
X85887865Y-93536281D01*
X86034234Y-93575500D01*
X86034236Y-93575500D01*
X86185764Y-93575500D01*
X86185766Y-93575500D01*
X86332135Y-93536281D01*
X86332137Y-93536279D01*
X86332139Y-93536279D01*
X86463360Y-93460518D01*
X86463360Y-93460517D01*
X86463365Y-93460515D01*
X86570515Y-93353365D01*
X86587822Y-93323389D01*
X86646279Y-93222139D01*
X86646279Y-93222137D01*
X86646281Y-93222135D01*
X86685500Y-93075766D01*
X86685500Y-92924234D01*
X91314500Y-92924234D01*
X91314500Y-93075766D01*
X91331897Y-93140692D01*
X91353720Y-93222139D01*
X91429481Y-93353360D01*
X91429483Y-93353362D01*
X91429485Y-93353365D01*
X91536635Y-93460515D01*
X91536637Y-93460516D01*
X91536639Y-93460518D01*
X91667861Y-93536279D01*
X91667859Y-93536279D01*
X91667863Y-93536280D01*
X91667865Y-93536281D01*
X91814234Y-93575500D01*
X91814236Y-93575500D01*
X91965764Y-93575500D01*
X91965766Y-93575500D01*
X92112135Y-93536281D01*
X92112137Y-93536279D01*
X92112139Y-93536279D01*
X92243360Y-93460518D01*
X92243360Y-93460517D01*
X92243365Y-93460515D01*
X92350515Y-93353365D01*
X92390847Y-93283508D01*
X92436315Y-93242569D01*
X92497165Y-93236173D01*
X92550153Y-93266766D01*
X92568046Y-93295124D01*
X92611048Y-93398940D01*
X92611052Y-93398949D01*
X92698599Y-93529969D01*
X92698602Y-93529973D01*
X92810026Y-93641397D01*
X92810030Y-93641400D01*
X92941050Y-93728947D01*
X92941059Y-93728951D01*
X93086644Y-93789254D01*
X93086655Y-93789258D01*
X93120000Y-93795890D01*
X93120000Y-93244265D01*
X93135795Y-93260060D01*
X93204204Y-93299556D01*
X93280504Y-93320000D01*
X93359496Y-93320000D01*
X93435796Y-93299556D01*
X93504205Y-93260060D01*
X93520000Y-93244265D01*
X93520000Y-93795889D01*
X93553344Y-93789258D01*
X93553355Y-93789254D01*
X93698940Y-93728951D01*
X93698949Y-93728947D01*
X93829969Y-93641400D01*
X93829973Y-93641397D01*
X93941397Y-93529973D01*
X93941400Y-93529969D01*
X94028947Y-93398949D01*
X94028951Y-93398940D01*
X94089257Y-93253349D01*
X94119999Y-93098795D01*
X94120000Y-93098792D01*
X94120000Y-92670001D01*
X94119999Y-92670000D01*
X93620000Y-92670000D01*
X93620000Y-92270000D01*
X94119999Y-92270000D01*
X94120000Y-92269999D01*
X94120000Y-91841207D01*
X94119999Y-91841204D01*
X94089257Y-91686650D01*
X94028951Y-91541059D01*
X94028947Y-91541050D01*
X93941400Y-91410030D01*
X93941397Y-91410026D01*
X93829973Y-91298602D01*
X93829969Y-91298599D01*
X93698949Y-91211052D01*
X93698940Y-91211048D01*
X93553349Y-91150742D01*
X93520000Y-91144109D01*
X93520000Y-91695735D01*
X93504205Y-91679940D01*
X93435796Y-91640444D01*
X93359496Y-91620000D01*
X93280504Y-91620000D01*
X93204204Y-91640444D01*
X93135795Y-91679940D01*
X93120000Y-91695735D01*
X93120000Y-91144109D01*
X93086650Y-91150742D01*
X92941059Y-91211048D01*
X92941050Y-91211052D01*
X92810030Y-91298599D01*
X92810026Y-91298602D01*
X92698602Y-91410026D01*
X92698599Y-91410030D01*
X92611052Y-91541050D01*
X92611048Y-91541059D01*
X92550742Y-91686650D01*
X92520000Y-91841204D01*
X92520000Y-92269999D01*
X92520001Y-92270000D01*
X93020000Y-92270000D01*
X93020000Y-92670000D01*
X92520000Y-92670000D01*
X92512333Y-92677667D01*
X92457816Y-92705443D01*
X92397384Y-92695871D01*
X92356595Y-92657164D01*
X92350518Y-92646639D01*
X92350516Y-92646637D01*
X92350515Y-92646635D01*
X92243365Y-92539485D01*
X92243362Y-92539483D01*
X92243360Y-92539481D01*
X92112138Y-92463720D01*
X92112140Y-92463720D01*
X92055347Y-92448503D01*
X91965766Y-92424500D01*
X91814234Y-92424500D01*
X91724652Y-92448503D01*
X91667860Y-92463720D01*
X91536639Y-92539481D01*
X91429481Y-92646639D01*
X91353720Y-92777860D01*
X91353719Y-92777865D01*
X91314500Y-92924234D01*
X86685500Y-92924234D01*
X86646281Y-92777865D01*
X86646279Y-92777862D01*
X86646279Y-92777860D01*
X86570518Y-92646639D01*
X86570516Y-92646637D01*
X86570515Y-92646635D01*
X86463365Y-92539485D01*
X86463362Y-92539483D01*
X86463360Y-92539481D01*
X86332138Y-92463720D01*
X86332140Y-92463720D01*
X86275347Y-92448503D01*
X86185766Y-92424500D01*
X86034234Y-92424500D01*
X85944652Y-92448503D01*
X85887860Y-92463720D01*
X85756639Y-92539481D01*
X85649481Y-92646639D01*
X85643402Y-92657168D01*
X85597930Y-92698106D01*
X85537079Y-92704497D01*
X85487665Y-92677666D01*
X85479999Y-92670000D01*
X84980000Y-92670000D01*
X84980000Y-92270000D01*
X85479999Y-92270000D01*
X85480000Y-92269999D01*
X85480000Y-91841207D01*
X85479999Y-91841204D01*
X85449257Y-91686650D01*
X85388951Y-91541059D01*
X85388947Y-91541050D01*
X85301400Y-91410030D01*
X85301397Y-91410026D01*
X85189973Y-91298602D01*
X85189969Y-91298599D01*
X85058949Y-91211052D01*
X85058940Y-91211048D01*
X84913349Y-91150742D01*
X84880000Y-91144109D01*
X84880000Y-91695735D01*
X84864205Y-91679940D01*
X84795796Y-91640444D01*
X84719496Y-91620000D01*
X84640504Y-91620000D01*
X84564204Y-91640444D01*
X84495795Y-91679940D01*
X84480000Y-91695735D01*
X84480000Y-91144109D01*
X84446650Y-91150742D01*
X84301059Y-91211048D01*
X84301050Y-91211052D01*
X84170030Y-91298599D01*
X84170026Y-91298602D01*
X84058602Y-91410026D01*
X84058599Y-91410030D01*
X83971052Y-91541050D01*
X83971048Y-91541059D01*
X83910742Y-91686650D01*
X83880000Y-91841204D01*
X80078307Y-91841204D01*
X78995147Y-90758044D01*
X78967372Y-90703530D01*
X78976943Y-90643098D01*
X79020208Y-90599833D01*
X79080640Y-90590262D01*
X79090775Y-90592416D01*
X79120943Y-90600500D01*
X79120944Y-90600500D01*
X79279055Y-90600500D01*
X79279057Y-90600500D01*
X79431784Y-90559577D01*
X79568716Y-90480520D01*
X79680520Y-90368716D01*
X79759577Y-90231784D01*
X79800500Y-90079057D01*
X79800500Y-89920943D01*
X79759577Y-89768216D01*
X79680520Y-89631284D01*
X79680517Y-89631281D01*
X79680516Y-89631279D01*
X79679490Y-89630253D01*
X79679016Y-89629324D01*
X79676569Y-89626134D01*
X79677160Y-89625680D01*
X79651717Y-89575734D01*
X79650500Y-89560256D01*
X79650500Y-84039743D01*
X79669407Y-83981552D01*
X79679490Y-83969745D01*
X79680520Y-83968716D01*
X79759577Y-83831784D01*
X79800500Y-83679057D01*
X79800500Y-83520943D01*
X79759577Y-83368216D01*
X79680520Y-83231284D01*
X79568716Y-83119480D01*
X79431784Y-83040423D01*
X79279057Y-82999500D01*
X79120943Y-82999500D01*
X78968216Y-83040423D01*
X78831284Y-83119480D01*
X78719480Y-83231284D01*
X78640423Y-83368216D01*
X78599500Y-83520943D01*
X78599500Y-83679057D01*
X78640423Y-83831784D01*
X78719480Y-83968716D01*
X78720505Y-83969741D01*
X78720977Y-83970668D01*
X78723431Y-83973866D01*
X78722838Y-83974320D01*
X78748281Y-84024256D01*
X78749500Y-84039743D01*
X78749500Y-89560256D01*
X78730593Y-89618447D01*
X78720510Y-89630253D01*
X78719483Y-89631279D01*
X78719480Y-89631283D01*
X78719480Y-89631284D01*
X78640423Y-89768216D01*
X78599500Y-89920943D01*
X78599500Y-90079057D01*
X78602710Y-90091036D01*
X78607583Y-90109222D01*
X78604380Y-90170324D01*
X78565875Y-90217874D01*
X78506774Y-90233709D01*
X78449653Y-90211782D01*
X78441952Y-90204849D01*
X75829496Y-87592393D01*
X75801719Y-87537876D01*
X75800500Y-87522389D01*
X75800500Y-87520944D01*
X75796436Y-87505776D01*
X75759577Y-87368216D01*
X75680520Y-87231284D01*
X75568716Y-87119480D01*
X75431784Y-87040423D01*
X75279057Y-86999500D01*
X75120943Y-86999500D01*
X74968216Y-87040423D01*
X74831284Y-87119480D01*
X74719480Y-87231284D01*
X74640423Y-87368216D01*
X74640422Y-87368218D01*
X74637179Y-87373836D01*
X74635752Y-87373012D01*
X74601225Y-87413437D01*
X74541730Y-87427719D01*
X74485202Y-87404302D01*
X74453235Y-87352132D01*
X74450500Y-87329024D01*
X74450500Y-83827611D01*
X74469407Y-83769420D01*
X74479496Y-83757607D01*
X85607607Y-72629496D01*
X85662124Y-72601719D01*
X85677611Y-72600500D01*
X85679055Y-72600500D01*
X85679057Y-72600500D01*
X85831784Y-72559577D01*
X85968716Y-72480520D01*
X86080520Y-72368716D01*
X86159577Y-72231784D01*
X86200500Y-72079057D01*
X86200500Y-71920943D01*
X86159577Y-71768216D01*
X86080520Y-71631284D01*
X85968716Y-71519480D01*
X85831784Y-71440423D01*
X85679057Y-71399500D01*
X85520943Y-71399500D01*
X85368216Y-71440423D01*
X85231284Y-71519480D01*
X85119480Y-71631284D01*
X85040423Y-71768216D01*
X84999500Y-71920944D01*
X84999500Y-71922389D01*
X84999180Y-71923373D01*
X84998653Y-71927377D01*
X84997911Y-71927279D01*
X84980593Y-71980580D01*
X84970504Y-71992393D01*
X78330510Y-78632386D01*
X78275993Y-78660163D01*
X78215561Y-78650592D01*
X78172296Y-78607327D01*
X78164879Y-78588005D01*
X78159577Y-78568216D01*
X78080520Y-78431284D01*
X78080517Y-78431281D01*
X78080516Y-78431279D01*
X78079490Y-78430253D01*
X78079016Y-78429324D01*
X78076569Y-78426134D01*
X78077160Y-78425680D01*
X78051717Y-78375734D01*
X78050500Y-78360256D01*
X78050500Y-76839743D01*
X78069407Y-76781552D01*
X78079490Y-76769745D01*
X78080520Y-76768716D01*
X78159577Y-76631784D01*
X78200500Y-76479057D01*
X78200500Y-76320943D01*
X78159577Y-76168216D01*
X78080520Y-76031284D01*
X77968716Y-75919480D01*
X77831784Y-75840423D01*
X77679057Y-75799500D01*
X77520943Y-75799500D01*
X77368216Y-75840423D01*
X77231284Y-75919480D01*
X77119480Y-76031284D01*
X77040423Y-76168216D01*
X76999500Y-76320943D01*
X76999500Y-76479057D01*
X77040423Y-76631784D01*
X77119480Y-76768716D01*
X77120505Y-76769741D01*
X77120977Y-76770668D01*
X77123431Y-76773866D01*
X77122838Y-76774320D01*
X77148281Y-76824256D01*
X77149500Y-76839743D01*
X77149500Y-78360256D01*
X77130593Y-78418447D01*
X77120510Y-78430253D01*
X77119483Y-78431279D01*
X77119480Y-78431283D01*
X77119480Y-78431284D01*
X77040423Y-78568216D01*
X76999500Y-78720943D01*
X76999500Y-78879057D01*
X77040423Y-79031784D01*
X77119480Y-79168716D01*
X77231284Y-79280520D01*
X77368216Y-79359577D01*
X77388006Y-79364879D01*
X77439320Y-79398203D01*
X77461246Y-79455325D01*
X77445410Y-79514425D01*
X77432386Y-79530510D01*
X73639508Y-83323389D01*
X73639507Y-83323390D01*
X73580200Y-83426112D01*
X73580200Y-83426113D01*
X73580201Y-83426114D01*
X73554792Y-83520943D01*
X73549500Y-83540692D01*
X73549500Y-93721294D01*
X73530593Y-93779485D01*
X73508691Y-93801387D01*
X73397472Y-93882192D01*
X73267192Y-94012472D01*
X73158897Y-94161527D01*
X73075253Y-94325687D01*
X73018321Y-94500909D01*
X72989500Y-94682876D01*
X72790500Y-94682876D01*
X72771285Y-94561564D01*
X72761678Y-94500907D01*
X72704745Y-94325684D01*
X72621101Y-94161525D01*
X72512807Y-94012471D01*
X72382529Y-93882193D01*
X72242071Y-93780144D01*
X72233471Y-93773896D01*
X72233469Y-93773895D01*
X72104554Y-93708209D01*
X72061290Y-93664945D01*
X72050500Y-93620000D01*
X72050500Y-79027611D01*
X72069407Y-78969420D01*
X72079496Y-78957607D01*
X74007607Y-77029496D01*
X74062124Y-77001719D01*
X74077611Y-77000500D01*
X74079055Y-77000500D01*
X74079057Y-77000500D01*
X74231784Y-76959577D01*
X74368716Y-76880520D01*
X74480520Y-76768716D01*
X74514264Y-76710269D01*
X74520670Y-76704500D01*
X74523862Y-76696492D01*
X74542953Y-76684436D01*
X74559733Y-76669328D01*
X74568306Y-76668426D01*
X74575596Y-76663824D01*
X74598125Y-76665292D01*
X74620583Y-76662932D01*
X74628050Y-76667243D01*
X74636652Y-76667804D01*
X74651959Y-76681047D01*
X74673571Y-76693525D01*
X74683708Y-76706911D01*
X74684748Y-76708559D01*
X74719480Y-76768716D01*
X74728312Y-76777548D01*
X74734208Y-76786885D01*
X74739160Y-76806354D01*
X74748281Y-76824256D01*
X74749500Y-76839743D01*
X74749500Y-78360256D01*
X74730593Y-78418447D01*
X74720510Y-78430253D01*
X74719483Y-78431279D01*
X74719480Y-78431283D01*
X74719480Y-78431284D01*
X74640423Y-78568216D01*
X74599500Y-78720943D01*
X74599500Y-78879057D01*
X74640423Y-79031784D01*
X74719480Y-79168716D01*
X74831284Y-79280520D01*
X74968216Y-79359577D01*
X75120943Y-79400500D01*
X75120945Y-79400500D01*
X75279055Y-79400500D01*
X75279057Y-79400500D01*
X75431784Y-79359577D01*
X75550502Y-79291035D01*
X75610349Y-79278315D01*
X75649496Y-79291034D01*
X75768216Y-79359577D01*
X75920943Y-79400500D01*
X75920945Y-79400500D01*
X76079055Y-79400500D01*
X76079057Y-79400500D01*
X76231784Y-79359577D01*
X76368716Y-79280520D01*
X76480520Y-79168716D01*
X76559577Y-79031784D01*
X76600500Y-78879057D01*
X76600500Y-78720943D01*
X76559577Y-78568216D01*
X76480520Y-78431284D01*
X76480517Y-78431281D01*
X76480516Y-78431279D01*
X76479490Y-78430253D01*
X76479016Y-78429324D01*
X76476569Y-78426134D01*
X76477160Y-78425680D01*
X76451717Y-78375734D01*
X76450500Y-78360256D01*
X76450500Y-76227611D01*
X76469407Y-76169420D01*
X76479496Y-76157607D01*
X97607607Y-55029496D01*
X97658179Y-55002426D01*
X97667800Y-55000500D01*
X97679057Y-55000500D01*
X97712306Y-54991590D01*
X97715413Y-54990969D01*
X97742796Y-54994176D01*
X97770322Y-54995618D01*
X97772894Y-54997700D01*
X97776183Y-54998086D01*
X97796452Y-55016777D01*
X97817872Y-55034122D01*
X97818728Y-55037319D01*
X97821163Y-55039564D01*
X97826574Y-55066599D01*
X97833709Y-55093222D01*
X97832522Y-55096312D01*
X97833173Y-55099560D01*
X97821659Y-55124614D01*
X97811784Y-55150344D01*
X97807805Y-55154762D01*
X97807625Y-55155156D01*
X97807274Y-55155352D01*
X97804849Y-55158047D01*
X86839508Y-66123389D01*
X86839507Y-66123390D01*
X86780200Y-66226112D01*
X86780200Y-66226113D01*
X86780201Y-66226114D01*
X86754417Y-66322343D01*
X86749500Y-66340692D01*
X86749500Y-78360256D01*
X86730593Y-78418447D01*
X86720510Y-78430253D01*
X86719483Y-78431279D01*
X86719480Y-78431283D01*
X86719480Y-78431284D01*
X86640423Y-78568216D01*
X86599500Y-78720943D01*
X86599500Y-78879057D01*
X86620524Y-78957518D01*
X86617321Y-79018619D01*
X86578816Y-79066169D01*
X86519716Y-79082005D01*
X86462594Y-79060078D01*
X86454893Y-79053145D01*
X83829496Y-76427748D01*
X83801719Y-76373231D01*
X83800500Y-76357744D01*
X83800500Y-76320944D01*
X83800500Y-76320943D01*
X83759577Y-76168216D01*
X83680520Y-76031284D01*
X83568716Y-75919480D01*
X83431784Y-75840423D01*
X83279057Y-75799500D01*
X83120943Y-75799500D01*
X82968216Y-75840423D01*
X82831284Y-75919480D01*
X82719480Y-76031284D01*
X82640423Y-76168216D01*
X82599500Y-76320943D01*
X82599500Y-76479057D01*
X82640423Y-76631784D01*
X82719480Y-76768716D01*
X82831284Y-76880520D01*
X82968216Y-76959577D01*
X83120943Y-77000500D01*
X83157744Y-77000500D01*
X83215935Y-77019407D01*
X83227748Y-77029496D01*
X87370504Y-81172252D01*
X87398281Y-81226769D01*
X87399500Y-81242256D01*
X87399500Y-81279057D01*
X87440423Y-81431784D01*
X87519480Y-81568716D01*
X87545505Y-81594741D01*
X87573281Y-81649256D01*
X87574500Y-81664743D01*
X87574500Y-84551374D01*
X87555593Y-84609565D01*
X87506093Y-84645529D01*
X87444907Y-84645529D01*
X87437615Y-84642838D01*
X87431789Y-84640424D01*
X87372529Y-84624545D01*
X87279057Y-84599500D01*
X87120943Y-84599500D01*
X86968216Y-84640423D01*
X86831284Y-84719480D01*
X86719480Y-84831284D01*
X86640423Y-84968216D01*
X86599500Y-85120943D01*
X86599500Y-85279057D01*
X86640423Y-85431784D01*
X86686237Y-85511136D01*
X86699500Y-85560636D01*
X86699500Y-87239363D01*
X86686237Y-87288862D01*
X86640423Y-87368214D01*
X86616624Y-87457035D01*
X86599500Y-87520943D01*
X86599500Y-87679057D01*
X86640423Y-87831784D01*
X86719480Y-87968716D01*
X86831284Y-88080520D01*
X86968216Y-88159577D01*
X87120943Y-88200500D01*
X87120945Y-88200500D01*
X87279055Y-88200500D01*
X87279057Y-88200500D01*
X87431784Y-88159577D01*
X87568716Y-88080520D01*
X87680520Y-87968716D01*
X87759577Y-87831784D01*
X87779873Y-87756034D01*
X87813197Y-87704722D01*
X87870319Y-87682795D01*
X87929419Y-87698631D01*
X87967924Y-87746180D01*
X87974500Y-87781659D01*
X87974500Y-88951374D01*
X87955593Y-89009565D01*
X87906093Y-89045529D01*
X87844907Y-89045529D01*
X87837615Y-89042838D01*
X87831789Y-89040424D01*
X87753351Y-89019407D01*
X87679057Y-88999500D01*
X87679055Y-88999500D01*
X87642256Y-88999500D01*
X87584065Y-88980593D01*
X87572252Y-88970504D01*
X87322691Y-88720943D01*
X87061263Y-88459515D01*
X87061260Y-88459513D01*
X86964240Y-88403498D01*
X86964242Y-88403498D01*
X86922251Y-88392247D01*
X86856018Y-88374500D01*
X86856016Y-88374500D01*
X86464744Y-88374500D01*
X86406553Y-88355593D01*
X86394742Y-88345505D01*
X86368718Y-88319482D01*
X86368716Y-88319480D01*
X86231784Y-88240423D01*
X86079057Y-88199500D01*
X85920943Y-88199500D01*
X85768216Y-88240423D01*
X85631284Y-88319480D01*
X85519480Y-88431284D01*
X85440423Y-88568216D01*
X85399500Y-88720943D01*
X85399500Y-88879057D01*
X85440423Y-89031784D01*
X85519480Y-89168716D01*
X85631284Y-89280520D01*
X85768216Y-89359577D01*
X85920943Y-89400500D01*
X85920945Y-89400500D01*
X86079055Y-89400500D01*
X86079057Y-89400500D01*
X86231784Y-89359577D01*
X86368716Y-89280520D01*
X86381730Y-89267506D01*
X86394742Y-89254495D01*
X86401857Y-89250869D01*
X86406553Y-89244407D01*
X86428605Y-89237241D01*
X86449259Y-89226719D01*
X86464744Y-89225500D01*
X86582744Y-89225500D01*
X86640935Y-89244407D01*
X86652748Y-89254496D01*
X86970504Y-89572252D01*
X86998281Y-89626769D01*
X86999500Y-89642256D01*
X86999500Y-89679057D01*
X87040423Y-89831784D01*
X87119480Y-89968716D01*
X87231284Y-90080520D01*
X87368216Y-90159577D01*
X87520943Y-90200500D01*
X87520945Y-90200500D01*
X87679055Y-90200500D01*
X87679057Y-90200500D01*
X87831784Y-90159577D01*
X87950502Y-90091035D01*
X88010349Y-90078315D01*
X88049496Y-90091034D01*
X88168216Y-90159577D01*
X88320943Y-90200500D01*
X88320945Y-90200500D01*
X88479055Y-90200500D01*
X88479057Y-90200500D01*
X88631784Y-90159577D01*
X88768716Y-90080520D01*
X88880520Y-89968716D01*
X88914264Y-89910269D01*
X88959733Y-89869328D01*
X89020583Y-89862932D01*
X89073571Y-89893525D01*
X89085734Y-89910266D01*
X89119480Y-89968716D01*
X89231284Y-90080520D01*
X89368216Y-90159577D01*
X89520943Y-90200500D01*
X89520945Y-90200500D01*
X89679055Y-90200500D01*
X89679057Y-90200500D01*
X89831784Y-90159577D01*
X89968716Y-90080520D01*
X90080520Y-89968716D01*
X90159577Y-89831784D01*
X90200500Y-89679057D01*
X90200500Y-89520943D01*
X90159577Y-89368216D01*
X90080520Y-89231284D01*
X90074736Y-89225500D01*
X90054495Y-89205258D01*
X90026719Y-89150741D01*
X90025500Y-89135256D01*
X90025500Y-85890815D01*
X90044407Y-85832624D01*
X90093907Y-85796660D01*
X90098832Y-85795201D01*
X90231784Y-85759577D01*
X90368716Y-85680520D01*
X90480520Y-85568716D01*
X90559577Y-85431784D01*
X90600500Y-85279057D01*
X90600500Y-85120943D01*
X90559577Y-84968216D01*
X90480520Y-84831284D01*
X90368716Y-84719480D01*
X90231784Y-84640423D01*
X90079057Y-84599500D01*
X89920943Y-84599500D01*
X89768216Y-84640423D01*
X89631284Y-84719480D01*
X89519480Y-84831284D01*
X89440423Y-84968216D01*
X89426681Y-85019504D01*
X89399500Y-85120944D01*
X89399500Y-85157744D01*
X89380593Y-85215935D01*
X89370504Y-85227748D01*
X89338737Y-85259515D01*
X89338736Y-85259514D01*
X89259514Y-85338737D01*
X89203498Y-85435758D01*
X89203497Y-85435763D01*
X89177146Y-85534109D01*
X89174500Y-85543983D01*
X89174500Y-89135256D01*
X89155871Y-89193061D01*
X89151178Y-89199585D01*
X89119480Y-89231284D01*
X89083263Y-89294012D01*
X89080371Y-89298035D01*
X89059504Y-89313348D01*
X89040267Y-89330671D01*
X89035172Y-89331206D01*
X89031045Y-89334236D01*
X89005163Y-89334360D01*
X88979417Y-89337067D01*
X88974981Y-89334506D01*
X88969860Y-89334531D01*
X88948843Y-89319415D01*
X88926429Y-89306474D01*
X88921589Y-89299813D01*
X88920188Y-89298805D01*
X88919630Y-89297116D01*
X88914264Y-89289730D01*
X88880520Y-89231283D01*
X88854495Y-89205258D01*
X88826719Y-89150741D01*
X88825500Y-89135256D01*
X88825500Y-85543983D01*
X88825500Y-85543982D01*
X88796503Y-85435763D01*
X88796501Y-85435760D01*
X88796501Y-85435758D01*
X88740485Y-85338737D01*
X88661263Y-85259514D01*
X88661263Y-85259515D01*
X88629496Y-85227748D01*
X88601719Y-85173231D01*
X88600500Y-85157744D01*
X88600500Y-85120944D01*
X88600500Y-85120943D01*
X88559577Y-84968216D01*
X88480520Y-84831284D01*
X88480304Y-84831068D01*
X88454495Y-84805258D01*
X88426719Y-84750741D01*
X88425500Y-84735256D01*
X88425500Y-81664743D01*
X88444407Y-81606552D01*
X88454490Y-81594745D01*
X88480520Y-81568716D01*
X88559577Y-81431784D01*
X88600500Y-81279057D01*
X88600500Y-81120943D01*
X88559577Y-80968216D01*
X88480520Y-80831284D01*
X88368716Y-80719480D01*
X88231784Y-80640423D01*
X88079057Y-80599500D01*
X88079055Y-80599500D01*
X88042256Y-80599500D01*
X87984065Y-80580593D01*
X87972252Y-80570504D01*
X86946854Y-79545106D01*
X86919077Y-79490589D01*
X86928648Y-79430157D01*
X86971913Y-79386892D01*
X87032345Y-79377321D01*
X87042473Y-79379474D01*
X87120943Y-79400500D01*
X87120944Y-79400500D01*
X87279055Y-79400500D01*
X87279057Y-79400500D01*
X87431784Y-79359577D01*
X87568716Y-79280520D01*
X87680520Y-79168716D01*
X87759577Y-79031784D01*
X87800500Y-78879057D01*
X87800500Y-78720943D01*
X87759577Y-78568216D01*
X87680520Y-78431284D01*
X87680517Y-78431281D01*
X87680516Y-78431279D01*
X87679490Y-78430253D01*
X87679016Y-78429324D01*
X87676569Y-78426134D01*
X87677160Y-78425680D01*
X87651717Y-78375734D01*
X87650500Y-78360256D01*
X87650500Y-76320943D01*
X88199500Y-76320943D01*
X88199500Y-76479057D01*
X88240423Y-76631784D01*
X88319480Y-76768716D01*
X88345505Y-76794741D01*
X88373281Y-76849256D01*
X88374500Y-76864743D01*
X88374500Y-78335256D01*
X88355593Y-78393447D01*
X88345505Y-78405258D01*
X88319482Y-78431281D01*
X88319480Y-78431283D01*
X88319480Y-78431284D01*
X88240423Y-78568216D01*
X88199500Y-78720943D01*
X88199500Y-78879057D01*
X88240423Y-79031784D01*
X88319480Y-79168716D01*
X88431284Y-79280520D01*
X88568216Y-79359577D01*
X88720943Y-79400500D01*
X88720945Y-79400500D01*
X88879055Y-79400500D01*
X88879057Y-79400500D01*
X89031784Y-79359577D01*
X89168716Y-79280520D01*
X89280520Y-79168716D01*
X89359577Y-79031784D01*
X89400500Y-78879057D01*
X89400500Y-78720943D01*
X89359577Y-78568216D01*
X89280520Y-78431284D01*
X89267683Y-78418447D01*
X89254495Y-78405258D01*
X89226719Y-78350741D01*
X89225500Y-78335256D01*
X89225500Y-76864743D01*
X89244407Y-76806552D01*
X89254490Y-76794745D01*
X89280520Y-76768716D01*
X89359577Y-76631784D01*
X89400500Y-76479057D01*
X89400500Y-76320943D01*
X89359577Y-76168216D01*
X89280520Y-76031284D01*
X89168716Y-75919480D01*
X89031784Y-75840423D01*
X88879057Y-75799500D01*
X88720943Y-75799500D01*
X88568216Y-75840423D01*
X88431284Y-75919480D01*
X88319480Y-76031284D01*
X88240423Y-76168216D01*
X88199500Y-76320943D01*
X87650500Y-76320943D01*
X87650500Y-66627610D01*
X87669407Y-66569419D01*
X87679490Y-66557612D01*
X90330209Y-63906893D01*
X112399500Y-63906893D01*
X112399500Y-66093106D01*
X112410123Y-66181565D01*
X112465637Y-66322339D01*
X112465638Y-66322341D01*
X112465639Y-66322342D01*
X112557078Y-66442922D01*
X112677658Y-66534361D01*
X112677659Y-66534361D01*
X112677660Y-66534362D01*
X112736603Y-66557606D01*
X112818436Y-66589877D01*
X112906898Y-66600500D01*
X112906900Y-66600500D01*
X115093100Y-66600500D01*
X115093102Y-66600500D01*
X115181564Y-66589877D01*
X115322342Y-66534361D01*
X115442922Y-66442922D01*
X115534361Y-66322342D01*
X115589877Y-66181564D01*
X115600500Y-66093102D01*
X115600500Y-63906898D01*
X115589877Y-63818436D01*
X115534361Y-63677658D01*
X115442922Y-63557078D01*
X115322342Y-63465639D01*
X115322341Y-63465638D01*
X115322339Y-63465637D01*
X115181565Y-63410123D01*
X115093106Y-63399500D01*
X115093102Y-63399500D01*
X112906898Y-63399500D01*
X112906893Y-63399500D01*
X112818434Y-63410123D01*
X112677660Y-63465637D01*
X112677656Y-63465640D01*
X112557081Y-63557075D01*
X112557075Y-63557081D01*
X112465640Y-63677656D01*
X112465637Y-63677660D01*
X112410123Y-63818434D01*
X112399500Y-63906893D01*
X90330209Y-63906893D01*
X98623931Y-55613170D01*
X98678446Y-55585395D01*
X98738878Y-55594966D01*
X98763933Y-55613169D01*
X98831284Y-55680520D01*
X98968216Y-55759577D01*
X99120943Y-55800500D01*
X99122389Y-55800500D01*
X99123373Y-55800819D01*
X99127377Y-55801347D01*
X99127279Y-55802088D01*
X99180580Y-55819407D01*
X99192393Y-55829496D01*
X102970504Y-59607607D01*
X102998281Y-59662124D01*
X102999500Y-59677611D01*
X102999500Y-59679057D01*
X103040423Y-59831784D01*
X103119480Y-59968716D01*
X103231284Y-60080520D01*
X103368216Y-60159577D01*
X103520943Y-60200500D01*
X103520945Y-60200500D01*
X103679055Y-60200500D01*
X103679057Y-60200500D01*
X103831784Y-60159577D01*
X103968716Y-60080520D01*
X104080520Y-59968716D01*
X104159577Y-59831784D01*
X104200500Y-59679057D01*
X104200500Y-59679054D01*
X104200975Y-59675448D01*
X104202096Y-59673096D01*
X104202179Y-59672789D01*
X104202235Y-59672804D01*
X104227316Y-59620223D01*
X104281087Y-59591029D01*
X104341749Y-59599015D01*
X104369128Y-59618364D01*
X104431284Y-59680520D01*
X104568216Y-59759577D01*
X104720943Y-59800500D01*
X104720945Y-59800500D01*
X104879055Y-59800500D01*
X104879057Y-59800500D01*
X104903043Y-59794073D01*
X112400000Y-59794073D01*
X112400000Y-60045926D01*
X112439395Y-60294663D01*
X112517221Y-60534187D01*
X112631556Y-60758582D01*
X112631560Y-60758588D01*
X112735503Y-60901652D01*
X113419668Y-60217486D01*
X113423978Y-60227890D01*
X113495112Y-60334351D01*
X113585649Y-60424888D01*
X113692110Y-60496022D01*
X113702510Y-60500330D01*
X113018346Y-61184494D01*
X113018346Y-61184495D01*
X113161411Y-61288439D01*
X113161417Y-61288443D01*
X113385812Y-61402778D01*
X113625336Y-61480604D01*
X113874074Y-61520000D01*
X114125926Y-61520000D01*
X114374663Y-61480604D01*
X114614187Y-61402778D01*
X114838582Y-61288443D01*
X114838587Y-61288439D01*
X114981652Y-61184495D01*
X114981652Y-61184494D01*
X114297488Y-60500330D01*
X114307890Y-60496022D01*
X114414351Y-60424888D01*
X114504888Y-60334351D01*
X114576022Y-60227890D01*
X114580330Y-60217488D01*
X115264494Y-60901652D01*
X115264495Y-60901652D01*
X115368439Y-60758587D01*
X115368443Y-60758582D01*
X115482778Y-60534187D01*
X115560604Y-60294663D01*
X115600000Y-60045926D01*
X115600000Y-59794073D01*
X115560604Y-59545336D01*
X115482778Y-59305812D01*
X115368443Y-59081417D01*
X115368439Y-59081411D01*
X115264495Y-58938346D01*
X115264494Y-58938346D01*
X114580330Y-59622510D01*
X114576022Y-59612110D01*
X114504888Y-59505649D01*
X114414351Y-59415112D01*
X114307890Y-59343978D01*
X114297486Y-59339668D01*
X114981652Y-58655503D01*
X114838588Y-58551560D01*
X114838582Y-58551556D01*
X114614187Y-58437221D01*
X114374663Y-58359395D01*
X114125926Y-58320000D01*
X113874074Y-58320000D01*
X113625336Y-58359395D01*
X113385812Y-58437221D01*
X113161419Y-58551555D01*
X113018347Y-58655504D01*
X113702512Y-59339669D01*
X113692110Y-59343978D01*
X113585649Y-59415112D01*
X113495112Y-59505649D01*
X113423978Y-59612110D01*
X113419669Y-59622512D01*
X112735504Y-58938347D01*
X112631555Y-59081419D01*
X112517221Y-59305812D01*
X112439395Y-59545336D01*
X112400000Y-59794073D01*
X104903043Y-59794073D01*
X105031784Y-59759577D01*
X105168716Y-59680520D01*
X105280520Y-59568716D01*
X105359577Y-59431784D01*
X105400500Y-59279057D01*
X105400500Y-59120943D01*
X105359577Y-58968216D01*
X105280520Y-58831284D01*
X105168716Y-58719480D01*
X105031784Y-58640423D01*
X104879057Y-58599500D01*
X104879055Y-58599500D01*
X104877611Y-58599500D01*
X104876626Y-58599180D01*
X104872623Y-58598653D01*
X104872720Y-58597911D01*
X104819420Y-58580593D01*
X104807607Y-58570504D01*
X103795150Y-57558047D01*
X103767373Y-57503530D01*
X103776944Y-57443098D01*
X103820209Y-57399833D01*
X103880641Y-57390262D01*
X103890772Y-57392415D01*
X103920943Y-57400500D01*
X103920944Y-57400500D01*
X104079055Y-57400500D01*
X104079057Y-57400500D01*
X104231784Y-57359577D01*
X104368716Y-57280520D01*
X104480520Y-57168716D01*
X104559577Y-57031784D01*
X104600500Y-56879057D01*
X104600500Y-56720943D01*
X104559577Y-56568216D01*
X104480520Y-56431284D01*
X104368716Y-56319480D01*
X104231784Y-56240423D01*
X104079057Y-56199500D01*
X104079055Y-56199500D01*
X104077611Y-56199500D01*
X104076626Y-56199180D01*
X104072623Y-56198653D01*
X104072720Y-56197911D01*
X104019420Y-56180593D01*
X104007607Y-56170504D01*
X102556583Y-54719480D01*
X101076614Y-53239511D01*
X101076611Y-53239509D01*
X101076610Y-53239508D01*
X101076609Y-53239507D01*
X100973890Y-53180202D01*
X100973886Y-53180200D01*
X100949673Y-53173712D01*
X100949673Y-53173713D01*
X100859309Y-53149500D01*
X100859307Y-53149500D01*
X94257054Y-53149500D01*
X94198863Y-53130593D01*
X94162899Y-53081093D01*
X94161427Y-53024879D01*
X94200500Y-52879057D01*
X94200500Y-52720943D01*
X94159577Y-52568216D01*
X94080520Y-52431284D01*
X94071032Y-52421796D01*
X94064828Y-52411556D01*
X94060438Y-52392853D01*
X94051717Y-52375734D01*
X94050500Y-52360256D01*
X94050500Y-51397684D01*
X99700000Y-51397684D01*
X99700000Y-51602315D01*
X99732008Y-51804412D01*
X99795243Y-51999027D01*
X99888139Y-52181348D01*
X99888143Y-52181354D01*
X99950279Y-52266876D01*
X100493843Y-51723311D01*
X100559890Y-51837708D01*
X100662292Y-51940110D01*
X100776686Y-52006154D01*
X100233122Y-52549718D01*
X100233122Y-52549719D01*
X100318645Y-52611856D01*
X100318651Y-52611860D01*
X100500972Y-52704756D01*
X100695587Y-52767991D01*
X100897685Y-52800000D01*
X101102315Y-52800000D01*
X101304412Y-52767991D01*
X101499027Y-52704756D01*
X101681348Y-52611860D01*
X101681353Y-52611856D01*
X101766876Y-52549720D01*
X101766876Y-52549719D01*
X101223312Y-52006155D01*
X101337708Y-51940110D01*
X101440110Y-51837708D01*
X101506155Y-51723312D01*
X102049719Y-52266876D01*
X102049720Y-52266876D01*
X102111856Y-52181353D01*
X102111860Y-52181348D01*
X102204756Y-51999027D01*
X102267991Y-51804412D01*
X102300000Y-51602315D01*
X102300000Y-51397684D01*
X106200000Y-51397684D01*
X106200000Y-51602315D01*
X106232008Y-51804412D01*
X106295243Y-51999027D01*
X106388139Y-52181348D01*
X106388143Y-52181354D01*
X106450279Y-52266876D01*
X106993843Y-51723311D01*
X107059890Y-51837708D01*
X107162292Y-51940110D01*
X107276686Y-52006154D01*
X106733122Y-52549718D01*
X106733122Y-52549719D01*
X106818645Y-52611856D01*
X106818651Y-52611860D01*
X107000972Y-52704756D01*
X107195587Y-52767991D01*
X107397685Y-52800000D01*
X107602315Y-52800000D01*
X107804412Y-52767991D01*
X107999027Y-52704756D01*
X108181348Y-52611860D01*
X108181353Y-52611856D01*
X108266876Y-52549720D01*
X108266876Y-52549719D01*
X107723312Y-52006155D01*
X107837708Y-51940110D01*
X107940110Y-51837708D01*
X108006155Y-51723312D01*
X108549719Y-52266876D01*
X108549720Y-52266876D01*
X108611856Y-52181353D01*
X108611860Y-52181348D01*
X108704756Y-51999027D01*
X108767991Y-51804412D01*
X108800000Y-51602315D01*
X108800000Y-51397684D01*
X108767991Y-51195587D01*
X108704756Y-51000972D01*
X108611860Y-50818651D01*
X108611856Y-50818645D01*
X108549719Y-50733122D01*
X108549718Y-50733122D01*
X108006154Y-51276686D01*
X107940110Y-51162292D01*
X107837708Y-51059890D01*
X107723311Y-50993843D01*
X108266876Y-50450279D01*
X108181354Y-50388143D01*
X108181348Y-50388139D01*
X107999027Y-50295243D01*
X107804412Y-50232008D01*
X107602315Y-50200000D01*
X107397685Y-50200000D01*
X107195587Y-50232008D01*
X107000972Y-50295243D01*
X106818651Y-50388139D01*
X106818647Y-50388141D01*
X106733122Y-50450279D01*
X107276687Y-50993844D01*
X107162292Y-51059890D01*
X107059890Y-51162292D01*
X106993844Y-51276687D01*
X106450279Y-50733122D01*
X106388141Y-50818647D01*
X106388139Y-50818651D01*
X106295243Y-51000972D01*
X106232008Y-51195587D01*
X106200000Y-51397684D01*
X102300000Y-51397684D01*
X102267991Y-51195587D01*
X102204756Y-51000972D01*
X102111860Y-50818651D01*
X102111856Y-50818645D01*
X102049719Y-50733122D01*
X102049718Y-50733122D01*
X101506154Y-51276686D01*
X101440110Y-51162292D01*
X101337708Y-51059890D01*
X101223311Y-50993843D01*
X101766876Y-50450279D01*
X101681354Y-50388143D01*
X101681348Y-50388139D01*
X101499027Y-50295243D01*
X101304412Y-50232008D01*
X101102315Y-50200000D01*
X100897685Y-50200000D01*
X100695587Y-50232008D01*
X100500972Y-50295243D01*
X100318651Y-50388139D01*
X100318647Y-50388141D01*
X100233122Y-50450279D01*
X100776687Y-50993844D01*
X100662292Y-51059890D01*
X100559890Y-51162292D01*
X100493844Y-51276687D01*
X99950279Y-50733122D01*
X99888141Y-50818647D01*
X99888139Y-50818651D01*
X99795243Y-51000972D01*
X99732008Y-51195587D01*
X99700000Y-51397684D01*
X94050500Y-51397684D01*
X94050500Y-50627611D01*
X94052968Y-50620013D01*
X94051719Y-50612124D01*
X94062243Y-50591468D01*
X94069407Y-50569420D01*
X94079496Y-50557607D01*
X97739459Y-46897644D01*
X99699500Y-46897644D01*
X99699500Y-47102355D01*
X99731521Y-47304529D01*
X99794780Y-47499219D01*
X99887712Y-47681609D01*
X99887714Y-47681613D01*
X100008029Y-47847213D01*
X100008031Y-47847215D01*
X100008034Y-47847219D01*
X100152781Y-47991966D01*
X100152784Y-47991968D01*
X100152786Y-47991970D01*
X100318386Y-48112285D01*
X100318390Y-48112287D01*
X100500781Y-48205220D01*
X100695466Y-48268477D01*
X100695467Y-48268477D01*
X100695470Y-48268478D01*
X100897645Y-48300500D01*
X100897648Y-48300500D01*
X101102355Y-48300500D01*
X101304529Y-48268478D01*
X101304530Y-48268477D01*
X101304534Y-48268477D01*
X101499219Y-48205220D01*
X101681610Y-48112287D01*
X101847219Y-47991966D01*
X101991966Y-47847219D01*
X102105240Y-47691309D01*
X102154739Y-47655346D01*
X102185332Y-47650500D01*
X103560257Y-47650500D01*
X103618448Y-47669407D01*
X103630254Y-47679490D01*
X103631284Y-47680520D01*
X103768216Y-47759577D01*
X103920943Y-47800500D01*
X103920945Y-47800500D01*
X104079055Y-47800500D01*
X104079057Y-47800500D01*
X104231784Y-47759577D01*
X104368716Y-47680520D01*
X104369741Y-47679494D01*
X104370668Y-47679022D01*
X104373866Y-47676569D01*
X104374320Y-47677161D01*
X104424256Y-47651719D01*
X104439743Y-47650500D01*
X106314668Y-47650500D01*
X106372859Y-47669407D01*
X106394758Y-47691307D01*
X106444358Y-47759576D01*
X106508029Y-47847213D01*
X106508031Y-47847215D01*
X106508034Y-47847219D01*
X106652781Y-47991966D01*
X106652784Y-47991968D01*
X106652786Y-47991970D01*
X106818386Y-48112285D01*
X106818390Y-48112287D01*
X107000781Y-48205220D01*
X107195466Y-48268477D01*
X107195467Y-48268477D01*
X107195470Y-48268478D01*
X107397645Y-48300500D01*
X107397648Y-48300500D01*
X107602355Y-48300500D01*
X107804529Y-48268478D01*
X107804530Y-48268477D01*
X107804534Y-48268477D01*
X107999219Y-48205220D01*
X108181610Y-48112287D01*
X108347219Y-47991966D01*
X108491966Y-47847219D01*
X108612287Y-47681610D01*
X108705220Y-47499219D01*
X108768477Y-47304534D01*
X108789989Y-47168715D01*
X108800500Y-47102355D01*
X108800500Y-46897644D01*
X108768478Y-46695470D01*
X108763807Y-46681093D01*
X108705220Y-46500781D01*
X108612287Y-46318390D01*
X108612285Y-46318386D01*
X108491970Y-46152786D01*
X108491968Y-46152784D01*
X108491966Y-46152781D01*
X108347219Y-46008034D01*
X108347215Y-46008031D01*
X108347213Y-46008029D01*
X108181613Y-45887714D01*
X108181609Y-45887712D01*
X107999219Y-45794780D01*
X107804529Y-45731521D01*
X107602355Y-45699500D01*
X107602352Y-45699500D01*
X107397648Y-45699500D01*
X107397645Y-45699500D01*
X107195470Y-45731521D01*
X107000780Y-45794780D01*
X106818390Y-45887712D01*
X106818386Y-45887714D01*
X106652786Y-46008029D01*
X106508029Y-46152786D01*
X106387714Y-46318386D01*
X106387712Y-46318390D01*
X106294780Y-46500780D01*
X106236193Y-46681093D01*
X106200229Y-46730593D01*
X106142038Y-46749500D01*
X104439743Y-46749500D01*
X104381552Y-46730593D01*
X104369745Y-46720509D01*
X104368716Y-46719480D01*
X104231784Y-46640423D01*
X104079057Y-46599500D01*
X103920943Y-46599500D01*
X103768216Y-46640423D01*
X103631284Y-46719480D01*
X103630258Y-46720505D01*
X103629331Y-46720977D01*
X103626134Y-46723431D01*
X103625679Y-46722838D01*
X103575744Y-46748281D01*
X103560257Y-46749500D01*
X102357962Y-46749500D01*
X102299771Y-46730593D01*
X102263807Y-46681093D01*
X102238246Y-46602426D01*
X102205220Y-46500781D01*
X102112287Y-46318390D01*
X102112285Y-46318386D01*
X101991970Y-46152786D01*
X101991968Y-46152784D01*
X101991966Y-46152781D01*
X101847219Y-46008034D01*
X101847215Y-46008031D01*
X101847213Y-46008029D01*
X101681613Y-45887714D01*
X101681609Y-45887712D01*
X101499219Y-45794780D01*
X101304529Y-45731521D01*
X101102355Y-45699500D01*
X101102352Y-45699500D01*
X100897648Y-45699500D01*
X100897645Y-45699500D01*
X100695470Y-45731521D01*
X100500780Y-45794780D01*
X100318390Y-45887712D01*
X100318386Y-45887714D01*
X100152786Y-46008029D01*
X100008029Y-46152786D01*
X99887714Y-46318386D01*
X99887712Y-46318390D01*
X99794780Y-46500780D01*
X99731521Y-46695470D01*
X99699500Y-46897644D01*
X97739459Y-46897644D01*
X98807607Y-45829496D01*
X98862124Y-45801719D01*
X98877611Y-45800500D01*
X98879055Y-45800500D01*
X98879057Y-45800500D01*
X99031784Y-45759577D01*
X99168716Y-45680520D01*
X99280520Y-45568716D01*
X99359577Y-45431784D01*
X99400500Y-45279057D01*
X99400500Y-45120943D01*
X99359577Y-44968216D01*
X99280520Y-44831284D01*
X99168716Y-44719480D01*
X99031784Y-44640423D01*
X98879057Y-44599500D01*
X98720943Y-44599500D01*
X98591732Y-44634122D01*
X98568216Y-44640423D01*
X98431284Y-44719480D01*
X98319480Y-44831284D01*
X98240423Y-44968216D01*
X98199500Y-45120944D01*
X98199500Y-45122389D01*
X98199180Y-45123373D01*
X98198653Y-45127377D01*
X98197911Y-45127279D01*
X98180593Y-45180580D01*
X98170504Y-45192393D01*
X93239507Y-50123390D01*
X93180200Y-50226112D01*
X93180200Y-50226113D01*
X93180201Y-50226114D01*
X93158157Y-50308385D01*
X93149500Y-50340692D01*
X93149500Y-52360256D01*
X93130593Y-52418447D01*
X93120510Y-52430253D01*
X93119483Y-52431279D01*
X93119480Y-52431283D01*
X93119480Y-52431284D01*
X93040423Y-52568216D01*
X92999500Y-52720943D01*
X92999500Y-52879057D01*
X93038572Y-53024879D01*
X93035370Y-53085978D01*
X92996865Y-53133528D01*
X92942946Y-53149500D01*
X89870976Y-53149500D01*
X89812785Y-53130593D01*
X89776821Y-53081093D01*
X89776821Y-53019907D01*
X89812785Y-52970407D01*
X89826204Y-52962891D01*
X89826164Y-52962821D01*
X89831781Y-52959577D01*
X89831784Y-52959577D01*
X89968716Y-52880520D01*
X90080520Y-52768716D01*
X90159577Y-52631784D01*
X90200500Y-52479057D01*
X90200500Y-52477611D01*
X90200819Y-52476626D01*
X90201347Y-52472623D01*
X90202088Y-52472720D01*
X90219407Y-52419420D01*
X90229496Y-52407607D01*
X98007607Y-44629496D01*
X98062124Y-44601719D01*
X98077611Y-44600500D01*
X98079055Y-44600500D01*
X98079057Y-44600500D01*
X98231784Y-44559577D01*
X98368716Y-44480520D01*
X98480520Y-44368716D01*
X98559577Y-44231784D01*
X98600500Y-44079057D01*
X98600500Y-43920943D01*
X98559577Y-43768216D01*
X98480520Y-43631284D01*
X98368716Y-43519480D01*
X98231784Y-43440423D01*
X98079057Y-43399500D01*
X97920943Y-43399500D01*
X97804951Y-43430580D01*
X97768216Y-43440423D01*
X97631284Y-43519480D01*
X97519480Y-43631284D01*
X97440423Y-43768216D01*
X97399500Y-43920944D01*
X97399500Y-43922389D01*
X97399180Y-43923373D01*
X97398653Y-43927377D01*
X97397911Y-43927279D01*
X97380593Y-43980580D01*
X97370504Y-43992393D01*
X89592393Y-51770504D01*
X89537876Y-51798281D01*
X89522389Y-51799500D01*
X89520943Y-51799500D01*
X89368216Y-51840423D01*
X89231284Y-51919480D01*
X89119480Y-52031284D01*
X89040423Y-52168216D01*
X88999500Y-52320943D01*
X88999500Y-52479057D01*
X89040423Y-52631784D01*
X89119480Y-52768716D01*
X89231284Y-52880520D01*
X89368216Y-52959577D01*
X89368218Y-52959577D01*
X89373836Y-52962821D01*
X89373012Y-52964247D01*
X89413437Y-52998775D01*
X89427719Y-53058270D01*
X89404302Y-53114798D01*
X89352132Y-53146765D01*
X89329024Y-53149500D01*
X87749500Y-53149500D01*
X87691309Y-53130593D01*
X87655345Y-53081093D01*
X87650500Y-53050500D01*
X87650500Y-51457054D01*
X87669407Y-51398863D01*
X87718907Y-51362899D01*
X87775120Y-51361427D01*
X87920943Y-51400500D01*
X87920945Y-51400500D01*
X88079055Y-51400500D01*
X88079057Y-51400500D01*
X88231784Y-51359577D01*
X88368716Y-51280520D01*
X88480520Y-51168716D01*
X88559577Y-51031784D01*
X88600500Y-50879057D01*
X88600500Y-50720943D01*
X88559577Y-50568216D01*
X88480520Y-50431284D01*
X88480517Y-50431281D01*
X88480516Y-50431279D01*
X88479490Y-50430253D01*
X88479016Y-50429324D01*
X88476569Y-50426134D01*
X88477160Y-50425680D01*
X88451717Y-50375734D01*
X88450500Y-50360256D01*
X88450500Y-49027611D01*
X88469407Y-48969420D01*
X88479496Y-48957607D01*
X90007607Y-47429496D01*
X90062124Y-47401719D01*
X90077611Y-47400500D01*
X90079055Y-47400500D01*
X90079057Y-47400500D01*
X90231784Y-47359577D01*
X90368716Y-47280520D01*
X90480520Y-47168716D01*
X90559577Y-47031784D01*
X90600500Y-46879057D01*
X90600500Y-46720943D01*
X90559577Y-46568216D01*
X90480520Y-46431284D01*
X90368716Y-46319480D01*
X90231784Y-46240423D01*
X90079057Y-46199500D01*
X89920943Y-46199500D01*
X89768216Y-46240423D01*
X89631284Y-46319480D01*
X89519480Y-46431284D01*
X89440423Y-46568216D01*
X89406326Y-46695470D01*
X89399500Y-46720944D01*
X89399500Y-46722389D01*
X89399180Y-46723373D01*
X89398653Y-46727377D01*
X89397911Y-46727279D01*
X89380593Y-46780580D01*
X89370504Y-46792393D01*
X87819504Y-48343393D01*
X87764987Y-48371170D01*
X87704555Y-48361599D01*
X87661290Y-48318334D01*
X87650500Y-48273389D01*
X87650500Y-48039743D01*
X87669407Y-47981552D01*
X87679490Y-47969745D01*
X87680520Y-47968716D01*
X87759577Y-47831784D01*
X87800500Y-47679057D01*
X87800500Y-47520943D01*
X87759577Y-47368216D01*
X87680520Y-47231284D01*
X87568716Y-47119480D01*
X87431784Y-47040423D01*
X87279057Y-46999500D01*
X87120943Y-46999500D01*
X86968216Y-47040423D01*
X86831284Y-47119480D01*
X86719480Y-47231284D01*
X86640423Y-47368216D01*
X86599500Y-47520943D01*
X86599500Y-47679057D01*
X86640423Y-47831784D01*
X86719480Y-47968716D01*
X86720505Y-47969741D01*
X86720977Y-47970668D01*
X86723431Y-47973866D01*
X86722838Y-47974320D01*
X86748281Y-48024256D01*
X86749500Y-48039743D01*
X86749500Y-53372389D01*
X86730593Y-53430580D01*
X86720504Y-53442393D01*
X80758047Y-59404849D01*
X80703530Y-59432626D01*
X80643098Y-59423055D01*
X80599833Y-59379790D01*
X80590262Y-59319358D01*
X80592413Y-59309235D01*
X80600500Y-59279057D01*
X80600500Y-59120943D01*
X80559577Y-58968216D01*
X80480520Y-58831284D01*
X80368716Y-58719480D01*
X80231784Y-58640423D01*
X80079057Y-58599500D01*
X79920943Y-58599500D01*
X79903967Y-58604048D01*
X79890776Y-58607583D01*
X79829674Y-58604380D01*
X79782125Y-58565874D01*
X79766290Y-58506774D01*
X79788217Y-58449652D01*
X79795151Y-58441952D01*
X80007608Y-58229496D01*
X80062124Y-58201719D01*
X80077611Y-58200500D01*
X80079055Y-58200500D01*
X80079057Y-58200500D01*
X80231784Y-58159577D01*
X80368716Y-58080520D01*
X80480520Y-57968716D01*
X80559577Y-57831784D01*
X80600500Y-57679057D01*
X80600500Y-57520943D01*
X80559577Y-57368216D01*
X80480520Y-57231284D01*
X80368716Y-57119480D01*
X80231784Y-57040423D01*
X80079057Y-56999500D01*
X79920943Y-56999500D01*
X79824975Y-57025214D01*
X79775123Y-57038572D01*
X79714021Y-57035369D01*
X79666471Y-56996864D01*
X79650500Y-56942945D01*
X79650500Y-53427611D01*
X79669407Y-53369420D01*
X79679496Y-53357607D01*
X86007607Y-47029496D01*
X86062124Y-47001719D01*
X86077611Y-47000500D01*
X86079055Y-47000500D01*
X86079057Y-47000500D01*
X86231784Y-46959577D01*
X86368716Y-46880520D01*
X86480520Y-46768716D01*
X86559577Y-46631784D01*
X86600500Y-46479057D01*
X86600500Y-46320943D01*
X86559577Y-46168216D01*
X86480520Y-46031284D01*
X86368716Y-45919480D01*
X86231784Y-45840423D01*
X86079057Y-45799500D01*
X85920943Y-45799500D01*
X85890776Y-45807582D01*
X85829676Y-45804380D01*
X85782126Y-45765875D01*
X85766291Y-45706774D01*
X85788218Y-45649653D01*
X85795152Y-45641952D01*
X86157609Y-45279496D01*
X86212125Y-45251719D01*
X86227612Y-45250500D01*
X86459307Y-45250500D01*
X86459309Y-45250500D01*
X86573886Y-45219799D01*
X86573888Y-45219797D01*
X86573890Y-45219797D01*
X86676608Y-45160492D01*
X86676608Y-45160491D01*
X86676613Y-45160489D01*
X86760489Y-45076613D01*
X86819799Y-44973886D01*
X86850500Y-44859309D01*
X86850500Y-42439743D01*
X86869407Y-42381552D01*
X86879490Y-42369745D01*
X86880520Y-42368716D01*
X86959577Y-42231784D01*
X87000500Y-42079057D01*
X87000500Y-41920943D01*
X86959577Y-41768216D01*
X86880520Y-41631284D01*
X86768716Y-41519480D01*
X86631784Y-41440423D01*
X86479057Y-41399500D01*
X86320943Y-41399500D01*
X86168216Y-41440423D01*
X86031284Y-41519480D01*
X85919480Y-41631284D01*
X85840423Y-41768216D01*
X85799500Y-41920943D01*
X85799500Y-42079057D01*
X85840423Y-42231784D01*
X85919480Y-42368716D01*
X85920505Y-42369741D01*
X85920977Y-42370668D01*
X85923431Y-42373866D01*
X85922838Y-42374320D01*
X85948281Y-42424256D01*
X85949500Y-42439743D01*
X85949500Y-43342945D01*
X85930593Y-43401136D01*
X85881093Y-43437100D01*
X85824877Y-43438572D01*
X85775024Y-43425214D01*
X85679057Y-43399500D01*
X85520943Y-43399500D01*
X85404951Y-43430580D01*
X85368216Y-43440423D01*
X85231284Y-43519480D01*
X85119480Y-43631284D01*
X85040423Y-43768216D01*
X84999500Y-43920944D01*
X84999500Y-43922389D01*
X84999180Y-43923373D01*
X84998653Y-43927377D01*
X84997911Y-43927279D01*
X84980593Y-43980580D01*
X84970504Y-43992393D01*
X82758047Y-46204849D01*
X82703530Y-46232626D01*
X82643098Y-46223055D01*
X82599833Y-46179790D01*
X82590262Y-46119358D01*
X82592413Y-46109235D01*
X82600500Y-46079057D01*
X82600500Y-45920943D01*
X82559577Y-45768216D01*
X82480520Y-45631284D01*
X82368716Y-45519480D01*
X82231784Y-45440423D01*
X82079057Y-45399500D01*
X81920943Y-45399500D01*
X81920940Y-45399500D01*
X81890774Y-45407583D01*
X81829673Y-45404380D01*
X81782124Y-45365874D01*
X81766289Y-45306773D01*
X81788217Y-45249652D01*
X81795140Y-45241962D01*
X81960490Y-45076613D01*
X82019799Y-44973886D01*
X82033330Y-44923387D01*
X82050500Y-44859309D01*
X82050500Y-44439743D01*
X82069407Y-44381552D01*
X82079490Y-44369745D01*
X82080520Y-44368716D01*
X82159577Y-44231784D01*
X82200500Y-44079057D01*
X82200500Y-43920943D01*
X82159577Y-43768216D01*
X82080520Y-43631284D01*
X81968716Y-43519480D01*
X81831784Y-43440423D01*
X81679057Y-43399500D01*
X81520943Y-43399500D01*
X81469079Y-43413397D01*
X81368214Y-43440423D01*
X81249499Y-43508963D01*
X81189651Y-43521684D01*
X81150501Y-43508963D01*
X81031785Y-43440423D01*
X80980875Y-43426782D01*
X80879057Y-43399500D01*
X80720943Y-43399500D01*
X80703967Y-43404048D01*
X80690776Y-43407583D01*
X80629674Y-43404380D01*
X80582125Y-43365874D01*
X80566290Y-43306774D01*
X80588217Y-43249652D01*
X80595140Y-43241962D01*
X82407607Y-41429496D01*
X82462124Y-41401719D01*
X82477611Y-41400500D01*
X82479055Y-41400500D01*
X82479057Y-41400500D01*
X82631784Y-41359577D01*
X82768716Y-41280520D01*
X82880520Y-41168716D01*
X82959577Y-41031784D01*
X83000500Y-40879057D01*
X83000500Y-40720943D01*
X82959577Y-40568216D01*
X82880520Y-40431284D01*
X82768716Y-40319480D01*
X82631784Y-40240423D01*
X82479057Y-40199500D01*
X82320943Y-40199500D01*
X82168216Y-40240423D01*
X82031284Y-40319480D01*
X81919480Y-40431284D01*
X81840423Y-40568216D01*
X81799500Y-40720944D01*
X81799500Y-40722389D01*
X81799180Y-40723373D01*
X81798653Y-40727377D01*
X81797911Y-40727279D01*
X81780593Y-40780580D01*
X81770504Y-40792393D01*
X79639507Y-42923390D01*
X79580200Y-43026112D01*
X79580200Y-43026113D01*
X79580201Y-43026114D01*
X79549500Y-43140692D01*
X79549500Y-43372389D01*
X79530593Y-43430580D01*
X79520504Y-43442393D01*
X71992393Y-50970504D01*
X71945993Y-50996645D01*
X71934364Y-50999500D01*
X71920943Y-50999500D01*
X71774140Y-51038835D01*
X71773104Y-51039090D01*
X71743577Y-51036918D01*
X71714021Y-51035369D01*
X71713172Y-51034682D01*
X71712083Y-51034602D01*
X71689478Y-51015495D01*
X71666471Y-50996864D01*
X71666148Y-50995774D01*
X71665355Y-50995104D01*
X71662475Y-50983374D01*
X71650500Y-50942945D01*
X71650500Y-44627611D01*
X71669407Y-44569420D01*
X71679496Y-44557607D01*
X77207607Y-39029496D01*
X77262124Y-39001719D01*
X77277611Y-39000500D01*
X77279055Y-39000500D01*
X77279057Y-39000500D01*
X77431784Y-38959577D01*
X77568716Y-38880520D01*
X77680520Y-38768716D01*
X77759577Y-38631784D01*
X77800500Y-38479057D01*
X77800500Y-38320943D01*
X77759577Y-38168216D01*
X77680520Y-38031284D01*
X77568716Y-37919480D01*
X77431784Y-37840423D01*
X77279057Y-37799500D01*
X77120943Y-37799500D01*
X76968216Y-37840423D01*
X76831284Y-37919480D01*
X76719480Y-38031284D01*
X76640423Y-38168216D01*
X76599500Y-38320944D01*
X76599500Y-38322389D01*
X76599180Y-38323373D01*
X76598653Y-38327377D01*
X76597911Y-38327279D01*
X76580593Y-38380580D01*
X76570504Y-38392393D01*
X71019504Y-43943393D01*
X70964987Y-43971170D01*
X70904555Y-43961599D01*
X70861290Y-43918334D01*
X70850500Y-43873389D01*
X70850500Y-43027611D01*
X70869407Y-42969420D01*
X70879496Y-42957607D01*
X74807608Y-39029496D01*
X74862125Y-39001719D01*
X74877612Y-39000500D01*
X74879055Y-39000500D01*
X74879057Y-39000500D01*
X75031784Y-38959577D01*
X75168716Y-38880520D01*
X75280520Y-38768716D01*
X75359577Y-38631784D01*
X75400500Y-38479057D01*
X75400500Y-38320943D01*
X75359577Y-38168216D01*
X75280520Y-38031284D01*
X75168716Y-37919480D01*
X75031784Y-37840423D01*
X74879057Y-37799500D01*
X74720943Y-37799500D01*
X74568216Y-37840423D01*
X74431284Y-37919480D01*
X74319480Y-38031284D01*
X74240423Y-38168216D01*
X74199500Y-38320944D01*
X74199500Y-38322388D01*
X74199180Y-38323371D01*
X74198653Y-38327377D01*
X74197910Y-38327279D01*
X74180593Y-38380579D01*
X74170504Y-38392392D01*
X70039508Y-42523389D01*
X70039507Y-42523390D01*
X69980200Y-42626112D01*
X69980200Y-42626113D01*
X69980201Y-42626114D01*
X69949500Y-42740692D01*
X69949500Y-53160256D01*
X69930593Y-53218447D01*
X69920510Y-53230253D01*
X69919483Y-53231279D01*
X69919480Y-53231283D01*
X69919480Y-53231284D01*
X69840423Y-53368216D01*
X69799500Y-53520943D01*
X69799500Y-53679057D01*
X69840423Y-53831784D01*
X69919480Y-53968716D01*
X70031284Y-54080520D01*
X70168216Y-54159577D01*
X70320943Y-54200500D01*
X70320945Y-54200500D01*
X70479055Y-54200500D01*
X70479057Y-54200500D01*
X70631784Y-54159577D01*
X70768716Y-54080520D01*
X70880520Y-53968716D01*
X70959577Y-53831784D01*
X71000500Y-53679057D01*
X71000500Y-53520943D01*
X70959577Y-53368216D01*
X70880520Y-53231284D01*
X70880517Y-53231281D01*
X70880516Y-53231279D01*
X70879490Y-53230253D01*
X70879016Y-53229324D01*
X70876569Y-53226134D01*
X70877160Y-53225680D01*
X70851717Y-53175734D01*
X70850500Y-53160256D01*
X70850500Y-52257054D01*
X70869407Y-52198863D01*
X70918907Y-52162899D01*
X70975120Y-52161427D01*
X71120943Y-52200500D01*
X71120945Y-52200500D01*
X71279055Y-52200500D01*
X71279057Y-52200500D01*
X71431784Y-52159577D01*
X71550502Y-52091035D01*
X71610349Y-52078315D01*
X71649496Y-52091034D01*
X71768216Y-52159577D01*
X71920943Y-52200500D01*
X71920945Y-52200500D01*
X72079055Y-52200500D01*
X72079057Y-52200500D01*
X72231784Y-52159577D01*
X72368716Y-52080520D01*
X72480520Y-51968716D01*
X72559577Y-51831784D01*
X72600500Y-51679057D01*
X72600500Y-51677610D01*
X72600820Y-51676624D01*
X72601347Y-51672623D01*
X72602088Y-51672720D01*
X72619407Y-51619419D01*
X72629490Y-51607612D01*
X74580496Y-49656605D01*
X74635013Y-49628829D01*
X74695445Y-49638400D01*
X74738710Y-49681665D01*
X74749500Y-49726610D01*
X74749500Y-51160256D01*
X74730593Y-51218447D01*
X74720510Y-51230253D01*
X74719483Y-51231279D01*
X74719480Y-51231283D01*
X74719480Y-51231284D01*
X74640423Y-51368216D01*
X74599500Y-51520943D01*
X74599500Y-51679057D01*
X74640423Y-51831784D01*
X74719480Y-51968716D01*
X74831284Y-52080520D01*
X74968216Y-52159577D01*
X75120943Y-52200500D01*
X75120945Y-52200500D01*
X75279055Y-52200500D01*
X75279057Y-52200500D01*
X75431784Y-52159577D01*
X75568716Y-52080520D01*
X75680520Y-51968716D01*
X75714264Y-51910269D01*
X75759733Y-51869328D01*
X75820583Y-51862932D01*
X75873571Y-51893525D01*
X75885734Y-51910266D01*
X75919480Y-51968716D01*
X76031284Y-52080520D01*
X76168216Y-52159577D01*
X76320943Y-52200500D01*
X76320945Y-52200500D01*
X76479056Y-52200500D01*
X76479057Y-52200500D01*
X76509222Y-52192417D01*
X76570322Y-52195618D01*
X76617872Y-52234122D01*
X76633709Y-52293222D01*
X76611784Y-52350344D01*
X76604849Y-52358047D01*
X74392393Y-54570504D01*
X74337876Y-54598281D01*
X74322389Y-54599500D01*
X74320943Y-54599500D01*
X74168216Y-54640423D01*
X74031284Y-54719480D01*
X73919480Y-54831284D01*
X73840423Y-54968216D01*
X73799500Y-55120943D01*
X73799500Y-55279057D01*
X73840423Y-55431784D01*
X73919480Y-55568716D01*
X74031284Y-55680520D01*
X74168216Y-55759577D01*
X74320943Y-55800500D01*
X74320945Y-55800500D01*
X74479055Y-55800500D01*
X74479057Y-55800500D01*
X74631784Y-55759577D01*
X74768716Y-55680520D01*
X74880520Y-55568716D01*
X74959577Y-55431784D01*
X75000500Y-55279057D01*
X75000500Y-55277610D01*
X75000820Y-55276624D01*
X75001347Y-55272623D01*
X75002088Y-55272720D01*
X75019407Y-55219419D01*
X75029490Y-55207612D01*
X83641954Y-46595147D01*
X83696469Y-46567372D01*
X83756901Y-46576943D01*
X83800166Y-46620208D01*
X83809737Y-46680640D01*
X83807583Y-46690774D01*
X83799500Y-46720940D01*
X83799500Y-46720943D01*
X83799500Y-46879057D01*
X83840423Y-47031784D01*
X83919480Y-47168716D01*
X84031284Y-47280520D01*
X84168216Y-47359577D01*
X84188006Y-47364879D01*
X84239320Y-47398203D01*
X84261246Y-47455325D01*
X84245410Y-47514425D01*
X84232386Y-47530510D01*
X78839508Y-52923389D01*
X78839507Y-52923390D01*
X78780200Y-53026112D01*
X78780200Y-53026113D01*
X78780201Y-53026114D01*
X78751420Y-53133528D01*
X78749500Y-53140692D01*
X78749500Y-56972389D01*
X78730593Y-57030580D01*
X78720504Y-57042393D01*
X51958047Y-83804849D01*
X51903530Y-83832626D01*
X51843098Y-83823055D01*
X51799833Y-83779790D01*
X51790262Y-83719358D01*
X51792413Y-83709235D01*
X51800500Y-83679057D01*
X51800500Y-83520943D01*
X51759577Y-83368216D01*
X51680520Y-83231284D01*
X51568716Y-83119480D01*
X51431784Y-83040423D01*
X51431783Y-83040422D01*
X51431777Y-83040419D01*
X51428057Y-83038878D01*
X51395946Y-83017421D01*
X46865902Y-78487377D01*
X46838125Y-78432860D01*
X46841751Y-78386785D01*
X46868477Y-78304534D01*
X46900500Y-78102352D01*
X46900500Y-77897648D01*
X46900500Y-77897644D01*
X46868478Y-77695470D01*
X46868477Y-77695466D01*
X46805220Y-77500781D01*
X46712287Y-77318390D01*
X46712285Y-77318386D01*
X46591970Y-77152786D01*
X46591968Y-77152784D01*
X46591966Y-77152781D01*
X46447219Y-77008034D01*
X46447215Y-77008031D01*
X46447213Y-77008029D01*
X46281613Y-76887714D01*
X46281609Y-76887712D01*
X46099219Y-76794780D01*
X45904529Y-76731521D01*
X45702355Y-76699500D01*
X45702352Y-76699500D01*
X45497648Y-76699500D01*
X45497645Y-76699500D01*
X45295470Y-76731521D01*
X45100780Y-76794780D01*
X44918390Y-76887712D01*
X44918386Y-76887714D01*
X44752786Y-77008029D01*
X44752781Y-77008033D01*
X44752781Y-77008034D01*
X44619501Y-77141313D01*
X44564987Y-77169089D01*
X44504555Y-77159518D01*
X44461290Y-77116253D01*
X44450500Y-77071308D01*
X44450500Y-75239743D01*
X44469407Y-75181552D01*
X44479490Y-75169745D01*
X44480520Y-75168716D01*
X44559577Y-75031784D01*
X44600500Y-74879057D01*
X44600500Y-74720943D01*
X44559577Y-74568216D01*
X44480520Y-74431284D01*
X44368716Y-74319480D01*
X44231784Y-74240423D01*
X44079057Y-74199500D01*
X43920943Y-74199500D01*
X43768216Y-74240423D01*
X43631284Y-74319480D01*
X43519480Y-74431284D01*
X43440423Y-74568216D01*
X43399500Y-74720943D01*
X43399500Y-74879057D01*
X43440423Y-75031784D01*
X43519480Y-75168716D01*
X43520505Y-75169741D01*
X43520977Y-75170668D01*
X43523431Y-75173866D01*
X43522838Y-75174320D01*
X43548281Y-75224256D01*
X43549500Y-75239743D01*
X43549500Y-78859309D01*
X43573713Y-78949673D01*
X43573712Y-78949673D01*
X43580200Y-78973886D01*
X43580202Y-78973890D01*
X43639507Y-79076609D01*
X43639509Y-79076611D01*
X43639511Y-79076614D01*
X44320505Y-79757608D01*
X44348281Y-79812123D01*
X44349500Y-79827610D01*
X44349500Y-81742945D01*
X44330593Y-81801136D01*
X44281093Y-81837100D01*
X44224877Y-81838572D01*
X44175024Y-81825214D01*
X44079057Y-81799500D01*
X43920943Y-81799500D01*
X43780618Y-81837100D01*
X43768216Y-81840423D01*
X43631284Y-81919480D01*
X43519480Y-82031284D01*
X43440423Y-82168216D01*
X43399500Y-82320944D01*
X43399500Y-82322389D01*
X43399180Y-82323373D01*
X43398653Y-82327377D01*
X43397911Y-82327279D01*
X43380593Y-82380580D01*
X43370504Y-82392393D01*
X32839507Y-92923390D01*
X32780200Y-93026112D01*
X32780200Y-93026113D01*
X32780201Y-93026114D01*
X32749500Y-93140692D01*
X32749500Y-93620510D01*
X32730593Y-93678701D01*
X32681093Y-93714665D01*
X32619907Y-93714665D01*
X32605555Y-93708720D01*
X32569312Y-93690253D01*
X32394090Y-93633321D01*
X32212123Y-93604500D01*
X32212120Y-93604500D01*
X32027880Y-93604500D01*
X32027877Y-93604500D01*
X31845909Y-93633321D01*
X31670687Y-93690253D01*
X31506527Y-93773897D01*
X31357472Y-93882192D01*
X31227192Y-94012472D01*
X31118897Y-94161527D01*
X31035253Y-94325687D01*
X30978321Y-94500909D01*
X30949500Y-94682876D01*
X30750500Y-94682876D01*
X30731285Y-94561564D01*
X30721678Y-94500907D01*
X30664745Y-94325684D01*
X30581101Y-94161525D01*
X30579335Y-94158059D01*
X30580538Y-94157445D01*
X30567501Y-94103153D01*
X30590911Y-94046623D01*
X30596179Y-94040922D01*
X42807607Y-81829496D01*
X42862124Y-81801719D01*
X42877611Y-81800500D01*
X42879055Y-81800500D01*
X42879057Y-81800500D01*
X43031784Y-81759577D01*
X43168716Y-81680520D01*
X43280520Y-81568716D01*
X43359577Y-81431784D01*
X43400500Y-81279057D01*
X43400500Y-81120943D01*
X43359577Y-80968216D01*
X43280520Y-80831284D01*
X43168716Y-80719480D01*
X43031784Y-80640423D01*
X42879057Y-80599500D01*
X42720943Y-80599500D01*
X42568216Y-80640423D01*
X42431284Y-80719480D01*
X42319480Y-80831284D01*
X42240423Y-80968216D01*
X42223165Y-81032626D01*
X42199500Y-81120944D01*
X42199500Y-81122388D01*
X42199180Y-81123371D01*
X42198653Y-81127377D01*
X42197910Y-81127279D01*
X42180593Y-81180579D01*
X42170504Y-81192392D01*
X29782268Y-93580627D01*
X29727751Y-93608404D01*
X29696780Y-93608405D01*
X29672120Y-93604500D01*
X29487880Y-93604500D01*
X29487877Y-93604500D01*
X29305909Y-93633321D01*
X29130687Y-93690253D01*
X28966527Y-93773897D01*
X28817472Y-93882192D01*
X28687192Y-94012472D01*
X28578897Y-94161527D01*
X28495253Y-94325687D01*
X28438321Y-94500909D01*
X28409500Y-94682876D01*
X28209994Y-94682876D01*
X28181192Y-94501028D01*
X28124281Y-94325875D01*
X28040675Y-94161788D01*
X27932426Y-94012797D01*
X27802202Y-93882573D01*
X27653211Y-93774324D01*
X27489124Y-93690718D01*
X27313971Y-93633807D01*
X27240000Y-93622091D01*
X27240000Y-94437600D01*
X27118333Y-94405000D01*
X26961667Y-94405000D01*
X26840000Y-94437600D01*
X26840000Y-93622092D01*
X26839999Y-93622091D01*
X26766028Y-93633807D01*
X26590875Y-93690718D01*
X26426788Y-93774324D01*
X26277797Y-93882573D01*
X26147573Y-94012797D01*
X26039324Y-94161788D01*
X25955718Y-94325875D01*
X25898807Y-94501028D01*
X25870000Y-94682915D01*
X25670500Y-94682915D01*
X25670500Y-94111898D01*
X25659877Y-94023436D01*
X25604361Y-93882658D01*
X25512922Y-93762078D01*
X25392342Y-93670639D01*
X25392341Y-93670638D01*
X25392339Y-93670637D01*
X25251565Y-93615123D01*
X25163106Y-93604500D01*
X25163102Y-93604500D01*
X23836898Y-93604500D01*
X23836893Y-93604500D01*
X23748434Y-93615123D01*
X23607660Y-93670637D01*
X23607656Y-93670640D01*
X23487081Y-93762075D01*
X23487075Y-93762081D01*
X23395640Y-93882656D01*
X23395637Y-93882660D01*
X23340123Y-94023434D01*
X23329500Y-94111893D01*
X20500000Y-94111893D01*
X20500000Y-76955130D01*
X36699500Y-76955130D01*
X36699500Y-79044860D01*
X36699501Y-79044863D01*
X36702414Y-79069990D01*
X36727756Y-79127385D01*
X36747794Y-79172765D01*
X36827235Y-79252206D01*
X36930009Y-79297585D01*
X36955135Y-79300500D01*
X39044864Y-79300499D01*
X39069991Y-79297585D01*
X39172765Y-79252206D01*
X39252206Y-79172765D01*
X39297585Y-79069991D01*
X39300500Y-79044865D01*
X39300499Y-76955136D01*
X39297585Y-76930009D01*
X39252206Y-76827235D01*
X39172765Y-76747794D01*
X39069991Y-76702415D01*
X39069990Y-76702414D01*
X39069988Y-76702414D01*
X39044868Y-76699500D01*
X36955139Y-76699500D01*
X36955136Y-76699501D01*
X36930009Y-76702414D01*
X36827235Y-76747794D01*
X36747794Y-76827235D01*
X36702414Y-76930011D01*
X36699500Y-76955130D01*
X20500000Y-76955130D01*
X20500000Y-59954034D01*
X25399500Y-59954034D01*
X25399500Y-60205965D01*
X25438908Y-60454780D01*
X25516759Y-60694379D01*
X25622369Y-60901652D01*
X25631130Y-60918845D01*
X25779207Y-61122656D01*
X25957344Y-61300793D01*
X26161155Y-61448870D01*
X26385621Y-61563241D01*
X26625215Y-61641090D01*
X26625216Y-61641090D01*
X26625219Y-61641091D01*
X26874035Y-61680500D01*
X26874038Y-61680500D01*
X27125965Y-61680500D01*
X27374780Y-61641091D01*
X27374781Y-61641090D01*
X27374785Y-61641090D01*
X27614379Y-61563241D01*
X27838845Y-61448870D01*
X28042656Y-61300793D01*
X28220793Y-61122656D01*
X28368870Y-60918845D01*
X28483241Y-60694379D01*
X28561090Y-60454785D01*
X28600500Y-60205962D01*
X28600500Y-59954038D01*
X28600500Y-59954034D01*
X28561091Y-59705219D01*
X28553065Y-59680519D01*
X28526603Y-59599075D01*
X28526603Y-59537890D01*
X28550752Y-59498481D01*
X31568713Y-56480521D01*
X31568716Y-56480520D01*
X31680520Y-56368716D01*
X31733695Y-56276613D01*
X31759577Y-56231785D01*
X31800500Y-56079058D01*
X31800500Y-55920943D01*
X31759577Y-55768216D01*
X31759150Y-55767476D01*
X31733695Y-55723386D01*
X31733695Y-55723385D01*
X31680521Y-55631286D01*
X31680520Y-55631284D01*
X31568716Y-55519480D01*
X31431784Y-55440423D01*
X31279057Y-55399500D01*
X31120942Y-55399500D01*
X31027469Y-55424545D01*
X30968210Y-55440424D01*
X30918095Y-55469359D01*
X30831284Y-55519479D01*
X30719479Y-55631283D01*
X30719480Y-55631284D01*
X30719478Y-55631286D01*
X27757736Y-58593027D01*
X27703219Y-58620804D01*
X27642788Y-58611233D01*
X27614382Y-58596760D01*
X27374780Y-58518908D01*
X27125965Y-58479500D01*
X27125962Y-58479500D01*
X26874038Y-58479500D01*
X26874035Y-58479500D01*
X26625219Y-58518908D01*
X26385620Y-58596759D01*
X26161157Y-58711128D01*
X25957345Y-58859206D01*
X25779206Y-59037345D01*
X25631128Y-59241157D01*
X25516759Y-59465620D01*
X25438908Y-59705219D01*
X25399500Y-59954034D01*
X20500000Y-59954034D01*
X20500000Y-53906893D01*
X25399500Y-53906893D01*
X25399500Y-56093106D01*
X25410123Y-56181565D01*
X25465637Y-56322339D01*
X25465638Y-56322341D01*
X25465639Y-56322342D01*
X25557078Y-56442922D01*
X25677658Y-56534361D01*
X25677659Y-56534361D01*
X25677660Y-56534362D01*
X25741601Y-56559577D01*
X25818436Y-56589877D01*
X25906898Y-56600500D01*
X25906900Y-56600500D01*
X28093100Y-56600500D01*
X28093102Y-56600500D01*
X28181564Y-56589877D01*
X28322342Y-56534361D01*
X28442922Y-56442922D01*
X28534361Y-56322342D01*
X28589877Y-56181564D01*
X28600500Y-56093102D01*
X28600500Y-53906898D01*
X28589877Y-53818436D01*
X28534361Y-53677658D01*
X28442922Y-53557078D01*
X28322342Y-53465639D01*
X28322341Y-53465638D01*
X28322339Y-53465637D01*
X28181565Y-53410123D01*
X28093106Y-53399500D01*
X28093102Y-53399500D01*
X25906898Y-53399500D01*
X25906893Y-53399500D01*
X25818434Y-53410123D01*
X25677660Y-53465637D01*
X25677656Y-53465640D01*
X25557081Y-53557075D01*
X25557075Y-53557081D01*
X25465640Y-53677656D01*
X25465637Y-53677660D01*
X25410123Y-53818434D01*
X25399500Y-53906893D01*
X20500000Y-53906893D01*
X20500000Y-49120943D01*
X33399500Y-49120943D01*
X33399500Y-49279057D01*
X33440423Y-49431784D01*
X33519480Y-49568716D01*
X33631284Y-49680520D01*
X33768216Y-49759577D01*
X33920943Y-49800500D01*
X33920945Y-49800500D01*
X34079055Y-49800500D01*
X34079057Y-49800500D01*
X34231784Y-49759577D01*
X34368716Y-49680520D01*
X34369741Y-49679494D01*
X34370668Y-49679022D01*
X34373866Y-49676569D01*
X34374320Y-49677161D01*
X34424256Y-49651719D01*
X34439743Y-49650500D01*
X35960257Y-49650500D01*
X36018448Y-49669407D01*
X36030254Y-49679490D01*
X36031284Y-49680520D01*
X36168216Y-49759577D01*
X36320943Y-49800500D01*
X36320945Y-49800500D01*
X36479055Y-49800500D01*
X36479057Y-49800500D01*
X36631784Y-49759577D01*
X36768716Y-49680520D01*
X36880520Y-49568716D01*
X36959577Y-49431784D01*
X37000500Y-49279057D01*
X37000500Y-49120943D01*
X36959577Y-48968216D01*
X36880520Y-48831284D01*
X36768716Y-48719480D01*
X36631784Y-48640423D01*
X36479057Y-48599500D01*
X36320943Y-48599500D01*
X36168216Y-48640423D01*
X36031284Y-48719480D01*
X36030258Y-48720505D01*
X36029331Y-48720977D01*
X36026134Y-48723431D01*
X36025679Y-48722838D01*
X35975744Y-48748281D01*
X35960257Y-48749500D01*
X34439743Y-48749500D01*
X34381552Y-48730593D01*
X34369745Y-48720509D01*
X34368716Y-48719480D01*
X34231784Y-48640423D01*
X34079057Y-48599500D01*
X33920943Y-48599500D01*
X33768216Y-48640423D01*
X33631284Y-48719480D01*
X33519480Y-48831284D01*
X33440423Y-48968216D01*
X33399500Y-49120943D01*
X20500000Y-49120943D01*
X20500000Y-37954073D01*
X25400000Y-37954073D01*
X25400000Y-38205926D01*
X25439395Y-38454663D01*
X25517221Y-38694187D01*
X25631556Y-38918582D01*
X25631560Y-38918588D01*
X25735503Y-39061652D01*
X26419668Y-38377486D01*
X26423978Y-38387890D01*
X26495112Y-38494351D01*
X26585649Y-38584888D01*
X26692110Y-38656022D01*
X26702510Y-38660330D01*
X26018346Y-39344494D01*
X26018346Y-39344495D01*
X26161411Y-39448439D01*
X26161417Y-39448443D01*
X26385812Y-39562778D01*
X26625336Y-39640604D01*
X26874074Y-39680000D01*
X27125926Y-39680000D01*
X27374663Y-39640604D01*
X27614187Y-39562778D01*
X27838582Y-39448443D01*
X27838587Y-39448439D01*
X27981652Y-39344495D01*
X27981652Y-39344494D01*
X27297488Y-38660330D01*
X27307890Y-38656022D01*
X27414351Y-38584888D01*
X27504888Y-38494351D01*
X27576022Y-38387890D01*
X27580330Y-38377488D01*
X28264494Y-39061652D01*
X28264495Y-39061652D01*
X28368439Y-38918587D01*
X28368443Y-38918582D01*
X28482778Y-38694187D01*
X28560604Y-38454663D01*
X28600000Y-38205926D01*
X28600000Y-37954073D01*
X28560604Y-37705336D01*
X28482778Y-37465812D01*
X28368443Y-37241417D01*
X28368439Y-37241411D01*
X28264495Y-37098346D01*
X28264494Y-37098346D01*
X27580330Y-37782510D01*
X27576022Y-37772110D01*
X27504888Y-37665649D01*
X27414351Y-37575112D01*
X27307890Y-37503978D01*
X27297486Y-37499668D01*
X27981652Y-36815503D01*
X27838588Y-36711560D01*
X27838582Y-36711556D01*
X27614187Y-36597221D01*
X27374663Y-36519395D01*
X27125926Y-36480000D01*
X26874074Y-36480000D01*
X26625336Y-36519395D01*
X26385812Y-36597221D01*
X26161419Y-36711555D01*
X26018347Y-36815504D01*
X26702512Y-37499669D01*
X26692110Y-37503978D01*
X26585649Y-37575112D01*
X26495112Y-37665649D01*
X26423978Y-37772110D01*
X26419669Y-37782512D01*
X25735504Y-37098347D01*
X25631555Y-37241419D01*
X25517221Y-37465812D01*
X25439395Y-37705336D01*
X25400000Y-37954073D01*
X20500000Y-37954073D01*
X20500000Y-31906893D01*
X25399500Y-31906893D01*
X25399500Y-34093106D01*
X25410123Y-34181565D01*
X25465637Y-34322339D01*
X25465638Y-34322341D01*
X25465639Y-34322342D01*
X25557078Y-34442922D01*
X25677658Y-34534361D01*
X25677659Y-34534361D01*
X25677660Y-34534362D01*
X25748047Y-34562119D01*
X25818436Y-34589877D01*
X25906898Y-34600500D01*
X25906900Y-34600500D01*
X28093100Y-34600500D01*
X28093102Y-34600500D01*
X28181564Y-34589877D01*
X28322342Y-34534361D01*
X28442922Y-34442922D01*
X28534361Y-34322342D01*
X28589877Y-34181564D01*
X28600500Y-34093102D01*
X28600500Y-31906898D01*
X28589877Y-31818436D01*
X28534361Y-31677658D01*
X28442922Y-31557078D01*
X28322342Y-31465639D01*
X28322341Y-31465638D01*
X28322339Y-31465637D01*
X28181565Y-31410123D01*
X28093106Y-31399500D01*
X28093102Y-31399500D01*
X25906898Y-31399500D01*
X25906893Y-31399500D01*
X25818434Y-31410123D01*
X25677660Y-31465637D01*
X25677656Y-31465640D01*
X25557081Y-31557075D01*
X25557075Y-31557081D01*
X25465640Y-31677656D01*
X25465637Y-31677660D01*
X25410123Y-31818434D01*
X25399500Y-31906893D01*
X20500000Y-31906893D01*
X20500000Y-28720943D01*
X66999500Y-28720943D01*
X66999500Y-28879057D01*
X67040423Y-29031784D01*
X67119480Y-29168716D01*
X67231284Y-29280520D01*
X67368216Y-29359577D01*
X67520943Y-29400500D01*
X67520945Y-29400500D01*
X67679055Y-29400500D01*
X67679057Y-29400500D01*
X67831784Y-29359577D01*
X67968716Y-29280520D01*
X67969741Y-29279494D01*
X67970668Y-29279022D01*
X67973866Y-29276569D01*
X67974320Y-29277161D01*
X68024256Y-29251719D01*
X68039743Y-29250500D01*
X69372389Y-29250500D01*
X69430580Y-29269407D01*
X69442393Y-29279496D01*
X70570504Y-30407607D01*
X70598281Y-30462124D01*
X70599500Y-30477611D01*
X70599500Y-30479057D01*
X70640423Y-30631784D01*
X70719480Y-30768716D01*
X70831284Y-30880520D01*
X70968216Y-30959577D01*
X71120943Y-31000500D01*
X71120945Y-31000500D01*
X71279055Y-31000500D01*
X71279057Y-31000500D01*
X71431784Y-30959577D01*
X71568716Y-30880520D01*
X71680520Y-30768716D01*
X71759577Y-30631784D01*
X71800500Y-30479057D01*
X71800500Y-30320943D01*
X71759577Y-30168216D01*
X71680520Y-30031284D01*
X71568716Y-29919480D01*
X71431784Y-29840423D01*
X71279057Y-29799500D01*
X71279055Y-29799500D01*
X71277612Y-29799500D01*
X71276628Y-29799180D01*
X71272623Y-29798653D01*
X71272720Y-29797910D01*
X71219421Y-29780593D01*
X71207608Y-29770504D01*
X71179822Y-29742718D01*
X69876614Y-28439511D01*
X69876611Y-28439509D01*
X69876610Y-28439508D01*
X69876609Y-28439507D01*
X69773890Y-28380202D01*
X69773886Y-28380200D01*
X69749673Y-28373712D01*
X69749673Y-28373713D01*
X69659309Y-28349500D01*
X69659307Y-28349500D01*
X68039743Y-28349500D01*
X67981552Y-28330593D01*
X67969745Y-28320509D01*
X67968716Y-28319480D01*
X67831784Y-28240423D01*
X67679057Y-28199500D01*
X67520943Y-28199500D01*
X67368216Y-28240423D01*
X67231284Y-28319480D01*
X67119480Y-28431284D01*
X67040423Y-28568216D01*
X66999500Y-28720943D01*
X20500000Y-28720943D01*
X20500000Y-26897684D01*
X53700000Y-26897684D01*
X53700000Y-27102315D01*
X53732008Y-27304412D01*
X53795243Y-27499027D01*
X53888139Y-27681348D01*
X53888143Y-27681354D01*
X53950279Y-27766876D01*
X54493843Y-27223311D01*
X54559890Y-27337708D01*
X54662292Y-27440110D01*
X54776686Y-27506154D01*
X54233122Y-28049718D01*
X54233122Y-28049719D01*
X54318645Y-28111856D01*
X54318651Y-28111860D01*
X54500972Y-28204756D01*
X54695587Y-28267991D01*
X54897685Y-28300000D01*
X55102315Y-28300000D01*
X55304412Y-28267991D01*
X55499027Y-28204756D01*
X55681348Y-28111860D01*
X55681353Y-28111856D01*
X55766876Y-28049720D01*
X55766876Y-28049719D01*
X55223312Y-27506155D01*
X55337708Y-27440110D01*
X55440110Y-27337708D01*
X55506155Y-27223312D01*
X56049719Y-27766876D01*
X56049720Y-27766876D01*
X56111856Y-27681353D01*
X56111860Y-27681348D01*
X56204756Y-27499027D01*
X56267991Y-27304412D01*
X56300000Y-27102315D01*
X56300000Y-26897684D01*
X60200000Y-26897684D01*
X60200000Y-27102315D01*
X60232008Y-27304412D01*
X60295243Y-27499027D01*
X60388139Y-27681348D01*
X60388143Y-27681354D01*
X60450279Y-27766876D01*
X60993843Y-27223311D01*
X61059890Y-27337708D01*
X61162292Y-27440110D01*
X61276686Y-27506154D01*
X60733122Y-28049718D01*
X60733122Y-28049719D01*
X60818645Y-28111856D01*
X60818651Y-28111860D01*
X61000972Y-28204756D01*
X61195587Y-28267991D01*
X61397685Y-28300000D01*
X61602315Y-28300000D01*
X61804412Y-28267991D01*
X61999027Y-28204756D01*
X62181348Y-28111860D01*
X62181353Y-28111856D01*
X62266876Y-28049720D01*
X62266876Y-28049719D01*
X61723312Y-27506155D01*
X61837708Y-27440110D01*
X61940110Y-27337708D01*
X62006155Y-27223312D01*
X62549719Y-27766876D01*
X62549720Y-27766876D01*
X62611856Y-27681353D01*
X62611860Y-27681348D01*
X62704756Y-27499027D01*
X62767991Y-27304412D01*
X62800000Y-27102315D01*
X62800000Y-26897684D01*
X62767991Y-26695587D01*
X62704756Y-26500972D01*
X62611860Y-26318651D01*
X62611856Y-26318645D01*
X62549719Y-26233122D01*
X62549718Y-26233122D01*
X62006154Y-26776686D01*
X61940110Y-26662292D01*
X61837708Y-26559890D01*
X61723311Y-26493843D01*
X62266876Y-25950279D01*
X62181354Y-25888143D01*
X62181348Y-25888139D01*
X61999027Y-25795243D01*
X61804412Y-25732008D01*
X61602315Y-25700000D01*
X61397685Y-25700000D01*
X61195587Y-25732008D01*
X61000972Y-25795243D01*
X60818651Y-25888139D01*
X60818647Y-25888141D01*
X60733122Y-25950279D01*
X61276687Y-26493844D01*
X61162292Y-26559890D01*
X61059890Y-26662292D01*
X60993844Y-26776687D01*
X60450279Y-26233122D01*
X60388141Y-26318647D01*
X60388139Y-26318651D01*
X60295243Y-26500972D01*
X60232008Y-26695587D01*
X60200000Y-26897684D01*
X56300000Y-26897684D01*
X56267991Y-26695587D01*
X56204756Y-26500972D01*
X56111860Y-26318651D01*
X56111856Y-26318645D01*
X56049719Y-26233122D01*
X56049718Y-26233122D01*
X55506154Y-26776686D01*
X55440110Y-26662292D01*
X55337708Y-26559890D01*
X55223311Y-26493843D01*
X55766876Y-25950279D01*
X55681354Y-25888143D01*
X55681348Y-25888139D01*
X55499027Y-25795243D01*
X55304412Y-25732008D01*
X55102315Y-25700000D01*
X54897685Y-25700000D01*
X54695587Y-25732008D01*
X54500972Y-25795243D01*
X54318651Y-25888139D01*
X54318647Y-25888141D01*
X54233122Y-25950279D01*
X54776687Y-26493844D01*
X54662292Y-26559890D01*
X54559890Y-26662292D01*
X54493844Y-26776687D01*
X53950279Y-26233122D01*
X53888141Y-26318647D01*
X53888139Y-26318651D01*
X53795243Y-26500972D01*
X53732008Y-26695587D01*
X53700000Y-26897684D01*
X20500000Y-26897684D01*
X20500000Y-22397644D01*
X53699500Y-22397644D01*
X53699500Y-22602355D01*
X53731521Y-22804529D01*
X53794780Y-22999219D01*
X53887712Y-23181609D01*
X53887714Y-23181613D01*
X54008029Y-23347213D01*
X54008031Y-23347215D01*
X54008034Y-23347219D01*
X54152781Y-23491966D01*
X54152784Y-23491968D01*
X54152786Y-23491970D01*
X54318386Y-23612285D01*
X54318390Y-23612287D01*
X54500781Y-23705220D01*
X54695466Y-23768477D01*
X54695467Y-23768477D01*
X54695470Y-23768478D01*
X54897645Y-23800500D01*
X54897648Y-23800500D01*
X55102355Y-23800500D01*
X55304529Y-23768478D01*
X55304530Y-23768477D01*
X55304534Y-23768477D01*
X55499219Y-23705220D01*
X55681610Y-23612287D01*
X55847219Y-23491966D01*
X55991966Y-23347219D01*
X56112287Y-23181610D01*
X56205220Y-22999219D01*
X56268477Y-22804534D01*
X56300500Y-22602352D01*
X56300500Y-22397648D01*
X56300500Y-22397644D01*
X60199500Y-22397644D01*
X60199500Y-22602355D01*
X60231521Y-22804529D01*
X60294780Y-22999219D01*
X60387712Y-23181609D01*
X60387714Y-23181613D01*
X60508029Y-23347213D01*
X60508031Y-23347215D01*
X60508034Y-23347219D01*
X60652781Y-23491966D01*
X60652784Y-23491968D01*
X60652786Y-23491970D01*
X60818386Y-23612285D01*
X60818390Y-23612287D01*
X61000781Y-23705220D01*
X61195466Y-23768477D01*
X61195467Y-23768477D01*
X61195470Y-23768478D01*
X61397645Y-23800500D01*
X61397648Y-23800500D01*
X61602355Y-23800500D01*
X61804529Y-23768478D01*
X61804530Y-23768477D01*
X61804534Y-23768477D01*
X61999219Y-23705220D01*
X62181610Y-23612287D01*
X62347219Y-23491966D01*
X62491966Y-23347219D01*
X62612287Y-23181610D01*
X62705220Y-22999219D01*
X62768477Y-22804534D01*
X62800500Y-22602352D01*
X62800500Y-22397648D01*
X62800500Y-22397644D01*
X62768478Y-22195470D01*
X62768477Y-22195466D01*
X62705220Y-22000781D01*
X62612287Y-21818390D01*
X62612285Y-21818386D01*
X62491970Y-21652786D01*
X62491968Y-21652784D01*
X62491966Y-21652781D01*
X62347219Y-21508034D01*
X62347215Y-21508031D01*
X62347213Y-21508029D01*
X62181613Y-21387714D01*
X62181609Y-21387712D01*
X61999219Y-21294780D01*
X61804529Y-21231521D01*
X61602355Y-21199500D01*
X61602352Y-21199500D01*
X61397648Y-21199500D01*
X61397645Y-21199500D01*
X61195470Y-21231521D01*
X61000780Y-21294780D01*
X60818390Y-21387712D01*
X60818386Y-21387714D01*
X60652786Y-21508029D01*
X60508029Y-21652786D01*
X60387714Y-21818386D01*
X60387712Y-21818390D01*
X60294780Y-22000780D01*
X60231521Y-22195470D01*
X60199500Y-22397644D01*
X56300500Y-22397644D01*
X56268478Y-22195470D01*
X56268477Y-22195466D01*
X56205220Y-22000781D01*
X56112287Y-21818390D01*
X56112285Y-21818386D01*
X55991970Y-21652786D01*
X55991968Y-21652784D01*
X55991966Y-21652781D01*
X55847219Y-21508034D01*
X55847215Y-21508031D01*
X55847213Y-21508029D01*
X55681613Y-21387714D01*
X55681609Y-21387712D01*
X55499219Y-21294780D01*
X55304529Y-21231521D01*
X55102355Y-21199500D01*
X55102352Y-21199500D01*
X54897648Y-21199500D01*
X54897645Y-21199500D01*
X54695470Y-21231521D01*
X54500780Y-21294780D01*
X54318390Y-21387712D01*
X54318386Y-21387714D01*
X54152786Y-21508029D01*
X54008029Y-21652786D01*
X53887714Y-21818386D01*
X53887712Y-21818390D01*
X53794780Y-22000780D01*
X53731521Y-22195470D01*
X53699500Y-22397644D01*
X20500000Y-22397644D01*
X20500000Y-20599000D01*
X20518907Y-20540809D01*
X20568407Y-20504845D01*
X20599000Y-20500000D01*
X63901000Y-20500000D01*
X63959191Y-20518907D01*
G37*
%TD.AperFunction*%
%TD*%
M02*
