M48
; DRILL file KiCad 10.0.5 date 2026-07-30T15:12:12
; FORMAT={-:-/ absolute / metric / decimal}
; #@! TF.CreationDate,2026-07-30T15:12:12-07:00
; #@! TF.GenerationSoftware,Kicad,Pcbnew,10.0.5
; #@! TF.FileFunction,MixedPlating,1,2
FMAT,2
METRIC
; #@! TA.AperFunction,Plated,PTH,ViaDrill
T1C0.300
; #@! TA.AperFunction,Plated,PTH,ComponentDrill
T2C0.300
; #@! TA.AperFunction,Plated,PTH,ComponentDrill
T3C0.500
; #@! TA.AperFunction,Plated,PTH,ComponentDrill
T4C0.600
; #@! TA.AperFunction,Plated,PTH,ComponentDrill
T5C1.000
; #@! TA.AperFunction,Plated,PTH,ComponentDrill
T6C1.190
; #@! TA.AperFunction,Plated,PTH,ComponentDrill
T7C1.300
; #@! TA.AperFunction,Plated,PTH,ComponentDrill
T8C3.200
; #@! TA.AperFunction,NonPlated,NPTH,ComponentDrill
T9C0.650
%
G90
G05
T1
X24.0Y-30.0
X24.0Y-36.0
X24.0Y-42.0
X24.0Y-48.0
X24.0Y-54.0
X24.0Y-60.0
X24.0Y-66.0
X24.0Y-72.0
X24.0Y-78.0
X24.0Y-84.0
X24.0Y-90.0
X30.0Y-24.0
X30.0Y-36.0
X30.0Y-42.0
X30.0Y-48.0
X30.0Y-60.0
X30.0Y-66.0
X30.0Y-72.0
X30.0Y-78.0
X30.0Y-84.0
X31.2Y-56.0
X34.0Y-48.0
X36.0Y-24.0
X36.0Y-30.0
X36.0Y-36.0
X36.0Y-54.0
X36.0Y-60.0
X36.0Y-66.0
X36.0Y-72.0
X36.0Y-78.0
X36.0Y-84.0
X36.4Y-48.0
X42.0Y-24.0
X42.0Y-42.0
X42.0Y-48.0
X42.0Y-54.0
X42.0Y-60.0
X42.0Y-66.0
X42.0Y-72.0
X42.0Y-78.0
X42.0Y-90.0
X44.0Y-82.4
X48.0Y-24.0
X48.0Y-42.0
X48.0Y-48.0
X48.0Y-54.0
X48.0Y-60.0
X48.0Y-66.0
X50.0Y-84.4
X54.0Y-24.0
X54.0Y-30.0
X54.0Y-36.0
X54.0Y-42.0
X54.0Y-48.0
X54.0Y-54.0
X54.0Y-60.0
X54.0Y-72.0
X54.0Y-79.6
X54.0Y-83.2
X58.0Y-83.2
X59.6Y-83.2
X60.0Y-30.0
X60.0Y-36.0
X60.0Y-42.0
X60.0Y-48.0
X60.0Y-54.0
X60.0Y-66.0
X60.0Y-72.0
X60.0Y-90.0
X62.0Y-80.8
X63.2Y-78.0
X63.2Y-83.2
X64.4Y-80.8
X66.0Y-26.8
X66.0Y-27.6
X66.0Y-36.0
X66.0Y-42.0
X66.0Y-48.0
X66.0Y-60.0
X66.0Y-66.0
X66.0Y-84.0
X66.0Y-90.0
X66.4Y-30.0
X66.8Y-28.8
X69.2Y-28.8
X69.2Y-80.4
X72.0Y-36.0
X72.0Y-42.0
X72.0Y-54.0
X72.0Y-60.0
X72.0Y-96.0
X73.6Y-38.4
X73.6Y-48.8
X74.4Y-38.4
X74.4Y-48.0
X75.2Y-38.4
X75.2Y-46.0
X75.2Y-47.6
X75.2Y-78.8
X76.0Y-76.4
X76.0Y-78.8
X76.4Y-38.4
X76.4Y-44.8
X77.2Y-44.0
X78.0Y-38.4
X78.0Y-90.0
X80.8Y-42.0
X81.2Y-62.8
X82.0Y-28.0
X82.0Y-55.2
X82.0Y-78.8
X82.8Y-52.8
X82.8Y-78.8
X83.6Y-44.0
X83.6Y-65.6
X84.0Y-30.0
X84.0Y-36.0
X84.0Y-42.0
X84.0Y-84.0
X84.0Y-90.0
X84.4Y-46.8
X84.4Y-48.4
X84.4Y-63.2
X85.2Y-60.8
X86.4Y-46.8
X86.8Y-74.8
X86.8Y-76.4
X87.2Y-44.0
X87.2Y-47.6
X87.2Y-74.0
X88.0Y-50.8
X88.4Y-78.8
X88.8Y-51.6
X88.8Y-70.8
X89.2Y-72.4
X90.0Y-30.0
X90.0Y-36.0
X90.0Y-54.0
X90.0Y-66.0
X90.0Y-84.0
X90.0Y-90.0
X90.0Y-96.0
X92.0Y-76.4
X92.0Y-78.8
X92.8Y-89.6
X93.2Y-47.2
X93.2Y-85.6
X94.4Y-89.6
X95.6Y-78.8
X95.6Y-88.0
X95.6Y-89.6
X96.0Y-48.0
X96.0Y-60.0
X96.0Y-85.4
X96.0Y-96.0
X96.8Y-53.6
X96.8Y-72.8
X96.8Y-88.0
X96.8Y-89.6
X97.6Y-54.4
X97.6Y-90.0
X97.6Y-92.8
X98.4Y-56.4
X99.2Y-47.6
X100.0Y-38.8
X100.4Y-47.6
X100.4Y-57.2
X101.6Y-64.0
X102.0Y-30.0
X102.0Y-72.0
X102.0Y-78.0
X102.0Y-90.0
X102.8Y-47.6
X102.8Y-56.0
X102.8Y-57.2
X102.8Y-61.2
X108.0Y-30.0
X108.0Y-36.0
X108.0Y-42.0
X108.0Y-48.0
X108.0Y-54.0
X108.0Y-60.0
X108.0Y-72.0
X108.0Y-78.0
X108.0Y-84.0
X108.0Y-90.0
X108.0Y-96.0
X114.0Y-30.0
X114.0Y-36.0
X114.0Y-42.0
X114.0Y-48.0
X114.0Y-54.0
X114.0Y-72.0
X114.0Y-78.0
X114.0Y-84.0
X114.0Y-90.0
T2
X85.1Y-34.76
X85.1Y-36.16
X85.8Y-34.06
X85.8Y-35.46
X85.8Y-36.86
X86.5Y-34.76
X86.5Y-36.16
X87.2Y-34.06
X87.2Y-35.46
X87.2Y-36.86
X87.9Y-34.76
X87.9Y-36.16
T3
X23.1Y-25.0
X23.1Y-95.0
X23.803Y-23.303
X23.803Y-26.697
X23.803Y-93.303
X23.803Y-96.697
X25.5Y-22.6
X25.5Y-27.4
X25.5Y-92.6
X25.5Y-97.4
X27.197Y-23.303
X27.197Y-26.697
X27.197Y-93.303
X27.197Y-96.697
X27.9Y-25.0
X27.9Y-95.0
X113.1Y-25.0
X113.1Y-95.0
X113.803Y-23.303
X113.803Y-26.697
X113.803Y-93.303
X113.803Y-96.697
X115.5Y-22.6
X115.5Y-27.4
X115.5Y-92.6
X115.5Y-97.4
X117.197Y-23.303
X117.197Y-26.697
X117.197Y-93.303
X117.197Y-96.697
X117.9Y-25.0
X117.9Y-95.0
T5
X38.0Y-78.0
X45.6Y-78.0
T6
X31.0Y-95.0
X33.54Y-95.0
X36.08Y-95.0
X38.62Y-95.0
X41.16Y-95.0
X43.7Y-95.0
X46.24Y-95.0
X48.78Y-95.0
X53.0Y-95.0
X55.54Y-95.0
X58.08Y-95.0
X60.62Y-95.0
X63.16Y-95.0
X65.7Y-95.0
X70.5Y-95.0
X73.04Y-95.0
X75.58Y-95.0
X78.12Y-95.0
X80.66Y-95.0
X83.2Y-95.0
X85.74Y-95.0
X88.28Y-95.0
T7
X27.0Y-33.0
X27.0Y-38.08
X27.0Y-55.0
X27.0Y-60.08
X114.0Y-59.92
X114.0Y-65.0
T8
X25.5Y-25.0
X25.5Y-95.0
X115.5Y-25.0
X115.5Y-95.0
T9
X93.11Y-93.0
X98.89Y-93.0
T4
X91.68Y-91.92G85X91.68Y-93.02
G05
X91.68Y-96.35G85X91.68Y-96.95
G05
X100.32Y-91.92G85X100.32Y-93.02
G05
X100.32Y-96.35G85X100.32Y-96.95
G05
M30
