%TF.GenerationSoftware,KiCad,Pcbnew,10.0.4*%
%TF.CreationDate,2026-07-21T14:05:12-07:00*%
%TF.ProjectId,bisque-controller,62697371-7565-42d6-936f-6e74726f6c6c,rev?*%
%TF.SameCoordinates,Original*%
%TF.FileFunction,Paste,Top*%
%TF.FilePolarity,Positive*%
%FSLAX46Y46*%
G04 Gerber Fmt 4.6, Leading zero omitted, Abs format (unit mm)*
G04 Created by KiCad (PCBNEW 10.0.4) date 2026-07-21 14:05:12*
%MOMM*%
%LPD*%
G01*
G04 APERTURE LIST*
G04 Aperture macros list*
%AMRoundRect*
0 Rectangle with rounded corners*
0 $1 Rounding radius*
0 $2 $3 $4 $5 $6 $7 $8 $9 X,Y pos of 4 corners*
0 Add a 4 corners polygon primitive as box body*
4,1,4,$2,$3,$4,$5,$6,$7,$8,$9,$2,$3,0*
0 Add four circle primitives for the rounded corners*
1,1,$1+$1,$2,$3*
1,1,$1+$1,$4,$5*
1,1,$1+$1,$6,$7*
1,1,$1+$1,$8,$9*
0 Add four rect primitives between the rounded corners*
20,1,$1+$1,$2,$3,$4,$5,0*
20,1,$1+$1,$4,$5,$6,$7,0*
20,1,$1+$1,$6,$7,$8,$9,0*
20,1,$1+$1,$8,$9,$2,$3,0*%
G04 Aperture macros list end*
%ADD10RoundRect,0.250000X-0.450000X0.262500X-0.450000X-0.262500X0.450000X-0.262500X0.450000X0.262500X0*%
%ADD11RoundRect,0.250000X-0.250000X-0.475000X0.250000X-0.475000X0.250000X0.475000X-0.250000X0.475000X0*%
%ADD12RoundRect,0.250000X0.475000X-0.250000X0.475000X0.250000X-0.475000X0.250000X-0.475000X-0.250000X0*%
%ADD13RoundRect,0.150000X-0.587500X-0.150000X0.587500X-0.150000X0.587500X0.150000X-0.587500X0.150000X0*%
%ADD14RoundRect,0.225000X-0.225000X-0.375000X0.225000X-0.375000X0.225000X0.375000X-0.225000X0.375000X0*%
%ADD15RoundRect,0.250000X0.262500X0.450000X-0.262500X0.450000X-0.262500X-0.450000X0.262500X-0.450000X0*%
%ADD16RoundRect,0.250000X-0.650000X0.325000X-0.650000X-0.325000X0.650000X-0.325000X0.650000X0.325000X0*%
%ADD17RoundRect,0.250000X0.450000X-0.262500X0.450000X0.262500X-0.450000X0.262500X-0.450000X-0.262500X0*%
%ADD18RoundRect,0.150000X-0.150000X-0.575000X0.150000X-0.575000X0.150000X0.575000X-0.150000X0.575000X0*%
%ADD19RoundRect,0.075000X-0.075000X-0.650000X0.075000X-0.650000X0.075000X0.650000X-0.075000X0.650000X0*%
%ADD20RoundRect,0.250000X-0.262500X-0.450000X0.262500X-0.450000X0.262500X0.450000X-0.262500X0.450000X0*%
%ADD21RoundRect,0.090000X-0.660000X-0.360000X0.660000X-0.360000X0.660000X0.360000X-0.660000X0.360000X0*%
%ADD22RoundRect,0.250000X0.650000X-1.000000X0.650000X1.000000X-0.650000X1.000000X-0.650000X-1.000000X0*%
%ADD23RoundRect,0.243750X-0.456250X0.243750X-0.456250X-0.243750X0.456250X-0.243750X0.456250X0.243750X0*%
%ADD24RoundRect,0.250000X-0.650000X1.000000X-0.650000X-1.000000X0.650000X-1.000000X0.650000X1.000000X0*%
%ADD25RoundRect,0.250000X-0.475000X0.250000X-0.475000X-0.250000X0.475000X-0.250000X0.475000X0.250000X0*%
%ADD26RoundRect,0.250000X0.650000X-0.325000X0.650000X0.325000X-0.650000X0.325000X-0.650000X-0.325000X0*%
%ADD27R,0.900000X0.900000*%
%ADD28R,1.500000X0.900000*%
%ADD29R,0.900000X1.500000*%
%ADD30RoundRect,0.375000X-0.625000X-0.375000X0.625000X-0.375000X0.625000X0.375000X-0.625000X0.375000X0*%
%ADD31RoundRect,0.500000X-0.500000X-1.400000X0.500000X-1.400000X0.500000X1.400000X-0.500000X1.400000X0*%
%ADD32RoundRect,0.150000X0.150000X-0.825000X0.150000X0.825000X-0.150000X0.825000X-0.150000X-0.825000X0*%
%ADD33RoundRect,0.150000X0.150000X-0.512500X0.150000X0.512500X-0.150000X0.512500X-0.150000X-0.512500X0*%
%ADD34RoundRect,0.250000X1.000000X0.650000X-1.000000X0.650000X-1.000000X-0.650000X1.000000X-0.650000X0*%
G04 APERTURE END LIST*
D10*
%TO.C,R9*%
X65500000Y-31587500D03*
X65500000Y-33412500D03*
%TD*%
D11*
%TO.C,C9*%
X104350000Y-67500000D03*
X106250000Y-67500000D03*
%TD*%
D12*
%TO.C,C2*%
X44500000Y-33450000D03*
X44500000Y-31550000D03*
%TD*%
D13*
%TO.C,Q1*%
X41062500Y-56050000D03*
X41062500Y-57950000D03*
X42937500Y-57000000D03*
%TD*%
D14*
%TO.C,D4*%
X47850000Y-84000000D03*
X51150000Y-84000000D03*
%TD*%
D15*
%TO.C,R6*%
X46912500Y-53000000D03*
X45087500Y-53000000D03*
%TD*%
D10*
%TO.C,R2*%
X103400000Y-34087500D03*
X103400000Y-35912500D03*
%TD*%
D16*
%TO.C,C3*%
X57000000Y-31025000D03*
X57000000Y-33975000D03*
%TD*%
D17*
%TO.C,R8*%
X62000000Y-78412500D03*
X62000000Y-76587500D03*
%TD*%
D18*
%TO.C,J1*%
X85750000Y-91555000D03*
X86550000Y-91555000D03*
D19*
X87750000Y-91555000D03*
X88750000Y-91555000D03*
X89250000Y-91555000D03*
X90250000Y-91555000D03*
D18*
X91450000Y-91555000D03*
X92250000Y-91555000D03*
X92250000Y-91555000D03*
X91450000Y-91555000D03*
D19*
X90750000Y-91555000D03*
X89750000Y-91555000D03*
X88250000Y-91555000D03*
X87250000Y-91555000D03*
D18*
X86550000Y-91555000D03*
X85750000Y-91555000D03*
%TD*%
D20*
%TO.C,R11*%
X57887500Y-74000000D03*
X59712500Y-74000000D03*
%TD*%
D21*
%TO.C,LED1*%
X72550000Y-84350000D03*
X72550000Y-87650000D03*
X77450000Y-87650000D03*
X77450000Y-84350000D03*
%TD*%
D12*
%TO.C,C8*%
X100300000Y-62950000D03*
X100300000Y-61050000D03*
%TD*%
D11*
%TO.C,C12*%
X25550000Y-90500000D03*
X27450000Y-90500000D03*
%TD*%
%TO.C,C7*%
X73050000Y-27600000D03*
X74950000Y-27600000D03*
%TD*%
D22*
%TO.C,D3*%
X72550000Y-81500000D03*
X72550000Y-77500000D03*
%TD*%
D17*
%TO.C,R7*%
X41000000Y-52912500D03*
X41000000Y-51087500D03*
%TD*%
D20*
%TO.C,R5*%
X95587500Y-97900000D03*
X97412500Y-97900000D03*
%TD*%
D23*
%TO.C,LED2*%
X63000000Y-31562500D03*
X63000000Y-33437500D03*
%TD*%
D24*
%TO.C,D2*%
X95500000Y-84000000D03*
X95500000Y-88000000D03*
%TD*%
D25*
%TO.C,C4*%
X59500000Y-31550000D03*
X59500000Y-33450000D03*
%TD*%
D11*
%TO.C,C10*%
X68050000Y-81500000D03*
X69950000Y-81500000D03*
%TD*%
D26*
%TO.C,C1*%
X44500000Y-29475000D03*
X44500000Y-26525000D03*
%TD*%
D15*
%TO.C,R3*%
X82912500Y-84350000D03*
X81087500Y-84350000D03*
%TD*%
D17*
%TO.C,R1*%
X64800000Y-29412500D03*
X64800000Y-27587500D03*
%TD*%
D27*
%TO.C,U1*%
X85100000Y-34060000D03*
X85100000Y-35460000D03*
X85100000Y-36860000D03*
X86500000Y-34060000D03*
X86500000Y-35460000D03*
X86500000Y-36860000D03*
X87900000Y-34060000D03*
X87900000Y-35460000D03*
X87900000Y-36860000D03*
D28*
X79250000Y-27740000D03*
X79250000Y-29010000D03*
X79250000Y-30280000D03*
X79250000Y-31550000D03*
X79250000Y-32820000D03*
X79250000Y-34090000D03*
X79250000Y-35360000D03*
X79250000Y-36630000D03*
X79250000Y-37900000D03*
X79250000Y-39170000D03*
X79250000Y-40440000D03*
X79250000Y-41710000D03*
X79250000Y-42980000D03*
X79250000Y-44250000D03*
D29*
X81015000Y-45500000D03*
X82285000Y-45500000D03*
X83555000Y-45500000D03*
X84825000Y-45500000D03*
X86095000Y-45500000D03*
X87365000Y-45500000D03*
X88635000Y-45500000D03*
X89905000Y-45500000D03*
X91175000Y-45500000D03*
X92445000Y-45500000D03*
X93715000Y-45500000D03*
X94985000Y-45500000D03*
D28*
X96750000Y-44250000D03*
X96750000Y-42980000D03*
X96750000Y-41710000D03*
X96750000Y-40440000D03*
X96750000Y-39170000D03*
X96750000Y-37900000D03*
X96750000Y-36630000D03*
X96750000Y-35360000D03*
X96750000Y-34090000D03*
X96750000Y-32820000D03*
X96750000Y-31550000D03*
X96750000Y-30280000D03*
X96750000Y-29010000D03*
X96750000Y-27740000D03*
%TD*%
D30*
%TO.C,U2*%
X47850000Y-31200000D03*
X47850000Y-33500000D03*
D31*
X54150000Y-33500000D03*
D30*
X47850000Y-35800000D03*
%TD*%
D32*
%TO.C,U3*%
X102595000Y-64475000D03*
X103865000Y-64475000D03*
X105135000Y-64475000D03*
X106405000Y-64475000D03*
X106405000Y-59525000D03*
X105135000Y-59525000D03*
X103865000Y-59525000D03*
X102595000Y-59525000D03*
%TD*%
D11*
%TO.C,C5*%
X67050000Y-28700000D03*
X68950000Y-28700000D03*
%TD*%
D13*
%TO.C,Q2*%
X57062500Y-79050000D03*
X57062500Y-80950000D03*
X58937500Y-80000000D03*
%TD*%
D17*
%TO.C,R4*%
X84000000Y-88912500D03*
X84000000Y-87087500D03*
%TD*%
D33*
%TO.C,U4*%
X88050000Y-83137500D03*
X89000000Y-83137500D03*
X89950000Y-83137500D03*
X89950000Y-80862500D03*
X89000000Y-80862500D03*
X88050000Y-80862500D03*
%TD*%
D23*
%TO.C,LED3*%
X33000000Y-49062500D03*
X33000000Y-50937500D03*
%TD*%
D12*
%TO.C,C6*%
X76800000Y-28950000D03*
X76800000Y-27050000D03*
%TD*%
D34*
%TO.C,D1*%
X40000000Y-28000000D03*
X36000000Y-28000000D03*
%TD*%
D17*
%TO.C,R10*%
X36500000Y-50912500D03*
X36500000Y-49087500D03*
%TD*%
M02*
