%TF.GenerationSoftware,KiCad,Pcbnew,10.0.4*%
%TF.CreationDate,2026-07-21T14:05:12-07:00*%
%TF.ProjectId,bisque-controller,62697371-7565-42d6-936f-6e74726f6c6c,rev?*%
%TF.SameCoordinates,Original*%
%TF.FileFunction,Drillmap*%
%TF.FilePolarity,Positive*%
%FSLAX45Y45*%
G04 Gerber Fmt 4.5, Leading zero omitted, Abs format (unit mm)*
G04 Created by KiCad (PCBNEW 10.0.4) date 2026-07-21 14:05:12*
%MOMM*%
%LPD*%
G01*
G04 APERTURE LIST*
%ADD10C,0.100000*%
%ADD11C,0.200000*%
%ADD12C,0.110000*%
%ADD13C,0.119000*%
%ADD14C,0.130000*%
%ADD15C,0.320000*%
G04 APERTURE END LIST*
D10*
X2000000Y-2000000D02*
X12000000Y-2000000D01*
X2000000Y-10000000D02*
X2000000Y-2000000D01*
X12000000Y-2000000D02*
X12000000Y-10000000D01*
X12000000Y-10000000D02*
X2000000Y-10000000D01*
D11*
D10*
X2385000Y-2985000D02*
X2415000Y-3015000D01*
X2415000Y-2985000D02*
X2385000Y-3015000D01*
X2385000Y-3585000D02*
X2415000Y-3615000D01*
X2415000Y-3585000D02*
X2385000Y-3615000D01*
X2385000Y-4185000D02*
X2415000Y-4215000D01*
X2415000Y-4185000D02*
X2385000Y-4215000D01*
X2385000Y-4785000D02*
X2415000Y-4815000D01*
X2415000Y-4785000D02*
X2385000Y-4815000D01*
X2385000Y-5385000D02*
X2415000Y-5415000D01*
X2415000Y-5385000D02*
X2385000Y-5415000D01*
X2385000Y-5985000D02*
X2415000Y-6015000D01*
X2415000Y-5985000D02*
X2385000Y-6015000D01*
X2385000Y-7185000D02*
X2415000Y-7215000D01*
X2415000Y-7185000D02*
X2385000Y-7215000D01*
X2385000Y-7785000D02*
X2415000Y-7815000D01*
X2415000Y-7785000D02*
X2385000Y-7815000D01*
X2385000Y-8385000D02*
X2415000Y-8415000D01*
X2415000Y-8385000D02*
X2385000Y-8415000D01*
X2385000Y-8985000D02*
X2415000Y-9015000D01*
X2415000Y-8985000D02*
X2385000Y-9015000D01*
X2985000Y-2385000D02*
X3015000Y-2415000D01*
X3015000Y-2385000D02*
X2985000Y-2415000D01*
X2985000Y-3585000D02*
X3015000Y-3615000D01*
X3015000Y-3585000D02*
X2985000Y-3615000D01*
X2985000Y-4185000D02*
X3015000Y-4215000D01*
X3015000Y-4185000D02*
X2985000Y-4215000D01*
X2985000Y-4785000D02*
X3015000Y-4815000D01*
X3015000Y-4785000D02*
X2985000Y-4815000D01*
X2985000Y-5985000D02*
X3015000Y-6015000D01*
X3015000Y-5985000D02*
X2985000Y-6015000D01*
X2985000Y-6585000D02*
X3015000Y-6615000D01*
X3015000Y-6585000D02*
X2985000Y-6615000D01*
X2985000Y-7185000D02*
X3015000Y-7215000D01*
X3015000Y-7185000D02*
X2985000Y-7215000D01*
X2985000Y-7785000D02*
X3015000Y-7815000D01*
X3015000Y-7785000D02*
X2985000Y-7815000D01*
X2985000Y-8385000D02*
X3015000Y-8415000D01*
X3015000Y-8385000D02*
X2985000Y-8415000D01*
X2985000Y-8985000D02*
X3015000Y-9015000D01*
X3015000Y-8985000D02*
X2985000Y-9015000D01*
X3105000Y-5585000D02*
X3135000Y-5615000D01*
X3135000Y-5585000D02*
X3105000Y-5615000D01*
X3385000Y-4905000D02*
X3415000Y-4935000D01*
X3415000Y-4905000D02*
X3385000Y-4935000D01*
X3585000Y-2385000D02*
X3615000Y-2415000D01*
X3615000Y-2385000D02*
X3585000Y-2415000D01*
X3585000Y-2985000D02*
X3615000Y-3015000D01*
X3615000Y-2985000D02*
X3585000Y-3015000D01*
X3585000Y-3585000D02*
X3615000Y-3615000D01*
X3615000Y-3585000D02*
X3585000Y-3615000D01*
X3585000Y-5385000D02*
X3615000Y-5415000D01*
X3615000Y-5385000D02*
X3585000Y-5415000D01*
X3585000Y-5985000D02*
X3615000Y-6015000D01*
X3615000Y-5985000D02*
X3585000Y-6015000D01*
X3585000Y-6585000D02*
X3615000Y-6615000D01*
X3615000Y-6585000D02*
X3585000Y-6615000D01*
X3585000Y-7185000D02*
X3615000Y-7215000D01*
X3615000Y-7185000D02*
X3585000Y-7215000D01*
X3585000Y-7785000D02*
X3615000Y-7815000D01*
X3615000Y-7785000D02*
X3585000Y-7815000D01*
X3585000Y-8385000D02*
X3615000Y-8415000D01*
X3615000Y-8385000D02*
X3585000Y-8415000D01*
X3625000Y-4905000D02*
X3655000Y-4935000D01*
X3655000Y-4905000D02*
X3625000Y-4935000D01*
X4185000Y-2385000D02*
X4215000Y-2415000D01*
X4215000Y-2385000D02*
X4185000Y-2415000D01*
X4185000Y-4185000D02*
X4215000Y-4215000D01*
X4215000Y-4185000D02*
X4185000Y-4215000D01*
X4185000Y-4785000D02*
X4215000Y-4815000D01*
X4215000Y-4785000D02*
X4185000Y-4815000D01*
X4185000Y-5385000D02*
X4215000Y-5415000D01*
X4215000Y-5385000D02*
X4185000Y-5415000D01*
X4185000Y-5985000D02*
X4215000Y-6015000D01*
X4215000Y-5985000D02*
X4185000Y-6015000D01*
X4185000Y-6585000D02*
X4215000Y-6615000D01*
X4215000Y-6585000D02*
X4185000Y-6615000D01*
X4185000Y-7185000D02*
X4215000Y-7215000D01*
X4215000Y-7185000D02*
X4185000Y-7215000D01*
X4185000Y-7785000D02*
X4215000Y-7815000D01*
X4215000Y-7785000D02*
X4185000Y-7815000D01*
X4265000Y-8105000D02*
X4295000Y-8135000D01*
X4295000Y-8105000D02*
X4265000Y-8135000D01*
X4385000Y-7465000D02*
X4415000Y-7495000D01*
X4415000Y-7465000D02*
X4385000Y-7495000D01*
X4385000Y-8225000D02*
X4415000Y-8255000D01*
X4415000Y-8225000D02*
X4385000Y-8255000D01*
X4425000Y-8585000D02*
X4455000Y-8615000D01*
X4455000Y-8585000D02*
X4425000Y-8615000D01*
X4465000Y-8825000D02*
X4495000Y-8855000D01*
X4495000Y-8825000D02*
X4465000Y-8855000D01*
X4585000Y-8945000D02*
X4615000Y-8975000D01*
X4615000Y-8945000D02*
X4585000Y-8975000D01*
X4785000Y-2385000D02*
X4815000Y-2415000D01*
X4815000Y-2385000D02*
X4785000Y-2415000D01*
X4785000Y-2985000D02*
X4815000Y-3015000D01*
X4815000Y-2985000D02*
X4785000Y-3015000D01*
X4785000Y-4185000D02*
X4815000Y-4215000D01*
X4815000Y-4185000D02*
X4785000Y-4215000D01*
X4785000Y-4785000D02*
X4815000Y-4815000D01*
X4815000Y-4785000D02*
X4785000Y-4815000D01*
X4785000Y-5385000D02*
X4815000Y-5415000D01*
X4815000Y-5385000D02*
X4785000Y-5415000D01*
X4785000Y-5985000D02*
X4815000Y-6015000D01*
X4815000Y-5985000D02*
X4785000Y-6015000D01*
X4785000Y-6585000D02*
X4815000Y-6615000D01*
X4815000Y-6585000D02*
X4785000Y-6615000D01*
X5105000Y-8345000D02*
X5135000Y-8375000D01*
X5135000Y-8345000D02*
X5105000Y-8375000D01*
X5385000Y-2385000D02*
X5415000Y-2415000D01*
X5415000Y-2385000D02*
X5385000Y-2415000D01*
X5385000Y-2985000D02*
X5415000Y-3015000D01*
X5415000Y-2985000D02*
X5385000Y-3015000D01*
X5385000Y-3585000D02*
X5415000Y-3615000D01*
X5415000Y-3585000D02*
X5385000Y-3615000D01*
X5385000Y-4185000D02*
X5415000Y-4215000D01*
X5415000Y-4185000D02*
X5385000Y-4215000D01*
X5385000Y-4785000D02*
X5415000Y-4815000D01*
X5415000Y-4785000D02*
X5385000Y-4815000D01*
X5385000Y-5385000D02*
X5415000Y-5415000D01*
X5415000Y-5385000D02*
X5385000Y-5415000D01*
X5385000Y-5985000D02*
X5415000Y-6015000D01*
X5415000Y-5985000D02*
X5385000Y-6015000D01*
X5385000Y-7185000D02*
X5415000Y-7215000D01*
X5415000Y-7185000D02*
X5385000Y-7215000D01*
X5385000Y-7945000D02*
X5415000Y-7975000D01*
X5415000Y-7945000D02*
X5385000Y-7975000D01*
X5585000Y-8305000D02*
X5615000Y-8335000D01*
X5615000Y-8305000D02*
X5585000Y-8335000D01*
X5745000Y-8305000D02*
X5775000Y-8335000D01*
X5775000Y-8305000D02*
X5745000Y-8335000D01*
X5985000Y-2385000D02*
X6015000Y-2415000D01*
X6015000Y-2385000D02*
X5985000Y-2415000D01*
X5985000Y-2985000D02*
X6015000Y-3015000D01*
X6015000Y-2985000D02*
X5985000Y-3015000D01*
X5985000Y-3585000D02*
X6015000Y-3615000D01*
X6015000Y-3585000D02*
X5985000Y-3615000D01*
X5985000Y-4185000D02*
X6015000Y-4215000D01*
X6015000Y-4185000D02*
X5985000Y-4215000D01*
X5985000Y-4785000D02*
X6015000Y-4815000D01*
X6015000Y-4785000D02*
X5985000Y-4815000D01*
X5985000Y-5385000D02*
X6015000Y-5415000D01*
X6015000Y-5385000D02*
X5985000Y-5415000D01*
X5985000Y-6585000D02*
X6015000Y-6615000D01*
X6015000Y-6585000D02*
X5985000Y-6615000D01*
X5985000Y-7185000D02*
X6015000Y-7215000D01*
X6015000Y-7185000D02*
X5985000Y-7215000D01*
X5985000Y-8985000D02*
X6015000Y-9015000D01*
X6015000Y-8985000D02*
X5985000Y-9015000D01*
X6105000Y-8305000D02*
X6135000Y-8335000D01*
X6135000Y-8305000D02*
X6105000Y-8335000D01*
X6185000Y-8065000D02*
X6215000Y-8095000D01*
X6215000Y-8065000D02*
X6185000Y-8095000D01*
X6265000Y-8305000D02*
X6295000Y-8335000D01*
X6295000Y-8305000D02*
X6265000Y-8335000D01*
X6345000Y-8065000D02*
X6375000Y-8095000D01*
X6375000Y-8065000D02*
X6345000Y-8095000D01*
X6545000Y-3345000D02*
X6575000Y-3375000D01*
X6575000Y-3345000D02*
X6545000Y-3375000D01*
X6585000Y-3585000D02*
X6615000Y-3615000D01*
X6615000Y-3585000D02*
X6585000Y-3615000D01*
X6585000Y-4185000D02*
X6615000Y-4215000D01*
X6615000Y-4185000D02*
X6585000Y-4215000D01*
X6585000Y-4785000D02*
X6615000Y-4815000D01*
X6615000Y-4785000D02*
X6585000Y-4815000D01*
X6585000Y-5985000D02*
X6615000Y-6015000D01*
X6615000Y-5985000D02*
X6585000Y-6015000D01*
X6585000Y-6585000D02*
X6615000Y-6615000D01*
X6615000Y-6585000D02*
X6585000Y-6615000D01*
X6585000Y-8385000D02*
X6615000Y-8415000D01*
X6615000Y-8385000D02*
X6585000Y-8415000D01*
X6585000Y-8985000D02*
X6615000Y-9015000D01*
X6615000Y-8985000D02*
X6585000Y-9015000D01*
X6585000Y-9585000D02*
X6615000Y-9615000D01*
X6615000Y-9585000D02*
X6585000Y-9615000D01*
X6665000Y-2705000D02*
X6695000Y-2735000D01*
X6695000Y-2705000D02*
X6665000Y-2735000D01*
X6745000Y-2865000D02*
X6775000Y-2895000D01*
X6775000Y-2865000D02*
X6745000Y-2895000D01*
X6825000Y-7985000D02*
X6855000Y-8015000D01*
X6855000Y-7985000D02*
X6825000Y-8015000D01*
X7025000Y-5345000D02*
X7055000Y-5375000D01*
X7055000Y-5345000D02*
X7025000Y-5375000D01*
X7105000Y-3025000D02*
X7135000Y-3055000D01*
X7135000Y-3025000D02*
X7105000Y-3055000D01*
X7105000Y-5145000D02*
X7135000Y-5175000D01*
X7135000Y-5145000D02*
X7105000Y-5175000D01*
X7185000Y-3585000D02*
X7215000Y-3615000D01*
X7215000Y-3585000D02*
X7185000Y-3615000D01*
X7185000Y-5145000D02*
X7215000Y-5175000D01*
X7215000Y-5145000D02*
X7185000Y-5175000D01*
X7385000Y-7625000D02*
X7415000Y-7655000D01*
X7415000Y-7625000D02*
X7385000Y-7655000D01*
X7425000Y-5505000D02*
X7455000Y-5535000D01*
X7455000Y-5505000D02*
X7425000Y-5535000D01*
X7465000Y-3825000D02*
X7495000Y-3855000D01*
X7495000Y-3825000D02*
X7465000Y-3855000D01*
X7505000Y-5145000D02*
X7535000Y-5175000D01*
X7535000Y-5145000D02*
X7505000Y-5175000D01*
X7505000Y-7625000D02*
X7535000Y-7655000D01*
X7535000Y-7625000D02*
X7505000Y-7655000D01*
X7505000Y-7865000D02*
X7535000Y-7895000D01*
X7535000Y-7865000D02*
X7505000Y-7895000D01*
X7505000Y-8745000D02*
X7535000Y-8775000D01*
X7535000Y-8745000D02*
X7505000Y-8775000D01*
X7585000Y-7865000D02*
X7615000Y-7895000D01*
X7615000Y-7865000D02*
X7585000Y-7895000D01*
X7585000Y-8985000D02*
X7615000Y-9015000D01*
X7615000Y-8985000D02*
X7585000Y-9015000D01*
X7625000Y-5145000D02*
X7655000Y-5175000D01*
X7655000Y-5145000D02*
X7625000Y-5175000D01*
X7705000Y-3825000D02*
X7735000Y-3855000D01*
X7735000Y-3825000D02*
X7705000Y-3855000D01*
X7705000Y-5065000D02*
X7735000Y-5095000D01*
X7735000Y-5065000D02*
X7705000Y-5095000D01*
X7745000Y-7625000D02*
X7775000Y-7655000D01*
X7775000Y-7625000D02*
X7745000Y-7655000D01*
X7745000Y-7865000D02*
X7775000Y-7895000D01*
X7775000Y-7865000D02*
X7745000Y-7895000D01*
X7905000Y-8345000D02*
X7935000Y-8375000D01*
X7935000Y-8345000D02*
X7905000Y-8375000D01*
X7905000Y-8985000D02*
X7935000Y-9015000D01*
X7935000Y-8985000D02*
X7905000Y-9015000D01*
X7985000Y-5745000D02*
X8015000Y-5775000D01*
X8015000Y-5745000D02*
X7985000Y-5775000D01*
X7985000Y-5905000D02*
X8015000Y-5935000D01*
X8015000Y-5905000D02*
X7985000Y-5935000D01*
X7985000Y-8585000D02*
X8015000Y-8615000D01*
X8015000Y-8585000D02*
X7985000Y-8615000D01*
X8065000Y-4385000D02*
X8095000Y-4415000D01*
X8095000Y-4385000D02*
X8065000Y-4415000D01*
X8105000Y-6745000D02*
X8135000Y-6775000D01*
X8135000Y-6745000D02*
X8105000Y-6775000D01*
X8145000Y-4385000D02*
X8175000Y-4415000D01*
X8175000Y-4385000D02*
X8145000Y-4415000D01*
X8185000Y-2785000D02*
X8215000Y-2815000D01*
X8215000Y-2785000D02*
X8185000Y-2815000D01*
X8185000Y-4585000D02*
X8215000Y-4615000D01*
X8215000Y-4585000D02*
X8185000Y-4615000D01*
X8225000Y-4065000D02*
X8255000Y-4095000D01*
X8255000Y-4065000D02*
X8225000Y-4095000D01*
X8305000Y-7625000D02*
X8335000Y-7655000D01*
X8335000Y-7625000D02*
X8305000Y-7655000D01*
X8385000Y-2985000D02*
X8415000Y-3015000D01*
X8415000Y-2985000D02*
X8385000Y-3015000D01*
X8385000Y-3585000D02*
X8415000Y-3615000D01*
X8415000Y-3585000D02*
X8385000Y-3615000D01*
X8385000Y-4185000D02*
X8415000Y-4215000D01*
X8415000Y-4185000D02*
X8385000Y-4215000D01*
X8385000Y-5985000D02*
X8415000Y-6015000D01*
X8415000Y-5985000D02*
X8385000Y-6015000D01*
X8385000Y-6585000D02*
X8415000Y-6615000D01*
X8415000Y-6585000D02*
X8385000Y-6615000D01*
X8385000Y-8985000D02*
X8415000Y-9015000D01*
X8415000Y-8985000D02*
X8385000Y-9015000D01*
X8385000Y-9585000D02*
X8415000Y-9615000D01*
X8415000Y-9585000D02*
X8385000Y-9615000D01*
X8425000Y-4665000D02*
X8455000Y-4695000D01*
X8455000Y-4665000D02*
X8425000Y-4695000D01*
X8545000Y-4385000D02*
X8575000Y-4415000D01*
X8575000Y-4385000D02*
X8545000Y-4415000D01*
X8545000Y-7185000D02*
X8575000Y-7215000D01*
X8575000Y-7185000D02*
X8545000Y-7215000D01*
X8585000Y-4625000D02*
X8615000Y-4655000D01*
X8615000Y-4625000D02*
X8585000Y-4655000D01*
X8585000Y-8865000D02*
X8615000Y-8895000D01*
X8615000Y-8865000D02*
X8585000Y-8895000D01*
X8625000Y-4185000D02*
X8655000Y-4215000D01*
X8655000Y-4185000D02*
X8625000Y-4215000D01*
X8705000Y-4745000D02*
X8735000Y-4775000D01*
X8735000Y-4745000D02*
X8705000Y-4775000D01*
X8705000Y-7865000D02*
X8735000Y-7895000D01*
X8735000Y-7865000D02*
X8705000Y-7895000D01*
X8705000Y-8505000D02*
X8735000Y-8535000D01*
X8735000Y-8505000D02*
X8705000Y-8535000D01*
X8705000Y-8745000D02*
X8735000Y-8775000D01*
X8735000Y-8745000D02*
X8705000Y-8775000D01*
X8745000Y-8945000D02*
X8775000Y-8975000D01*
X8775000Y-8945000D02*
X8745000Y-8975000D01*
X8785000Y-5065000D02*
X8815000Y-5095000D01*
X8815000Y-5065000D02*
X8785000Y-5095000D01*
X8785000Y-8105000D02*
X8815000Y-8135000D01*
X8815000Y-8105000D02*
X8785000Y-8135000D01*
X8785000Y-8505000D02*
X8815000Y-8535000D01*
X8815000Y-8505000D02*
X8785000Y-8535000D01*
X8825000Y-8945000D02*
X8855000Y-8975000D01*
X8855000Y-8945000D02*
X8825000Y-8975000D01*
X8865000Y-5825000D02*
X8895000Y-5855000D01*
X8895000Y-5825000D02*
X8865000Y-5855000D01*
X8865000Y-7625000D02*
X8895000Y-7655000D01*
X8895000Y-7625000D02*
X8865000Y-7655000D01*
X8865000Y-7865000D02*
X8895000Y-7895000D01*
X8895000Y-7865000D02*
X8865000Y-7895000D01*
X8885000Y-8525000D02*
X8915000Y-8555000D01*
X8915000Y-8525000D02*
X8885000Y-8555000D01*
X8945000Y-5225000D02*
X8975000Y-5255000D01*
X8975000Y-5225000D02*
X8945000Y-5255000D01*
X8945000Y-8945000D02*
X8975000Y-8975000D01*
X8975000Y-8945000D02*
X8945000Y-8975000D01*
X8985000Y-2985000D02*
X9015000Y-3015000D01*
X9015000Y-2985000D02*
X8985000Y-3015000D01*
X8985000Y-3585000D02*
X9015000Y-3615000D01*
X9015000Y-3585000D02*
X8985000Y-3615000D01*
X8985000Y-4185000D02*
X9015000Y-4215000D01*
X9015000Y-4185000D02*
X8985000Y-4215000D01*
X8985000Y-4665000D02*
X9015000Y-4695000D01*
X9015000Y-4665000D02*
X8985000Y-4695000D01*
X8985000Y-5985000D02*
X9015000Y-6015000D01*
X9015000Y-5985000D02*
X8985000Y-6015000D01*
X8985000Y-6585000D02*
X9015000Y-6615000D01*
X9015000Y-6585000D02*
X8985000Y-6615000D01*
X8985000Y-7185000D02*
X9015000Y-7215000D01*
X9015000Y-7185000D02*
X8985000Y-7215000D01*
X8985000Y-8505000D02*
X9015000Y-8535000D01*
X9015000Y-8505000D02*
X8985000Y-8535000D01*
X8985000Y-9585000D02*
X9015000Y-9615000D01*
X9015000Y-9585000D02*
X8985000Y-9615000D01*
X9345000Y-5265000D02*
X9375000Y-5295000D01*
X9375000Y-5265000D02*
X9345000Y-5295000D01*
X9385000Y-5425000D02*
X9415000Y-5455000D01*
X9415000Y-5425000D02*
X9385000Y-5455000D01*
X9585000Y-5985000D02*
X9615000Y-6015000D01*
X9615000Y-5985000D02*
X9585000Y-6015000D01*
X9585000Y-6585000D02*
X9615000Y-6615000D01*
X9615000Y-6585000D02*
X9585000Y-6615000D01*
X9585000Y-7185000D02*
X9615000Y-7215000D01*
X9615000Y-7185000D02*
X9585000Y-7215000D01*
X9585000Y-7785000D02*
X9615000Y-7815000D01*
X9615000Y-7785000D02*
X9585000Y-7815000D01*
X9585000Y-8985000D02*
X9615000Y-9015000D01*
X9615000Y-8985000D02*
X9585000Y-9015000D01*
X9745000Y-5425000D02*
X9775000Y-5455000D01*
X9775000Y-5425000D02*
X9745000Y-5455000D01*
X9785000Y-4385000D02*
X9815000Y-4415000D01*
X9815000Y-4385000D02*
X9785000Y-4415000D01*
X9825000Y-5425000D02*
X9855000Y-5455000D01*
X9855000Y-5425000D02*
X9825000Y-5455000D01*
X9865000Y-4505000D02*
X9895000Y-4535000D01*
X9895000Y-4505000D02*
X9865000Y-4535000D01*
X9905000Y-5505000D02*
X9935000Y-5535000D01*
X9935000Y-5505000D02*
X9905000Y-5535000D01*
X10145000Y-5585000D02*
X10175000Y-5615000D01*
X10175000Y-5585000D02*
X10145000Y-5615000D01*
X10185000Y-2985000D02*
X10215000Y-3015000D01*
X10215000Y-2985000D02*
X10185000Y-3015000D01*
X10185000Y-6585000D02*
X10215000Y-6615000D01*
X10215000Y-6585000D02*
X10185000Y-6615000D01*
X10185000Y-7185000D02*
X10215000Y-7215000D01*
X10215000Y-7185000D02*
X10185000Y-7215000D01*
X10185000Y-7785000D02*
X10215000Y-7815000D01*
X10215000Y-7785000D02*
X10185000Y-7815000D01*
X10185000Y-8385000D02*
X10215000Y-8415000D01*
X10215000Y-8385000D02*
X10185000Y-8415000D01*
X10185000Y-8985000D02*
X10215000Y-9015000D01*
X10215000Y-8985000D02*
X10185000Y-9015000D01*
X10185000Y-9585000D02*
X10215000Y-9615000D01*
X10215000Y-9585000D02*
X10185000Y-9615000D01*
X10345000Y-5945000D02*
X10375000Y-5975000D01*
X10375000Y-5945000D02*
X10345000Y-5975000D01*
X10385000Y-4705000D02*
X10415000Y-4735000D01*
X10415000Y-4705000D02*
X10385000Y-4735000D01*
X10385000Y-5665000D02*
X10415000Y-5695000D01*
X10415000Y-5665000D02*
X10385000Y-5695000D01*
X10465000Y-5905000D02*
X10495000Y-5935000D01*
X10495000Y-5905000D02*
X10465000Y-5935000D01*
X10785000Y-2985000D02*
X10815000Y-3015000D01*
X10815000Y-2985000D02*
X10785000Y-3015000D01*
X10785000Y-3585000D02*
X10815000Y-3615000D01*
X10815000Y-3585000D02*
X10785000Y-3615000D01*
X10785000Y-4185000D02*
X10815000Y-4215000D01*
X10815000Y-4185000D02*
X10785000Y-4215000D01*
X10785000Y-5385000D02*
X10815000Y-5415000D01*
X10815000Y-5385000D02*
X10785000Y-5415000D01*
X10785000Y-5985000D02*
X10815000Y-6015000D01*
X10815000Y-5985000D02*
X10785000Y-6015000D01*
X10785000Y-7185000D02*
X10815000Y-7215000D01*
X10815000Y-7185000D02*
X10785000Y-7215000D01*
X10785000Y-7785000D02*
X10815000Y-7815000D01*
X10815000Y-7785000D02*
X10785000Y-7815000D01*
X10785000Y-8385000D02*
X10815000Y-8415000D01*
X10815000Y-8385000D02*
X10785000Y-8415000D01*
X10785000Y-8985000D02*
X10815000Y-9015000D01*
X10815000Y-8985000D02*
X10785000Y-9015000D01*
X10785000Y-9585000D02*
X10815000Y-9615000D01*
X10815000Y-9585000D02*
X10785000Y-9615000D01*
X11385000Y-2985000D02*
X11415000Y-3015000D01*
X11415000Y-2985000D02*
X11385000Y-3015000D01*
X11385000Y-3585000D02*
X11415000Y-3615000D01*
X11415000Y-3585000D02*
X11385000Y-3615000D01*
X11385000Y-4185000D02*
X11415000Y-4215000D01*
X11415000Y-4185000D02*
X11385000Y-4215000D01*
X11385000Y-4785000D02*
X11415000Y-4815000D01*
X11415000Y-4785000D02*
X11385000Y-4815000D01*
X11385000Y-5385000D02*
X11415000Y-5415000D01*
X11415000Y-5385000D02*
X11385000Y-5415000D01*
X11385000Y-7185000D02*
X11415000Y-7215000D01*
X11415000Y-7185000D02*
X11385000Y-7215000D01*
X11385000Y-7785000D02*
X11415000Y-7815000D01*
X11415000Y-7785000D02*
X11385000Y-7815000D01*
X11385000Y-8385000D02*
X11415000Y-8415000D01*
X11415000Y-8385000D02*
X11385000Y-8415000D01*
X11385000Y-8985000D02*
X11415000Y-9015000D01*
X11415000Y-8985000D02*
X11385000Y-9015000D01*
X8525000Y-3476000D02*
G75*
G02*
X8495000Y-3476000I-15000J0D01*
G01*
X8495000Y-3476000D02*
G75*
G02*
X8525000Y-3476000I15000J0D01*
G01*
X8525000Y-3616000D02*
G75*
G02*
X8495000Y-3616000I-15000J0D01*
G01*
X8495000Y-3616000D02*
G75*
G02*
X8525000Y-3616000I15000J0D01*
G01*
X8595000Y-3406000D02*
G75*
G02*
X8565000Y-3406000I-15000J0D01*
G01*
X8565000Y-3406000D02*
G75*
G02*
X8595000Y-3406000I15000J0D01*
G01*
X8595000Y-3546000D02*
G75*
G02*
X8565000Y-3546000I-15000J0D01*
G01*
X8565000Y-3546000D02*
G75*
G02*
X8595000Y-3546000I15000J0D01*
G01*
X8595000Y-3686000D02*
G75*
G02*
X8565000Y-3686000I-15000J0D01*
G01*
X8565000Y-3686000D02*
G75*
G02*
X8595000Y-3686000I15000J0D01*
G01*
X8665000Y-3476000D02*
G75*
G02*
X8635000Y-3476000I-15000J0D01*
G01*
X8635000Y-3476000D02*
G75*
G02*
X8665000Y-3476000I15000J0D01*
G01*
X8665000Y-3616000D02*
G75*
G02*
X8635000Y-3616000I-15000J0D01*
G01*
X8635000Y-3616000D02*
G75*
G02*
X8665000Y-3616000I15000J0D01*
G01*
X8735000Y-3406000D02*
G75*
G02*
X8705000Y-3406000I-15000J0D01*
G01*
X8705000Y-3406000D02*
G75*
G02*
X8735000Y-3406000I15000J0D01*
G01*
X8735000Y-3546000D02*
G75*
G02*
X8705000Y-3546000I-15000J0D01*
G01*
X8705000Y-3546000D02*
G75*
G02*
X8735000Y-3546000I15000J0D01*
G01*
X8735000Y-3686000D02*
G75*
G02*
X8705000Y-3686000I-15000J0D01*
G01*
X8705000Y-3686000D02*
G75*
G02*
X8735000Y-3686000I15000J0D01*
G01*
X8805000Y-3476000D02*
G75*
G02*
X8775000Y-3476000I-15000J0D01*
G01*
X8775000Y-3476000D02*
G75*
G02*
X8805000Y-3476000I15000J0D01*
G01*
X8805000Y-3616000D02*
G75*
G02*
X8775000Y-3616000I-15000J0D01*
G01*
X8775000Y-3616000D02*
G75*
G02*
X8805000Y-3616000I15000J0D01*
G01*
X2210000Y-2425000D02*
X2210000Y-2475000D01*
X2185000Y-2450000D02*
X2235000Y-2450000D01*
X2210000Y-6775000D02*
X2210000Y-6825000D01*
X2185000Y-6800000D02*
X2235000Y-6800000D01*
X2280294Y-2255294D02*
X2280294Y-2305294D01*
X2255294Y-2280294D02*
X2305294Y-2280294D01*
X2280294Y-2594706D02*
X2280294Y-2644706D01*
X2255294Y-2619706D02*
X2305294Y-2619706D01*
X2280294Y-6605294D02*
X2280294Y-6655294D01*
X2255294Y-6630294D02*
X2305294Y-6630294D01*
X2280294Y-6944706D02*
X2280294Y-6994706D01*
X2255294Y-6969706D02*
X2305294Y-6969706D01*
X2450000Y-2185000D02*
X2450000Y-2235000D01*
X2425000Y-2210000D02*
X2475000Y-2210000D01*
X2450000Y-2665000D02*
X2450000Y-2715000D01*
X2425000Y-2690000D02*
X2475000Y-2690000D01*
X2450000Y-6535000D02*
X2450000Y-6585000D01*
X2425000Y-6560000D02*
X2475000Y-6560000D01*
X2450000Y-7015000D02*
X2450000Y-7065000D01*
X2425000Y-7040000D02*
X2475000Y-7040000D01*
X2619706Y-2255294D02*
X2619706Y-2305294D01*
X2594706Y-2280294D02*
X2644706Y-2280294D01*
X2619706Y-2594706D02*
X2619706Y-2644706D01*
X2594706Y-2619706D02*
X2644706Y-2619706D01*
X2619706Y-6605294D02*
X2619706Y-6655294D01*
X2594706Y-6630294D02*
X2644706Y-6630294D01*
X2619706Y-6944706D02*
X2619706Y-6994706D01*
X2594706Y-6969706D02*
X2644706Y-6969706D01*
X2690000Y-2425000D02*
X2690000Y-2475000D01*
X2665000Y-2450000D02*
X2715000Y-2450000D01*
X2690000Y-6775000D02*
X2690000Y-6825000D01*
X2665000Y-6800000D02*
X2715000Y-6800000D01*
X11310000Y-2425000D02*
X11310000Y-2475000D01*
X11285000Y-2450000D02*
X11335000Y-2450000D01*
X11310000Y-9525000D02*
X11310000Y-9575000D01*
X11285000Y-9550000D02*
X11335000Y-9550000D01*
X11380294Y-2255294D02*
X11380294Y-2305294D01*
X11355294Y-2280294D02*
X11405294Y-2280294D01*
X11380294Y-2594706D02*
X11380294Y-2644706D01*
X11355294Y-2619706D02*
X11405294Y-2619706D01*
X11380294Y-9355294D02*
X11380294Y-9405294D01*
X11355294Y-9380294D02*
X11405294Y-9380294D01*
X11380294Y-9694706D02*
X11380294Y-9744706D01*
X11355294Y-9719706D02*
X11405294Y-9719706D01*
X11550000Y-2185000D02*
X11550000Y-2235000D01*
X11525000Y-2210000D02*
X11575000Y-2210000D01*
X11550000Y-2665000D02*
X11550000Y-2715000D01*
X11525000Y-2690000D02*
X11575000Y-2690000D01*
X11550000Y-9285000D02*
X11550000Y-9335000D01*
X11525000Y-9310000D02*
X11575000Y-9310000D01*
X11550000Y-9765000D02*
X11550000Y-9815000D01*
X11525000Y-9790000D02*
X11575000Y-9790000D01*
X11719706Y-2255294D02*
X11719706Y-2305294D01*
X11694706Y-2280294D02*
X11744706Y-2280294D01*
X11719706Y-2594706D02*
X11719706Y-2644706D01*
X11694706Y-2619706D02*
X11744706Y-2619706D01*
X11719706Y-9355294D02*
X11719706Y-9405294D01*
X11694706Y-9380294D02*
X11744706Y-9380294D01*
X11719706Y-9694706D02*
X11719706Y-9744706D01*
X11694706Y-9719706D02*
X11744706Y-9719706D01*
X11790000Y-2425000D02*
X11790000Y-2475000D01*
X11765000Y-2450000D02*
X11815000Y-2450000D01*
X11790000Y-9525000D02*
X11790000Y-9575000D01*
X11765000Y-9550000D02*
X11815000Y-9550000D01*
X8489213Y-9268213D02*
X8489213Y-9225787D01*
X8446787Y-9225787D01*
X8446787Y-9268213D01*
X8489213Y-9268213D01*
X8438000Y-9192000D02*
X8438000Y-9302000D01*
X8498000Y-9302000D02*
G75*
G02*
X8438000Y-9302000I-30000J0D01*
G01*
X8498000Y-9302000D02*
X8498000Y-9192000D01*
X8498000Y-9192000D02*
G75*
G03*
X8438000Y-9192000I-30000J0D01*
G01*
X8489213Y-9686213D02*
X8489213Y-9643787D01*
X8446787Y-9643787D01*
X8446787Y-9686213D01*
X8489213Y-9686213D01*
X8438000Y-9635000D02*
X8438000Y-9695000D01*
X8498000Y-9695000D02*
G75*
G02*
X8438000Y-9695000I-30000J0D01*
G01*
X8498000Y-9695000D02*
X8498000Y-9635000D01*
X8498000Y-9635000D02*
G75*
G03*
X8438000Y-9635000I-30000J0D01*
G01*
X9353213Y-9268213D02*
X9353213Y-9225787D01*
X9310787Y-9225787D01*
X9310787Y-9268213D01*
X9353213Y-9268213D01*
X9302000Y-9192000D02*
X9302000Y-9302000D01*
X9362000Y-9302000D02*
G75*
G02*
X9302000Y-9302000I-30000J0D01*
G01*
X9362000Y-9302000D02*
X9362000Y-9192000D01*
X9362000Y-9192000D02*
G75*
G03*
X9302000Y-9192000I-30000J0D01*
G01*
X9353213Y-9686213D02*
X9353213Y-9643787D01*
X9310787Y-9643787D01*
X9310787Y-9686213D01*
X9353213Y-9686213D01*
X9302000Y-9635000D02*
X9302000Y-9695000D01*
X9362000Y-9695000D02*
G75*
G02*
X9302000Y-9695000I-30000J0D01*
G01*
X9362000Y-9695000D02*
X9362000Y-9635000D01*
X9362000Y-9635000D02*
G75*
G03*
X9302000Y-9635000I-30000J0D01*
G01*
X3800000Y-7850000D02*
X3850000Y-7800000D01*
X3800000Y-7750000D01*
X3750000Y-7800000D01*
X3800000Y-7850000D01*
X4560000Y-7850000D02*
X4610000Y-7800000D01*
X4560000Y-7750000D01*
X4510000Y-7800000D01*
X4560000Y-7850000D01*
D12*
X5445000Y-2195000D02*
X5555000Y-2305000D01*
X5555000Y-2195000D02*
X5445000Y-2305000D01*
X5555000Y-2250000D02*
G75*
G02*
X5445000Y-2250000I-55000J0D01*
G01*
X5445000Y-2250000D02*
G75*
G02*
X5555000Y-2250000I55000J0D01*
G01*
X5445000Y-2645000D02*
X5555000Y-2755000D01*
X5555000Y-2645000D02*
X5445000Y-2755000D01*
X5555000Y-2700000D02*
G75*
G02*
X5445000Y-2700000I-55000J0D01*
G01*
X5445000Y-2700000D02*
G75*
G02*
X5555000Y-2700000I55000J0D01*
G01*
X6095000Y-2195000D02*
X6205000Y-2305000D01*
X6205000Y-2195000D02*
X6095000Y-2305000D01*
X6205000Y-2250000D02*
G75*
G02*
X6095000Y-2250000I-55000J0D01*
G01*
X6095000Y-2250000D02*
G75*
G02*
X6205000Y-2250000I55000J0D01*
G01*
X6095000Y-2645000D02*
X6205000Y-2755000D01*
X6205000Y-2645000D02*
X6095000Y-2755000D01*
X6205000Y-2700000D02*
G75*
G02*
X6095000Y-2700000I-55000J0D01*
G01*
X6095000Y-2700000D02*
G75*
G02*
X6205000Y-2700000I55000J0D01*
G01*
X10045000Y-4645000D02*
X10155000Y-4755000D01*
X10155000Y-4645000D02*
X10045000Y-4755000D01*
X10155000Y-4700000D02*
G75*
G02*
X10045000Y-4700000I-55000J0D01*
G01*
X10045000Y-4700000D02*
G75*
G02*
X10155000Y-4700000I55000J0D01*
G01*
X10045000Y-5095000D02*
X10155000Y-5205000D01*
X10155000Y-5095000D02*
X10045000Y-5205000D01*
X10155000Y-5150000D02*
G75*
G02*
X10045000Y-5150000I-55000J0D01*
G01*
X10045000Y-5150000D02*
G75*
G02*
X10155000Y-5150000I55000J0D01*
G01*
X10695000Y-4645000D02*
X10805000Y-4755000D01*
X10805000Y-4645000D02*
X10695000Y-4755000D01*
X10805000Y-4700000D02*
G75*
G02*
X10695000Y-4700000I-55000J0D01*
G01*
X10695000Y-4700000D02*
G75*
G02*
X10805000Y-4700000I55000J0D01*
G01*
X10695000Y-5095000D02*
X10805000Y-5205000D01*
X10805000Y-5095000D02*
X10695000Y-5205000D01*
X10805000Y-5150000D02*
G75*
G02*
X10695000Y-5150000I-55000J0D01*
G01*
X10695000Y-5150000D02*
G75*
G02*
X10805000Y-5150000I55000J0D01*
G01*
D13*
X2390500Y-9440500D02*
X2509500Y-9559500D01*
X2509500Y-9440500D02*
X2390500Y-9559500D01*
X2450000Y-9440500D02*
X2450000Y-9559500D01*
X2390500Y-9500000D02*
X2509500Y-9500000D01*
X2644500Y-9440500D02*
X2763500Y-9559500D01*
X2763500Y-9440500D02*
X2644500Y-9559500D01*
X2704000Y-9440500D02*
X2704000Y-9559500D01*
X2644500Y-9500000D02*
X2763500Y-9500000D01*
X2898500Y-9440500D02*
X3017500Y-9559500D01*
X3017500Y-9440500D02*
X2898500Y-9559500D01*
X2958000Y-9440500D02*
X2958000Y-9559500D01*
X2898500Y-9500000D02*
X3017500Y-9500000D01*
X3152500Y-9440500D02*
X3271500Y-9559500D01*
X3271500Y-9440500D02*
X3152500Y-9559500D01*
X3212000Y-9440500D02*
X3212000Y-9559500D01*
X3152500Y-9500000D02*
X3271500Y-9500000D01*
X3406500Y-9440500D02*
X3525500Y-9559500D01*
X3525500Y-9440500D02*
X3406500Y-9559500D01*
X3466000Y-9440500D02*
X3466000Y-9559500D01*
X3406500Y-9500000D02*
X3525500Y-9500000D01*
X3660500Y-9440500D02*
X3779500Y-9559500D01*
X3779500Y-9440500D02*
X3660500Y-9559500D01*
X3720000Y-9440500D02*
X3720000Y-9559500D01*
X3660500Y-9500000D02*
X3779500Y-9500000D01*
X3914500Y-9440500D02*
X4033500Y-9559500D01*
X4033500Y-9440500D02*
X3914500Y-9559500D01*
X3974000Y-9440500D02*
X3974000Y-9559500D01*
X3914500Y-9500000D02*
X4033500Y-9500000D01*
X4168500Y-9440500D02*
X4287500Y-9559500D01*
X4287500Y-9440500D02*
X4168500Y-9559500D01*
X4228000Y-9440500D02*
X4228000Y-9559500D01*
X4168500Y-9500000D02*
X4287500Y-9500000D01*
X4540500Y-9440500D02*
X4659500Y-9559500D01*
X4659500Y-9440500D02*
X4540500Y-9559500D01*
X4600000Y-9440500D02*
X4600000Y-9559500D01*
X4540500Y-9500000D02*
X4659500Y-9500000D01*
X4794500Y-9440500D02*
X4913500Y-9559500D01*
X4913500Y-9440500D02*
X4794500Y-9559500D01*
X4854000Y-9440500D02*
X4854000Y-9559500D01*
X4794500Y-9500000D02*
X4913500Y-9500000D01*
X5048500Y-9440500D02*
X5167500Y-9559500D01*
X5167500Y-9440500D02*
X5048500Y-9559500D01*
X5108000Y-9440500D02*
X5108000Y-9559500D01*
X5048500Y-9500000D02*
X5167500Y-9500000D01*
X5302500Y-9440500D02*
X5421500Y-9559500D01*
X5421500Y-9440500D02*
X5302500Y-9559500D01*
X5362000Y-9440500D02*
X5362000Y-9559500D01*
X5302500Y-9500000D02*
X5421500Y-9500000D01*
X5556500Y-9440500D02*
X5675500Y-9559500D01*
X5675500Y-9440500D02*
X5556500Y-9559500D01*
X5616000Y-9440500D02*
X5616000Y-9559500D01*
X5556500Y-9500000D02*
X5675500Y-9500000D01*
X5810500Y-9440500D02*
X5929500Y-9559500D01*
X5929500Y-9440500D02*
X5810500Y-9559500D01*
X5870000Y-9440500D02*
X5870000Y-9559500D01*
X5810500Y-9500000D02*
X5929500Y-9500000D01*
X6340500Y-9440500D02*
X6459500Y-9559500D01*
X6459500Y-9440500D02*
X6340500Y-9559500D01*
X6400000Y-9440500D02*
X6400000Y-9559500D01*
X6340500Y-9500000D02*
X6459500Y-9500000D01*
X6594500Y-9440500D02*
X6713500Y-9559500D01*
X6713500Y-9440500D02*
X6594500Y-9559500D01*
X6654000Y-9440500D02*
X6654000Y-9559500D01*
X6594500Y-9500000D02*
X6713500Y-9500000D01*
X6848500Y-9440500D02*
X6967500Y-9559500D01*
X6967500Y-9440500D02*
X6848500Y-9559500D01*
X6908000Y-9440500D02*
X6908000Y-9559500D01*
X6848500Y-9500000D02*
X6967500Y-9500000D01*
X7102500Y-9440500D02*
X7221500Y-9559500D01*
X7221500Y-9440500D02*
X7102500Y-9559500D01*
X7162000Y-9440500D02*
X7162000Y-9559500D01*
X7102500Y-9500000D02*
X7221500Y-9500000D01*
X7356500Y-9440500D02*
X7475500Y-9559500D01*
X7475500Y-9440500D02*
X7356500Y-9559500D01*
X7416000Y-9440500D02*
X7416000Y-9559500D01*
X7356500Y-9500000D02*
X7475500Y-9500000D01*
X7610500Y-9440500D02*
X7729500Y-9559500D01*
X7729500Y-9440500D02*
X7610500Y-9559500D01*
X7670000Y-9440500D02*
X7670000Y-9559500D01*
X7610500Y-9500000D02*
X7729500Y-9500000D01*
X7864500Y-9440500D02*
X7983500Y-9559500D01*
X7983500Y-9440500D02*
X7864500Y-9559500D01*
X7924000Y-9440500D02*
X7924000Y-9559500D01*
X7864500Y-9500000D02*
X7983500Y-9500000D01*
X8118500Y-9440500D02*
X8237500Y-9559500D01*
X8237500Y-9440500D02*
X8118500Y-9559500D01*
X8178000Y-9440500D02*
X8178000Y-9559500D01*
X8118500Y-9500000D02*
X8237500Y-9500000D01*
D14*
X2635000Y-3235000D02*
X2765000Y-3365000D01*
X2765000Y-3235000D02*
X2635000Y-3365000D01*
X2745962Y-3345962D02*
X2745962Y-3254038D01*
X2654038Y-3254038D01*
X2654038Y-3345962D01*
X2745962Y-3345962D01*
X2635000Y-3743000D02*
X2765000Y-3873000D01*
X2765000Y-3743000D02*
X2635000Y-3873000D01*
X2745962Y-3853962D02*
X2745962Y-3762038D01*
X2654038Y-3762038D01*
X2654038Y-3853962D01*
X2745962Y-3853962D01*
X2635000Y-5435000D02*
X2765000Y-5565000D01*
X2765000Y-5435000D02*
X2635000Y-5565000D01*
X2745962Y-5545962D02*
X2745962Y-5454038D01*
X2654038Y-5454038D01*
X2654038Y-5545962D01*
X2745962Y-5545962D01*
X2635000Y-5943000D02*
X2765000Y-6073000D01*
X2765000Y-5943000D02*
X2635000Y-6073000D01*
X2745962Y-6053962D02*
X2745962Y-5962038D01*
X2654038Y-5962038D01*
X2654038Y-6053962D01*
X2745962Y-6053962D01*
X11335000Y-5927000D02*
X11465000Y-6057000D01*
X11465000Y-5927000D02*
X11335000Y-6057000D01*
X11445962Y-6037962D02*
X11445962Y-5946038D01*
X11354038Y-5946038D01*
X11354038Y-6037962D01*
X11445962Y-6037962D01*
X11335000Y-6435000D02*
X11465000Y-6565000D01*
X11465000Y-6435000D02*
X11335000Y-6565000D01*
X11445962Y-6545962D02*
X11445962Y-6454038D01*
X11354038Y-6454038D01*
X11354038Y-6545962D01*
X11445962Y-6545962D01*
D15*
X2290000Y-2290000D02*
X2610000Y-2610000D01*
X2610000Y-2290000D02*
X2290000Y-2610000D01*
X2450000Y-2610000D02*
X2610000Y-2450000D01*
X2450000Y-2290000D01*
X2290000Y-2450000D01*
X2450000Y-2610000D01*
X2290000Y-6640000D02*
X2610000Y-6960000D01*
X2610000Y-6640000D02*
X2290000Y-6960000D01*
X2450000Y-6960000D02*
X2610000Y-6800000D01*
X2450000Y-6640000D01*
X2290000Y-6800000D01*
X2450000Y-6960000D01*
X11390000Y-2290000D02*
X11710000Y-2610000D01*
X11710000Y-2290000D02*
X11390000Y-2610000D01*
X11550000Y-2610000D02*
X11710000Y-2450000D01*
X11550000Y-2290000D01*
X11390000Y-2450000D01*
X11550000Y-2610000D01*
X11390000Y-9390000D02*
X11710000Y-9710000D01*
X11710000Y-9390000D02*
X11390000Y-9710000D01*
X11550000Y-9710000D02*
X11710000Y-9550000D01*
X11550000Y-9390000D01*
X11390000Y-9550000D01*
X11550000Y-9710000D01*
D10*
X8611000Y-9267500D02*
X8611000Y-9332500D01*
X8578500Y-9300000D02*
X8643500Y-9300000D01*
X8643500Y-9300000D02*
G75*
G02*
X8578500Y-9300000I-32500J0D01*
G01*
X8578500Y-9300000D02*
G75*
G02*
X8643500Y-9300000I32500J0D01*
G01*
X9189000Y-9267500D02*
X9189000Y-9332500D01*
X9156500Y-9300000D02*
X9221500Y-9300000D01*
X9221500Y-9300000D02*
G75*
G02*
X9156500Y-9300000I-32500J0D01*
G01*
X9156500Y-9300000D02*
G75*
G02*
X9221500Y-9300000I32500J0D01*
G01*
D11*
X2255777Y-10316484D02*
X2255777Y-10116484D01*
X2255777Y-10116484D02*
X2303396Y-10116484D01*
X2303396Y-10116484D02*
X2331967Y-10126008D01*
X2331967Y-10126008D02*
X2351015Y-10145055D01*
X2351015Y-10145055D02*
X2360539Y-10164103D01*
X2360539Y-10164103D02*
X2370063Y-10202198D01*
X2370063Y-10202198D02*
X2370063Y-10230770D01*
X2370063Y-10230770D02*
X2360539Y-10268865D01*
X2360539Y-10268865D02*
X2351015Y-10287912D01*
X2351015Y-10287912D02*
X2331967Y-10306960D01*
X2331967Y-10306960D02*
X2303396Y-10316484D01*
X2303396Y-10316484D02*
X2255777Y-10316484D01*
X2455777Y-10316484D02*
X2455777Y-10183150D01*
X2455777Y-10221246D02*
X2465301Y-10202198D01*
X2465301Y-10202198D02*
X2474824Y-10192674D01*
X2474824Y-10192674D02*
X2493872Y-10183150D01*
X2493872Y-10183150D02*
X2512920Y-10183150D01*
X2579586Y-10316484D02*
X2579586Y-10183150D01*
X2579586Y-10116484D02*
X2570063Y-10126008D01*
X2570063Y-10126008D02*
X2579586Y-10135531D01*
X2579586Y-10135531D02*
X2589110Y-10126008D01*
X2589110Y-10126008D02*
X2579586Y-10116484D01*
X2579586Y-10116484D02*
X2579586Y-10135531D01*
X2703396Y-10316484D02*
X2684348Y-10306960D01*
X2684348Y-10306960D02*
X2674824Y-10287912D01*
X2674824Y-10287912D02*
X2674824Y-10116484D01*
X2808158Y-10316484D02*
X2789110Y-10306960D01*
X2789110Y-10306960D02*
X2779586Y-10287912D01*
X2779586Y-10287912D02*
X2779586Y-10116484D01*
X3036729Y-10316484D02*
X3036729Y-10116484D01*
X3036729Y-10116484D02*
X3103396Y-10259341D01*
X3103396Y-10259341D02*
X3170062Y-10116484D01*
X3170062Y-10116484D02*
X3170062Y-10316484D01*
X3351015Y-10316484D02*
X3351015Y-10211722D01*
X3351015Y-10211722D02*
X3341491Y-10192674D01*
X3341491Y-10192674D02*
X3322443Y-10183150D01*
X3322443Y-10183150D02*
X3284348Y-10183150D01*
X3284348Y-10183150D02*
X3265301Y-10192674D01*
X3351015Y-10306960D02*
X3331967Y-10316484D01*
X3331967Y-10316484D02*
X3284348Y-10316484D01*
X3284348Y-10316484D02*
X3265301Y-10306960D01*
X3265301Y-10306960D02*
X3255777Y-10287912D01*
X3255777Y-10287912D02*
X3255777Y-10268865D01*
X3255777Y-10268865D02*
X3265301Y-10249817D01*
X3265301Y-10249817D02*
X3284348Y-10240293D01*
X3284348Y-10240293D02*
X3331967Y-10240293D01*
X3331967Y-10240293D02*
X3351015Y-10230770D01*
X3446253Y-10183150D02*
X3446253Y-10383150D01*
X3446253Y-10192674D02*
X3465301Y-10183150D01*
X3465301Y-10183150D02*
X3503396Y-10183150D01*
X3503396Y-10183150D02*
X3522443Y-10192674D01*
X3522443Y-10192674D02*
X3531967Y-10202198D01*
X3531967Y-10202198D02*
X3541491Y-10221246D01*
X3541491Y-10221246D02*
X3541491Y-10278389D01*
X3541491Y-10278389D02*
X3531967Y-10297436D01*
X3531967Y-10297436D02*
X3522443Y-10306960D01*
X3522443Y-10306960D02*
X3503396Y-10316484D01*
X3503396Y-10316484D02*
X3465301Y-10316484D01*
X3465301Y-10316484D02*
X3446253Y-10306960D01*
X3627205Y-10297436D02*
X3636729Y-10306960D01*
X3636729Y-10306960D02*
X3627205Y-10316484D01*
X3627205Y-10316484D02*
X3617682Y-10306960D01*
X3617682Y-10306960D02*
X3627205Y-10297436D01*
X3627205Y-10297436D02*
X3627205Y-10316484D01*
X3627205Y-10192674D02*
X3636729Y-10202198D01*
X3636729Y-10202198D02*
X3627205Y-10211722D01*
X3627205Y-10211722D02*
X3617682Y-10202198D01*
X3617682Y-10202198D02*
X3627205Y-10192674D01*
X3627205Y-10192674D02*
X3627205Y-10211722D01*
D10*
X1965000Y-10630000D02*
X1995000Y-10660000D01*
X1995000Y-10630000D02*
X1965000Y-10660000D01*
D11*
X2293872Y-10536484D02*
X2312920Y-10536484D01*
X2312920Y-10536484D02*
X2331967Y-10546008D01*
X2331967Y-10546008D02*
X2341491Y-10555531D01*
X2341491Y-10555531D02*
X2351015Y-10574579D01*
X2351015Y-10574579D02*
X2360539Y-10612674D01*
X2360539Y-10612674D02*
X2360539Y-10660293D01*
X2360539Y-10660293D02*
X2351015Y-10698389D01*
X2351015Y-10698389D02*
X2341491Y-10717436D01*
X2341491Y-10717436D02*
X2331967Y-10726960D01*
X2331967Y-10726960D02*
X2312920Y-10736484D01*
X2312920Y-10736484D02*
X2293872Y-10736484D01*
X2293872Y-10736484D02*
X2274824Y-10726960D01*
X2274824Y-10726960D02*
X2265301Y-10717436D01*
X2265301Y-10717436D02*
X2255777Y-10698389D01*
X2255777Y-10698389D02*
X2246253Y-10660293D01*
X2246253Y-10660293D02*
X2246253Y-10612674D01*
X2246253Y-10612674D02*
X2255777Y-10574579D01*
X2255777Y-10574579D02*
X2265301Y-10555531D01*
X2265301Y-10555531D02*
X2274824Y-10546008D01*
X2274824Y-10546008D02*
X2293872Y-10536484D01*
X2446253Y-10717436D02*
X2455777Y-10726960D01*
X2455777Y-10726960D02*
X2446253Y-10736484D01*
X2446253Y-10736484D02*
X2436729Y-10726960D01*
X2436729Y-10726960D02*
X2446253Y-10717436D01*
X2446253Y-10717436D02*
X2446253Y-10736484D01*
X2522444Y-10536484D02*
X2646253Y-10536484D01*
X2646253Y-10536484D02*
X2579586Y-10612674D01*
X2579586Y-10612674D02*
X2608158Y-10612674D01*
X2608158Y-10612674D02*
X2627205Y-10622198D01*
X2627205Y-10622198D02*
X2636729Y-10631722D01*
X2636729Y-10631722D02*
X2646253Y-10650770D01*
X2646253Y-10650770D02*
X2646253Y-10698389D01*
X2646253Y-10698389D02*
X2636729Y-10717436D01*
X2636729Y-10717436D02*
X2627205Y-10726960D01*
X2627205Y-10726960D02*
X2608158Y-10736484D01*
X2608158Y-10736484D02*
X2551015Y-10736484D01*
X2551015Y-10736484D02*
X2531967Y-10726960D01*
X2531967Y-10726960D02*
X2522444Y-10717436D01*
X2770063Y-10536484D02*
X2789110Y-10536484D01*
X2789110Y-10536484D02*
X2808158Y-10546008D01*
X2808158Y-10546008D02*
X2817682Y-10555531D01*
X2817682Y-10555531D02*
X2827205Y-10574579D01*
X2827205Y-10574579D02*
X2836729Y-10612674D01*
X2836729Y-10612674D02*
X2836729Y-10660293D01*
X2836729Y-10660293D02*
X2827205Y-10698389D01*
X2827205Y-10698389D02*
X2817682Y-10717436D01*
X2817682Y-10717436D02*
X2808158Y-10726960D01*
X2808158Y-10726960D02*
X2789110Y-10736484D01*
X2789110Y-10736484D02*
X2770063Y-10736484D01*
X2770063Y-10736484D02*
X2751015Y-10726960D01*
X2751015Y-10726960D02*
X2741491Y-10717436D01*
X2741491Y-10717436D02*
X2731967Y-10698389D01*
X2731967Y-10698389D02*
X2722444Y-10660293D01*
X2722444Y-10660293D02*
X2722444Y-10612674D01*
X2722444Y-10612674D02*
X2731967Y-10574579D01*
X2731967Y-10574579D02*
X2741491Y-10555531D01*
X2741491Y-10555531D02*
X2751015Y-10546008D01*
X2751015Y-10546008D02*
X2770063Y-10536484D01*
X2960539Y-10536484D02*
X2979586Y-10536484D01*
X2979586Y-10536484D02*
X2998634Y-10546008D01*
X2998634Y-10546008D02*
X3008158Y-10555531D01*
X3008158Y-10555531D02*
X3017682Y-10574579D01*
X3017682Y-10574579D02*
X3027205Y-10612674D01*
X3027205Y-10612674D02*
X3027205Y-10660293D01*
X3027205Y-10660293D02*
X3017682Y-10698389D01*
X3017682Y-10698389D02*
X3008158Y-10717436D01*
X3008158Y-10717436D02*
X2998634Y-10726960D01*
X2998634Y-10726960D02*
X2979586Y-10736484D01*
X2979586Y-10736484D02*
X2960539Y-10736484D01*
X2960539Y-10736484D02*
X2941491Y-10726960D01*
X2941491Y-10726960D02*
X2931967Y-10717436D01*
X2931967Y-10717436D02*
X2922443Y-10698389D01*
X2922443Y-10698389D02*
X2912920Y-10660293D01*
X2912920Y-10660293D02*
X2912920Y-10612674D01*
X2912920Y-10612674D02*
X2922443Y-10574579D01*
X2922443Y-10574579D02*
X2931967Y-10555531D01*
X2931967Y-10555531D02*
X2941491Y-10546008D01*
X2941491Y-10546008D02*
X2960539Y-10536484D01*
X3112920Y-10736484D02*
X3112920Y-10603150D01*
X3112920Y-10622198D02*
X3122443Y-10612674D01*
X3122443Y-10612674D02*
X3141491Y-10603150D01*
X3141491Y-10603150D02*
X3170063Y-10603150D01*
X3170063Y-10603150D02*
X3189110Y-10612674D01*
X3189110Y-10612674D02*
X3198634Y-10631722D01*
X3198634Y-10631722D02*
X3198634Y-10736484D01*
X3198634Y-10631722D02*
X3208158Y-10612674D01*
X3208158Y-10612674D02*
X3227205Y-10603150D01*
X3227205Y-10603150D02*
X3255777Y-10603150D01*
X3255777Y-10603150D02*
X3274824Y-10612674D01*
X3274824Y-10612674D02*
X3284348Y-10631722D01*
X3284348Y-10631722D02*
X3284348Y-10736484D01*
X3379586Y-10736484D02*
X3379586Y-10603150D01*
X3379586Y-10622198D02*
X3389110Y-10612674D01*
X3389110Y-10612674D02*
X3408158Y-10603150D01*
X3408158Y-10603150D02*
X3436729Y-10603150D01*
X3436729Y-10603150D02*
X3455777Y-10612674D01*
X3455777Y-10612674D02*
X3465301Y-10631722D01*
X3465301Y-10631722D02*
X3465301Y-10736484D01*
X3465301Y-10631722D02*
X3474824Y-10612674D01*
X3474824Y-10612674D02*
X3493872Y-10603150D01*
X3493872Y-10603150D02*
X3522443Y-10603150D01*
X3522443Y-10603150D02*
X3541491Y-10612674D01*
X3541491Y-10612674D02*
X3551015Y-10631722D01*
X3551015Y-10631722D02*
X3551015Y-10736484D01*
X3941491Y-10526960D02*
X3770063Y-10784103D01*
X4198634Y-10536484D02*
X4217682Y-10536484D01*
X4217682Y-10536484D02*
X4236729Y-10546008D01*
X4236729Y-10546008D02*
X4246253Y-10555531D01*
X4246253Y-10555531D02*
X4255777Y-10574579D01*
X4255777Y-10574579D02*
X4265301Y-10612674D01*
X4265301Y-10612674D02*
X4265301Y-10660293D01*
X4265301Y-10660293D02*
X4255777Y-10698389D01*
X4255777Y-10698389D02*
X4246253Y-10717436D01*
X4246253Y-10717436D02*
X4236729Y-10726960D01*
X4236729Y-10726960D02*
X4217682Y-10736484D01*
X4217682Y-10736484D02*
X4198634Y-10736484D01*
X4198634Y-10736484D02*
X4179586Y-10726960D01*
X4179586Y-10726960D02*
X4170063Y-10717436D01*
X4170063Y-10717436D02*
X4160539Y-10698389D01*
X4160539Y-10698389D02*
X4151015Y-10660293D01*
X4151015Y-10660293D02*
X4151015Y-10612674D01*
X4151015Y-10612674D02*
X4160539Y-10574579D01*
X4160539Y-10574579D02*
X4170063Y-10555531D01*
X4170063Y-10555531D02*
X4179586Y-10546008D01*
X4179586Y-10546008D02*
X4198634Y-10536484D01*
X4351015Y-10717436D02*
X4360539Y-10726960D01*
X4360539Y-10726960D02*
X4351015Y-10736484D01*
X4351015Y-10736484D02*
X4341491Y-10726960D01*
X4341491Y-10726960D02*
X4351015Y-10717436D01*
X4351015Y-10717436D02*
X4351015Y-10736484D01*
X4484348Y-10536484D02*
X4503396Y-10536484D01*
X4503396Y-10536484D02*
X4522444Y-10546008D01*
X4522444Y-10546008D02*
X4531968Y-10555531D01*
X4531968Y-10555531D02*
X4541491Y-10574579D01*
X4541491Y-10574579D02*
X4551015Y-10612674D01*
X4551015Y-10612674D02*
X4551015Y-10660293D01*
X4551015Y-10660293D02*
X4541491Y-10698389D01*
X4541491Y-10698389D02*
X4531968Y-10717436D01*
X4531968Y-10717436D02*
X4522444Y-10726960D01*
X4522444Y-10726960D02*
X4503396Y-10736484D01*
X4503396Y-10736484D02*
X4484348Y-10736484D01*
X4484348Y-10736484D02*
X4465301Y-10726960D01*
X4465301Y-10726960D02*
X4455777Y-10717436D01*
X4455777Y-10717436D02*
X4446253Y-10698389D01*
X4446253Y-10698389D02*
X4436729Y-10660293D01*
X4436729Y-10660293D02*
X4436729Y-10612674D01*
X4436729Y-10612674D02*
X4446253Y-10574579D01*
X4446253Y-10574579D02*
X4455777Y-10555531D01*
X4455777Y-10555531D02*
X4465301Y-10546008D01*
X4465301Y-10546008D02*
X4484348Y-10536484D01*
X4741491Y-10736484D02*
X4627206Y-10736484D01*
X4684348Y-10736484D02*
X4684348Y-10536484D01*
X4684348Y-10536484D02*
X4665301Y-10565055D01*
X4665301Y-10565055D02*
X4646253Y-10584103D01*
X4646253Y-10584103D02*
X4627206Y-10593627D01*
X4931968Y-10736484D02*
X4817682Y-10736484D01*
X4874825Y-10736484D02*
X4874825Y-10536484D01*
X4874825Y-10536484D02*
X4855777Y-10565055D01*
X4855777Y-10565055D02*
X4836729Y-10584103D01*
X4836729Y-10584103D02*
X4817682Y-10593627D01*
X5046253Y-10622198D02*
X5027206Y-10612674D01*
X5027206Y-10612674D02*
X5017682Y-10603150D01*
X5017682Y-10603150D02*
X5008158Y-10584103D01*
X5008158Y-10584103D02*
X5008158Y-10574579D01*
X5008158Y-10574579D02*
X5017682Y-10555531D01*
X5017682Y-10555531D02*
X5027206Y-10546008D01*
X5027206Y-10546008D02*
X5046253Y-10536484D01*
X5046253Y-10536484D02*
X5084349Y-10536484D01*
X5084349Y-10536484D02*
X5103396Y-10546008D01*
X5103396Y-10546008D02*
X5112920Y-10555531D01*
X5112920Y-10555531D02*
X5122444Y-10574579D01*
X5122444Y-10574579D02*
X5122444Y-10584103D01*
X5122444Y-10584103D02*
X5112920Y-10603150D01*
X5112920Y-10603150D02*
X5103396Y-10612674D01*
X5103396Y-10612674D02*
X5084349Y-10622198D01*
X5084349Y-10622198D02*
X5046253Y-10622198D01*
X5046253Y-10622198D02*
X5027206Y-10631722D01*
X5027206Y-10631722D02*
X5017682Y-10641246D01*
X5017682Y-10641246D02*
X5008158Y-10660293D01*
X5008158Y-10660293D02*
X5008158Y-10698389D01*
X5008158Y-10698389D02*
X5017682Y-10717436D01*
X5017682Y-10717436D02*
X5027206Y-10726960D01*
X5027206Y-10726960D02*
X5046253Y-10736484D01*
X5046253Y-10736484D02*
X5084349Y-10736484D01*
X5084349Y-10736484D02*
X5103396Y-10726960D01*
X5103396Y-10726960D02*
X5112920Y-10717436D01*
X5112920Y-10717436D02*
X5122444Y-10698389D01*
X5122444Y-10698389D02*
X5122444Y-10660293D01*
X5122444Y-10660293D02*
X5112920Y-10641246D01*
X5112920Y-10641246D02*
X5103396Y-10631722D01*
X5103396Y-10631722D02*
X5084349Y-10622198D01*
X5198634Y-10536484D02*
X5198634Y-10574579D01*
X5274825Y-10536484D02*
X5274825Y-10574579D01*
X5570063Y-10812674D02*
X5560539Y-10803150D01*
X5560539Y-10803150D02*
X5541491Y-10774579D01*
X5541491Y-10774579D02*
X5531968Y-10755531D01*
X5531968Y-10755531D02*
X5522444Y-10726960D01*
X5522444Y-10726960D02*
X5512920Y-10679341D01*
X5512920Y-10679341D02*
X5512920Y-10641246D01*
X5512920Y-10641246D02*
X5522444Y-10593627D01*
X5522444Y-10593627D02*
X5531968Y-10565055D01*
X5531968Y-10565055D02*
X5541491Y-10546008D01*
X5541491Y-10546008D02*
X5560539Y-10517436D01*
X5560539Y-10517436D02*
X5570063Y-10507912D01*
X5636729Y-10555531D02*
X5646253Y-10546008D01*
X5646253Y-10546008D02*
X5665301Y-10536484D01*
X5665301Y-10536484D02*
X5712920Y-10536484D01*
X5712920Y-10536484D02*
X5731968Y-10546008D01*
X5731968Y-10546008D02*
X5741491Y-10555531D01*
X5741491Y-10555531D02*
X5751015Y-10574579D01*
X5751015Y-10574579D02*
X5751015Y-10593627D01*
X5751015Y-10593627D02*
X5741491Y-10622198D01*
X5741491Y-10622198D02*
X5627206Y-10736484D01*
X5627206Y-10736484D02*
X5751015Y-10736484D01*
X5874825Y-10536484D02*
X5893872Y-10536484D01*
X5893872Y-10536484D02*
X5912920Y-10546008D01*
X5912920Y-10546008D02*
X5922444Y-10555531D01*
X5922444Y-10555531D02*
X5931968Y-10574579D01*
X5931968Y-10574579D02*
X5941491Y-10612674D01*
X5941491Y-10612674D02*
X5941491Y-10660293D01*
X5941491Y-10660293D02*
X5931968Y-10698389D01*
X5931968Y-10698389D02*
X5922444Y-10717436D01*
X5922444Y-10717436D02*
X5912920Y-10726960D01*
X5912920Y-10726960D02*
X5893872Y-10736484D01*
X5893872Y-10736484D02*
X5874825Y-10736484D01*
X5874825Y-10736484D02*
X5855777Y-10726960D01*
X5855777Y-10726960D02*
X5846253Y-10717436D01*
X5846253Y-10717436D02*
X5836729Y-10698389D01*
X5836729Y-10698389D02*
X5827206Y-10660293D01*
X5827206Y-10660293D02*
X5827206Y-10612674D01*
X5827206Y-10612674D02*
X5836729Y-10574579D01*
X5836729Y-10574579D02*
X5846253Y-10555531D01*
X5846253Y-10555531D02*
X5855777Y-10546008D01*
X5855777Y-10546008D02*
X5874825Y-10536484D01*
X6131968Y-10736484D02*
X6017682Y-10736484D01*
X6074825Y-10736484D02*
X6074825Y-10536484D01*
X6074825Y-10536484D02*
X6055777Y-10565055D01*
X6055777Y-10565055D02*
X6036729Y-10584103D01*
X6036729Y-10584103D02*
X6017682Y-10593627D01*
X6370063Y-10736484D02*
X6370063Y-10536484D01*
X6455777Y-10736484D02*
X6455777Y-10631722D01*
X6455777Y-10631722D02*
X6446253Y-10612674D01*
X6446253Y-10612674D02*
X6427206Y-10603150D01*
X6427206Y-10603150D02*
X6398634Y-10603150D01*
X6398634Y-10603150D02*
X6379587Y-10612674D01*
X6379587Y-10612674D02*
X6370063Y-10622198D01*
X6579587Y-10736484D02*
X6560539Y-10726960D01*
X6560539Y-10726960D02*
X6551015Y-10717436D01*
X6551015Y-10717436D02*
X6541491Y-10698389D01*
X6541491Y-10698389D02*
X6541491Y-10641246D01*
X6541491Y-10641246D02*
X6551015Y-10622198D01*
X6551015Y-10622198D02*
X6560539Y-10612674D01*
X6560539Y-10612674D02*
X6579587Y-10603150D01*
X6579587Y-10603150D02*
X6608158Y-10603150D01*
X6608158Y-10603150D02*
X6627206Y-10612674D01*
X6627206Y-10612674D02*
X6636730Y-10622198D01*
X6636730Y-10622198D02*
X6646253Y-10641246D01*
X6646253Y-10641246D02*
X6646253Y-10698389D01*
X6646253Y-10698389D02*
X6636730Y-10717436D01*
X6636730Y-10717436D02*
X6627206Y-10726960D01*
X6627206Y-10726960D02*
X6608158Y-10736484D01*
X6608158Y-10736484D02*
X6579587Y-10736484D01*
X6760539Y-10736484D02*
X6741491Y-10726960D01*
X6741491Y-10726960D02*
X6731968Y-10707912D01*
X6731968Y-10707912D02*
X6731968Y-10536484D01*
X6912920Y-10726960D02*
X6893872Y-10736484D01*
X6893872Y-10736484D02*
X6855777Y-10736484D01*
X6855777Y-10736484D02*
X6836730Y-10726960D01*
X6836730Y-10726960D02*
X6827206Y-10707912D01*
X6827206Y-10707912D02*
X6827206Y-10631722D01*
X6827206Y-10631722D02*
X6836730Y-10612674D01*
X6836730Y-10612674D02*
X6855777Y-10603150D01*
X6855777Y-10603150D02*
X6893872Y-10603150D01*
X6893872Y-10603150D02*
X6912920Y-10612674D01*
X6912920Y-10612674D02*
X6922444Y-10631722D01*
X6922444Y-10631722D02*
X6922444Y-10650770D01*
X6922444Y-10650770D02*
X6827206Y-10669817D01*
X6998634Y-10726960D02*
X7017682Y-10736484D01*
X7017682Y-10736484D02*
X7055777Y-10736484D01*
X7055777Y-10736484D02*
X7074825Y-10726960D01*
X7074825Y-10726960D02*
X7084349Y-10707912D01*
X7084349Y-10707912D02*
X7084349Y-10698389D01*
X7084349Y-10698389D02*
X7074825Y-10679341D01*
X7074825Y-10679341D02*
X7055777Y-10669817D01*
X7055777Y-10669817D02*
X7027206Y-10669817D01*
X7027206Y-10669817D02*
X7008158Y-10660293D01*
X7008158Y-10660293D02*
X6998634Y-10641246D01*
X6998634Y-10641246D02*
X6998634Y-10631722D01*
X6998634Y-10631722D02*
X7008158Y-10612674D01*
X7008158Y-10612674D02*
X7027206Y-10603150D01*
X7027206Y-10603150D02*
X7055777Y-10603150D01*
X7055777Y-10603150D02*
X7074825Y-10612674D01*
X7151015Y-10812674D02*
X7160539Y-10803150D01*
X7160539Y-10803150D02*
X7179587Y-10774579D01*
X7179587Y-10774579D02*
X7189111Y-10755531D01*
X7189111Y-10755531D02*
X7198634Y-10726960D01*
X7198634Y-10726960D02*
X7208158Y-10679341D01*
X7208158Y-10679341D02*
X7208158Y-10641246D01*
X7208158Y-10641246D02*
X7198634Y-10593627D01*
X7198634Y-10593627D02*
X7189111Y-10565055D01*
X7189111Y-10565055D02*
X7179587Y-10546008D01*
X7179587Y-10546008D02*
X7160539Y-10517436D01*
X7160539Y-10517436D02*
X7151015Y-10507912D01*
D10*
X1995000Y-10909000D02*
G75*
G02*
X1965000Y-10909000I-15000J0D01*
G01*
X1965000Y-10909000D02*
G75*
G02*
X1995000Y-10909000I15000J0D01*
G01*
D11*
X2293872Y-10800484D02*
X2312920Y-10800484D01*
X2312920Y-10800484D02*
X2331967Y-10810008D01*
X2331967Y-10810008D02*
X2341491Y-10819531D01*
X2341491Y-10819531D02*
X2351015Y-10838579D01*
X2351015Y-10838579D02*
X2360539Y-10876674D01*
X2360539Y-10876674D02*
X2360539Y-10924293D01*
X2360539Y-10924293D02*
X2351015Y-10962389D01*
X2351015Y-10962389D02*
X2341491Y-10981436D01*
X2341491Y-10981436D02*
X2331967Y-10990960D01*
X2331967Y-10990960D02*
X2312920Y-11000484D01*
X2312920Y-11000484D02*
X2293872Y-11000484D01*
X2293872Y-11000484D02*
X2274824Y-10990960D01*
X2274824Y-10990960D02*
X2265301Y-10981436D01*
X2265301Y-10981436D02*
X2255777Y-10962389D01*
X2255777Y-10962389D02*
X2246253Y-10924293D01*
X2246253Y-10924293D02*
X2246253Y-10876674D01*
X2246253Y-10876674D02*
X2255777Y-10838579D01*
X2255777Y-10838579D02*
X2265301Y-10819531D01*
X2265301Y-10819531D02*
X2274824Y-10810008D01*
X2274824Y-10810008D02*
X2293872Y-10800484D01*
X2446253Y-10981436D02*
X2455777Y-10990960D01*
X2455777Y-10990960D02*
X2446253Y-11000484D01*
X2446253Y-11000484D02*
X2436729Y-10990960D01*
X2436729Y-10990960D02*
X2446253Y-10981436D01*
X2446253Y-10981436D02*
X2446253Y-11000484D01*
X2522444Y-10800484D02*
X2646253Y-10800484D01*
X2646253Y-10800484D02*
X2579586Y-10876674D01*
X2579586Y-10876674D02*
X2608158Y-10876674D01*
X2608158Y-10876674D02*
X2627205Y-10886198D01*
X2627205Y-10886198D02*
X2636729Y-10895722D01*
X2636729Y-10895722D02*
X2646253Y-10914770D01*
X2646253Y-10914770D02*
X2646253Y-10962389D01*
X2646253Y-10962389D02*
X2636729Y-10981436D01*
X2636729Y-10981436D02*
X2627205Y-10990960D01*
X2627205Y-10990960D02*
X2608158Y-11000484D01*
X2608158Y-11000484D02*
X2551015Y-11000484D01*
X2551015Y-11000484D02*
X2531967Y-10990960D01*
X2531967Y-10990960D02*
X2522444Y-10981436D01*
X2770063Y-10800484D02*
X2789110Y-10800484D01*
X2789110Y-10800484D02*
X2808158Y-10810008D01*
X2808158Y-10810008D02*
X2817682Y-10819531D01*
X2817682Y-10819531D02*
X2827205Y-10838579D01*
X2827205Y-10838579D02*
X2836729Y-10876674D01*
X2836729Y-10876674D02*
X2836729Y-10924293D01*
X2836729Y-10924293D02*
X2827205Y-10962389D01*
X2827205Y-10962389D02*
X2817682Y-10981436D01*
X2817682Y-10981436D02*
X2808158Y-10990960D01*
X2808158Y-10990960D02*
X2789110Y-11000484D01*
X2789110Y-11000484D02*
X2770063Y-11000484D01*
X2770063Y-11000484D02*
X2751015Y-10990960D01*
X2751015Y-10990960D02*
X2741491Y-10981436D01*
X2741491Y-10981436D02*
X2731967Y-10962389D01*
X2731967Y-10962389D02*
X2722444Y-10924293D01*
X2722444Y-10924293D02*
X2722444Y-10876674D01*
X2722444Y-10876674D02*
X2731967Y-10838579D01*
X2731967Y-10838579D02*
X2741491Y-10819531D01*
X2741491Y-10819531D02*
X2751015Y-10810008D01*
X2751015Y-10810008D02*
X2770063Y-10800484D01*
X2960539Y-10800484D02*
X2979586Y-10800484D01*
X2979586Y-10800484D02*
X2998634Y-10810008D01*
X2998634Y-10810008D02*
X3008158Y-10819531D01*
X3008158Y-10819531D02*
X3017682Y-10838579D01*
X3017682Y-10838579D02*
X3027205Y-10876674D01*
X3027205Y-10876674D02*
X3027205Y-10924293D01*
X3027205Y-10924293D02*
X3017682Y-10962389D01*
X3017682Y-10962389D02*
X3008158Y-10981436D01*
X3008158Y-10981436D02*
X2998634Y-10990960D01*
X2998634Y-10990960D02*
X2979586Y-11000484D01*
X2979586Y-11000484D02*
X2960539Y-11000484D01*
X2960539Y-11000484D02*
X2941491Y-10990960D01*
X2941491Y-10990960D02*
X2931967Y-10981436D01*
X2931967Y-10981436D02*
X2922443Y-10962389D01*
X2922443Y-10962389D02*
X2912920Y-10924293D01*
X2912920Y-10924293D02*
X2912920Y-10876674D01*
X2912920Y-10876674D02*
X2922443Y-10838579D01*
X2922443Y-10838579D02*
X2931967Y-10819531D01*
X2931967Y-10819531D02*
X2941491Y-10810008D01*
X2941491Y-10810008D02*
X2960539Y-10800484D01*
X3112920Y-11000484D02*
X3112920Y-10867150D01*
X3112920Y-10886198D02*
X3122443Y-10876674D01*
X3122443Y-10876674D02*
X3141491Y-10867150D01*
X3141491Y-10867150D02*
X3170063Y-10867150D01*
X3170063Y-10867150D02*
X3189110Y-10876674D01*
X3189110Y-10876674D02*
X3198634Y-10895722D01*
X3198634Y-10895722D02*
X3198634Y-11000484D01*
X3198634Y-10895722D02*
X3208158Y-10876674D01*
X3208158Y-10876674D02*
X3227205Y-10867150D01*
X3227205Y-10867150D02*
X3255777Y-10867150D01*
X3255777Y-10867150D02*
X3274824Y-10876674D01*
X3274824Y-10876674D02*
X3284348Y-10895722D01*
X3284348Y-10895722D02*
X3284348Y-11000484D01*
X3379586Y-11000484D02*
X3379586Y-10867150D01*
X3379586Y-10886198D02*
X3389110Y-10876674D01*
X3389110Y-10876674D02*
X3408158Y-10867150D01*
X3408158Y-10867150D02*
X3436729Y-10867150D01*
X3436729Y-10867150D02*
X3455777Y-10876674D01*
X3455777Y-10876674D02*
X3465301Y-10895722D01*
X3465301Y-10895722D02*
X3465301Y-11000484D01*
X3465301Y-10895722D02*
X3474824Y-10876674D01*
X3474824Y-10876674D02*
X3493872Y-10867150D01*
X3493872Y-10867150D02*
X3522443Y-10867150D01*
X3522443Y-10867150D02*
X3541491Y-10876674D01*
X3541491Y-10876674D02*
X3551015Y-10895722D01*
X3551015Y-10895722D02*
X3551015Y-11000484D01*
X3941491Y-10790960D02*
X3770063Y-11048103D01*
X4198634Y-10800484D02*
X4217682Y-10800484D01*
X4217682Y-10800484D02*
X4236729Y-10810008D01*
X4236729Y-10810008D02*
X4246253Y-10819531D01*
X4246253Y-10819531D02*
X4255777Y-10838579D01*
X4255777Y-10838579D02*
X4265301Y-10876674D01*
X4265301Y-10876674D02*
X4265301Y-10924293D01*
X4265301Y-10924293D02*
X4255777Y-10962389D01*
X4255777Y-10962389D02*
X4246253Y-10981436D01*
X4246253Y-10981436D02*
X4236729Y-10990960D01*
X4236729Y-10990960D02*
X4217682Y-11000484D01*
X4217682Y-11000484D02*
X4198634Y-11000484D01*
X4198634Y-11000484D02*
X4179586Y-10990960D01*
X4179586Y-10990960D02*
X4170063Y-10981436D01*
X4170063Y-10981436D02*
X4160539Y-10962389D01*
X4160539Y-10962389D02*
X4151015Y-10924293D01*
X4151015Y-10924293D02*
X4151015Y-10876674D01*
X4151015Y-10876674D02*
X4160539Y-10838579D01*
X4160539Y-10838579D02*
X4170063Y-10819531D01*
X4170063Y-10819531D02*
X4179586Y-10810008D01*
X4179586Y-10810008D02*
X4198634Y-10800484D01*
X4351015Y-10981436D02*
X4360539Y-10990960D01*
X4360539Y-10990960D02*
X4351015Y-11000484D01*
X4351015Y-11000484D02*
X4341491Y-10990960D01*
X4341491Y-10990960D02*
X4351015Y-10981436D01*
X4351015Y-10981436D02*
X4351015Y-11000484D01*
X4484348Y-10800484D02*
X4503396Y-10800484D01*
X4503396Y-10800484D02*
X4522444Y-10810008D01*
X4522444Y-10810008D02*
X4531968Y-10819531D01*
X4531968Y-10819531D02*
X4541491Y-10838579D01*
X4541491Y-10838579D02*
X4551015Y-10876674D01*
X4551015Y-10876674D02*
X4551015Y-10924293D01*
X4551015Y-10924293D02*
X4541491Y-10962389D01*
X4541491Y-10962389D02*
X4531968Y-10981436D01*
X4531968Y-10981436D02*
X4522444Y-10990960D01*
X4522444Y-10990960D02*
X4503396Y-11000484D01*
X4503396Y-11000484D02*
X4484348Y-11000484D01*
X4484348Y-11000484D02*
X4465301Y-10990960D01*
X4465301Y-10990960D02*
X4455777Y-10981436D01*
X4455777Y-10981436D02*
X4446253Y-10962389D01*
X4446253Y-10962389D02*
X4436729Y-10924293D01*
X4436729Y-10924293D02*
X4436729Y-10876674D01*
X4436729Y-10876674D02*
X4446253Y-10838579D01*
X4446253Y-10838579D02*
X4455777Y-10819531D01*
X4455777Y-10819531D02*
X4465301Y-10810008D01*
X4465301Y-10810008D02*
X4484348Y-10800484D01*
X4741491Y-11000484D02*
X4627206Y-11000484D01*
X4684348Y-11000484D02*
X4684348Y-10800484D01*
X4684348Y-10800484D02*
X4665301Y-10829055D01*
X4665301Y-10829055D02*
X4646253Y-10848103D01*
X4646253Y-10848103D02*
X4627206Y-10857627D01*
X4931968Y-11000484D02*
X4817682Y-11000484D01*
X4874825Y-11000484D02*
X4874825Y-10800484D01*
X4874825Y-10800484D02*
X4855777Y-10829055D01*
X4855777Y-10829055D02*
X4836729Y-10848103D01*
X4836729Y-10848103D02*
X4817682Y-10857627D01*
X5046253Y-10886198D02*
X5027206Y-10876674D01*
X5027206Y-10876674D02*
X5017682Y-10867150D01*
X5017682Y-10867150D02*
X5008158Y-10848103D01*
X5008158Y-10848103D02*
X5008158Y-10838579D01*
X5008158Y-10838579D02*
X5017682Y-10819531D01*
X5017682Y-10819531D02*
X5027206Y-10810008D01*
X5027206Y-10810008D02*
X5046253Y-10800484D01*
X5046253Y-10800484D02*
X5084349Y-10800484D01*
X5084349Y-10800484D02*
X5103396Y-10810008D01*
X5103396Y-10810008D02*
X5112920Y-10819531D01*
X5112920Y-10819531D02*
X5122444Y-10838579D01*
X5122444Y-10838579D02*
X5122444Y-10848103D01*
X5122444Y-10848103D02*
X5112920Y-10867150D01*
X5112920Y-10867150D02*
X5103396Y-10876674D01*
X5103396Y-10876674D02*
X5084349Y-10886198D01*
X5084349Y-10886198D02*
X5046253Y-10886198D01*
X5046253Y-10886198D02*
X5027206Y-10895722D01*
X5027206Y-10895722D02*
X5017682Y-10905246D01*
X5017682Y-10905246D02*
X5008158Y-10924293D01*
X5008158Y-10924293D02*
X5008158Y-10962389D01*
X5008158Y-10962389D02*
X5017682Y-10981436D01*
X5017682Y-10981436D02*
X5027206Y-10990960D01*
X5027206Y-10990960D02*
X5046253Y-11000484D01*
X5046253Y-11000484D02*
X5084349Y-11000484D01*
X5084349Y-11000484D02*
X5103396Y-10990960D01*
X5103396Y-10990960D02*
X5112920Y-10981436D01*
X5112920Y-10981436D02*
X5122444Y-10962389D01*
X5122444Y-10962389D02*
X5122444Y-10924293D01*
X5122444Y-10924293D02*
X5112920Y-10905246D01*
X5112920Y-10905246D02*
X5103396Y-10895722D01*
X5103396Y-10895722D02*
X5084349Y-10886198D01*
X5198634Y-10800484D02*
X5198634Y-10838579D01*
X5274825Y-10800484D02*
X5274825Y-10838579D01*
X5570063Y-11076674D02*
X5560539Y-11067150D01*
X5560539Y-11067150D02*
X5541491Y-11038579D01*
X5541491Y-11038579D02*
X5531968Y-11019531D01*
X5531968Y-11019531D02*
X5522444Y-10990960D01*
X5522444Y-10990960D02*
X5512920Y-10943341D01*
X5512920Y-10943341D02*
X5512920Y-10905246D01*
X5512920Y-10905246D02*
X5522444Y-10857627D01*
X5522444Y-10857627D02*
X5531968Y-10829055D01*
X5531968Y-10829055D02*
X5541491Y-10810008D01*
X5541491Y-10810008D02*
X5560539Y-10781436D01*
X5560539Y-10781436D02*
X5570063Y-10771912D01*
X5751015Y-11000484D02*
X5636729Y-11000484D01*
X5693872Y-11000484D02*
X5693872Y-10800484D01*
X5693872Y-10800484D02*
X5674825Y-10829055D01*
X5674825Y-10829055D02*
X5655777Y-10848103D01*
X5655777Y-10848103D02*
X5636729Y-10857627D01*
X5827206Y-10819531D02*
X5836729Y-10810008D01*
X5836729Y-10810008D02*
X5855777Y-10800484D01*
X5855777Y-10800484D02*
X5903396Y-10800484D01*
X5903396Y-10800484D02*
X5922444Y-10810008D01*
X5922444Y-10810008D02*
X5931968Y-10819531D01*
X5931968Y-10819531D02*
X5941491Y-10838579D01*
X5941491Y-10838579D02*
X5941491Y-10857627D01*
X5941491Y-10857627D02*
X5931968Y-10886198D01*
X5931968Y-10886198D02*
X5817682Y-11000484D01*
X5817682Y-11000484D02*
X5941491Y-11000484D01*
X6179587Y-11000484D02*
X6179587Y-10800484D01*
X6265301Y-11000484D02*
X6265301Y-10895722D01*
X6265301Y-10895722D02*
X6255777Y-10876674D01*
X6255777Y-10876674D02*
X6236730Y-10867150D01*
X6236730Y-10867150D02*
X6208158Y-10867150D01*
X6208158Y-10867150D02*
X6189110Y-10876674D01*
X6189110Y-10876674D02*
X6179587Y-10886198D01*
X6389110Y-11000484D02*
X6370063Y-10990960D01*
X6370063Y-10990960D02*
X6360539Y-10981436D01*
X6360539Y-10981436D02*
X6351015Y-10962389D01*
X6351015Y-10962389D02*
X6351015Y-10905246D01*
X6351015Y-10905246D02*
X6360539Y-10886198D01*
X6360539Y-10886198D02*
X6370063Y-10876674D01*
X6370063Y-10876674D02*
X6389110Y-10867150D01*
X6389110Y-10867150D02*
X6417682Y-10867150D01*
X6417682Y-10867150D02*
X6436730Y-10876674D01*
X6436730Y-10876674D02*
X6446253Y-10886198D01*
X6446253Y-10886198D02*
X6455777Y-10905246D01*
X6455777Y-10905246D02*
X6455777Y-10962389D01*
X6455777Y-10962389D02*
X6446253Y-10981436D01*
X6446253Y-10981436D02*
X6436730Y-10990960D01*
X6436730Y-10990960D02*
X6417682Y-11000484D01*
X6417682Y-11000484D02*
X6389110Y-11000484D01*
X6570063Y-11000484D02*
X6551015Y-10990960D01*
X6551015Y-10990960D02*
X6541491Y-10971912D01*
X6541491Y-10971912D02*
X6541491Y-10800484D01*
X6722444Y-10990960D02*
X6703396Y-11000484D01*
X6703396Y-11000484D02*
X6665301Y-11000484D01*
X6665301Y-11000484D02*
X6646253Y-10990960D01*
X6646253Y-10990960D02*
X6636730Y-10971912D01*
X6636730Y-10971912D02*
X6636730Y-10895722D01*
X6636730Y-10895722D02*
X6646253Y-10876674D01*
X6646253Y-10876674D02*
X6665301Y-10867150D01*
X6665301Y-10867150D02*
X6703396Y-10867150D01*
X6703396Y-10867150D02*
X6722444Y-10876674D01*
X6722444Y-10876674D02*
X6731968Y-10895722D01*
X6731968Y-10895722D02*
X6731968Y-10914770D01*
X6731968Y-10914770D02*
X6636730Y-10933817D01*
X6808158Y-10990960D02*
X6827206Y-11000484D01*
X6827206Y-11000484D02*
X6865301Y-11000484D01*
X6865301Y-11000484D02*
X6884349Y-10990960D01*
X6884349Y-10990960D02*
X6893872Y-10971912D01*
X6893872Y-10971912D02*
X6893872Y-10962389D01*
X6893872Y-10962389D02*
X6884349Y-10943341D01*
X6884349Y-10943341D02*
X6865301Y-10933817D01*
X6865301Y-10933817D02*
X6836730Y-10933817D01*
X6836730Y-10933817D02*
X6817682Y-10924293D01*
X6817682Y-10924293D02*
X6808158Y-10905246D01*
X6808158Y-10905246D02*
X6808158Y-10895722D01*
X6808158Y-10895722D02*
X6817682Y-10876674D01*
X6817682Y-10876674D02*
X6836730Y-10867150D01*
X6836730Y-10867150D02*
X6865301Y-10867150D01*
X6865301Y-10867150D02*
X6884349Y-10876674D01*
X6960539Y-11076674D02*
X6970063Y-11067150D01*
X6970063Y-11067150D02*
X6989111Y-11038579D01*
X6989111Y-11038579D02*
X6998634Y-11019531D01*
X6998634Y-11019531D02*
X7008158Y-10990960D01*
X7008158Y-10990960D02*
X7017682Y-10943341D01*
X7017682Y-10943341D02*
X7017682Y-10905246D01*
X7017682Y-10905246D02*
X7008158Y-10857627D01*
X7008158Y-10857627D02*
X6998634Y-10829055D01*
X6998634Y-10829055D02*
X6989111Y-10810008D01*
X6989111Y-10810008D02*
X6970063Y-10781436D01*
X6970063Y-10781436D02*
X6960539Y-10771912D01*
D10*
X1970000Y-11148000D02*
X1970000Y-11198000D01*
X1945000Y-11173000D02*
X1995000Y-11173000D01*
D11*
X2293872Y-11064484D02*
X2312920Y-11064484D01*
X2312920Y-11064484D02*
X2331967Y-11074008D01*
X2331967Y-11074008D02*
X2341491Y-11083531D01*
X2341491Y-11083531D02*
X2351015Y-11102579D01*
X2351015Y-11102579D02*
X2360539Y-11140674D01*
X2360539Y-11140674D02*
X2360539Y-11188293D01*
X2360539Y-11188293D02*
X2351015Y-11226388D01*
X2351015Y-11226388D02*
X2341491Y-11245436D01*
X2341491Y-11245436D02*
X2331967Y-11254960D01*
X2331967Y-11254960D02*
X2312920Y-11264484D01*
X2312920Y-11264484D02*
X2293872Y-11264484D01*
X2293872Y-11264484D02*
X2274824Y-11254960D01*
X2274824Y-11254960D02*
X2265301Y-11245436D01*
X2265301Y-11245436D02*
X2255777Y-11226388D01*
X2255777Y-11226388D02*
X2246253Y-11188293D01*
X2246253Y-11188293D02*
X2246253Y-11140674D01*
X2246253Y-11140674D02*
X2255777Y-11102579D01*
X2255777Y-11102579D02*
X2265301Y-11083531D01*
X2265301Y-11083531D02*
X2274824Y-11074008D01*
X2274824Y-11074008D02*
X2293872Y-11064484D01*
X2446253Y-11245436D02*
X2455777Y-11254960D01*
X2455777Y-11254960D02*
X2446253Y-11264484D01*
X2446253Y-11264484D02*
X2436729Y-11254960D01*
X2436729Y-11254960D02*
X2446253Y-11245436D01*
X2446253Y-11245436D02*
X2446253Y-11264484D01*
X2636729Y-11064484D02*
X2541491Y-11064484D01*
X2541491Y-11064484D02*
X2531967Y-11159722D01*
X2531967Y-11159722D02*
X2541491Y-11150198D01*
X2541491Y-11150198D02*
X2560539Y-11140674D01*
X2560539Y-11140674D02*
X2608158Y-11140674D01*
X2608158Y-11140674D02*
X2627205Y-11150198D01*
X2627205Y-11150198D02*
X2636729Y-11159722D01*
X2636729Y-11159722D02*
X2646253Y-11178770D01*
X2646253Y-11178770D02*
X2646253Y-11226388D01*
X2646253Y-11226388D02*
X2636729Y-11245436D01*
X2636729Y-11245436D02*
X2627205Y-11254960D01*
X2627205Y-11254960D02*
X2608158Y-11264484D01*
X2608158Y-11264484D02*
X2560539Y-11264484D01*
X2560539Y-11264484D02*
X2541491Y-11254960D01*
X2541491Y-11254960D02*
X2531967Y-11245436D01*
X2770063Y-11064484D02*
X2789110Y-11064484D01*
X2789110Y-11064484D02*
X2808158Y-11074008D01*
X2808158Y-11074008D02*
X2817682Y-11083531D01*
X2817682Y-11083531D02*
X2827205Y-11102579D01*
X2827205Y-11102579D02*
X2836729Y-11140674D01*
X2836729Y-11140674D02*
X2836729Y-11188293D01*
X2836729Y-11188293D02*
X2827205Y-11226388D01*
X2827205Y-11226388D02*
X2817682Y-11245436D01*
X2817682Y-11245436D02*
X2808158Y-11254960D01*
X2808158Y-11254960D02*
X2789110Y-11264484D01*
X2789110Y-11264484D02*
X2770063Y-11264484D01*
X2770063Y-11264484D02*
X2751015Y-11254960D01*
X2751015Y-11254960D02*
X2741491Y-11245436D01*
X2741491Y-11245436D02*
X2731967Y-11226388D01*
X2731967Y-11226388D02*
X2722444Y-11188293D01*
X2722444Y-11188293D02*
X2722444Y-11140674D01*
X2722444Y-11140674D02*
X2731967Y-11102579D01*
X2731967Y-11102579D02*
X2741491Y-11083531D01*
X2741491Y-11083531D02*
X2751015Y-11074008D01*
X2751015Y-11074008D02*
X2770063Y-11064484D01*
X2960539Y-11064484D02*
X2979586Y-11064484D01*
X2979586Y-11064484D02*
X2998634Y-11074008D01*
X2998634Y-11074008D02*
X3008158Y-11083531D01*
X3008158Y-11083531D02*
X3017682Y-11102579D01*
X3017682Y-11102579D02*
X3027205Y-11140674D01*
X3027205Y-11140674D02*
X3027205Y-11188293D01*
X3027205Y-11188293D02*
X3017682Y-11226388D01*
X3017682Y-11226388D02*
X3008158Y-11245436D01*
X3008158Y-11245436D02*
X2998634Y-11254960D01*
X2998634Y-11254960D02*
X2979586Y-11264484D01*
X2979586Y-11264484D02*
X2960539Y-11264484D01*
X2960539Y-11264484D02*
X2941491Y-11254960D01*
X2941491Y-11254960D02*
X2931967Y-11245436D01*
X2931967Y-11245436D02*
X2922443Y-11226388D01*
X2922443Y-11226388D02*
X2912920Y-11188293D01*
X2912920Y-11188293D02*
X2912920Y-11140674D01*
X2912920Y-11140674D02*
X2922443Y-11102579D01*
X2922443Y-11102579D02*
X2931967Y-11083531D01*
X2931967Y-11083531D02*
X2941491Y-11074008D01*
X2941491Y-11074008D02*
X2960539Y-11064484D01*
X3112920Y-11264484D02*
X3112920Y-11131150D01*
X3112920Y-11150198D02*
X3122443Y-11140674D01*
X3122443Y-11140674D02*
X3141491Y-11131150D01*
X3141491Y-11131150D02*
X3170063Y-11131150D01*
X3170063Y-11131150D02*
X3189110Y-11140674D01*
X3189110Y-11140674D02*
X3198634Y-11159722D01*
X3198634Y-11159722D02*
X3198634Y-11264484D01*
X3198634Y-11159722D02*
X3208158Y-11140674D01*
X3208158Y-11140674D02*
X3227205Y-11131150D01*
X3227205Y-11131150D02*
X3255777Y-11131150D01*
X3255777Y-11131150D02*
X3274824Y-11140674D01*
X3274824Y-11140674D02*
X3284348Y-11159722D01*
X3284348Y-11159722D02*
X3284348Y-11264484D01*
X3379586Y-11264484D02*
X3379586Y-11131150D01*
X3379586Y-11150198D02*
X3389110Y-11140674D01*
X3389110Y-11140674D02*
X3408158Y-11131150D01*
X3408158Y-11131150D02*
X3436729Y-11131150D01*
X3436729Y-11131150D02*
X3455777Y-11140674D01*
X3455777Y-11140674D02*
X3465301Y-11159722D01*
X3465301Y-11159722D02*
X3465301Y-11264484D01*
X3465301Y-11159722D02*
X3474824Y-11140674D01*
X3474824Y-11140674D02*
X3493872Y-11131150D01*
X3493872Y-11131150D02*
X3522443Y-11131150D01*
X3522443Y-11131150D02*
X3541491Y-11140674D01*
X3541491Y-11140674D02*
X3551015Y-11159722D01*
X3551015Y-11159722D02*
X3551015Y-11264484D01*
X3941491Y-11054960D02*
X3770063Y-11312103D01*
X4198634Y-11064484D02*
X4217682Y-11064484D01*
X4217682Y-11064484D02*
X4236729Y-11074008D01*
X4236729Y-11074008D02*
X4246253Y-11083531D01*
X4246253Y-11083531D02*
X4255777Y-11102579D01*
X4255777Y-11102579D02*
X4265301Y-11140674D01*
X4265301Y-11140674D02*
X4265301Y-11188293D01*
X4265301Y-11188293D02*
X4255777Y-11226388D01*
X4255777Y-11226388D02*
X4246253Y-11245436D01*
X4246253Y-11245436D02*
X4236729Y-11254960D01*
X4236729Y-11254960D02*
X4217682Y-11264484D01*
X4217682Y-11264484D02*
X4198634Y-11264484D01*
X4198634Y-11264484D02*
X4179586Y-11254960D01*
X4179586Y-11254960D02*
X4170063Y-11245436D01*
X4170063Y-11245436D02*
X4160539Y-11226388D01*
X4160539Y-11226388D02*
X4151015Y-11188293D01*
X4151015Y-11188293D02*
X4151015Y-11140674D01*
X4151015Y-11140674D02*
X4160539Y-11102579D01*
X4160539Y-11102579D02*
X4170063Y-11083531D01*
X4170063Y-11083531D02*
X4179586Y-11074008D01*
X4179586Y-11074008D02*
X4198634Y-11064484D01*
X4351015Y-11245436D02*
X4360539Y-11254960D01*
X4360539Y-11254960D02*
X4351015Y-11264484D01*
X4351015Y-11264484D02*
X4341491Y-11254960D01*
X4341491Y-11254960D02*
X4351015Y-11245436D01*
X4351015Y-11245436D02*
X4351015Y-11264484D01*
X4484348Y-11064484D02*
X4503396Y-11064484D01*
X4503396Y-11064484D02*
X4522444Y-11074008D01*
X4522444Y-11074008D02*
X4531968Y-11083531D01*
X4531968Y-11083531D02*
X4541491Y-11102579D01*
X4541491Y-11102579D02*
X4551015Y-11140674D01*
X4551015Y-11140674D02*
X4551015Y-11188293D01*
X4551015Y-11188293D02*
X4541491Y-11226388D01*
X4541491Y-11226388D02*
X4531968Y-11245436D01*
X4531968Y-11245436D02*
X4522444Y-11254960D01*
X4522444Y-11254960D02*
X4503396Y-11264484D01*
X4503396Y-11264484D02*
X4484348Y-11264484D01*
X4484348Y-11264484D02*
X4465301Y-11254960D01*
X4465301Y-11254960D02*
X4455777Y-11245436D01*
X4455777Y-11245436D02*
X4446253Y-11226388D01*
X4446253Y-11226388D02*
X4436729Y-11188293D01*
X4436729Y-11188293D02*
X4436729Y-11140674D01*
X4436729Y-11140674D02*
X4446253Y-11102579D01*
X4446253Y-11102579D02*
X4455777Y-11083531D01*
X4455777Y-11083531D02*
X4465301Y-11074008D01*
X4465301Y-11074008D02*
X4484348Y-11064484D01*
X4741491Y-11264484D02*
X4627206Y-11264484D01*
X4684348Y-11264484D02*
X4684348Y-11064484D01*
X4684348Y-11064484D02*
X4665301Y-11093055D01*
X4665301Y-11093055D02*
X4646253Y-11112103D01*
X4646253Y-11112103D02*
X4627206Y-11121627D01*
X4836729Y-11264484D02*
X4874825Y-11264484D01*
X4874825Y-11264484D02*
X4893872Y-11254960D01*
X4893872Y-11254960D02*
X4903396Y-11245436D01*
X4903396Y-11245436D02*
X4922444Y-11216865D01*
X4922444Y-11216865D02*
X4931968Y-11178770D01*
X4931968Y-11178770D02*
X4931968Y-11102579D01*
X4931968Y-11102579D02*
X4922444Y-11083531D01*
X4922444Y-11083531D02*
X4912920Y-11074008D01*
X4912920Y-11074008D02*
X4893872Y-11064484D01*
X4893872Y-11064484D02*
X4855777Y-11064484D01*
X4855777Y-11064484D02*
X4836729Y-11074008D01*
X4836729Y-11074008D02*
X4827206Y-11083531D01*
X4827206Y-11083531D02*
X4817682Y-11102579D01*
X4817682Y-11102579D02*
X4817682Y-11150198D01*
X4817682Y-11150198D02*
X4827206Y-11169246D01*
X4827206Y-11169246D02*
X4836729Y-11178770D01*
X4836729Y-11178770D02*
X4855777Y-11188293D01*
X4855777Y-11188293D02*
X4893872Y-11188293D01*
X4893872Y-11188293D02*
X4912920Y-11178770D01*
X4912920Y-11178770D02*
X4922444Y-11169246D01*
X4922444Y-11169246D02*
X4931968Y-11150198D01*
X4998634Y-11064484D02*
X5131968Y-11064484D01*
X5131968Y-11064484D02*
X5046253Y-11264484D01*
X5198634Y-11064484D02*
X5198634Y-11102579D01*
X5274825Y-11064484D02*
X5274825Y-11102579D01*
X5570063Y-11340674D02*
X5560539Y-11331150D01*
X5560539Y-11331150D02*
X5541491Y-11302579D01*
X5541491Y-11302579D02*
X5531968Y-11283531D01*
X5531968Y-11283531D02*
X5522444Y-11254960D01*
X5522444Y-11254960D02*
X5512920Y-11207341D01*
X5512920Y-11207341D02*
X5512920Y-11169246D01*
X5512920Y-11169246D02*
X5522444Y-11121627D01*
X5522444Y-11121627D02*
X5531968Y-11093055D01*
X5531968Y-11093055D02*
X5541491Y-11074008D01*
X5541491Y-11074008D02*
X5560539Y-11045436D01*
X5560539Y-11045436D02*
X5570063Y-11035912D01*
X5627206Y-11064484D02*
X5751015Y-11064484D01*
X5751015Y-11064484D02*
X5684348Y-11140674D01*
X5684348Y-11140674D02*
X5712920Y-11140674D01*
X5712920Y-11140674D02*
X5731968Y-11150198D01*
X5731968Y-11150198D02*
X5741491Y-11159722D01*
X5741491Y-11159722D02*
X5751015Y-11178770D01*
X5751015Y-11178770D02*
X5751015Y-11226388D01*
X5751015Y-11226388D02*
X5741491Y-11245436D01*
X5741491Y-11245436D02*
X5731968Y-11254960D01*
X5731968Y-11254960D02*
X5712920Y-11264484D01*
X5712920Y-11264484D02*
X5655777Y-11264484D01*
X5655777Y-11264484D02*
X5636729Y-11254960D01*
X5636729Y-11254960D02*
X5627206Y-11245436D01*
X5827206Y-11083531D02*
X5836729Y-11074008D01*
X5836729Y-11074008D02*
X5855777Y-11064484D01*
X5855777Y-11064484D02*
X5903396Y-11064484D01*
X5903396Y-11064484D02*
X5922444Y-11074008D01*
X5922444Y-11074008D02*
X5931968Y-11083531D01*
X5931968Y-11083531D02*
X5941491Y-11102579D01*
X5941491Y-11102579D02*
X5941491Y-11121627D01*
X5941491Y-11121627D02*
X5931968Y-11150198D01*
X5931968Y-11150198D02*
X5817682Y-11264484D01*
X5817682Y-11264484D02*
X5941491Y-11264484D01*
X6179587Y-11264484D02*
X6179587Y-11064484D01*
X6265301Y-11264484D02*
X6265301Y-11159722D01*
X6265301Y-11159722D02*
X6255777Y-11140674D01*
X6255777Y-11140674D02*
X6236730Y-11131150D01*
X6236730Y-11131150D02*
X6208158Y-11131150D01*
X6208158Y-11131150D02*
X6189110Y-11140674D01*
X6189110Y-11140674D02*
X6179587Y-11150198D01*
X6389110Y-11264484D02*
X6370063Y-11254960D01*
X6370063Y-11254960D02*
X6360539Y-11245436D01*
X6360539Y-11245436D02*
X6351015Y-11226388D01*
X6351015Y-11226388D02*
X6351015Y-11169246D01*
X6351015Y-11169246D02*
X6360539Y-11150198D01*
X6360539Y-11150198D02*
X6370063Y-11140674D01*
X6370063Y-11140674D02*
X6389110Y-11131150D01*
X6389110Y-11131150D02*
X6417682Y-11131150D01*
X6417682Y-11131150D02*
X6436730Y-11140674D01*
X6436730Y-11140674D02*
X6446253Y-11150198D01*
X6446253Y-11150198D02*
X6455777Y-11169246D01*
X6455777Y-11169246D02*
X6455777Y-11226388D01*
X6455777Y-11226388D02*
X6446253Y-11245436D01*
X6446253Y-11245436D02*
X6436730Y-11254960D01*
X6436730Y-11254960D02*
X6417682Y-11264484D01*
X6417682Y-11264484D02*
X6389110Y-11264484D01*
X6570063Y-11264484D02*
X6551015Y-11254960D01*
X6551015Y-11254960D02*
X6541491Y-11235912D01*
X6541491Y-11235912D02*
X6541491Y-11064484D01*
X6722444Y-11254960D02*
X6703396Y-11264484D01*
X6703396Y-11264484D02*
X6665301Y-11264484D01*
X6665301Y-11264484D02*
X6646253Y-11254960D01*
X6646253Y-11254960D02*
X6636730Y-11235912D01*
X6636730Y-11235912D02*
X6636730Y-11159722D01*
X6636730Y-11159722D02*
X6646253Y-11140674D01*
X6646253Y-11140674D02*
X6665301Y-11131150D01*
X6665301Y-11131150D02*
X6703396Y-11131150D01*
X6703396Y-11131150D02*
X6722444Y-11140674D01*
X6722444Y-11140674D02*
X6731968Y-11159722D01*
X6731968Y-11159722D02*
X6731968Y-11178770D01*
X6731968Y-11178770D02*
X6636730Y-11197817D01*
X6808158Y-11254960D02*
X6827206Y-11264484D01*
X6827206Y-11264484D02*
X6865301Y-11264484D01*
X6865301Y-11264484D02*
X6884349Y-11254960D01*
X6884349Y-11254960D02*
X6893872Y-11235912D01*
X6893872Y-11235912D02*
X6893872Y-11226388D01*
X6893872Y-11226388D02*
X6884349Y-11207341D01*
X6884349Y-11207341D02*
X6865301Y-11197817D01*
X6865301Y-11197817D02*
X6836730Y-11197817D01*
X6836730Y-11197817D02*
X6817682Y-11188293D01*
X6817682Y-11188293D02*
X6808158Y-11169246D01*
X6808158Y-11169246D02*
X6808158Y-11159722D01*
X6808158Y-11159722D02*
X6817682Y-11140674D01*
X6817682Y-11140674D02*
X6836730Y-11131150D01*
X6836730Y-11131150D02*
X6865301Y-11131150D01*
X6865301Y-11131150D02*
X6884349Y-11140674D01*
X6960539Y-11340674D02*
X6970063Y-11331150D01*
X6970063Y-11331150D02*
X6989111Y-11302579D01*
X6989111Y-11302579D02*
X6998634Y-11283531D01*
X6998634Y-11283531D02*
X7008158Y-11254960D01*
X7008158Y-11254960D02*
X7017682Y-11207341D01*
X7017682Y-11207341D02*
X7017682Y-11169246D01*
X7017682Y-11169246D02*
X7008158Y-11121627D01*
X7008158Y-11121627D02*
X6998634Y-11093055D01*
X6998634Y-11093055D02*
X6989111Y-11074008D01*
X6989111Y-11074008D02*
X6970063Y-11045436D01*
X6970063Y-11045436D02*
X6960539Y-11035912D01*
D10*
X1986213Y-11458213D02*
X1986213Y-11415787D01*
X1943787Y-11415787D01*
X1943787Y-11458213D01*
X1986213Y-11458213D01*
D11*
X2293872Y-11328484D02*
X2312920Y-11328484D01*
X2312920Y-11328484D02*
X2331967Y-11338008D01*
X2331967Y-11338008D02*
X2341491Y-11347531D01*
X2341491Y-11347531D02*
X2351015Y-11366579D01*
X2351015Y-11366579D02*
X2360539Y-11404674D01*
X2360539Y-11404674D02*
X2360539Y-11452293D01*
X2360539Y-11452293D02*
X2351015Y-11490388D01*
X2351015Y-11490388D02*
X2341491Y-11509436D01*
X2341491Y-11509436D02*
X2331967Y-11518960D01*
X2331967Y-11518960D02*
X2312920Y-11528484D01*
X2312920Y-11528484D02*
X2293872Y-11528484D01*
X2293872Y-11528484D02*
X2274824Y-11518960D01*
X2274824Y-11518960D02*
X2265301Y-11509436D01*
X2265301Y-11509436D02*
X2255777Y-11490388D01*
X2255777Y-11490388D02*
X2246253Y-11452293D01*
X2246253Y-11452293D02*
X2246253Y-11404674D01*
X2246253Y-11404674D02*
X2255777Y-11366579D01*
X2255777Y-11366579D02*
X2265301Y-11347531D01*
X2265301Y-11347531D02*
X2274824Y-11338008D01*
X2274824Y-11338008D02*
X2293872Y-11328484D01*
X2446253Y-11509436D02*
X2455777Y-11518960D01*
X2455777Y-11518960D02*
X2446253Y-11528484D01*
X2446253Y-11528484D02*
X2436729Y-11518960D01*
X2436729Y-11518960D02*
X2446253Y-11509436D01*
X2446253Y-11509436D02*
X2446253Y-11528484D01*
X2627205Y-11328484D02*
X2589110Y-11328484D01*
X2589110Y-11328484D02*
X2570063Y-11338008D01*
X2570063Y-11338008D02*
X2560539Y-11347531D01*
X2560539Y-11347531D02*
X2541491Y-11376103D01*
X2541491Y-11376103D02*
X2531967Y-11414198D01*
X2531967Y-11414198D02*
X2531967Y-11490388D01*
X2531967Y-11490388D02*
X2541491Y-11509436D01*
X2541491Y-11509436D02*
X2551015Y-11518960D01*
X2551015Y-11518960D02*
X2570063Y-11528484D01*
X2570063Y-11528484D02*
X2608158Y-11528484D01*
X2608158Y-11528484D02*
X2627205Y-11518960D01*
X2627205Y-11518960D02*
X2636729Y-11509436D01*
X2636729Y-11509436D02*
X2646253Y-11490388D01*
X2646253Y-11490388D02*
X2646253Y-11442769D01*
X2646253Y-11442769D02*
X2636729Y-11423722D01*
X2636729Y-11423722D02*
X2627205Y-11414198D01*
X2627205Y-11414198D02*
X2608158Y-11404674D01*
X2608158Y-11404674D02*
X2570063Y-11404674D01*
X2570063Y-11404674D02*
X2551015Y-11414198D01*
X2551015Y-11414198D02*
X2541491Y-11423722D01*
X2541491Y-11423722D02*
X2531967Y-11442769D01*
X2770063Y-11328484D02*
X2789110Y-11328484D01*
X2789110Y-11328484D02*
X2808158Y-11338008D01*
X2808158Y-11338008D02*
X2817682Y-11347531D01*
X2817682Y-11347531D02*
X2827205Y-11366579D01*
X2827205Y-11366579D02*
X2836729Y-11404674D01*
X2836729Y-11404674D02*
X2836729Y-11452293D01*
X2836729Y-11452293D02*
X2827205Y-11490388D01*
X2827205Y-11490388D02*
X2817682Y-11509436D01*
X2817682Y-11509436D02*
X2808158Y-11518960D01*
X2808158Y-11518960D02*
X2789110Y-11528484D01*
X2789110Y-11528484D02*
X2770063Y-11528484D01*
X2770063Y-11528484D02*
X2751015Y-11518960D01*
X2751015Y-11518960D02*
X2741491Y-11509436D01*
X2741491Y-11509436D02*
X2731967Y-11490388D01*
X2731967Y-11490388D02*
X2722444Y-11452293D01*
X2722444Y-11452293D02*
X2722444Y-11404674D01*
X2722444Y-11404674D02*
X2731967Y-11366579D01*
X2731967Y-11366579D02*
X2741491Y-11347531D01*
X2741491Y-11347531D02*
X2751015Y-11338008D01*
X2751015Y-11338008D02*
X2770063Y-11328484D01*
X2960539Y-11328484D02*
X2979586Y-11328484D01*
X2979586Y-11328484D02*
X2998634Y-11338008D01*
X2998634Y-11338008D02*
X3008158Y-11347531D01*
X3008158Y-11347531D02*
X3017682Y-11366579D01*
X3017682Y-11366579D02*
X3027205Y-11404674D01*
X3027205Y-11404674D02*
X3027205Y-11452293D01*
X3027205Y-11452293D02*
X3017682Y-11490388D01*
X3017682Y-11490388D02*
X3008158Y-11509436D01*
X3008158Y-11509436D02*
X2998634Y-11518960D01*
X2998634Y-11518960D02*
X2979586Y-11528484D01*
X2979586Y-11528484D02*
X2960539Y-11528484D01*
X2960539Y-11528484D02*
X2941491Y-11518960D01*
X2941491Y-11518960D02*
X2931967Y-11509436D01*
X2931967Y-11509436D02*
X2922443Y-11490388D01*
X2922443Y-11490388D02*
X2912920Y-11452293D01*
X2912920Y-11452293D02*
X2912920Y-11404674D01*
X2912920Y-11404674D02*
X2922443Y-11366579D01*
X2922443Y-11366579D02*
X2931967Y-11347531D01*
X2931967Y-11347531D02*
X2941491Y-11338008D01*
X2941491Y-11338008D02*
X2960539Y-11328484D01*
X3112920Y-11528484D02*
X3112920Y-11395150D01*
X3112920Y-11414198D02*
X3122443Y-11404674D01*
X3122443Y-11404674D02*
X3141491Y-11395150D01*
X3141491Y-11395150D02*
X3170063Y-11395150D01*
X3170063Y-11395150D02*
X3189110Y-11404674D01*
X3189110Y-11404674D02*
X3198634Y-11423722D01*
X3198634Y-11423722D02*
X3198634Y-11528484D01*
X3198634Y-11423722D02*
X3208158Y-11404674D01*
X3208158Y-11404674D02*
X3227205Y-11395150D01*
X3227205Y-11395150D02*
X3255777Y-11395150D01*
X3255777Y-11395150D02*
X3274824Y-11404674D01*
X3274824Y-11404674D02*
X3284348Y-11423722D01*
X3284348Y-11423722D02*
X3284348Y-11528484D01*
X3379586Y-11528484D02*
X3379586Y-11395150D01*
X3379586Y-11414198D02*
X3389110Y-11404674D01*
X3389110Y-11404674D02*
X3408158Y-11395150D01*
X3408158Y-11395150D02*
X3436729Y-11395150D01*
X3436729Y-11395150D02*
X3455777Y-11404674D01*
X3455777Y-11404674D02*
X3465301Y-11423722D01*
X3465301Y-11423722D02*
X3465301Y-11528484D01*
X3465301Y-11423722D02*
X3474824Y-11404674D01*
X3474824Y-11404674D02*
X3493872Y-11395150D01*
X3493872Y-11395150D02*
X3522443Y-11395150D01*
X3522443Y-11395150D02*
X3541491Y-11404674D01*
X3541491Y-11404674D02*
X3551015Y-11423722D01*
X3551015Y-11423722D02*
X3551015Y-11528484D01*
X3941491Y-11318960D02*
X3770063Y-11576103D01*
X4198634Y-11328484D02*
X4217682Y-11328484D01*
X4217682Y-11328484D02*
X4236729Y-11338008D01*
X4236729Y-11338008D02*
X4246253Y-11347531D01*
X4246253Y-11347531D02*
X4255777Y-11366579D01*
X4255777Y-11366579D02*
X4265301Y-11404674D01*
X4265301Y-11404674D02*
X4265301Y-11452293D01*
X4265301Y-11452293D02*
X4255777Y-11490388D01*
X4255777Y-11490388D02*
X4246253Y-11509436D01*
X4246253Y-11509436D02*
X4236729Y-11518960D01*
X4236729Y-11518960D02*
X4217682Y-11528484D01*
X4217682Y-11528484D02*
X4198634Y-11528484D01*
X4198634Y-11528484D02*
X4179586Y-11518960D01*
X4179586Y-11518960D02*
X4170063Y-11509436D01*
X4170063Y-11509436D02*
X4160539Y-11490388D01*
X4160539Y-11490388D02*
X4151015Y-11452293D01*
X4151015Y-11452293D02*
X4151015Y-11404674D01*
X4151015Y-11404674D02*
X4160539Y-11366579D01*
X4160539Y-11366579D02*
X4170063Y-11347531D01*
X4170063Y-11347531D02*
X4179586Y-11338008D01*
X4179586Y-11338008D02*
X4198634Y-11328484D01*
X4351015Y-11509436D02*
X4360539Y-11518960D01*
X4360539Y-11518960D02*
X4351015Y-11528484D01*
X4351015Y-11528484D02*
X4341491Y-11518960D01*
X4341491Y-11518960D02*
X4351015Y-11509436D01*
X4351015Y-11509436D02*
X4351015Y-11528484D01*
X4484348Y-11328484D02*
X4503396Y-11328484D01*
X4503396Y-11328484D02*
X4522444Y-11338008D01*
X4522444Y-11338008D02*
X4531968Y-11347531D01*
X4531968Y-11347531D02*
X4541491Y-11366579D01*
X4541491Y-11366579D02*
X4551015Y-11404674D01*
X4551015Y-11404674D02*
X4551015Y-11452293D01*
X4551015Y-11452293D02*
X4541491Y-11490388D01*
X4541491Y-11490388D02*
X4531968Y-11509436D01*
X4531968Y-11509436D02*
X4522444Y-11518960D01*
X4522444Y-11518960D02*
X4503396Y-11528484D01*
X4503396Y-11528484D02*
X4484348Y-11528484D01*
X4484348Y-11528484D02*
X4465301Y-11518960D01*
X4465301Y-11518960D02*
X4455777Y-11509436D01*
X4455777Y-11509436D02*
X4446253Y-11490388D01*
X4446253Y-11490388D02*
X4436729Y-11452293D01*
X4436729Y-11452293D02*
X4436729Y-11404674D01*
X4436729Y-11404674D02*
X4446253Y-11366579D01*
X4446253Y-11366579D02*
X4455777Y-11347531D01*
X4455777Y-11347531D02*
X4465301Y-11338008D01*
X4465301Y-11338008D02*
X4484348Y-11328484D01*
X4627206Y-11347531D02*
X4636729Y-11338008D01*
X4636729Y-11338008D02*
X4655777Y-11328484D01*
X4655777Y-11328484D02*
X4703396Y-11328484D01*
X4703396Y-11328484D02*
X4722444Y-11338008D01*
X4722444Y-11338008D02*
X4731968Y-11347531D01*
X4731968Y-11347531D02*
X4741491Y-11366579D01*
X4741491Y-11366579D02*
X4741491Y-11385627D01*
X4741491Y-11385627D02*
X4731968Y-11414198D01*
X4731968Y-11414198D02*
X4617682Y-11528484D01*
X4617682Y-11528484D02*
X4741491Y-11528484D01*
X4808158Y-11328484D02*
X4931968Y-11328484D01*
X4931968Y-11328484D02*
X4865301Y-11404674D01*
X4865301Y-11404674D02*
X4893872Y-11404674D01*
X4893872Y-11404674D02*
X4912920Y-11414198D01*
X4912920Y-11414198D02*
X4922444Y-11423722D01*
X4922444Y-11423722D02*
X4931968Y-11442769D01*
X4931968Y-11442769D02*
X4931968Y-11490388D01*
X4931968Y-11490388D02*
X4922444Y-11509436D01*
X4922444Y-11509436D02*
X4912920Y-11518960D01*
X4912920Y-11518960D02*
X4893872Y-11528484D01*
X4893872Y-11528484D02*
X4836729Y-11528484D01*
X4836729Y-11528484D02*
X4817682Y-11518960D01*
X4817682Y-11518960D02*
X4808158Y-11509436D01*
X5103396Y-11328484D02*
X5065301Y-11328484D01*
X5065301Y-11328484D02*
X5046253Y-11338008D01*
X5046253Y-11338008D02*
X5036729Y-11347531D01*
X5036729Y-11347531D02*
X5017682Y-11376103D01*
X5017682Y-11376103D02*
X5008158Y-11414198D01*
X5008158Y-11414198D02*
X5008158Y-11490388D01*
X5008158Y-11490388D02*
X5017682Y-11509436D01*
X5017682Y-11509436D02*
X5027206Y-11518960D01*
X5027206Y-11518960D02*
X5046253Y-11528484D01*
X5046253Y-11528484D02*
X5084349Y-11528484D01*
X5084349Y-11528484D02*
X5103396Y-11518960D01*
X5103396Y-11518960D02*
X5112920Y-11509436D01*
X5112920Y-11509436D02*
X5122444Y-11490388D01*
X5122444Y-11490388D02*
X5122444Y-11442769D01*
X5122444Y-11442769D02*
X5112920Y-11423722D01*
X5112920Y-11423722D02*
X5103396Y-11414198D01*
X5103396Y-11414198D02*
X5084349Y-11404674D01*
X5084349Y-11404674D02*
X5046253Y-11404674D01*
X5046253Y-11404674D02*
X5027206Y-11414198D01*
X5027206Y-11414198D02*
X5017682Y-11423722D01*
X5017682Y-11423722D02*
X5008158Y-11442769D01*
X5198634Y-11328484D02*
X5198634Y-11366579D01*
X5274825Y-11328484D02*
X5274825Y-11366579D01*
X5570063Y-11604674D02*
X5560539Y-11595150D01*
X5560539Y-11595150D02*
X5541491Y-11566579D01*
X5541491Y-11566579D02*
X5531968Y-11547531D01*
X5531968Y-11547531D02*
X5522444Y-11518960D01*
X5522444Y-11518960D02*
X5512920Y-11471341D01*
X5512920Y-11471341D02*
X5512920Y-11433246D01*
X5512920Y-11433246D02*
X5522444Y-11385627D01*
X5522444Y-11385627D02*
X5531968Y-11357055D01*
X5531968Y-11357055D02*
X5541491Y-11338008D01*
X5541491Y-11338008D02*
X5560539Y-11309436D01*
X5560539Y-11309436D02*
X5570063Y-11299912D01*
X5684348Y-11328484D02*
X5703396Y-11328484D01*
X5703396Y-11328484D02*
X5722444Y-11338008D01*
X5722444Y-11338008D02*
X5731968Y-11347531D01*
X5731968Y-11347531D02*
X5741491Y-11366579D01*
X5741491Y-11366579D02*
X5751015Y-11404674D01*
X5751015Y-11404674D02*
X5751015Y-11452293D01*
X5751015Y-11452293D02*
X5741491Y-11490388D01*
X5741491Y-11490388D02*
X5731968Y-11509436D01*
X5731968Y-11509436D02*
X5722444Y-11518960D01*
X5722444Y-11518960D02*
X5703396Y-11528484D01*
X5703396Y-11528484D02*
X5684348Y-11528484D01*
X5684348Y-11528484D02*
X5665301Y-11518960D01*
X5665301Y-11518960D02*
X5655777Y-11509436D01*
X5655777Y-11509436D02*
X5646253Y-11490388D01*
X5646253Y-11490388D02*
X5636729Y-11452293D01*
X5636729Y-11452293D02*
X5636729Y-11404674D01*
X5636729Y-11404674D02*
X5646253Y-11366579D01*
X5646253Y-11366579D02*
X5655777Y-11347531D01*
X5655777Y-11347531D02*
X5665301Y-11338008D01*
X5665301Y-11338008D02*
X5684348Y-11328484D01*
X5989110Y-11528484D02*
X5989110Y-11328484D01*
X6074825Y-11528484D02*
X6074825Y-11423722D01*
X6074825Y-11423722D02*
X6065301Y-11404674D01*
X6065301Y-11404674D02*
X6046253Y-11395150D01*
X6046253Y-11395150D02*
X6017682Y-11395150D01*
X6017682Y-11395150D02*
X5998634Y-11404674D01*
X5998634Y-11404674D02*
X5989110Y-11414198D01*
X6198634Y-11528484D02*
X6179587Y-11518960D01*
X6179587Y-11518960D02*
X6170063Y-11509436D01*
X6170063Y-11509436D02*
X6160539Y-11490388D01*
X6160539Y-11490388D02*
X6160539Y-11433246D01*
X6160539Y-11433246D02*
X6170063Y-11414198D01*
X6170063Y-11414198D02*
X6179587Y-11404674D01*
X6179587Y-11404674D02*
X6198634Y-11395150D01*
X6198634Y-11395150D02*
X6227206Y-11395150D01*
X6227206Y-11395150D02*
X6246253Y-11404674D01*
X6246253Y-11404674D02*
X6255777Y-11414198D01*
X6255777Y-11414198D02*
X6265301Y-11433246D01*
X6265301Y-11433246D02*
X6265301Y-11490388D01*
X6265301Y-11490388D02*
X6255777Y-11509436D01*
X6255777Y-11509436D02*
X6246253Y-11518960D01*
X6246253Y-11518960D02*
X6227206Y-11528484D01*
X6227206Y-11528484D02*
X6198634Y-11528484D01*
X6379587Y-11528484D02*
X6360539Y-11518960D01*
X6360539Y-11518960D02*
X6351015Y-11499912D01*
X6351015Y-11499912D02*
X6351015Y-11328484D01*
X6531968Y-11518960D02*
X6512920Y-11528484D01*
X6512920Y-11528484D02*
X6474825Y-11528484D01*
X6474825Y-11528484D02*
X6455777Y-11518960D01*
X6455777Y-11518960D02*
X6446253Y-11499912D01*
X6446253Y-11499912D02*
X6446253Y-11423722D01*
X6446253Y-11423722D02*
X6455777Y-11404674D01*
X6455777Y-11404674D02*
X6474825Y-11395150D01*
X6474825Y-11395150D02*
X6512920Y-11395150D01*
X6512920Y-11395150D02*
X6531968Y-11404674D01*
X6531968Y-11404674D02*
X6541491Y-11423722D01*
X6541491Y-11423722D02*
X6541491Y-11442769D01*
X6541491Y-11442769D02*
X6446253Y-11461817D01*
X6617682Y-11518960D02*
X6636730Y-11528484D01*
X6636730Y-11528484D02*
X6674825Y-11528484D01*
X6674825Y-11528484D02*
X6693872Y-11518960D01*
X6693872Y-11518960D02*
X6703396Y-11499912D01*
X6703396Y-11499912D02*
X6703396Y-11490388D01*
X6703396Y-11490388D02*
X6693872Y-11471341D01*
X6693872Y-11471341D02*
X6674825Y-11461817D01*
X6674825Y-11461817D02*
X6646253Y-11461817D01*
X6646253Y-11461817D02*
X6627206Y-11452293D01*
X6627206Y-11452293D02*
X6617682Y-11433246D01*
X6617682Y-11433246D02*
X6617682Y-11423722D01*
X6617682Y-11423722D02*
X6627206Y-11404674D01*
X6627206Y-11404674D02*
X6646253Y-11395150D01*
X6646253Y-11395150D02*
X6674825Y-11395150D01*
X6674825Y-11395150D02*
X6693872Y-11404674D01*
X6941492Y-11452293D02*
X7093873Y-11452293D01*
X7017682Y-11528484D02*
X7017682Y-11376103D01*
X7427206Y-11395150D02*
X7427206Y-11528484D01*
X7379587Y-11318960D02*
X7331968Y-11461817D01*
X7331968Y-11461817D02*
X7455777Y-11461817D01*
X7674825Y-11518960D02*
X7693873Y-11528484D01*
X7693873Y-11528484D02*
X7731968Y-11528484D01*
X7731968Y-11528484D02*
X7751015Y-11518960D01*
X7751015Y-11518960D02*
X7760539Y-11499912D01*
X7760539Y-11499912D02*
X7760539Y-11490388D01*
X7760539Y-11490388D02*
X7751015Y-11471341D01*
X7751015Y-11471341D02*
X7731968Y-11461817D01*
X7731968Y-11461817D02*
X7703396Y-11461817D01*
X7703396Y-11461817D02*
X7684349Y-11452293D01*
X7684349Y-11452293D02*
X7674825Y-11433246D01*
X7674825Y-11433246D02*
X7674825Y-11423722D01*
X7674825Y-11423722D02*
X7684349Y-11404674D01*
X7684349Y-11404674D02*
X7703396Y-11395150D01*
X7703396Y-11395150D02*
X7731968Y-11395150D01*
X7731968Y-11395150D02*
X7751015Y-11404674D01*
X7874825Y-11528484D02*
X7855777Y-11518960D01*
X7855777Y-11518960D02*
X7846254Y-11499912D01*
X7846254Y-11499912D02*
X7846254Y-11328484D01*
X7979587Y-11528484D02*
X7960539Y-11518960D01*
X7960539Y-11518960D02*
X7951015Y-11509436D01*
X7951015Y-11509436D02*
X7941492Y-11490388D01*
X7941492Y-11490388D02*
X7941492Y-11433246D01*
X7941492Y-11433246D02*
X7951015Y-11414198D01*
X7951015Y-11414198D02*
X7960539Y-11404674D01*
X7960539Y-11404674D02*
X7979587Y-11395150D01*
X7979587Y-11395150D02*
X8008158Y-11395150D01*
X8008158Y-11395150D02*
X8027206Y-11404674D01*
X8027206Y-11404674D02*
X8036730Y-11414198D01*
X8036730Y-11414198D02*
X8046254Y-11433246D01*
X8046254Y-11433246D02*
X8046254Y-11490388D01*
X8046254Y-11490388D02*
X8036730Y-11509436D01*
X8036730Y-11509436D02*
X8027206Y-11518960D01*
X8027206Y-11518960D02*
X8008158Y-11528484D01*
X8008158Y-11528484D02*
X7979587Y-11528484D01*
X8103396Y-11395150D02*
X8179587Y-11395150D01*
X8131968Y-11328484D02*
X8131968Y-11499912D01*
X8131968Y-11499912D02*
X8141492Y-11518960D01*
X8141492Y-11518960D02*
X8160539Y-11528484D01*
X8160539Y-11528484D02*
X8179587Y-11528484D01*
X8236730Y-11518960D02*
X8255777Y-11528484D01*
X8255777Y-11528484D02*
X8293873Y-11528484D01*
X8293873Y-11528484D02*
X8312920Y-11518960D01*
X8312920Y-11518960D02*
X8322444Y-11499912D01*
X8322444Y-11499912D02*
X8322444Y-11490388D01*
X8322444Y-11490388D02*
X8312920Y-11471341D01*
X8312920Y-11471341D02*
X8293873Y-11461817D01*
X8293873Y-11461817D02*
X8265301Y-11461817D01*
X8265301Y-11461817D02*
X8246254Y-11452293D01*
X8246254Y-11452293D02*
X8236730Y-11433246D01*
X8236730Y-11433246D02*
X8236730Y-11423722D01*
X8236730Y-11423722D02*
X8246254Y-11404674D01*
X8246254Y-11404674D02*
X8265301Y-11395150D01*
X8265301Y-11395150D02*
X8293873Y-11395150D01*
X8293873Y-11395150D02*
X8312920Y-11404674D01*
X8389111Y-11604674D02*
X8398635Y-11595150D01*
X8398635Y-11595150D02*
X8417682Y-11566579D01*
X8417682Y-11566579D02*
X8427206Y-11547531D01*
X8427206Y-11547531D02*
X8436730Y-11518960D01*
X8436730Y-11518960D02*
X8446254Y-11471341D01*
X8446254Y-11471341D02*
X8446254Y-11433246D01*
X8446254Y-11433246D02*
X8436730Y-11385627D01*
X8436730Y-11385627D02*
X8427206Y-11357055D01*
X8427206Y-11357055D02*
X8417682Y-11338008D01*
X8417682Y-11338008D02*
X8398635Y-11309436D01*
X8398635Y-11309436D02*
X8389111Y-11299912D01*
D10*
X1945000Y-11751000D02*
X1995000Y-11701000D01*
X1945000Y-11651000D01*
X1895000Y-11701000D01*
X1945000Y-11751000D01*
D11*
X2360539Y-11792484D02*
X2246253Y-11792484D01*
X2303396Y-11792484D02*
X2303396Y-11592484D01*
X2303396Y-11592484D02*
X2284348Y-11621055D01*
X2284348Y-11621055D02*
X2265301Y-11640103D01*
X2265301Y-11640103D02*
X2246253Y-11649627D01*
X2446253Y-11773436D02*
X2455777Y-11782960D01*
X2455777Y-11782960D02*
X2446253Y-11792484D01*
X2446253Y-11792484D02*
X2436729Y-11782960D01*
X2436729Y-11782960D02*
X2446253Y-11773436D01*
X2446253Y-11773436D02*
X2446253Y-11792484D01*
X2579586Y-11592484D02*
X2598634Y-11592484D01*
X2598634Y-11592484D02*
X2617682Y-11602008D01*
X2617682Y-11602008D02*
X2627205Y-11611531D01*
X2627205Y-11611531D02*
X2636729Y-11630579D01*
X2636729Y-11630579D02*
X2646253Y-11668674D01*
X2646253Y-11668674D02*
X2646253Y-11716293D01*
X2646253Y-11716293D02*
X2636729Y-11754388D01*
X2636729Y-11754388D02*
X2627205Y-11773436D01*
X2627205Y-11773436D02*
X2617682Y-11782960D01*
X2617682Y-11782960D02*
X2598634Y-11792484D01*
X2598634Y-11792484D02*
X2579586Y-11792484D01*
X2579586Y-11792484D02*
X2560539Y-11782960D01*
X2560539Y-11782960D02*
X2551015Y-11773436D01*
X2551015Y-11773436D02*
X2541491Y-11754388D01*
X2541491Y-11754388D02*
X2531967Y-11716293D01*
X2531967Y-11716293D02*
X2531967Y-11668674D01*
X2531967Y-11668674D02*
X2541491Y-11630579D01*
X2541491Y-11630579D02*
X2551015Y-11611531D01*
X2551015Y-11611531D02*
X2560539Y-11602008D01*
X2560539Y-11602008D02*
X2579586Y-11592484D01*
X2770063Y-11592484D02*
X2789110Y-11592484D01*
X2789110Y-11592484D02*
X2808158Y-11602008D01*
X2808158Y-11602008D02*
X2817682Y-11611531D01*
X2817682Y-11611531D02*
X2827205Y-11630579D01*
X2827205Y-11630579D02*
X2836729Y-11668674D01*
X2836729Y-11668674D02*
X2836729Y-11716293D01*
X2836729Y-11716293D02*
X2827205Y-11754388D01*
X2827205Y-11754388D02*
X2817682Y-11773436D01*
X2817682Y-11773436D02*
X2808158Y-11782960D01*
X2808158Y-11782960D02*
X2789110Y-11792484D01*
X2789110Y-11792484D02*
X2770063Y-11792484D01*
X2770063Y-11792484D02*
X2751015Y-11782960D01*
X2751015Y-11782960D02*
X2741491Y-11773436D01*
X2741491Y-11773436D02*
X2731967Y-11754388D01*
X2731967Y-11754388D02*
X2722444Y-11716293D01*
X2722444Y-11716293D02*
X2722444Y-11668674D01*
X2722444Y-11668674D02*
X2731967Y-11630579D01*
X2731967Y-11630579D02*
X2741491Y-11611531D01*
X2741491Y-11611531D02*
X2751015Y-11602008D01*
X2751015Y-11602008D02*
X2770063Y-11592484D01*
X2960539Y-11592484D02*
X2979586Y-11592484D01*
X2979586Y-11592484D02*
X2998634Y-11602008D01*
X2998634Y-11602008D02*
X3008158Y-11611531D01*
X3008158Y-11611531D02*
X3017682Y-11630579D01*
X3017682Y-11630579D02*
X3027205Y-11668674D01*
X3027205Y-11668674D02*
X3027205Y-11716293D01*
X3027205Y-11716293D02*
X3017682Y-11754388D01*
X3017682Y-11754388D02*
X3008158Y-11773436D01*
X3008158Y-11773436D02*
X2998634Y-11782960D01*
X2998634Y-11782960D02*
X2979586Y-11792484D01*
X2979586Y-11792484D02*
X2960539Y-11792484D01*
X2960539Y-11792484D02*
X2941491Y-11782960D01*
X2941491Y-11782960D02*
X2931967Y-11773436D01*
X2931967Y-11773436D02*
X2922443Y-11754388D01*
X2922443Y-11754388D02*
X2912920Y-11716293D01*
X2912920Y-11716293D02*
X2912920Y-11668674D01*
X2912920Y-11668674D02*
X2922443Y-11630579D01*
X2922443Y-11630579D02*
X2931967Y-11611531D01*
X2931967Y-11611531D02*
X2941491Y-11602008D01*
X2941491Y-11602008D02*
X2960539Y-11592484D01*
X3112920Y-11792484D02*
X3112920Y-11659150D01*
X3112920Y-11678198D02*
X3122443Y-11668674D01*
X3122443Y-11668674D02*
X3141491Y-11659150D01*
X3141491Y-11659150D02*
X3170063Y-11659150D01*
X3170063Y-11659150D02*
X3189110Y-11668674D01*
X3189110Y-11668674D02*
X3198634Y-11687722D01*
X3198634Y-11687722D02*
X3198634Y-11792484D01*
X3198634Y-11687722D02*
X3208158Y-11668674D01*
X3208158Y-11668674D02*
X3227205Y-11659150D01*
X3227205Y-11659150D02*
X3255777Y-11659150D01*
X3255777Y-11659150D02*
X3274824Y-11668674D01*
X3274824Y-11668674D02*
X3284348Y-11687722D01*
X3284348Y-11687722D02*
X3284348Y-11792484D01*
X3379586Y-11792484D02*
X3379586Y-11659150D01*
X3379586Y-11678198D02*
X3389110Y-11668674D01*
X3389110Y-11668674D02*
X3408158Y-11659150D01*
X3408158Y-11659150D02*
X3436729Y-11659150D01*
X3436729Y-11659150D02*
X3455777Y-11668674D01*
X3455777Y-11668674D02*
X3465301Y-11687722D01*
X3465301Y-11687722D02*
X3465301Y-11792484D01*
X3465301Y-11687722D02*
X3474824Y-11668674D01*
X3474824Y-11668674D02*
X3493872Y-11659150D01*
X3493872Y-11659150D02*
X3522443Y-11659150D01*
X3522443Y-11659150D02*
X3541491Y-11668674D01*
X3541491Y-11668674D02*
X3551015Y-11687722D01*
X3551015Y-11687722D02*
X3551015Y-11792484D01*
X3941491Y-11582960D02*
X3770063Y-11840103D01*
X4198634Y-11592484D02*
X4217682Y-11592484D01*
X4217682Y-11592484D02*
X4236729Y-11602008D01*
X4236729Y-11602008D02*
X4246253Y-11611531D01*
X4246253Y-11611531D02*
X4255777Y-11630579D01*
X4255777Y-11630579D02*
X4265301Y-11668674D01*
X4265301Y-11668674D02*
X4265301Y-11716293D01*
X4265301Y-11716293D02*
X4255777Y-11754388D01*
X4255777Y-11754388D02*
X4246253Y-11773436D01*
X4246253Y-11773436D02*
X4236729Y-11782960D01*
X4236729Y-11782960D02*
X4217682Y-11792484D01*
X4217682Y-11792484D02*
X4198634Y-11792484D01*
X4198634Y-11792484D02*
X4179586Y-11782960D01*
X4179586Y-11782960D02*
X4170063Y-11773436D01*
X4170063Y-11773436D02*
X4160539Y-11754388D01*
X4160539Y-11754388D02*
X4151015Y-11716293D01*
X4151015Y-11716293D02*
X4151015Y-11668674D01*
X4151015Y-11668674D02*
X4160539Y-11630579D01*
X4160539Y-11630579D02*
X4170063Y-11611531D01*
X4170063Y-11611531D02*
X4179586Y-11602008D01*
X4179586Y-11602008D02*
X4198634Y-11592484D01*
X4351015Y-11773436D02*
X4360539Y-11782960D01*
X4360539Y-11782960D02*
X4351015Y-11792484D01*
X4351015Y-11792484D02*
X4341491Y-11782960D01*
X4341491Y-11782960D02*
X4351015Y-11773436D01*
X4351015Y-11773436D02*
X4351015Y-11792484D01*
X4484348Y-11592484D02*
X4503396Y-11592484D01*
X4503396Y-11592484D02*
X4522444Y-11602008D01*
X4522444Y-11602008D02*
X4531968Y-11611531D01*
X4531968Y-11611531D02*
X4541491Y-11630579D01*
X4541491Y-11630579D02*
X4551015Y-11668674D01*
X4551015Y-11668674D02*
X4551015Y-11716293D01*
X4551015Y-11716293D02*
X4541491Y-11754388D01*
X4541491Y-11754388D02*
X4531968Y-11773436D01*
X4531968Y-11773436D02*
X4522444Y-11782960D01*
X4522444Y-11782960D02*
X4503396Y-11792484D01*
X4503396Y-11792484D02*
X4484348Y-11792484D01*
X4484348Y-11792484D02*
X4465301Y-11782960D01*
X4465301Y-11782960D02*
X4455777Y-11773436D01*
X4455777Y-11773436D02*
X4446253Y-11754388D01*
X4446253Y-11754388D02*
X4436729Y-11716293D01*
X4436729Y-11716293D02*
X4436729Y-11668674D01*
X4436729Y-11668674D02*
X4446253Y-11630579D01*
X4446253Y-11630579D02*
X4455777Y-11611531D01*
X4455777Y-11611531D02*
X4465301Y-11602008D01*
X4465301Y-11602008D02*
X4484348Y-11592484D01*
X4617682Y-11592484D02*
X4741491Y-11592484D01*
X4741491Y-11592484D02*
X4674825Y-11668674D01*
X4674825Y-11668674D02*
X4703396Y-11668674D01*
X4703396Y-11668674D02*
X4722444Y-11678198D01*
X4722444Y-11678198D02*
X4731968Y-11687722D01*
X4731968Y-11687722D02*
X4741491Y-11706769D01*
X4741491Y-11706769D02*
X4741491Y-11754388D01*
X4741491Y-11754388D02*
X4731968Y-11773436D01*
X4731968Y-11773436D02*
X4722444Y-11782960D01*
X4722444Y-11782960D02*
X4703396Y-11792484D01*
X4703396Y-11792484D02*
X4646253Y-11792484D01*
X4646253Y-11792484D02*
X4627206Y-11782960D01*
X4627206Y-11782960D02*
X4617682Y-11773436D01*
X4836729Y-11792484D02*
X4874825Y-11792484D01*
X4874825Y-11792484D02*
X4893872Y-11782960D01*
X4893872Y-11782960D02*
X4903396Y-11773436D01*
X4903396Y-11773436D02*
X4922444Y-11744865D01*
X4922444Y-11744865D02*
X4931968Y-11706769D01*
X4931968Y-11706769D02*
X4931968Y-11630579D01*
X4931968Y-11630579D02*
X4922444Y-11611531D01*
X4922444Y-11611531D02*
X4912920Y-11602008D01*
X4912920Y-11602008D02*
X4893872Y-11592484D01*
X4893872Y-11592484D02*
X4855777Y-11592484D01*
X4855777Y-11592484D02*
X4836729Y-11602008D01*
X4836729Y-11602008D02*
X4827206Y-11611531D01*
X4827206Y-11611531D02*
X4817682Y-11630579D01*
X4817682Y-11630579D02*
X4817682Y-11678198D01*
X4817682Y-11678198D02*
X4827206Y-11697246D01*
X4827206Y-11697246D02*
X4836729Y-11706769D01*
X4836729Y-11706769D02*
X4855777Y-11716293D01*
X4855777Y-11716293D02*
X4893872Y-11716293D01*
X4893872Y-11716293D02*
X4912920Y-11706769D01*
X4912920Y-11706769D02*
X4922444Y-11697246D01*
X4922444Y-11697246D02*
X4931968Y-11678198D01*
X5103396Y-11659150D02*
X5103396Y-11792484D01*
X5055777Y-11582960D02*
X5008158Y-11725817D01*
X5008158Y-11725817D02*
X5131968Y-11725817D01*
X5198634Y-11592484D02*
X5198634Y-11630579D01*
X5274825Y-11592484D02*
X5274825Y-11630579D01*
X5570063Y-11868674D02*
X5560539Y-11859150D01*
X5560539Y-11859150D02*
X5541491Y-11830579D01*
X5541491Y-11830579D02*
X5531968Y-11811531D01*
X5531968Y-11811531D02*
X5522444Y-11782960D01*
X5522444Y-11782960D02*
X5512920Y-11735341D01*
X5512920Y-11735341D02*
X5512920Y-11697246D01*
X5512920Y-11697246D02*
X5522444Y-11649627D01*
X5522444Y-11649627D02*
X5531968Y-11621055D01*
X5531968Y-11621055D02*
X5541491Y-11602008D01*
X5541491Y-11602008D02*
X5560539Y-11573436D01*
X5560539Y-11573436D02*
X5570063Y-11563912D01*
X5636729Y-11611531D02*
X5646253Y-11602008D01*
X5646253Y-11602008D02*
X5665301Y-11592484D01*
X5665301Y-11592484D02*
X5712920Y-11592484D01*
X5712920Y-11592484D02*
X5731968Y-11602008D01*
X5731968Y-11602008D02*
X5741491Y-11611531D01*
X5741491Y-11611531D02*
X5751015Y-11630579D01*
X5751015Y-11630579D02*
X5751015Y-11649627D01*
X5751015Y-11649627D02*
X5741491Y-11678198D01*
X5741491Y-11678198D02*
X5627206Y-11792484D01*
X5627206Y-11792484D02*
X5751015Y-11792484D01*
X5989110Y-11792484D02*
X5989110Y-11592484D01*
X6074825Y-11792484D02*
X6074825Y-11687722D01*
X6074825Y-11687722D02*
X6065301Y-11668674D01*
X6065301Y-11668674D02*
X6046253Y-11659150D01*
X6046253Y-11659150D02*
X6017682Y-11659150D01*
X6017682Y-11659150D02*
X5998634Y-11668674D01*
X5998634Y-11668674D02*
X5989110Y-11678198D01*
X6198634Y-11792484D02*
X6179587Y-11782960D01*
X6179587Y-11782960D02*
X6170063Y-11773436D01*
X6170063Y-11773436D02*
X6160539Y-11754388D01*
X6160539Y-11754388D02*
X6160539Y-11697246D01*
X6160539Y-11697246D02*
X6170063Y-11678198D01*
X6170063Y-11678198D02*
X6179587Y-11668674D01*
X6179587Y-11668674D02*
X6198634Y-11659150D01*
X6198634Y-11659150D02*
X6227206Y-11659150D01*
X6227206Y-11659150D02*
X6246253Y-11668674D01*
X6246253Y-11668674D02*
X6255777Y-11678198D01*
X6255777Y-11678198D02*
X6265301Y-11697246D01*
X6265301Y-11697246D02*
X6265301Y-11754388D01*
X6265301Y-11754388D02*
X6255777Y-11773436D01*
X6255777Y-11773436D02*
X6246253Y-11782960D01*
X6246253Y-11782960D02*
X6227206Y-11792484D01*
X6227206Y-11792484D02*
X6198634Y-11792484D01*
X6379587Y-11792484D02*
X6360539Y-11782960D01*
X6360539Y-11782960D02*
X6351015Y-11763912D01*
X6351015Y-11763912D02*
X6351015Y-11592484D01*
X6531968Y-11782960D02*
X6512920Y-11792484D01*
X6512920Y-11792484D02*
X6474825Y-11792484D01*
X6474825Y-11792484D02*
X6455777Y-11782960D01*
X6455777Y-11782960D02*
X6446253Y-11763912D01*
X6446253Y-11763912D02*
X6446253Y-11687722D01*
X6446253Y-11687722D02*
X6455777Y-11668674D01*
X6455777Y-11668674D02*
X6474825Y-11659150D01*
X6474825Y-11659150D02*
X6512920Y-11659150D01*
X6512920Y-11659150D02*
X6531968Y-11668674D01*
X6531968Y-11668674D02*
X6541491Y-11687722D01*
X6541491Y-11687722D02*
X6541491Y-11706769D01*
X6541491Y-11706769D02*
X6446253Y-11725817D01*
X6617682Y-11782960D02*
X6636730Y-11792484D01*
X6636730Y-11792484D02*
X6674825Y-11792484D01*
X6674825Y-11792484D02*
X6693872Y-11782960D01*
X6693872Y-11782960D02*
X6703396Y-11763912D01*
X6703396Y-11763912D02*
X6703396Y-11754388D01*
X6703396Y-11754388D02*
X6693872Y-11735341D01*
X6693872Y-11735341D02*
X6674825Y-11725817D01*
X6674825Y-11725817D02*
X6646253Y-11725817D01*
X6646253Y-11725817D02*
X6627206Y-11716293D01*
X6627206Y-11716293D02*
X6617682Y-11697246D01*
X6617682Y-11697246D02*
X6617682Y-11687722D01*
X6617682Y-11687722D02*
X6627206Y-11668674D01*
X6627206Y-11668674D02*
X6646253Y-11659150D01*
X6646253Y-11659150D02*
X6674825Y-11659150D01*
X6674825Y-11659150D02*
X6693872Y-11668674D01*
X6770063Y-11868674D02*
X6779587Y-11859150D01*
X6779587Y-11859150D02*
X6798634Y-11830579D01*
X6798634Y-11830579D02*
X6808158Y-11811531D01*
X6808158Y-11811531D02*
X6817682Y-11782960D01*
X6817682Y-11782960D02*
X6827206Y-11735341D01*
X6827206Y-11735341D02*
X6827206Y-11697246D01*
X6827206Y-11697246D02*
X6817682Y-11649627D01*
X6817682Y-11649627D02*
X6808158Y-11621055D01*
X6808158Y-11621055D02*
X6798634Y-11602008D01*
X6798634Y-11602008D02*
X6779587Y-11573436D01*
X6779587Y-11573436D02*
X6770063Y-11563912D01*
D12*
X1885000Y-11910000D02*
X1995000Y-12020000D01*
X1995000Y-11910000D02*
X1885000Y-12020000D01*
X1995000Y-11965000D02*
G75*
G02*
X1885000Y-11965000I-55000J0D01*
G01*
X1885000Y-11965000D02*
G75*
G02*
X1995000Y-11965000I55000J0D01*
G01*
D11*
X2360539Y-12056484D02*
X2246253Y-12056484D01*
X2303396Y-12056484D02*
X2303396Y-11856484D01*
X2303396Y-11856484D02*
X2284348Y-11885055D01*
X2284348Y-11885055D02*
X2265301Y-11904103D01*
X2265301Y-11904103D02*
X2246253Y-11913627D01*
X2446253Y-12037436D02*
X2455777Y-12046960D01*
X2455777Y-12046960D02*
X2446253Y-12056484D01*
X2446253Y-12056484D02*
X2436729Y-12046960D01*
X2436729Y-12046960D02*
X2446253Y-12037436D01*
X2446253Y-12037436D02*
X2446253Y-12056484D01*
X2646253Y-12056484D02*
X2531967Y-12056484D01*
X2589110Y-12056484D02*
X2589110Y-11856484D01*
X2589110Y-11856484D02*
X2570063Y-11885055D01*
X2570063Y-11885055D02*
X2551015Y-11904103D01*
X2551015Y-11904103D02*
X2531967Y-11913627D01*
X2770063Y-11856484D02*
X2789110Y-11856484D01*
X2789110Y-11856484D02*
X2808158Y-11866008D01*
X2808158Y-11866008D02*
X2817682Y-11875531D01*
X2817682Y-11875531D02*
X2827205Y-11894579D01*
X2827205Y-11894579D02*
X2836729Y-11932674D01*
X2836729Y-11932674D02*
X2836729Y-11980293D01*
X2836729Y-11980293D02*
X2827205Y-12018388D01*
X2827205Y-12018388D02*
X2817682Y-12037436D01*
X2817682Y-12037436D02*
X2808158Y-12046960D01*
X2808158Y-12046960D02*
X2789110Y-12056484D01*
X2789110Y-12056484D02*
X2770063Y-12056484D01*
X2770063Y-12056484D02*
X2751015Y-12046960D01*
X2751015Y-12046960D02*
X2741491Y-12037436D01*
X2741491Y-12037436D02*
X2731967Y-12018388D01*
X2731967Y-12018388D02*
X2722444Y-11980293D01*
X2722444Y-11980293D02*
X2722444Y-11932674D01*
X2722444Y-11932674D02*
X2731967Y-11894579D01*
X2731967Y-11894579D02*
X2741491Y-11875531D01*
X2741491Y-11875531D02*
X2751015Y-11866008D01*
X2751015Y-11866008D02*
X2770063Y-11856484D01*
X2960539Y-11856484D02*
X2979586Y-11856484D01*
X2979586Y-11856484D02*
X2998634Y-11866008D01*
X2998634Y-11866008D02*
X3008158Y-11875531D01*
X3008158Y-11875531D02*
X3017682Y-11894579D01*
X3017682Y-11894579D02*
X3027205Y-11932674D01*
X3027205Y-11932674D02*
X3027205Y-11980293D01*
X3027205Y-11980293D02*
X3017682Y-12018388D01*
X3017682Y-12018388D02*
X3008158Y-12037436D01*
X3008158Y-12037436D02*
X2998634Y-12046960D01*
X2998634Y-12046960D02*
X2979586Y-12056484D01*
X2979586Y-12056484D02*
X2960539Y-12056484D01*
X2960539Y-12056484D02*
X2941491Y-12046960D01*
X2941491Y-12046960D02*
X2931967Y-12037436D01*
X2931967Y-12037436D02*
X2922443Y-12018388D01*
X2922443Y-12018388D02*
X2912920Y-11980293D01*
X2912920Y-11980293D02*
X2912920Y-11932674D01*
X2912920Y-11932674D02*
X2922443Y-11894579D01*
X2922443Y-11894579D02*
X2931967Y-11875531D01*
X2931967Y-11875531D02*
X2941491Y-11866008D01*
X2941491Y-11866008D02*
X2960539Y-11856484D01*
X3112920Y-12056484D02*
X3112920Y-11923150D01*
X3112920Y-11942198D02*
X3122443Y-11932674D01*
X3122443Y-11932674D02*
X3141491Y-11923150D01*
X3141491Y-11923150D02*
X3170063Y-11923150D01*
X3170063Y-11923150D02*
X3189110Y-11932674D01*
X3189110Y-11932674D02*
X3198634Y-11951722D01*
X3198634Y-11951722D02*
X3198634Y-12056484D01*
X3198634Y-11951722D02*
X3208158Y-11932674D01*
X3208158Y-11932674D02*
X3227205Y-11923150D01*
X3227205Y-11923150D02*
X3255777Y-11923150D01*
X3255777Y-11923150D02*
X3274824Y-11932674D01*
X3274824Y-11932674D02*
X3284348Y-11951722D01*
X3284348Y-11951722D02*
X3284348Y-12056484D01*
X3379586Y-12056484D02*
X3379586Y-11923150D01*
X3379586Y-11942198D02*
X3389110Y-11932674D01*
X3389110Y-11932674D02*
X3408158Y-11923150D01*
X3408158Y-11923150D02*
X3436729Y-11923150D01*
X3436729Y-11923150D02*
X3455777Y-11932674D01*
X3455777Y-11932674D02*
X3465301Y-11951722D01*
X3465301Y-11951722D02*
X3465301Y-12056484D01*
X3465301Y-11951722D02*
X3474824Y-11932674D01*
X3474824Y-11932674D02*
X3493872Y-11923150D01*
X3493872Y-11923150D02*
X3522443Y-11923150D01*
X3522443Y-11923150D02*
X3541491Y-11932674D01*
X3541491Y-11932674D02*
X3551015Y-11951722D01*
X3551015Y-11951722D02*
X3551015Y-12056484D01*
X3941491Y-11846960D02*
X3770063Y-12104103D01*
X4198634Y-11856484D02*
X4217682Y-11856484D01*
X4217682Y-11856484D02*
X4236729Y-11866008D01*
X4236729Y-11866008D02*
X4246253Y-11875531D01*
X4246253Y-11875531D02*
X4255777Y-11894579D01*
X4255777Y-11894579D02*
X4265301Y-11932674D01*
X4265301Y-11932674D02*
X4265301Y-11980293D01*
X4265301Y-11980293D02*
X4255777Y-12018388D01*
X4255777Y-12018388D02*
X4246253Y-12037436D01*
X4246253Y-12037436D02*
X4236729Y-12046960D01*
X4236729Y-12046960D02*
X4217682Y-12056484D01*
X4217682Y-12056484D02*
X4198634Y-12056484D01*
X4198634Y-12056484D02*
X4179586Y-12046960D01*
X4179586Y-12046960D02*
X4170063Y-12037436D01*
X4170063Y-12037436D02*
X4160539Y-12018388D01*
X4160539Y-12018388D02*
X4151015Y-11980293D01*
X4151015Y-11980293D02*
X4151015Y-11932674D01*
X4151015Y-11932674D02*
X4160539Y-11894579D01*
X4160539Y-11894579D02*
X4170063Y-11875531D01*
X4170063Y-11875531D02*
X4179586Y-11866008D01*
X4179586Y-11866008D02*
X4198634Y-11856484D01*
X4351015Y-12037436D02*
X4360539Y-12046960D01*
X4360539Y-12046960D02*
X4351015Y-12056484D01*
X4351015Y-12056484D02*
X4341491Y-12046960D01*
X4341491Y-12046960D02*
X4351015Y-12037436D01*
X4351015Y-12037436D02*
X4351015Y-12056484D01*
X4484348Y-11856484D02*
X4503396Y-11856484D01*
X4503396Y-11856484D02*
X4522444Y-11866008D01*
X4522444Y-11866008D02*
X4531968Y-11875531D01*
X4531968Y-11875531D02*
X4541491Y-11894579D01*
X4541491Y-11894579D02*
X4551015Y-11932674D01*
X4551015Y-11932674D02*
X4551015Y-11980293D01*
X4551015Y-11980293D02*
X4541491Y-12018388D01*
X4541491Y-12018388D02*
X4531968Y-12037436D01*
X4531968Y-12037436D02*
X4522444Y-12046960D01*
X4522444Y-12046960D02*
X4503396Y-12056484D01*
X4503396Y-12056484D02*
X4484348Y-12056484D01*
X4484348Y-12056484D02*
X4465301Y-12046960D01*
X4465301Y-12046960D02*
X4455777Y-12037436D01*
X4455777Y-12037436D02*
X4446253Y-12018388D01*
X4446253Y-12018388D02*
X4436729Y-11980293D01*
X4436729Y-11980293D02*
X4436729Y-11932674D01*
X4436729Y-11932674D02*
X4446253Y-11894579D01*
X4446253Y-11894579D02*
X4455777Y-11875531D01*
X4455777Y-11875531D02*
X4465301Y-11866008D01*
X4465301Y-11866008D02*
X4484348Y-11856484D01*
X4722444Y-11923150D02*
X4722444Y-12056484D01*
X4674825Y-11846960D02*
X4627206Y-11989817D01*
X4627206Y-11989817D02*
X4751015Y-11989817D01*
X4808158Y-11856484D02*
X4931968Y-11856484D01*
X4931968Y-11856484D02*
X4865301Y-11932674D01*
X4865301Y-11932674D02*
X4893872Y-11932674D01*
X4893872Y-11932674D02*
X4912920Y-11942198D01*
X4912920Y-11942198D02*
X4922444Y-11951722D01*
X4922444Y-11951722D02*
X4931968Y-11970769D01*
X4931968Y-11970769D02*
X4931968Y-12018388D01*
X4931968Y-12018388D02*
X4922444Y-12037436D01*
X4922444Y-12037436D02*
X4912920Y-12046960D01*
X4912920Y-12046960D02*
X4893872Y-12056484D01*
X4893872Y-12056484D02*
X4836729Y-12056484D01*
X4836729Y-12056484D02*
X4817682Y-12046960D01*
X4817682Y-12046960D02*
X4808158Y-12037436D01*
X4998634Y-11856484D02*
X5122444Y-11856484D01*
X5122444Y-11856484D02*
X5055777Y-11932674D01*
X5055777Y-11932674D02*
X5084349Y-11932674D01*
X5084349Y-11932674D02*
X5103396Y-11942198D01*
X5103396Y-11942198D02*
X5112920Y-11951722D01*
X5112920Y-11951722D02*
X5122444Y-11970769D01*
X5122444Y-11970769D02*
X5122444Y-12018388D01*
X5122444Y-12018388D02*
X5112920Y-12037436D01*
X5112920Y-12037436D02*
X5103396Y-12046960D01*
X5103396Y-12046960D02*
X5084349Y-12056484D01*
X5084349Y-12056484D02*
X5027206Y-12056484D01*
X5027206Y-12056484D02*
X5008158Y-12046960D01*
X5008158Y-12046960D02*
X4998634Y-12037436D01*
X5198634Y-11856484D02*
X5198634Y-11894579D01*
X5274825Y-11856484D02*
X5274825Y-11894579D01*
X5570063Y-12132674D02*
X5560539Y-12123150D01*
X5560539Y-12123150D02*
X5541491Y-12094579D01*
X5541491Y-12094579D02*
X5531968Y-12075531D01*
X5531968Y-12075531D02*
X5522444Y-12046960D01*
X5522444Y-12046960D02*
X5512920Y-11999341D01*
X5512920Y-11999341D02*
X5512920Y-11961246D01*
X5512920Y-11961246D02*
X5522444Y-11913627D01*
X5522444Y-11913627D02*
X5531968Y-11885055D01*
X5531968Y-11885055D02*
X5541491Y-11866008D01*
X5541491Y-11866008D02*
X5560539Y-11837436D01*
X5560539Y-11837436D02*
X5570063Y-11827912D01*
X5674825Y-11942198D02*
X5655777Y-11932674D01*
X5655777Y-11932674D02*
X5646253Y-11923150D01*
X5646253Y-11923150D02*
X5636729Y-11904103D01*
X5636729Y-11904103D02*
X5636729Y-11894579D01*
X5636729Y-11894579D02*
X5646253Y-11875531D01*
X5646253Y-11875531D02*
X5655777Y-11866008D01*
X5655777Y-11866008D02*
X5674825Y-11856484D01*
X5674825Y-11856484D02*
X5712920Y-11856484D01*
X5712920Y-11856484D02*
X5731968Y-11866008D01*
X5731968Y-11866008D02*
X5741491Y-11875531D01*
X5741491Y-11875531D02*
X5751015Y-11894579D01*
X5751015Y-11894579D02*
X5751015Y-11904103D01*
X5751015Y-11904103D02*
X5741491Y-11923150D01*
X5741491Y-11923150D02*
X5731968Y-11932674D01*
X5731968Y-11932674D02*
X5712920Y-11942198D01*
X5712920Y-11942198D02*
X5674825Y-11942198D01*
X5674825Y-11942198D02*
X5655777Y-11951722D01*
X5655777Y-11951722D02*
X5646253Y-11961246D01*
X5646253Y-11961246D02*
X5636729Y-11980293D01*
X5636729Y-11980293D02*
X5636729Y-12018388D01*
X5636729Y-12018388D02*
X5646253Y-12037436D01*
X5646253Y-12037436D02*
X5655777Y-12046960D01*
X5655777Y-12046960D02*
X5674825Y-12056484D01*
X5674825Y-12056484D02*
X5712920Y-12056484D01*
X5712920Y-12056484D02*
X5731968Y-12046960D01*
X5731968Y-12046960D02*
X5741491Y-12037436D01*
X5741491Y-12037436D02*
X5751015Y-12018388D01*
X5751015Y-12018388D02*
X5751015Y-11980293D01*
X5751015Y-11980293D02*
X5741491Y-11961246D01*
X5741491Y-11961246D02*
X5731968Y-11951722D01*
X5731968Y-11951722D02*
X5712920Y-11942198D01*
X5989110Y-12056484D02*
X5989110Y-11856484D01*
X6074825Y-12056484D02*
X6074825Y-11951722D01*
X6074825Y-11951722D02*
X6065301Y-11932674D01*
X6065301Y-11932674D02*
X6046253Y-11923150D01*
X6046253Y-11923150D02*
X6017682Y-11923150D01*
X6017682Y-11923150D02*
X5998634Y-11932674D01*
X5998634Y-11932674D02*
X5989110Y-11942198D01*
X6198634Y-12056484D02*
X6179587Y-12046960D01*
X6179587Y-12046960D02*
X6170063Y-12037436D01*
X6170063Y-12037436D02*
X6160539Y-12018388D01*
X6160539Y-12018388D02*
X6160539Y-11961246D01*
X6160539Y-11961246D02*
X6170063Y-11942198D01*
X6170063Y-11942198D02*
X6179587Y-11932674D01*
X6179587Y-11932674D02*
X6198634Y-11923150D01*
X6198634Y-11923150D02*
X6227206Y-11923150D01*
X6227206Y-11923150D02*
X6246253Y-11932674D01*
X6246253Y-11932674D02*
X6255777Y-11942198D01*
X6255777Y-11942198D02*
X6265301Y-11961246D01*
X6265301Y-11961246D02*
X6265301Y-12018388D01*
X6265301Y-12018388D02*
X6255777Y-12037436D01*
X6255777Y-12037436D02*
X6246253Y-12046960D01*
X6246253Y-12046960D02*
X6227206Y-12056484D01*
X6227206Y-12056484D02*
X6198634Y-12056484D01*
X6379587Y-12056484D02*
X6360539Y-12046960D01*
X6360539Y-12046960D02*
X6351015Y-12027912D01*
X6351015Y-12027912D02*
X6351015Y-11856484D01*
X6531968Y-12046960D02*
X6512920Y-12056484D01*
X6512920Y-12056484D02*
X6474825Y-12056484D01*
X6474825Y-12056484D02*
X6455777Y-12046960D01*
X6455777Y-12046960D02*
X6446253Y-12027912D01*
X6446253Y-12027912D02*
X6446253Y-11951722D01*
X6446253Y-11951722D02*
X6455777Y-11932674D01*
X6455777Y-11932674D02*
X6474825Y-11923150D01*
X6474825Y-11923150D02*
X6512920Y-11923150D01*
X6512920Y-11923150D02*
X6531968Y-11932674D01*
X6531968Y-11932674D02*
X6541491Y-11951722D01*
X6541491Y-11951722D02*
X6541491Y-11970769D01*
X6541491Y-11970769D02*
X6446253Y-11989817D01*
X6617682Y-12046960D02*
X6636730Y-12056484D01*
X6636730Y-12056484D02*
X6674825Y-12056484D01*
X6674825Y-12056484D02*
X6693872Y-12046960D01*
X6693872Y-12046960D02*
X6703396Y-12027912D01*
X6703396Y-12027912D02*
X6703396Y-12018388D01*
X6703396Y-12018388D02*
X6693872Y-11999341D01*
X6693872Y-11999341D02*
X6674825Y-11989817D01*
X6674825Y-11989817D02*
X6646253Y-11989817D01*
X6646253Y-11989817D02*
X6627206Y-11980293D01*
X6627206Y-11980293D02*
X6617682Y-11961246D01*
X6617682Y-11961246D02*
X6617682Y-11951722D01*
X6617682Y-11951722D02*
X6627206Y-11932674D01*
X6627206Y-11932674D02*
X6646253Y-11923150D01*
X6646253Y-11923150D02*
X6674825Y-11923150D01*
X6674825Y-11923150D02*
X6693872Y-11932674D01*
X6770063Y-12132674D02*
X6779587Y-12123150D01*
X6779587Y-12123150D02*
X6798634Y-12094579D01*
X6798634Y-12094579D02*
X6808158Y-12075531D01*
X6808158Y-12075531D02*
X6817682Y-12046960D01*
X6817682Y-12046960D02*
X6827206Y-11999341D01*
X6827206Y-11999341D02*
X6827206Y-11961246D01*
X6827206Y-11961246D02*
X6817682Y-11913627D01*
X6817682Y-11913627D02*
X6808158Y-11885055D01*
X6808158Y-11885055D02*
X6798634Y-11866008D01*
X6798634Y-11866008D02*
X6779587Y-11837436D01*
X6779587Y-11837436D02*
X6770063Y-11827912D01*
D13*
X1876000Y-12169500D02*
X1995000Y-12288500D01*
X1995000Y-12169500D02*
X1876000Y-12288500D01*
X1935500Y-12169500D02*
X1935500Y-12288500D01*
X1876000Y-12229000D02*
X1995000Y-12229000D01*
D11*
X2360539Y-12320484D02*
X2246253Y-12320484D01*
X2303396Y-12320484D02*
X2303396Y-12120484D01*
X2303396Y-12120484D02*
X2284348Y-12149055D01*
X2284348Y-12149055D02*
X2265301Y-12168103D01*
X2265301Y-12168103D02*
X2246253Y-12177627D01*
X2446253Y-12301436D02*
X2455777Y-12310960D01*
X2455777Y-12310960D02*
X2446253Y-12320484D01*
X2446253Y-12320484D02*
X2436729Y-12310960D01*
X2436729Y-12310960D02*
X2446253Y-12301436D01*
X2446253Y-12301436D02*
X2446253Y-12320484D01*
X2646253Y-12320484D02*
X2531967Y-12320484D01*
X2589110Y-12320484D02*
X2589110Y-12120484D01*
X2589110Y-12120484D02*
X2570063Y-12149055D01*
X2570063Y-12149055D02*
X2551015Y-12168103D01*
X2551015Y-12168103D02*
X2531967Y-12177627D01*
X2741491Y-12320484D02*
X2779586Y-12320484D01*
X2779586Y-12320484D02*
X2798634Y-12310960D01*
X2798634Y-12310960D02*
X2808158Y-12301436D01*
X2808158Y-12301436D02*
X2827205Y-12272865D01*
X2827205Y-12272865D02*
X2836729Y-12234769D01*
X2836729Y-12234769D02*
X2836729Y-12158579D01*
X2836729Y-12158579D02*
X2827205Y-12139531D01*
X2827205Y-12139531D02*
X2817682Y-12130008D01*
X2817682Y-12130008D02*
X2798634Y-12120484D01*
X2798634Y-12120484D02*
X2760539Y-12120484D01*
X2760539Y-12120484D02*
X2741491Y-12130008D01*
X2741491Y-12130008D02*
X2731967Y-12139531D01*
X2731967Y-12139531D02*
X2722444Y-12158579D01*
X2722444Y-12158579D02*
X2722444Y-12206198D01*
X2722444Y-12206198D02*
X2731967Y-12225246D01*
X2731967Y-12225246D02*
X2741491Y-12234769D01*
X2741491Y-12234769D02*
X2760539Y-12244293D01*
X2760539Y-12244293D02*
X2798634Y-12244293D01*
X2798634Y-12244293D02*
X2817682Y-12234769D01*
X2817682Y-12234769D02*
X2827205Y-12225246D01*
X2827205Y-12225246D02*
X2836729Y-12206198D01*
X2960539Y-12120484D02*
X2979586Y-12120484D01*
X2979586Y-12120484D02*
X2998634Y-12130008D01*
X2998634Y-12130008D02*
X3008158Y-12139531D01*
X3008158Y-12139531D02*
X3017682Y-12158579D01*
X3017682Y-12158579D02*
X3027205Y-12196674D01*
X3027205Y-12196674D02*
X3027205Y-12244293D01*
X3027205Y-12244293D02*
X3017682Y-12282388D01*
X3017682Y-12282388D02*
X3008158Y-12301436D01*
X3008158Y-12301436D02*
X2998634Y-12310960D01*
X2998634Y-12310960D02*
X2979586Y-12320484D01*
X2979586Y-12320484D02*
X2960539Y-12320484D01*
X2960539Y-12320484D02*
X2941491Y-12310960D01*
X2941491Y-12310960D02*
X2931967Y-12301436D01*
X2931967Y-12301436D02*
X2922443Y-12282388D01*
X2922443Y-12282388D02*
X2912920Y-12244293D01*
X2912920Y-12244293D02*
X2912920Y-12196674D01*
X2912920Y-12196674D02*
X2922443Y-12158579D01*
X2922443Y-12158579D02*
X2931967Y-12139531D01*
X2931967Y-12139531D02*
X2941491Y-12130008D01*
X2941491Y-12130008D02*
X2960539Y-12120484D01*
X3112920Y-12320484D02*
X3112920Y-12187150D01*
X3112920Y-12206198D02*
X3122443Y-12196674D01*
X3122443Y-12196674D02*
X3141491Y-12187150D01*
X3141491Y-12187150D02*
X3170063Y-12187150D01*
X3170063Y-12187150D02*
X3189110Y-12196674D01*
X3189110Y-12196674D02*
X3198634Y-12215722D01*
X3198634Y-12215722D02*
X3198634Y-12320484D01*
X3198634Y-12215722D02*
X3208158Y-12196674D01*
X3208158Y-12196674D02*
X3227205Y-12187150D01*
X3227205Y-12187150D02*
X3255777Y-12187150D01*
X3255777Y-12187150D02*
X3274824Y-12196674D01*
X3274824Y-12196674D02*
X3284348Y-12215722D01*
X3284348Y-12215722D02*
X3284348Y-12320484D01*
X3379586Y-12320484D02*
X3379586Y-12187150D01*
X3379586Y-12206198D02*
X3389110Y-12196674D01*
X3389110Y-12196674D02*
X3408158Y-12187150D01*
X3408158Y-12187150D02*
X3436729Y-12187150D01*
X3436729Y-12187150D02*
X3455777Y-12196674D01*
X3455777Y-12196674D02*
X3465301Y-12215722D01*
X3465301Y-12215722D02*
X3465301Y-12320484D01*
X3465301Y-12215722D02*
X3474824Y-12196674D01*
X3474824Y-12196674D02*
X3493872Y-12187150D01*
X3493872Y-12187150D02*
X3522443Y-12187150D01*
X3522443Y-12187150D02*
X3541491Y-12196674D01*
X3541491Y-12196674D02*
X3551015Y-12215722D01*
X3551015Y-12215722D02*
X3551015Y-12320484D01*
X3941491Y-12110960D02*
X3770063Y-12368103D01*
X4198634Y-12120484D02*
X4217682Y-12120484D01*
X4217682Y-12120484D02*
X4236729Y-12130008D01*
X4236729Y-12130008D02*
X4246253Y-12139531D01*
X4246253Y-12139531D02*
X4255777Y-12158579D01*
X4255777Y-12158579D02*
X4265301Y-12196674D01*
X4265301Y-12196674D02*
X4265301Y-12244293D01*
X4265301Y-12244293D02*
X4255777Y-12282388D01*
X4255777Y-12282388D02*
X4246253Y-12301436D01*
X4246253Y-12301436D02*
X4236729Y-12310960D01*
X4236729Y-12310960D02*
X4217682Y-12320484D01*
X4217682Y-12320484D02*
X4198634Y-12320484D01*
X4198634Y-12320484D02*
X4179586Y-12310960D01*
X4179586Y-12310960D02*
X4170063Y-12301436D01*
X4170063Y-12301436D02*
X4160539Y-12282388D01*
X4160539Y-12282388D02*
X4151015Y-12244293D01*
X4151015Y-12244293D02*
X4151015Y-12196674D01*
X4151015Y-12196674D02*
X4160539Y-12158579D01*
X4160539Y-12158579D02*
X4170063Y-12139531D01*
X4170063Y-12139531D02*
X4179586Y-12130008D01*
X4179586Y-12130008D02*
X4198634Y-12120484D01*
X4351015Y-12301436D02*
X4360539Y-12310960D01*
X4360539Y-12310960D02*
X4351015Y-12320484D01*
X4351015Y-12320484D02*
X4341491Y-12310960D01*
X4341491Y-12310960D02*
X4351015Y-12301436D01*
X4351015Y-12301436D02*
X4351015Y-12320484D01*
X4484348Y-12120484D02*
X4503396Y-12120484D01*
X4503396Y-12120484D02*
X4522444Y-12130008D01*
X4522444Y-12130008D02*
X4531968Y-12139531D01*
X4531968Y-12139531D02*
X4541491Y-12158579D01*
X4541491Y-12158579D02*
X4551015Y-12196674D01*
X4551015Y-12196674D02*
X4551015Y-12244293D01*
X4551015Y-12244293D02*
X4541491Y-12282388D01*
X4541491Y-12282388D02*
X4531968Y-12301436D01*
X4531968Y-12301436D02*
X4522444Y-12310960D01*
X4522444Y-12310960D02*
X4503396Y-12320484D01*
X4503396Y-12320484D02*
X4484348Y-12320484D01*
X4484348Y-12320484D02*
X4465301Y-12310960D01*
X4465301Y-12310960D02*
X4455777Y-12301436D01*
X4455777Y-12301436D02*
X4446253Y-12282388D01*
X4446253Y-12282388D02*
X4436729Y-12244293D01*
X4436729Y-12244293D02*
X4436729Y-12196674D01*
X4436729Y-12196674D02*
X4446253Y-12158579D01*
X4446253Y-12158579D02*
X4455777Y-12139531D01*
X4455777Y-12139531D02*
X4465301Y-12130008D01*
X4465301Y-12130008D02*
X4484348Y-12120484D01*
X4722444Y-12187150D02*
X4722444Y-12320484D01*
X4674825Y-12110960D02*
X4627206Y-12253817D01*
X4627206Y-12253817D02*
X4751015Y-12253817D01*
X4912920Y-12120484D02*
X4874825Y-12120484D01*
X4874825Y-12120484D02*
X4855777Y-12130008D01*
X4855777Y-12130008D02*
X4846253Y-12139531D01*
X4846253Y-12139531D02*
X4827206Y-12168103D01*
X4827206Y-12168103D02*
X4817682Y-12206198D01*
X4817682Y-12206198D02*
X4817682Y-12282388D01*
X4817682Y-12282388D02*
X4827206Y-12301436D01*
X4827206Y-12301436D02*
X4836729Y-12310960D01*
X4836729Y-12310960D02*
X4855777Y-12320484D01*
X4855777Y-12320484D02*
X4893872Y-12320484D01*
X4893872Y-12320484D02*
X4912920Y-12310960D01*
X4912920Y-12310960D02*
X4922444Y-12301436D01*
X4922444Y-12301436D02*
X4931968Y-12282388D01*
X4931968Y-12282388D02*
X4931968Y-12234769D01*
X4931968Y-12234769D02*
X4922444Y-12215722D01*
X4922444Y-12215722D02*
X4912920Y-12206198D01*
X4912920Y-12206198D02*
X4893872Y-12196674D01*
X4893872Y-12196674D02*
X4855777Y-12196674D01*
X4855777Y-12196674D02*
X4836729Y-12206198D01*
X4836729Y-12206198D02*
X4827206Y-12215722D01*
X4827206Y-12215722D02*
X4817682Y-12234769D01*
X5027206Y-12320484D02*
X5065301Y-12320484D01*
X5065301Y-12320484D02*
X5084349Y-12310960D01*
X5084349Y-12310960D02*
X5093872Y-12301436D01*
X5093872Y-12301436D02*
X5112920Y-12272865D01*
X5112920Y-12272865D02*
X5122444Y-12234769D01*
X5122444Y-12234769D02*
X5122444Y-12158579D01*
X5122444Y-12158579D02*
X5112920Y-12139531D01*
X5112920Y-12139531D02*
X5103396Y-12130008D01*
X5103396Y-12130008D02*
X5084349Y-12120484D01*
X5084349Y-12120484D02*
X5046253Y-12120484D01*
X5046253Y-12120484D02*
X5027206Y-12130008D01*
X5027206Y-12130008D02*
X5017682Y-12139531D01*
X5017682Y-12139531D02*
X5008158Y-12158579D01*
X5008158Y-12158579D02*
X5008158Y-12206198D01*
X5008158Y-12206198D02*
X5017682Y-12225246D01*
X5017682Y-12225246D02*
X5027206Y-12234769D01*
X5027206Y-12234769D02*
X5046253Y-12244293D01*
X5046253Y-12244293D02*
X5084349Y-12244293D01*
X5084349Y-12244293D02*
X5103396Y-12234769D01*
X5103396Y-12234769D02*
X5112920Y-12225246D01*
X5112920Y-12225246D02*
X5122444Y-12206198D01*
X5198634Y-12120484D02*
X5198634Y-12158579D01*
X5274825Y-12120484D02*
X5274825Y-12158579D01*
X5570063Y-12396674D02*
X5560539Y-12387150D01*
X5560539Y-12387150D02*
X5541491Y-12358579D01*
X5541491Y-12358579D02*
X5531968Y-12339531D01*
X5531968Y-12339531D02*
X5522444Y-12310960D01*
X5522444Y-12310960D02*
X5512920Y-12263341D01*
X5512920Y-12263341D02*
X5512920Y-12225246D01*
X5512920Y-12225246D02*
X5522444Y-12177627D01*
X5522444Y-12177627D02*
X5531968Y-12149055D01*
X5531968Y-12149055D02*
X5541491Y-12130008D01*
X5541491Y-12130008D02*
X5560539Y-12101436D01*
X5560539Y-12101436D02*
X5570063Y-12091912D01*
X5636729Y-12139531D02*
X5646253Y-12130008D01*
X5646253Y-12130008D02*
X5665301Y-12120484D01*
X5665301Y-12120484D02*
X5712920Y-12120484D01*
X5712920Y-12120484D02*
X5731968Y-12130008D01*
X5731968Y-12130008D02*
X5741491Y-12139531D01*
X5741491Y-12139531D02*
X5751015Y-12158579D01*
X5751015Y-12158579D02*
X5751015Y-12177627D01*
X5751015Y-12177627D02*
X5741491Y-12206198D01*
X5741491Y-12206198D02*
X5627206Y-12320484D01*
X5627206Y-12320484D02*
X5751015Y-12320484D01*
X5827206Y-12139531D02*
X5836729Y-12130008D01*
X5836729Y-12130008D02*
X5855777Y-12120484D01*
X5855777Y-12120484D02*
X5903396Y-12120484D01*
X5903396Y-12120484D02*
X5922444Y-12130008D01*
X5922444Y-12130008D02*
X5931968Y-12139531D01*
X5931968Y-12139531D02*
X5941491Y-12158579D01*
X5941491Y-12158579D02*
X5941491Y-12177627D01*
X5941491Y-12177627D02*
X5931968Y-12206198D01*
X5931968Y-12206198D02*
X5817682Y-12320484D01*
X5817682Y-12320484D02*
X5941491Y-12320484D01*
X6179587Y-12320484D02*
X6179587Y-12120484D01*
X6265301Y-12320484D02*
X6265301Y-12215722D01*
X6265301Y-12215722D02*
X6255777Y-12196674D01*
X6255777Y-12196674D02*
X6236730Y-12187150D01*
X6236730Y-12187150D02*
X6208158Y-12187150D01*
X6208158Y-12187150D02*
X6189110Y-12196674D01*
X6189110Y-12196674D02*
X6179587Y-12206198D01*
X6389110Y-12320484D02*
X6370063Y-12310960D01*
X6370063Y-12310960D02*
X6360539Y-12301436D01*
X6360539Y-12301436D02*
X6351015Y-12282388D01*
X6351015Y-12282388D02*
X6351015Y-12225246D01*
X6351015Y-12225246D02*
X6360539Y-12206198D01*
X6360539Y-12206198D02*
X6370063Y-12196674D01*
X6370063Y-12196674D02*
X6389110Y-12187150D01*
X6389110Y-12187150D02*
X6417682Y-12187150D01*
X6417682Y-12187150D02*
X6436730Y-12196674D01*
X6436730Y-12196674D02*
X6446253Y-12206198D01*
X6446253Y-12206198D02*
X6455777Y-12225246D01*
X6455777Y-12225246D02*
X6455777Y-12282388D01*
X6455777Y-12282388D02*
X6446253Y-12301436D01*
X6446253Y-12301436D02*
X6436730Y-12310960D01*
X6436730Y-12310960D02*
X6417682Y-12320484D01*
X6417682Y-12320484D02*
X6389110Y-12320484D01*
X6570063Y-12320484D02*
X6551015Y-12310960D01*
X6551015Y-12310960D02*
X6541491Y-12291912D01*
X6541491Y-12291912D02*
X6541491Y-12120484D01*
X6722444Y-12310960D02*
X6703396Y-12320484D01*
X6703396Y-12320484D02*
X6665301Y-12320484D01*
X6665301Y-12320484D02*
X6646253Y-12310960D01*
X6646253Y-12310960D02*
X6636730Y-12291912D01*
X6636730Y-12291912D02*
X6636730Y-12215722D01*
X6636730Y-12215722D02*
X6646253Y-12196674D01*
X6646253Y-12196674D02*
X6665301Y-12187150D01*
X6665301Y-12187150D02*
X6703396Y-12187150D01*
X6703396Y-12187150D02*
X6722444Y-12196674D01*
X6722444Y-12196674D02*
X6731968Y-12215722D01*
X6731968Y-12215722D02*
X6731968Y-12234769D01*
X6731968Y-12234769D02*
X6636730Y-12253817D01*
X6808158Y-12310960D02*
X6827206Y-12320484D01*
X6827206Y-12320484D02*
X6865301Y-12320484D01*
X6865301Y-12320484D02*
X6884349Y-12310960D01*
X6884349Y-12310960D02*
X6893872Y-12291912D01*
X6893872Y-12291912D02*
X6893872Y-12282388D01*
X6893872Y-12282388D02*
X6884349Y-12263341D01*
X6884349Y-12263341D02*
X6865301Y-12253817D01*
X6865301Y-12253817D02*
X6836730Y-12253817D01*
X6836730Y-12253817D02*
X6817682Y-12244293D01*
X6817682Y-12244293D02*
X6808158Y-12225246D01*
X6808158Y-12225246D02*
X6808158Y-12215722D01*
X6808158Y-12215722D02*
X6817682Y-12196674D01*
X6817682Y-12196674D02*
X6836730Y-12187150D01*
X6836730Y-12187150D02*
X6865301Y-12187150D01*
X6865301Y-12187150D02*
X6884349Y-12196674D01*
X6960539Y-12396674D02*
X6970063Y-12387150D01*
X6970063Y-12387150D02*
X6989111Y-12358579D01*
X6989111Y-12358579D02*
X6998634Y-12339531D01*
X6998634Y-12339531D02*
X7008158Y-12310960D01*
X7008158Y-12310960D02*
X7017682Y-12263341D01*
X7017682Y-12263341D02*
X7017682Y-12225246D01*
X7017682Y-12225246D02*
X7008158Y-12177627D01*
X7008158Y-12177627D02*
X6998634Y-12149055D01*
X6998634Y-12149055D02*
X6989111Y-12130008D01*
X6989111Y-12130008D02*
X6970063Y-12101436D01*
X6970063Y-12101436D02*
X6960539Y-12091912D01*
D14*
X1865000Y-12428000D02*
X1995000Y-12558000D01*
X1995000Y-12428000D02*
X1865000Y-12558000D01*
X1975962Y-12538962D02*
X1975962Y-12447038D01*
X1884038Y-12447038D01*
X1884038Y-12538962D01*
X1975962Y-12538962D01*
D11*
X2360539Y-12584484D02*
X2246253Y-12584484D01*
X2303396Y-12584484D02*
X2303396Y-12384484D01*
X2303396Y-12384484D02*
X2284348Y-12413055D01*
X2284348Y-12413055D02*
X2265301Y-12432103D01*
X2265301Y-12432103D02*
X2246253Y-12441627D01*
X2446253Y-12565436D02*
X2455777Y-12574960D01*
X2455777Y-12574960D02*
X2446253Y-12584484D01*
X2446253Y-12584484D02*
X2436729Y-12574960D01*
X2436729Y-12574960D02*
X2446253Y-12565436D01*
X2446253Y-12565436D02*
X2446253Y-12584484D01*
X2522444Y-12384484D02*
X2646253Y-12384484D01*
X2646253Y-12384484D02*
X2579586Y-12460674D01*
X2579586Y-12460674D02*
X2608158Y-12460674D01*
X2608158Y-12460674D02*
X2627205Y-12470198D01*
X2627205Y-12470198D02*
X2636729Y-12479722D01*
X2636729Y-12479722D02*
X2646253Y-12498769D01*
X2646253Y-12498769D02*
X2646253Y-12546388D01*
X2646253Y-12546388D02*
X2636729Y-12565436D01*
X2636729Y-12565436D02*
X2627205Y-12574960D01*
X2627205Y-12574960D02*
X2608158Y-12584484D01*
X2608158Y-12584484D02*
X2551015Y-12584484D01*
X2551015Y-12584484D02*
X2531967Y-12574960D01*
X2531967Y-12574960D02*
X2522444Y-12565436D01*
X2770063Y-12384484D02*
X2789110Y-12384484D01*
X2789110Y-12384484D02*
X2808158Y-12394008D01*
X2808158Y-12394008D02*
X2817682Y-12403531D01*
X2817682Y-12403531D02*
X2827205Y-12422579D01*
X2827205Y-12422579D02*
X2836729Y-12460674D01*
X2836729Y-12460674D02*
X2836729Y-12508293D01*
X2836729Y-12508293D02*
X2827205Y-12546388D01*
X2827205Y-12546388D02*
X2817682Y-12565436D01*
X2817682Y-12565436D02*
X2808158Y-12574960D01*
X2808158Y-12574960D02*
X2789110Y-12584484D01*
X2789110Y-12584484D02*
X2770063Y-12584484D01*
X2770063Y-12584484D02*
X2751015Y-12574960D01*
X2751015Y-12574960D02*
X2741491Y-12565436D01*
X2741491Y-12565436D02*
X2731967Y-12546388D01*
X2731967Y-12546388D02*
X2722444Y-12508293D01*
X2722444Y-12508293D02*
X2722444Y-12460674D01*
X2722444Y-12460674D02*
X2731967Y-12422579D01*
X2731967Y-12422579D02*
X2741491Y-12403531D01*
X2741491Y-12403531D02*
X2751015Y-12394008D01*
X2751015Y-12394008D02*
X2770063Y-12384484D01*
X2960539Y-12384484D02*
X2979586Y-12384484D01*
X2979586Y-12384484D02*
X2998634Y-12394008D01*
X2998634Y-12394008D02*
X3008158Y-12403531D01*
X3008158Y-12403531D02*
X3017682Y-12422579D01*
X3017682Y-12422579D02*
X3027205Y-12460674D01*
X3027205Y-12460674D02*
X3027205Y-12508293D01*
X3027205Y-12508293D02*
X3017682Y-12546388D01*
X3017682Y-12546388D02*
X3008158Y-12565436D01*
X3008158Y-12565436D02*
X2998634Y-12574960D01*
X2998634Y-12574960D02*
X2979586Y-12584484D01*
X2979586Y-12584484D02*
X2960539Y-12584484D01*
X2960539Y-12584484D02*
X2941491Y-12574960D01*
X2941491Y-12574960D02*
X2931967Y-12565436D01*
X2931967Y-12565436D02*
X2922443Y-12546388D01*
X2922443Y-12546388D02*
X2912920Y-12508293D01*
X2912920Y-12508293D02*
X2912920Y-12460674D01*
X2912920Y-12460674D02*
X2922443Y-12422579D01*
X2922443Y-12422579D02*
X2931967Y-12403531D01*
X2931967Y-12403531D02*
X2941491Y-12394008D01*
X2941491Y-12394008D02*
X2960539Y-12384484D01*
X3112920Y-12584484D02*
X3112920Y-12451150D01*
X3112920Y-12470198D02*
X3122443Y-12460674D01*
X3122443Y-12460674D02*
X3141491Y-12451150D01*
X3141491Y-12451150D02*
X3170063Y-12451150D01*
X3170063Y-12451150D02*
X3189110Y-12460674D01*
X3189110Y-12460674D02*
X3198634Y-12479722D01*
X3198634Y-12479722D02*
X3198634Y-12584484D01*
X3198634Y-12479722D02*
X3208158Y-12460674D01*
X3208158Y-12460674D02*
X3227205Y-12451150D01*
X3227205Y-12451150D02*
X3255777Y-12451150D01*
X3255777Y-12451150D02*
X3274824Y-12460674D01*
X3274824Y-12460674D02*
X3284348Y-12479722D01*
X3284348Y-12479722D02*
X3284348Y-12584484D01*
X3379586Y-12584484D02*
X3379586Y-12451150D01*
X3379586Y-12470198D02*
X3389110Y-12460674D01*
X3389110Y-12460674D02*
X3408158Y-12451150D01*
X3408158Y-12451150D02*
X3436729Y-12451150D01*
X3436729Y-12451150D02*
X3455777Y-12460674D01*
X3455777Y-12460674D02*
X3465301Y-12479722D01*
X3465301Y-12479722D02*
X3465301Y-12584484D01*
X3465301Y-12479722D02*
X3474824Y-12460674D01*
X3474824Y-12460674D02*
X3493872Y-12451150D01*
X3493872Y-12451150D02*
X3522443Y-12451150D01*
X3522443Y-12451150D02*
X3541491Y-12460674D01*
X3541491Y-12460674D02*
X3551015Y-12479722D01*
X3551015Y-12479722D02*
X3551015Y-12584484D01*
X3941491Y-12374960D02*
X3770063Y-12632103D01*
X4198634Y-12384484D02*
X4217682Y-12384484D01*
X4217682Y-12384484D02*
X4236729Y-12394008D01*
X4236729Y-12394008D02*
X4246253Y-12403531D01*
X4246253Y-12403531D02*
X4255777Y-12422579D01*
X4255777Y-12422579D02*
X4265301Y-12460674D01*
X4265301Y-12460674D02*
X4265301Y-12508293D01*
X4265301Y-12508293D02*
X4255777Y-12546388D01*
X4255777Y-12546388D02*
X4246253Y-12565436D01*
X4246253Y-12565436D02*
X4236729Y-12574960D01*
X4236729Y-12574960D02*
X4217682Y-12584484D01*
X4217682Y-12584484D02*
X4198634Y-12584484D01*
X4198634Y-12584484D02*
X4179586Y-12574960D01*
X4179586Y-12574960D02*
X4170063Y-12565436D01*
X4170063Y-12565436D02*
X4160539Y-12546388D01*
X4160539Y-12546388D02*
X4151015Y-12508293D01*
X4151015Y-12508293D02*
X4151015Y-12460674D01*
X4151015Y-12460674D02*
X4160539Y-12422579D01*
X4160539Y-12422579D02*
X4170063Y-12403531D01*
X4170063Y-12403531D02*
X4179586Y-12394008D01*
X4179586Y-12394008D02*
X4198634Y-12384484D01*
X4351015Y-12565436D02*
X4360539Y-12574960D01*
X4360539Y-12574960D02*
X4351015Y-12584484D01*
X4351015Y-12584484D02*
X4341491Y-12574960D01*
X4341491Y-12574960D02*
X4351015Y-12565436D01*
X4351015Y-12565436D02*
X4351015Y-12584484D01*
X4484348Y-12384484D02*
X4503396Y-12384484D01*
X4503396Y-12384484D02*
X4522444Y-12394008D01*
X4522444Y-12394008D02*
X4531968Y-12403531D01*
X4531968Y-12403531D02*
X4541491Y-12422579D01*
X4541491Y-12422579D02*
X4551015Y-12460674D01*
X4551015Y-12460674D02*
X4551015Y-12508293D01*
X4551015Y-12508293D02*
X4541491Y-12546388D01*
X4541491Y-12546388D02*
X4531968Y-12565436D01*
X4531968Y-12565436D02*
X4522444Y-12574960D01*
X4522444Y-12574960D02*
X4503396Y-12584484D01*
X4503396Y-12584484D02*
X4484348Y-12584484D01*
X4484348Y-12584484D02*
X4465301Y-12574960D01*
X4465301Y-12574960D02*
X4455777Y-12565436D01*
X4455777Y-12565436D02*
X4446253Y-12546388D01*
X4446253Y-12546388D02*
X4436729Y-12508293D01*
X4436729Y-12508293D02*
X4436729Y-12460674D01*
X4436729Y-12460674D02*
X4446253Y-12422579D01*
X4446253Y-12422579D02*
X4455777Y-12403531D01*
X4455777Y-12403531D02*
X4465301Y-12394008D01*
X4465301Y-12394008D02*
X4484348Y-12384484D01*
X4731968Y-12384484D02*
X4636729Y-12384484D01*
X4636729Y-12384484D02*
X4627206Y-12479722D01*
X4627206Y-12479722D02*
X4636729Y-12470198D01*
X4636729Y-12470198D02*
X4655777Y-12460674D01*
X4655777Y-12460674D02*
X4703396Y-12460674D01*
X4703396Y-12460674D02*
X4722444Y-12470198D01*
X4722444Y-12470198D02*
X4731968Y-12479722D01*
X4731968Y-12479722D02*
X4741491Y-12498769D01*
X4741491Y-12498769D02*
X4741491Y-12546388D01*
X4741491Y-12546388D02*
X4731968Y-12565436D01*
X4731968Y-12565436D02*
X4722444Y-12574960D01*
X4722444Y-12574960D02*
X4703396Y-12584484D01*
X4703396Y-12584484D02*
X4655777Y-12584484D01*
X4655777Y-12584484D02*
X4636729Y-12574960D01*
X4636729Y-12574960D02*
X4627206Y-12565436D01*
X4931968Y-12584484D02*
X4817682Y-12584484D01*
X4874825Y-12584484D02*
X4874825Y-12384484D01*
X4874825Y-12384484D02*
X4855777Y-12413055D01*
X4855777Y-12413055D02*
X4836729Y-12432103D01*
X4836729Y-12432103D02*
X4817682Y-12441627D01*
X5008158Y-12403531D02*
X5017682Y-12394008D01*
X5017682Y-12394008D02*
X5036729Y-12384484D01*
X5036729Y-12384484D02*
X5084349Y-12384484D01*
X5084349Y-12384484D02*
X5103396Y-12394008D01*
X5103396Y-12394008D02*
X5112920Y-12403531D01*
X5112920Y-12403531D02*
X5122444Y-12422579D01*
X5122444Y-12422579D02*
X5122444Y-12441627D01*
X5122444Y-12441627D02*
X5112920Y-12470198D01*
X5112920Y-12470198D02*
X4998634Y-12584484D01*
X4998634Y-12584484D02*
X5122444Y-12584484D01*
X5198634Y-12384484D02*
X5198634Y-12422579D01*
X5274825Y-12384484D02*
X5274825Y-12422579D01*
X5570063Y-12660674D02*
X5560539Y-12651150D01*
X5560539Y-12651150D02*
X5541491Y-12622579D01*
X5541491Y-12622579D02*
X5531968Y-12603531D01*
X5531968Y-12603531D02*
X5522444Y-12574960D01*
X5522444Y-12574960D02*
X5512920Y-12527341D01*
X5512920Y-12527341D02*
X5512920Y-12489246D01*
X5512920Y-12489246D02*
X5522444Y-12441627D01*
X5522444Y-12441627D02*
X5531968Y-12413055D01*
X5531968Y-12413055D02*
X5541491Y-12394008D01*
X5541491Y-12394008D02*
X5560539Y-12365436D01*
X5560539Y-12365436D02*
X5570063Y-12355912D01*
X5731968Y-12384484D02*
X5693872Y-12384484D01*
X5693872Y-12384484D02*
X5674825Y-12394008D01*
X5674825Y-12394008D02*
X5665301Y-12403531D01*
X5665301Y-12403531D02*
X5646253Y-12432103D01*
X5646253Y-12432103D02*
X5636729Y-12470198D01*
X5636729Y-12470198D02*
X5636729Y-12546388D01*
X5636729Y-12546388D02*
X5646253Y-12565436D01*
X5646253Y-12565436D02*
X5655777Y-12574960D01*
X5655777Y-12574960D02*
X5674825Y-12584484D01*
X5674825Y-12584484D02*
X5712920Y-12584484D01*
X5712920Y-12584484D02*
X5731968Y-12574960D01*
X5731968Y-12574960D02*
X5741491Y-12565436D01*
X5741491Y-12565436D02*
X5751015Y-12546388D01*
X5751015Y-12546388D02*
X5751015Y-12498769D01*
X5751015Y-12498769D02*
X5741491Y-12479722D01*
X5741491Y-12479722D02*
X5731968Y-12470198D01*
X5731968Y-12470198D02*
X5712920Y-12460674D01*
X5712920Y-12460674D02*
X5674825Y-12460674D01*
X5674825Y-12460674D02*
X5655777Y-12470198D01*
X5655777Y-12470198D02*
X5646253Y-12479722D01*
X5646253Y-12479722D02*
X5636729Y-12498769D01*
X5989110Y-12584484D02*
X5989110Y-12384484D01*
X6074825Y-12584484D02*
X6074825Y-12479722D01*
X6074825Y-12479722D02*
X6065301Y-12460674D01*
X6065301Y-12460674D02*
X6046253Y-12451150D01*
X6046253Y-12451150D02*
X6017682Y-12451150D01*
X6017682Y-12451150D02*
X5998634Y-12460674D01*
X5998634Y-12460674D02*
X5989110Y-12470198D01*
X6198634Y-12584484D02*
X6179587Y-12574960D01*
X6179587Y-12574960D02*
X6170063Y-12565436D01*
X6170063Y-12565436D02*
X6160539Y-12546388D01*
X6160539Y-12546388D02*
X6160539Y-12489246D01*
X6160539Y-12489246D02*
X6170063Y-12470198D01*
X6170063Y-12470198D02*
X6179587Y-12460674D01*
X6179587Y-12460674D02*
X6198634Y-12451150D01*
X6198634Y-12451150D02*
X6227206Y-12451150D01*
X6227206Y-12451150D02*
X6246253Y-12460674D01*
X6246253Y-12460674D02*
X6255777Y-12470198D01*
X6255777Y-12470198D02*
X6265301Y-12489246D01*
X6265301Y-12489246D02*
X6265301Y-12546388D01*
X6265301Y-12546388D02*
X6255777Y-12565436D01*
X6255777Y-12565436D02*
X6246253Y-12574960D01*
X6246253Y-12574960D02*
X6227206Y-12584484D01*
X6227206Y-12584484D02*
X6198634Y-12584484D01*
X6379587Y-12584484D02*
X6360539Y-12574960D01*
X6360539Y-12574960D02*
X6351015Y-12555912D01*
X6351015Y-12555912D02*
X6351015Y-12384484D01*
X6531968Y-12574960D02*
X6512920Y-12584484D01*
X6512920Y-12584484D02*
X6474825Y-12584484D01*
X6474825Y-12584484D02*
X6455777Y-12574960D01*
X6455777Y-12574960D02*
X6446253Y-12555912D01*
X6446253Y-12555912D02*
X6446253Y-12479722D01*
X6446253Y-12479722D02*
X6455777Y-12460674D01*
X6455777Y-12460674D02*
X6474825Y-12451150D01*
X6474825Y-12451150D02*
X6512920Y-12451150D01*
X6512920Y-12451150D02*
X6531968Y-12460674D01*
X6531968Y-12460674D02*
X6541491Y-12479722D01*
X6541491Y-12479722D02*
X6541491Y-12498769D01*
X6541491Y-12498769D02*
X6446253Y-12517817D01*
X6617682Y-12574960D02*
X6636730Y-12584484D01*
X6636730Y-12584484D02*
X6674825Y-12584484D01*
X6674825Y-12584484D02*
X6693872Y-12574960D01*
X6693872Y-12574960D02*
X6703396Y-12555912D01*
X6703396Y-12555912D02*
X6703396Y-12546388D01*
X6703396Y-12546388D02*
X6693872Y-12527341D01*
X6693872Y-12527341D02*
X6674825Y-12517817D01*
X6674825Y-12517817D02*
X6646253Y-12517817D01*
X6646253Y-12517817D02*
X6627206Y-12508293D01*
X6627206Y-12508293D02*
X6617682Y-12489246D01*
X6617682Y-12489246D02*
X6617682Y-12479722D01*
X6617682Y-12479722D02*
X6627206Y-12460674D01*
X6627206Y-12460674D02*
X6646253Y-12451150D01*
X6646253Y-12451150D02*
X6674825Y-12451150D01*
X6674825Y-12451150D02*
X6693872Y-12460674D01*
X6770063Y-12660674D02*
X6779587Y-12651150D01*
X6779587Y-12651150D02*
X6798634Y-12622579D01*
X6798634Y-12622579D02*
X6808158Y-12603531D01*
X6808158Y-12603531D02*
X6817682Y-12574960D01*
X6817682Y-12574960D02*
X6827206Y-12527341D01*
X6827206Y-12527341D02*
X6827206Y-12489246D01*
X6827206Y-12489246D02*
X6817682Y-12441627D01*
X6817682Y-12441627D02*
X6808158Y-12413055D01*
X6808158Y-12413055D02*
X6798634Y-12394008D01*
X6798634Y-12394008D02*
X6779587Y-12365436D01*
X6779587Y-12365436D02*
X6770063Y-12355912D01*
X1795000Y-12657000D02*
X1995000Y-12857000D01*
X1995000Y-12657000D02*
X1795000Y-12857000D01*
X1895000Y-12857000D02*
X1995000Y-12757000D01*
X1895000Y-12657000D01*
X1795000Y-12757000D01*
X1895000Y-12857000D01*
X2236729Y-12648484D02*
X2360539Y-12648484D01*
X2360539Y-12648484D02*
X2293872Y-12724674D01*
X2293872Y-12724674D02*
X2322444Y-12724674D01*
X2322444Y-12724674D02*
X2341491Y-12734198D01*
X2341491Y-12734198D02*
X2351015Y-12743722D01*
X2351015Y-12743722D02*
X2360539Y-12762769D01*
X2360539Y-12762769D02*
X2360539Y-12810388D01*
X2360539Y-12810388D02*
X2351015Y-12829436D01*
X2351015Y-12829436D02*
X2341491Y-12838960D01*
X2341491Y-12838960D02*
X2322444Y-12848484D01*
X2322444Y-12848484D02*
X2265301Y-12848484D01*
X2265301Y-12848484D02*
X2246253Y-12838960D01*
X2246253Y-12838960D02*
X2236729Y-12829436D01*
X2446253Y-12829436D02*
X2455777Y-12838960D01*
X2455777Y-12838960D02*
X2446253Y-12848484D01*
X2446253Y-12848484D02*
X2436729Y-12838960D01*
X2436729Y-12838960D02*
X2446253Y-12829436D01*
X2446253Y-12829436D02*
X2446253Y-12848484D01*
X2531967Y-12667531D02*
X2541491Y-12658008D01*
X2541491Y-12658008D02*
X2560539Y-12648484D01*
X2560539Y-12648484D02*
X2608158Y-12648484D01*
X2608158Y-12648484D02*
X2627205Y-12658008D01*
X2627205Y-12658008D02*
X2636729Y-12667531D01*
X2636729Y-12667531D02*
X2646253Y-12686579D01*
X2646253Y-12686579D02*
X2646253Y-12705627D01*
X2646253Y-12705627D02*
X2636729Y-12734198D01*
X2636729Y-12734198D02*
X2522444Y-12848484D01*
X2522444Y-12848484D02*
X2646253Y-12848484D01*
X2770063Y-12648484D02*
X2789110Y-12648484D01*
X2789110Y-12648484D02*
X2808158Y-12658008D01*
X2808158Y-12658008D02*
X2817682Y-12667531D01*
X2817682Y-12667531D02*
X2827205Y-12686579D01*
X2827205Y-12686579D02*
X2836729Y-12724674D01*
X2836729Y-12724674D02*
X2836729Y-12772293D01*
X2836729Y-12772293D02*
X2827205Y-12810388D01*
X2827205Y-12810388D02*
X2817682Y-12829436D01*
X2817682Y-12829436D02*
X2808158Y-12838960D01*
X2808158Y-12838960D02*
X2789110Y-12848484D01*
X2789110Y-12848484D02*
X2770063Y-12848484D01*
X2770063Y-12848484D02*
X2751015Y-12838960D01*
X2751015Y-12838960D02*
X2741491Y-12829436D01*
X2741491Y-12829436D02*
X2731967Y-12810388D01*
X2731967Y-12810388D02*
X2722444Y-12772293D01*
X2722444Y-12772293D02*
X2722444Y-12724674D01*
X2722444Y-12724674D02*
X2731967Y-12686579D01*
X2731967Y-12686579D02*
X2741491Y-12667531D01*
X2741491Y-12667531D02*
X2751015Y-12658008D01*
X2751015Y-12658008D02*
X2770063Y-12648484D01*
X2960539Y-12648484D02*
X2979586Y-12648484D01*
X2979586Y-12648484D02*
X2998634Y-12658008D01*
X2998634Y-12658008D02*
X3008158Y-12667531D01*
X3008158Y-12667531D02*
X3017682Y-12686579D01*
X3017682Y-12686579D02*
X3027205Y-12724674D01*
X3027205Y-12724674D02*
X3027205Y-12772293D01*
X3027205Y-12772293D02*
X3017682Y-12810388D01*
X3017682Y-12810388D02*
X3008158Y-12829436D01*
X3008158Y-12829436D02*
X2998634Y-12838960D01*
X2998634Y-12838960D02*
X2979586Y-12848484D01*
X2979586Y-12848484D02*
X2960539Y-12848484D01*
X2960539Y-12848484D02*
X2941491Y-12838960D01*
X2941491Y-12838960D02*
X2931967Y-12829436D01*
X2931967Y-12829436D02*
X2922443Y-12810388D01*
X2922443Y-12810388D02*
X2912920Y-12772293D01*
X2912920Y-12772293D02*
X2912920Y-12724674D01*
X2912920Y-12724674D02*
X2922443Y-12686579D01*
X2922443Y-12686579D02*
X2931967Y-12667531D01*
X2931967Y-12667531D02*
X2941491Y-12658008D01*
X2941491Y-12658008D02*
X2960539Y-12648484D01*
X3112920Y-12848484D02*
X3112920Y-12715150D01*
X3112920Y-12734198D02*
X3122443Y-12724674D01*
X3122443Y-12724674D02*
X3141491Y-12715150D01*
X3141491Y-12715150D02*
X3170063Y-12715150D01*
X3170063Y-12715150D02*
X3189110Y-12724674D01*
X3189110Y-12724674D02*
X3198634Y-12743722D01*
X3198634Y-12743722D02*
X3198634Y-12848484D01*
X3198634Y-12743722D02*
X3208158Y-12724674D01*
X3208158Y-12724674D02*
X3227205Y-12715150D01*
X3227205Y-12715150D02*
X3255777Y-12715150D01*
X3255777Y-12715150D02*
X3274824Y-12724674D01*
X3274824Y-12724674D02*
X3284348Y-12743722D01*
X3284348Y-12743722D02*
X3284348Y-12848484D01*
X3379586Y-12848484D02*
X3379586Y-12715150D01*
X3379586Y-12734198D02*
X3389110Y-12724674D01*
X3389110Y-12724674D02*
X3408158Y-12715150D01*
X3408158Y-12715150D02*
X3436729Y-12715150D01*
X3436729Y-12715150D02*
X3455777Y-12724674D01*
X3455777Y-12724674D02*
X3465301Y-12743722D01*
X3465301Y-12743722D02*
X3465301Y-12848484D01*
X3465301Y-12743722D02*
X3474824Y-12724674D01*
X3474824Y-12724674D02*
X3493872Y-12715150D01*
X3493872Y-12715150D02*
X3522443Y-12715150D01*
X3522443Y-12715150D02*
X3541491Y-12724674D01*
X3541491Y-12724674D02*
X3551015Y-12743722D01*
X3551015Y-12743722D02*
X3551015Y-12848484D01*
X3941491Y-12638960D02*
X3770063Y-12896103D01*
X4198634Y-12648484D02*
X4217682Y-12648484D01*
X4217682Y-12648484D02*
X4236729Y-12658008D01*
X4236729Y-12658008D02*
X4246253Y-12667531D01*
X4246253Y-12667531D02*
X4255777Y-12686579D01*
X4255777Y-12686579D02*
X4265301Y-12724674D01*
X4265301Y-12724674D02*
X4265301Y-12772293D01*
X4265301Y-12772293D02*
X4255777Y-12810388D01*
X4255777Y-12810388D02*
X4246253Y-12829436D01*
X4246253Y-12829436D02*
X4236729Y-12838960D01*
X4236729Y-12838960D02*
X4217682Y-12848484D01*
X4217682Y-12848484D02*
X4198634Y-12848484D01*
X4198634Y-12848484D02*
X4179586Y-12838960D01*
X4179586Y-12838960D02*
X4170063Y-12829436D01*
X4170063Y-12829436D02*
X4160539Y-12810388D01*
X4160539Y-12810388D02*
X4151015Y-12772293D01*
X4151015Y-12772293D02*
X4151015Y-12724674D01*
X4151015Y-12724674D02*
X4160539Y-12686579D01*
X4160539Y-12686579D02*
X4170063Y-12667531D01*
X4170063Y-12667531D02*
X4179586Y-12658008D01*
X4179586Y-12658008D02*
X4198634Y-12648484D01*
X4351015Y-12829436D02*
X4360539Y-12838960D01*
X4360539Y-12838960D02*
X4351015Y-12848484D01*
X4351015Y-12848484D02*
X4341491Y-12838960D01*
X4341491Y-12838960D02*
X4351015Y-12829436D01*
X4351015Y-12829436D02*
X4351015Y-12848484D01*
X4551015Y-12848484D02*
X4436729Y-12848484D01*
X4493872Y-12848484D02*
X4493872Y-12648484D01*
X4493872Y-12648484D02*
X4474825Y-12677055D01*
X4474825Y-12677055D02*
X4455777Y-12696103D01*
X4455777Y-12696103D02*
X4436729Y-12705627D01*
X4627206Y-12667531D02*
X4636729Y-12658008D01*
X4636729Y-12658008D02*
X4655777Y-12648484D01*
X4655777Y-12648484D02*
X4703396Y-12648484D01*
X4703396Y-12648484D02*
X4722444Y-12658008D01*
X4722444Y-12658008D02*
X4731968Y-12667531D01*
X4731968Y-12667531D02*
X4741491Y-12686579D01*
X4741491Y-12686579D02*
X4741491Y-12705627D01*
X4741491Y-12705627D02*
X4731968Y-12734198D01*
X4731968Y-12734198D02*
X4617682Y-12848484D01*
X4617682Y-12848484D02*
X4741491Y-12848484D01*
X4912920Y-12648484D02*
X4874825Y-12648484D01*
X4874825Y-12648484D02*
X4855777Y-12658008D01*
X4855777Y-12658008D02*
X4846253Y-12667531D01*
X4846253Y-12667531D02*
X4827206Y-12696103D01*
X4827206Y-12696103D02*
X4817682Y-12734198D01*
X4817682Y-12734198D02*
X4817682Y-12810388D01*
X4817682Y-12810388D02*
X4827206Y-12829436D01*
X4827206Y-12829436D02*
X4836729Y-12838960D01*
X4836729Y-12838960D02*
X4855777Y-12848484D01*
X4855777Y-12848484D02*
X4893872Y-12848484D01*
X4893872Y-12848484D02*
X4912920Y-12838960D01*
X4912920Y-12838960D02*
X4922444Y-12829436D01*
X4922444Y-12829436D02*
X4931968Y-12810388D01*
X4931968Y-12810388D02*
X4931968Y-12762769D01*
X4931968Y-12762769D02*
X4922444Y-12743722D01*
X4922444Y-12743722D02*
X4912920Y-12734198D01*
X4912920Y-12734198D02*
X4893872Y-12724674D01*
X4893872Y-12724674D02*
X4855777Y-12724674D01*
X4855777Y-12724674D02*
X4836729Y-12734198D01*
X4836729Y-12734198D02*
X4827206Y-12743722D01*
X4827206Y-12743722D02*
X4817682Y-12762769D01*
X5055777Y-12648484D02*
X5074825Y-12648484D01*
X5074825Y-12648484D02*
X5093872Y-12658008D01*
X5093872Y-12658008D02*
X5103396Y-12667531D01*
X5103396Y-12667531D02*
X5112920Y-12686579D01*
X5112920Y-12686579D02*
X5122444Y-12724674D01*
X5122444Y-12724674D02*
X5122444Y-12772293D01*
X5122444Y-12772293D02*
X5112920Y-12810388D01*
X5112920Y-12810388D02*
X5103396Y-12829436D01*
X5103396Y-12829436D02*
X5093872Y-12838960D01*
X5093872Y-12838960D02*
X5074825Y-12848484D01*
X5074825Y-12848484D02*
X5055777Y-12848484D01*
X5055777Y-12848484D02*
X5036729Y-12838960D01*
X5036729Y-12838960D02*
X5027206Y-12829436D01*
X5027206Y-12829436D02*
X5017682Y-12810388D01*
X5017682Y-12810388D02*
X5008158Y-12772293D01*
X5008158Y-12772293D02*
X5008158Y-12724674D01*
X5008158Y-12724674D02*
X5017682Y-12686579D01*
X5017682Y-12686579D02*
X5027206Y-12667531D01*
X5027206Y-12667531D02*
X5036729Y-12658008D01*
X5036729Y-12658008D02*
X5055777Y-12648484D01*
X5198634Y-12648484D02*
X5198634Y-12686579D01*
X5274825Y-12648484D02*
X5274825Y-12686579D01*
X5570063Y-12924674D02*
X5560539Y-12915150D01*
X5560539Y-12915150D02*
X5541491Y-12886579D01*
X5541491Y-12886579D02*
X5531968Y-12867531D01*
X5531968Y-12867531D02*
X5522444Y-12838960D01*
X5522444Y-12838960D02*
X5512920Y-12791341D01*
X5512920Y-12791341D02*
X5512920Y-12753246D01*
X5512920Y-12753246D02*
X5522444Y-12705627D01*
X5522444Y-12705627D02*
X5531968Y-12677055D01*
X5531968Y-12677055D02*
X5541491Y-12658008D01*
X5541491Y-12658008D02*
X5560539Y-12629436D01*
X5560539Y-12629436D02*
X5570063Y-12619912D01*
X5731968Y-12715150D02*
X5731968Y-12848484D01*
X5684348Y-12638960D02*
X5636729Y-12781817D01*
X5636729Y-12781817D02*
X5760539Y-12781817D01*
X5989110Y-12848484D02*
X5989110Y-12648484D01*
X6074825Y-12848484D02*
X6074825Y-12743722D01*
X6074825Y-12743722D02*
X6065301Y-12724674D01*
X6065301Y-12724674D02*
X6046253Y-12715150D01*
X6046253Y-12715150D02*
X6017682Y-12715150D01*
X6017682Y-12715150D02*
X5998634Y-12724674D01*
X5998634Y-12724674D02*
X5989110Y-12734198D01*
X6198634Y-12848484D02*
X6179587Y-12838960D01*
X6179587Y-12838960D02*
X6170063Y-12829436D01*
X6170063Y-12829436D02*
X6160539Y-12810388D01*
X6160539Y-12810388D02*
X6160539Y-12753246D01*
X6160539Y-12753246D02*
X6170063Y-12734198D01*
X6170063Y-12734198D02*
X6179587Y-12724674D01*
X6179587Y-12724674D02*
X6198634Y-12715150D01*
X6198634Y-12715150D02*
X6227206Y-12715150D01*
X6227206Y-12715150D02*
X6246253Y-12724674D01*
X6246253Y-12724674D02*
X6255777Y-12734198D01*
X6255777Y-12734198D02*
X6265301Y-12753246D01*
X6265301Y-12753246D02*
X6265301Y-12810388D01*
X6265301Y-12810388D02*
X6255777Y-12829436D01*
X6255777Y-12829436D02*
X6246253Y-12838960D01*
X6246253Y-12838960D02*
X6227206Y-12848484D01*
X6227206Y-12848484D02*
X6198634Y-12848484D01*
X6379587Y-12848484D02*
X6360539Y-12838960D01*
X6360539Y-12838960D02*
X6351015Y-12819912D01*
X6351015Y-12819912D02*
X6351015Y-12648484D01*
X6531968Y-12838960D02*
X6512920Y-12848484D01*
X6512920Y-12848484D02*
X6474825Y-12848484D01*
X6474825Y-12848484D02*
X6455777Y-12838960D01*
X6455777Y-12838960D02*
X6446253Y-12819912D01*
X6446253Y-12819912D02*
X6446253Y-12743722D01*
X6446253Y-12743722D02*
X6455777Y-12724674D01*
X6455777Y-12724674D02*
X6474825Y-12715150D01*
X6474825Y-12715150D02*
X6512920Y-12715150D01*
X6512920Y-12715150D02*
X6531968Y-12724674D01*
X6531968Y-12724674D02*
X6541491Y-12743722D01*
X6541491Y-12743722D02*
X6541491Y-12762769D01*
X6541491Y-12762769D02*
X6446253Y-12781817D01*
X6617682Y-12838960D02*
X6636730Y-12848484D01*
X6636730Y-12848484D02*
X6674825Y-12848484D01*
X6674825Y-12848484D02*
X6693872Y-12838960D01*
X6693872Y-12838960D02*
X6703396Y-12819912D01*
X6703396Y-12819912D02*
X6703396Y-12810388D01*
X6703396Y-12810388D02*
X6693872Y-12791341D01*
X6693872Y-12791341D02*
X6674825Y-12781817D01*
X6674825Y-12781817D02*
X6646253Y-12781817D01*
X6646253Y-12781817D02*
X6627206Y-12772293D01*
X6627206Y-12772293D02*
X6617682Y-12753246D01*
X6617682Y-12753246D02*
X6617682Y-12743722D01*
X6617682Y-12743722D02*
X6627206Y-12724674D01*
X6627206Y-12724674D02*
X6646253Y-12715150D01*
X6646253Y-12715150D02*
X6674825Y-12715150D01*
X6674825Y-12715150D02*
X6693872Y-12724674D01*
X6770063Y-12924674D02*
X6779587Y-12915150D01*
X6779587Y-12915150D02*
X6798634Y-12886579D01*
X6798634Y-12886579D02*
X6808158Y-12867531D01*
X6808158Y-12867531D02*
X6817682Y-12838960D01*
X6817682Y-12838960D02*
X6827206Y-12791341D01*
X6827206Y-12791341D02*
X6827206Y-12753246D01*
X6827206Y-12753246D02*
X6817682Y-12705627D01*
X6817682Y-12705627D02*
X6808158Y-12677055D01*
X6808158Y-12677055D02*
X6798634Y-12658008D01*
X6798634Y-12658008D02*
X6779587Y-12629436D01*
X6779587Y-12629436D02*
X6770063Y-12619912D01*
D10*
X1962500Y-13044500D02*
X1962500Y-13109500D01*
X1930000Y-13077000D02*
X1995000Y-13077000D01*
X1995000Y-13077000D02*
G75*
G02*
X1930000Y-13077000I-32500J0D01*
G01*
X1930000Y-13077000D02*
G75*
G02*
X1995000Y-13077000I32500J0D01*
G01*
D11*
X2293872Y-12968484D02*
X2312920Y-12968484D01*
X2312920Y-12968484D02*
X2331967Y-12978008D01*
X2331967Y-12978008D02*
X2341491Y-12987531D01*
X2341491Y-12987531D02*
X2351015Y-13006579D01*
X2351015Y-13006579D02*
X2360539Y-13044674D01*
X2360539Y-13044674D02*
X2360539Y-13092293D01*
X2360539Y-13092293D02*
X2351015Y-13130388D01*
X2351015Y-13130388D02*
X2341491Y-13149436D01*
X2341491Y-13149436D02*
X2331967Y-13158960D01*
X2331967Y-13158960D02*
X2312920Y-13168484D01*
X2312920Y-13168484D02*
X2293872Y-13168484D01*
X2293872Y-13168484D02*
X2274824Y-13158960D01*
X2274824Y-13158960D02*
X2265301Y-13149436D01*
X2265301Y-13149436D02*
X2255777Y-13130388D01*
X2255777Y-13130388D02*
X2246253Y-13092293D01*
X2246253Y-13092293D02*
X2246253Y-13044674D01*
X2246253Y-13044674D02*
X2255777Y-13006579D01*
X2255777Y-13006579D02*
X2265301Y-12987531D01*
X2265301Y-12987531D02*
X2274824Y-12978008D01*
X2274824Y-12978008D02*
X2293872Y-12968484D01*
X2446253Y-13149436D02*
X2455777Y-13158960D01*
X2455777Y-13158960D02*
X2446253Y-13168484D01*
X2446253Y-13168484D02*
X2436729Y-13158960D01*
X2436729Y-13158960D02*
X2446253Y-13149436D01*
X2446253Y-13149436D02*
X2446253Y-13168484D01*
X2627205Y-12968484D02*
X2589110Y-12968484D01*
X2589110Y-12968484D02*
X2570063Y-12978008D01*
X2570063Y-12978008D02*
X2560539Y-12987531D01*
X2560539Y-12987531D02*
X2541491Y-13016103D01*
X2541491Y-13016103D02*
X2531967Y-13054198D01*
X2531967Y-13054198D02*
X2531967Y-13130388D01*
X2531967Y-13130388D02*
X2541491Y-13149436D01*
X2541491Y-13149436D02*
X2551015Y-13158960D01*
X2551015Y-13158960D02*
X2570063Y-13168484D01*
X2570063Y-13168484D02*
X2608158Y-13168484D01*
X2608158Y-13168484D02*
X2627205Y-13158960D01*
X2627205Y-13158960D02*
X2636729Y-13149436D01*
X2636729Y-13149436D02*
X2646253Y-13130388D01*
X2646253Y-13130388D02*
X2646253Y-13082769D01*
X2646253Y-13082769D02*
X2636729Y-13063722D01*
X2636729Y-13063722D02*
X2627205Y-13054198D01*
X2627205Y-13054198D02*
X2608158Y-13044674D01*
X2608158Y-13044674D02*
X2570063Y-13044674D01*
X2570063Y-13044674D02*
X2551015Y-13054198D01*
X2551015Y-13054198D02*
X2541491Y-13063722D01*
X2541491Y-13063722D02*
X2531967Y-13082769D01*
X2827205Y-12968484D02*
X2731967Y-12968484D01*
X2731967Y-12968484D02*
X2722444Y-13063722D01*
X2722444Y-13063722D02*
X2731967Y-13054198D01*
X2731967Y-13054198D02*
X2751015Y-13044674D01*
X2751015Y-13044674D02*
X2798634Y-13044674D01*
X2798634Y-13044674D02*
X2817682Y-13054198D01*
X2817682Y-13054198D02*
X2827205Y-13063722D01*
X2827205Y-13063722D02*
X2836729Y-13082769D01*
X2836729Y-13082769D02*
X2836729Y-13130388D01*
X2836729Y-13130388D02*
X2827205Y-13149436D01*
X2827205Y-13149436D02*
X2817682Y-13158960D01*
X2817682Y-13158960D02*
X2798634Y-13168484D01*
X2798634Y-13168484D02*
X2751015Y-13168484D01*
X2751015Y-13168484D02*
X2731967Y-13158960D01*
X2731967Y-13158960D02*
X2722444Y-13149436D01*
X2960539Y-12968484D02*
X2979586Y-12968484D01*
X2979586Y-12968484D02*
X2998634Y-12978008D01*
X2998634Y-12978008D02*
X3008158Y-12987531D01*
X3008158Y-12987531D02*
X3017682Y-13006579D01*
X3017682Y-13006579D02*
X3027205Y-13044674D01*
X3027205Y-13044674D02*
X3027205Y-13092293D01*
X3027205Y-13092293D02*
X3017682Y-13130388D01*
X3017682Y-13130388D02*
X3008158Y-13149436D01*
X3008158Y-13149436D02*
X2998634Y-13158960D01*
X2998634Y-13158960D02*
X2979586Y-13168484D01*
X2979586Y-13168484D02*
X2960539Y-13168484D01*
X2960539Y-13168484D02*
X2941491Y-13158960D01*
X2941491Y-13158960D02*
X2931967Y-13149436D01*
X2931967Y-13149436D02*
X2922443Y-13130388D01*
X2922443Y-13130388D02*
X2912920Y-13092293D01*
X2912920Y-13092293D02*
X2912920Y-13044674D01*
X2912920Y-13044674D02*
X2922443Y-13006579D01*
X2922443Y-13006579D02*
X2931967Y-12987531D01*
X2931967Y-12987531D02*
X2941491Y-12978008D01*
X2941491Y-12978008D02*
X2960539Y-12968484D01*
X3112920Y-13168484D02*
X3112920Y-13035150D01*
X3112920Y-13054198D02*
X3122443Y-13044674D01*
X3122443Y-13044674D02*
X3141491Y-13035150D01*
X3141491Y-13035150D02*
X3170063Y-13035150D01*
X3170063Y-13035150D02*
X3189110Y-13044674D01*
X3189110Y-13044674D02*
X3198634Y-13063722D01*
X3198634Y-13063722D02*
X3198634Y-13168484D01*
X3198634Y-13063722D02*
X3208158Y-13044674D01*
X3208158Y-13044674D02*
X3227205Y-13035150D01*
X3227205Y-13035150D02*
X3255777Y-13035150D01*
X3255777Y-13035150D02*
X3274824Y-13044674D01*
X3274824Y-13044674D02*
X3284348Y-13063722D01*
X3284348Y-13063722D02*
X3284348Y-13168484D01*
X3379586Y-13168484D02*
X3379586Y-13035150D01*
X3379586Y-13054198D02*
X3389110Y-13044674D01*
X3389110Y-13044674D02*
X3408158Y-13035150D01*
X3408158Y-13035150D02*
X3436729Y-13035150D01*
X3436729Y-13035150D02*
X3455777Y-13044674D01*
X3455777Y-13044674D02*
X3465301Y-13063722D01*
X3465301Y-13063722D02*
X3465301Y-13168484D01*
X3465301Y-13063722D02*
X3474824Y-13044674D01*
X3474824Y-13044674D02*
X3493872Y-13035150D01*
X3493872Y-13035150D02*
X3522443Y-13035150D01*
X3522443Y-13035150D02*
X3541491Y-13044674D01*
X3541491Y-13044674D02*
X3551015Y-13063722D01*
X3551015Y-13063722D02*
X3551015Y-13168484D01*
X3941491Y-12958960D02*
X3770063Y-13216103D01*
X4198634Y-12968484D02*
X4217682Y-12968484D01*
X4217682Y-12968484D02*
X4236729Y-12978008D01*
X4236729Y-12978008D02*
X4246253Y-12987531D01*
X4246253Y-12987531D02*
X4255777Y-13006579D01*
X4255777Y-13006579D02*
X4265301Y-13044674D01*
X4265301Y-13044674D02*
X4265301Y-13092293D01*
X4265301Y-13092293D02*
X4255777Y-13130388D01*
X4255777Y-13130388D02*
X4246253Y-13149436D01*
X4246253Y-13149436D02*
X4236729Y-13158960D01*
X4236729Y-13158960D02*
X4217682Y-13168484D01*
X4217682Y-13168484D02*
X4198634Y-13168484D01*
X4198634Y-13168484D02*
X4179586Y-13158960D01*
X4179586Y-13158960D02*
X4170063Y-13149436D01*
X4170063Y-13149436D02*
X4160539Y-13130388D01*
X4160539Y-13130388D02*
X4151015Y-13092293D01*
X4151015Y-13092293D02*
X4151015Y-13044674D01*
X4151015Y-13044674D02*
X4160539Y-13006579D01*
X4160539Y-13006579D02*
X4170063Y-12987531D01*
X4170063Y-12987531D02*
X4179586Y-12978008D01*
X4179586Y-12978008D02*
X4198634Y-12968484D01*
X4351015Y-13149436D02*
X4360539Y-13158960D01*
X4360539Y-13158960D02*
X4351015Y-13168484D01*
X4351015Y-13168484D02*
X4341491Y-13158960D01*
X4341491Y-13158960D02*
X4351015Y-13149436D01*
X4351015Y-13149436D02*
X4351015Y-13168484D01*
X4484348Y-12968484D02*
X4503396Y-12968484D01*
X4503396Y-12968484D02*
X4522444Y-12978008D01*
X4522444Y-12978008D02*
X4531968Y-12987531D01*
X4531968Y-12987531D02*
X4541491Y-13006579D01*
X4541491Y-13006579D02*
X4551015Y-13044674D01*
X4551015Y-13044674D02*
X4551015Y-13092293D01*
X4551015Y-13092293D02*
X4541491Y-13130388D01*
X4541491Y-13130388D02*
X4531968Y-13149436D01*
X4531968Y-13149436D02*
X4522444Y-13158960D01*
X4522444Y-13158960D02*
X4503396Y-13168484D01*
X4503396Y-13168484D02*
X4484348Y-13168484D01*
X4484348Y-13168484D02*
X4465301Y-13158960D01*
X4465301Y-13158960D02*
X4455777Y-13149436D01*
X4455777Y-13149436D02*
X4446253Y-13130388D01*
X4446253Y-13130388D02*
X4436729Y-13092293D01*
X4436729Y-13092293D02*
X4436729Y-13044674D01*
X4436729Y-13044674D02*
X4446253Y-13006579D01*
X4446253Y-13006579D02*
X4455777Y-12987531D01*
X4455777Y-12987531D02*
X4465301Y-12978008D01*
X4465301Y-12978008D02*
X4484348Y-12968484D01*
X4627206Y-12987531D02*
X4636729Y-12978008D01*
X4636729Y-12978008D02*
X4655777Y-12968484D01*
X4655777Y-12968484D02*
X4703396Y-12968484D01*
X4703396Y-12968484D02*
X4722444Y-12978008D01*
X4722444Y-12978008D02*
X4731968Y-12987531D01*
X4731968Y-12987531D02*
X4741491Y-13006579D01*
X4741491Y-13006579D02*
X4741491Y-13025627D01*
X4741491Y-13025627D02*
X4731968Y-13054198D01*
X4731968Y-13054198D02*
X4617682Y-13168484D01*
X4617682Y-13168484D02*
X4741491Y-13168484D01*
X4922444Y-12968484D02*
X4827206Y-12968484D01*
X4827206Y-12968484D02*
X4817682Y-13063722D01*
X4817682Y-13063722D02*
X4827206Y-13054198D01*
X4827206Y-13054198D02*
X4846253Y-13044674D01*
X4846253Y-13044674D02*
X4893872Y-13044674D01*
X4893872Y-13044674D02*
X4912920Y-13054198D01*
X4912920Y-13054198D02*
X4922444Y-13063722D01*
X4922444Y-13063722D02*
X4931968Y-13082769D01*
X4931968Y-13082769D02*
X4931968Y-13130388D01*
X4931968Y-13130388D02*
X4922444Y-13149436D01*
X4922444Y-13149436D02*
X4912920Y-13158960D01*
X4912920Y-13158960D02*
X4893872Y-13168484D01*
X4893872Y-13168484D02*
X4846253Y-13168484D01*
X4846253Y-13168484D02*
X4827206Y-13158960D01*
X4827206Y-13158960D02*
X4817682Y-13149436D01*
X5103396Y-12968484D02*
X5065301Y-12968484D01*
X5065301Y-12968484D02*
X5046253Y-12978008D01*
X5046253Y-12978008D02*
X5036729Y-12987531D01*
X5036729Y-12987531D02*
X5017682Y-13016103D01*
X5017682Y-13016103D02*
X5008158Y-13054198D01*
X5008158Y-13054198D02*
X5008158Y-13130388D01*
X5008158Y-13130388D02*
X5017682Y-13149436D01*
X5017682Y-13149436D02*
X5027206Y-13158960D01*
X5027206Y-13158960D02*
X5046253Y-13168484D01*
X5046253Y-13168484D02*
X5084349Y-13168484D01*
X5084349Y-13168484D02*
X5103396Y-13158960D01*
X5103396Y-13158960D02*
X5112920Y-13149436D01*
X5112920Y-13149436D02*
X5122444Y-13130388D01*
X5122444Y-13130388D02*
X5122444Y-13082769D01*
X5122444Y-13082769D02*
X5112920Y-13063722D01*
X5112920Y-13063722D02*
X5103396Y-13054198D01*
X5103396Y-13054198D02*
X5084349Y-13044674D01*
X5084349Y-13044674D02*
X5046253Y-13044674D01*
X5046253Y-13044674D02*
X5027206Y-13054198D01*
X5027206Y-13054198D02*
X5017682Y-13063722D01*
X5017682Y-13063722D02*
X5008158Y-13082769D01*
X5198634Y-12968484D02*
X5198634Y-13006579D01*
X5274825Y-12968484D02*
X5274825Y-13006579D01*
X5570063Y-13244674D02*
X5560539Y-13235150D01*
X5560539Y-13235150D02*
X5541491Y-13206579D01*
X5541491Y-13206579D02*
X5531968Y-13187531D01*
X5531968Y-13187531D02*
X5522444Y-13158960D01*
X5522444Y-13158960D02*
X5512920Y-13111341D01*
X5512920Y-13111341D02*
X5512920Y-13073246D01*
X5512920Y-13073246D02*
X5522444Y-13025627D01*
X5522444Y-13025627D02*
X5531968Y-12997055D01*
X5531968Y-12997055D02*
X5541491Y-12978008D01*
X5541491Y-12978008D02*
X5560539Y-12949436D01*
X5560539Y-12949436D02*
X5570063Y-12939912D01*
X5636729Y-12987531D02*
X5646253Y-12978008D01*
X5646253Y-12978008D02*
X5665301Y-12968484D01*
X5665301Y-12968484D02*
X5712920Y-12968484D01*
X5712920Y-12968484D02*
X5731968Y-12978008D01*
X5731968Y-12978008D02*
X5741491Y-12987531D01*
X5741491Y-12987531D02*
X5751015Y-13006579D01*
X5751015Y-13006579D02*
X5751015Y-13025627D01*
X5751015Y-13025627D02*
X5741491Y-13054198D01*
X5741491Y-13054198D02*
X5627206Y-13168484D01*
X5627206Y-13168484D02*
X5751015Y-13168484D01*
X5989110Y-13168484D02*
X5989110Y-12968484D01*
X6074825Y-13168484D02*
X6074825Y-13063722D01*
X6074825Y-13063722D02*
X6065301Y-13044674D01*
X6065301Y-13044674D02*
X6046253Y-13035150D01*
X6046253Y-13035150D02*
X6017682Y-13035150D01*
X6017682Y-13035150D02*
X5998634Y-13044674D01*
X5998634Y-13044674D02*
X5989110Y-13054198D01*
X6198634Y-13168484D02*
X6179587Y-13158960D01*
X6179587Y-13158960D02*
X6170063Y-13149436D01*
X6170063Y-13149436D02*
X6160539Y-13130388D01*
X6160539Y-13130388D02*
X6160539Y-13073246D01*
X6160539Y-13073246D02*
X6170063Y-13054198D01*
X6170063Y-13054198D02*
X6179587Y-13044674D01*
X6179587Y-13044674D02*
X6198634Y-13035150D01*
X6198634Y-13035150D02*
X6227206Y-13035150D01*
X6227206Y-13035150D02*
X6246253Y-13044674D01*
X6246253Y-13044674D02*
X6255777Y-13054198D01*
X6255777Y-13054198D02*
X6265301Y-13073246D01*
X6265301Y-13073246D02*
X6265301Y-13130388D01*
X6265301Y-13130388D02*
X6255777Y-13149436D01*
X6255777Y-13149436D02*
X6246253Y-13158960D01*
X6246253Y-13158960D02*
X6227206Y-13168484D01*
X6227206Y-13168484D02*
X6198634Y-13168484D01*
X6379587Y-13168484D02*
X6360539Y-13158960D01*
X6360539Y-13158960D02*
X6351015Y-13139912D01*
X6351015Y-13139912D02*
X6351015Y-12968484D01*
X6531968Y-13158960D02*
X6512920Y-13168484D01*
X6512920Y-13168484D02*
X6474825Y-13168484D01*
X6474825Y-13168484D02*
X6455777Y-13158960D01*
X6455777Y-13158960D02*
X6446253Y-13139912D01*
X6446253Y-13139912D02*
X6446253Y-13063722D01*
X6446253Y-13063722D02*
X6455777Y-13044674D01*
X6455777Y-13044674D02*
X6474825Y-13035150D01*
X6474825Y-13035150D02*
X6512920Y-13035150D01*
X6512920Y-13035150D02*
X6531968Y-13044674D01*
X6531968Y-13044674D02*
X6541491Y-13063722D01*
X6541491Y-13063722D02*
X6541491Y-13082769D01*
X6541491Y-13082769D02*
X6446253Y-13101817D01*
X6617682Y-13158960D02*
X6636730Y-13168484D01*
X6636730Y-13168484D02*
X6674825Y-13168484D01*
X6674825Y-13168484D02*
X6693872Y-13158960D01*
X6693872Y-13158960D02*
X6703396Y-13139912D01*
X6703396Y-13139912D02*
X6703396Y-13130388D01*
X6703396Y-13130388D02*
X6693872Y-13111341D01*
X6693872Y-13111341D02*
X6674825Y-13101817D01*
X6674825Y-13101817D02*
X6646253Y-13101817D01*
X6646253Y-13101817D02*
X6627206Y-13092293D01*
X6627206Y-13092293D02*
X6617682Y-13073246D01*
X6617682Y-13073246D02*
X6617682Y-13063722D01*
X6617682Y-13063722D02*
X6627206Y-13044674D01*
X6627206Y-13044674D02*
X6646253Y-13035150D01*
X6646253Y-13035150D02*
X6674825Y-13035150D01*
X6674825Y-13035150D02*
X6693872Y-13044674D01*
X6770063Y-13244674D02*
X6779587Y-13235150D01*
X6779587Y-13235150D02*
X6798634Y-13206579D01*
X6798634Y-13206579D02*
X6808158Y-13187531D01*
X6808158Y-13187531D02*
X6817682Y-13158960D01*
X6817682Y-13158960D02*
X6827206Y-13111341D01*
X6827206Y-13111341D02*
X6827206Y-13073246D01*
X6827206Y-13073246D02*
X6817682Y-13025627D01*
X6817682Y-13025627D02*
X6808158Y-12997055D01*
X6808158Y-12997055D02*
X6798634Y-12978008D01*
X6798634Y-12978008D02*
X6779587Y-12949436D01*
X6779587Y-12949436D02*
X6770063Y-12939912D01*
X7131968Y-13244674D02*
X7122444Y-13235150D01*
X7122444Y-13235150D02*
X7103396Y-13206579D01*
X7103396Y-13206579D02*
X7093872Y-13187531D01*
X7093872Y-13187531D02*
X7084349Y-13158960D01*
X7084349Y-13158960D02*
X7074825Y-13111341D01*
X7074825Y-13111341D02*
X7074825Y-13073246D01*
X7074825Y-13073246D02*
X7084349Y-13025627D01*
X7084349Y-13025627D02*
X7093872Y-12997055D01*
X7093872Y-12997055D02*
X7103396Y-12978008D01*
X7103396Y-12978008D02*
X7122444Y-12949436D01*
X7122444Y-12949436D02*
X7131968Y-12939912D01*
X7208158Y-13035150D02*
X7208158Y-13168484D01*
X7208158Y-13054198D02*
X7217682Y-13044674D01*
X7217682Y-13044674D02*
X7236730Y-13035150D01*
X7236730Y-13035150D02*
X7265301Y-13035150D01*
X7265301Y-13035150D02*
X7284349Y-13044674D01*
X7284349Y-13044674D02*
X7293872Y-13063722D01*
X7293872Y-13063722D02*
X7293872Y-13168484D01*
X7417682Y-13168484D02*
X7398634Y-13158960D01*
X7398634Y-13158960D02*
X7389111Y-13149436D01*
X7389111Y-13149436D02*
X7379587Y-13130388D01*
X7379587Y-13130388D02*
X7379587Y-13073246D01*
X7379587Y-13073246D02*
X7389111Y-13054198D01*
X7389111Y-13054198D02*
X7398634Y-13044674D01*
X7398634Y-13044674D02*
X7417682Y-13035150D01*
X7417682Y-13035150D02*
X7446253Y-13035150D01*
X7446253Y-13035150D02*
X7465301Y-13044674D01*
X7465301Y-13044674D02*
X7474825Y-13054198D01*
X7474825Y-13054198D02*
X7484349Y-13073246D01*
X7484349Y-13073246D02*
X7484349Y-13130388D01*
X7484349Y-13130388D02*
X7474825Y-13149436D01*
X7474825Y-13149436D02*
X7465301Y-13158960D01*
X7465301Y-13158960D02*
X7446253Y-13168484D01*
X7446253Y-13168484D02*
X7417682Y-13168484D01*
X7541492Y-13035150D02*
X7617682Y-13035150D01*
X7570063Y-12968484D02*
X7570063Y-13139912D01*
X7570063Y-13139912D02*
X7579587Y-13158960D01*
X7579587Y-13158960D02*
X7598634Y-13168484D01*
X7598634Y-13168484D02*
X7617682Y-13168484D01*
X7836730Y-13035150D02*
X7836730Y-13235150D01*
X7836730Y-13044674D02*
X7855777Y-13035150D01*
X7855777Y-13035150D02*
X7893873Y-13035150D01*
X7893873Y-13035150D02*
X7912920Y-13044674D01*
X7912920Y-13044674D02*
X7922444Y-13054198D01*
X7922444Y-13054198D02*
X7931968Y-13073246D01*
X7931968Y-13073246D02*
X7931968Y-13130388D01*
X7931968Y-13130388D02*
X7922444Y-13149436D01*
X7922444Y-13149436D02*
X7912920Y-13158960D01*
X7912920Y-13158960D02*
X7893873Y-13168484D01*
X7893873Y-13168484D02*
X7855777Y-13168484D01*
X7855777Y-13168484D02*
X7836730Y-13158960D01*
X8046253Y-13168484D02*
X8027206Y-13158960D01*
X8027206Y-13158960D02*
X8017682Y-13139912D01*
X8017682Y-13139912D02*
X8017682Y-12968484D01*
X8208158Y-13168484D02*
X8208158Y-13063722D01*
X8208158Y-13063722D02*
X8198634Y-13044674D01*
X8198634Y-13044674D02*
X8179587Y-13035150D01*
X8179587Y-13035150D02*
X8141492Y-13035150D01*
X8141492Y-13035150D02*
X8122444Y-13044674D01*
X8208158Y-13158960D02*
X8189111Y-13168484D01*
X8189111Y-13168484D02*
X8141492Y-13168484D01*
X8141492Y-13168484D02*
X8122444Y-13158960D01*
X8122444Y-13158960D02*
X8112920Y-13139912D01*
X8112920Y-13139912D02*
X8112920Y-13120865D01*
X8112920Y-13120865D02*
X8122444Y-13101817D01*
X8122444Y-13101817D02*
X8141492Y-13092293D01*
X8141492Y-13092293D02*
X8189111Y-13092293D01*
X8189111Y-13092293D02*
X8208158Y-13082769D01*
X8274825Y-13035150D02*
X8351015Y-13035150D01*
X8303396Y-12968484D02*
X8303396Y-13139912D01*
X8303396Y-13139912D02*
X8312920Y-13158960D01*
X8312920Y-13158960D02*
X8331968Y-13168484D01*
X8331968Y-13168484D02*
X8351015Y-13168484D01*
X8493873Y-13158960D02*
X8474825Y-13168484D01*
X8474825Y-13168484D02*
X8436730Y-13168484D01*
X8436730Y-13168484D02*
X8417682Y-13158960D01*
X8417682Y-13158960D02*
X8408158Y-13139912D01*
X8408158Y-13139912D02*
X8408158Y-13063722D01*
X8408158Y-13063722D02*
X8417682Y-13044674D01*
X8417682Y-13044674D02*
X8436730Y-13035150D01*
X8436730Y-13035150D02*
X8474825Y-13035150D01*
X8474825Y-13035150D02*
X8493873Y-13044674D01*
X8493873Y-13044674D02*
X8503396Y-13063722D01*
X8503396Y-13063722D02*
X8503396Y-13082769D01*
X8503396Y-13082769D02*
X8408158Y-13101817D01*
X8674825Y-13168484D02*
X8674825Y-12968484D01*
X8674825Y-13158960D02*
X8655777Y-13168484D01*
X8655777Y-13168484D02*
X8617682Y-13168484D01*
X8617682Y-13168484D02*
X8598635Y-13158960D01*
X8598635Y-13158960D02*
X8589111Y-13149436D01*
X8589111Y-13149436D02*
X8579587Y-13130388D01*
X8579587Y-13130388D02*
X8579587Y-13073246D01*
X8579587Y-13073246D02*
X8589111Y-13054198D01*
X8589111Y-13054198D02*
X8598635Y-13044674D01*
X8598635Y-13044674D02*
X8617682Y-13035150D01*
X8617682Y-13035150D02*
X8655777Y-13035150D01*
X8655777Y-13035150D02*
X8674825Y-13044674D01*
X8751016Y-13244674D02*
X8760539Y-13235150D01*
X8760539Y-13235150D02*
X8779587Y-13206579D01*
X8779587Y-13206579D02*
X8789111Y-13187531D01*
X8789111Y-13187531D02*
X8798635Y-13158960D01*
X8798635Y-13158960D02*
X8808158Y-13111341D01*
X8808158Y-13111341D02*
X8808158Y-13073246D01*
X8808158Y-13073246D02*
X8798635Y-13025627D01*
X8798635Y-13025627D02*
X8789111Y-12997055D01*
X8789111Y-12997055D02*
X8779587Y-12978008D01*
X8779587Y-12978008D02*
X8760539Y-12949436D01*
X8760539Y-12949436D02*
X8751016Y-12939912D01*
M02*
