%TF.GenerationSoftware,KiCad,Pcbnew,10.0.5*%
%TF.CreationDate,2026-08-14T19:08:56-07:00*%
%TF.ProjectId,bisque-controller,62697371-7565-42d6-936f-6e74726f6c6c,B*%
%TF.SameCoordinates,Original*%
%TF.FileFunction,Soldermask,Top*%
%TF.FilePolarity,Negative*%
%FSLAX46Y46*%
G04 Gerber Fmt 4.6, Leading zero omitted, Abs format (unit mm)*
G04 Created by KiCad (PCBNEW 10.0.5) date 2026-08-14 19:08:56*
%MOMM*%
%LPD*%
G01*
G04 APERTURE LIST*
G04 Aperture macros list*
%AMRoundRect*
0 Rectangle with rounded corners*
0 $1 Rounding radius*
0 $2 $3 $4 $5 $6 $7 $8 $9 X,Y pos of 4 corners*
0 Add a 4 corners polygon primitive as box body*
4,1,4,$2,$3,$4,$5,$6,$7,$8,$9,$2,$3,0*
0 Add four circle primitives for the rounded corners*
1,1,$1+$1,$2,$3*
1,1,$1+$1,$4,$5*
1,1,$1+$1,$6,$7*
1,1,$1+$1,$8,$9*
0 Add four rect primitives between the rounded corners*
20,1,$1+$1,$2,$3,$4,$5,0*
20,1,$1+$1,$4,$5,$6,$7,0*
20,1,$1+$1,$6,$7,$8,$9,0*
20,1,$1+$1,$8,$9,$2,$3,0*%
%AMFreePoly0*
4,1,23,0.500000,-0.750000,0.000000,-0.750000,0.000000,-0.745722,-0.065263,-0.745722,-0.191342,-0.711940,-0.304381,-0.646677,-0.396677,-0.554381,-0.461940,-0.441342,-0.495722,-0.315263,-0.495722,-0.250000,-0.500000,-0.250000,-0.500000,0.250000,-0.495722,0.250000,-0.495722,0.315263,-0.461940,0.441342,-0.396677,0.554381,-0.304381,0.646677,-0.191342,0.711940,-0.065263,0.745722,0.000000,0.745722,
0.000000,0.750000,0.500000,0.750000,0.500000,-0.750000,0.500000,-0.750000,$1*%
%AMFreePoly1*
4,1,23,0.000000,0.745722,0.065263,0.745722,0.191342,0.711940,0.304381,0.646677,0.396677,0.554381,0.461940,0.441342,0.495722,0.315263,0.495722,0.250000,0.500000,0.250000,0.500000,-0.250000,0.495722,-0.250000,0.495722,-0.315263,0.461940,-0.441342,0.396677,-0.554381,0.304381,-0.646677,0.191342,-0.711940,0.065263,-0.745722,0.000000,-0.745722,0.000000,-0.750000,-0.500000,-0.750000,
-0.500000,0.750000,0.000000,0.750000,0.000000,0.745722,0.000000,0.745722,$1*%
G04 Aperture macros list end*
%ADD10R,2.000000X2.000000*%
%ADD11C,2.000000*%
%ADD12RoundRect,0.250000X-0.250000X-0.475000X0.250000X-0.475000X0.250000X0.475000X-0.250000X0.475000X0*%
%ADD13RoundRect,0.250000X0.475000X-0.250000X0.475000X0.250000X-0.475000X0.250000X-0.475000X-0.250000X0*%
%ADD14RoundRect,0.250000X-0.325000X-0.650000X0.325000X-0.650000X0.325000X0.650000X-0.325000X0.650000X0*%
%ADD15RoundRect,0.250000X-3.687500X-0.750000X3.687500X-0.750000X3.687500X0.750000X-3.687500X0.750000X0*%
%ADD16RoundRect,0.250000X-1.000000X-0.650000X1.000000X-0.650000X1.000000X0.650000X-1.000000X0.650000X0*%
%ADD17RoundRect,0.225000X-0.225000X-0.375000X0.225000X-0.375000X0.225000X0.375000X-0.225000X0.375000X0*%
%ADD18R,1.500000X0.900000*%
%ADD19R,0.900000X1.500000*%
%ADD20C,0.600000*%
%ADD21R,3.900000X3.900000*%
%ADD22RoundRect,0.150000X-0.150000X-0.625000X0.150000X-0.625000X0.150000X0.625000X-0.150000X0.625000X0*%
%ADD23RoundRect,0.250000X-0.350000X-0.650000X0.350000X-0.650000X0.350000X0.650000X-0.350000X0.650000X0*%
%ADD24RoundRect,0.243750X-0.243750X-0.456250X0.243750X-0.456250X0.243750X0.456250X-0.243750X0.456250X0*%
%ADD25RoundRect,0.090000X-0.660000X-0.360000X0.660000X-0.360000X0.660000X0.360000X-0.660000X0.360000X0*%
%ADD26RoundRect,0.250000X-0.620000X-0.845000X0.620000X-0.845000X0.620000X0.845000X-0.620000X0.845000X0*%
%ADD27O,1.740000X2.190000*%
%ADD28C,0.800000*%
%ADD29C,6.400000*%
%ADD30R,1.700000X1.700000*%
%ADD31C,1.700000*%
%ADD32RoundRect,0.062500X-0.412500X-0.062500X0.412500X-0.062500X0.412500X0.062500X-0.412500X0.062500X0*%
%ADD33RoundRect,0.062500X-0.062500X-0.412500X0.062500X-0.412500X0.062500X0.412500X-0.062500X0.412500X0*%
%ADD34R,3.100000X3.100000*%
%ADD35RoundRect,0.250000X-0.262500X-0.450000X0.262500X-0.450000X0.262500X0.450000X-0.262500X0.450000X0*%
%ADD36RoundRect,0.250000X0.262500X0.450000X-0.262500X0.450000X-0.262500X-0.450000X0.262500X-0.450000X0*%
%ADD37RoundRect,0.150000X0.825000X0.150000X-0.825000X0.150000X-0.825000X-0.150000X0.825000X-0.150000X0*%
%ADD38RoundRect,0.375000X-0.625000X-0.375000X0.625000X-0.375000X0.625000X0.375000X-0.625000X0.375000X0*%
%ADD39RoundRect,0.500000X-0.500000X-1.400000X0.500000X-1.400000X0.500000X1.400000X-0.500000X1.400000X0*%
%ADD40RoundRect,0.150000X-0.587500X-0.150000X0.587500X-0.150000X0.587500X0.150000X-0.587500X0.150000X0*%
%ADD41RoundRect,0.150000X-0.512500X-0.150000X0.512500X-0.150000X0.512500X0.150000X-0.512500X0.150000X0*%
%ADD42R,1.000000X0.750000*%
%ADD43FreePoly0,0.000000*%
%ADD44FreePoly1,0.000000*%
%ADD45RoundRect,0.100000X-0.100000X0.637500X-0.100000X-0.637500X0.100000X-0.637500X0.100000X0.637500X0*%
%ADD46RoundRect,0.100000X0.100000X-0.637500X0.100000X0.637500X-0.100000X0.637500X-0.100000X-0.637500X0*%
%ADD47RoundRect,0.250000X1.050000X-1.050000X1.050000X1.050000X-1.050000X1.050000X-1.050000X-1.050000X0*%
%ADD48C,2.600000*%
%ADD49RoundRect,0.250000X-1.050000X1.050000X-1.050000X-1.050000X1.050000X-1.050000X1.050000X1.050000X0*%
%ADD50RoundRect,0.250000X-1.050000X-1.050000X1.050000X-1.050000X1.050000X1.050000X-1.050000X1.050000X0*%
%ADD51C,1.000000*%
%ADD52C,0.650000*%
%ADD53RoundRect,0.150000X0.150000X0.575000X-0.150000X0.575000X-0.150000X-0.575000X0.150000X-0.575000X0*%
%ADD54RoundRect,0.075000X0.075000X0.650000X-0.075000X0.650000X-0.075000X-0.650000X0.075000X-0.650000X0*%
%ADD55O,1.000000X2.100000*%
%ADD56O,1.000000X1.600000*%
G04 APERTURE END LIST*
%TO.C,SJ1*%
G36*
X45850000Y-48750000D02*
G01*
X46150000Y-48750000D01*
X46150000Y-50250000D01*
X45850000Y-50250000D01*
X45850000Y-48750000D01*
G37*
%TO.C,SJ2*%
G36*
X56850000Y-56750000D02*
G01*
X57150000Y-56750000D01*
X57150000Y-58250000D01*
X56850000Y-58250000D01*
X56850000Y-56750000D01*
G37*
%TD*%
D10*
%TO.C,BZ1*%
X41000000Y-68950000D03*
D11*
X48600000Y-68950000D03*
%TD*%
D12*
%TO.C,C25*%
X101050000Y-65500000D03*
X102950000Y-65500000D03*
%TD*%
%TO.C,C15*%
X101250000Y-38000000D03*
X103150000Y-38000000D03*
%TD*%
%TO.C,C20*%
X101250000Y-51000000D03*
X103150000Y-51000000D03*
%TD*%
%TO.C,C32*%
X101550000Y-87100000D03*
X103450000Y-87100000D03*
%TD*%
%TO.C,C17*%
X102050000Y-42000000D03*
X103950000Y-42000000D03*
%TD*%
%TO.C,C22*%
X102050000Y-55000000D03*
X103950000Y-55000000D03*
%TD*%
%TO.C,C31*%
X102550000Y-79000000D03*
X104450000Y-79000000D03*
%TD*%
%TO.C,C27*%
X103850000Y-69600000D03*
X105750000Y-69600000D03*
%TD*%
%TO.C,C28*%
X103850000Y-72500000D03*
X105750000Y-72500000D03*
%TD*%
%TO.C,C35*%
X103850000Y-75400000D03*
X105750000Y-75400000D03*
%TD*%
%TO.C,C10*%
X104450000Y-96500000D03*
X106350000Y-96500000D03*
%TD*%
%TO.C,C16*%
X104950000Y-38000000D03*
X106850000Y-38000000D03*
%TD*%
%TO.C,C21*%
X104950000Y-51000000D03*
X106850000Y-51000000D03*
%TD*%
%TO.C,C26*%
X104950000Y-65500000D03*
X106850000Y-65500000D03*
%TD*%
%TO.C,C23*%
X34050000Y-115000000D03*
X35950000Y-115000000D03*
%TD*%
%TO.C,C2*%
X41450000Y-45600000D03*
X43350000Y-45600000D03*
%TD*%
%TO.C,C11*%
X41750000Y-96750000D03*
X43650000Y-96750000D03*
%TD*%
%TO.C,C12*%
X44050000Y-111000000D03*
X45950000Y-111000000D03*
%TD*%
%TO.C,C24*%
X49050000Y-115000000D03*
X50950000Y-115000000D03*
%TD*%
%TO.C,C5*%
X51050000Y-42300000D03*
X52950000Y-42300000D03*
%TD*%
%TO.C,C38*%
X51050000Y-49500000D03*
X52950000Y-49500000D03*
%TD*%
%TO.C,C39*%
X51050000Y-53500000D03*
X52950000Y-53500000D03*
%TD*%
%TO.C,C4*%
X52850000Y-39900000D03*
X54750000Y-39900000D03*
%TD*%
D13*
%TO.C,C7*%
X58650000Y-24750000D03*
X58650000Y-22850000D03*
%TD*%
%TO.C,C6*%
X58650000Y-28950000D03*
X58650000Y-27050000D03*
%TD*%
D12*
%TO.C,C29*%
X87250000Y-70000000D03*
X89150000Y-70000000D03*
%TD*%
%TO.C,C30*%
X87250000Y-73500000D03*
X89150000Y-73500000D03*
%TD*%
%TO.C,C33*%
X88050000Y-79000000D03*
X89950000Y-79000000D03*
%TD*%
%TO.C,C13*%
X89050000Y-35000000D03*
X90950000Y-35000000D03*
%TD*%
%TO.C,C14*%
X89050000Y-40500000D03*
X90950000Y-40500000D03*
%TD*%
%TO.C,C18*%
X89050000Y-47500000D03*
X90950000Y-47500000D03*
%TD*%
%TO.C,C19*%
X89050000Y-53000000D03*
X90950000Y-53000000D03*
%TD*%
%TO.C,C34*%
X92050000Y-79000000D03*
X93950000Y-79000000D03*
%TD*%
%TO.C,C36*%
X97150000Y-65500000D03*
X99050000Y-65500000D03*
%TD*%
%TO.C,C37*%
X97200000Y-60000000D03*
X99100000Y-60000000D03*
%TD*%
D14*
%TO.C,C1*%
X42525000Y-39500000D03*
X45475000Y-39500000D03*
%TD*%
%TO.C,C3*%
X47725000Y-39500000D03*
X50675000Y-39500000D03*
%TD*%
D15*
%TO.C,Y1*%
X90562500Y-91450000D03*
X102437500Y-91450000D03*
%TD*%
D16*
%TO.C,D1*%
X34600000Y-45600000D03*
X38600000Y-45600000D03*
%TD*%
%TO.C,D2*%
X54250000Y-36750000D03*
X58250000Y-36750000D03*
%TD*%
%TO.C,D3*%
X97700000Y-96850000D03*
X101700000Y-96850000D03*
%TD*%
D17*
%TO.C,D4*%
X63350000Y-66000000D03*
X66650000Y-66000000D03*
%TD*%
D18*
%TO.C,U1*%
X61250000Y-25590000D03*
X61250000Y-26860000D03*
X61250000Y-28130000D03*
X61250000Y-29400000D03*
X61250000Y-30670000D03*
X61250000Y-31940000D03*
X61250000Y-33210000D03*
X61250000Y-34480000D03*
X61250000Y-35750000D03*
X61250000Y-37020000D03*
X61250000Y-38290000D03*
X61250000Y-39560000D03*
X61250000Y-40830000D03*
X61250000Y-42100000D03*
D19*
X63015000Y-43350000D03*
X64285000Y-43350000D03*
X65555000Y-43350000D03*
X66825000Y-43350000D03*
X68095000Y-43350000D03*
X69365000Y-43350000D03*
X70635000Y-43350000D03*
X71905000Y-43350000D03*
X73175000Y-43350000D03*
X74445000Y-43350000D03*
X75715000Y-43350000D03*
X76985000Y-43350000D03*
D18*
X78750000Y-42100000D03*
X78750000Y-40830000D03*
X78750000Y-39560000D03*
X78750000Y-38290000D03*
X78750000Y-37020000D03*
X78750000Y-35750000D03*
X78750000Y-34480000D03*
X78750000Y-33210000D03*
X78750000Y-31940000D03*
X78750000Y-30670000D03*
X78750000Y-29400000D03*
X78750000Y-28130000D03*
X78750000Y-26860000D03*
X78750000Y-25590000D03*
D20*
X67100000Y-32610000D03*
X67100000Y-34010000D03*
X67800000Y-31910000D03*
X67800000Y-33310000D03*
X67800000Y-34710000D03*
X68500000Y-32610000D03*
D21*
X68500000Y-33310000D03*
D20*
X68500000Y-34010000D03*
X69200000Y-31910000D03*
X69200000Y-33310000D03*
X69200000Y-34710000D03*
X69900000Y-32610000D03*
X69900000Y-34010000D03*
%TD*%
D22*
%TO.C,J14*%
X86500000Y-113800000D03*
X87500000Y-113800000D03*
X88500000Y-113800000D03*
X89500000Y-113800000D03*
D23*
X85200000Y-117675000D03*
X90800000Y-117675000D03*
%TD*%
D24*
%TO.C,LED4*%
X53062500Y-87500000D03*
X54937500Y-87500000D03*
%TD*%
%TO.C,LED2*%
X54562500Y-22300000D03*
X56437500Y-22300000D03*
%TD*%
%TO.C,LED3*%
X56062500Y-76000000D03*
X57937500Y-76000000D03*
%TD*%
D25*
%TO.C,LED1*%
X89800000Y-95800000D03*
X89800000Y-99100000D03*
X94700000Y-99100000D03*
X94700000Y-95800000D03*
%TD*%
D26*
%TO.C,J6*%
X62000000Y-104000000D03*
D27*
X64540000Y-104000000D03*
X67080000Y-104000000D03*
X69620000Y-104000000D03*
X72160000Y-104000000D03*
X74700000Y-104000000D03*
%TD*%
D26*
%TO.C,J7*%
X80000000Y-104000000D03*
D27*
X82540000Y-104000000D03*
X85080000Y-104000000D03*
X87620000Y-104000000D03*
X90160000Y-104000000D03*
X92700000Y-104000000D03*
X95240000Y-104000000D03*
X97780000Y-104000000D03*
%TD*%
D26*
%TO.C,J5*%
X24000000Y-104000000D03*
D27*
X26540000Y-104000000D03*
X29080000Y-104000000D03*
X31620000Y-104000000D03*
X34160000Y-104000000D03*
X36700000Y-104000000D03*
X39240000Y-104000000D03*
X41780000Y-104000000D03*
X44320000Y-104000000D03*
X46860000Y-104000000D03*
X49400000Y-104000000D03*
X51940000Y-104000000D03*
X54480000Y-104000000D03*
X57020000Y-104000000D03*
%TD*%
D28*
%TO.C,H4*%
X112100000Y-115000000D03*
X112802944Y-113302944D03*
X112802944Y-116697056D03*
X114500000Y-112600000D03*
D29*
X114500000Y-115000000D03*
D28*
X114500000Y-117400000D03*
X116197056Y-113302944D03*
X116197056Y-116697056D03*
X116900000Y-115000000D03*
%TD*%
%TO.C,H2*%
X112100000Y-25000000D03*
X112802944Y-23302944D03*
X112802944Y-26697056D03*
X114500000Y-22600000D03*
D29*
X114500000Y-25000000D03*
D28*
X114500000Y-27400000D03*
X116197056Y-23302944D03*
X116197056Y-26697056D03*
X116900000Y-25000000D03*
%TD*%
%TO.C,H3*%
X23100000Y-115000000D03*
X23802944Y-113302944D03*
X23802944Y-116697056D03*
X25500000Y-112600000D03*
D29*
X25500000Y-115000000D03*
D28*
X25500000Y-117400000D03*
X27197056Y-113302944D03*
X27197056Y-116697056D03*
X27900000Y-115000000D03*
%TD*%
%TO.C,H1*%
X23100000Y-25000000D03*
X23802944Y-23302944D03*
X23802944Y-26697056D03*
X25500000Y-22600000D03*
D29*
X25500000Y-25000000D03*
D28*
X25500000Y-27400000D03*
X27197056Y-23302944D03*
X27197056Y-26697056D03*
X27900000Y-25000000D03*
%TD*%
D30*
%TO.C,J13*%
X98500000Y-79300000D03*
D31*
X98500000Y-81840000D03*
%TD*%
D32*
%TO.C,U7*%
X92625000Y-70500000D03*
X92625000Y-71000000D03*
X92625000Y-71500000D03*
X92625000Y-72000000D03*
X92625000Y-72500000D03*
X92625000Y-73000000D03*
X92625000Y-73500000D03*
D33*
X93500000Y-74375000D03*
X94000000Y-74375000D03*
X94500000Y-74375000D03*
X95000000Y-74375000D03*
X95500000Y-74375000D03*
X96000000Y-74375000D03*
X96500000Y-74375000D03*
D32*
X97375000Y-73500000D03*
X97375000Y-73000000D03*
X97375000Y-72500000D03*
X97375000Y-72000000D03*
X97375000Y-71500000D03*
X97375000Y-71000000D03*
X97375000Y-70500000D03*
D33*
X96500000Y-69625000D03*
X96000000Y-69625000D03*
X95500000Y-69625000D03*
X95000000Y-69625000D03*
X94500000Y-69625000D03*
X94000000Y-69625000D03*
X93500000Y-69625000D03*
D34*
X95000000Y-72000000D03*
%TD*%
D35*
%TO.C,R37*%
X101137500Y-60000000D03*
X102962500Y-60000000D03*
%TD*%
D36*
%TO.C,R14*%
X103112500Y-34000000D03*
X101287500Y-34000000D03*
%TD*%
%TO.C,R16*%
X103112500Y-47500000D03*
X101287500Y-47500000D03*
%TD*%
%TO.C,R15*%
X106812500Y-34000000D03*
X104987500Y-34000000D03*
%TD*%
%TO.C,R17*%
X106812500Y-47500000D03*
X104987500Y-47500000D03*
%TD*%
D35*
%TO.C,R38*%
X104987500Y-60000000D03*
X106812500Y-60000000D03*
%TD*%
%TO.C,R2*%
X105087500Y-22500000D03*
X106912500Y-22500000D03*
%TD*%
D36*
%TO.C,R12*%
X35912500Y-111000000D03*
X34087500Y-111000000D03*
%TD*%
D35*
%TO.C,R13*%
X39087500Y-111000000D03*
X40912500Y-111000000D03*
%TD*%
D36*
%TO.C,R28*%
X40912500Y-115000000D03*
X39087500Y-115000000D03*
%TD*%
D35*
%TO.C,R5*%
X41087500Y-33600000D03*
X42912500Y-33600000D03*
%TD*%
%TO.C,R29*%
X44087500Y-115000000D03*
X45912500Y-115000000D03*
%TD*%
%TO.C,R47*%
X44587500Y-84000000D03*
X46412500Y-84000000D03*
%TD*%
%TO.C,R25*%
X45087500Y-54500000D03*
X46912500Y-54500000D03*
%TD*%
%TO.C,R24*%
X45087500Y-58000000D03*
X46912500Y-58000000D03*
%TD*%
%TO.C,R23*%
X45087500Y-61200000D03*
X46912500Y-61200000D03*
%TD*%
%TO.C,R39*%
X45687500Y-96600000D03*
X47512500Y-96600000D03*
%TD*%
D36*
%TO.C,R6*%
X49912500Y-80500000D03*
X48087500Y-80500000D03*
%TD*%
D35*
%TO.C,R21*%
X48087500Y-87500000D03*
X49912500Y-87500000D03*
%TD*%
D36*
%TO.C,R26*%
X50912500Y-111000000D03*
X49087500Y-111000000D03*
%TD*%
D35*
%TO.C,R40*%
X49537500Y-96500000D03*
X51362500Y-96500000D03*
%TD*%
%TO.C,R10*%
X51087500Y-76650000D03*
X52912500Y-76650000D03*
%TD*%
D36*
%TO.C,R19*%
X52912500Y-92500000D03*
X51087500Y-92500000D03*
%TD*%
D35*
%TO.C,R4*%
X52087500Y-33600000D03*
X53912500Y-33600000D03*
%TD*%
%TO.C,R7*%
X53087500Y-80500000D03*
X54912500Y-80500000D03*
%TD*%
%TO.C,R41*%
X53387500Y-96500000D03*
X55212500Y-96500000D03*
%TD*%
%TO.C,R27*%
X54087500Y-111000000D03*
X55912500Y-111000000D03*
%TD*%
%TO.C,R9*%
X54587500Y-25000000D03*
X56412500Y-25000000D03*
%TD*%
%TO.C,R1*%
X55087500Y-42300000D03*
X56912500Y-42300000D03*
%TD*%
%TO.C,R46*%
X56087500Y-53500000D03*
X57912500Y-53500000D03*
%TD*%
%TO.C,R20*%
X56087500Y-92500000D03*
X57912500Y-92500000D03*
%TD*%
%TO.C,R42*%
X57287500Y-96500000D03*
X59112500Y-96500000D03*
%TD*%
%TO.C,R43*%
X61137500Y-96500000D03*
X62962500Y-96500000D03*
%TD*%
%TO.C,R11*%
X64087500Y-74000000D03*
X65912500Y-74000000D03*
%TD*%
%TO.C,R8*%
X64087500Y-78000000D03*
X65912500Y-78000000D03*
%TD*%
%TO.C,R44*%
X72887500Y-96500000D03*
X74712500Y-96500000D03*
%TD*%
%TO.C,R45*%
X76787500Y-96500000D03*
X78612500Y-96500000D03*
%TD*%
%TO.C,R3*%
X85737500Y-96800000D03*
X87562500Y-96800000D03*
%TD*%
D36*
%TO.C,R32*%
X89912500Y-83500000D03*
X88087500Y-83500000D03*
%TD*%
%TO.C,R35*%
X89912500Y-87000000D03*
X88087500Y-87000000D03*
%TD*%
D35*
%TO.C,R31*%
X92587500Y-83500000D03*
X94412500Y-83500000D03*
%TD*%
%TO.C,R34*%
X92587500Y-87000000D03*
X94412500Y-87000000D03*
%TD*%
%TO.C,R30*%
X93387500Y-60000000D03*
X95212500Y-60000000D03*
%TD*%
%TO.C,R33*%
X97087500Y-84850000D03*
X98912500Y-84850000D03*
%TD*%
%TO.C,R36*%
X97087500Y-87150000D03*
X98912500Y-87150000D03*
%TD*%
D37*
%TO.C,U6*%
X41475000Y-59445000D03*
X41475000Y-58175000D03*
X41475000Y-56905000D03*
X41475000Y-55635000D03*
X41475000Y-54365000D03*
X41475000Y-53095000D03*
X41475000Y-51825000D03*
X41475000Y-50555000D03*
X36525000Y-50555000D03*
X36525000Y-51825000D03*
X36525000Y-53095000D03*
X36525000Y-54365000D03*
X36525000Y-55635000D03*
X36525000Y-56905000D03*
X36525000Y-58175000D03*
X36525000Y-59445000D03*
%TD*%
D38*
%TO.C,U2*%
X33450000Y-37200000D03*
X33450000Y-39500000D03*
D39*
X39750000Y-39500000D03*
D38*
X33450000Y-41800000D03*
%TD*%
D40*
%TO.C,Q5*%
X37562500Y-77050000D03*
X37562500Y-78950000D03*
X39437500Y-78000000D03*
%TD*%
%TO.C,Q6*%
X37562500Y-89050000D03*
X37562500Y-90950000D03*
X39437500Y-90000000D03*
%TD*%
%TO.C,Q4*%
X39862500Y-83050000D03*
X39862500Y-84950000D03*
X41737500Y-84000000D03*
%TD*%
%TO.C,Q3*%
X51062500Y-56550000D03*
X51062500Y-58450000D03*
X52937500Y-57500000D03*
%TD*%
%TO.C,D7*%
X56062500Y-48750000D03*
X56062500Y-50650000D03*
X57937500Y-49700000D03*
%TD*%
%TO.C,Q2*%
X64062500Y-69050000D03*
X64062500Y-70950000D03*
X65937500Y-70000000D03*
%TD*%
D41*
%TO.C,D6*%
X101862500Y-82550000D03*
X101862500Y-83500000D03*
X101862500Y-84450000D03*
X104137500Y-84450000D03*
X104137500Y-83500000D03*
X104137500Y-82550000D03*
%TD*%
%TO.C,U4*%
X46862500Y-33850000D03*
X46862500Y-34800000D03*
X46862500Y-35750000D03*
X49137500Y-35750000D03*
X49137500Y-34800000D03*
X49137500Y-33850000D03*
%TD*%
%TO.C,D5*%
X54862500Y-114050000D03*
X54862500Y-115000000D03*
X54862500Y-115950000D03*
X57137500Y-115950000D03*
X57137500Y-115000000D03*
X57137500Y-114050000D03*
%TD*%
D42*
%TO.C,SW2*%
X97000000Y-23125000D03*
X103000000Y-23125000D03*
X97000000Y-26875000D03*
X103000000Y-26875000D03*
%TD*%
%TO.C,SW1*%
X33500000Y-22325000D03*
X39500000Y-22325000D03*
X33500000Y-26075000D03*
X39500000Y-26075000D03*
%TD*%
D43*
%TO.C,SJ1*%
X45350000Y-49500000D03*
D44*
X46650000Y-49500000D03*
%TD*%
D43*
%TO.C,SJ2*%
X56350000Y-57500000D03*
D44*
X57650000Y-57500000D03*
%TD*%
D45*
%TO.C,U3*%
X98950000Y-34937500D03*
X98300000Y-34937500D03*
X97650000Y-34937500D03*
X97000000Y-34937500D03*
X96350000Y-34937500D03*
X95700000Y-34937500D03*
X95050000Y-34937500D03*
X95050000Y-40662500D03*
X95700000Y-40662500D03*
X96350000Y-40662500D03*
X97000000Y-40662500D03*
X97650000Y-40662500D03*
X98300000Y-40662500D03*
X98950000Y-40662500D03*
%TD*%
D46*
%TO.C,U5*%
X95050000Y-52662500D03*
X95700000Y-52662500D03*
X96350000Y-52662500D03*
X97000000Y-52662500D03*
X97650000Y-52662500D03*
X98300000Y-52662500D03*
X98950000Y-52662500D03*
X98950000Y-46937500D03*
X98300000Y-46937500D03*
X97650000Y-46937500D03*
X97000000Y-46937500D03*
X96350000Y-46937500D03*
X95700000Y-46937500D03*
X95050000Y-46937500D03*
%TD*%
D47*
%TO.C,J3*%
X114000000Y-41000000D03*
D48*
X114000000Y-35920000D03*
%TD*%
D47*
%TO.C,J8*%
X114000000Y-53000000D03*
D48*
X114000000Y-47920000D03*
%TD*%
D49*
%TO.C,J2*%
X26000000Y-39000000D03*
D48*
X26000000Y-44080000D03*
%TD*%
D49*
%TO.C,J4*%
X26000000Y-75500000D03*
D48*
X26000000Y-80580000D03*
%TD*%
D49*
%TO.C,J9*%
X26000000Y-88000000D03*
D48*
X26000000Y-93080000D03*
%TD*%
D47*
%TO.C,J12*%
X114000000Y-92000000D03*
D48*
X114000000Y-86920000D03*
X114000000Y-81840000D03*
X114000000Y-76760000D03*
%TD*%
D49*
%TO.C,J10*%
X26000000Y-52000000D03*
D48*
X26000000Y-57080000D03*
X26000000Y-62160000D03*
X26000000Y-67240000D03*
%TD*%
D50*
%TO.C,J11*%
X64000000Y-114000000D03*
D48*
X69080000Y-114000000D03*
X74160000Y-114000000D03*
X79240000Y-114000000D03*
%TD*%
D51*
%TO.C,TP11*%
X106500000Y-87100000D03*
%TD*%
%TO.C,TP1*%
X33200000Y-28600000D03*
%TD*%
%TO.C,TP2*%
X36500000Y-28600000D03*
%TD*%
%TO.C,TP3*%
X39800000Y-28600000D03*
%TD*%
%TO.C,TP10*%
X44500000Y-94150000D03*
%TD*%
%TO.C,TP12*%
X52000000Y-61200000D03*
%TD*%
%TO.C,TP9*%
X58500000Y-80500000D03*
%TD*%
%TO.C,TP4*%
X63000000Y-57000000D03*
%TD*%
%TO.C,TP5*%
X68000000Y-57000000D03*
%TD*%
%TO.C,TP6*%
X73000000Y-57000000D03*
%TD*%
%TO.C,TP7*%
X78000000Y-57000000D03*
%TD*%
%TO.C,TP8*%
X83000000Y-61500000D03*
%TD*%
D52*
%TO.C,J1*%
X50890000Y-27000000D03*
X45110000Y-27000000D03*
D53*
X51250000Y-28445000D03*
X50450000Y-28445000D03*
D54*
X49250000Y-28445000D03*
X48250000Y-28445000D03*
X47750000Y-28445000D03*
X46750000Y-28445000D03*
D53*
X45550000Y-28445000D03*
X44750000Y-28445000D03*
X44750000Y-28445000D03*
X45550000Y-28445000D03*
D54*
X46250000Y-28445000D03*
X47250000Y-28445000D03*
X48750000Y-28445000D03*
X49750000Y-28445000D03*
D53*
X50450000Y-28445000D03*
X51250000Y-28445000D03*
D55*
X52320000Y-27530000D03*
D56*
X52320000Y-23350000D03*
D55*
X43680000Y-27530000D03*
D56*
X43680000Y-23350000D03*
%TD*%
M02*
