%TF.GenerationSoftware,KiCad,Pcbnew,10.0.5*%
%TF.CreationDate,2026-08-23T11:00:58-07:00*%
%TF.ProjectId,bisque-controller,62697371-7565-42d6-936f-6e74726f6c6c,B*%
%TF.SameCoordinates,Original*%
%TF.FileFunction,Soldermask,Bot*%
%TF.FilePolarity,Negative*%
%FSLAX46Y46*%
G04 Gerber Fmt 4.6, Leading zero omitted, Abs format (unit mm)*
G04 Created by KiCad (PCBNEW 10.0.5) date 2026-08-23 11:00:58*
%MOMM*%
%LPD*%
G01*
G04 APERTURE LIST*
G04 Aperture macros list*
%AMRoundRect*
0 Rectangle with rounded corners*
0 $1 Rounding radius*
0 $2 $3 $4 $5 $6 $7 $8 $9 X,Y pos of 4 corners*
0 Add a 4 corners polygon primitive as box body*
4,1,4,$2,$3,$4,$5,$6,$7,$8,$9,$2,$3,0*
0 Add four circle primitives for the rounded corners*
1,1,$1+$1,$2,$3*
1,1,$1+$1,$4,$5*
1,1,$1+$1,$6,$7*
1,1,$1+$1,$8,$9*
0 Add four rect primitives between the rounded corners*
20,1,$1+$1,$2,$3,$4,$5,0*
20,1,$1+$1,$4,$5,$6,$7,0*
20,1,$1+$1,$6,$7,$8,$9,0*
20,1,$1+$1,$8,$9,$2,$3,0*%
G04 Aperture macros list end*
%ADD10RoundRect,0.250000X-1.050000X1.050000X-1.050000X-1.050000X1.050000X-1.050000X1.050000X1.050000X0*%
%ADD11C,2.600000*%
%ADD12RoundRect,0.250000X-0.620000X-0.845000X0.620000X-0.845000X0.620000X0.845000X-0.620000X0.845000X0*%
%ADD13O,1.740000X2.190000*%
%ADD14C,0.800000*%
%ADD15C,6.400000*%
%ADD16RoundRect,0.250000X-1.050000X-1.050000X1.050000X-1.050000X1.050000X1.050000X-1.050000X1.050000X0*%
%ADD17RoundRect,0.250000X1.050000X-1.050000X1.050000X1.050000X-1.050000X1.050000X-1.050000X-1.050000X0*%
%ADD18R,1.700000X1.700000*%
%ADD19C,1.700000*%
%ADD20R,2.000000X2.000000*%
%ADD21C,2.000000*%
%ADD22C,0.650000*%
%ADD23O,1.000000X2.100000*%
%ADD24O,1.000000X1.600000*%
G04 APERTURE END LIST*
D10*
%TO.C,J4*%
X26000000Y-75500000D03*
D11*
X26000000Y-80580000D03*
%TD*%
D10*
%TO.C,J10*%
X26000000Y-52000000D03*
D11*
X26000000Y-57080000D03*
X26000000Y-62160000D03*
X26000000Y-67240000D03*
%TD*%
D12*
%TO.C,J5*%
X24000000Y-104000000D03*
D13*
X26540000Y-104000000D03*
X29080000Y-104000000D03*
X31620000Y-104000000D03*
X34160000Y-104000000D03*
X36700000Y-104000000D03*
X39240000Y-104000000D03*
X41780000Y-104000000D03*
X44320000Y-104000000D03*
X46860000Y-104000000D03*
X49400000Y-104000000D03*
X51940000Y-104000000D03*
X54480000Y-104000000D03*
X57020000Y-104000000D03*
%TD*%
D12*
%TO.C,J6*%
X62000000Y-104000000D03*
D13*
X64540000Y-104000000D03*
X67080000Y-104000000D03*
X69620000Y-104000000D03*
X72160000Y-104000000D03*
X74700000Y-104000000D03*
%TD*%
D14*
%TO.C,H4*%
X112100000Y-115000000D03*
X112802944Y-113302944D03*
X112802944Y-116697056D03*
X114500000Y-112600000D03*
D15*
X114500000Y-115000000D03*
D14*
X114500000Y-117400000D03*
X116197056Y-113302944D03*
X116197056Y-116697056D03*
X116900000Y-115000000D03*
%TD*%
D16*
%TO.C,J11*%
X64000000Y-114000000D03*
D11*
X69080000Y-114000000D03*
X74160000Y-114000000D03*
X79240000Y-114000000D03*
%TD*%
D17*
%TO.C,J3*%
X114000000Y-41000000D03*
D11*
X114000000Y-35920000D03*
%TD*%
D10*
%TO.C,J2*%
X26000000Y-39000000D03*
D11*
X26000000Y-44080000D03*
%TD*%
D18*
%TO.C,J13*%
X98500000Y-79300000D03*
D19*
X98500000Y-81840000D03*
%TD*%
D14*
%TO.C,H1*%
X23100000Y-25000000D03*
X23802944Y-23302944D03*
X23802944Y-26697056D03*
X25500000Y-22600000D03*
D15*
X25500000Y-25000000D03*
D14*
X25500000Y-27400000D03*
X27197056Y-23302944D03*
X27197056Y-26697056D03*
X27900000Y-25000000D03*
%TD*%
%TO.C,H3*%
X23100000Y-115000000D03*
X23802944Y-113302944D03*
X23802944Y-116697056D03*
X25500000Y-112600000D03*
D15*
X25500000Y-115000000D03*
D14*
X25500000Y-117400000D03*
X27197056Y-113302944D03*
X27197056Y-116697056D03*
X27900000Y-115000000D03*
%TD*%
D20*
%TO.C,BZ1*%
X41000000Y-68950000D03*
D21*
X48600000Y-68950000D03*
%TD*%
D14*
%TO.C,H2*%
X112100000Y-25000000D03*
X112802944Y-23302944D03*
X112802944Y-26697056D03*
X114500000Y-22600000D03*
D15*
X114500000Y-25000000D03*
D14*
X114500000Y-27400000D03*
X116197056Y-23302944D03*
X116197056Y-26697056D03*
X116900000Y-25000000D03*
%TD*%
D17*
%TO.C,J12*%
X114000000Y-92000000D03*
D11*
X114000000Y-86920000D03*
X114000000Y-81840000D03*
X114000000Y-76760000D03*
%TD*%
D22*
%TO.C,J1*%
X50890000Y-27000000D03*
X45110000Y-27000000D03*
D23*
X52320000Y-27530000D03*
D24*
X52320000Y-23350000D03*
D23*
X43680000Y-27530000D03*
D24*
X43680000Y-23350000D03*
%TD*%
D10*
%TO.C,J9*%
X26000000Y-88000000D03*
D11*
X26000000Y-93080000D03*
%TD*%
D12*
%TO.C,J7*%
X80000000Y-104000000D03*
D13*
X82540000Y-104000000D03*
X85080000Y-104000000D03*
X87620000Y-104000000D03*
X90160000Y-104000000D03*
X92700000Y-104000000D03*
X95240000Y-104000000D03*
X97780000Y-104000000D03*
%TD*%
D17*
%TO.C,J8*%
X114000000Y-53000000D03*
D11*
X114000000Y-47920000D03*
%TD*%
M02*
