M48
; DRILL file KiCad 10.0.4 date 2026-07-21T14:05:12
; FORMAT={-:-/ absolute / metric / decimal}
; #@! TF.CreationDate,2026-07-21T14:05:12-07:00
; #@! TF.GenerationSoftware,Kicad,Pcbnew,10.0.4
; #@! TF.FileFunction,MixedPlating,1,2
FMAT,2
METRIC
; #@! TA.AperFunction,Plated,PTH,ViaDrill
T1C0.300
; #@! TA.AperFunction,Plated,PTH,ComponentDrill
T2C0.300
; #@! TA.AperFunction,Plated,PTH,ComponentDrill
T3C0.500
; #@! TA.AperFunction,Plated,PTH,ComponentDrill
T4C0.600
; #@! TA.AperFunction,Plated,PTH,ComponentDrill
T5C1.000
; #@! TA.AperFunction,Plated,PTH,ComponentDrill
T6C1.100
; #@! TA.AperFunction,Plated,PTH,ComponentDrill
T7C1.190
; #@! TA.AperFunction,Plated,PTH,ComponentDrill
T8C1.300
; #@! TA.AperFunction,Plated,PTH,ComponentDrill
T9C3.200
; #@! TA.AperFunction,NonPlated,NPTH,ComponentDrill
T10C0.650
%
G90
G05
T1
X24.0Y-30.0
X24.0Y-36.0
X24.0Y-42.0
X24.0Y-48.0
X24.0Y-54.0
X24.0Y-60.0
X24.0Y-72.0
X24.0Y-78.0
X24.0Y-84.0
X24.0Y-90.0
X30.0Y-24.0
X30.0Y-36.0
X30.0Y-42.0
X30.0Y-48.0
X30.0Y-60.0
X30.0Y-66.0
X30.0Y-72.0
X30.0Y-78.0
X30.0Y-84.0
X30.0Y-90.0
X31.2Y-56.0
X34.0Y-49.2
X36.0Y-24.0
X36.0Y-30.0
X36.0Y-36.0
X36.0Y-54.0
X36.0Y-60.0
X36.0Y-66.0
X36.0Y-72.0
X36.0Y-78.0
X36.0Y-84.0
X36.4Y-49.2
X42.0Y-24.0
X42.0Y-42.0
X42.0Y-48.0
X42.0Y-54.0
X42.0Y-60.0
X42.0Y-66.0
X42.0Y-72.0
X42.0Y-78.0
X42.8Y-81.2
X44.0Y-74.8
X44.0Y-82.4
X44.4Y-86.0
X44.8Y-88.4
X46.0Y-89.6
X48.0Y-24.0
X48.0Y-30.0
X48.0Y-42.0
X48.0Y-48.0
X48.0Y-54.0
X48.0Y-60.0
X48.0Y-66.0
X51.2Y-83.6
X54.0Y-24.0
X54.0Y-30.0
X54.0Y-36.0
X54.0Y-42.0
X54.0Y-48.0
X54.0Y-54.0
X54.0Y-60.0
X54.0Y-72.0
X54.0Y-79.6
X56.0Y-83.2
X57.6Y-83.2
X60.0Y-24.0
X60.0Y-30.0
X60.0Y-36.0
X60.0Y-42.0
X60.0Y-48.0
X60.0Y-54.0
X60.0Y-66.0
X60.0Y-72.0
X60.0Y-90.0
X61.2Y-83.2
X62.0Y-80.8
X62.8Y-83.2
X63.6Y-80.8
X65.6Y-33.6
X66.0Y-36.0
X66.0Y-42.0
X66.0Y-48.0
X66.0Y-60.0
X66.0Y-66.0
X66.0Y-84.0
X66.0Y-90.0
X66.0Y-96.0
X66.8Y-27.2
X67.6Y-28.8
X68.4Y-80.0
X70.4Y-53.6
X71.2Y-30.4
X71.2Y-51.6
X72.0Y-36.0
X72.0Y-51.6
X74.0Y-76.4
X74.4Y-55.2
X74.8Y-38.4
X75.2Y-51.6
X75.2Y-76.4
X75.2Y-78.8
X75.2Y-87.6
X76.0Y-78.8
X76.0Y-90.0
X76.4Y-51.6
X77.2Y-38.4
X77.2Y-50.8
X77.6Y-76.4
X77.6Y-78.8
X79.2Y-83.6
X79.2Y-90.0
X80.0Y-57.6
X80.0Y-59.2
X80.0Y-86.0
X80.8Y-44.0
X81.2Y-67.6
X81.6Y-44.0
X82.0Y-28.0
X82.0Y-46.0
X82.4Y-40.8
X83.2Y-76.4
X84.0Y-30.0
X84.0Y-36.0
X84.0Y-42.0
X84.0Y-60.0
X84.0Y-66.0
X84.0Y-90.0
X84.0Y-96.0
X84.4Y-46.8
X85.6Y-44.0
X85.6Y-72.0
X86.0Y-46.4
X86.0Y-88.8
X86.4Y-42.0
X87.2Y-47.6
X87.2Y-78.8
X87.2Y-85.2
X87.2Y-87.6
X87.6Y-89.6
X88.0Y-50.8
X88.0Y-81.2
X88.0Y-85.2
X88.4Y-89.6
X88.8Y-58.4
X88.8Y-76.4
X88.8Y-78.8
X89.0Y-85.4
X89.6Y-52.4
X89.6Y-89.6
X90.0Y-30.0
X90.0Y-36.0
X90.0Y-42.0
X90.0Y-46.8
X90.0Y-60.0
X90.0Y-66.0
X90.0Y-72.0
X90.0Y-85.2
X90.0Y-96.0
X93.6Y-52.8
X94.0Y-54.4
X96.0Y-60.0
X96.0Y-66.0
X96.0Y-72.0
X96.0Y-78.0
X96.0Y-90.0
X97.6Y-54.4
X98.0Y-44.0
X98.4Y-54.4
X98.8Y-45.2
X99.2Y-55.2
X101.6Y-56.0
X102.0Y-30.0
X102.0Y-66.0
X102.0Y-72.0
X102.0Y-78.0
X102.0Y-84.0
X102.0Y-90.0
X102.0Y-96.0
X103.6Y-59.6
X104.0Y-47.2
X104.0Y-56.8
X104.8Y-59.2
X108.0Y-30.0
X108.0Y-36.0
X108.0Y-42.0
X108.0Y-54.0
X108.0Y-60.0
X108.0Y-72.0
X108.0Y-78.0
X108.0Y-84.0
X108.0Y-90.0
X108.0Y-96.0
X114.0Y-30.0
X114.0Y-36.0
X114.0Y-42.0
X114.0Y-48.0
X114.0Y-54.0
X114.0Y-72.0
X114.0Y-78.0
X114.0Y-84.0
X114.0Y-90.0
T2
X85.1Y-34.76
X85.1Y-36.16
X85.8Y-34.06
X85.8Y-35.46
X85.8Y-36.86
X86.5Y-34.76
X86.5Y-36.16
X87.2Y-34.06
X87.2Y-35.46
X87.2Y-36.86
X87.9Y-34.76
X87.9Y-36.16
T3
X22.1Y-24.5
X22.1Y-68.0
X22.803Y-22.803
X22.803Y-26.197
X22.803Y-66.303
X22.803Y-69.697
X24.5Y-22.1
X24.5Y-26.9
X24.5Y-65.6
X24.5Y-70.4
X26.197Y-22.803
X26.197Y-26.197
X26.197Y-66.303
X26.197Y-69.697
X26.9Y-24.5
X26.9Y-68.0
X113.1Y-24.5
X113.1Y-95.5
X113.803Y-22.803
X113.803Y-26.197
X113.803Y-93.803
X113.803Y-97.197
X115.5Y-22.1
X115.5Y-26.9
X115.5Y-93.1
X115.5Y-97.9
X117.197Y-22.803
X117.197Y-26.197
X117.197Y-93.803
X117.197Y-97.197
X117.9Y-24.5
X117.9Y-95.5
T5
X38.0Y-78.0
X45.6Y-78.0
T6
X55.0Y-22.5
X55.0Y-27.0
X61.5Y-22.5
X61.5Y-27.0
X101.0Y-47.0
X101.0Y-51.5
X107.5Y-47.0
X107.5Y-51.5
T7
X24.5Y-95.0
X27.04Y-95.0
X29.58Y-95.0
X32.12Y-95.0
X34.66Y-95.0
X37.2Y-95.0
X39.74Y-95.0
X42.28Y-95.0
X46.0Y-95.0
X48.54Y-95.0
X51.08Y-95.0
X53.62Y-95.0
X56.16Y-95.0
X58.7Y-95.0
X64.0Y-95.0
X66.54Y-95.0
X69.08Y-95.0
X71.62Y-95.0
X74.16Y-95.0
X76.7Y-95.0
X79.24Y-95.0
X81.78Y-95.0
T8
X27.0Y-33.0
X27.0Y-38.08
X27.0Y-55.0
X27.0Y-60.08
X114.0Y-59.92
X114.0Y-65.0
T9
X24.5Y-24.5
X24.5Y-68.0
X115.5Y-24.5
X115.5Y-95.5
T10
X86.11Y-93.0
X91.89Y-93.0
T4
X84.68Y-91.92G85X84.68Y-93.02
G05
X84.68Y-96.35G85X84.68Y-96.95
G05
X93.32Y-91.92G85X93.32Y-93.02
G05
X93.32Y-96.35G85X93.32Y-96.95
G05
M30
