%TF.GenerationSoftware,KiCad,Pcbnew,10.0.5*%
%TF.CreationDate,2026-08-14T15:42:22-07:00*%
%TF.ProjectId,bisque-controller,62697371-7565-42d6-936f-6e74726f6c6c,B*%
%TF.SameCoordinates,Original*%
%TF.FileFunction,Copper,L4,Bot*%
%TF.FilePolarity,Positive*%
%FSLAX46Y46*%
G04 Gerber Fmt 4.6, Leading zero omitted, Abs format (unit mm)*
G04 Created by KiCad (PCBNEW 10.0.5) date 2026-08-14 15:42:22*
%MOMM*%
%LPD*%
G01*
G04 APERTURE LIST*
G04 Aperture macros list*
%AMRoundRect*
0 Rectangle with rounded corners*
0 $1 Rounding radius*
0 $2 $3 $4 $5 $6 $7 $8 $9 X,Y pos of 4 corners*
0 Add a 4 corners polygon primitive as box body*
4,1,4,$2,$3,$4,$5,$6,$7,$8,$9,$2,$3,0*
0 Add four circle primitives for the rounded corners*
1,1,$1+$1,$2,$3*
1,1,$1+$1,$4,$5*
1,1,$1+$1,$6,$7*
1,1,$1+$1,$8,$9*
0 Add four rect primitives between the rounded corners*
20,1,$1+$1,$2,$3,$4,$5,0*
20,1,$1+$1,$4,$5,$6,$7,0*
20,1,$1+$1,$6,$7,$8,$9,0*
20,1,$1+$1,$8,$9,$2,$3,0*%
G04 Aperture macros list end*
%TA.AperFunction,ComponentPad*%
%ADD10R,2.000000X2.000000*%
%TD*%
%TA.AperFunction,ComponentPad*%
%ADD11C,2.000000*%
%TD*%
%TA.AperFunction,HeatsinkPad*%
%ADD12C,0.600000*%
%TD*%
%TA.AperFunction,ComponentPad*%
%ADD13RoundRect,0.250000X-0.620000X-0.845000X0.620000X-0.845000X0.620000X0.845000X-0.620000X0.845000X0*%
%TD*%
%TA.AperFunction,ComponentPad*%
%ADD14O,1.740000X2.190000*%
%TD*%
%TA.AperFunction,ComponentPad*%
%ADD15C,0.800000*%
%TD*%
%TA.AperFunction,ComponentPad*%
%ADD16C,6.400000*%
%TD*%
%TA.AperFunction,ComponentPad*%
%ADD17R,1.700000X1.700000*%
%TD*%
%TA.AperFunction,ComponentPad*%
%ADD18C,1.700000*%
%TD*%
%TA.AperFunction,ComponentPad*%
%ADD19RoundRect,0.250000X1.050000X-1.050000X1.050000X1.050000X-1.050000X1.050000X-1.050000X-1.050000X0*%
%TD*%
%TA.AperFunction,ComponentPad*%
%ADD20C,2.600000*%
%TD*%
%TA.AperFunction,ComponentPad*%
%ADD21RoundRect,0.250000X-1.050000X1.050000X-1.050000X-1.050000X1.050000X-1.050000X1.050000X1.050000X0*%
%TD*%
%TA.AperFunction,ComponentPad*%
%ADD22RoundRect,0.250000X-1.050000X-1.050000X1.050000X-1.050000X1.050000X1.050000X-1.050000X1.050000X0*%
%TD*%
%TA.AperFunction,ComponentPad*%
%ADD23O,1.000000X2.100000*%
%TD*%
%TA.AperFunction,ComponentPad*%
%ADD24O,1.000000X1.600000*%
%TD*%
%TA.AperFunction,ViaPad*%
%ADD25C,0.600000*%
%TD*%
%TA.AperFunction,Conductor*%
%ADD26C,0.300000*%
%TD*%
%TA.AperFunction,Conductor*%
%ADD27C,0.400000*%
%TD*%
%TA.AperFunction,Conductor*%
%ADD28C,0.500000*%
%TD*%
%TA.AperFunction,Conductor*%
%ADD29C,0.700000*%
%TD*%
G04 APERTURE END LIST*
D10*
%TO.P,BZ1,1*%
%TO.N,+5V*%
X41000000Y-68950000D03*
D11*
%TO.P,BZ1,2*%
%TO.N,BUZZ_K*%
X48600000Y-68950000D03*
%TD*%
D12*
%TO.P,U1,41*%
%TO.N,GND*%
X67100000Y-32610000D03*
X67100000Y-34010000D03*
X67800000Y-31910000D03*
X67800000Y-33310000D03*
X67800000Y-34710000D03*
X68500000Y-32610000D03*
X68500000Y-34010000D03*
X69200000Y-31910000D03*
X69200000Y-33310000D03*
X69200000Y-34710000D03*
X69900000Y-32610000D03*
X69900000Y-34010000D03*
%TD*%
D13*
%TO.P,J6,1*%
%TO.N,BTN_UP*%
X62000000Y-104000000D03*
D14*
%TO.P,J6,2*%
%TO.N,BTN_DOWN*%
X64540000Y-104000000D03*
%TO.P,J6,3*%
%TO.N,BTN_LEFT*%
X67080000Y-104000000D03*
%TO.P,J6,4*%
%TO.N,BTN_RIGHT*%
X69620000Y-104000000D03*
%TO.P,J6,5*%
%TO.N,BTN_SEL*%
X72160000Y-104000000D03*
%TO.P,J6,6*%
%TO.N,GND*%
X74700000Y-104000000D03*
%TD*%
D13*
%TO.P,J7,1*%
%TO.N,+3V3*%
X80000000Y-104000000D03*
D14*
%TO.P,J7,2*%
%TO.N,GND*%
X82540000Y-104000000D03*
%TO.P,J7,3*%
%TO.N,TXD0*%
X85080000Y-104000000D03*
%TO.P,J7,4*%
%TO.N,RXD0*%
X87620000Y-104000000D03*
%TO.P,J7,5*%
%TO.N,I2C_SDA*%
X90160000Y-104000000D03*
%TO.P,J7,6*%
%TO.N,I2C_SCL*%
X92700000Y-104000000D03*
%TO.P,J7,7*%
%TO.N,+3V3*%
X95240000Y-104000000D03*
%TO.P,J7,8*%
%TO.N,GND*%
X97780000Y-104000000D03*
%TD*%
D13*
%TO.P,J5,1*%
%TO.N,+5V*%
X24000000Y-104000000D03*
D14*
%TO.P,J5,2*%
%TO.N,GND*%
X26540000Y-104000000D03*
%TO.P,J5,3*%
%TO.N,LCD_CS*%
X29080000Y-104000000D03*
%TO.P,J5,4*%
%TO.N,LCD_RST*%
X31620000Y-104000000D03*
%TO.P,J5,5*%
%TO.N,LCD_DC*%
X34160000Y-104000000D03*
%TO.P,J5,6*%
%TO.N,SPI_MOSI*%
X36700000Y-104000000D03*
%TO.P,J5,7*%
%TO.N,SPI_SCLK*%
X39240000Y-104000000D03*
%TO.P,J5,8*%
%TO.N,LCD_BL*%
X41780000Y-104000000D03*
%TO.P,J5,9*%
%TO.N,SPI_MISO*%
X44320000Y-104000000D03*
%TO.P,J5,10*%
%TO.N,T_CLK_R*%
X46860000Y-104000000D03*
%TO.P,J5,11*%
%TO.N,T_CS_R*%
X49400000Y-104000000D03*
%TO.P,J5,12*%
%TO.N,T_DIN_R*%
X51940000Y-104000000D03*
%TO.P,J5,13*%
%TO.N,T_DO_R*%
X54480000Y-104000000D03*
%TO.P,J5,14*%
%TO.N,T_IRQ_R*%
X57020000Y-104000000D03*
%TD*%
D15*
%TO.P,H4,1*%
%TO.N,GND*%
X112100000Y-115000000D03*
X112802944Y-113302944D03*
X112802944Y-116697056D03*
X114500000Y-112600000D03*
D16*
X114500000Y-115000000D03*
D15*
X114500000Y-117400000D03*
X116197056Y-113302944D03*
X116197056Y-116697056D03*
X116900000Y-115000000D03*
%TD*%
%TO.P,H2,1*%
%TO.N,GND*%
X112100000Y-25000000D03*
X112802944Y-23302944D03*
X112802944Y-26697056D03*
X114500000Y-22600000D03*
D16*
X114500000Y-25000000D03*
D15*
X114500000Y-27400000D03*
X116197056Y-23302944D03*
X116197056Y-26697056D03*
X116900000Y-25000000D03*
%TD*%
%TO.P,H3,1*%
%TO.N,GND*%
X23100000Y-115000000D03*
X23802944Y-113302944D03*
X23802944Y-116697056D03*
X25500000Y-112600000D03*
D16*
X25500000Y-115000000D03*
D15*
X25500000Y-117400000D03*
X27197056Y-113302944D03*
X27197056Y-116697056D03*
X27900000Y-115000000D03*
%TD*%
%TO.P,H1,1*%
%TO.N,GND*%
X23100000Y-25000000D03*
X23802944Y-23302944D03*
X23802944Y-26697056D03*
X25500000Y-22600000D03*
D16*
X25500000Y-25000000D03*
D15*
X25500000Y-27400000D03*
X27197056Y-23302944D03*
X27197056Y-26697056D03*
X27900000Y-25000000D03*
%TD*%
D17*
%TO.P,J13,1*%
%TO.N,ADE_VP*%
X98500000Y-79300000D03*
D18*
%TO.P,J13,2*%
%TO.N,ADE_VN*%
X98500000Y-81840000D03*
%TD*%
D19*
%TO.P,J3,1*%
%TO.N,TC1_P*%
X114000000Y-41000000D03*
D20*
%TO.P,J3,2*%
%TO.N,TC1_N*%
X114000000Y-35920000D03*
%TD*%
D19*
%TO.P,J8,1*%
%TO.N,TC2_P*%
X114000000Y-53000000D03*
D20*
%TO.P,J8,2*%
%TO.N,TC2_N*%
X114000000Y-47920000D03*
%TD*%
D21*
%TO.P,J2,1*%
%TO.N,VIN*%
X26000000Y-39000000D03*
D20*
%TO.P,J2,2*%
%TO.N,GND*%
X26000000Y-44080000D03*
%TD*%
D21*
%TO.P,J4,1*%
%TO.N,SSR_EN*%
X26000000Y-75500000D03*
D20*
%TO.P,J4,2*%
%TO.N,SSR1_OUT*%
X26000000Y-80580000D03*
%TD*%
D21*
%TO.P,J9,1*%
%TO.N,SSR_EN*%
X26000000Y-88000000D03*
D20*
%TO.P,J9,2*%
%TO.N,SSR2_OUT*%
X26000000Y-93080000D03*
%TD*%
D19*
%TO.P,J12,1*%
%TO.N,CTA_P*%
X114000000Y-92000000D03*
D20*
%TO.P,J12,2*%
%TO.N,CTA_N*%
X114000000Y-86920000D03*
%TO.P,J12,3*%
%TO.N,CTB_P*%
X114000000Y-81840000D03*
%TO.P,J12,4*%
%TO.N,CTB_N*%
X114000000Y-76760000D03*
%TD*%
D21*
%TO.P,J10,1*%
%TO.N,AUX_VP*%
X26000000Y-52000000D03*
D20*
%TO.P,J10,2*%
%TO.N,AUX1_OUT*%
X26000000Y-57080000D03*
%TO.P,J10,3*%
%TO.N,AUX2_OUT*%
X26000000Y-62160000D03*
%TO.P,J10,4*%
%TO.N,AUX3_OUT*%
X26000000Y-67240000D03*
%TD*%
D22*
%TO.P,J11,1*%
%TO.N,IN1_RAW*%
X64000000Y-114000000D03*
D20*
%TO.P,J11,2*%
%TO.N,IN2_RAW*%
X69080000Y-114000000D03*
%TO.P,J11,3*%
%TO.N,IN3_RAW*%
X74160000Y-114000000D03*
%TO.P,J11,4*%
%TO.N,GND*%
X79240000Y-114000000D03*
%TD*%
D23*
%TO.P,J1,SH*%
%TO.N,GND*%
X52320000Y-27530000D03*
D24*
X52320000Y-23350000D03*
D23*
X43680000Y-27530000D03*
D24*
X43680000Y-23350000D03*
%TD*%
D25*
%TO.N,ADE_CS*%
X100000000Y-64250000D03*
%TO.N,GND*%
X100000000Y-65500000D03*
X100000000Y-84750000D03*
X100000000Y-87250000D03*
%TO.N,TC2_N_F*%
X100250000Y-47750000D03*
%TO.N,+3V3*%
X100500000Y-72500000D03*
%TO.N,GND*%
X100500000Y-83500000D03*
%TO.N,CTB_N*%
X100750000Y-81750000D03*
%TO.N,+3V3*%
X101250000Y-58750000D03*
%TO.N,TC1_N_F*%
X101500000Y-36250000D03*
%TO.N,TC2_N_F*%
X101750000Y-46250000D03*
%TO.N,ADE_CLKOUT*%
X101750000Y-69500000D03*
%TO.N,TC1_N_F*%
X102250000Y-39000000D03*
%TO.N,TC2_N_F*%
X102250000Y-52000000D03*
%TO.N,CTA_N*%
X102250000Y-85250000D03*
%TO.N,+3V3*%
X102750000Y-75500000D03*
%TO.N,GND*%
X103000000Y-26000000D03*
X103000000Y-64250000D03*
%TO.N,TC2_N_F*%
X103250000Y-49000000D03*
%TO.N,+3V3*%
X104000000Y-22500000D03*
X104000000Y-60000000D03*
%TO.N,GND*%
X104500000Y-87000000D03*
%TO.N,TC1_N_F*%
X104750000Y-32750000D03*
%TO.N,GND*%
X105000000Y-42000000D03*
X105000000Y-55000000D03*
X105500000Y-79000000D03*
%TO.N,+3V3*%
X105500000Y-83500000D03*
%TO.N,CTB_P*%
X105500000Y-84500000D03*
%TO.N,GND*%
X106750000Y-69500000D03*
X106750000Y-72500000D03*
X106750000Y-75500000D03*
X107500000Y-96500000D03*
X108000000Y-38000000D03*
%TO.N,TC2_N*%
X108000000Y-48000000D03*
%TO.N,GND*%
X108000000Y-51000000D03*
X108000000Y-65500000D03*
%TO.N,ADE_CLKOUT*%
X109750000Y-88750000D03*
X110750000Y-82500000D03*
X110750000Y-87750000D03*
%TO.N,+3V3*%
X32000000Y-39500000D03*
X32250000Y-28500000D03*
%TO.N,+5V*%
X32750000Y-43000000D03*
X32750000Y-45000000D03*
%TO.N,GND*%
X33500000Y-27000000D03*
X33500000Y-36000000D03*
%TO.N,AUX1_OUT*%
X35000000Y-59500000D03*
%TO.N,GND*%
X37000000Y-115000000D03*
X37500000Y-79750000D03*
X37500000Y-91750000D03*
%TO.N,IN1*%
X38000000Y-105500000D03*
%TO.N,+3V3*%
X38000000Y-111000000D03*
%TO.N,AUX2_OUT*%
X38000000Y-58750000D03*
%TO.N,+3V3*%
X38250000Y-39500000D03*
%TO.N,SSR1_GATE*%
X38250000Y-74750000D03*
%TO.N,SSR_EN*%
X38500000Y-85250000D03*
%TO.N,IN1*%
X38500000Y-86500000D03*
X38750000Y-88500000D03*
X39000000Y-51750000D03*
X39000000Y-77000000D03*
%TO.N,GND*%
X39500000Y-27000000D03*
%TO.N,SSR2_GATE*%
X39500000Y-89000000D03*
%TO.N,AUX_VP*%
X39750000Y-50750000D03*
%TO.N,SSR1_GATE*%
X39750000Y-73250000D03*
%TO.N,SSR_EN*%
X39750000Y-84000000D03*
%TO.N,AUX3*%
X40000000Y-56750000D03*
%TO.N,AUX2*%
X40000000Y-57750000D03*
%TO.N,SSR1_GATE*%
X40000000Y-76000000D03*
%TO.N,SSR1_OUT*%
X40000000Y-77250000D03*
%TO.N,GND*%
X40500000Y-29250000D03*
%TO.N,SSR2_OUT*%
X40750000Y-90000000D03*
%TO.N,SPI_SCLK*%
X41250000Y-101750000D03*
%TO.N,GND*%
X41500000Y-49750000D03*
%TO.N,AUX1*%
X42000000Y-60250000D03*
%TO.N,SSR1_GATE*%
X42000000Y-76500000D03*
%TO.N,IN3_RAW*%
X42250000Y-115500000D03*
%TO.N,SSR2_OUT*%
X42750000Y-88000000D03*
%TO.N,SSR2_GATE*%
X42750000Y-90500000D03*
%TO.N,+3V3*%
X43000000Y-115000000D03*
%TO.N,SSR_EN*%
X43250000Y-84000000D03*
%TO.N,GND*%
X43750000Y-95500000D03*
X44000000Y-29000000D03*
X44000000Y-33500000D03*
%TO.N,AUX3*%
X44000000Y-55500000D03*
%TO.N,AUX2*%
X44000000Y-57750000D03*
%TO.N,AUX1*%
X44000000Y-61000000D03*
%TO.N,GND*%
X44250000Y-39500000D03*
X44500000Y-45500000D03*
%TO.N,WDT_HOLD*%
X44500000Y-67000000D03*
X44500000Y-71500000D03*
%TO.N,GND*%
X44750000Y-29750000D03*
%TO.N,CC2*%
X44750000Y-31750000D03*
%TO.N,SSR1_GATE*%
X44750000Y-78500000D03*
%TO.N,SSR_PG*%
X44750000Y-82750000D03*
%TO.N,WDT_HOLD*%
X45000000Y-65000000D03*
%TO.N,T_CS*%
X45250000Y-67500000D03*
X45250000Y-73500000D03*
%TO.N,GND*%
X45500000Y-34750000D03*
%TO.N,LCD_BL*%
X45500000Y-87250000D03*
%TO.N,T_IRQ*%
X46000000Y-67000000D03*
%TO.N,CC2*%
X46250000Y-31750000D03*
%TO.N,WDT_KICK*%
X46250000Y-38000000D03*
%TO.N,AUX_VP*%
X46250000Y-50750000D03*
%TO.N,T_CS*%
X46250000Y-65000000D03*
%TO.N,T_IRQ*%
X46250000Y-72500000D03*
%TO.N,LCD_DC*%
X46250000Y-79750000D03*
%TO.N,SSR_PG*%
X46250000Y-82750000D03*
%TO.N,IN1_RAW*%
X46500000Y-112250000D03*
%TO.N,SSR_PG*%
X46750000Y-85250000D03*
%TO.N,GND*%
X47000000Y-111000000D03*
%TO.N,USB_DP*%
X47250000Y-31750000D03*
%TO.N,SSR_PG*%
X47250000Y-71250000D03*
%TO.N,T_CS*%
X47500000Y-86250000D03*
%TO.N,WDT_KICK*%
X47750000Y-49750000D03*
%TO.N,USB_DN*%
X48000000Y-33250000D03*
%TO.N,USB_DP*%
X48000000Y-35500000D03*
%TO.N,WDT_KICK*%
X48000000Y-52500000D03*
%TO.N,GND*%
X48000000Y-54500000D03*
X48000000Y-58000000D03*
X48000000Y-61250000D03*
%TO.N,WDT_HOLD*%
X48000000Y-62250000D03*
%TO.N,T_CS*%
X48000000Y-76500000D03*
%TO.N,USB_DN*%
X48250000Y-31750000D03*
%TO.N,SSR1_GATE*%
X48250000Y-81750000D03*
%TO.N,SSR2_GATE*%
X48250000Y-90500000D03*
%TO.N,SSR2_CTRL*%
X48250000Y-92750000D03*
%TO.N,T_CS*%
X48500000Y-94500000D03*
%TO.N,SPI_MISO*%
X48750000Y-102250000D03*
%TO.N,T_CS*%
X48750000Y-48750000D03*
X48750000Y-59500000D03*
%TO.N,+3V3*%
X49000000Y-39500000D03*
%TO.N,SSR_PG*%
X49000000Y-67000000D03*
%TO.N,T_CS*%
X49500000Y-44000000D03*
%TO.N,CC1*%
X49750000Y-31750000D03*
%TO.N,USB_DN*%
X49750000Y-38000000D03*
%TO.N,AUX1*%
X49750000Y-56500000D03*
%TO.N,WDT_HOLD*%
X49750000Y-60750000D03*
%TO.N,SSR1_OUT*%
X49750000Y-77250000D03*
%TO.N,SSR2_CTRL*%
X49750000Y-91250000D03*
%TO.N,T_CS_R*%
X49750000Y-97750000D03*
%TO.N,T_CLK_R*%
X49750000Y-99000000D03*
%TO.N,IN3*%
X50000000Y-112000000D03*
%TO.N,AUX2*%
X50000000Y-49500000D03*
%TO.N,USB_DP*%
X50500000Y-36000000D03*
%TO.N,IN1_RAW*%
X50750000Y-112750000D03*
%TO.N,WDT_PUMP*%
X51000000Y-50750000D03*
%TO.N,GND*%
X51000000Y-59250000D03*
%TO.N,SSR_PG*%
X51000000Y-65000000D03*
%TO.N,GND*%
X51250000Y-29750000D03*
%TO.N,CC1*%
X51250000Y-32500000D03*
%TO.N,SSR1_CTRL*%
X51250000Y-79500000D03*
%TO.N,SSR2_IND_K*%
X51250000Y-87500000D03*
%TO.N,SSR2_CTRL*%
X51500000Y-71000000D03*
%TO.N,GND*%
X51750000Y-39500000D03*
%TO.N,+3V3*%
X51750000Y-40500000D03*
%TO.N,GND*%
X52000000Y-115000000D03*
X52000000Y-29000000D03*
%TO.N,SSR2_CTRL*%
X52000000Y-64500000D03*
X52000000Y-68750000D03*
X52000000Y-73750000D03*
%TO.N,SSR2_GATE*%
X52000000Y-93500000D03*
%TO.N,USB_DP*%
X52500000Y-38000000D03*
%TO.N,T_CLK_R*%
X52750000Y-102000000D03*
%TO.N,IN2_RAW*%
X52750000Y-113250000D03*
X52750000Y-115500000D03*
%TO.N,LCD_BL*%
X52750000Y-65000000D03*
X52750000Y-67000000D03*
%TO.N,SSR1_GATE*%
X52750000Y-83250000D03*
%TO.N,SSR2_IND_K*%
X52750000Y-86250000D03*
%TO.N,IN3*%
X53000000Y-109000000D03*
%TO.N,+3V3*%
X53000000Y-111000000D03*
%TO.N,WDT_PUMP*%
X53000000Y-48250000D03*
%TO.N,GND*%
X53500000Y-115000000D03*
%TO.N,SSR_PG*%
X53500000Y-56000000D03*
%TO.N,LCD_DC*%
X53750000Y-67000000D03*
%TO.N,T_DIN_R*%
X53750000Y-99000000D03*
%TO.N,GND*%
X54000000Y-42250000D03*
X54000000Y-53500000D03*
%TO.N,WDT_PUMP*%
X54000000Y-54750000D03*
%TO.N,LCD_CS*%
X54000000Y-56750000D03*
%TO.N,SPI_SCLK*%
X54000000Y-70750000D03*
%TO.N,SSR1_IND_K*%
X54000000Y-76750000D03*
%TO.N,USB_DN*%
X54500000Y-44250000D03*
%TO.N,SPI_MOSI*%
X54750000Y-65000000D03*
X54750000Y-67000000D03*
%TO.N,SSR_EN*%
X54750000Y-86250000D03*
%TO.N,SSR2_GATE*%
X54750000Y-93500000D03*
%TO.N,GND*%
X55000000Y-33500000D03*
%TO.N,+3V3*%
X55000000Y-43500000D03*
%TO.N,SSR_PG*%
X55250000Y-57500000D03*
%TO.N,WDT_HOLD*%
X55500000Y-72250000D03*
%TO.N,SSR1_IND_K*%
X55500000Y-77250000D03*
%TO.N,SSR_PG*%
X55500000Y-78750000D03*
%TO.N,GND*%
X55750000Y-40000000D03*
%TO.N,AUX3*%
X56000000Y-43500000D03*
%TO.N,GND*%
X56000000Y-48000000D03*
%TO.N,WDT_HOLD*%
X56000000Y-51500000D03*
%TO.N,GND*%
X56000000Y-80500000D03*
%TO.N,SSR_PG*%
X56000000Y-86500000D03*
%TO.N,GND*%
X56500000Y-23750000D03*
%TO.N,SSR_PG*%
X56750000Y-83000000D03*
%TO.N,WDT_PUMP*%
X57000000Y-51500000D03*
%TO.N,SSR_PG*%
X57000000Y-85250000D03*
%TO.N,+3V3*%
X57500000Y-22000000D03*
%TO.N,USB_DP*%
X58000000Y-38250000D03*
%TO.N,SSR1_CTRL*%
X58250000Y-79500000D03*
%TO.N,+3V3*%
X58500000Y-115000000D03*
%TO.N,IN3_RAW*%
X58500000Y-116000000D03*
%TO.N,ALARM*%
X58500000Y-48750000D03*
%TO.N,GND*%
X58750000Y-21750000D03*
X58750000Y-26000000D03*
%TO.N,+3V3*%
X58750000Y-30000000D03*
%TO.N,GND*%
X58750000Y-57500000D03*
X59000000Y-53500000D03*
X59000000Y-92500000D03*
%TO.N,WDT_HOLD*%
X59500000Y-51000000D03*
X59500000Y-67000000D03*
%TO.N,+3V3*%
X59750000Y-24000000D03*
%TO.N,SPI_SCLK*%
X59750000Y-65000000D03*
%TO.N,+3V3*%
X60000000Y-26750000D03*
%TO.N,ALARM*%
X60000000Y-41000000D03*
%TO.N,T_IRQ*%
X60500000Y-90000000D03*
%TO.N,SSR1_CTRL*%
X60750000Y-67000000D03*
%TO.N,BUZZ_K*%
X60750000Y-71500000D03*
%TO.N,GND*%
X61250000Y-24500000D03*
%TO.N,SSR2_CTRL*%
X62000000Y-43250000D03*
%TO.N,WDT_HOLD*%
X62250000Y-49750000D03*
%TO.N,IN1*%
X62500000Y-29500000D03*
%TO.N,T_CS*%
X62500000Y-30750000D03*
%TO.N,T_IRQ*%
X62500000Y-32000000D03*
%TO.N,AUX2*%
X62500000Y-35000000D03*
%TO.N,AUX3*%
X62500000Y-36500000D03*
%TO.N,USB_DN*%
X62500000Y-40500000D03*
%TO.N,ALARM*%
X62750000Y-71500000D03*
X63250000Y-37250000D03*
%TO.N,USB_DP*%
X63500000Y-40750000D03*
%TO.N,SPI_MISO*%
X63500000Y-67750000D03*
%TO.N,BUZZ_K*%
X63500000Y-70000000D03*
%TO.N,LCD_RST*%
X63750000Y-51250000D03*
%TO.N,LCD_DC*%
X63750000Y-54750000D03*
%TO.N,ALARM*%
X64000000Y-64750000D03*
%TO.N,GND*%
X64000000Y-71750000D03*
%TO.N,IN3*%
X64250000Y-75500000D03*
%TO.N,BUZZ_GATE*%
X64250000Y-76750000D03*
%TO.N,ALARM*%
X64500000Y-61250000D03*
%TO.N,BUZZ_GATE*%
X64500000Y-70000000D03*
%TO.N,SPI_MISO*%
X64750000Y-66500000D03*
%TO.N,I2C_SDA*%
X65250000Y-42000000D03*
%TO.N,BUZZ_K*%
X65500000Y-69250000D03*
X65750000Y-67000000D03*
%TO.N,BUZZ_GATE*%
X65750000Y-75250000D03*
X66000000Y-72750000D03*
%TO.N,IN3_RAW*%
X66250000Y-115750000D03*
%TO.N,SSR1_CTRL*%
X66250000Y-52500000D03*
X66500000Y-41500000D03*
X67000000Y-44750000D03*
%TO.N,GND*%
X67000000Y-78000000D03*
%TO.N,IN2*%
X67500000Y-70250000D03*
%TO.N,GND*%
X68500000Y-35750000D03*
%TO.N,SPI_MISO*%
X68500000Y-41500000D03*
%TO.N,SPI_SCLK*%
X69250000Y-42000000D03*
X69250000Y-45500000D03*
%TO.N,SPI_MISO*%
X70000000Y-47500000D03*
%TO.N,WDT_KICK*%
X71000000Y-32500000D03*
%TO.N,AUX1*%
X71000000Y-41500000D03*
%TO.N,BTN_UP*%
X71000000Y-73500000D03*
%TO.N,BTN_DOWN*%
X71750000Y-74250000D03*
%TO.N,+3V3*%
X71750000Y-96500000D03*
%TO.N,SSR2_CTRL*%
X72250000Y-41500000D03*
%TO.N,BTN_LEFT*%
X72500000Y-75000000D03*
%TO.N,I2C_SDA*%
X73500000Y-52500000D03*
%TO.N,BTN_RIGHT*%
X73750000Y-76250000D03*
%TO.N,I2C_SCL*%
X75500000Y-41500000D03*
%TO.N,+3V3*%
X75750000Y-96500000D03*
%TO.N,LED_DATA*%
X77250000Y-42000000D03*
%TO.N,TC1_CS*%
X77500000Y-40750000D03*
%TO.N,SPI_SCLK*%
X78000000Y-44000000D03*
%TO.N,LED_DATA*%
X78500000Y-58250000D03*
X78500000Y-78500000D03*
X78500000Y-81000000D03*
%TO.N,GND*%
X78750000Y-24500000D03*
%TO.N,I2C_SCL*%
X79750000Y-97250000D03*
%TO.N,IN2*%
X80000000Y-57750000D03*
%TO.N,IO0*%
X80500000Y-41500000D03*
%TO.N,IN3*%
X81000000Y-58750000D03*
%TO.N,I2C_SCL*%
X81250000Y-98750000D03*
%TO.N,BTN_UP*%
X82000000Y-39000000D03*
%TO.N,IO0*%
X82000000Y-40000000D03*
%TO.N,BTN_DOWN*%
X82500000Y-38250000D03*
%TO.N,BTN_LEFT*%
X83250000Y-37750000D03*
%TO.N,BTN_RIGHT*%
X83750000Y-37000000D03*
%TO.N,GND*%
X84000000Y-117750000D03*
%TO.N,BTN_SEL*%
X84500000Y-36500000D03*
%TO.N,RXD0*%
X85000000Y-35750000D03*
%TO.N,BTN_SEL*%
X85000000Y-62000000D03*
X85000000Y-85000000D03*
%TO.N,GND*%
X85750000Y-113750000D03*
%TO.N,TXD0*%
X85750000Y-35250000D03*
%TO.N,RXD0*%
X86000000Y-62000000D03*
%TO.N,IN2*%
X86250000Y-34500000D03*
%TO.N,IN3*%
X86500000Y-33500000D03*
%TO.N,RXD0*%
X87000000Y-87000000D03*
%TO.N,+3V3*%
X87500000Y-112500000D03*
%TO.N,IN2*%
X87500000Y-46250000D03*
%TO.N,I2C_SCL*%
X87500000Y-61250000D03*
%TO.N,+3V3*%
X88000000Y-35000000D03*
X88000000Y-40500000D03*
X88000000Y-47500000D03*
X88000000Y-53000000D03*
%TO.N,ADE_REF*%
X88250000Y-77750000D03*
%TO.N,WS_DIN*%
X88500000Y-95750000D03*
%TO.N,IN3*%
X88750000Y-48750000D03*
%TO.N,I2C_SDA*%
X89250000Y-104750000D03*
%TO.N,TC2_CS*%
X89500000Y-43250000D03*
%TO.N,WS_DIN*%
X89500000Y-94250000D03*
%TO.N,ADE_REF*%
X89750000Y-77750000D03*
%TO.N,ADE_RESET*%
X90250000Y-65250000D03*
%TO.N,GND*%
X90250000Y-70000000D03*
X90250000Y-73500000D03*
%TO.N,I2C_SDA*%
X90250000Y-98000000D03*
%TO.N,ADE_CS*%
X91000000Y-65750000D03*
%TO.N,GND*%
X91000000Y-79000000D03*
%TO.N,TC1_CS*%
X91500000Y-36250000D03*
%TO.N,ADE_RESET*%
X91500000Y-64000000D03*
%TO.N,I2C_SCL*%
X91750000Y-104750000D03*
%TO.N,SPI_MISO*%
X91750000Y-45500000D03*
%TO.N,GND*%
X92000000Y-117750000D03*
X92000000Y-35000000D03*
X92000000Y-40500000D03*
X92000000Y-47500000D03*
X92000000Y-53000000D03*
%TO.N,I2C_SDA*%
X92000000Y-62500000D03*
%TO.N,ADE_CS*%
X92000000Y-67000000D03*
%TO.N,ADE_CLKIN*%
X92000000Y-82250000D03*
X92000000Y-93000000D03*
%TO.N,+3V3*%
X92250000Y-60000000D03*
X92500000Y-74250000D03*
%TO.N,I2C_SCL*%
X92750000Y-100000000D03*
X92750000Y-66250000D03*
%TO.N,I2C_SDA*%
X93000000Y-63500000D03*
%TO.N,ADE_CS*%
X93000000Y-68000000D03*
%TO.N,+3V3*%
X93500000Y-77500000D03*
%TO.N,I2C_SCL*%
X93750000Y-67250000D03*
%TO.N,GND*%
X94250000Y-47000000D03*
%TO.N,CTB_F*%
X94250000Y-77000000D03*
X94250000Y-88250000D03*
%TO.N,GND*%
X94750000Y-100000000D03*
%TO.N,+3V3*%
X95000000Y-43500000D03*
%TO.N,GND*%
X95000000Y-55500000D03*
X95000000Y-79000000D03*
%TO.N,ADE_CLKIN*%
X95000000Y-81250000D03*
%TO.N,CTB_N*%
X95500000Y-86500000D03*
%TO.N,+3V3*%
X96000000Y-65500000D03*
%TO.N,CTB_P*%
X96000000Y-85750000D03*
%TO.N,+3V3*%
X96250000Y-32250000D03*
%TO.N,SPI_SCLK*%
X96250000Y-43500000D03*
%TO.N,TC2_N*%
X96250000Y-55000000D03*
%TO.N,ADE_REF*%
X96250000Y-75500000D03*
%TO.N,ADE_VN*%
X96500000Y-79750000D03*
%TO.N,GND*%
X97000000Y-26000000D03*
%TO.N,SPI_MISO*%
X97000000Y-42750000D03*
X97000000Y-45500000D03*
%TO.N,SPI_SCLK*%
X97250000Y-44500000D03*
%TO.N,GND*%
X97250000Y-74500000D03*
%TO.N,TC1_P_F*%
X97500000Y-32750000D03*
%TO.N,+3V3*%
X97750000Y-55500000D03*
%TO.N,TC2_CS*%
X98500000Y-45750000D03*
%TO.N,GND*%
X99000000Y-32250000D03*
X99000000Y-43500000D03*
X99000000Y-58750000D03*
%TO.N,ADE_CLKOUT*%
X99250000Y-71000000D03*
%TO.N,TC1_P_F*%
X99750000Y-34250000D03*
%TO.N,+3V3*%
X99750000Y-47000000D03*
%TO.N,ADE_CLKIN*%
X99750000Y-71750000D03*
%TD*%
%TO.N,ADE_CS*%
D26*
X100000000Y-64250000D02*
X92500000Y-64250000D01*
%TO.N,ADE_CLKOUT*%
X100250000Y-71000000D02*
X101750000Y-69500000D01*
X100250000Y-71000000D02*
X99250000Y-71000000D01*
%TO.N,CTB_P*%
D27*
X100250000Y-85750000D02*
X96000000Y-85750000D01*
%TO.N,CTB_N*%
X100750000Y-81750000D02*
X97500000Y-85000000D01*
%TO.N,CTB_P*%
X101500000Y-84500000D02*
X100250000Y-85750000D01*
%TO.N,TC2_N_F*%
D26*
X101750000Y-46250000D02*
X100250000Y-47750000D01*
%TO.N,TC1_N_F*%
X102250000Y-35250000D02*
X104750000Y-32750000D01*
X102250000Y-36250000D02*
X101500000Y-36250000D01*
X102250000Y-39000000D02*
X102250000Y-35250000D01*
%TO.N,TC2_N_F*%
X102250000Y-50000000D02*
X103250000Y-49000000D01*
X102250000Y-52000000D02*
X102250000Y-50000000D01*
%TO.N,TC2_N*%
X103250000Y-48000000D02*
X96250000Y-55000000D01*
%TO.N,ADE_CLKOUT*%
X103500000Y-74250000D02*
X100250000Y-71000000D01*
X103500000Y-75250000D02*
X103500000Y-74250000D01*
%TO.N,CTA_N*%
D27*
X104000000Y-85250000D02*
X102250000Y-85250000D01*
%TO.N,CTB_P*%
X105500000Y-84500000D02*
X101500000Y-84500000D01*
%TO.N,CTA_N*%
X105750000Y-87000000D02*
X104000000Y-85250000D01*
%TO.N,TC2_N*%
D26*
X108000000Y-48000000D02*
X103250000Y-48000000D01*
%TO.N,ADE_CLKOUT*%
X109750000Y-88750000D02*
X110750000Y-87750000D01*
X110750000Y-82500000D02*
X103500000Y-75250000D01*
%TO.N,CTA_N*%
D27*
X114000000Y-87000000D02*
X105750000Y-87000000D01*
%TO.N,AUX1_OUT*%
D28*
X26000000Y-57000000D02*
X32500000Y-57000000D01*
%TO.N,AUX2_OUT*%
X26000000Y-62250000D02*
X34500000Y-62250000D01*
%TO.N,LCD_CS*%
D26*
X29250000Y-103750000D02*
X29080000Y-104000000D01*
X29250000Y-84750000D02*
X29250000Y-103750000D01*
%TO.N,LCD_RST*%
X31500000Y-103750000D02*
X31620000Y-104000000D01*
X31500000Y-83500000D02*
X31500000Y-103750000D01*
%TO.N,AUX1_OUT*%
D28*
X32500000Y-57000000D02*
X35000000Y-59500000D01*
%TO.N,+5V*%
D29*
X32750000Y-45000000D02*
X32750000Y-43000000D01*
%TO.N,LCD_DC*%
D26*
X34250000Y-103750000D02*
X34160000Y-104000000D01*
X34250000Y-91750000D02*
X34250000Y-103750000D01*
%TO.N,AUX2_OUT*%
D28*
X34500000Y-62250000D02*
X38000000Y-58750000D01*
%TO.N,IN1*%
D26*
X37750000Y-84750000D02*
X37750000Y-85750000D01*
X37750000Y-85750000D02*
X38500000Y-86500000D01*
X38000000Y-102500000D02*
X38000000Y-105500000D01*
%TO.N,SSR_EN*%
D28*
X38500000Y-85250000D02*
X39750000Y-84000000D01*
%TO.N,IN1*%
D26*
X38750000Y-101750000D02*
X38000000Y-102500000D01*
X38750000Y-88500000D02*
X38750000Y-101750000D01*
X39000000Y-49750000D02*
X39000000Y-51750000D01*
X39000000Y-77000000D02*
X39000000Y-83500000D01*
X39000000Y-83500000D02*
X37750000Y-84750000D01*
%TO.N,SPI_SCLK*%
X39250000Y-103750000D02*
X39240000Y-104000000D01*
%TO.N,SSR2_GATE*%
X39500000Y-90000000D02*
X39500000Y-89000000D01*
%TO.N,AUX_VP*%
D29*
X39750000Y-50750000D02*
X46250000Y-50750000D01*
%TO.N,SSR1_GATE*%
D26*
X39750000Y-73250000D02*
X38250000Y-74750000D01*
%TO.N,SSR1_OUT*%
D27*
X40000000Y-77250000D02*
X49750000Y-77250000D01*
%TO.N,SSR2_GATE*%
D26*
X40250000Y-90750000D02*
X39500000Y-90000000D01*
%TO.N,SSR1_GATE*%
X40500000Y-76500000D02*
X40000000Y-76000000D01*
%TO.N,SSR2_OUT*%
D27*
X40750000Y-90000000D02*
X42750000Y-88000000D01*
%TO.N,SPI_SCLK*%
D26*
X41250000Y-101750000D02*
X39250000Y-103750000D01*
%TO.N,AUX3*%
X41250000Y-55500000D02*
X40000000Y-56750000D01*
%TO.N,SSR2_GATE*%
X41250000Y-90750000D02*
X40250000Y-90750000D01*
X41500000Y-90500000D02*
X41250000Y-90750000D01*
%TO.N,LCD_BL*%
X41750000Y-103750000D02*
X41780000Y-104000000D01*
%TO.N,SSR1_GATE*%
X42000000Y-76500000D02*
X40500000Y-76500000D01*
%TO.N,AUX1*%
X42750000Y-61000000D02*
X42000000Y-60250000D01*
%TO.N,SSR2_GATE*%
X42750000Y-90500000D02*
X41500000Y-90500000D01*
%TO.N,IN3_RAW*%
X43000000Y-116250000D02*
X42250000Y-115500000D01*
%TO.N,SSR_EN*%
D28*
X43250000Y-84000000D02*
X52500000Y-84000000D01*
%TO.N,WDT_KICK*%
D26*
X44000000Y-31250000D02*
X44000000Y-32250000D01*
X44000000Y-32250000D02*
X44750000Y-33000000D01*
%TO.N,IN1*%
X44000000Y-44750000D02*
X39000000Y-49750000D01*
%TO.N,AUX3*%
X44000000Y-55500000D02*
X41250000Y-55500000D01*
%TO.N,AUX2*%
X44000000Y-57750000D02*
X40000000Y-57750000D01*
%TO.N,AUX1*%
X44000000Y-61000000D02*
X42750000Y-61000000D01*
%TO.N,SPI_MISO*%
X44250000Y-103750000D02*
X44320000Y-104000000D01*
%TO.N,WDT_KICK*%
X44250000Y-31000000D02*
X44000000Y-31250000D01*
%TO.N,WDT_HOLD*%
X44500000Y-66250000D02*
X44500000Y-67000000D01*
X44500000Y-71500000D02*
X45500000Y-70500000D01*
%TO.N,WDT_KICK*%
X44750000Y-33000000D02*
X44750000Y-36500000D01*
X44750000Y-36500000D02*
X46250000Y-38000000D01*
%TO.N,IN1*%
X45000000Y-44750000D02*
X44000000Y-44750000D01*
%TO.N,WDT_HOLD*%
X45000000Y-65000000D02*
X45000000Y-65750000D01*
X45000000Y-65750000D02*
X44500000Y-66250000D01*
%TO.N,T_CS*%
X45250000Y-66500000D02*
X45250000Y-67500000D01*
X45250000Y-73500000D02*
X48000000Y-76250000D01*
%TO.N,LCD_BL*%
X45500000Y-100000000D02*
X41750000Y-103750000D01*
%TO.N,WDT_HOLD*%
X45500000Y-70500000D02*
X47750000Y-70500000D01*
%TO.N,LCD_BL*%
X45500000Y-87250000D02*
X45500000Y-100000000D01*
%TO.N,SPI_MISO*%
X45750000Y-102250000D02*
X44250000Y-103750000D01*
%TO.N,CC2*%
X46250000Y-31750000D02*
X44750000Y-31750000D01*
%TO.N,T_CS*%
X46250000Y-65000000D02*
X46250000Y-65500000D01*
X46250000Y-65500000D02*
X45250000Y-66500000D01*
%TO.N,T_IRQ*%
X46250000Y-72500000D02*
X50500000Y-76750000D01*
%TO.N,SSR1_GATE*%
X46250000Y-78500000D02*
X44750000Y-78500000D01*
%TO.N,LCD_DC*%
X46250000Y-79750000D02*
X34250000Y-91750000D01*
%TO.N,SSR_PG*%
X46250000Y-82750000D02*
X44750000Y-82750000D01*
%TO.N,IN1_RAW*%
X47000000Y-112750000D02*
X46500000Y-112250000D01*
%TO.N,T_IRQ*%
X47000000Y-47500000D02*
X47000000Y-66000000D01*
X47000000Y-66000000D02*
X46000000Y-67000000D01*
%TO.N,SSR1_GATE*%
X47000000Y-79250000D02*
X46250000Y-78500000D01*
X47000000Y-80500000D02*
X47000000Y-79250000D01*
%TO.N,USB_DP*%
X47250000Y-31750000D02*
X47250000Y-34750000D01*
X47250000Y-34750000D02*
X48000000Y-35500000D01*
%TO.N,SSR_PG*%
X47250000Y-71250000D02*
X54750000Y-78750000D01*
%TO.N,T_CS*%
X47500000Y-86250000D02*
X47500000Y-93500000D01*
X47500000Y-93500000D02*
X48500000Y-94500000D01*
%TO.N,WDT_KICK*%
X47750000Y-49750000D02*
X48000000Y-50000000D01*
%TO.N,WDT_HOLD*%
X47750000Y-70500000D02*
X51250000Y-74000000D01*
%TO.N,SSR_PG*%
X47750000Y-85250000D02*
X46750000Y-85250000D01*
%TO.N,USB_DN*%
X48000000Y-33250000D02*
X49750000Y-35000000D01*
%TO.N,WDT_KICK*%
X48000000Y-50000000D02*
X48000000Y-52500000D01*
%TO.N,T_CS*%
X48000000Y-76250000D02*
X48000000Y-76500000D01*
%TO.N,USB_DN*%
X48250000Y-31750000D02*
X48250000Y-33000000D01*
X48250000Y-33000000D02*
X48000000Y-33250000D01*
%TO.N,WDT_HOLD*%
X48250000Y-62250000D02*
X48000000Y-62250000D01*
%TO.N,SSR1_GATE*%
X48250000Y-81750000D02*
X47000000Y-80500000D01*
X48250000Y-81750000D02*
X51250000Y-81750000D01*
%TO.N,BUZZ_K*%
D28*
X48500000Y-69000000D02*
X50750000Y-69000000D01*
%TO.N,SPI_MISO*%
D26*
X48750000Y-102250000D02*
X45750000Y-102250000D01*
%TO.N,T_CS*%
X48750000Y-48750000D02*
X48750000Y-59500000D01*
%TO.N,T_CS_R*%
X49000000Y-98500000D02*
X49750000Y-97750000D01*
X49000000Y-99500000D02*
X49000000Y-98500000D01*
X49500000Y-100000000D02*
X49000000Y-99500000D01*
X49500000Y-104000000D02*
X49500000Y-100000000D01*
%TO.N,CC1*%
X49750000Y-31750000D02*
X50500000Y-31750000D01*
%TO.N,USB_DN*%
X49750000Y-35000000D02*
X49750000Y-38000000D01*
%TO.N,WDT_HOLD*%
X49750000Y-60750000D02*
X48250000Y-62250000D01*
%TO.N,SSR2_CTRL*%
X49750000Y-91250000D02*
X48250000Y-92750000D01*
%TO.N,AUX2*%
X50000000Y-47250000D02*
X50000000Y-49500000D01*
%TO.N,SSR2_GATE*%
X50250000Y-90500000D02*
X48250000Y-90500000D01*
%TO.N,CC1*%
X50500000Y-31750000D02*
X51250000Y-32500000D01*
%TO.N,USB_DP*%
X50500000Y-36000000D02*
X52500000Y-38000000D01*
%TO.N,T_IRQ*%
X50500000Y-76750000D02*
X50500000Y-80000000D01*
X50500000Y-80000000D02*
X60500000Y-90000000D01*
%TO.N,SSR2_GATE*%
X50500000Y-90750000D02*
X50250000Y-90500000D01*
X50500000Y-92000000D02*
X50500000Y-90750000D01*
%TO.N,IN1_RAW*%
X50750000Y-112750000D02*
X47000000Y-112750000D01*
%TO.N,BUZZ_K*%
D28*
X50750000Y-69000000D02*
X52000000Y-70250000D01*
%TO.N,SSR_PG*%
D26*
X50750000Y-88250000D02*
X47750000Y-85250000D01*
%TO.N,IN1*%
X51000000Y-38750000D02*
X45000000Y-44750000D01*
%TO.N,SSR_PG*%
X51000000Y-65000000D02*
X49000000Y-67000000D01*
%TO.N,WDT_KICK*%
X51250000Y-31000000D02*
X44250000Y-31000000D01*
%TO.N,WDT_HOLD*%
X51250000Y-74000000D02*
X51250000Y-74250000D01*
X51250000Y-74250000D02*
X51500000Y-74500000D01*
%TO.N,SSR1_GATE*%
X51250000Y-81750000D02*
X52750000Y-83250000D01*
%TO.N,SSR2_IND_K*%
X51250000Y-87500000D02*
X51500000Y-87500000D01*
%TO.N,SSR2_CTRL*%
X51500000Y-71000000D02*
X51500000Y-73250000D01*
X51500000Y-73250000D02*
X52000000Y-73750000D01*
%TO.N,WDT_HOLD*%
X51500000Y-74500000D02*
X53250000Y-74500000D01*
%TO.N,SSR2_IND_K*%
X51500000Y-87500000D02*
X52750000Y-86250000D01*
%TO.N,T_DIN_R*%
X52000000Y-104000000D02*
X53250000Y-102750000D01*
%TO.N,SSR2_CTRL*%
X52000000Y-64500000D02*
X52000000Y-68750000D01*
%TO.N,BUZZ_K*%
D28*
X52000000Y-70250000D02*
X52250000Y-70250000D01*
%TO.N,SSR2_GATE*%
D26*
X52000000Y-93500000D02*
X50500000Y-92000000D01*
X52000000Y-93500000D02*
X54750000Y-93500000D01*
%TO.N,BUZZ_K*%
D28*
X52250000Y-70250000D02*
X53250000Y-71250000D01*
%TO.N,T_CS*%
D26*
X52500000Y-40750000D02*
X52500000Y-41000000D01*
X52500000Y-41000000D02*
X49500000Y-44000000D01*
%TO.N,SSR_EN*%
D28*
X52500000Y-84000000D02*
X54750000Y-86250000D01*
%TO.N,T_CLK_R*%
D26*
X52750000Y-102000000D02*
X49750000Y-99000000D01*
%TO.N,IN2_RAW*%
X52750000Y-115500000D02*
X52750000Y-113250000D01*
%TO.N,LCD_BL*%
X52750000Y-65000000D02*
X52750000Y-67000000D01*
%TO.N,IN3*%
X53000000Y-109000000D02*
X50000000Y-112000000D01*
%TO.N,WDT_PUMP*%
X53000000Y-48250000D02*
X53000000Y-48750000D01*
X53000000Y-48750000D02*
X51000000Y-50750000D01*
%TO.N,T_DIN_R*%
X53250000Y-102500000D02*
X53500000Y-102500000D01*
X53250000Y-102750000D02*
X53250000Y-102500000D01*
%TO.N,IN3_RAW*%
X53250000Y-116250000D02*
X43000000Y-116250000D01*
%TO.N,IN1*%
X53250000Y-38750000D02*
X51000000Y-38750000D01*
%TO.N,BUZZ_K*%
D28*
X53250000Y-71250000D02*
X53250000Y-71500000D01*
X53250000Y-71500000D02*
X60750000Y-71500000D01*
%TO.N,WDT_HOLD*%
D26*
X53250000Y-74500000D02*
X55500000Y-72250000D01*
%TO.N,T_DIN_R*%
X53500000Y-102500000D02*
X53750000Y-102250000D01*
%TO.N,IN3_RAW*%
X53500000Y-116000000D02*
X53250000Y-116250000D01*
%TO.N,WDT_KICK*%
X53500000Y-28750000D02*
X51250000Y-31000000D01*
%TO.N,T_DIN_R*%
X53750000Y-102250000D02*
X53750000Y-99000000D01*
%TO.N,LCD_DC*%
X53750000Y-64750000D02*
X53750000Y-67000000D01*
%TO.N,WDT_PUMP*%
X54000000Y-54750000D02*
X57000000Y-51750000D01*
%TO.N,LCD_CS*%
X54000000Y-56750000D02*
X54000000Y-60000000D01*
X54000000Y-60000000D02*
X29250000Y-84750000D01*
%TO.N,SSR1_IND_K*%
X54000000Y-76750000D02*
X55000000Y-76750000D01*
%TO.N,SSR_PG*%
X54000000Y-88250000D02*
X50750000Y-88250000D01*
%TO.N,AUX2*%
X54250000Y-43000000D02*
X50000000Y-47250000D01*
X54500000Y-42750000D02*
X54500000Y-43000000D01*
X54500000Y-43000000D02*
X54250000Y-43000000D01*
%TO.N,USB_DN*%
X54500000Y-44250000D02*
X58750000Y-44250000D01*
%TO.N,SSR_PG*%
X54500000Y-56000000D02*
X53500000Y-56000000D01*
%TO.N,AUX2*%
X54750000Y-42750000D02*
X54500000Y-42750000D01*
%TO.N,SSR_PG*%
X54750000Y-56250000D02*
X54500000Y-56000000D01*
X54750000Y-57000000D02*
X54750000Y-56250000D01*
%TO.N,SPI_MOSI*%
X54750000Y-65000000D02*
X54750000Y-67000000D01*
%TO.N,SSR_PG*%
X54750000Y-78750000D02*
X55500000Y-78750000D01*
%TO.N,SSR1_IND_K*%
X55000000Y-76750000D02*
X55500000Y-77250000D01*
%TO.N,SSR_PG*%
X55250000Y-57500000D02*
X54750000Y-57000000D01*
X55750000Y-86500000D02*
X54000000Y-88250000D01*
%TO.N,AUX3*%
X56000000Y-43000000D02*
X56000000Y-43500000D01*
%TO.N,WDT_HOLD*%
X56000000Y-51250000D02*
X56000000Y-51500000D01*
%TO.N,SSR_PG*%
X56000000Y-86500000D02*
X55750000Y-86500000D01*
%TO.N,WDT_HOLD*%
X56500000Y-50750000D02*
X56000000Y-51250000D01*
%TO.N,SSR_PG*%
X56750000Y-83000000D02*
X56750000Y-85000000D01*
X56750000Y-85000000D02*
X57000000Y-85250000D01*
%TO.N,WDT_PUMP*%
X57000000Y-51750000D02*
X57000000Y-51500000D01*
%TO.N,WDT_HOLD*%
X57500000Y-50750000D02*
X56500000Y-50750000D01*
X57750000Y-51000000D02*
X57500000Y-50750000D01*
%TO.N,USB_DP*%
X58000000Y-38250000D02*
X62000000Y-34250000D01*
%TO.N,SSR1_CTRL*%
X58250000Y-79500000D02*
X51250000Y-79500000D01*
%TO.N,IN3_RAW*%
X58500000Y-116000000D02*
X53500000Y-116000000D01*
%TO.N,ALARM*%
X58500000Y-48750000D02*
X60250000Y-50500000D01*
%TO.N,USB_DN*%
X58750000Y-44250000D02*
X62500000Y-40500000D01*
%TO.N,WDT_HOLD*%
X59500000Y-51000000D02*
X57750000Y-51000000D01*
X59500000Y-67000000D02*
X64500000Y-62000000D01*
%TO.N,SPI_SCLK*%
X59750000Y-65000000D02*
X54000000Y-70750000D01*
%TO.N,ALARM*%
X60250000Y-50500000D02*
X64250000Y-50500000D01*
%TO.N,USB_DP*%
X62000000Y-34250000D02*
X63000000Y-34250000D01*
%TO.N,IN1*%
X62500000Y-29500000D02*
X53250000Y-38750000D01*
%TO.N,T_CS*%
X62500000Y-30750000D02*
X52500000Y-40750000D01*
%TO.N,T_IRQ*%
X62500000Y-32000000D02*
X47000000Y-47500000D01*
%TO.N,AUX2*%
X62500000Y-35000000D02*
X54750000Y-42750000D01*
%TO.N,AUX3*%
X62500000Y-36500000D02*
X56000000Y-43000000D01*
%TO.N,ALARM*%
X62750000Y-67250000D02*
X62750000Y-71500000D01*
%TO.N,USB_DP*%
X63000000Y-34250000D02*
X64000000Y-35250000D01*
%TO.N,ALARM*%
X63250000Y-37250000D02*
X63250000Y-37750000D01*
X63250000Y-37750000D02*
X60000000Y-41000000D01*
%TO.N,BUZZ_K*%
D28*
X63500000Y-70000000D02*
X63750000Y-69750000D01*
%TO.N,LCD_RST*%
D26*
X63750000Y-51250000D02*
X31500000Y-83500000D01*
%TO.N,LCD_DC*%
X63750000Y-54750000D02*
X53750000Y-64750000D01*
%TO.N,BUZZ_K*%
D28*
X63750000Y-69500000D02*
X64000000Y-69250000D01*
X63750000Y-69750000D02*
X63750000Y-69500000D01*
%TO.N,USB_DP*%
D26*
X64000000Y-35250000D02*
X64000000Y-40250000D01*
X64000000Y-40250000D02*
X63500000Y-40750000D01*
%TO.N,ALARM*%
X64000000Y-64750000D02*
X64000000Y-66000000D01*
X64000000Y-66000000D02*
X62750000Y-67250000D01*
%TO.N,BUZZ_K*%
D28*
X64000000Y-69250000D02*
X65500000Y-69250000D01*
%TO.N,ALARM*%
D26*
X64250000Y-50500000D02*
X64500000Y-50750000D01*
%TO.N,WDT_HOLD*%
X64500000Y-49750000D02*
X62250000Y-49750000D01*
%TO.N,ALARM*%
X64500000Y-50750000D02*
X64500000Y-61250000D01*
%TO.N,WDT_HOLD*%
X64500000Y-62000000D02*
X65000000Y-62000000D01*
%TO.N,SPI_MISO*%
X64750000Y-66500000D02*
X63500000Y-67750000D01*
%TO.N,SSR2_CTRL*%
X65000000Y-40250000D02*
X62000000Y-43250000D01*
%TO.N,WDT_HOLD*%
X65000000Y-61750000D02*
X65250000Y-61750000D01*
X65000000Y-62000000D02*
X65000000Y-61750000D01*
%TO.N,I2C_SDA*%
X65250000Y-42000000D02*
X65250000Y-44250000D01*
X65250000Y-44250000D02*
X73500000Y-52500000D01*
%TO.N,WDT_HOLD*%
X65250000Y-50500000D02*
X64500000Y-49750000D01*
X65250000Y-61750000D02*
X65250000Y-50500000D01*
%TO.N,AUX1*%
X65500000Y-40750000D02*
X49750000Y-56500000D01*
%TO.N,BUZZ_K*%
D28*
X65500000Y-67250000D02*
X65750000Y-67000000D01*
X65500000Y-69250000D02*
X65500000Y-67250000D01*
%TO.N,BUZZ_GATE*%
D26*
X65750000Y-75250000D02*
X64250000Y-76750000D01*
X66000000Y-71500000D02*
X64500000Y-70000000D01*
X66000000Y-72750000D02*
X66000000Y-71500000D01*
%TO.N,SSR1_CTRL*%
X66250000Y-52500000D02*
X66250000Y-61500000D01*
X66250000Y-61500000D02*
X60750000Y-67000000D01*
X66500000Y-41500000D02*
X66500000Y-44250000D01*
X66500000Y-44250000D02*
X67000000Y-44750000D01*
%TO.N,WDT_KICK*%
X67250000Y-28750000D02*
X53500000Y-28750000D01*
%TO.N,SPI_MISO*%
X68500000Y-41500000D02*
X68500000Y-46000000D01*
X68500000Y-46000000D02*
X70000000Y-47500000D01*
%TO.N,AUX1*%
X69250000Y-40750000D02*
X65500000Y-40750000D01*
%TO.N,SPI_SCLK*%
X69250000Y-42000000D02*
X69250000Y-45500000D01*
X69250000Y-44000000D02*
X78000000Y-44000000D01*
%TO.N,IN3_RAW*%
X70000000Y-115750000D02*
X66250000Y-115750000D01*
%TO.N,AUX1*%
X70000000Y-41500000D02*
X69250000Y-40750000D01*
%TO.N,WDT_KICK*%
X71000000Y-32500000D02*
X67250000Y-28750000D01*
%TO.N,SSR2_CTRL*%
X71000000Y-40250000D02*
X65000000Y-40250000D01*
%TO.N,AUX1*%
X71000000Y-41500000D02*
X70000000Y-41500000D01*
%TO.N,IN3_RAW*%
X71750000Y-114000000D02*
X70000000Y-115750000D01*
%TO.N,BTN_SEL*%
X72250000Y-103750000D02*
X72160000Y-104000000D01*
%TO.N,SSR2_CTRL*%
X72250000Y-41500000D02*
X71000000Y-40250000D01*
%TO.N,IN3_RAW*%
X74250000Y-114000000D02*
X71750000Y-114000000D01*
%TO.N,I2C_SCL*%
X75500000Y-41500000D02*
X84750000Y-32250000D01*
%TO.N,LED_DATA*%
X77250000Y-42000000D02*
X78750000Y-43500000D01*
%TO.N,TC1_CS*%
X77500000Y-40750000D02*
X78000000Y-40750000D01*
X78000000Y-40750000D02*
X86000000Y-32750000D01*
%TO.N,LED_DATA*%
X78500000Y-78500000D02*
X78500000Y-81000000D01*
X78750000Y-43500000D02*
X78750000Y-58000000D01*
X78750000Y-58000000D02*
X78500000Y-58250000D01*
%TO.N,IN2*%
X80000000Y-57750000D02*
X67500000Y-70250000D01*
%TO.N,IO0*%
X80500000Y-41500000D02*
X82000000Y-40000000D01*
%TO.N,IN3*%
X81000000Y-58750000D02*
X64250000Y-75500000D01*
%TO.N,I2C_SCL*%
X81250000Y-98750000D02*
X79750000Y-97250000D01*
%TO.N,BTN_UP*%
X82000000Y-39000000D02*
X82250000Y-39250000D01*
X82250000Y-39250000D02*
X82500000Y-39250000D01*
%TO.N,BTN_DOWN*%
X82500000Y-38250000D02*
X83250000Y-39000000D01*
%TO.N,BTN_UP*%
X82500000Y-39250000D02*
X82750000Y-39500000D01*
X82750000Y-39500000D02*
X82750000Y-61750000D01*
X82750000Y-61750000D02*
X71000000Y-73500000D01*
%TO.N,BTN_LEFT*%
X83250000Y-37750000D02*
X83250000Y-38000000D01*
X83250000Y-38000000D02*
X83750000Y-38500000D01*
%TO.N,BTN_DOWN*%
X83250000Y-39000000D02*
X83250000Y-62750000D01*
X83250000Y-62750000D02*
X71750000Y-74250000D01*
%TO.N,BTN_RIGHT*%
X83750000Y-37000000D02*
X84250000Y-37500000D01*
%TO.N,BTN_LEFT*%
X83750000Y-38500000D02*
X83750000Y-63750000D01*
X83750000Y-63750000D02*
X72500000Y-75000000D01*
%TO.N,BTN_RIGHT*%
X84250000Y-37500000D02*
X84250000Y-65750000D01*
X84250000Y-65750000D02*
X73750000Y-76250000D01*
%TO.N,BTN_SEL*%
X84500000Y-36500000D02*
X84500000Y-36750000D01*
X84500000Y-36750000D02*
X85000000Y-37250000D01*
%TO.N,I2C_SCL*%
X84750000Y-32250000D02*
X90500000Y-32250000D01*
%TO.N,TXD0*%
X85000000Y-103750000D02*
X85080000Y-104000000D01*
%TO.N,RXD0*%
X85000000Y-35750000D02*
X86000000Y-36750000D01*
%TO.N,BTN_SEL*%
X85000000Y-37250000D02*
X85000000Y-62000000D01*
X85000000Y-85000000D02*
X85000000Y-91000000D01*
X85000000Y-91000000D02*
X72250000Y-103750000D01*
%TO.N,TXD0*%
X85500000Y-103250000D02*
X85000000Y-103750000D01*
X85500000Y-87250000D02*
X85500000Y-103250000D01*
X85750000Y-35250000D02*
X85750000Y-35500000D01*
X85750000Y-35500000D02*
X86750000Y-36500000D01*
%TO.N,TC1_CS*%
X86000000Y-32750000D02*
X88000000Y-32750000D01*
%TO.N,RXD0*%
X86000000Y-36750000D02*
X86000000Y-62000000D01*
%TO.N,IN2*%
X86250000Y-34500000D02*
X87250000Y-35500000D01*
%TO.N,IN3*%
X86500000Y-33500000D02*
X87250000Y-34250000D01*
%TO.N,TXD0*%
X86750000Y-36500000D02*
X86750000Y-86000000D01*
X86750000Y-86000000D02*
X85500000Y-87250000D01*
%TO.N,RXD0*%
X87000000Y-87000000D02*
X87500000Y-87500000D01*
%TO.N,IN3*%
X87250000Y-34250000D02*
X88500000Y-34250000D01*
%TO.N,IN2*%
X87250000Y-35500000D02*
X87250000Y-46000000D01*
X87250000Y-46000000D02*
X87500000Y-46250000D01*
%TO.N,RXD0*%
X87500000Y-103750000D02*
X87620000Y-104000000D01*
%TO.N,I2C_SDA*%
X87500000Y-66750000D02*
X87500000Y-86250000D01*
X87500000Y-86250000D02*
X90250000Y-89000000D01*
%TO.N,RXD0*%
X87500000Y-87500000D02*
X87500000Y-103750000D01*
%TO.N,TC1_CS*%
X88000000Y-32750000D02*
X91500000Y-36250000D01*
%TO.N,ADE_REF*%
X88250000Y-77750000D02*
X89750000Y-77750000D01*
%TO.N,IN3*%
X88500000Y-34250000D02*
X88750000Y-34500000D01*
%TO.N,WS_DIN*%
X88500000Y-95750000D02*
X89500000Y-94750000D01*
%TO.N,IN3*%
X88750000Y-34500000D02*
X88750000Y-48750000D01*
%TO.N,TC2_CS*%
X89500000Y-43250000D02*
X91000000Y-44750000D01*
%TO.N,ADE_REF*%
X89500000Y-68250000D02*
X92250000Y-65500000D01*
X89500000Y-77750000D02*
X89500000Y-68250000D01*
%TO.N,WS_DIN*%
X89500000Y-94750000D02*
X89500000Y-94250000D01*
%TO.N,I2C_SDA*%
X90250000Y-103750000D02*
X89250000Y-104750000D01*
X90250000Y-103750000D02*
X90160000Y-104000000D01*
X90250000Y-89000000D02*
X90250000Y-103750000D01*
%TO.N,I2C_SCL*%
X90500000Y-32250000D02*
X99750000Y-41500000D01*
%TO.N,TC2_CS*%
X91000000Y-44750000D02*
X91000000Y-46000000D01*
X91000000Y-46000000D02*
X91250000Y-46250000D01*
%TO.N,I2C_SDA*%
X91000000Y-63250000D02*
X87500000Y-66750000D01*
%TO.N,TC2_CS*%
X91250000Y-46250000D02*
X98000000Y-46250000D01*
%TO.N,I2C_SDA*%
X91250000Y-63250000D02*
X91000000Y-63250000D01*
%TO.N,ADE_RESET*%
X91500000Y-64000000D02*
X90250000Y-65250000D01*
%TO.N,SPI_MISO*%
X91750000Y-45500000D02*
X94500000Y-42750000D01*
%TO.N,I2C_SDA*%
X92000000Y-62500000D02*
X91250000Y-63250000D01*
X92000000Y-62500000D02*
X93000000Y-63500000D01*
%TO.N,ADE_CS*%
X92000000Y-67000000D02*
X93000000Y-68000000D01*
%TO.N,ADE_CLKIN*%
X92000000Y-93000000D02*
X92000000Y-82250000D01*
%TO.N,ADE_REF*%
X92250000Y-65500000D02*
X93250000Y-65500000D01*
%TO.N,ADE_CS*%
X92500000Y-64250000D02*
X91000000Y-65750000D01*
%TO.N,I2C_SCL*%
X92750000Y-103750000D02*
X91750000Y-104750000D01*
X92750000Y-103750000D02*
X92700000Y-104000000D01*
X92750000Y-52750000D02*
X92750000Y-56000000D01*
X92750000Y-56000000D02*
X87500000Y-61250000D01*
X92750000Y-66250000D02*
X93750000Y-67250000D01*
X92750000Y-77000000D02*
X92750000Y-103750000D01*
%TO.N,ADE_REF*%
X93250000Y-65500000D02*
X96250000Y-68500000D01*
%TO.N,I2C_SCL*%
X93750000Y-67250000D02*
X93750000Y-76000000D01*
X93750000Y-76000000D02*
X92750000Y-77000000D01*
%TO.N,CTB_F*%
X94250000Y-88250000D02*
X94250000Y-77000000D01*
%TO.N,SPI_MISO*%
X94500000Y-42750000D02*
X97000000Y-42750000D01*
%TO.N,ADE_CLKIN*%
X95000000Y-80250000D02*
X99750000Y-75500000D01*
X95000000Y-81250000D02*
X95000000Y-80250000D01*
%TO.N,CTB_N*%
D27*
X95250000Y-85250000D02*
X95250000Y-86250000D01*
X95250000Y-86250000D02*
X95500000Y-86500000D01*
X95500000Y-85000000D02*
X95250000Y-85250000D01*
%TO.N,SPI_SCLK*%
D26*
X96250000Y-43500000D02*
X97250000Y-44500000D01*
%TO.N,ADE_REF*%
X96250000Y-68500000D02*
X96250000Y-75500000D01*
%TO.N,SPI_MISO*%
X97000000Y-42750000D02*
X97000000Y-43000000D01*
X97000000Y-43000000D02*
X98000000Y-44000000D01*
X97500000Y-45500000D02*
X97000000Y-45500000D01*
%TO.N,CTB_N*%
D27*
X97500000Y-85000000D02*
X95500000Y-85000000D01*
%TO.N,SPI_MISO*%
D26*
X98000000Y-44000000D02*
X98000000Y-45000000D01*
X98000000Y-45000000D02*
X97500000Y-45500000D01*
%TO.N,TC2_CS*%
X98000000Y-46250000D02*
X98500000Y-45750000D01*
%TO.N,ADE_VN*%
X98500000Y-81750000D02*
X96500000Y-79750000D01*
%TO.N,TC1_P_F*%
X99000000Y-34250000D02*
X97500000Y-32750000D01*
X99750000Y-34250000D02*
X99000000Y-34250000D01*
%TO.N,I2C_SCL*%
X99750000Y-41500000D02*
X99750000Y-45750000D01*
X99750000Y-45750000D02*
X92750000Y-52750000D01*
%TO.N,ADE_CLKIN*%
X99750000Y-75500000D02*
X99750000Y-71750000D01*
%TD*%
M02*
