%TF.GenerationSoftware,KiCad,Pcbnew,7.0.11+dfsg-1build4*%
%TF.CreationDate,2026-07-21T20:06:51+00:00*%
%TF.ProjectId,bisque-controller,62697371-7565-42d6-936f-6e74726f6c6c,rev?*%
%TF.SameCoordinates,Original*%
%TF.FileFunction,Soldermask,Bot*%
%TF.FilePolarity,Negative*%
%FSLAX46Y46*%
G04 Gerber Fmt 4.6, Leading zero omitted, Abs format (unit mm)*
G04 Created by KiCad (PCBNEW 7.0.11+dfsg-1build4) date 2026-07-21 20:06:51*
%MOMM*%
%LPD*%
G01*
G04 APERTURE LIST*
G04 Aperture macros list*
%AMRoundRect*
0 Rectangle with rounded corners*
0 $1 Rounding radius*
0 $2 $3 $4 $5 $6 $7 $8 $9 X,Y pos of 4 corners*
0 Add a 4 corners polygon primitive as box body*
4,1,4,$2,$3,$4,$5,$6,$7,$8,$9,$2,$3,0*
0 Add four circle primitives for the rounded corners*
1,1,$1+$1,$2,$3*
1,1,$1+$1,$4,$5*
1,1,$1+$1,$6,$7*
1,1,$1+$1,$8,$9*
0 Add four rect primitives between the rounded corners*
20,1,$1+$1,$2,$3,$4,$5,0*
20,1,$1+$1,$4,$5,$6,$7,0*
20,1,$1+$1,$6,$7,$8,$9,0*
20,1,$1+$1,$8,$9,$2,$3,0*%
G04 Aperture macros list end*
%ADD10RoundRect,0.250000X-0.620000X-0.845000X0.620000X-0.845000X0.620000X0.845000X-0.620000X0.845000X0*%
%ADD11O,1.740000X2.190000*%
%ADD12R,2.600000X2.600000*%
%ADD13C,2.600000*%
%ADD14R,2.000000X2.000000*%
%ADD15C,2.000000*%
%ADD16C,0.800000*%
%ADD17C,6.400000*%
%ADD18C,0.650000*%
%ADD19O,1.000000X2.100000*%
%ADD20O,1.000000X1.600000*%
G04 APERTURE END LIST*
D10*
%TO.C,J5*%
X24500000Y-95000000D03*
D11*
X27040000Y-95000000D03*
X29580000Y-95000000D03*
X32120000Y-95000000D03*
X34660000Y-95000000D03*
X37200000Y-95000000D03*
X39740000Y-95000000D03*
X42280000Y-95000000D03*
%TD*%
D12*
%TO.C,J2*%
X27000000Y-33000000D03*
D13*
X27000000Y-38080000D03*
%TD*%
D14*
%TO.C,BZ1*%
X38000000Y-78000000D03*
D15*
X45600000Y-78000000D03*
%TD*%
D16*
%TO.C,H4*%
X113100000Y-95500000D03*
X113802944Y-93802944D03*
X113802944Y-97197056D03*
X115500000Y-93100000D03*
D17*
X115500000Y-95500000D03*
D16*
X115500000Y-97900000D03*
X117197056Y-93802944D03*
X117197056Y-97197056D03*
X117900000Y-95500000D03*
%TD*%
%TO.C,H1*%
X22100000Y-24500000D03*
X22802944Y-22802944D03*
X22802944Y-26197056D03*
X24500000Y-22100000D03*
D17*
X24500000Y-24500000D03*
D16*
X24500000Y-26900000D03*
X26197056Y-22802944D03*
X26197056Y-26197056D03*
X26900000Y-24500000D03*
%TD*%
%TO.C,H2*%
X113100000Y-24500000D03*
X113802944Y-22802944D03*
X113802944Y-26197056D03*
X115500000Y-22100000D03*
D17*
X115500000Y-24500000D03*
D16*
X115500000Y-26900000D03*
X117197056Y-22802944D03*
X117197056Y-26197056D03*
X117900000Y-24500000D03*
%TD*%
D15*
%TO.C,SW1*%
X55000000Y-22500000D03*
X61500000Y-22500000D03*
X55000000Y-27000000D03*
X61500000Y-27000000D03*
%TD*%
%TO.C,SW2*%
X101000000Y-47000000D03*
X107500000Y-47000000D03*
X101000000Y-51500000D03*
X107500000Y-51500000D03*
%TD*%
D12*
%TO.C,J3*%
X114000000Y-65000000D03*
D13*
X114000000Y-59920000D03*
%TD*%
D16*
%TO.C,H3*%
X22100000Y-68000000D03*
X22802944Y-66302944D03*
X22802944Y-69697056D03*
X24500000Y-65600000D03*
D17*
X24500000Y-68000000D03*
D16*
X24500000Y-70400000D03*
X26197056Y-66302944D03*
X26197056Y-69697056D03*
X26900000Y-68000000D03*
%TD*%
D10*
%TO.C,J6*%
X46000000Y-95000000D03*
D11*
X48540000Y-95000000D03*
X51080000Y-95000000D03*
X53620000Y-95000000D03*
X56160000Y-95000000D03*
X58700000Y-95000000D03*
%TD*%
D12*
%TO.C,J4*%
X27000000Y-55000000D03*
D13*
X27000000Y-60080000D03*
%TD*%
D10*
%TO.C,J7*%
X64000000Y-95000000D03*
D11*
X66540000Y-95000000D03*
X69080000Y-95000000D03*
X71620000Y-95000000D03*
X74160000Y-95000000D03*
X76700000Y-95000000D03*
X79240000Y-95000000D03*
X81780000Y-95000000D03*
%TD*%
D18*
%TO.C,J1*%
X86110000Y-93000000D03*
X91890000Y-93000000D03*
D19*
X84680000Y-92470000D03*
D20*
X84680000Y-96650000D03*
D19*
X93320000Y-92470000D03*
D20*
X93320000Y-96650000D03*
%TD*%
M02*
