%TF.GenerationSoftware,KiCad,Pcbnew,10.0.4*%
%TF.CreationDate,2026-07-21T19:34:37-07:00*%
%TF.ProjectId,bisque-controller,62697371-7565-42d6-936f-6e74726f6c6c,rev?*%
%TF.SameCoordinates,Original*%
%TF.FileFunction,Legend,Top*%
%TF.FilePolarity,Positive*%
%FSLAX46Y46*%
G04 Gerber Fmt 4.6, Leading zero omitted, Abs format (unit mm)*
G04 Created by KiCad (PCBNEW 10.0.4) date 2026-07-21 19:34:37*
%MOMM*%
%LPD*%
G01*
G04 APERTURE LIST*
%ADD10C,0.120000*%
%ADD11C,0.135000*%
%ADD12C,0.150000*%
%ADD13C,0.180000*%
%ADD14C,0.224999*%
G04 APERTURE END LIST*
D10*
X30009523Y-98513855D02*
X30504761Y-98513855D01*
X30504761Y-98513855D02*
X30238095Y-98818617D01*
X30238095Y-98818617D02*
X30352380Y-98818617D01*
X30352380Y-98818617D02*
X30428571Y-98856712D01*
X30428571Y-98856712D02*
X30466666Y-98894807D01*
X30466666Y-98894807D02*
X30504761Y-98970998D01*
X30504761Y-98970998D02*
X30504761Y-99161474D01*
X30504761Y-99161474D02*
X30466666Y-99237664D01*
X30466666Y-99237664D02*
X30428571Y-99275760D01*
X30428571Y-99275760D02*
X30352380Y-99313855D01*
X30352380Y-99313855D02*
X30123809Y-99313855D01*
X30123809Y-99313855D02*
X30047618Y-99275760D01*
X30047618Y-99275760D02*
X30009523Y-99237664D01*
X30733333Y-98513855D02*
X31000000Y-99313855D01*
X31000000Y-99313855D02*
X31266666Y-98513855D01*
X31457142Y-98513855D02*
X31952380Y-98513855D01*
X31952380Y-98513855D02*
X31685714Y-98818617D01*
X31685714Y-98818617D02*
X31799999Y-98818617D01*
X31799999Y-98818617D02*
X31876190Y-98856712D01*
X31876190Y-98856712D02*
X31914285Y-98894807D01*
X31914285Y-98894807D02*
X31952380Y-98970998D01*
X31952380Y-98970998D02*
X31952380Y-99161474D01*
X31952380Y-99161474D02*
X31914285Y-99237664D01*
X31914285Y-99237664D02*
X31876190Y-99275760D01*
X31876190Y-99275760D02*
X31799999Y-99313855D01*
X31799999Y-99313855D02*
X31571428Y-99313855D01*
X31571428Y-99313855D02*
X31495237Y-99275760D01*
X31495237Y-99275760D02*
X31457142Y-99237664D01*
X32930476Y-98551950D02*
X32854286Y-98513855D01*
X32854286Y-98513855D02*
X32740000Y-98513855D01*
X32740000Y-98513855D02*
X32625714Y-98551950D01*
X32625714Y-98551950D02*
X32549524Y-98628140D01*
X32549524Y-98628140D02*
X32511429Y-98704331D01*
X32511429Y-98704331D02*
X32473333Y-98856712D01*
X32473333Y-98856712D02*
X32473333Y-98970998D01*
X32473333Y-98970998D02*
X32511429Y-99123379D01*
X32511429Y-99123379D02*
X32549524Y-99199569D01*
X32549524Y-99199569D02*
X32625714Y-99275760D01*
X32625714Y-99275760D02*
X32740000Y-99313855D01*
X32740000Y-99313855D02*
X32816191Y-99313855D01*
X32816191Y-99313855D02*
X32930476Y-99275760D01*
X32930476Y-99275760D02*
X32968572Y-99237664D01*
X32968572Y-99237664D02*
X32968572Y-98970998D01*
X32968572Y-98970998D02*
X32816191Y-98970998D01*
X33311429Y-99313855D02*
X33311429Y-98513855D01*
X33311429Y-98513855D02*
X33768572Y-99313855D01*
X33768572Y-99313855D02*
X33768572Y-98513855D01*
X34149524Y-99313855D02*
X34149524Y-98513855D01*
X34149524Y-98513855D02*
X34340000Y-98513855D01*
X34340000Y-98513855D02*
X34454286Y-98551950D01*
X34454286Y-98551950D02*
X34530476Y-98628140D01*
X34530476Y-98628140D02*
X34568571Y-98704331D01*
X34568571Y-98704331D02*
X34606667Y-98856712D01*
X34606667Y-98856712D02*
X34606667Y-98970998D01*
X34606667Y-98970998D02*
X34568571Y-99123379D01*
X34568571Y-99123379D02*
X34530476Y-99199569D01*
X34530476Y-99199569D02*
X34454286Y-99275760D01*
X34454286Y-99275760D02*
X34340000Y-99313855D01*
X34340000Y-99313855D02*
X34149524Y-99313855D01*
X35946667Y-99237664D02*
X35908571Y-99275760D01*
X35908571Y-99275760D02*
X35794286Y-99313855D01*
X35794286Y-99313855D02*
X35718095Y-99313855D01*
X35718095Y-99313855D02*
X35603809Y-99275760D01*
X35603809Y-99275760D02*
X35527619Y-99199569D01*
X35527619Y-99199569D02*
X35489524Y-99123379D01*
X35489524Y-99123379D02*
X35451428Y-98970998D01*
X35451428Y-98970998D02*
X35451428Y-98856712D01*
X35451428Y-98856712D02*
X35489524Y-98704331D01*
X35489524Y-98704331D02*
X35527619Y-98628140D01*
X35527619Y-98628140D02*
X35603809Y-98551950D01*
X35603809Y-98551950D02*
X35718095Y-98513855D01*
X35718095Y-98513855D02*
X35794286Y-98513855D01*
X35794286Y-98513855D02*
X35908571Y-98551950D01*
X35908571Y-98551950D02*
X35946667Y-98590045D01*
X36251428Y-99275760D02*
X36365714Y-99313855D01*
X36365714Y-99313855D02*
X36556190Y-99313855D01*
X36556190Y-99313855D02*
X36632381Y-99275760D01*
X36632381Y-99275760D02*
X36670476Y-99237664D01*
X36670476Y-99237664D02*
X36708571Y-99161474D01*
X36708571Y-99161474D02*
X36708571Y-99085283D01*
X36708571Y-99085283D02*
X36670476Y-99009093D01*
X36670476Y-99009093D02*
X36632381Y-98970998D01*
X36632381Y-98970998D02*
X36556190Y-98932902D01*
X36556190Y-98932902D02*
X36403809Y-98894807D01*
X36403809Y-98894807D02*
X36327619Y-98856712D01*
X36327619Y-98856712D02*
X36289524Y-98818617D01*
X36289524Y-98818617D02*
X36251428Y-98742426D01*
X36251428Y-98742426D02*
X36251428Y-98666236D01*
X36251428Y-98666236D02*
X36289524Y-98590045D01*
X36289524Y-98590045D02*
X36327619Y-98551950D01*
X36327619Y-98551950D02*
X36403809Y-98513855D01*
X36403809Y-98513855D02*
X36594286Y-98513855D01*
X36594286Y-98513855D02*
X36708571Y-98551950D01*
X38181905Y-99313855D02*
X37915238Y-98932902D01*
X37724762Y-99313855D02*
X37724762Y-98513855D01*
X37724762Y-98513855D02*
X38029524Y-98513855D01*
X38029524Y-98513855D02*
X38105714Y-98551950D01*
X38105714Y-98551950D02*
X38143809Y-98590045D01*
X38143809Y-98590045D02*
X38181905Y-98666236D01*
X38181905Y-98666236D02*
X38181905Y-98780521D01*
X38181905Y-98780521D02*
X38143809Y-98856712D01*
X38143809Y-98856712D02*
X38105714Y-98894807D01*
X38105714Y-98894807D02*
X38029524Y-98932902D01*
X38029524Y-98932902D02*
X37724762Y-98932902D01*
X38486666Y-99275760D02*
X38600952Y-99313855D01*
X38600952Y-99313855D02*
X38791428Y-99313855D01*
X38791428Y-99313855D02*
X38867619Y-99275760D01*
X38867619Y-99275760D02*
X38905714Y-99237664D01*
X38905714Y-99237664D02*
X38943809Y-99161474D01*
X38943809Y-99161474D02*
X38943809Y-99085283D01*
X38943809Y-99085283D02*
X38905714Y-99009093D01*
X38905714Y-99009093D02*
X38867619Y-98970998D01*
X38867619Y-98970998D02*
X38791428Y-98932902D01*
X38791428Y-98932902D02*
X38639047Y-98894807D01*
X38639047Y-98894807D02*
X38562857Y-98856712D01*
X38562857Y-98856712D02*
X38524762Y-98818617D01*
X38524762Y-98818617D02*
X38486666Y-98742426D01*
X38486666Y-98742426D02*
X38486666Y-98666236D01*
X38486666Y-98666236D02*
X38524762Y-98590045D01*
X38524762Y-98590045D02*
X38562857Y-98551950D01*
X38562857Y-98551950D02*
X38639047Y-98513855D01*
X38639047Y-98513855D02*
X38829524Y-98513855D01*
X38829524Y-98513855D02*
X38943809Y-98551950D01*
X39172381Y-98513855D02*
X39629524Y-98513855D01*
X39400952Y-99313855D02*
X39400952Y-98513855D01*
X40550476Y-99313855D02*
X40550476Y-98513855D01*
X40550476Y-98513855D02*
X40740952Y-98513855D01*
X40740952Y-98513855D02*
X40855238Y-98551950D01*
X40855238Y-98551950D02*
X40931428Y-98628140D01*
X40931428Y-98628140D02*
X40969523Y-98704331D01*
X40969523Y-98704331D02*
X41007619Y-98856712D01*
X41007619Y-98856712D02*
X41007619Y-98970998D01*
X41007619Y-98970998D02*
X40969523Y-99123379D01*
X40969523Y-99123379D02*
X40931428Y-99199569D01*
X40931428Y-99199569D02*
X40855238Y-99275760D01*
X40855238Y-99275760D02*
X40740952Y-99313855D01*
X40740952Y-99313855D02*
X40550476Y-99313855D01*
X41807619Y-99237664D02*
X41769523Y-99275760D01*
X41769523Y-99275760D02*
X41655238Y-99313855D01*
X41655238Y-99313855D02*
X41579047Y-99313855D01*
X41579047Y-99313855D02*
X41464761Y-99275760D01*
X41464761Y-99275760D02*
X41388571Y-99199569D01*
X41388571Y-99199569D02*
X41350476Y-99123379D01*
X41350476Y-99123379D02*
X41312380Y-98970998D01*
X41312380Y-98970998D02*
X41312380Y-98856712D01*
X41312380Y-98856712D02*
X41350476Y-98704331D01*
X41350476Y-98704331D02*
X41388571Y-98628140D01*
X41388571Y-98628140D02*
X41464761Y-98551950D01*
X41464761Y-98551950D02*
X41579047Y-98513855D01*
X41579047Y-98513855D02*
X41655238Y-98513855D01*
X41655238Y-98513855D02*
X41769523Y-98551950D01*
X41769523Y-98551950D02*
X41807619Y-98590045D01*
X42880952Y-99275760D02*
X42995238Y-99313855D01*
X42995238Y-99313855D02*
X43185714Y-99313855D01*
X43185714Y-99313855D02*
X43261905Y-99275760D01*
X43261905Y-99275760D02*
X43300000Y-99237664D01*
X43300000Y-99237664D02*
X43338095Y-99161474D01*
X43338095Y-99161474D02*
X43338095Y-99085283D01*
X43338095Y-99085283D02*
X43300000Y-99009093D01*
X43300000Y-99009093D02*
X43261905Y-98970998D01*
X43261905Y-98970998D02*
X43185714Y-98932902D01*
X43185714Y-98932902D02*
X43033333Y-98894807D01*
X43033333Y-98894807D02*
X42957143Y-98856712D01*
X42957143Y-98856712D02*
X42919048Y-98818617D01*
X42919048Y-98818617D02*
X42880952Y-98742426D01*
X42880952Y-98742426D02*
X42880952Y-98666236D01*
X42880952Y-98666236D02*
X42919048Y-98590045D01*
X42919048Y-98590045D02*
X42957143Y-98551950D01*
X42957143Y-98551950D02*
X43033333Y-98513855D01*
X43033333Y-98513855D02*
X43223810Y-98513855D01*
X43223810Y-98513855D02*
X43338095Y-98551950D01*
X43680953Y-99313855D02*
X43680953Y-98513855D01*
X43680953Y-98513855D02*
X43871429Y-98513855D01*
X43871429Y-98513855D02*
X43985715Y-98551950D01*
X43985715Y-98551950D02*
X44061905Y-98628140D01*
X44061905Y-98628140D02*
X44100000Y-98704331D01*
X44100000Y-98704331D02*
X44138096Y-98856712D01*
X44138096Y-98856712D02*
X44138096Y-98970998D01*
X44138096Y-98970998D02*
X44100000Y-99123379D01*
X44100000Y-99123379D02*
X44061905Y-99199569D01*
X44061905Y-99199569D02*
X43985715Y-99275760D01*
X43985715Y-99275760D02*
X43871429Y-99313855D01*
X43871429Y-99313855D02*
X43680953Y-99313855D01*
X44480953Y-99313855D02*
X44480953Y-98513855D01*
X45211428Y-99275760D02*
X45325714Y-99313855D01*
X45325714Y-99313855D02*
X45516190Y-99313855D01*
X45516190Y-99313855D02*
X45592381Y-99275760D01*
X45592381Y-99275760D02*
X45630476Y-99237664D01*
X45630476Y-99237664D02*
X45668571Y-99161474D01*
X45668571Y-99161474D02*
X45668571Y-99085283D01*
X45668571Y-99085283D02*
X45630476Y-99009093D01*
X45630476Y-99009093D02*
X45592381Y-98970998D01*
X45592381Y-98970998D02*
X45516190Y-98932902D01*
X45516190Y-98932902D02*
X45363809Y-98894807D01*
X45363809Y-98894807D02*
X45287619Y-98856712D01*
X45287619Y-98856712D02*
X45249524Y-98818617D01*
X45249524Y-98818617D02*
X45211428Y-98742426D01*
X45211428Y-98742426D02*
X45211428Y-98666236D01*
X45211428Y-98666236D02*
X45249524Y-98590045D01*
X45249524Y-98590045D02*
X45287619Y-98551950D01*
X45287619Y-98551950D02*
X45363809Y-98513855D01*
X45363809Y-98513855D02*
X45554286Y-98513855D01*
X45554286Y-98513855D02*
X45668571Y-98551950D01*
X46468572Y-99237664D02*
X46430476Y-99275760D01*
X46430476Y-99275760D02*
X46316191Y-99313855D01*
X46316191Y-99313855D02*
X46240000Y-99313855D01*
X46240000Y-99313855D02*
X46125714Y-99275760D01*
X46125714Y-99275760D02*
X46049524Y-99199569D01*
X46049524Y-99199569D02*
X46011429Y-99123379D01*
X46011429Y-99123379D02*
X45973333Y-98970998D01*
X45973333Y-98970998D02*
X45973333Y-98856712D01*
X45973333Y-98856712D02*
X46011429Y-98704331D01*
X46011429Y-98704331D02*
X46049524Y-98628140D01*
X46049524Y-98628140D02*
X46125714Y-98551950D01*
X46125714Y-98551950D02*
X46240000Y-98513855D01*
X46240000Y-98513855D02*
X46316191Y-98513855D01*
X46316191Y-98513855D02*
X46430476Y-98551950D01*
X46430476Y-98551950D02*
X46468572Y-98590045D01*
X46811429Y-99313855D02*
X46811429Y-98513855D01*
X47268572Y-99313855D02*
X46925714Y-98856712D01*
X47268572Y-98513855D02*
X46811429Y-98970998D01*
X48513333Y-98894807D02*
X48627619Y-98932902D01*
X48627619Y-98932902D02*
X48665714Y-98970998D01*
X48665714Y-98970998D02*
X48703810Y-99047188D01*
X48703810Y-99047188D02*
X48703810Y-99161474D01*
X48703810Y-99161474D02*
X48665714Y-99237664D01*
X48665714Y-99237664D02*
X48627619Y-99275760D01*
X48627619Y-99275760D02*
X48551429Y-99313855D01*
X48551429Y-99313855D02*
X48246667Y-99313855D01*
X48246667Y-99313855D02*
X48246667Y-98513855D01*
X48246667Y-98513855D02*
X48513333Y-98513855D01*
X48513333Y-98513855D02*
X48589524Y-98551950D01*
X48589524Y-98551950D02*
X48627619Y-98590045D01*
X48627619Y-98590045D02*
X48665714Y-98666236D01*
X48665714Y-98666236D02*
X48665714Y-98742426D01*
X48665714Y-98742426D02*
X48627619Y-98818617D01*
X48627619Y-98818617D02*
X48589524Y-98856712D01*
X48589524Y-98856712D02*
X48513333Y-98894807D01*
X48513333Y-98894807D02*
X48246667Y-98894807D01*
X49427619Y-99313855D02*
X49046667Y-99313855D01*
X49046667Y-99313855D02*
X49046667Y-98513855D01*
X52371429Y-98513855D02*
X52371429Y-99161474D01*
X52371429Y-99161474D02*
X52409524Y-99237664D01*
X52409524Y-99237664D02*
X52447619Y-99275760D01*
X52447619Y-99275760D02*
X52523810Y-99313855D01*
X52523810Y-99313855D02*
X52676191Y-99313855D01*
X52676191Y-99313855D02*
X52752381Y-99275760D01*
X52752381Y-99275760D02*
X52790476Y-99237664D01*
X52790476Y-99237664D02*
X52828572Y-99161474D01*
X52828572Y-99161474D02*
X52828572Y-98513855D01*
X53209524Y-99313855D02*
X53209524Y-98513855D01*
X53209524Y-98513855D02*
X53514286Y-98513855D01*
X53514286Y-98513855D02*
X53590476Y-98551950D01*
X53590476Y-98551950D02*
X53628571Y-98590045D01*
X53628571Y-98590045D02*
X53666667Y-98666236D01*
X53666667Y-98666236D02*
X53666667Y-98780521D01*
X53666667Y-98780521D02*
X53628571Y-98856712D01*
X53628571Y-98856712D02*
X53590476Y-98894807D01*
X53590476Y-98894807D02*
X53514286Y-98932902D01*
X53514286Y-98932902D02*
X53209524Y-98932902D01*
X54911429Y-99313855D02*
X54911429Y-98513855D01*
X54911429Y-98513855D02*
X55101905Y-98513855D01*
X55101905Y-98513855D02*
X55216191Y-98551950D01*
X55216191Y-98551950D02*
X55292381Y-98628140D01*
X55292381Y-98628140D02*
X55330476Y-98704331D01*
X55330476Y-98704331D02*
X55368572Y-98856712D01*
X55368572Y-98856712D02*
X55368572Y-98970998D01*
X55368572Y-98970998D02*
X55330476Y-99123379D01*
X55330476Y-99123379D02*
X55292381Y-99199569D01*
X55292381Y-99199569D02*
X55216191Y-99275760D01*
X55216191Y-99275760D02*
X55101905Y-99313855D01*
X55101905Y-99313855D02*
X54911429Y-99313855D01*
X55711429Y-99313855D02*
X55711429Y-98513855D01*
X55711429Y-98513855D02*
X56168572Y-99313855D01*
X56168572Y-99313855D02*
X56168572Y-98513855D01*
X58022857Y-99313855D02*
X57641905Y-99313855D01*
X57641905Y-99313855D02*
X57641905Y-98513855D01*
X58175238Y-98513855D02*
X58632381Y-98513855D01*
X58403809Y-99313855D02*
X58403809Y-98513855D01*
X60562857Y-99313855D02*
X60296190Y-98932902D01*
X60105714Y-99313855D02*
X60105714Y-98513855D01*
X60105714Y-98513855D02*
X60410476Y-98513855D01*
X60410476Y-98513855D02*
X60486666Y-98551950D01*
X60486666Y-98551950D02*
X60524761Y-98590045D01*
X60524761Y-98590045D02*
X60562857Y-98666236D01*
X60562857Y-98666236D02*
X60562857Y-98780521D01*
X60562857Y-98780521D02*
X60524761Y-98856712D01*
X60524761Y-98856712D02*
X60486666Y-98894807D01*
X60486666Y-98894807D02*
X60410476Y-98932902D01*
X60410476Y-98932902D02*
X60105714Y-98932902D01*
X60791428Y-98513855D02*
X61248571Y-98513855D01*
X61019999Y-99313855D02*
X61019999Y-98513855D01*
X62683810Y-98513855D02*
X62836191Y-98513855D01*
X62836191Y-98513855D02*
X62912381Y-98551950D01*
X62912381Y-98551950D02*
X62988572Y-98628140D01*
X62988572Y-98628140D02*
X63026667Y-98780521D01*
X63026667Y-98780521D02*
X63026667Y-99047188D01*
X63026667Y-99047188D02*
X62988572Y-99199569D01*
X62988572Y-99199569D02*
X62912381Y-99275760D01*
X62912381Y-99275760D02*
X62836191Y-99313855D01*
X62836191Y-99313855D02*
X62683810Y-99313855D01*
X62683810Y-99313855D02*
X62607619Y-99275760D01*
X62607619Y-99275760D02*
X62531429Y-99199569D01*
X62531429Y-99199569D02*
X62493333Y-99047188D01*
X62493333Y-99047188D02*
X62493333Y-98780521D01*
X62493333Y-98780521D02*
X62531429Y-98628140D01*
X62531429Y-98628140D02*
X62607619Y-98551950D01*
X62607619Y-98551950D02*
X62683810Y-98513855D01*
X63369524Y-99313855D02*
X63369524Y-98513855D01*
X63826667Y-99313855D02*
X63483809Y-98856712D01*
X63826667Y-98513855D02*
X63369524Y-98970998D01*
X65909523Y-98551950D02*
X65833333Y-98513855D01*
X65833333Y-98513855D02*
X65719047Y-98513855D01*
X65719047Y-98513855D02*
X65604761Y-98551950D01*
X65604761Y-98551950D02*
X65528571Y-98628140D01*
X65528571Y-98628140D02*
X65490476Y-98704331D01*
X65490476Y-98704331D02*
X65452380Y-98856712D01*
X65452380Y-98856712D02*
X65452380Y-98970998D01*
X65452380Y-98970998D02*
X65490476Y-99123379D01*
X65490476Y-99123379D02*
X65528571Y-99199569D01*
X65528571Y-99199569D02*
X65604761Y-99275760D01*
X65604761Y-99275760D02*
X65719047Y-99313855D01*
X65719047Y-99313855D02*
X65795238Y-99313855D01*
X65795238Y-99313855D02*
X65909523Y-99275760D01*
X65909523Y-99275760D02*
X65947619Y-99237664D01*
X65947619Y-99237664D02*
X65947619Y-98970998D01*
X65947619Y-98970998D02*
X65795238Y-98970998D01*
X69509523Y-98513855D02*
X70004761Y-98513855D01*
X70004761Y-98513855D02*
X69738095Y-98818617D01*
X69738095Y-98818617D02*
X69852380Y-98818617D01*
X69852380Y-98818617D02*
X69928571Y-98856712D01*
X69928571Y-98856712D02*
X69966666Y-98894807D01*
X69966666Y-98894807D02*
X70004761Y-98970998D01*
X70004761Y-98970998D02*
X70004761Y-99161474D01*
X70004761Y-99161474D02*
X69966666Y-99237664D01*
X69966666Y-99237664D02*
X69928571Y-99275760D01*
X69928571Y-99275760D02*
X69852380Y-99313855D01*
X69852380Y-99313855D02*
X69623809Y-99313855D01*
X69623809Y-99313855D02*
X69547618Y-99275760D01*
X69547618Y-99275760D02*
X69509523Y-99237664D01*
X70233333Y-98513855D02*
X70500000Y-99313855D01*
X70500000Y-99313855D02*
X70766666Y-98513855D01*
X70957142Y-98513855D02*
X71452380Y-98513855D01*
X71452380Y-98513855D02*
X71185714Y-98818617D01*
X71185714Y-98818617D02*
X71299999Y-98818617D01*
X71299999Y-98818617D02*
X71376190Y-98856712D01*
X71376190Y-98856712D02*
X71414285Y-98894807D01*
X71414285Y-98894807D02*
X71452380Y-98970998D01*
X71452380Y-98970998D02*
X71452380Y-99161474D01*
X71452380Y-99161474D02*
X71414285Y-99237664D01*
X71414285Y-99237664D02*
X71376190Y-99275760D01*
X71376190Y-99275760D02*
X71299999Y-99313855D01*
X71299999Y-99313855D02*
X71071428Y-99313855D01*
X71071428Y-99313855D02*
X70995237Y-99275760D01*
X70995237Y-99275760D02*
X70957142Y-99237664D01*
X72430476Y-98551950D02*
X72354286Y-98513855D01*
X72354286Y-98513855D02*
X72240000Y-98513855D01*
X72240000Y-98513855D02*
X72125714Y-98551950D01*
X72125714Y-98551950D02*
X72049524Y-98628140D01*
X72049524Y-98628140D02*
X72011429Y-98704331D01*
X72011429Y-98704331D02*
X71973333Y-98856712D01*
X71973333Y-98856712D02*
X71973333Y-98970998D01*
X71973333Y-98970998D02*
X72011429Y-99123379D01*
X72011429Y-99123379D02*
X72049524Y-99199569D01*
X72049524Y-99199569D02*
X72125714Y-99275760D01*
X72125714Y-99275760D02*
X72240000Y-99313855D01*
X72240000Y-99313855D02*
X72316191Y-99313855D01*
X72316191Y-99313855D02*
X72430476Y-99275760D01*
X72430476Y-99275760D02*
X72468572Y-99237664D01*
X72468572Y-99237664D02*
X72468572Y-98970998D01*
X72468572Y-98970998D02*
X72316191Y-98970998D01*
X72811429Y-99313855D02*
X72811429Y-98513855D01*
X72811429Y-98513855D02*
X73268572Y-99313855D01*
X73268572Y-99313855D02*
X73268572Y-98513855D01*
X73649524Y-99313855D02*
X73649524Y-98513855D01*
X73649524Y-98513855D02*
X73840000Y-98513855D01*
X73840000Y-98513855D02*
X73954286Y-98551950D01*
X73954286Y-98551950D02*
X74030476Y-98628140D01*
X74030476Y-98628140D02*
X74068571Y-98704331D01*
X74068571Y-98704331D02*
X74106667Y-98856712D01*
X74106667Y-98856712D02*
X74106667Y-98970998D01*
X74106667Y-98970998D02*
X74068571Y-99123379D01*
X74068571Y-99123379D02*
X74030476Y-99199569D01*
X74030476Y-99199569D02*
X73954286Y-99275760D01*
X73954286Y-99275760D02*
X73840000Y-99313855D01*
X73840000Y-99313855D02*
X73649524Y-99313855D01*
X74970476Y-98513855D02*
X75427619Y-98513855D01*
X75199047Y-99313855D02*
X75199047Y-98513855D01*
X75618095Y-98513855D02*
X76151429Y-99313855D01*
X76151429Y-98513855D02*
X75618095Y-99313855D01*
X77986667Y-99313855D02*
X77720000Y-98932902D01*
X77529524Y-99313855D02*
X77529524Y-98513855D01*
X77529524Y-98513855D02*
X77834286Y-98513855D01*
X77834286Y-98513855D02*
X77910476Y-98551950D01*
X77910476Y-98551950D02*
X77948571Y-98590045D01*
X77948571Y-98590045D02*
X77986667Y-98666236D01*
X77986667Y-98666236D02*
X77986667Y-98780521D01*
X77986667Y-98780521D02*
X77948571Y-98856712D01*
X77948571Y-98856712D02*
X77910476Y-98894807D01*
X77910476Y-98894807D02*
X77834286Y-98932902D01*
X77834286Y-98932902D02*
X77529524Y-98932902D01*
X78253333Y-98513855D02*
X78786667Y-99313855D01*
X78786667Y-98513855D02*
X78253333Y-99313855D01*
X79669524Y-98513855D02*
X79936191Y-99313855D01*
X79936191Y-99313855D02*
X80202857Y-98513855D01*
X80469524Y-99313855D02*
X80469524Y-98513855D01*
X80469524Y-98513855D02*
X80926667Y-99313855D01*
X80926667Y-99313855D02*
X80926667Y-98513855D01*
X81193333Y-98513855D02*
X81650476Y-98513855D01*
X81421904Y-99313855D02*
X81421904Y-98513855D01*
X82857143Y-99313855D02*
X82476191Y-99313855D01*
X82476191Y-99313855D02*
X82476191Y-98513855D01*
X83123810Y-99313855D02*
X83123810Y-98513855D01*
X83504762Y-99313855D02*
X83504762Y-98513855D01*
X83504762Y-98513855D02*
X83695238Y-98513855D01*
X83695238Y-98513855D02*
X83809524Y-98551950D01*
X83809524Y-98551950D02*
X83885714Y-98628140D01*
X83885714Y-98628140D02*
X83923809Y-98704331D01*
X83923809Y-98704331D02*
X83961905Y-98856712D01*
X83961905Y-98856712D02*
X83961905Y-98970998D01*
X83961905Y-98970998D02*
X83923809Y-99123379D01*
X83923809Y-99123379D02*
X83885714Y-99199569D01*
X83885714Y-99199569D02*
X83809524Y-99275760D01*
X83809524Y-99275760D02*
X83695238Y-99313855D01*
X83695238Y-99313855D02*
X83504762Y-99313855D01*
X84787618Y-99085283D02*
X85168571Y-99085283D01*
X84711428Y-99313855D02*
X84978095Y-98513855D01*
X84978095Y-98513855D02*
X85244761Y-99313855D01*
X85930475Y-99313855D02*
X85473332Y-99313855D01*
X85701904Y-99313855D02*
X85701904Y-98513855D01*
X85701904Y-98513855D02*
X85625713Y-98628140D01*
X85625713Y-98628140D02*
X85549523Y-98704331D01*
X85549523Y-98704331D02*
X85473332Y-98742426D01*
X86654285Y-98513855D02*
X86273333Y-98513855D01*
X86273333Y-98513855D02*
X86235237Y-98894807D01*
X86235237Y-98894807D02*
X86273333Y-98856712D01*
X86273333Y-98856712D02*
X86349523Y-98818617D01*
X86349523Y-98818617D02*
X86539999Y-98818617D01*
X86539999Y-98818617D02*
X86616190Y-98856712D01*
X86616190Y-98856712D02*
X86654285Y-98894807D01*
X86654285Y-98894807D02*
X86692380Y-98970998D01*
X86692380Y-98970998D02*
X86692380Y-99161474D01*
X86692380Y-99161474D02*
X86654285Y-99237664D01*
X86654285Y-99237664D02*
X86616190Y-99275760D01*
X86616190Y-99275760D02*
X86539999Y-99313855D01*
X86539999Y-99313855D02*
X86349523Y-99313855D01*
X86349523Y-99313855D02*
X86273333Y-99275760D01*
X86273333Y-99275760D02*
X86235237Y-99237664D01*
X87327618Y-99085283D02*
X87708571Y-99085283D01*
X87251428Y-99313855D02*
X87518095Y-98513855D01*
X87518095Y-98513855D02*
X87784761Y-99313855D01*
X88470475Y-99313855D02*
X88013332Y-99313855D01*
X88241904Y-99313855D02*
X88241904Y-98513855D01*
X88241904Y-98513855D02*
X88165713Y-98628140D01*
X88165713Y-98628140D02*
X88089523Y-98704331D01*
X88089523Y-98704331D02*
X88013332Y-98742426D01*
X89156190Y-98513855D02*
X89003809Y-98513855D01*
X89003809Y-98513855D02*
X88927618Y-98551950D01*
X88927618Y-98551950D02*
X88889523Y-98590045D01*
X88889523Y-98590045D02*
X88813333Y-98704331D01*
X88813333Y-98704331D02*
X88775237Y-98856712D01*
X88775237Y-98856712D02*
X88775237Y-99161474D01*
X88775237Y-99161474D02*
X88813333Y-99237664D01*
X88813333Y-99237664D02*
X88851428Y-99275760D01*
X88851428Y-99275760D02*
X88927618Y-99313855D01*
X88927618Y-99313855D02*
X89079999Y-99313855D01*
X89079999Y-99313855D02*
X89156190Y-99275760D01*
X89156190Y-99275760D02*
X89194285Y-99237664D01*
X89194285Y-99237664D02*
X89232380Y-99161474D01*
X89232380Y-99161474D02*
X89232380Y-98970998D01*
X89232380Y-98970998D02*
X89194285Y-98894807D01*
X89194285Y-98894807D02*
X89156190Y-98856712D01*
X89156190Y-98856712D02*
X89079999Y-98818617D01*
X89079999Y-98818617D02*
X88927618Y-98818617D01*
X88927618Y-98818617D02*
X88851428Y-98856712D01*
X88851428Y-98856712D02*
X88813333Y-98894807D01*
X88813333Y-98894807D02*
X88775237Y-98970998D01*
D11*
X56892857Y-25409337D02*
X56592857Y-24980765D01*
X56378571Y-25409337D02*
X56378571Y-24509337D01*
X56378571Y-24509337D02*
X56721428Y-24509337D01*
X56721428Y-24509337D02*
X56807143Y-24552194D01*
X56807143Y-24552194D02*
X56850000Y-24595051D01*
X56850000Y-24595051D02*
X56892857Y-24680765D01*
X56892857Y-24680765D02*
X56892857Y-24809337D01*
X56892857Y-24809337D02*
X56850000Y-24895051D01*
X56850000Y-24895051D02*
X56807143Y-24937908D01*
X56807143Y-24937908D02*
X56721428Y-24980765D01*
X56721428Y-24980765D02*
X56378571Y-24980765D01*
X57278571Y-24937908D02*
X57578571Y-24937908D01*
X57707143Y-25409337D02*
X57278571Y-25409337D01*
X57278571Y-25409337D02*
X57278571Y-24509337D01*
X57278571Y-24509337D02*
X57707143Y-24509337D01*
X58050000Y-25366480D02*
X58178572Y-25409337D01*
X58178572Y-25409337D02*
X58392857Y-25409337D01*
X58392857Y-25409337D02*
X58478572Y-25366480D01*
X58478572Y-25366480D02*
X58521429Y-25323622D01*
X58521429Y-25323622D02*
X58564286Y-25237908D01*
X58564286Y-25237908D02*
X58564286Y-25152194D01*
X58564286Y-25152194D02*
X58521429Y-25066480D01*
X58521429Y-25066480D02*
X58478572Y-25023622D01*
X58478572Y-25023622D02*
X58392857Y-24980765D01*
X58392857Y-24980765D02*
X58221429Y-24937908D01*
X58221429Y-24937908D02*
X58135714Y-24895051D01*
X58135714Y-24895051D02*
X58092857Y-24852194D01*
X58092857Y-24852194D02*
X58050000Y-24766480D01*
X58050000Y-24766480D02*
X58050000Y-24680765D01*
X58050000Y-24680765D02*
X58092857Y-24595051D01*
X58092857Y-24595051D02*
X58135714Y-24552194D01*
X58135714Y-24552194D02*
X58221429Y-24509337D01*
X58221429Y-24509337D02*
X58435714Y-24509337D01*
X58435714Y-24509337D02*
X58564286Y-24552194D01*
X58950000Y-24937908D02*
X59250000Y-24937908D01*
X59378572Y-25409337D02*
X58950000Y-25409337D01*
X58950000Y-25409337D02*
X58950000Y-24509337D01*
X58950000Y-24509337D02*
X59378572Y-24509337D01*
X59635715Y-24509337D02*
X60150001Y-24509337D01*
X59892858Y-25409337D02*
X59892858Y-24509337D01*
X82771428Y-90966480D02*
X82900000Y-91009337D01*
X82900000Y-91009337D02*
X83114285Y-91009337D01*
X83114285Y-91009337D02*
X83200000Y-90966480D01*
X83200000Y-90966480D02*
X83242857Y-90923622D01*
X83242857Y-90923622D02*
X83285714Y-90837908D01*
X83285714Y-90837908D02*
X83285714Y-90752194D01*
X83285714Y-90752194D02*
X83242857Y-90666480D01*
X83242857Y-90666480D02*
X83200000Y-90623622D01*
X83200000Y-90623622D02*
X83114285Y-90580765D01*
X83114285Y-90580765D02*
X82942857Y-90537908D01*
X82942857Y-90537908D02*
X82857142Y-90495051D01*
X82857142Y-90495051D02*
X82814285Y-90452194D01*
X82814285Y-90452194D02*
X82771428Y-90366480D01*
X82771428Y-90366480D02*
X82771428Y-90280765D01*
X82771428Y-90280765D02*
X82814285Y-90195051D01*
X82814285Y-90195051D02*
X82857142Y-90152194D01*
X82857142Y-90152194D02*
X82942857Y-90109337D01*
X82942857Y-90109337D02*
X83157142Y-90109337D01*
X83157142Y-90109337D02*
X83285714Y-90152194D01*
X83542857Y-90109337D02*
X84057143Y-90109337D01*
X83800000Y-91009337D02*
X83800000Y-90109337D01*
X84314285Y-90752194D02*
X84742857Y-90752194D01*
X84228571Y-91009337D02*
X84528571Y-90109337D01*
X84528571Y-90109337D02*
X84828571Y-91009337D01*
X85000000Y-90109337D02*
X85514286Y-90109337D01*
X85257143Y-91009337D02*
X85257143Y-90109337D01*
X85814285Y-90109337D02*
X85814285Y-90837908D01*
X85814285Y-90837908D02*
X85857142Y-90923622D01*
X85857142Y-90923622D02*
X85900000Y-90966480D01*
X85900000Y-90966480D02*
X85985714Y-91009337D01*
X85985714Y-91009337D02*
X86157142Y-91009337D01*
X86157142Y-91009337D02*
X86242857Y-90966480D01*
X86242857Y-90966480D02*
X86285714Y-90923622D01*
X86285714Y-90923622D02*
X86328571Y-90837908D01*
X86328571Y-90837908D02*
X86328571Y-90109337D01*
X86714285Y-90966480D02*
X86842857Y-91009337D01*
X86842857Y-91009337D02*
X87057142Y-91009337D01*
X87057142Y-91009337D02*
X87142857Y-90966480D01*
X87142857Y-90966480D02*
X87185714Y-90923622D01*
X87185714Y-90923622D02*
X87228571Y-90837908D01*
X87228571Y-90837908D02*
X87228571Y-90752194D01*
X87228571Y-90752194D02*
X87185714Y-90666480D01*
X87185714Y-90666480D02*
X87142857Y-90623622D01*
X87142857Y-90623622D02*
X87057142Y-90580765D01*
X87057142Y-90580765D02*
X86885714Y-90537908D01*
X86885714Y-90537908D02*
X86799999Y-90495051D01*
X86799999Y-90495051D02*
X86757142Y-90452194D01*
X86757142Y-90452194D02*
X86714285Y-90366480D01*
X86714285Y-90366480D02*
X86714285Y-90280765D01*
X86714285Y-90280765D02*
X86757142Y-90195051D01*
X86757142Y-90195051D02*
X86799999Y-90152194D01*
X86799999Y-90152194D02*
X86885714Y-90109337D01*
X86885714Y-90109337D02*
X87099999Y-90109337D01*
X87099999Y-90109337D02*
X87228571Y-90152194D01*
X102864285Y-93009337D02*
X102864285Y-93737908D01*
X102864285Y-93737908D02*
X102907142Y-93823622D01*
X102907142Y-93823622D02*
X102950000Y-93866480D01*
X102950000Y-93866480D02*
X103035714Y-93909337D01*
X103035714Y-93909337D02*
X103207142Y-93909337D01*
X103207142Y-93909337D02*
X103292857Y-93866480D01*
X103292857Y-93866480D02*
X103335714Y-93823622D01*
X103335714Y-93823622D02*
X103378571Y-93737908D01*
X103378571Y-93737908D02*
X103378571Y-93009337D01*
X103764285Y-93866480D02*
X103892857Y-93909337D01*
X103892857Y-93909337D02*
X104107142Y-93909337D01*
X104107142Y-93909337D02*
X104192857Y-93866480D01*
X104192857Y-93866480D02*
X104235714Y-93823622D01*
X104235714Y-93823622D02*
X104278571Y-93737908D01*
X104278571Y-93737908D02*
X104278571Y-93652194D01*
X104278571Y-93652194D02*
X104235714Y-93566480D01*
X104235714Y-93566480D02*
X104192857Y-93523622D01*
X104192857Y-93523622D02*
X104107142Y-93480765D01*
X104107142Y-93480765D02*
X103935714Y-93437908D01*
X103935714Y-93437908D02*
X103849999Y-93395051D01*
X103849999Y-93395051D02*
X103807142Y-93352194D01*
X103807142Y-93352194D02*
X103764285Y-93266480D01*
X103764285Y-93266480D02*
X103764285Y-93180765D01*
X103764285Y-93180765D02*
X103807142Y-93095051D01*
X103807142Y-93095051D02*
X103849999Y-93052194D01*
X103849999Y-93052194D02*
X103935714Y-93009337D01*
X103935714Y-93009337D02*
X104149999Y-93009337D01*
X104149999Y-93009337D02*
X104278571Y-93052194D01*
X104964285Y-93437908D02*
X105092857Y-93480765D01*
X105092857Y-93480765D02*
X105135714Y-93523622D01*
X105135714Y-93523622D02*
X105178571Y-93609337D01*
X105178571Y-93609337D02*
X105178571Y-93737908D01*
X105178571Y-93737908D02*
X105135714Y-93823622D01*
X105135714Y-93823622D02*
X105092857Y-93866480D01*
X105092857Y-93866480D02*
X105007142Y-93909337D01*
X105007142Y-93909337D02*
X104664285Y-93909337D01*
X104664285Y-93909337D02*
X104664285Y-93009337D01*
X104664285Y-93009337D02*
X104964285Y-93009337D01*
X104964285Y-93009337D02*
X105050000Y-93052194D01*
X105050000Y-93052194D02*
X105092857Y-93095051D01*
X105092857Y-93095051D02*
X105135714Y-93180765D01*
X105135714Y-93180765D02*
X105135714Y-93266480D01*
X105135714Y-93266480D02*
X105092857Y-93352194D01*
X105092857Y-93352194D02*
X105050000Y-93395051D01*
X105050000Y-93395051D02*
X104964285Y-93437908D01*
X104964285Y-93437908D02*
X104664285Y-93437908D01*
X102978571Y-49637908D02*
X103107143Y-49680765D01*
X103107143Y-49680765D02*
X103150000Y-49723622D01*
X103150000Y-49723622D02*
X103192857Y-49809337D01*
X103192857Y-49809337D02*
X103192857Y-49937908D01*
X103192857Y-49937908D02*
X103150000Y-50023622D01*
X103150000Y-50023622D02*
X103107143Y-50066480D01*
X103107143Y-50066480D02*
X103021428Y-50109337D01*
X103021428Y-50109337D02*
X102678571Y-50109337D01*
X102678571Y-50109337D02*
X102678571Y-49209337D01*
X102678571Y-49209337D02*
X102978571Y-49209337D01*
X102978571Y-49209337D02*
X103064286Y-49252194D01*
X103064286Y-49252194D02*
X103107143Y-49295051D01*
X103107143Y-49295051D02*
X103150000Y-49380765D01*
X103150000Y-49380765D02*
X103150000Y-49466480D01*
X103150000Y-49466480D02*
X103107143Y-49552194D01*
X103107143Y-49552194D02*
X103064286Y-49595051D01*
X103064286Y-49595051D02*
X102978571Y-49637908D01*
X102978571Y-49637908D02*
X102678571Y-49637908D01*
X103750000Y-49209337D02*
X103921428Y-49209337D01*
X103921428Y-49209337D02*
X104007143Y-49252194D01*
X104007143Y-49252194D02*
X104092857Y-49337908D01*
X104092857Y-49337908D02*
X104135714Y-49509337D01*
X104135714Y-49509337D02*
X104135714Y-49809337D01*
X104135714Y-49809337D02*
X104092857Y-49980765D01*
X104092857Y-49980765D02*
X104007143Y-50066480D01*
X104007143Y-50066480D02*
X103921428Y-50109337D01*
X103921428Y-50109337D02*
X103750000Y-50109337D01*
X103750000Y-50109337D02*
X103664286Y-50066480D01*
X103664286Y-50066480D02*
X103578571Y-49980765D01*
X103578571Y-49980765D02*
X103535714Y-49809337D01*
X103535714Y-49809337D02*
X103535714Y-49509337D01*
X103535714Y-49509337D02*
X103578571Y-49337908D01*
X103578571Y-49337908D02*
X103664286Y-49252194D01*
X103664286Y-49252194D02*
X103750000Y-49209337D01*
X104692857Y-49209337D02*
X104864285Y-49209337D01*
X104864285Y-49209337D02*
X104950000Y-49252194D01*
X104950000Y-49252194D02*
X105035714Y-49337908D01*
X105035714Y-49337908D02*
X105078571Y-49509337D01*
X105078571Y-49509337D02*
X105078571Y-49809337D01*
X105078571Y-49809337D02*
X105035714Y-49980765D01*
X105035714Y-49980765D02*
X104950000Y-50066480D01*
X104950000Y-50066480D02*
X104864285Y-50109337D01*
X104864285Y-50109337D02*
X104692857Y-50109337D01*
X104692857Y-50109337D02*
X104607143Y-50066480D01*
X104607143Y-50066480D02*
X104521428Y-49980765D01*
X104521428Y-49980765D02*
X104478571Y-49809337D01*
X104478571Y-49809337D02*
X104478571Y-49509337D01*
X104478571Y-49509337D02*
X104521428Y-49337908D01*
X104521428Y-49337908D02*
X104607143Y-49252194D01*
X104607143Y-49252194D02*
X104692857Y-49209337D01*
X105335714Y-49209337D02*
X105850000Y-49209337D01*
X105592857Y-50109337D02*
X105592857Y-49209337D01*
D12*
X21738095Y-49907200D02*
X21880952Y-49954819D01*
X21880952Y-49954819D02*
X22119047Y-49954819D01*
X22119047Y-49954819D02*
X22214285Y-49907200D01*
X22214285Y-49907200D02*
X22261904Y-49859580D01*
X22261904Y-49859580D02*
X22309523Y-49764342D01*
X22309523Y-49764342D02*
X22309523Y-49669104D01*
X22309523Y-49669104D02*
X22261904Y-49573866D01*
X22261904Y-49573866D02*
X22214285Y-49526247D01*
X22214285Y-49526247D02*
X22119047Y-49478628D01*
X22119047Y-49478628D02*
X21928571Y-49431009D01*
X21928571Y-49431009D02*
X21833333Y-49383390D01*
X21833333Y-49383390D02*
X21785714Y-49335771D01*
X21785714Y-49335771D02*
X21738095Y-49240533D01*
X21738095Y-49240533D02*
X21738095Y-49145295D01*
X21738095Y-49145295D02*
X21785714Y-49050057D01*
X21785714Y-49050057D02*
X21833333Y-49002438D01*
X21833333Y-49002438D02*
X21928571Y-48954819D01*
X21928571Y-48954819D02*
X22166666Y-48954819D01*
X22166666Y-48954819D02*
X22309523Y-49002438D01*
X22690476Y-49907200D02*
X22833333Y-49954819D01*
X22833333Y-49954819D02*
X23071428Y-49954819D01*
X23071428Y-49954819D02*
X23166666Y-49907200D01*
X23166666Y-49907200D02*
X23214285Y-49859580D01*
X23214285Y-49859580D02*
X23261904Y-49764342D01*
X23261904Y-49764342D02*
X23261904Y-49669104D01*
X23261904Y-49669104D02*
X23214285Y-49573866D01*
X23214285Y-49573866D02*
X23166666Y-49526247D01*
X23166666Y-49526247D02*
X23071428Y-49478628D01*
X23071428Y-49478628D02*
X22880952Y-49431009D01*
X22880952Y-49431009D02*
X22785714Y-49383390D01*
X22785714Y-49383390D02*
X22738095Y-49335771D01*
X22738095Y-49335771D02*
X22690476Y-49240533D01*
X22690476Y-49240533D02*
X22690476Y-49145295D01*
X22690476Y-49145295D02*
X22738095Y-49050057D01*
X22738095Y-49050057D02*
X22785714Y-49002438D01*
X22785714Y-49002438D02*
X22880952Y-48954819D01*
X22880952Y-48954819D02*
X23119047Y-48954819D01*
X23119047Y-48954819D02*
X23261904Y-49002438D01*
X24261904Y-49954819D02*
X23928571Y-49478628D01*
X23690476Y-49954819D02*
X23690476Y-48954819D01*
X23690476Y-48954819D02*
X24071428Y-48954819D01*
X24071428Y-48954819D02*
X24166666Y-49002438D01*
X24166666Y-49002438D02*
X24214285Y-49050057D01*
X24214285Y-49050057D02*
X24261904Y-49145295D01*
X24261904Y-49145295D02*
X24261904Y-49288152D01*
X24261904Y-49288152D02*
X24214285Y-49383390D01*
X24214285Y-49383390D02*
X24166666Y-49431009D01*
X24166666Y-49431009D02*
X24071428Y-49478628D01*
X24071428Y-49478628D02*
X23690476Y-49478628D01*
X21866666Y-28254819D02*
X21390476Y-28254819D01*
X21390476Y-28254819D02*
X21342857Y-28731009D01*
X21342857Y-28731009D02*
X21390476Y-28683390D01*
X21390476Y-28683390D02*
X21485714Y-28635771D01*
X21485714Y-28635771D02*
X21723809Y-28635771D01*
X21723809Y-28635771D02*
X21819047Y-28683390D01*
X21819047Y-28683390D02*
X21866666Y-28731009D01*
X21866666Y-28731009D02*
X21914285Y-28826247D01*
X21914285Y-28826247D02*
X21914285Y-29064342D01*
X21914285Y-29064342D02*
X21866666Y-29159580D01*
X21866666Y-29159580D02*
X21819047Y-29207200D01*
X21819047Y-29207200D02*
X21723809Y-29254819D01*
X21723809Y-29254819D02*
X21485714Y-29254819D01*
X21485714Y-29254819D02*
X21390476Y-29207200D01*
X21390476Y-29207200D02*
X21342857Y-29159580D01*
X22200000Y-28254819D02*
X22533333Y-29254819D01*
X22533333Y-29254819D02*
X22866666Y-28254819D01*
X23961905Y-29254819D02*
X23961905Y-28254819D01*
X24438095Y-29254819D02*
X24438095Y-28254819D01*
X24438095Y-28254819D02*
X25009523Y-29254819D01*
X25009523Y-29254819D02*
X25009523Y-28254819D01*
X37261905Y-91054819D02*
X37261905Y-90054819D01*
X37261905Y-90054819D02*
X37500000Y-90054819D01*
X37500000Y-90054819D02*
X37642857Y-90102438D01*
X37642857Y-90102438D02*
X37738095Y-90197676D01*
X37738095Y-90197676D02*
X37785714Y-90292914D01*
X37785714Y-90292914D02*
X37833333Y-90483390D01*
X37833333Y-90483390D02*
X37833333Y-90626247D01*
X37833333Y-90626247D02*
X37785714Y-90816723D01*
X37785714Y-90816723D02*
X37738095Y-90911961D01*
X37738095Y-90911961D02*
X37642857Y-91007200D01*
X37642857Y-91007200D02*
X37500000Y-91054819D01*
X37500000Y-91054819D02*
X37261905Y-91054819D01*
X38261905Y-91054819D02*
X38261905Y-90054819D01*
X38690476Y-91007200D02*
X38833333Y-91054819D01*
X38833333Y-91054819D02*
X39071428Y-91054819D01*
X39071428Y-91054819D02*
X39166666Y-91007200D01*
X39166666Y-91007200D02*
X39214285Y-90959580D01*
X39214285Y-90959580D02*
X39261904Y-90864342D01*
X39261904Y-90864342D02*
X39261904Y-90769104D01*
X39261904Y-90769104D02*
X39214285Y-90673866D01*
X39214285Y-90673866D02*
X39166666Y-90626247D01*
X39166666Y-90626247D02*
X39071428Y-90578628D01*
X39071428Y-90578628D02*
X38880952Y-90531009D01*
X38880952Y-90531009D02*
X38785714Y-90483390D01*
X38785714Y-90483390D02*
X38738095Y-90435771D01*
X38738095Y-90435771D02*
X38690476Y-90340533D01*
X38690476Y-90340533D02*
X38690476Y-90245295D01*
X38690476Y-90245295D02*
X38738095Y-90150057D01*
X38738095Y-90150057D02*
X38785714Y-90102438D01*
X38785714Y-90102438D02*
X38880952Y-90054819D01*
X38880952Y-90054819D02*
X39119047Y-90054819D01*
X39119047Y-90054819D02*
X39261904Y-90102438D01*
X39690476Y-91054819D02*
X39690476Y-90054819D01*
X39690476Y-90054819D02*
X40071428Y-90054819D01*
X40071428Y-90054819D02*
X40166666Y-90102438D01*
X40166666Y-90102438D02*
X40214285Y-90150057D01*
X40214285Y-90150057D02*
X40261904Y-90245295D01*
X40261904Y-90245295D02*
X40261904Y-90388152D01*
X40261904Y-90388152D02*
X40214285Y-90483390D01*
X40214285Y-90483390D02*
X40166666Y-90531009D01*
X40166666Y-90531009D02*
X40071428Y-90578628D01*
X40071428Y-90578628D02*
X39690476Y-90578628D01*
X41166666Y-91054819D02*
X40690476Y-91054819D01*
X40690476Y-91054819D02*
X40690476Y-90054819D01*
X41452381Y-90769104D02*
X41928571Y-90769104D01*
X41357143Y-91054819D02*
X41690476Y-90054819D01*
X41690476Y-90054819D02*
X42023809Y-91054819D01*
X42547619Y-90578628D02*
X42547619Y-91054819D01*
X42214286Y-90054819D02*
X42547619Y-90578628D01*
X42547619Y-90578628D02*
X42880952Y-90054819D01*
X58157143Y-91054819D02*
X58157143Y-90054819D01*
X58157143Y-90054819D02*
X58728571Y-91054819D01*
X58728571Y-91054819D02*
X58728571Y-90054819D01*
X59157143Y-90769104D02*
X59633333Y-90769104D01*
X59061905Y-91054819D02*
X59395238Y-90054819D01*
X59395238Y-90054819D02*
X59728571Y-91054819D01*
X59919048Y-90054819D02*
X60252381Y-91054819D01*
X60252381Y-91054819D02*
X60585714Y-90054819D01*
X78161905Y-90769104D02*
X78638095Y-90769104D01*
X78066667Y-91054819D02*
X78400000Y-90054819D01*
X78400000Y-90054819D02*
X78733333Y-91054819D01*
X79066667Y-90054819D02*
X79066667Y-90864342D01*
X79066667Y-90864342D02*
X79114286Y-90959580D01*
X79114286Y-90959580D02*
X79161905Y-91007200D01*
X79161905Y-91007200D02*
X79257143Y-91054819D01*
X79257143Y-91054819D02*
X79447619Y-91054819D01*
X79447619Y-91054819D02*
X79542857Y-91007200D01*
X79542857Y-91007200D02*
X79590476Y-90959580D01*
X79590476Y-90959580D02*
X79638095Y-90864342D01*
X79638095Y-90864342D02*
X79638095Y-90054819D01*
X80019048Y-90054819D02*
X80685714Y-91054819D01*
X80685714Y-90054819D02*
X80019048Y-91054819D01*
X116754819Y-62666666D02*
X116754819Y-62095238D01*
X117754819Y-62380952D02*
X116754819Y-62380952D01*
X117659580Y-61190476D02*
X117707200Y-61238095D01*
X117707200Y-61238095D02*
X117754819Y-61380952D01*
X117754819Y-61380952D02*
X117754819Y-61476190D01*
X117754819Y-61476190D02*
X117707200Y-61619047D01*
X117707200Y-61619047D02*
X117611961Y-61714285D01*
X117611961Y-61714285D02*
X117516723Y-61761904D01*
X117516723Y-61761904D02*
X117326247Y-61809523D01*
X117326247Y-61809523D02*
X117183390Y-61809523D01*
X117183390Y-61809523D02*
X116992914Y-61761904D01*
X116992914Y-61761904D02*
X116897676Y-61714285D01*
X116897676Y-61714285D02*
X116802438Y-61619047D01*
X116802438Y-61619047D02*
X116754819Y-61476190D01*
X116754819Y-61476190D02*
X116754819Y-61380952D01*
X116754819Y-61380952D02*
X116802438Y-61238095D01*
X116802438Y-61238095D02*
X116850057Y-61190476D01*
X117754819Y-59238094D02*
X116754819Y-59238094D01*
X117754819Y-58666666D02*
X117183390Y-59095237D01*
X116754819Y-58666666D02*
X117326247Y-59238094D01*
X117373866Y-58238094D02*
X117373866Y-57476190D01*
X117754819Y-57857142D02*
X116992914Y-57857142D01*
X117754819Y-69380951D02*
X116754819Y-69380951D01*
X117754819Y-68809523D02*
X117183390Y-69238094D01*
X116754819Y-68809523D02*
X117326247Y-69380951D01*
X117373866Y-68380951D02*
X117373866Y-67619047D01*
D13*
X31042857Y-33088640D02*
X31957143Y-33088640D01*
X31500000Y-33545782D02*
X31500000Y-32631497D01*
X31042857Y-55088640D02*
X31957143Y-55088640D01*
X31500000Y-55545782D02*
X31500000Y-54631497D01*
X77171429Y-22802925D02*
X77742858Y-22802925D01*
X77057143Y-23145782D02*
X77457143Y-21945782D01*
X77457143Y-21945782D02*
X77857143Y-23145782D01*
X78257143Y-23145782D02*
X78257143Y-21945782D01*
X78257143Y-21945782D02*
X78942857Y-23145782D01*
X78942857Y-23145782D02*
X78942857Y-21945782D01*
X79342857Y-21945782D02*
X80028572Y-21945782D01*
X79685714Y-23145782D02*
X79685714Y-21945782D01*
X80428572Y-22517211D02*
X80828572Y-22517211D01*
X81000000Y-23145782D02*
X80428572Y-23145782D01*
X80428572Y-23145782D02*
X80428572Y-21945782D01*
X80428572Y-21945782D02*
X81000000Y-21945782D01*
X81514286Y-23145782D02*
X81514286Y-21945782D01*
X81514286Y-21945782D02*
X82200000Y-23145782D01*
X82200000Y-23145782D02*
X82200000Y-21945782D01*
X82771429Y-23145782D02*
X82771429Y-21945782D01*
X82771429Y-21945782D02*
X83457143Y-23145782D01*
X83457143Y-23145782D02*
X83457143Y-21945782D01*
X83971429Y-22802925D02*
X84542858Y-22802925D01*
X83857143Y-23145782D02*
X84257143Y-21945782D01*
X84257143Y-21945782D02*
X84657143Y-23145782D01*
X85971429Y-22688640D02*
X86885715Y-22688640D01*
X88371429Y-23145782D02*
X88371429Y-21945782D01*
X89057143Y-23145782D02*
X88542857Y-22460068D01*
X89057143Y-21945782D02*
X88371429Y-22631497D01*
X89571429Y-22517211D02*
X89971429Y-22517211D01*
X90142857Y-23145782D02*
X89571429Y-23145782D01*
X89571429Y-23145782D02*
X89571429Y-21945782D01*
X89571429Y-21945782D02*
X90142857Y-21945782D01*
X90657143Y-22517211D02*
X91057143Y-22517211D01*
X91228571Y-23145782D02*
X90657143Y-23145782D01*
X90657143Y-23145782D02*
X90657143Y-21945782D01*
X90657143Y-21945782D02*
X91228571Y-21945782D01*
X91742857Y-23145782D02*
X91742857Y-21945782D01*
X91742857Y-21945782D02*
X92200000Y-21945782D01*
X92200000Y-21945782D02*
X92314285Y-22002925D01*
X92314285Y-22002925D02*
X92371428Y-22060068D01*
X92371428Y-22060068D02*
X92428571Y-22174354D01*
X92428571Y-22174354D02*
X92428571Y-22345782D01*
X92428571Y-22345782D02*
X92371428Y-22460068D01*
X92371428Y-22460068D02*
X92314285Y-22517211D01*
X92314285Y-22517211D02*
X92200000Y-22574354D01*
X92200000Y-22574354D02*
X91742857Y-22574354D01*
X94542857Y-23031497D02*
X94485714Y-23088640D01*
X94485714Y-23088640D02*
X94314286Y-23145782D01*
X94314286Y-23145782D02*
X94200000Y-23145782D01*
X94200000Y-23145782D02*
X94028571Y-23088640D01*
X94028571Y-23088640D02*
X93914286Y-22974354D01*
X93914286Y-22974354D02*
X93857143Y-22860068D01*
X93857143Y-22860068D02*
X93800000Y-22631497D01*
X93800000Y-22631497D02*
X93800000Y-22460068D01*
X93800000Y-22460068D02*
X93857143Y-22231497D01*
X93857143Y-22231497D02*
X93914286Y-22117211D01*
X93914286Y-22117211D02*
X94028571Y-22002925D01*
X94028571Y-22002925D02*
X94200000Y-21945782D01*
X94200000Y-21945782D02*
X94314286Y-21945782D01*
X94314286Y-21945782D02*
X94485714Y-22002925D01*
X94485714Y-22002925D02*
X94542857Y-22060068D01*
X95628571Y-23145782D02*
X95057143Y-23145782D01*
X95057143Y-23145782D02*
X95057143Y-21945782D01*
X96028572Y-22517211D02*
X96428572Y-22517211D01*
X96600000Y-23145782D02*
X96028572Y-23145782D01*
X96028572Y-23145782D02*
X96028572Y-21945782D01*
X96028572Y-21945782D02*
X96600000Y-21945782D01*
X97057143Y-22802925D02*
X97628572Y-22802925D01*
X96942857Y-23145782D02*
X97342857Y-21945782D01*
X97342857Y-21945782D02*
X97742857Y-23145782D01*
X98828571Y-23145782D02*
X98428571Y-22574354D01*
X98142857Y-23145782D02*
X98142857Y-21945782D01*
X98142857Y-21945782D02*
X98600000Y-21945782D01*
X98600000Y-21945782D02*
X98714285Y-22002925D01*
X98714285Y-22002925D02*
X98771428Y-22060068D01*
X98771428Y-22060068D02*
X98828571Y-22174354D01*
X98828571Y-22174354D02*
X98828571Y-22345782D01*
X98828571Y-22345782D02*
X98771428Y-22460068D01*
X98771428Y-22460068D02*
X98714285Y-22517211D01*
X98714285Y-22517211D02*
X98600000Y-22574354D01*
X98600000Y-22574354D02*
X98142857Y-22574354D01*
D14*
X30928571Y-38110800D02*
X32071429Y-38110800D01*
X30928571Y-60110800D02*
X32071429Y-60110800D01*
X49142855Y-67896514D02*
X49357141Y-67967942D01*
X49357141Y-67967942D02*
X49428570Y-68039371D01*
X49428570Y-68039371D02*
X49499998Y-68182228D01*
X49499998Y-68182228D02*
X49499998Y-68396514D01*
X49499998Y-68396514D02*
X49428570Y-68539371D01*
X49428570Y-68539371D02*
X49357141Y-68610800D01*
X49357141Y-68610800D02*
X49214284Y-68682228D01*
X49214284Y-68682228D02*
X48642855Y-68682228D01*
X48642855Y-68682228D02*
X48642855Y-67182228D01*
X48642855Y-67182228D02*
X49142855Y-67182228D01*
X49142855Y-67182228D02*
X49285713Y-67253657D01*
X49285713Y-67253657D02*
X49357141Y-67325085D01*
X49357141Y-67325085D02*
X49428570Y-67467942D01*
X49428570Y-67467942D02*
X49428570Y-67610800D01*
X49428570Y-67610800D02*
X49357141Y-67753657D01*
X49357141Y-67753657D02*
X49285713Y-67825085D01*
X49285713Y-67825085D02*
X49142855Y-67896514D01*
X49142855Y-67896514D02*
X48642855Y-67896514D01*
X50142855Y-68682228D02*
X50142855Y-67182228D01*
X50785713Y-68610800D02*
X50999999Y-68682228D01*
X50999999Y-68682228D02*
X51357141Y-68682228D01*
X51357141Y-68682228D02*
X51499999Y-68610800D01*
X51499999Y-68610800D02*
X51571427Y-68539371D01*
X51571427Y-68539371D02*
X51642856Y-68396514D01*
X51642856Y-68396514D02*
X51642856Y-68253657D01*
X51642856Y-68253657D02*
X51571427Y-68110800D01*
X51571427Y-68110800D02*
X51499999Y-68039371D01*
X51499999Y-68039371D02*
X51357141Y-67967942D01*
X51357141Y-67967942D02*
X51071427Y-67896514D01*
X51071427Y-67896514D02*
X50928570Y-67825085D01*
X50928570Y-67825085D02*
X50857141Y-67753657D01*
X50857141Y-67753657D02*
X50785713Y-67610800D01*
X50785713Y-67610800D02*
X50785713Y-67467942D01*
X50785713Y-67467942D02*
X50857141Y-67325085D01*
X50857141Y-67325085D02*
X50928570Y-67253657D01*
X50928570Y-67253657D02*
X51071427Y-67182228D01*
X51071427Y-67182228D02*
X51428570Y-67182228D01*
X51428570Y-67182228D02*
X51642856Y-67253657D01*
X53285712Y-68825085D02*
X53142855Y-68753657D01*
X53142855Y-68753657D02*
X52999998Y-68610800D01*
X52999998Y-68610800D02*
X52785712Y-68396514D01*
X52785712Y-68396514D02*
X52642855Y-68325085D01*
X52642855Y-68325085D02*
X52499998Y-68325085D01*
X52571427Y-68682228D02*
X52428570Y-68610800D01*
X52428570Y-68610800D02*
X52285712Y-68467942D01*
X52285712Y-68467942D02*
X52214284Y-68182228D01*
X52214284Y-68182228D02*
X52214284Y-67682228D01*
X52214284Y-67682228D02*
X52285712Y-67396514D01*
X52285712Y-67396514D02*
X52428570Y-67253657D01*
X52428570Y-67253657D02*
X52571427Y-67182228D01*
X52571427Y-67182228D02*
X52857141Y-67182228D01*
X52857141Y-67182228D02*
X52999998Y-67253657D01*
X52999998Y-67253657D02*
X53142855Y-67396514D01*
X53142855Y-67396514D02*
X53214284Y-67682228D01*
X53214284Y-67682228D02*
X53214284Y-68182228D01*
X53214284Y-68182228D02*
X53142855Y-68467942D01*
X53142855Y-68467942D02*
X52999998Y-68610800D01*
X52999998Y-68610800D02*
X52857141Y-68682228D01*
X52857141Y-68682228D02*
X52571427Y-68682228D01*
X53857141Y-67182228D02*
X53857141Y-68396514D01*
X53857141Y-68396514D02*
X53928570Y-68539371D01*
X53928570Y-68539371D02*
X53999999Y-68610800D01*
X53999999Y-68610800D02*
X54142856Y-68682228D01*
X54142856Y-68682228D02*
X54428570Y-68682228D01*
X54428570Y-68682228D02*
X54571427Y-68610800D01*
X54571427Y-68610800D02*
X54642856Y-68539371D01*
X54642856Y-68539371D02*
X54714284Y-68396514D01*
X54714284Y-68396514D02*
X54714284Y-67182228D01*
X55428570Y-67896514D02*
X55928570Y-67896514D01*
X56142856Y-68682228D02*
X55428570Y-68682228D01*
X55428570Y-68682228D02*
X55428570Y-67182228D01*
X55428570Y-67182228D02*
X56142856Y-67182228D01*
X57928570Y-68682228D02*
X57928570Y-67182228D01*
X58785713Y-68682228D02*
X58142856Y-67825085D01*
X58785713Y-67182228D02*
X57928570Y-68039371D01*
X59428570Y-68682228D02*
X59428570Y-67182228D01*
X60857142Y-68682228D02*
X60142856Y-68682228D01*
X60142856Y-68682228D02*
X60142856Y-67182228D01*
X61357142Y-68682228D02*
X61357142Y-67182228D01*
X61357142Y-67182228D02*
X62214285Y-68682228D01*
X62214285Y-68682228D02*
X62214285Y-67182228D01*
X64928571Y-68539371D02*
X64857143Y-68610800D01*
X64857143Y-68610800D02*
X64642857Y-68682228D01*
X64642857Y-68682228D02*
X64500000Y-68682228D01*
X64500000Y-68682228D02*
X64285714Y-68610800D01*
X64285714Y-68610800D02*
X64142857Y-68467942D01*
X64142857Y-68467942D02*
X64071428Y-68325085D01*
X64071428Y-68325085D02*
X64000000Y-68039371D01*
X64000000Y-68039371D02*
X64000000Y-67825085D01*
X64000000Y-67825085D02*
X64071428Y-67539371D01*
X64071428Y-67539371D02*
X64142857Y-67396514D01*
X64142857Y-67396514D02*
X64285714Y-67253657D01*
X64285714Y-67253657D02*
X64500000Y-67182228D01*
X64500000Y-67182228D02*
X64642857Y-67182228D01*
X64642857Y-67182228D02*
X64857143Y-67253657D01*
X64857143Y-67253657D02*
X64928571Y-67325085D01*
X65857143Y-67182228D02*
X66142857Y-67182228D01*
X66142857Y-67182228D02*
X66285714Y-67253657D01*
X66285714Y-67253657D02*
X66428571Y-67396514D01*
X66428571Y-67396514D02*
X66500000Y-67682228D01*
X66500000Y-67682228D02*
X66500000Y-68182228D01*
X66500000Y-68182228D02*
X66428571Y-68467942D01*
X66428571Y-68467942D02*
X66285714Y-68610800D01*
X66285714Y-68610800D02*
X66142857Y-68682228D01*
X66142857Y-68682228D02*
X65857143Y-68682228D01*
X65857143Y-68682228D02*
X65714286Y-68610800D01*
X65714286Y-68610800D02*
X65571428Y-68467942D01*
X65571428Y-68467942D02*
X65500000Y-68182228D01*
X65500000Y-68182228D02*
X65500000Y-67682228D01*
X65500000Y-67682228D02*
X65571428Y-67396514D01*
X65571428Y-67396514D02*
X65714286Y-67253657D01*
X65714286Y-67253657D02*
X65857143Y-67182228D01*
X67142857Y-68682228D02*
X67142857Y-67182228D01*
X67142857Y-67182228D02*
X68000000Y-68682228D01*
X68000000Y-68682228D02*
X68000000Y-67182228D01*
X68500001Y-67182228D02*
X69357144Y-67182228D01*
X68928572Y-68682228D02*
X68928572Y-67182228D01*
X70714286Y-68682228D02*
X70214286Y-67967942D01*
X69857143Y-68682228D02*
X69857143Y-67182228D01*
X69857143Y-67182228D02*
X70428572Y-67182228D01*
X70428572Y-67182228D02*
X70571429Y-67253657D01*
X70571429Y-67253657D02*
X70642858Y-67325085D01*
X70642858Y-67325085D02*
X70714286Y-67467942D01*
X70714286Y-67467942D02*
X70714286Y-67682228D01*
X70714286Y-67682228D02*
X70642858Y-67825085D01*
X70642858Y-67825085D02*
X70571429Y-67896514D01*
X70571429Y-67896514D02*
X70428572Y-67967942D01*
X70428572Y-67967942D02*
X69857143Y-67967942D01*
X71642858Y-67182228D02*
X71928572Y-67182228D01*
X71928572Y-67182228D02*
X72071429Y-67253657D01*
X72071429Y-67253657D02*
X72214286Y-67396514D01*
X72214286Y-67396514D02*
X72285715Y-67682228D01*
X72285715Y-67682228D02*
X72285715Y-68182228D01*
X72285715Y-68182228D02*
X72214286Y-68467942D01*
X72214286Y-68467942D02*
X72071429Y-68610800D01*
X72071429Y-68610800D02*
X71928572Y-68682228D01*
X71928572Y-68682228D02*
X71642858Y-68682228D01*
X71642858Y-68682228D02*
X71500001Y-68610800D01*
X71500001Y-68610800D02*
X71357143Y-68467942D01*
X71357143Y-68467942D02*
X71285715Y-68182228D01*
X71285715Y-68182228D02*
X71285715Y-67682228D01*
X71285715Y-67682228D02*
X71357143Y-67396514D01*
X71357143Y-67396514D02*
X71500001Y-67253657D01*
X71500001Y-67253657D02*
X71642858Y-67182228D01*
X73642858Y-68682228D02*
X72928572Y-68682228D01*
X72928572Y-68682228D02*
X72928572Y-67182228D01*
X74857144Y-68682228D02*
X74142858Y-68682228D01*
X74142858Y-68682228D02*
X74142858Y-67182228D01*
X75357144Y-67896514D02*
X75857144Y-67896514D01*
X76071430Y-68682228D02*
X75357144Y-68682228D01*
X75357144Y-68682228D02*
X75357144Y-67182228D01*
X75357144Y-67182228D02*
X76071430Y-67182228D01*
X77571430Y-68682228D02*
X77071430Y-67967942D01*
X76714287Y-68682228D02*
X76714287Y-67182228D01*
X76714287Y-67182228D02*
X77285716Y-67182228D01*
X77285716Y-67182228D02*
X77428573Y-67253657D01*
X77428573Y-67253657D02*
X77500002Y-67325085D01*
X77500002Y-67325085D02*
X77571430Y-67467942D01*
X77571430Y-67467942D02*
X77571430Y-67682228D01*
X77571430Y-67682228D02*
X77500002Y-67825085D01*
X77500002Y-67825085D02*
X77428573Y-67896514D01*
X77428573Y-67896514D02*
X77285716Y-67967942D01*
X77285716Y-67967942D02*
X76714287Y-67967942D01*
X79214287Y-67682228D02*
X79571430Y-68682228D01*
X79571430Y-68682228D02*
X79928573Y-67682228D01*
X81285716Y-68682228D02*
X80428573Y-68682228D01*
X80857144Y-68682228D02*
X80857144Y-67182228D01*
X80857144Y-67182228D02*
X80714287Y-67396514D01*
X80714287Y-67396514D02*
X80571430Y-67539371D01*
X80571430Y-67539371D02*
X80428573Y-67610800D01*
X81928572Y-68539371D02*
X82000001Y-68610800D01*
X82000001Y-68610800D02*
X81928572Y-68682228D01*
X81928572Y-68682228D02*
X81857144Y-68610800D01*
X81857144Y-68610800D02*
X81928572Y-68539371D01*
X81928572Y-68539371D02*
X81928572Y-68682228D01*
X82928573Y-67182228D02*
X83071430Y-67182228D01*
X83071430Y-67182228D02*
X83214287Y-67253657D01*
X83214287Y-67253657D02*
X83285716Y-67325085D01*
X83285716Y-67325085D02*
X83357144Y-67467942D01*
X83357144Y-67467942D02*
X83428573Y-67753657D01*
X83428573Y-67753657D02*
X83428573Y-68110800D01*
X83428573Y-68110800D02*
X83357144Y-68396514D01*
X83357144Y-68396514D02*
X83285716Y-68539371D01*
X83285716Y-68539371D02*
X83214287Y-68610800D01*
X83214287Y-68610800D02*
X83071430Y-68682228D01*
X83071430Y-68682228D02*
X82928573Y-68682228D01*
X82928573Y-68682228D02*
X82785716Y-68610800D01*
X82785716Y-68610800D02*
X82714287Y-68539371D01*
X82714287Y-68539371D02*
X82642858Y-68396514D01*
X82642858Y-68396514D02*
X82571430Y-68110800D01*
X82571430Y-68110800D02*
X82571430Y-67753657D01*
X82571430Y-67753657D02*
X82642858Y-67467942D01*
X82642858Y-67467942D02*
X82714287Y-67325085D01*
X82714287Y-67325085D02*
X82785716Y-67253657D01*
X82785716Y-67253657D02*
X82928573Y-67182228D01*
D10*
X71733333Y-90163855D02*
X71733333Y-90735283D01*
X71733333Y-90735283D02*
X71695238Y-90849569D01*
X71695238Y-90849569D02*
X71619047Y-90925760D01*
X71619047Y-90925760D02*
X71504762Y-90963855D01*
X71504762Y-90963855D02*
X71428571Y-90963855D01*
X72038095Y-90163855D02*
X72571429Y-90163855D01*
X72571429Y-90163855D02*
X72228571Y-90963855D01*
X54533333Y-90163855D02*
X54533333Y-90735283D01*
X54533333Y-90735283D02*
X54495238Y-90849569D01*
X54495238Y-90849569D02*
X54419047Y-90925760D01*
X54419047Y-90925760D02*
X54304762Y-90963855D01*
X54304762Y-90963855D02*
X54228571Y-90963855D01*
X55257143Y-90163855D02*
X55104762Y-90163855D01*
X55104762Y-90163855D02*
X55028571Y-90201950D01*
X55028571Y-90201950D02*
X54990476Y-90240045D01*
X54990476Y-90240045D02*
X54914286Y-90354331D01*
X54914286Y-90354331D02*
X54876190Y-90506712D01*
X54876190Y-90506712D02*
X54876190Y-90811474D01*
X54876190Y-90811474D02*
X54914286Y-90887664D01*
X54914286Y-90887664D02*
X54952381Y-90925760D01*
X54952381Y-90925760D02*
X55028571Y-90963855D01*
X55028571Y-90963855D02*
X55180952Y-90963855D01*
X55180952Y-90963855D02*
X55257143Y-90925760D01*
X55257143Y-90925760D02*
X55295238Y-90887664D01*
X55295238Y-90887664D02*
X55333333Y-90811474D01*
X55333333Y-90811474D02*
X55333333Y-90620998D01*
X55333333Y-90620998D02*
X55295238Y-90544807D01*
X55295238Y-90544807D02*
X55257143Y-90506712D01*
X55257143Y-90506712D02*
X55180952Y-90468617D01*
X55180952Y-90468617D02*
X55028571Y-90468617D01*
X55028571Y-90468617D02*
X54952381Y-90506712D01*
X54952381Y-90506712D02*
X54914286Y-90544807D01*
X54914286Y-90544807D02*
X54876190Y-90620998D01*
X59137664Y-32633332D02*
X59175760Y-32671428D01*
X59175760Y-32671428D02*
X59213855Y-32785713D01*
X59213855Y-32785713D02*
X59213855Y-32861904D01*
X59213855Y-32861904D02*
X59175760Y-32976190D01*
X59175760Y-32976190D02*
X59099569Y-33052380D01*
X59099569Y-33052380D02*
X59023379Y-33090475D01*
X59023379Y-33090475D02*
X58870998Y-33128571D01*
X58870998Y-33128571D02*
X58756712Y-33128571D01*
X58756712Y-33128571D02*
X58604331Y-33090475D01*
X58604331Y-33090475D02*
X58528140Y-33052380D01*
X58528140Y-33052380D02*
X58451950Y-32976190D01*
X58451950Y-32976190D02*
X58413855Y-32861904D01*
X58413855Y-32861904D02*
X58413855Y-32785713D01*
X58413855Y-32785713D02*
X58451950Y-32671428D01*
X58451950Y-32671428D02*
X58490045Y-32633332D01*
X58413855Y-32366666D02*
X58413855Y-31871428D01*
X58413855Y-31871428D02*
X58718617Y-32138094D01*
X58718617Y-32138094D02*
X58718617Y-32023809D01*
X58718617Y-32023809D02*
X58756712Y-31947618D01*
X58756712Y-31947618D02*
X58794807Y-31909523D01*
X58794807Y-31909523D02*
X58870998Y-31871428D01*
X58870998Y-31871428D02*
X59061474Y-31871428D01*
X59061474Y-31871428D02*
X59137664Y-31909523D01*
X59137664Y-31909523D02*
X59175760Y-31947618D01*
X59175760Y-31947618D02*
X59213855Y-32023809D01*
X59213855Y-32023809D02*
X59213855Y-32252380D01*
X59213855Y-32252380D02*
X59175760Y-32328571D01*
X59175760Y-32328571D02*
X59137664Y-32366666D01*
X89713855Y-88133332D02*
X89332902Y-88399999D01*
X89713855Y-88590475D02*
X88913855Y-88590475D01*
X88913855Y-88590475D02*
X88913855Y-88285713D01*
X88913855Y-88285713D02*
X88951950Y-88209523D01*
X88951950Y-88209523D02*
X88990045Y-88171428D01*
X88990045Y-88171428D02*
X89066236Y-88133332D01*
X89066236Y-88133332D02*
X89180521Y-88133332D01*
X89180521Y-88133332D02*
X89256712Y-88171428D01*
X89256712Y-88171428D02*
X89294807Y-88209523D01*
X89294807Y-88209523D02*
X89332902Y-88285713D01*
X89332902Y-88285713D02*
X89332902Y-88590475D01*
X89180521Y-87447618D02*
X89713855Y-87447618D01*
X88875760Y-87638094D02*
X89447188Y-87828571D01*
X89447188Y-87828571D02*
X89447188Y-87333332D01*
X57923809Y-78040045D02*
X57847619Y-78001950D01*
X57847619Y-78001950D02*
X57771428Y-77925760D01*
X57771428Y-77925760D02*
X57657142Y-77811474D01*
X57657142Y-77811474D02*
X57580952Y-77773379D01*
X57580952Y-77773379D02*
X57504761Y-77773379D01*
X57542857Y-77963855D02*
X57466666Y-77925760D01*
X57466666Y-77925760D02*
X57390476Y-77849569D01*
X57390476Y-77849569D02*
X57352380Y-77697188D01*
X57352380Y-77697188D02*
X57352380Y-77430521D01*
X57352380Y-77430521D02*
X57390476Y-77278140D01*
X57390476Y-77278140D02*
X57466666Y-77201950D01*
X57466666Y-77201950D02*
X57542857Y-77163855D01*
X57542857Y-77163855D02*
X57695238Y-77163855D01*
X57695238Y-77163855D02*
X57771428Y-77201950D01*
X57771428Y-77201950D02*
X57847619Y-77278140D01*
X57847619Y-77278140D02*
X57885714Y-77430521D01*
X57885714Y-77430521D02*
X57885714Y-77697188D01*
X57885714Y-77697188D02*
X57847619Y-77849569D01*
X57847619Y-77849569D02*
X57771428Y-77925760D01*
X57771428Y-77925760D02*
X57695238Y-77963855D01*
X57695238Y-77963855D02*
X57542857Y-77963855D01*
X58190475Y-77240045D02*
X58228571Y-77201950D01*
X58228571Y-77201950D02*
X58304761Y-77163855D01*
X58304761Y-77163855D02*
X58495237Y-77163855D01*
X58495237Y-77163855D02*
X58571428Y-77201950D01*
X58571428Y-77201950D02*
X58609523Y-77240045D01*
X58609523Y-77240045D02*
X58647618Y-77316236D01*
X58647618Y-77316236D02*
X58647618Y-77392426D01*
X58647618Y-77392426D02*
X58609523Y-77506712D01*
X58609523Y-77506712D02*
X58152380Y-77963855D01*
X58152380Y-77963855D02*
X58647618Y-77963855D01*
X77063855Y-45009523D02*
X77711474Y-45009523D01*
X77711474Y-45009523D02*
X77787664Y-44971428D01*
X77787664Y-44971428D02*
X77825760Y-44933333D01*
X77825760Y-44933333D02*
X77863855Y-44857142D01*
X77863855Y-44857142D02*
X77863855Y-44704761D01*
X77863855Y-44704761D02*
X77825760Y-44628571D01*
X77825760Y-44628571D02*
X77787664Y-44590476D01*
X77787664Y-44590476D02*
X77711474Y-44552380D01*
X77711474Y-44552380D02*
X77063855Y-44552380D01*
X77863855Y-43752381D02*
X77863855Y-44209524D01*
X77863855Y-43980952D02*
X77063855Y-43980952D01*
X77063855Y-43980952D02*
X77178140Y-44057143D01*
X77178140Y-44057143D02*
X77254331Y-44133333D01*
X77254331Y-44133333D02*
X77292426Y-44209524D01*
X70413855Y-80090475D02*
X69613855Y-80090475D01*
X69613855Y-80090475D02*
X69613855Y-79899999D01*
X69613855Y-79899999D02*
X69651950Y-79785713D01*
X69651950Y-79785713D02*
X69728140Y-79709523D01*
X69728140Y-79709523D02*
X69804331Y-79671428D01*
X69804331Y-79671428D02*
X69956712Y-79633332D01*
X69956712Y-79633332D02*
X70070998Y-79633332D01*
X70070998Y-79633332D02*
X70223379Y-79671428D01*
X70223379Y-79671428D02*
X70299569Y-79709523D01*
X70299569Y-79709523D02*
X70375760Y-79785713D01*
X70375760Y-79785713D02*
X70413855Y-79899999D01*
X70413855Y-79899999D02*
X70413855Y-80090475D01*
X69613855Y-79366666D02*
X69613855Y-78871428D01*
X69613855Y-78871428D02*
X69918617Y-79138094D01*
X69918617Y-79138094D02*
X69918617Y-79023809D01*
X69918617Y-79023809D02*
X69956712Y-78947618D01*
X69956712Y-78947618D02*
X69994807Y-78909523D01*
X69994807Y-78909523D02*
X70070998Y-78871428D01*
X70070998Y-78871428D02*
X70261474Y-78871428D01*
X70261474Y-78871428D02*
X70337664Y-78909523D01*
X70337664Y-78909523D02*
X70375760Y-78947618D01*
X70375760Y-78947618D02*
X70413855Y-79023809D01*
X70413855Y-79023809D02*
X70413855Y-79252380D01*
X70413855Y-79252380D02*
X70375760Y-79328571D01*
X70375760Y-79328571D02*
X70337664Y-79366666D01*
X50433332Y-25325760D02*
X50547618Y-25363855D01*
X50547618Y-25363855D02*
X50738094Y-25363855D01*
X50738094Y-25363855D02*
X50814285Y-25325760D01*
X50814285Y-25325760D02*
X50852380Y-25287664D01*
X50852380Y-25287664D02*
X50890475Y-25211474D01*
X50890475Y-25211474D02*
X50890475Y-25135283D01*
X50890475Y-25135283D02*
X50852380Y-25059093D01*
X50852380Y-25059093D02*
X50814285Y-25020998D01*
X50814285Y-25020998D02*
X50738094Y-24982902D01*
X50738094Y-24982902D02*
X50585713Y-24944807D01*
X50585713Y-24944807D02*
X50509523Y-24906712D01*
X50509523Y-24906712D02*
X50471428Y-24868617D01*
X50471428Y-24868617D02*
X50433332Y-24792426D01*
X50433332Y-24792426D02*
X50433332Y-24716236D01*
X50433332Y-24716236D02*
X50471428Y-24640045D01*
X50471428Y-24640045D02*
X50509523Y-24601950D01*
X50509523Y-24601950D02*
X50585713Y-24563855D01*
X50585713Y-24563855D02*
X50776190Y-24563855D01*
X50776190Y-24563855D02*
X50890475Y-24601950D01*
X51157142Y-24563855D02*
X51347618Y-25363855D01*
X51347618Y-25363855D02*
X51499999Y-24792426D01*
X51499999Y-24792426D02*
X51652380Y-25363855D01*
X51652380Y-25363855D02*
X51842857Y-24563855D01*
X52566666Y-25363855D02*
X52109523Y-25363855D01*
X52338095Y-25363855D02*
X52338095Y-24563855D01*
X52338095Y-24563855D02*
X52261904Y-24678140D01*
X52261904Y-24678140D02*
X52185714Y-24754331D01*
X52185714Y-24754331D02*
X52109523Y-24792426D01*
X68904761Y-89663855D02*
X68523809Y-89663855D01*
X68523809Y-89663855D02*
X68523809Y-88863855D01*
X69171428Y-89244807D02*
X69438094Y-89244807D01*
X69552380Y-89663855D02*
X69171428Y-89663855D01*
X69171428Y-89663855D02*
X69171428Y-88863855D01*
X69171428Y-88863855D02*
X69552380Y-88863855D01*
X69895238Y-89663855D02*
X69895238Y-88863855D01*
X69895238Y-88863855D02*
X70085714Y-88863855D01*
X70085714Y-88863855D02*
X70200000Y-88901950D01*
X70200000Y-88901950D02*
X70276190Y-88978140D01*
X70276190Y-88978140D02*
X70314285Y-89054331D01*
X70314285Y-89054331D02*
X70352381Y-89206712D01*
X70352381Y-89206712D02*
X70352381Y-89320998D01*
X70352381Y-89320998D02*
X70314285Y-89473379D01*
X70314285Y-89473379D02*
X70276190Y-89549569D01*
X70276190Y-89549569D02*
X70200000Y-89625760D01*
X70200000Y-89625760D02*
X70085714Y-89663855D01*
X70085714Y-89663855D02*
X69895238Y-89663855D01*
X71114285Y-89663855D02*
X70657142Y-89663855D01*
X70885714Y-89663855D02*
X70885714Y-88863855D01*
X70885714Y-88863855D02*
X70809523Y-88978140D01*
X70809523Y-88978140D02*
X70733333Y-89054331D01*
X70733333Y-89054331D02*
X70657142Y-89092426D01*
D12*
X71228571Y-84762295D02*
X70771428Y-84762295D01*
X71000000Y-84762295D02*
X71000000Y-83962295D01*
X71000000Y-83962295D02*
X70923809Y-84076580D01*
X70923809Y-84076580D02*
X70847619Y-84152771D01*
X70847619Y-84152771D02*
X70771428Y-84190866D01*
D10*
X95733333Y-89518855D02*
X95733333Y-90090283D01*
X95733333Y-90090283D02*
X95695238Y-90204569D01*
X95695238Y-90204569D02*
X95619047Y-90280760D01*
X95619047Y-90280760D02*
X95504762Y-90318855D01*
X95504762Y-90318855D02*
X95428571Y-90318855D01*
X96533333Y-90318855D02*
X96076190Y-90318855D01*
X96304762Y-90318855D02*
X96304762Y-89518855D01*
X96304762Y-89518855D02*
X96228571Y-89633140D01*
X96228571Y-89633140D02*
X96152381Y-89709331D01*
X96152381Y-89709331D02*
X96076190Y-89747426D01*
X29890476Y-25363855D02*
X29890476Y-24563855D01*
X29890476Y-24944807D02*
X30347619Y-24944807D01*
X30347619Y-25363855D02*
X30347619Y-24563855D01*
X31147618Y-25363855D02*
X30690475Y-25363855D01*
X30919047Y-25363855D02*
X30919047Y-24563855D01*
X30919047Y-24563855D02*
X30842856Y-24678140D01*
X30842856Y-24678140D02*
X30766666Y-24754331D01*
X30766666Y-24754331D02*
X30690475Y-24792426D01*
X39713855Y-52133332D02*
X39332902Y-52399999D01*
X39713855Y-52590475D02*
X38913855Y-52590475D01*
X38913855Y-52590475D02*
X38913855Y-52285713D01*
X38913855Y-52285713D02*
X38951950Y-52209523D01*
X38951950Y-52209523D02*
X38990045Y-52171428D01*
X38990045Y-52171428D02*
X39066236Y-52133332D01*
X39066236Y-52133332D02*
X39180521Y-52133332D01*
X39180521Y-52133332D02*
X39256712Y-52171428D01*
X39256712Y-52171428D02*
X39294807Y-52209523D01*
X39294807Y-52209523D02*
X39332902Y-52285713D01*
X39332902Y-52285713D02*
X39332902Y-52590475D01*
X38913855Y-51866666D02*
X38913855Y-51333332D01*
X38913855Y-51333332D02*
X39713855Y-51676190D01*
X45866667Y-55013855D02*
X45600000Y-54632902D01*
X45409524Y-55013855D02*
X45409524Y-54213855D01*
X45409524Y-54213855D02*
X45714286Y-54213855D01*
X45714286Y-54213855D02*
X45790476Y-54251950D01*
X45790476Y-54251950D02*
X45828571Y-54290045D01*
X45828571Y-54290045D02*
X45866667Y-54366236D01*
X45866667Y-54366236D02*
X45866667Y-54480521D01*
X45866667Y-54480521D02*
X45828571Y-54556712D01*
X45828571Y-54556712D02*
X45790476Y-54594807D01*
X45790476Y-54594807D02*
X45714286Y-54632902D01*
X45714286Y-54632902D02*
X45409524Y-54632902D01*
X46552381Y-54213855D02*
X46400000Y-54213855D01*
X46400000Y-54213855D02*
X46323809Y-54251950D01*
X46323809Y-54251950D02*
X46285714Y-54290045D01*
X46285714Y-54290045D02*
X46209524Y-54404331D01*
X46209524Y-54404331D02*
X46171428Y-54556712D01*
X46171428Y-54556712D02*
X46171428Y-54861474D01*
X46171428Y-54861474D02*
X46209524Y-54937664D01*
X46209524Y-54937664D02*
X46247619Y-54975760D01*
X46247619Y-54975760D02*
X46323809Y-55013855D01*
X46323809Y-55013855D02*
X46476190Y-55013855D01*
X46476190Y-55013855D02*
X46552381Y-54975760D01*
X46552381Y-54975760D02*
X46590476Y-54937664D01*
X46590476Y-54937664D02*
X46628571Y-54861474D01*
X46628571Y-54861474D02*
X46628571Y-54670998D01*
X46628571Y-54670998D02*
X46590476Y-54594807D01*
X46590476Y-54594807D02*
X46552381Y-54556712D01*
X46552381Y-54556712D02*
X46476190Y-54518617D01*
X46476190Y-54518617D02*
X46323809Y-54518617D01*
X46323809Y-54518617D02*
X46247619Y-54556712D01*
X46247619Y-54556712D02*
X46209524Y-54594807D01*
X46209524Y-54594807D02*
X46171428Y-54670998D01*
X98907664Y-62133332D02*
X98945760Y-62171428D01*
X98945760Y-62171428D02*
X98983855Y-62285713D01*
X98983855Y-62285713D02*
X98983855Y-62361904D01*
X98983855Y-62361904D02*
X98945760Y-62476190D01*
X98945760Y-62476190D02*
X98869569Y-62552380D01*
X98869569Y-62552380D02*
X98793379Y-62590475D01*
X98793379Y-62590475D02*
X98640998Y-62628571D01*
X98640998Y-62628571D02*
X98526712Y-62628571D01*
X98526712Y-62628571D02*
X98374331Y-62590475D01*
X98374331Y-62590475D02*
X98298140Y-62552380D01*
X98298140Y-62552380D02*
X98221950Y-62476190D01*
X98221950Y-62476190D02*
X98183855Y-62361904D01*
X98183855Y-62361904D02*
X98183855Y-62285713D01*
X98183855Y-62285713D02*
X98221950Y-62171428D01*
X98221950Y-62171428D02*
X98260045Y-62133332D01*
X98526712Y-61676190D02*
X98488617Y-61752380D01*
X98488617Y-61752380D02*
X98450521Y-61790475D01*
X98450521Y-61790475D02*
X98374331Y-61828571D01*
X98374331Y-61828571D02*
X98336236Y-61828571D01*
X98336236Y-61828571D02*
X98260045Y-61790475D01*
X98260045Y-61790475D02*
X98221950Y-61752380D01*
X98221950Y-61752380D02*
X98183855Y-61676190D01*
X98183855Y-61676190D02*
X98183855Y-61523809D01*
X98183855Y-61523809D02*
X98221950Y-61447618D01*
X98221950Y-61447618D02*
X98260045Y-61409523D01*
X98260045Y-61409523D02*
X98336236Y-61371428D01*
X98336236Y-61371428D02*
X98374331Y-61371428D01*
X98374331Y-61371428D02*
X98450521Y-61409523D01*
X98450521Y-61409523D02*
X98488617Y-61447618D01*
X98488617Y-61447618D02*
X98526712Y-61523809D01*
X98526712Y-61523809D02*
X98526712Y-61676190D01*
X98526712Y-61676190D02*
X98564807Y-61752380D01*
X98564807Y-61752380D02*
X98602902Y-61790475D01*
X98602902Y-61790475D02*
X98679093Y-61828571D01*
X98679093Y-61828571D02*
X98831474Y-61828571D01*
X98831474Y-61828571D02*
X98907664Y-61790475D01*
X98907664Y-61790475D02*
X98945760Y-61752380D01*
X98945760Y-61752380D02*
X98983855Y-61676190D01*
X98983855Y-61676190D02*
X98983855Y-61523809D01*
X98983855Y-61523809D02*
X98945760Y-61447618D01*
X98945760Y-61447618D02*
X98907664Y-61409523D01*
X98907664Y-61409523D02*
X98831474Y-61371428D01*
X98831474Y-61371428D02*
X98679093Y-61371428D01*
X98679093Y-61371428D02*
X98602902Y-61409523D01*
X98602902Y-61409523D02*
X98564807Y-61447618D01*
X98564807Y-61447618D02*
X98526712Y-61523809D01*
X103366667Y-96613855D02*
X103100000Y-96232902D01*
X102909524Y-96613855D02*
X102909524Y-95813855D01*
X102909524Y-95813855D02*
X103214286Y-95813855D01*
X103214286Y-95813855D02*
X103290476Y-95851950D01*
X103290476Y-95851950D02*
X103328571Y-95890045D01*
X103328571Y-95890045D02*
X103366667Y-95966236D01*
X103366667Y-95966236D02*
X103366667Y-96080521D01*
X103366667Y-96080521D02*
X103328571Y-96156712D01*
X103328571Y-96156712D02*
X103290476Y-96194807D01*
X103290476Y-96194807D02*
X103214286Y-96232902D01*
X103214286Y-96232902D02*
X102909524Y-96232902D01*
X104090476Y-95813855D02*
X103709524Y-95813855D01*
X103709524Y-95813855D02*
X103671428Y-96194807D01*
X103671428Y-96194807D02*
X103709524Y-96156712D01*
X103709524Y-96156712D02*
X103785714Y-96118617D01*
X103785714Y-96118617D02*
X103976190Y-96118617D01*
X103976190Y-96118617D02*
X104052381Y-96156712D01*
X104052381Y-96156712D02*
X104090476Y-96194807D01*
X104090476Y-96194807D02*
X104128571Y-96270998D01*
X104128571Y-96270998D02*
X104128571Y-96461474D01*
X104128571Y-96461474D02*
X104090476Y-96537664D01*
X104090476Y-96537664D02*
X104052381Y-96575760D01*
X104052381Y-96575760D02*
X103976190Y-96613855D01*
X103976190Y-96613855D02*
X103785714Y-96613855D01*
X103785714Y-96613855D02*
X103709524Y-96575760D01*
X103709524Y-96575760D02*
X103671428Y-96537664D01*
X103183332Y-45325760D02*
X103297618Y-45363855D01*
X103297618Y-45363855D02*
X103488094Y-45363855D01*
X103488094Y-45363855D02*
X103564285Y-45325760D01*
X103564285Y-45325760D02*
X103602380Y-45287664D01*
X103602380Y-45287664D02*
X103640475Y-45211474D01*
X103640475Y-45211474D02*
X103640475Y-45135283D01*
X103640475Y-45135283D02*
X103602380Y-45059093D01*
X103602380Y-45059093D02*
X103564285Y-45020998D01*
X103564285Y-45020998D02*
X103488094Y-44982902D01*
X103488094Y-44982902D02*
X103335713Y-44944807D01*
X103335713Y-44944807D02*
X103259523Y-44906712D01*
X103259523Y-44906712D02*
X103221428Y-44868617D01*
X103221428Y-44868617D02*
X103183332Y-44792426D01*
X103183332Y-44792426D02*
X103183332Y-44716236D01*
X103183332Y-44716236D02*
X103221428Y-44640045D01*
X103221428Y-44640045D02*
X103259523Y-44601950D01*
X103259523Y-44601950D02*
X103335713Y-44563855D01*
X103335713Y-44563855D02*
X103526190Y-44563855D01*
X103526190Y-44563855D02*
X103640475Y-44601950D01*
X103907142Y-44563855D02*
X104097618Y-45363855D01*
X104097618Y-45363855D02*
X104249999Y-44792426D01*
X104249999Y-44792426D02*
X104402380Y-45363855D01*
X104402380Y-45363855D02*
X104592857Y-44563855D01*
X104859523Y-44640045D02*
X104897619Y-44601950D01*
X104897619Y-44601950D02*
X104973809Y-44563855D01*
X104973809Y-44563855D02*
X105164285Y-44563855D01*
X105164285Y-44563855D02*
X105240476Y-44601950D01*
X105240476Y-44601950D02*
X105278571Y-44640045D01*
X105278571Y-44640045D02*
X105316666Y-44716236D01*
X105316666Y-44716236D02*
X105316666Y-44792426D01*
X105316666Y-44792426D02*
X105278571Y-44906712D01*
X105278571Y-44906712D02*
X104821428Y-45363855D01*
X104821428Y-45363855D02*
X105316666Y-45363855D01*
X114890476Y-91213855D02*
X114890476Y-90413855D01*
X114890476Y-90794807D02*
X115347619Y-90794807D01*
X115347619Y-91213855D02*
X115347619Y-90413855D01*
X116071428Y-90680521D02*
X116071428Y-91213855D01*
X115880952Y-90375760D02*
X115690475Y-90947188D01*
X115690475Y-90947188D02*
X116185714Y-90947188D01*
X41923809Y-55040045D02*
X41847619Y-55001950D01*
X41847619Y-55001950D02*
X41771428Y-54925760D01*
X41771428Y-54925760D02*
X41657142Y-54811474D01*
X41657142Y-54811474D02*
X41580952Y-54773379D01*
X41580952Y-54773379D02*
X41504761Y-54773379D01*
X41542857Y-54963855D02*
X41466666Y-54925760D01*
X41466666Y-54925760D02*
X41390476Y-54849569D01*
X41390476Y-54849569D02*
X41352380Y-54697188D01*
X41352380Y-54697188D02*
X41352380Y-54430521D01*
X41352380Y-54430521D02*
X41390476Y-54278140D01*
X41390476Y-54278140D02*
X41466666Y-54201950D01*
X41466666Y-54201950D02*
X41542857Y-54163855D01*
X41542857Y-54163855D02*
X41695238Y-54163855D01*
X41695238Y-54163855D02*
X41771428Y-54201950D01*
X41771428Y-54201950D02*
X41847619Y-54278140D01*
X41847619Y-54278140D02*
X41885714Y-54430521D01*
X41885714Y-54430521D02*
X41885714Y-54697188D01*
X41885714Y-54697188D02*
X41847619Y-54849569D01*
X41847619Y-54849569D02*
X41771428Y-54925760D01*
X41771428Y-54925760D02*
X41695238Y-54963855D01*
X41695238Y-54963855D02*
X41542857Y-54963855D01*
X42647618Y-54963855D02*
X42190475Y-54963855D01*
X42419047Y-54963855D02*
X42419047Y-54163855D01*
X42419047Y-54163855D02*
X42342856Y-54278140D01*
X42342856Y-54278140D02*
X42266666Y-54354331D01*
X42266666Y-54354331D02*
X42190475Y-54392426D01*
X110163855Y-71866666D02*
X110735283Y-71866666D01*
X110735283Y-71866666D02*
X110849569Y-71904761D01*
X110849569Y-71904761D02*
X110925760Y-71980952D01*
X110925760Y-71980952D02*
X110963855Y-72095237D01*
X110963855Y-72095237D02*
X110963855Y-72171428D01*
X110163855Y-71561904D02*
X110163855Y-71066666D01*
X110163855Y-71066666D02*
X110468617Y-71333332D01*
X110468617Y-71333332D02*
X110468617Y-71219047D01*
X110468617Y-71219047D02*
X110506712Y-71142856D01*
X110506712Y-71142856D02*
X110544807Y-71104761D01*
X110544807Y-71104761D02*
X110620998Y-71066666D01*
X110620998Y-71066666D02*
X110811474Y-71066666D01*
X110811474Y-71066666D02*
X110887664Y-71104761D01*
X110887664Y-71104761D02*
X110925760Y-71142856D01*
X110925760Y-71142856D02*
X110963855Y-71219047D01*
X110963855Y-71219047D02*
X110963855Y-71447618D01*
X110963855Y-71447618D02*
X110925760Y-71523809D01*
X110925760Y-71523809D02*
X110887664Y-71561904D01*
X37409524Y-30863855D02*
X37409524Y-30063855D01*
X37409524Y-30063855D02*
X37600000Y-30063855D01*
X37600000Y-30063855D02*
X37714286Y-30101950D01*
X37714286Y-30101950D02*
X37790476Y-30178140D01*
X37790476Y-30178140D02*
X37828571Y-30254331D01*
X37828571Y-30254331D02*
X37866667Y-30406712D01*
X37866667Y-30406712D02*
X37866667Y-30520998D01*
X37866667Y-30520998D02*
X37828571Y-30673379D01*
X37828571Y-30673379D02*
X37790476Y-30749569D01*
X37790476Y-30749569D02*
X37714286Y-30825760D01*
X37714286Y-30825760D02*
X37600000Y-30863855D01*
X37600000Y-30863855D02*
X37409524Y-30863855D01*
X38628571Y-30863855D02*
X38171428Y-30863855D01*
X38400000Y-30863855D02*
X38400000Y-30063855D01*
X38400000Y-30063855D02*
X38323809Y-30178140D01*
X38323809Y-30178140D02*
X38247619Y-30254331D01*
X38247619Y-30254331D02*
X38171428Y-30292426D01*
X60713855Y-77633332D02*
X60332902Y-77899999D01*
X60713855Y-78090475D02*
X59913855Y-78090475D01*
X59913855Y-78090475D02*
X59913855Y-77785713D01*
X59913855Y-77785713D02*
X59951950Y-77709523D01*
X59951950Y-77709523D02*
X59990045Y-77671428D01*
X59990045Y-77671428D02*
X60066236Y-77633332D01*
X60066236Y-77633332D02*
X60180521Y-77633332D01*
X60180521Y-77633332D02*
X60256712Y-77671428D01*
X60256712Y-77671428D02*
X60294807Y-77709523D01*
X60294807Y-77709523D02*
X60332902Y-77785713D01*
X60332902Y-77785713D02*
X60332902Y-78090475D01*
X60256712Y-77176190D02*
X60218617Y-77252380D01*
X60218617Y-77252380D02*
X60180521Y-77290475D01*
X60180521Y-77290475D02*
X60104331Y-77328571D01*
X60104331Y-77328571D02*
X60066236Y-77328571D01*
X60066236Y-77328571D02*
X59990045Y-77290475D01*
X59990045Y-77290475D02*
X59951950Y-77252380D01*
X59951950Y-77252380D02*
X59913855Y-77176190D01*
X59913855Y-77176190D02*
X59913855Y-77023809D01*
X59913855Y-77023809D02*
X59951950Y-76947618D01*
X59951950Y-76947618D02*
X59990045Y-76909523D01*
X59990045Y-76909523D02*
X60066236Y-76871428D01*
X60066236Y-76871428D02*
X60104331Y-76871428D01*
X60104331Y-76871428D02*
X60180521Y-76909523D01*
X60180521Y-76909523D02*
X60218617Y-76947618D01*
X60218617Y-76947618D02*
X60256712Y-77023809D01*
X60256712Y-77023809D02*
X60256712Y-77176190D01*
X60256712Y-77176190D02*
X60294807Y-77252380D01*
X60294807Y-77252380D02*
X60332902Y-77290475D01*
X60332902Y-77290475D02*
X60409093Y-77328571D01*
X60409093Y-77328571D02*
X60561474Y-77328571D01*
X60561474Y-77328571D02*
X60637664Y-77290475D01*
X60637664Y-77290475D02*
X60675760Y-77252380D01*
X60675760Y-77252380D02*
X60713855Y-77176190D01*
X60713855Y-77176190D02*
X60713855Y-77023809D01*
X60713855Y-77023809D02*
X60675760Y-76947618D01*
X60675760Y-76947618D02*
X60637664Y-76909523D01*
X60637664Y-76909523D02*
X60561474Y-76871428D01*
X60561474Y-76871428D02*
X60409093Y-76871428D01*
X60409093Y-76871428D02*
X60332902Y-76909523D01*
X60332902Y-76909523D02*
X60294807Y-76947618D01*
X60294807Y-76947618D02*
X60256712Y-77023809D01*
X42937664Y-28133332D02*
X42975760Y-28171428D01*
X42975760Y-28171428D02*
X43013855Y-28285713D01*
X43013855Y-28285713D02*
X43013855Y-28361904D01*
X43013855Y-28361904D02*
X42975760Y-28476190D01*
X42975760Y-28476190D02*
X42899569Y-28552380D01*
X42899569Y-28552380D02*
X42823379Y-28590475D01*
X42823379Y-28590475D02*
X42670998Y-28628571D01*
X42670998Y-28628571D02*
X42556712Y-28628571D01*
X42556712Y-28628571D02*
X42404331Y-28590475D01*
X42404331Y-28590475D02*
X42328140Y-28552380D01*
X42328140Y-28552380D02*
X42251950Y-28476190D01*
X42251950Y-28476190D02*
X42213855Y-28361904D01*
X42213855Y-28361904D02*
X42213855Y-28285713D01*
X42213855Y-28285713D02*
X42251950Y-28171428D01*
X42251950Y-28171428D02*
X42290045Y-28133332D01*
X43013855Y-27371428D02*
X43013855Y-27828571D01*
X43013855Y-27599999D02*
X42213855Y-27599999D01*
X42213855Y-27599999D02*
X42328140Y-27676190D01*
X42328140Y-27676190D02*
X42404331Y-27752380D01*
X42404331Y-27752380D02*
X42442426Y-27828571D01*
X75407664Y-28133332D02*
X75445760Y-28171428D01*
X75445760Y-28171428D02*
X75483855Y-28285713D01*
X75483855Y-28285713D02*
X75483855Y-28361904D01*
X75483855Y-28361904D02*
X75445760Y-28476190D01*
X75445760Y-28476190D02*
X75369569Y-28552380D01*
X75369569Y-28552380D02*
X75293379Y-28590475D01*
X75293379Y-28590475D02*
X75140998Y-28628571D01*
X75140998Y-28628571D02*
X75026712Y-28628571D01*
X75026712Y-28628571D02*
X74874331Y-28590475D01*
X74874331Y-28590475D02*
X74798140Y-28552380D01*
X74798140Y-28552380D02*
X74721950Y-28476190D01*
X74721950Y-28476190D02*
X74683855Y-28361904D01*
X74683855Y-28361904D02*
X74683855Y-28285713D01*
X74683855Y-28285713D02*
X74721950Y-28171428D01*
X74721950Y-28171428D02*
X74760045Y-28133332D01*
X74683855Y-27447618D02*
X74683855Y-27599999D01*
X74683855Y-27599999D02*
X74721950Y-27676190D01*
X74721950Y-27676190D02*
X74760045Y-27714285D01*
X74760045Y-27714285D02*
X74874331Y-27790475D01*
X74874331Y-27790475D02*
X75026712Y-27828571D01*
X75026712Y-27828571D02*
X75331474Y-27828571D01*
X75331474Y-27828571D02*
X75407664Y-27790475D01*
X75407664Y-27790475D02*
X75445760Y-27752380D01*
X75445760Y-27752380D02*
X75483855Y-27676190D01*
X75483855Y-27676190D02*
X75483855Y-27523809D01*
X75483855Y-27523809D02*
X75445760Y-27447618D01*
X75445760Y-27447618D02*
X75407664Y-27409523D01*
X75407664Y-27409523D02*
X75331474Y-27371428D01*
X75331474Y-27371428D02*
X75140998Y-27371428D01*
X75140998Y-27371428D02*
X75064807Y-27409523D01*
X75064807Y-27409523D02*
X75026712Y-27447618D01*
X75026712Y-27447618D02*
X74988617Y-27523809D01*
X74988617Y-27523809D02*
X74988617Y-27676190D01*
X74988617Y-27676190D02*
X75026712Y-27752380D01*
X75026712Y-27752380D02*
X75064807Y-27790475D01*
X75064807Y-27790475D02*
X75140998Y-27828571D01*
X58285714Y-72713855D02*
X58019047Y-72332902D01*
X57828571Y-72713855D02*
X57828571Y-71913855D01*
X57828571Y-71913855D02*
X58133333Y-71913855D01*
X58133333Y-71913855D02*
X58209523Y-71951950D01*
X58209523Y-71951950D02*
X58247618Y-71990045D01*
X58247618Y-71990045D02*
X58285714Y-72066236D01*
X58285714Y-72066236D02*
X58285714Y-72180521D01*
X58285714Y-72180521D02*
X58247618Y-72256712D01*
X58247618Y-72256712D02*
X58209523Y-72294807D01*
X58209523Y-72294807D02*
X58133333Y-72332902D01*
X58133333Y-72332902D02*
X57828571Y-72332902D01*
X59047618Y-72713855D02*
X58590475Y-72713855D01*
X58819047Y-72713855D02*
X58819047Y-71913855D01*
X58819047Y-71913855D02*
X58742856Y-72028140D01*
X58742856Y-72028140D02*
X58666666Y-72104331D01*
X58666666Y-72104331D02*
X58590475Y-72142426D01*
X59809523Y-72713855D02*
X59352380Y-72713855D01*
X59580952Y-72713855D02*
X59580952Y-71913855D01*
X59580952Y-71913855D02*
X59504761Y-72028140D01*
X59504761Y-72028140D02*
X59428571Y-72104331D01*
X59428571Y-72104331D02*
X59352380Y-72142426D01*
X50390476Y-28563855D02*
X50390476Y-29211474D01*
X50390476Y-29211474D02*
X50428571Y-29287664D01*
X50428571Y-29287664D02*
X50466666Y-29325760D01*
X50466666Y-29325760D02*
X50542857Y-29363855D01*
X50542857Y-29363855D02*
X50695238Y-29363855D01*
X50695238Y-29363855D02*
X50771428Y-29325760D01*
X50771428Y-29325760D02*
X50809523Y-29287664D01*
X50809523Y-29287664D02*
X50847619Y-29211474D01*
X50847619Y-29211474D02*
X50847619Y-28563855D01*
X51190475Y-28640045D02*
X51228571Y-28601950D01*
X51228571Y-28601950D02*
X51304761Y-28563855D01*
X51304761Y-28563855D02*
X51495237Y-28563855D01*
X51495237Y-28563855D02*
X51571428Y-28601950D01*
X51571428Y-28601950D02*
X51609523Y-28640045D01*
X51609523Y-28640045D02*
X51647618Y-28716236D01*
X51647618Y-28716236D02*
X51647618Y-28792426D01*
X51647618Y-28792426D02*
X51609523Y-28906712D01*
X51609523Y-28906712D02*
X51152380Y-29363855D01*
X51152380Y-29363855D02*
X51647618Y-29363855D01*
X105413855Y-35133332D02*
X105032902Y-35399999D01*
X105413855Y-35590475D02*
X104613855Y-35590475D01*
X104613855Y-35590475D02*
X104613855Y-35285713D01*
X104613855Y-35285713D02*
X104651950Y-35209523D01*
X104651950Y-35209523D02*
X104690045Y-35171428D01*
X104690045Y-35171428D02*
X104766236Y-35133332D01*
X104766236Y-35133332D02*
X104880521Y-35133332D01*
X104880521Y-35133332D02*
X104956712Y-35171428D01*
X104956712Y-35171428D02*
X104994807Y-35209523D01*
X104994807Y-35209523D02*
X105032902Y-35285713D01*
X105032902Y-35285713D02*
X105032902Y-35590475D01*
X104690045Y-34828571D02*
X104651950Y-34790475D01*
X104651950Y-34790475D02*
X104613855Y-34714285D01*
X104613855Y-34714285D02*
X104613855Y-34523809D01*
X104613855Y-34523809D02*
X104651950Y-34447618D01*
X104651950Y-34447618D02*
X104690045Y-34409523D01*
X104690045Y-34409523D02*
X104766236Y-34371428D01*
X104766236Y-34371428D02*
X104842426Y-34371428D01*
X104842426Y-34371428D02*
X104956712Y-34409523D01*
X104956712Y-34409523D02*
X105413855Y-34866666D01*
X105413855Y-34866666D02*
X105413855Y-34371428D01*
X48909524Y-82363855D02*
X48909524Y-81563855D01*
X48909524Y-81563855D02*
X49100000Y-81563855D01*
X49100000Y-81563855D02*
X49214286Y-81601950D01*
X49214286Y-81601950D02*
X49290476Y-81678140D01*
X49290476Y-81678140D02*
X49328571Y-81754331D01*
X49328571Y-81754331D02*
X49366667Y-81906712D01*
X49366667Y-81906712D02*
X49366667Y-82020998D01*
X49366667Y-82020998D02*
X49328571Y-82173379D01*
X49328571Y-82173379D02*
X49290476Y-82249569D01*
X49290476Y-82249569D02*
X49214286Y-82325760D01*
X49214286Y-82325760D02*
X49100000Y-82363855D01*
X49100000Y-82363855D02*
X48909524Y-82363855D01*
X50052381Y-81830521D02*
X50052381Y-82363855D01*
X49861905Y-81525760D02*
X49671428Y-82097188D01*
X49671428Y-82097188D02*
X50166667Y-82097188D01*
X63513855Y-28633332D02*
X63132902Y-28899999D01*
X63513855Y-29090475D02*
X62713855Y-29090475D01*
X62713855Y-29090475D02*
X62713855Y-28785713D01*
X62713855Y-28785713D02*
X62751950Y-28709523D01*
X62751950Y-28709523D02*
X62790045Y-28671428D01*
X62790045Y-28671428D02*
X62866236Y-28633332D01*
X62866236Y-28633332D02*
X62980521Y-28633332D01*
X62980521Y-28633332D02*
X63056712Y-28671428D01*
X63056712Y-28671428D02*
X63094807Y-28709523D01*
X63094807Y-28709523D02*
X63132902Y-28785713D01*
X63132902Y-28785713D02*
X63132902Y-29090475D01*
X63513855Y-27871428D02*
X63513855Y-28328571D01*
X63513855Y-28099999D02*
X62713855Y-28099999D01*
X62713855Y-28099999D02*
X62828140Y-28176190D01*
X62828140Y-28176190D02*
X62904331Y-28252380D01*
X62904331Y-28252380D02*
X62942426Y-28328571D01*
X41095237Y-70744807D02*
X41209523Y-70782902D01*
X41209523Y-70782902D02*
X41247618Y-70820998D01*
X41247618Y-70820998D02*
X41285714Y-70897188D01*
X41285714Y-70897188D02*
X41285714Y-71011474D01*
X41285714Y-71011474D02*
X41247618Y-71087664D01*
X41247618Y-71087664D02*
X41209523Y-71125760D01*
X41209523Y-71125760D02*
X41133333Y-71163855D01*
X41133333Y-71163855D02*
X40828571Y-71163855D01*
X40828571Y-71163855D02*
X40828571Y-70363855D01*
X40828571Y-70363855D02*
X41095237Y-70363855D01*
X41095237Y-70363855D02*
X41171428Y-70401950D01*
X41171428Y-70401950D02*
X41209523Y-70440045D01*
X41209523Y-70440045D02*
X41247618Y-70516236D01*
X41247618Y-70516236D02*
X41247618Y-70592426D01*
X41247618Y-70592426D02*
X41209523Y-70668617D01*
X41209523Y-70668617D02*
X41171428Y-70706712D01*
X41171428Y-70706712D02*
X41095237Y-70744807D01*
X41095237Y-70744807D02*
X40828571Y-70744807D01*
X41552380Y-70363855D02*
X42085714Y-70363855D01*
X42085714Y-70363855D02*
X41552380Y-71163855D01*
X41552380Y-71163855D02*
X42085714Y-71163855D01*
X42809523Y-71163855D02*
X42352380Y-71163855D01*
X42580952Y-71163855D02*
X42580952Y-70363855D01*
X42580952Y-70363855D02*
X42504761Y-70478140D01*
X42504761Y-70478140D02*
X42428571Y-70554331D01*
X42428571Y-70554331D02*
X42352380Y-70592426D01*
D12*
X37609048Y-75533866D02*
X38370953Y-75533866D01*
X37990000Y-75914819D02*
X37990000Y-75152914D01*
D10*
X61467664Y-32633332D02*
X61505760Y-32671428D01*
X61505760Y-32671428D02*
X61543855Y-32785713D01*
X61543855Y-32785713D02*
X61543855Y-32861904D01*
X61543855Y-32861904D02*
X61505760Y-32976190D01*
X61505760Y-32976190D02*
X61429569Y-33052380D01*
X61429569Y-33052380D02*
X61353379Y-33090475D01*
X61353379Y-33090475D02*
X61200998Y-33128571D01*
X61200998Y-33128571D02*
X61086712Y-33128571D01*
X61086712Y-33128571D02*
X60934331Y-33090475D01*
X60934331Y-33090475D02*
X60858140Y-33052380D01*
X60858140Y-33052380D02*
X60781950Y-32976190D01*
X60781950Y-32976190D02*
X60743855Y-32861904D01*
X60743855Y-32861904D02*
X60743855Y-32785713D01*
X60743855Y-32785713D02*
X60781950Y-32671428D01*
X60781950Y-32671428D02*
X60820045Y-32633332D01*
X61010521Y-31947618D02*
X61543855Y-31947618D01*
X60705760Y-32138094D02*
X61277188Y-32328571D01*
X61277188Y-32328571D02*
X61277188Y-31833332D01*
X25985714Y-89107664D02*
X25947618Y-89145760D01*
X25947618Y-89145760D02*
X25833333Y-89183855D01*
X25833333Y-89183855D02*
X25757142Y-89183855D01*
X25757142Y-89183855D02*
X25642856Y-89145760D01*
X25642856Y-89145760D02*
X25566666Y-89069569D01*
X25566666Y-89069569D02*
X25528571Y-88993379D01*
X25528571Y-88993379D02*
X25490475Y-88840998D01*
X25490475Y-88840998D02*
X25490475Y-88726712D01*
X25490475Y-88726712D02*
X25528571Y-88574331D01*
X25528571Y-88574331D02*
X25566666Y-88498140D01*
X25566666Y-88498140D02*
X25642856Y-88421950D01*
X25642856Y-88421950D02*
X25757142Y-88383855D01*
X25757142Y-88383855D02*
X25833333Y-88383855D01*
X25833333Y-88383855D02*
X25947618Y-88421950D01*
X25947618Y-88421950D02*
X25985714Y-88460045D01*
X26747618Y-89183855D02*
X26290475Y-89183855D01*
X26519047Y-89183855D02*
X26519047Y-88383855D01*
X26519047Y-88383855D02*
X26442856Y-88498140D01*
X26442856Y-88498140D02*
X26366666Y-88574331D01*
X26366666Y-88574331D02*
X26290475Y-88612426D01*
X27052380Y-88460045D02*
X27090476Y-88421950D01*
X27090476Y-88421950D02*
X27166666Y-88383855D01*
X27166666Y-88383855D02*
X27357142Y-88383855D01*
X27357142Y-88383855D02*
X27433333Y-88421950D01*
X27433333Y-88421950D02*
X27471428Y-88460045D01*
X27471428Y-88460045D02*
X27509523Y-88536236D01*
X27509523Y-88536236D02*
X27509523Y-88612426D01*
X27509523Y-88612426D02*
X27471428Y-88726712D01*
X27471428Y-88726712D02*
X27014285Y-89183855D01*
X27014285Y-89183855D02*
X27509523Y-89183855D01*
X105166667Y-69787664D02*
X105128571Y-69825760D01*
X105128571Y-69825760D02*
X105014286Y-69863855D01*
X105014286Y-69863855D02*
X104938095Y-69863855D01*
X104938095Y-69863855D02*
X104823809Y-69825760D01*
X104823809Y-69825760D02*
X104747619Y-69749569D01*
X104747619Y-69749569D02*
X104709524Y-69673379D01*
X104709524Y-69673379D02*
X104671428Y-69520998D01*
X104671428Y-69520998D02*
X104671428Y-69406712D01*
X104671428Y-69406712D02*
X104709524Y-69254331D01*
X104709524Y-69254331D02*
X104747619Y-69178140D01*
X104747619Y-69178140D02*
X104823809Y-69101950D01*
X104823809Y-69101950D02*
X104938095Y-69063855D01*
X104938095Y-69063855D02*
X105014286Y-69063855D01*
X105014286Y-69063855D02*
X105128571Y-69101950D01*
X105128571Y-69101950D02*
X105166667Y-69140045D01*
X105547619Y-69863855D02*
X105700000Y-69863855D01*
X105700000Y-69863855D02*
X105776190Y-69825760D01*
X105776190Y-69825760D02*
X105814286Y-69787664D01*
X105814286Y-69787664D02*
X105890476Y-69673379D01*
X105890476Y-69673379D02*
X105928571Y-69520998D01*
X105928571Y-69520998D02*
X105928571Y-69216236D01*
X105928571Y-69216236D02*
X105890476Y-69140045D01*
X105890476Y-69140045D02*
X105852381Y-69101950D01*
X105852381Y-69101950D02*
X105776190Y-69063855D01*
X105776190Y-69063855D02*
X105623809Y-69063855D01*
X105623809Y-69063855D02*
X105547619Y-69101950D01*
X105547619Y-69101950D02*
X105509524Y-69140045D01*
X105509524Y-69140045D02*
X105471428Y-69216236D01*
X105471428Y-69216236D02*
X105471428Y-69406712D01*
X105471428Y-69406712D02*
X105509524Y-69482902D01*
X105509524Y-69482902D02*
X105547619Y-69520998D01*
X105547619Y-69520998D02*
X105623809Y-69559093D01*
X105623809Y-69559093D02*
X105776190Y-69559093D01*
X105776190Y-69559093D02*
X105852381Y-69520998D01*
X105852381Y-69520998D02*
X105890476Y-69482902D01*
X105890476Y-69482902D02*
X105928571Y-69406712D01*
X114890476Y-21213855D02*
X114890476Y-20413855D01*
X114890476Y-20794807D02*
X115347619Y-20794807D01*
X115347619Y-21213855D02*
X115347619Y-20413855D01*
X115690475Y-20490045D02*
X115728571Y-20451950D01*
X115728571Y-20451950D02*
X115804761Y-20413855D01*
X115804761Y-20413855D02*
X115995237Y-20413855D01*
X115995237Y-20413855D02*
X116071428Y-20451950D01*
X116071428Y-20451950D02*
X116109523Y-20490045D01*
X116109523Y-20490045D02*
X116147618Y-20566236D01*
X116147618Y-20566236D02*
X116147618Y-20642426D01*
X116147618Y-20642426D02*
X116109523Y-20756712D01*
X116109523Y-20756712D02*
X115652380Y-21213855D01*
X115652380Y-21213855D02*
X116147618Y-21213855D01*
X68485714Y-80107664D02*
X68447618Y-80145760D01*
X68447618Y-80145760D02*
X68333333Y-80183855D01*
X68333333Y-80183855D02*
X68257142Y-80183855D01*
X68257142Y-80183855D02*
X68142856Y-80145760D01*
X68142856Y-80145760D02*
X68066666Y-80069569D01*
X68066666Y-80069569D02*
X68028571Y-79993379D01*
X68028571Y-79993379D02*
X67990475Y-79840998D01*
X67990475Y-79840998D02*
X67990475Y-79726712D01*
X67990475Y-79726712D02*
X68028571Y-79574331D01*
X68028571Y-79574331D02*
X68066666Y-79498140D01*
X68066666Y-79498140D02*
X68142856Y-79421950D01*
X68142856Y-79421950D02*
X68257142Y-79383855D01*
X68257142Y-79383855D02*
X68333333Y-79383855D01*
X68333333Y-79383855D02*
X68447618Y-79421950D01*
X68447618Y-79421950D02*
X68485714Y-79460045D01*
X69247618Y-80183855D02*
X68790475Y-80183855D01*
X69019047Y-80183855D02*
X69019047Y-79383855D01*
X69019047Y-79383855D02*
X68942856Y-79498140D01*
X68942856Y-79498140D02*
X68866666Y-79574331D01*
X68866666Y-79574331D02*
X68790475Y-79612426D01*
X69742857Y-79383855D02*
X69819047Y-79383855D01*
X69819047Y-79383855D02*
X69895238Y-79421950D01*
X69895238Y-79421950D02*
X69933333Y-79460045D01*
X69933333Y-79460045D02*
X69971428Y-79536236D01*
X69971428Y-79536236D02*
X70009523Y-79688617D01*
X70009523Y-79688617D02*
X70009523Y-79879093D01*
X70009523Y-79879093D02*
X69971428Y-80031474D01*
X69971428Y-80031474D02*
X69933333Y-80107664D01*
X69933333Y-80107664D02*
X69895238Y-80145760D01*
X69895238Y-80145760D02*
X69819047Y-80183855D01*
X69819047Y-80183855D02*
X69742857Y-80183855D01*
X69742857Y-80183855D02*
X69666666Y-80145760D01*
X69666666Y-80145760D02*
X69628571Y-80107664D01*
X69628571Y-80107664D02*
X69590476Y-80031474D01*
X69590476Y-80031474D02*
X69552380Y-79879093D01*
X69552380Y-79879093D02*
X69552380Y-79688617D01*
X69552380Y-79688617D02*
X69590476Y-79536236D01*
X69590476Y-79536236D02*
X69628571Y-79460045D01*
X69628571Y-79460045D02*
X69666666Y-79421950D01*
X69666666Y-79421950D02*
X69742857Y-79383855D01*
X104063855Y-58009523D02*
X104711474Y-58009523D01*
X104711474Y-58009523D02*
X104787664Y-57971428D01*
X104787664Y-57971428D02*
X104825760Y-57933333D01*
X104825760Y-57933333D02*
X104863855Y-57857142D01*
X104863855Y-57857142D02*
X104863855Y-57704761D01*
X104863855Y-57704761D02*
X104825760Y-57628571D01*
X104825760Y-57628571D02*
X104787664Y-57590476D01*
X104787664Y-57590476D02*
X104711474Y-57552380D01*
X104711474Y-57552380D02*
X104063855Y-57552380D01*
X104063855Y-57247619D02*
X104063855Y-56752381D01*
X104063855Y-56752381D02*
X104368617Y-57019047D01*
X104368617Y-57019047D02*
X104368617Y-56904762D01*
X104368617Y-56904762D02*
X104406712Y-56828571D01*
X104406712Y-56828571D02*
X104444807Y-56790476D01*
X104444807Y-56790476D02*
X104520998Y-56752381D01*
X104520998Y-56752381D02*
X104711474Y-56752381D01*
X104711474Y-56752381D02*
X104787664Y-56790476D01*
X104787664Y-56790476D02*
X104825760Y-56828571D01*
X104825760Y-56828571D02*
X104863855Y-56904762D01*
X104863855Y-56904762D02*
X104863855Y-57133333D01*
X104863855Y-57133333D02*
X104825760Y-57209524D01*
X104825760Y-57209524D02*
X104787664Y-57247619D01*
X93163855Y-82609523D02*
X93811474Y-82609523D01*
X93811474Y-82609523D02*
X93887664Y-82571428D01*
X93887664Y-82571428D02*
X93925760Y-82533333D01*
X93925760Y-82533333D02*
X93963855Y-82457142D01*
X93963855Y-82457142D02*
X93963855Y-82304761D01*
X93963855Y-82304761D02*
X93925760Y-82228571D01*
X93925760Y-82228571D02*
X93887664Y-82190476D01*
X93887664Y-82190476D02*
X93811474Y-82152380D01*
X93811474Y-82152380D02*
X93163855Y-82152380D01*
X93430521Y-81428571D02*
X93963855Y-81428571D01*
X93125760Y-81619047D02*
X93697188Y-81809524D01*
X93697188Y-81809524D02*
X93697188Y-81314285D01*
X35013855Y-50895238D02*
X35013855Y-51276190D01*
X35013855Y-51276190D02*
X34213855Y-51276190D01*
X34594807Y-50628571D02*
X34594807Y-50361905D01*
X35013855Y-50247619D02*
X35013855Y-50628571D01*
X35013855Y-50628571D02*
X34213855Y-50628571D01*
X34213855Y-50628571D02*
X34213855Y-50247619D01*
X35013855Y-49904761D02*
X34213855Y-49904761D01*
X34213855Y-49904761D02*
X34213855Y-49714285D01*
X34213855Y-49714285D02*
X34251950Y-49599999D01*
X34251950Y-49599999D02*
X34328140Y-49523809D01*
X34328140Y-49523809D02*
X34404331Y-49485714D01*
X34404331Y-49485714D02*
X34556712Y-49447618D01*
X34556712Y-49447618D02*
X34670998Y-49447618D01*
X34670998Y-49447618D02*
X34823379Y-49485714D01*
X34823379Y-49485714D02*
X34899569Y-49523809D01*
X34899569Y-49523809D02*
X34975760Y-49599999D01*
X34975760Y-49599999D02*
X35013855Y-49714285D01*
X35013855Y-49714285D02*
X35013855Y-49904761D01*
X34213855Y-49180952D02*
X34213855Y-48685714D01*
X34213855Y-48685714D02*
X34518617Y-48952380D01*
X34518617Y-48952380D02*
X34518617Y-48838095D01*
X34518617Y-48838095D02*
X34556712Y-48761904D01*
X34556712Y-48761904D02*
X34594807Y-48723809D01*
X34594807Y-48723809D02*
X34670998Y-48685714D01*
X34670998Y-48685714D02*
X34861474Y-48685714D01*
X34861474Y-48685714D02*
X34937664Y-48723809D01*
X34937664Y-48723809D02*
X34975760Y-48761904D01*
X34975760Y-48761904D02*
X35013855Y-48838095D01*
X35013855Y-48838095D02*
X35013855Y-49066666D01*
X35013855Y-49066666D02*
X34975760Y-49142857D01*
X34975760Y-49142857D02*
X34937664Y-49180952D01*
X32883855Y-35806666D02*
X33455283Y-35806666D01*
X33455283Y-35806666D02*
X33569569Y-35844761D01*
X33569569Y-35844761D02*
X33645760Y-35920952D01*
X33645760Y-35920952D02*
X33683855Y-36035237D01*
X33683855Y-36035237D02*
X33683855Y-36111428D01*
X32960045Y-35463809D02*
X32921950Y-35425713D01*
X32921950Y-35425713D02*
X32883855Y-35349523D01*
X32883855Y-35349523D02*
X32883855Y-35159047D01*
X32883855Y-35159047D02*
X32921950Y-35082856D01*
X32921950Y-35082856D02*
X32960045Y-35044761D01*
X32960045Y-35044761D02*
X33036236Y-35006666D01*
X33036236Y-35006666D02*
X33112426Y-35006666D01*
X33112426Y-35006666D02*
X33226712Y-35044761D01*
X33226712Y-35044761D02*
X33683855Y-35501904D01*
X33683855Y-35501904D02*
X33683855Y-35006666D01*
X67866667Y-27307664D02*
X67828571Y-27345760D01*
X67828571Y-27345760D02*
X67714286Y-27383855D01*
X67714286Y-27383855D02*
X67638095Y-27383855D01*
X67638095Y-27383855D02*
X67523809Y-27345760D01*
X67523809Y-27345760D02*
X67447619Y-27269569D01*
X67447619Y-27269569D02*
X67409524Y-27193379D01*
X67409524Y-27193379D02*
X67371428Y-27040998D01*
X67371428Y-27040998D02*
X67371428Y-26926712D01*
X67371428Y-26926712D02*
X67409524Y-26774331D01*
X67409524Y-26774331D02*
X67447619Y-26698140D01*
X67447619Y-26698140D02*
X67523809Y-26621950D01*
X67523809Y-26621950D02*
X67638095Y-26583855D01*
X67638095Y-26583855D02*
X67714286Y-26583855D01*
X67714286Y-26583855D02*
X67828571Y-26621950D01*
X67828571Y-26621950D02*
X67866667Y-26660045D01*
X68590476Y-26583855D02*
X68209524Y-26583855D01*
X68209524Y-26583855D02*
X68171428Y-26964807D01*
X68171428Y-26964807D02*
X68209524Y-26926712D01*
X68209524Y-26926712D02*
X68285714Y-26888617D01*
X68285714Y-26888617D02*
X68476190Y-26888617D01*
X68476190Y-26888617D02*
X68552381Y-26926712D01*
X68552381Y-26926712D02*
X68590476Y-26964807D01*
X68590476Y-26964807D02*
X68628571Y-27040998D01*
X68628571Y-27040998D02*
X68628571Y-27231474D01*
X68628571Y-27231474D02*
X68590476Y-27307664D01*
X68590476Y-27307664D02*
X68552381Y-27345760D01*
X68552381Y-27345760D02*
X68476190Y-27383855D01*
X68476190Y-27383855D02*
X68285714Y-27383855D01*
X68285714Y-27383855D02*
X68209524Y-27345760D01*
X68209524Y-27345760D02*
X68171428Y-27307664D01*
X81866667Y-86363855D02*
X81600000Y-85982902D01*
X81409524Y-86363855D02*
X81409524Y-85563855D01*
X81409524Y-85563855D02*
X81714286Y-85563855D01*
X81714286Y-85563855D02*
X81790476Y-85601950D01*
X81790476Y-85601950D02*
X81828571Y-85640045D01*
X81828571Y-85640045D02*
X81866667Y-85716236D01*
X81866667Y-85716236D02*
X81866667Y-85830521D01*
X81866667Y-85830521D02*
X81828571Y-85906712D01*
X81828571Y-85906712D02*
X81790476Y-85944807D01*
X81790476Y-85944807D02*
X81714286Y-85982902D01*
X81714286Y-85982902D02*
X81409524Y-85982902D01*
X82133333Y-85563855D02*
X82628571Y-85563855D01*
X82628571Y-85563855D02*
X82361905Y-85868617D01*
X82361905Y-85868617D02*
X82476190Y-85868617D01*
X82476190Y-85868617D02*
X82552381Y-85906712D01*
X82552381Y-85906712D02*
X82590476Y-85944807D01*
X82590476Y-85944807D02*
X82628571Y-86020998D01*
X82628571Y-86020998D02*
X82628571Y-86211474D01*
X82628571Y-86211474D02*
X82590476Y-86287664D01*
X82590476Y-86287664D02*
X82552381Y-86325760D01*
X82552381Y-86325760D02*
X82476190Y-86363855D01*
X82476190Y-86363855D02*
X82247619Y-86363855D01*
X82247619Y-86363855D02*
X82171428Y-86325760D01*
X82171428Y-86325760D02*
X82133333Y-86287664D01*
X43107664Y-32633332D02*
X43145760Y-32671428D01*
X43145760Y-32671428D02*
X43183855Y-32785713D01*
X43183855Y-32785713D02*
X43183855Y-32861904D01*
X43183855Y-32861904D02*
X43145760Y-32976190D01*
X43145760Y-32976190D02*
X43069569Y-33052380D01*
X43069569Y-33052380D02*
X42993379Y-33090475D01*
X42993379Y-33090475D02*
X42840998Y-33128571D01*
X42840998Y-33128571D02*
X42726712Y-33128571D01*
X42726712Y-33128571D02*
X42574331Y-33090475D01*
X42574331Y-33090475D02*
X42498140Y-33052380D01*
X42498140Y-33052380D02*
X42421950Y-32976190D01*
X42421950Y-32976190D02*
X42383855Y-32861904D01*
X42383855Y-32861904D02*
X42383855Y-32785713D01*
X42383855Y-32785713D02*
X42421950Y-32671428D01*
X42421950Y-32671428D02*
X42460045Y-32633332D01*
X42460045Y-32328571D02*
X42421950Y-32290475D01*
X42421950Y-32290475D02*
X42383855Y-32214285D01*
X42383855Y-32214285D02*
X42383855Y-32023809D01*
X42383855Y-32023809D02*
X42421950Y-31947618D01*
X42421950Y-31947618D02*
X42460045Y-31909523D01*
X42460045Y-31909523D02*
X42536236Y-31871428D01*
X42536236Y-31871428D02*
X42612426Y-31871428D01*
X42612426Y-31871428D02*
X42726712Y-31909523D01*
X42726712Y-31909523D02*
X43183855Y-32366666D01*
X43183855Y-32366666D02*
X43183855Y-31871428D01*
X24890476Y-91213855D02*
X24890476Y-90413855D01*
X24890476Y-90794807D02*
X25347619Y-90794807D01*
X25347619Y-91213855D02*
X25347619Y-90413855D01*
X25652380Y-90413855D02*
X26147618Y-90413855D01*
X26147618Y-90413855D02*
X25880952Y-90718617D01*
X25880952Y-90718617D02*
X25995237Y-90718617D01*
X25995237Y-90718617D02*
X26071428Y-90756712D01*
X26071428Y-90756712D02*
X26109523Y-90794807D01*
X26109523Y-90794807D02*
X26147618Y-90870998D01*
X26147618Y-90870998D02*
X26147618Y-91061474D01*
X26147618Y-91061474D02*
X26109523Y-91137664D01*
X26109523Y-91137664D02*
X26071428Y-91175760D01*
X26071428Y-91175760D02*
X25995237Y-91213855D01*
X25995237Y-91213855D02*
X25766666Y-91213855D01*
X25766666Y-91213855D02*
X25690475Y-91175760D01*
X25690475Y-91175760D02*
X25652380Y-91137664D01*
X67513855Y-32633332D02*
X67132902Y-32899999D01*
X67513855Y-33090475D02*
X66713855Y-33090475D01*
X66713855Y-33090475D02*
X66713855Y-32785713D01*
X66713855Y-32785713D02*
X66751950Y-32709523D01*
X66751950Y-32709523D02*
X66790045Y-32671428D01*
X66790045Y-32671428D02*
X66866236Y-32633332D01*
X66866236Y-32633332D02*
X66980521Y-32633332D01*
X66980521Y-32633332D02*
X67056712Y-32671428D01*
X67056712Y-32671428D02*
X67094807Y-32709523D01*
X67094807Y-32709523D02*
X67132902Y-32785713D01*
X67132902Y-32785713D02*
X67132902Y-33090475D01*
X67513855Y-32252380D02*
X67513855Y-32099999D01*
X67513855Y-32099999D02*
X67475760Y-32023809D01*
X67475760Y-32023809D02*
X67437664Y-31985713D01*
X67437664Y-31985713D02*
X67323379Y-31909523D01*
X67323379Y-31909523D02*
X67170998Y-31871428D01*
X67170998Y-31871428D02*
X66866236Y-31871428D01*
X66866236Y-31871428D02*
X66790045Y-31909523D01*
X66790045Y-31909523D02*
X66751950Y-31947618D01*
X66751950Y-31947618D02*
X66713855Y-32023809D01*
X66713855Y-32023809D02*
X66713855Y-32176190D01*
X66713855Y-32176190D02*
X66751950Y-32252380D01*
X66751950Y-32252380D02*
X66790045Y-32290475D01*
X66790045Y-32290475D02*
X66866236Y-32328571D01*
X66866236Y-32328571D02*
X67056712Y-32328571D01*
X67056712Y-32328571D02*
X67132902Y-32290475D01*
X67132902Y-32290475D02*
X67170998Y-32252380D01*
X67170998Y-32252380D02*
X67209093Y-32176190D01*
X67209093Y-32176190D02*
X67209093Y-32023809D01*
X67209093Y-32023809D02*
X67170998Y-31947618D01*
X67170998Y-31947618D02*
X67132902Y-31909523D01*
X67132902Y-31909523D02*
X67056712Y-31871428D01*
X73866667Y-26207664D02*
X73828571Y-26245760D01*
X73828571Y-26245760D02*
X73714286Y-26283855D01*
X73714286Y-26283855D02*
X73638095Y-26283855D01*
X73638095Y-26283855D02*
X73523809Y-26245760D01*
X73523809Y-26245760D02*
X73447619Y-26169569D01*
X73447619Y-26169569D02*
X73409524Y-26093379D01*
X73409524Y-26093379D02*
X73371428Y-25940998D01*
X73371428Y-25940998D02*
X73371428Y-25826712D01*
X73371428Y-25826712D02*
X73409524Y-25674331D01*
X73409524Y-25674331D02*
X73447619Y-25598140D01*
X73447619Y-25598140D02*
X73523809Y-25521950D01*
X73523809Y-25521950D02*
X73638095Y-25483855D01*
X73638095Y-25483855D02*
X73714286Y-25483855D01*
X73714286Y-25483855D02*
X73828571Y-25521950D01*
X73828571Y-25521950D02*
X73866667Y-25560045D01*
X74133333Y-25483855D02*
X74666667Y-25483855D01*
X74666667Y-25483855D02*
X74323809Y-26283855D01*
X32733333Y-90163855D02*
X32733333Y-90735283D01*
X32733333Y-90735283D02*
X32695238Y-90849569D01*
X32695238Y-90849569D02*
X32619047Y-90925760D01*
X32619047Y-90925760D02*
X32504762Y-90963855D01*
X32504762Y-90963855D02*
X32428571Y-90963855D01*
X33495238Y-90163855D02*
X33114286Y-90163855D01*
X33114286Y-90163855D02*
X33076190Y-90544807D01*
X33076190Y-90544807D02*
X33114286Y-90506712D01*
X33114286Y-90506712D02*
X33190476Y-90468617D01*
X33190476Y-90468617D02*
X33380952Y-90468617D01*
X33380952Y-90468617D02*
X33457143Y-90506712D01*
X33457143Y-90506712D02*
X33495238Y-90544807D01*
X33495238Y-90544807D02*
X33533333Y-90620998D01*
X33533333Y-90620998D02*
X33533333Y-90811474D01*
X33533333Y-90811474D02*
X33495238Y-90887664D01*
X33495238Y-90887664D02*
X33457143Y-90925760D01*
X33457143Y-90925760D02*
X33380952Y-90963855D01*
X33380952Y-90963855D02*
X33190476Y-90963855D01*
X33190476Y-90963855D02*
X33114286Y-90925760D01*
X33114286Y-90925760D02*
X33076190Y-90887664D01*
X65013855Y-33395238D02*
X65013855Y-33776190D01*
X65013855Y-33776190D02*
X64213855Y-33776190D01*
X64594807Y-33128571D02*
X64594807Y-32861905D01*
X65013855Y-32747619D02*
X65013855Y-33128571D01*
X65013855Y-33128571D02*
X64213855Y-33128571D01*
X64213855Y-33128571D02*
X64213855Y-32747619D01*
X65013855Y-32404761D02*
X64213855Y-32404761D01*
X64213855Y-32404761D02*
X64213855Y-32214285D01*
X64213855Y-32214285D02*
X64251950Y-32099999D01*
X64251950Y-32099999D02*
X64328140Y-32023809D01*
X64328140Y-32023809D02*
X64404331Y-31985714D01*
X64404331Y-31985714D02*
X64556712Y-31947618D01*
X64556712Y-31947618D02*
X64670998Y-31947618D01*
X64670998Y-31947618D02*
X64823379Y-31985714D01*
X64823379Y-31985714D02*
X64899569Y-32023809D01*
X64899569Y-32023809D02*
X64975760Y-32099999D01*
X64975760Y-32099999D02*
X65013855Y-32214285D01*
X65013855Y-32214285D02*
X65013855Y-32404761D01*
X64290045Y-31642857D02*
X64251950Y-31604761D01*
X64251950Y-31604761D02*
X64213855Y-31528571D01*
X64213855Y-31528571D02*
X64213855Y-31338095D01*
X64213855Y-31338095D02*
X64251950Y-31261904D01*
X64251950Y-31261904D02*
X64290045Y-31223809D01*
X64290045Y-31223809D02*
X64366236Y-31185714D01*
X64366236Y-31185714D02*
X64442426Y-31185714D01*
X64442426Y-31185714D02*
X64556712Y-31223809D01*
X64556712Y-31223809D02*
X65013855Y-31680952D01*
X65013855Y-31680952D02*
X65013855Y-31185714D01*
X105363855Y-86590475D02*
X104563855Y-86590475D01*
X104563855Y-86590475D02*
X104563855Y-86399999D01*
X104563855Y-86399999D02*
X104601950Y-86285713D01*
X104601950Y-86285713D02*
X104678140Y-86209523D01*
X104678140Y-86209523D02*
X104754331Y-86171428D01*
X104754331Y-86171428D02*
X104906712Y-86133332D01*
X104906712Y-86133332D02*
X105020998Y-86133332D01*
X105020998Y-86133332D02*
X105173379Y-86171428D01*
X105173379Y-86171428D02*
X105249569Y-86209523D01*
X105249569Y-86209523D02*
X105325760Y-86285713D01*
X105325760Y-86285713D02*
X105363855Y-86399999D01*
X105363855Y-86399999D02*
X105363855Y-86590475D01*
X104640045Y-85828571D02*
X104601950Y-85790475D01*
X104601950Y-85790475D02*
X104563855Y-85714285D01*
X104563855Y-85714285D02*
X104563855Y-85523809D01*
X104563855Y-85523809D02*
X104601950Y-85447618D01*
X104601950Y-85447618D02*
X104640045Y-85409523D01*
X104640045Y-85409523D02*
X104716236Y-85371428D01*
X104716236Y-85371428D02*
X104792426Y-85371428D01*
X104792426Y-85371428D02*
X104906712Y-85409523D01*
X104906712Y-85409523D02*
X105363855Y-85866666D01*
X105363855Y-85866666D02*
X105363855Y-85371428D01*
X35213855Y-50514285D02*
X34832902Y-50780952D01*
X35213855Y-50971428D02*
X34413855Y-50971428D01*
X34413855Y-50971428D02*
X34413855Y-50666666D01*
X34413855Y-50666666D02*
X34451950Y-50590476D01*
X34451950Y-50590476D02*
X34490045Y-50552381D01*
X34490045Y-50552381D02*
X34566236Y-50514285D01*
X34566236Y-50514285D02*
X34680521Y-50514285D01*
X34680521Y-50514285D02*
X34756712Y-50552381D01*
X34756712Y-50552381D02*
X34794807Y-50590476D01*
X34794807Y-50590476D02*
X34832902Y-50666666D01*
X34832902Y-50666666D02*
X34832902Y-50971428D01*
X35213855Y-49752381D02*
X35213855Y-50209524D01*
X35213855Y-49980952D02*
X34413855Y-49980952D01*
X34413855Y-49980952D02*
X34528140Y-50057143D01*
X34528140Y-50057143D02*
X34604331Y-50133333D01*
X34604331Y-50133333D02*
X34642426Y-50209524D01*
X34413855Y-49257142D02*
X34413855Y-49180952D01*
X34413855Y-49180952D02*
X34451950Y-49104761D01*
X34451950Y-49104761D02*
X34490045Y-49066666D01*
X34490045Y-49066666D02*
X34566236Y-49028571D01*
X34566236Y-49028571D02*
X34718617Y-48990476D01*
X34718617Y-48990476D02*
X34909093Y-48990476D01*
X34909093Y-48990476D02*
X35061474Y-49028571D01*
X35061474Y-49028571D02*
X35137664Y-49066666D01*
X35137664Y-49066666D02*
X35175760Y-49104761D01*
X35175760Y-49104761D02*
X35213855Y-49180952D01*
X35213855Y-49180952D02*
X35213855Y-49257142D01*
X35213855Y-49257142D02*
X35175760Y-49333333D01*
X35175760Y-49333333D02*
X35137664Y-49371428D01*
X35137664Y-49371428D02*
X35061474Y-49409523D01*
X35061474Y-49409523D02*
X34909093Y-49447619D01*
X34909093Y-49447619D02*
X34718617Y-49447619D01*
X34718617Y-49447619D02*
X34566236Y-49409523D01*
X34566236Y-49409523D02*
X34490045Y-49371428D01*
X34490045Y-49371428D02*
X34451950Y-49333333D01*
X34451950Y-49333333D02*
X34413855Y-49257142D01*
X32883855Y-57806666D02*
X33455283Y-57806666D01*
X33455283Y-57806666D02*
X33569569Y-57844761D01*
X33569569Y-57844761D02*
X33645760Y-57920952D01*
X33645760Y-57920952D02*
X33683855Y-58035237D01*
X33683855Y-58035237D02*
X33683855Y-58111428D01*
X33150521Y-57082856D02*
X33683855Y-57082856D01*
X32845760Y-57273332D02*
X33417188Y-57463809D01*
X33417188Y-57463809D02*
X33417188Y-56968570D01*
%TO.C,J7*%
X68830000Y-93000000D02*
X68830000Y-97000000D01*
X69700000Y-91970000D02*
X69700000Y-92570000D01*
X69700000Y-92570000D02*
X71300000Y-92570000D01*
X70500000Y-96990000D02*
X70750000Y-96460000D01*
X70500000Y-96990000D02*
X75580000Y-96990000D01*
X70500000Y-97990000D02*
X70500000Y-96990000D01*
X70750000Y-96460000D02*
X75580000Y-96460000D01*
X70750000Y-97990000D02*
X70750000Y-96990000D01*
X71300000Y-92570000D02*
X71300000Y-91970000D01*
X72240000Y-91970000D02*
X72240000Y-92570000D01*
X72240000Y-92570000D02*
X73840000Y-92570000D01*
X73840000Y-92570000D02*
X73840000Y-91970000D01*
X74780000Y-91970000D02*
X74780000Y-92570000D01*
X74780000Y-92570000D02*
X76380000Y-92570000D01*
X75580000Y-96460000D02*
X75580000Y-96990000D01*
X75580000Y-96990000D02*
X75580000Y-97990000D01*
X76380000Y-92570000D02*
X76380000Y-91970000D01*
X77320000Y-91970000D02*
X77320000Y-92570000D01*
X77320000Y-92570000D02*
X78920000Y-92570000D01*
X78920000Y-92570000D02*
X78920000Y-91970000D01*
X79860000Y-91970000D02*
X79860000Y-92570000D01*
X79860000Y-92570000D02*
X81460000Y-92570000D01*
X81460000Y-92570000D02*
X81460000Y-91970000D01*
X82400000Y-91970000D02*
X82400000Y-92570000D01*
X82400000Y-92570000D02*
X84000000Y-92570000D01*
X83200000Y-96460000D02*
X83200000Y-96990000D01*
X83200000Y-96990000D02*
X83200000Y-97990000D01*
X84000000Y-92570000D02*
X84000000Y-91970000D01*
X84940000Y-91970000D02*
X84940000Y-92570000D01*
X84940000Y-92570000D02*
X86540000Y-92570000D01*
X86540000Y-92570000D02*
X86540000Y-91970000D01*
X87480000Y-91970000D02*
X87480000Y-92570000D01*
X87480000Y-92570000D02*
X89080000Y-92570000D01*
X88030000Y-96460000D02*
X83200000Y-96460000D01*
X88030000Y-97990000D02*
X88030000Y-96990000D01*
X88280000Y-96990000D02*
X83200000Y-96990000D01*
X88280000Y-96990000D02*
X88030000Y-96460000D01*
X88280000Y-97990000D02*
X88280000Y-96990000D01*
X89080000Y-92570000D02*
X89080000Y-91970000D01*
X69120000Y-91970000D02*
X89660000Y-91970000D01*
X89660000Y-97990000D01*
X69120000Y-97990000D01*
X69120000Y-91970000D01*
%TO.C,J6*%
X51330000Y-93000000D02*
X51330000Y-97000000D01*
X52200000Y-91970000D02*
X52200000Y-92570000D01*
X52200000Y-92570000D02*
X53800000Y-92570000D01*
X53000000Y-96990000D02*
X53250000Y-96460000D01*
X53000000Y-96990000D02*
X65700000Y-96990000D01*
X53000000Y-97990000D02*
X53000000Y-96990000D01*
X53250000Y-96460000D02*
X65450000Y-96460000D01*
X53250000Y-97990000D02*
X53250000Y-96990000D01*
X53800000Y-92570000D02*
X53800000Y-91970000D01*
X54740000Y-91970000D02*
X54740000Y-92570000D01*
X54740000Y-92570000D02*
X56340000Y-92570000D01*
X56340000Y-92570000D02*
X56340000Y-91970000D01*
X57280000Y-91970000D02*
X57280000Y-92570000D01*
X57280000Y-92570000D02*
X58880000Y-92570000D01*
X58880000Y-92570000D02*
X58880000Y-91970000D01*
X59820000Y-91970000D02*
X59820000Y-92570000D01*
X59820000Y-92570000D02*
X61420000Y-92570000D01*
X61420000Y-92570000D02*
X61420000Y-91970000D01*
X62360000Y-91970000D02*
X62360000Y-92570000D01*
X62360000Y-92570000D02*
X63960000Y-92570000D01*
X63960000Y-92570000D02*
X63960000Y-91970000D01*
X64900000Y-91970000D02*
X64900000Y-92570000D01*
X64900000Y-92570000D02*
X66500000Y-92570000D01*
X65450000Y-96460000D02*
X65700000Y-96990000D01*
X65450000Y-97990000D02*
X65450000Y-96990000D01*
X65700000Y-96990000D02*
X65700000Y-97990000D01*
X66500000Y-92570000D02*
X66500000Y-91970000D01*
X51620000Y-91970000D02*
X67080000Y-91970000D01*
X67080000Y-97990000D01*
X51620000Y-97990000D01*
X51620000Y-91970000D01*
%TO.C,C3*%
X56090000Y-31788748D02*
X56090000Y-33211252D01*
X57910000Y-31788748D02*
X57910000Y-33211252D01*
%TO.C,R4*%
X90265000Y-88227064D02*
X90265000Y-87772936D01*
X91735000Y-88227064D02*
X91735000Y-87772936D01*
%TO.C,Q2*%
X57240000Y-78440000D02*
X58760000Y-78440000D01*
X57240000Y-78490000D02*
X57240000Y-78440000D01*
X57240000Y-80390000D02*
X57240000Y-79610000D01*
X57240000Y-81560000D02*
X57240000Y-81510000D01*
X58760000Y-78440000D02*
X58760000Y-79440000D01*
X58760000Y-80560000D02*
X58760000Y-81560000D01*
X58760000Y-81560000D02*
X57240000Y-81560000D01*
X56700000Y-79620000D02*
X56940000Y-79950000D01*
X56460000Y-79950000D01*
X56700000Y-79620000D01*
G36*
X56940000Y-79950000D02*
G01*
X56460000Y-79950000D01*
X56700000Y-79620000D01*
X56940000Y-79950000D01*
G37*
%TO.C,U1*%
X78800000Y-20100000D02*
X78800000Y-26300000D01*
X78800000Y-20100000D02*
X97200000Y-20100000D01*
X78800000Y-44950000D02*
X78800000Y-45950000D01*
X78800000Y-45950000D02*
X80300000Y-45950000D01*
X97200000Y-20100000D02*
X97200000Y-26300000D01*
X97200000Y-45950000D02*
X95700000Y-45950000D01*
X97200000Y-45950000D02*
X97200000Y-44950000D01*
X78800000Y-26975000D02*
X78300000Y-26975000D01*
X78800000Y-26475000D01*
X78800000Y-26975000D01*
G36*
X78800000Y-26975000D02*
G01*
X78300000Y-26975000D01*
X78800000Y-26475000D01*
X78800000Y-26975000D01*
G37*
%TO.C,D3*%
X70900000Y-83010000D02*
X70900000Y-77500000D01*
X70900000Y-83010000D02*
X74200000Y-83010000D01*
X74200000Y-83010000D02*
X74200000Y-77500000D01*
%TO.C,SW1*%
X54750000Y-24000000D02*
X54750000Y-25500000D01*
X56000000Y-28000000D02*
X60500000Y-28000000D01*
X60500000Y-21500000D02*
X56000000Y-21500000D01*
X61750000Y-25500000D02*
X61750000Y-24000000D01*
%TO.C,LED1*%
X71500000Y-83250000D02*
X71500000Y-88750000D01*
X71500000Y-83250000D02*
X78500000Y-83250000D01*
X71500000Y-88750000D02*
X78050000Y-88750000D01*
X72300000Y-86900000D02*
X72300000Y-85100000D01*
X77700000Y-86900000D02*
X77700000Y-85100000D01*
X78050000Y-88750000D02*
X78500000Y-88300000D01*
X78500000Y-88300000D02*
X78500000Y-83250000D01*
%TO.C,J1*%
X91300000Y-93700000D02*
X91300000Y-95700000D01*
X91300000Y-97600000D02*
X91300000Y-99500000D01*
X91300000Y-99500000D02*
X100700000Y-99500000D01*
X100700000Y-93700000D02*
X100700000Y-95700000D01*
X100700000Y-97600000D02*
X100700000Y-99500000D01*
%TO.C,R7*%
X40265000Y-52227064D02*
X40265000Y-51772936D01*
X41735000Y-52227064D02*
X41735000Y-51772936D01*
%TO.C,R6*%
X46227064Y-52265000D02*
X45772936Y-52265000D01*
X46227064Y-53735000D02*
X45772936Y-53735000D01*
%TO.C,C8*%
X99565000Y-62261252D02*
X99565000Y-61738748D01*
X101035000Y-62261252D02*
X101035000Y-61738748D01*
%TO.C,R5*%
X103272936Y-97165000D02*
X103727064Y-97165000D01*
X103272936Y-98635000D02*
X103727064Y-98635000D01*
%TO.C,SW2*%
X100750000Y-48500000D02*
X100750000Y-50000000D01*
X102000000Y-52500000D02*
X106500000Y-52500000D01*
X106500000Y-46000000D02*
X102000000Y-46000000D01*
X107750000Y-50000000D02*
X107750000Y-48500000D01*
%TO.C,Q1*%
X41240000Y-55440000D02*
X42760000Y-55440000D01*
X41240000Y-55490000D02*
X41240000Y-55440000D01*
X41240000Y-57390000D02*
X41240000Y-56610000D01*
X41240000Y-58560000D02*
X41240000Y-58510000D01*
X42760000Y-55440000D02*
X42760000Y-56440000D01*
X42760000Y-57560000D02*
X42760000Y-58560000D01*
X42760000Y-58560000D02*
X41240000Y-58560000D01*
X40700000Y-56620000D02*
X40940000Y-56950000D01*
X40460000Y-56950000D01*
X40700000Y-56620000D01*
G36*
X40940000Y-56950000D02*
G01*
X40460000Y-56950000D01*
X40700000Y-56620000D01*
X40940000Y-56950000D01*
G37*
%TO.C,J3*%
X108680000Y-57260000D02*
X118720000Y-57260000D01*
X108680000Y-67660000D02*
X108680000Y-57260000D01*
X111700000Y-67660000D02*
X111700000Y-57260000D01*
X116600000Y-67660000D02*
X116600000Y-57260000D01*
X118100000Y-67660000D02*
X118100000Y-57260000D01*
X118720000Y-57260000D02*
X118720000Y-64700000D01*
X118720000Y-65300000D02*
X118720000Y-67660000D01*
X118720000Y-67660000D02*
X108680000Y-67660000D01*
X118720000Y-65000000D02*
X119330000Y-64560000D01*
X119330000Y-65440000D01*
X118720000Y-65000000D01*
G36*
X119330000Y-65440000D02*
G01*
X118720000Y-65000000D01*
X119330000Y-64560000D01*
X119330000Y-65440000D01*
G37*
%TO.C,D1*%
X41510000Y-26350000D02*
X36000000Y-26350000D01*
X41510000Y-29650000D02*
X36000000Y-29650000D01*
X41510000Y-29650000D02*
X41510000Y-26350000D01*
%TO.C,R8*%
X61265000Y-77727064D02*
X61265000Y-77272936D01*
X62735000Y-77727064D02*
X62735000Y-77272936D01*
%TO.C,C1*%
X43590000Y-28711252D02*
X43590000Y-27288748D01*
X45410000Y-28711252D02*
X45410000Y-27288748D01*
%TO.C,C6*%
X76065000Y-28261252D02*
X76065000Y-27738748D01*
X77535000Y-28261252D02*
X77535000Y-27738748D01*
%TO.C,R11*%
X58572936Y-73265000D02*
X59027064Y-73265000D01*
X58572936Y-74735000D02*
X59027064Y-74735000D01*
%TO.C,U2*%
X49150000Y-30090000D02*
X52910000Y-30090000D01*
X49150000Y-36910000D02*
X52910000Y-36910000D01*
X52910000Y-30090000D02*
X52910000Y-31350000D01*
X52910000Y-36910000D02*
X52910000Y-35650000D01*
X47870000Y-30190000D02*
X47630000Y-29860000D01*
X48110000Y-29860000D01*
X47870000Y-30190000D01*
G36*
X47870000Y-30190000D02*
G01*
X47630000Y-29860000D01*
X48110000Y-29860000D01*
X47870000Y-30190000D01*
G37*
%TO.C,R2*%
X102665000Y-34772936D02*
X102665000Y-35227064D01*
X104135000Y-34772936D02*
X104135000Y-35227064D01*
%TO.C,D4*%
X47140000Y-83000000D02*
X47140000Y-85000000D01*
X47140000Y-83000000D02*
X51150000Y-83000000D01*
X47140000Y-85000000D02*
X51150000Y-85000000D01*
%TO.C,R1*%
X64065000Y-28727064D02*
X64065000Y-28272936D01*
X65535000Y-28727064D02*
X65535000Y-28272936D01*
%TO.C,BZ1*%
X47900000Y-78000000D02*
G75*
G02*
X35700000Y-78000000I-6100000J0D01*
G01*
X35700000Y-78000000D02*
G75*
G02*
X47900000Y-78000000I6100000J0D01*
G01*
%TO.C,C4*%
X58765000Y-32238748D02*
X58765000Y-32761252D01*
X60235000Y-32238748D02*
X60235000Y-32761252D01*
%TO.C,C12*%
X26238748Y-89765000D02*
X26761252Y-89765000D01*
X26238748Y-91235000D02*
X26761252Y-91235000D01*
%TO.C,C9*%
X105038748Y-66765000D02*
X105561252Y-66765000D01*
X105038748Y-68235000D02*
X105561252Y-68235000D01*
%TO.C,C10*%
X68738748Y-80765000D02*
X69261252Y-80765000D01*
X68738748Y-82235000D02*
X69261252Y-82235000D01*
%TO.C,U3*%
X101940000Y-59940000D02*
X102035000Y-59940000D01*
X101940000Y-64060000D02*
X101940000Y-59940000D01*
X102035000Y-64060000D02*
X101940000Y-64060000D01*
X106965000Y-59940000D02*
X107060000Y-59940000D01*
X107060000Y-59940000D02*
X107060000Y-64060000D01*
X107060000Y-64060000D02*
X106965000Y-64060000D01*
X102030000Y-64600000D02*
X101700000Y-64840000D01*
X101700000Y-64360000D01*
X102030000Y-64600000D01*
G36*
X102030000Y-64600000D02*
G01*
X101700000Y-64840000D01*
X101700000Y-64360000D01*
X102030000Y-64600000D01*
G37*
%TO.C,U4*%
X94440000Y-81090000D02*
X94490000Y-81090000D01*
X94440000Y-82910000D02*
X94440000Y-81090000D01*
X94490000Y-82910000D02*
X94440000Y-82910000D01*
X97510000Y-81090000D02*
X97560000Y-81090000D01*
X97560000Y-81090000D02*
X97560000Y-82910000D01*
X97560000Y-82910000D02*
X97510000Y-82910000D01*
X94490000Y-83450000D02*
X94160000Y-83690000D01*
X94160000Y-83210000D01*
X94490000Y-83450000D01*
G36*
X94490000Y-83450000D02*
G01*
X94160000Y-83690000D01*
X94160000Y-83210000D01*
X94490000Y-83450000D01*
G37*
%TO.C,LED3*%
X32040000Y-48315000D02*
X32040000Y-51000000D01*
X33960000Y-48315000D02*
X32040000Y-48315000D01*
X33960000Y-51000000D02*
X33960000Y-48315000D01*
%TO.C,J2*%
X22280000Y-30340000D02*
X32320000Y-30340000D01*
X22280000Y-32700000D02*
X22280000Y-30340000D01*
X22280000Y-40740000D02*
X22280000Y-33300000D01*
X22900000Y-30340000D02*
X22900000Y-40740000D01*
X24400000Y-30340000D02*
X24400000Y-40740000D01*
X29300000Y-30340000D02*
X29300000Y-40740000D01*
X32320000Y-30340000D02*
X32320000Y-40740000D01*
X32320000Y-40740000D02*
X22280000Y-40740000D01*
X22280000Y-33000000D02*
X21670000Y-33440000D01*
X21670000Y-32560000D01*
X22280000Y-33000000D01*
G36*
X22280000Y-33000000D02*
G01*
X21670000Y-33440000D01*
X21670000Y-32560000D01*
X22280000Y-33000000D01*
G37*
%TO.C,C5*%
X67738748Y-27965000D02*
X68261252Y-27965000D01*
X67738748Y-29435000D02*
X68261252Y-29435000D01*
%TO.C,R3*%
X82227064Y-83615000D02*
X81772936Y-83615000D01*
X82227064Y-85085000D02*
X81772936Y-85085000D01*
%TO.C,C2*%
X43765000Y-32761252D02*
X43765000Y-32238748D01*
X45235000Y-32761252D02*
X45235000Y-32238748D01*
%TO.C,R9*%
X64765000Y-32272936D02*
X64765000Y-32727064D01*
X66235000Y-32272936D02*
X66235000Y-32727064D01*
%TO.C,C7*%
X73738748Y-26865000D02*
X74261252Y-26865000D01*
X73738748Y-28335000D02*
X74261252Y-28335000D01*
%TO.C,J5*%
X29330000Y-93000000D02*
X29330000Y-97000000D01*
X30200000Y-91970000D02*
X30200000Y-92570000D01*
X30200000Y-92570000D02*
X31800000Y-92570000D01*
X31000000Y-96990000D02*
X31250000Y-96460000D01*
X31000000Y-96990000D02*
X36080000Y-96990000D01*
X31000000Y-97990000D02*
X31000000Y-96990000D01*
X31250000Y-96460000D02*
X36080000Y-96460000D01*
X31250000Y-97990000D02*
X31250000Y-96990000D01*
X31800000Y-92570000D02*
X31800000Y-91970000D01*
X32740000Y-91970000D02*
X32740000Y-92570000D01*
X32740000Y-92570000D02*
X34340000Y-92570000D01*
X34340000Y-92570000D02*
X34340000Y-91970000D01*
X35280000Y-91970000D02*
X35280000Y-92570000D01*
X35280000Y-92570000D02*
X36880000Y-92570000D01*
X36080000Y-96460000D02*
X36080000Y-96990000D01*
X36080000Y-96990000D02*
X36080000Y-97990000D01*
X36880000Y-92570000D02*
X36880000Y-91970000D01*
X37820000Y-91970000D02*
X37820000Y-92570000D01*
X37820000Y-92570000D02*
X39420000Y-92570000D01*
X39420000Y-92570000D02*
X39420000Y-91970000D01*
X40360000Y-91970000D02*
X40360000Y-92570000D01*
X40360000Y-92570000D02*
X41960000Y-92570000D01*
X41960000Y-92570000D02*
X41960000Y-91970000D01*
X42900000Y-91970000D02*
X42900000Y-92570000D01*
X42900000Y-92570000D02*
X44500000Y-92570000D01*
X43700000Y-96460000D02*
X43700000Y-96990000D01*
X43700000Y-96990000D02*
X43700000Y-97990000D01*
X44500000Y-92570000D02*
X44500000Y-91970000D01*
X45440000Y-91970000D02*
X45440000Y-92570000D01*
X45440000Y-92570000D02*
X47040000Y-92570000D01*
X47040000Y-92570000D02*
X47040000Y-91970000D01*
X47980000Y-91970000D02*
X47980000Y-92570000D01*
X47980000Y-92570000D02*
X49580000Y-92570000D01*
X48530000Y-96460000D02*
X43700000Y-96460000D01*
X48530000Y-97990000D02*
X48530000Y-96990000D01*
X48780000Y-96990000D02*
X43700000Y-96990000D01*
X48780000Y-96990000D02*
X48530000Y-96460000D01*
X48780000Y-97990000D02*
X48780000Y-96990000D01*
X49580000Y-92570000D02*
X49580000Y-91970000D01*
X29620000Y-91970000D02*
X50160000Y-91970000D01*
X50160000Y-97990000D01*
X29620000Y-97990000D01*
X29620000Y-91970000D01*
%TO.C,LED2*%
X62040000Y-30815000D02*
X62040000Y-33500000D01*
X63960000Y-30815000D02*
X62040000Y-30815000D01*
X63960000Y-33500000D02*
X63960000Y-30815000D01*
%TO.C,D2*%
X100850000Y-82490000D02*
X100850000Y-88000000D01*
X104150000Y-82490000D02*
X100850000Y-82490000D01*
X104150000Y-82490000D02*
X104150000Y-88000000D01*
%TO.C,R10*%
X35765000Y-50227064D02*
X35765000Y-49772936D01*
X37235000Y-50227064D02*
X37235000Y-49772936D01*
%TO.C,J4*%
X22280000Y-52340000D02*
X32320000Y-52340000D01*
X22280000Y-54700000D02*
X22280000Y-52340000D01*
X22280000Y-62740000D02*
X22280000Y-55300000D01*
X22900000Y-52340000D02*
X22900000Y-62740000D01*
X24400000Y-52340000D02*
X24400000Y-62740000D01*
X29300000Y-52340000D02*
X29300000Y-62740000D01*
X32320000Y-52340000D02*
X32320000Y-62740000D01*
X32320000Y-62740000D02*
X22280000Y-62740000D01*
X22280000Y-55000000D02*
X21670000Y-55440000D01*
X21670000Y-54560000D01*
X22280000Y-55000000D01*
G36*
X22280000Y-55000000D02*
G01*
X21670000Y-55440000D01*
X21670000Y-54560000D01*
X22280000Y-55000000D01*
G37*
%TD*%
M02*
