%TF.GenerationSoftware,KiCad,Pcbnew,10.0.5*%
%TF.CreationDate,2026-07-30T15:12:12-07:00*%
%TF.ProjectId,bisque-controller,62697371-7565-42d6-936f-6e74726f6c6c,rev?*%
%TF.SameCoordinates,Original*%
%TF.FileFunction,Copper,L2,Bot*%
%TF.FilePolarity,Positive*%
%FSLAX46Y46*%
G04 Gerber Fmt 4.6, Leading zero omitted, Abs format (unit mm)*
G04 Created by KiCad (PCBNEW 10.0.5) date 2026-07-30 15:12:12*
%MOMM*%
%LPD*%
G01*
G04 APERTURE LIST*
G04 Aperture macros list*
%AMRoundRect*
0 Rectangle with rounded corners*
0 $1 Rounding radius*
0 $2 $3 $4 $5 $6 $7 $8 $9 X,Y pos of 4 corners*
0 Add a 4 corners polygon primitive as box body*
4,1,4,$2,$3,$4,$5,$6,$7,$8,$9,$2,$3,0*
0 Add four circle primitives for the rounded corners*
1,1,$1+$1,$2,$3*
1,1,$1+$1,$4,$5*
1,1,$1+$1,$6,$7*
1,1,$1+$1,$8,$9*
0 Add four rect primitives between the rounded corners*
20,1,$1+$1,$2,$3,$4,$5,0*
20,1,$1+$1,$4,$5,$6,$7,0*
20,1,$1+$1,$6,$7,$8,$9,0*
20,1,$1+$1,$8,$9,$2,$3,0*%
G04 Aperture macros list end*
%TA.AperFunction,ComponentPad*%
%ADD10C,0.800000*%
%TD*%
%TA.AperFunction,ComponentPad*%
%ADD11C,6.400000*%
%TD*%
%TA.AperFunction,ComponentPad*%
%ADD12RoundRect,0.250000X-0.620000X-0.845000X0.620000X-0.845000X0.620000X0.845000X-0.620000X0.845000X0*%
%TD*%
%TA.AperFunction,ComponentPad*%
%ADD13O,1.740000X2.190000*%
%TD*%
%TA.AperFunction,ComponentPad*%
%ADD14O,1.000000X2.100000*%
%TD*%
%TA.AperFunction,ComponentPad*%
%ADD15O,1.000000X1.600000*%
%TD*%
%TA.AperFunction,ComponentPad*%
%ADD16RoundRect,0.250000X-1.050000X1.050000X-1.050000X-1.050000X1.050000X-1.050000X1.050000X1.050000X0*%
%TD*%
%TA.AperFunction,ComponentPad*%
%ADD17C,2.600000*%
%TD*%
%TA.AperFunction,ComponentPad*%
%ADD18RoundRect,0.250000X1.050000X-1.050000X1.050000X1.050000X-1.050000X1.050000X-1.050000X-1.050000X0*%
%TD*%
%TA.AperFunction,ComponentPad*%
%ADD19R,2.000000X2.000000*%
%TD*%
%TA.AperFunction,ComponentPad*%
%ADD20C,2.000000*%
%TD*%
%TA.AperFunction,HeatsinkPad*%
%ADD21C,0.600000*%
%TD*%
%TA.AperFunction,ViaPad*%
%ADD22C,0.600000*%
%TD*%
%TA.AperFunction,Conductor*%
%ADD23C,0.300000*%
%TD*%
%TA.AperFunction,Conductor*%
%ADD24C,0.700000*%
%TD*%
%TA.AperFunction,Conductor*%
%ADD25C,0.250000*%
%TD*%
%TA.AperFunction,Conductor*%
%ADD26C,0.600000*%
%TD*%
%TA.AperFunction,Conductor*%
%ADD27C,0.500000*%
%TD*%
G04 APERTURE END LIST*
D10*
%TO.P,H2,1*%
%TO.N,GND*%
X113100000Y-25000000D03*
X113802944Y-23302944D03*
X113802944Y-26697056D03*
X115500000Y-22600000D03*
D11*
X115500000Y-25000000D03*
D10*
X115500000Y-27400000D03*
X117197056Y-23302944D03*
X117197056Y-26697056D03*
X117900000Y-25000000D03*
%TD*%
D12*
%TO.P,J7,1*%
%TO.N,+3V3*%
X70500000Y-95000000D03*
D13*
%TO.P,J7,2*%
%TO.N,GND*%
X73040000Y-95000000D03*
%TO.P,J7,3*%
%TO.N,TXD0*%
X75580000Y-95000000D03*
%TO.P,J7,4*%
%TO.N,RXD0*%
X78120000Y-95000000D03*
%TO.P,J7,5*%
%TO.N,VENT*%
X80660000Y-95000000D03*
%TO.P,J7,6*%
%TO.N,LID_SW*%
X83200000Y-95000000D03*
%TO.P,J7,7*%
%TO.N,AUX_A*%
X85740000Y-95000000D03*
%TO.P,J7,8*%
%TO.N,AUX_B*%
X88280000Y-95000000D03*
%TD*%
D12*
%TO.P,J6,1*%
%TO.N,BTN_UP*%
X53000000Y-95000000D03*
D13*
%TO.P,J6,2*%
%TO.N,BTN_DOWN*%
X55540000Y-95000000D03*
%TO.P,J6,3*%
%TO.N,BTN_LEFT*%
X58080000Y-95000000D03*
%TO.P,J6,4*%
%TO.N,BTN_RIGHT*%
X60620000Y-95000000D03*
%TO.P,J6,5*%
%TO.N,BTN_SEL*%
X63160000Y-95000000D03*
%TO.P,J6,6*%
%TO.N,GND*%
X65700000Y-95000000D03*
%TD*%
D14*
%TO.P,J1,SH*%
%TO.N,GND*%
X91680000Y-92470000D03*
D15*
X91680000Y-96650000D03*
D14*
X100320000Y-92470000D03*
D15*
X100320000Y-96650000D03*
%TD*%
D16*
%TO.P,J2,1*%
%TO.N,VIN*%
X27000000Y-33000000D03*
D17*
%TO.P,J2,2*%
%TO.N,GND*%
X27000000Y-38080000D03*
%TD*%
D10*
%TO.P,H1,1*%
%TO.N,GND*%
X23100000Y-25000000D03*
X23802944Y-23302944D03*
X23802944Y-26697056D03*
X25500000Y-22600000D03*
D11*
X25500000Y-25000000D03*
D10*
X25500000Y-27400000D03*
X27197056Y-23302944D03*
X27197056Y-26697056D03*
X27900000Y-25000000D03*
%TD*%
D12*
%TO.P,J5,1*%
%TO.N,+5V*%
X31000000Y-95000000D03*
D13*
%TO.P,J5,2*%
%TO.N,GND*%
X33540000Y-95000000D03*
%TO.P,J5,3*%
%TO.N,LCD_CS*%
X36080000Y-95000000D03*
%TO.P,J5,4*%
%TO.N,LCD_RST*%
X38620000Y-95000000D03*
%TO.P,J5,5*%
%TO.N,LCD_DC*%
X41160000Y-95000000D03*
%TO.P,J5,6*%
%TO.N,SPI_MOSI*%
X43700000Y-95000000D03*
%TO.P,J5,7*%
%TO.N,SPI_SCLK*%
X46240000Y-95000000D03*
%TO.P,J5,8*%
%TO.N,LCD_BL*%
X48780000Y-95000000D03*
%TD*%
D18*
%TO.P,J3,1*%
%TO.N,TC_P*%
X114000000Y-65000000D03*
D17*
%TO.P,J3,2*%
%TO.N,GND*%
X114000000Y-59920000D03*
%TD*%
D10*
%TO.P,H4,1*%
%TO.N,GND*%
X113100000Y-95000000D03*
X113802944Y-93302944D03*
X113802944Y-96697056D03*
X115500000Y-92600000D03*
D11*
X115500000Y-95000000D03*
D10*
X115500000Y-97400000D03*
X117197056Y-93302944D03*
X117197056Y-96697056D03*
X117900000Y-95000000D03*
%TD*%
D19*
%TO.P,BZ1,1*%
%TO.N,+5V*%
X38000000Y-78000000D03*
D20*
%TO.P,BZ1,2*%
%TO.N,BUZZ_K*%
X45600000Y-78000000D03*
%TD*%
D10*
%TO.P,H3,1*%
%TO.N,GND*%
X23100000Y-95000000D03*
X23802944Y-93302944D03*
X23802944Y-96697056D03*
X25500000Y-92600000D03*
D11*
X25500000Y-95000000D03*
D10*
X25500000Y-97400000D03*
X27197056Y-93302944D03*
X27197056Y-96697056D03*
X27900000Y-95000000D03*
%TD*%
D21*
%TO.P,U1,41*%
%TO.N,GND*%
X85100000Y-34760000D03*
X85100000Y-36160000D03*
X85800000Y-34060000D03*
X85800000Y-35460000D03*
X85800000Y-36860000D03*
X86500000Y-34760000D03*
X86500000Y-36160000D03*
X87200000Y-34060000D03*
X87200000Y-35460000D03*
X87200000Y-36860000D03*
X87900000Y-34760000D03*
X87900000Y-36160000D03*
%TD*%
D16*
%TO.P,J4,1*%
%TO.N,+5V*%
X27000000Y-55000000D03*
D17*
%TO.P,J4,2*%
%TO.N,SSR_OUT*%
X27000000Y-60080000D03*
%TD*%
D22*
%TO.N,EN*%
X66400000Y-30000000D03*
X66000000Y-27600000D03*
%TO.N,GND*%
X96800000Y-72800000D03*
X30000000Y-84000000D03*
X54000000Y-79600000D03*
X108000000Y-60000000D03*
X36000000Y-84000000D03*
X42000000Y-66000000D03*
X90000000Y-84000000D03*
X78000000Y-90000000D03*
X114000000Y-54000000D03*
X30000000Y-42000000D03*
X24000000Y-72000000D03*
X54000000Y-24000000D03*
X42000000Y-48000000D03*
X90000000Y-30000000D03*
X102000000Y-30000000D03*
X42000000Y-78000000D03*
X90000000Y-36000000D03*
X108000000Y-96000000D03*
X54000000Y-36000000D03*
X108000000Y-72000000D03*
X48000000Y-42000000D03*
X36000000Y-60000000D03*
X36000000Y-36000000D03*
X66000000Y-36000000D03*
X60000000Y-48000000D03*
X82000000Y-28000000D03*
X42000000Y-90000000D03*
X84000000Y-30000000D03*
X36000000Y-78000000D03*
X102000000Y-78000000D03*
X36000000Y-54000000D03*
X114000000Y-42000000D03*
X48000000Y-66000000D03*
X24000000Y-90000000D03*
X66000000Y-26800000D03*
X30000000Y-48000000D03*
X96000000Y-60000000D03*
X54000000Y-60000000D03*
X66000000Y-84000000D03*
X30000000Y-66000000D03*
X36000000Y-66000000D03*
X54000000Y-48000000D03*
X30000000Y-60000000D03*
X42000000Y-54000000D03*
X42000000Y-42000000D03*
X114000000Y-48000000D03*
X60000000Y-90000000D03*
X72000000Y-36000000D03*
X60000000Y-30000000D03*
X48000000Y-24000000D03*
X36000000Y-72000000D03*
X84000000Y-36000000D03*
X54000000Y-72000000D03*
X48000000Y-60000000D03*
X108000000Y-78000000D03*
X72000000Y-60000000D03*
X90000000Y-90000000D03*
X42000000Y-72000000D03*
X54000000Y-42000000D03*
X24000000Y-30000000D03*
X114000000Y-84000000D03*
X84000000Y-84000000D03*
X96000000Y-48000000D03*
X54000000Y-54000000D03*
X24000000Y-84000000D03*
X96000000Y-85400000D03*
X30000000Y-72000000D03*
X72000000Y-96000000D03*
X66000000Y-48000000D03*
X102000000Y-72000000D03*
X72000000Y-54000000D03*
X90000000Y-96000000D03*
X114000000Y-72000000D03*
X90000000Y-54000000D03*
X90000000Y-66000000D03*
X24000000Y-54000000D03*
X60000000Y-54000000D03*
X30000000Y-24000000D03*
X54000000Y-30000000D03*
X24000000Y-78000000D03*
X114000000Y-90000000D03*
X60000000Y-72000000D03*
X108000000Y-48000000D03*
X69200000Y-80400000D03*
X36000000Y-24000000D03*
X60000000Y-42000000D03*
X48000000Y-54000000D03*
X60000000Y-66000000D03*
X84000000Y-42000000D03*
X96000000Y-96000000D03*
X30000000Y-78000000D03*
X72000000Y-42000000D03*
X108000000Y-36000000D03*
X60000000Y-36000000D03*
X108000000Y-30000000D03*
X102000000Y-90000000D03*
X84000000Y-90000000D03*
X66000000Y-66000000D03*
X66000000Y-90000000D03*
X24000000Y-66000000D03*
X42000000Y-24000000D03*
X114000000Y-30000000D03*
X66000000Y-60000000D03*
X108000000Y-90000000D03*
X66000000Y-42000000D03*
X24000000Y-42000000D03*
X114000000Y-36000000D03*
X108000000Y-54000000D03*
X48000000Y-48000000D03*
X36000000Y-30000000D03*
X114000000Y-78000000D03*
X108000000Y-42000000D03*
X24000000Y-48000000D03*
X24000000Y-60000000D03*
X24000000Y-36000000D03*
X30000000Y-36000000D03*
X108000000Y-84000000D03*
X42000000Y-60000000D03*
%TO.N,+3V3*%
X69200000Y-28800000D03*
X66800000Y-28800000D03*
X86800000Y-76400000D03*
%TO.N,SPI_SCLK*%
X102800000Y-56000000D03*
X87200000Y-47600000D03*
%TO.N,TC_CS*%
X100400000Y-57200000D03*
X102800000Y-57200000D03*
%TO.N,SPI_MISO*%
X98400000Y-56400000D03*
X102800000Y-61200000D03*
%TO.N,LEDS_K*%
X34000000Y-48000000D03*
X36400000Y-48000000D03*
%TO.N,CC2*%
X97600000Y-90000000D03*
X97600000Y-92800000D03*
%TO.N,USB_DN*%
X95600000Y-89600000D03*
X95600000Y-88000000D03*
X87200000Y-74000000D03*
X93200000Y-85600000D03*
X92000000Y-78800000D03*
%TO.N,USB_DP*%
X95600000Y-78800000D03*
X96800000Y-89600000D03*
X96800000Y-88000000D03*
X89200000Y-72400000D03*
%TO.N,TXD0*%
X84400000Y-46800000D03*
X83600000Y-65599999D03*
X75200000Y-78800000D03*
X87200000Y-44000000D03*
%TO.N,RXD0*%
X101600000Y-64000000D03*
X99200000Y-47600000D03*
X92000000Y-76400000D03*
%TO.N,VENT*%
X82000000Y-78800000D03*
X96800000Y-53600000D03*
%TO.N,LID_SW*%
X97600000Y-54400000D03*
%TO.N,AUX_A*%
X76400000Y-38400000D03*
X76000000Y-78800000D03*
X76400000Y-44800000D03*
X76000000Y-76400000D03*
%TO.N,AUX_B*%
X88400000Y-78800000D03*
X77200000Y-44000000D03*
X86800000Y-74800000D03*
X78000000Y-38400000D03*
%TO.N,BTN_UP*%
X58000000Y-83200000D03*
X73600000Y-38400000D03*
X73600000Y-48800000D03*
X63200000Y-78000000D03*
%TO.N,BTN_DOWN*%
X62000000Y-80800000D03*
X59600000Y-83200000D03*
X74400000Y-38400000D03*
X74400000Y-48000000D03*
%TO.N,BTN_LEFT*%
X64400000Y-80800000D03*
X75200000Y-47600000D03*
X80800000Y-42000000D03*
%TO.N,BTN_RIGHT*%
X83600000Y-44000000D03*
X84400000Y-63200000D03*
X84400000Y-48400000D03*
%TO.N,BTN_SEL*%
X100000000Y-38800000D03*
X63200000Y-83200000D03*
X88000000Y-50800000D03*
X85200000Y-60800000D03*
%TO.N,CC1*%
X92800000Y-89600000D03*
X94400000Y-89600000D03*
%TO.N,SSR_OUT*%
X31200000Y-56000000D03*
%TO.N,IO0*%
X102800000Y-47600000D03*
X100400000Y-47600000D03*
%TO.N,BUZZ_K*%
X50000000Y-84400000D03*
%TO.N,LED_DATA*%
X93200000Y-47200000D03*
X88800000Y-51600000D03*
X82800000Y-78800000D03*
X88800000Y-70800000D03*
%TO.N,LCD_CS*%
X44000000Y-82400000D03*
%TO.N,LCD_RST*%
X82000000Y-55200000D03*
X54000000Y-83200000D03*
%TO.N,LCD_DC*%
X82800000Y-52800000D03*
%TO.N,SPI_MOSI*%
X86400000Y-46800000D03*
%TO.N,LCD_BL*%
X81200000Y-62800000D03*
%TO.N,ALARM*%
X75200000Y-38400000D03*
X75200000Y-46000000D03*
%TD*%
%TO.N,EN*%
D23*
X66000000Y-29600000D02*
X66000000Y-27600000D01*
X66400000Y-30000000D02*
X66000000Y-29600000D01*
%TO.N,GND*%
X62000000Y-30000000D02*
X65200000Y-26800000D01*
X84000000Y-30000000D02*
X82000000Y-28000000D01*
X66000000Y-84000000D02*
X69200000Y-80800000D01*
X60000000Y-30000000D02*
X62000000Y-30000000D01*
X65200000Y-26800000D02*
X66000000Y-26800000D01*
X54000000Y-72000000D02*
X54000000Y-79600000D01*
X69200000Y-80800000D02*
X69200000Y-80400000D01*
%TO.N,+3V3*%
D24*
X86800000Y-76400000D02*
X70400000Y-92800000D01*
X69200000Y-28800000D02*
X66800000Y-28800000D01*
X70400000Y-95200000D02*
X70500000Y-95000000D01*
X70400000Y-92800000D02*
X70400000Y-95200000D01*
%TO.N,SPI_SCLK*%
D23*
X87200000Y-52800000D02*
X87200000Y-47600000D01*
X46400000Y-95200000D02*
X47200000Y-94400000D01*
X87200000Y-52800000D02*
X99600000Y-52800000D01*
X47200000Y-94400000D02*
X47200000Y-92800000D01*
X47200000Y-92800000D02*
X87200000Y-52800000D01*
X99600000Y-52800000D02*
X102800000Y-56000000D01*
%TO.N,TC_CS*%
X100400000Y-57200000D02*
X102800000Y-57200000D01*
%TO.N,SPI_MISO*%
X98400000Y-56400000D02*
X99600000Y-57600000D01*
X99600000Y-58000000D02*
X102800000Y-61200000D01*
X99600000Y-57600000D02*
X99600000Y-58000000D01*
%TO.N,LEDS_K*%
X36400000Y-48000000D02*
X34000000Y-48000000D01*
%TO.N,CC2*%
D25*
X97600000Y-90000000D02*
X97600000Y-92800000D01*
%TO.N,USB_DN*%
X92000000Y-78800000D02*
X87200000Y-74000000D01*
X95600000Y-88000000D02*
X93200000Y-85600000D01*
X95600000Y-89600000D02*
X95600000Y-88000000D01*
%TO.N,USB_DP*%
X95600000Y-78800000D02*
X89200000Y-72400000D01*
X96800000Y-89600000D02*
X96800000Y-88000000D01*
%TO.N,TXD0*%
D23*
X75200000Y-74000000D02*
X83600000Y-65599999D01*
X75200000Y-78800000D02*
X75200000Y-74000000D01*
X84400000Y-46800000D02*
X87200000Y-44000000D01*
%TO.N,RXD0*%
X101600000Y-64000000D02*
X103600000Y-62000000D01*
X92800000Y-79600000D02*
X92800000Y-77200000D01*
X99200000Y-48000000D02*
X99200000Y-47600000D01*
X78000000Y-95200000D02*
X79200000Y-94000000D01*
X103600000Y-52400000D02*
X99200000Y-48000000D01*
X79200000Y-93200000D02*
X92800000Y-79600000D01*
X92800000Y-77200000D02*
X92000000Y-76400000D01*
X79200000Y-94000000D02*
X79200000Y-93200000D01*
X103600000Y-62000000D02*
X103600000Y-52400000D01*
%TO.N,VENT*%
X82000000Y-68400000D02*
X96800000Y-53600000D01*
X82000000Y-78800000D02*
X82000000Y-68400000D01*
%TO.N,LID_SW*%
X83200000Y-95200000D02*
X83200000Y-92800000D01*
X83200000Y-92800000D02*
X97600000Y-78400000D01*
X97600000Y-78400000D02*
X97600000Y-54400000D01*
%TO.N,AUX_A*%
X76000000Y-78800000D02*
X76000000Y-76400000D01*
X76400000Y-44800000D02*
X76400000Y-38400000D01*
%TO.N,AUX_B*%
X88400000Y-78800000D02*
X88400000Y-76400000D01*
X88400000Y-76400000D02*
X86800000Y-74800000D01*
X77200000Y-44000000D02*
X77200000Y-39200000D01*
X77200000Y-39200000D02*
X78000000Y-38400000D01*
%TO.N,BTN_UP*%
X73600000Y-48800000D02*
X73600000Y-38400000D01*
X58000000Y-83200000D02*
X63200000Y-78000000D01*
%TO.N,BTN_DOWN*%
X74400000Y-48000000D02*
X74400000Y-38400000D01*
X59600000Y-83200000D02*
X62000000Y-80800000D01*
%TO.N,BTN_LEFT*%
X58000000Y-87200000D02*
X64400000Y-80800000D01*
X58000000Y-95200000D02*
X58000000Y-87200000D01*
X75200000Y-47600000D02*
X80800000Y-42000000D01*
%TO.N,BTN_RIGHT*%
X83600000Y-47600000D02*
X83600000Y-44000000D01*
X60800000Y-86800000D02*
X84400000Y-63200000D01*
X84400000Y-48400000D02*
X83600000Y-47600000D01*
X60800000Y-95200000D02*
X60800000Y-86800000D01*
%TO.N,BTN_SEL*%
X88000000Y-50800000D02*
X100000000Y-38800000D01*
X63200000Y-83200000D02*
X64800000Y-81600000D01*
X65200000Y-80800000D02*
X85200000Y-60800000D01*
X64800000Y-81600000D02*
X65200000Y-81600000D01*
X65200000Y-81600000D02*
X65200000Y-80800000D01*
%TO.N,CC1*%
D25*
X94400000Y-89600000D02*
X92800000Y-89600000D01*
%TO.N,SSR_OUT*%
D26*
X27200000Y-60000000D02*
X31200000Y-56000000D01*
%TO.N,IO0*%
D23*
X102800000Y-47600000D02*
X100400000Y-47600000D01*
%TO.N,BUZZ_K*%
D27*
X50000000Y-82400000D02*
X50000000Y-84400000D01*
X45600000Y-78000000D02*
X50000000Y-82400000D01*
%TO.N,LED_DATA*%
D23*
X88800000Y-51600000D02*
X93200000Y-47200000D01*
X82800000Y-78800000D02*
X82800000Y-76800000D01*
X82800000Y-76800000D02*
X88800000Y-70800000D01*
%TO.N,LCD_CS*%
X36000000Y-90400000D02*
X44000000Y-82400000D01*
X36000000Y-95200000D02*
X36000000Y-90400000D01*
%TO.N,LCD_RST*%
X54000000Y-83200000D02*
X82000000Y-55200000D01*
%TO.N,LCD_DC*%
X50800000Y-85200000D02*
X53200000Y-82800000D01*
X41200000Y-95200000D02*
X41200000Y-94400000D01*
X50400000Y-85200000D02*
X50800000Y-85200000D01*
X41200000Y-94400000D02*
X50400000Y-85200000D01*
X53200000Y-82400000D02*
X82800000Y-52800000D01*
X53200000Y-82800000D02*
X53200000Y-82400000D01*
%TO.N,SPI_MOSI*%
X43600000Y-95200000D02*
X43600000Y-94400000D01*
X86400000Y-52400000D02*
X86400000Y-46800000D01*
X43600000Y-94400000D02*
X54000000Y-84000000D01*
X54800000Y-84000000D02*
X86400000Y-52400000D01*
X54000000Y-84000000D02*
X54800000Y-84000000D01*
%TO.N,LCD_BL*%
X48800000Y-95200000D02*
X81200000Y-62800000D01*
%TO.N,ALARM*%
X75200000Y-46000000D02*
X75200000Y-38400000D01*
%TD*%
%TA.AperFunction,Conductor*%
%TO.N,GND*%
G36*
X96201137Y-53269407D02*
G01*
X96237101Y-53318907D01*
X96238572Y-53375120D01*
X96199500Y-53520943D01*
X96199500Y-53520944D01*
X96199500Y-53522388D01*
X96199180Y-53523371D01*
X96198653Y-53527377D01*
X96197910Y-53527279D01*
X96180593Y-53580579D01*
X96170504Y-53592392D01*
X84330510Y-65432385D01*
X84275993Y-65460162D01*
X84215561Y-65450591D01*
X84172296Y-65407326D01*
X84164879Y-65388004D01*
X84159577Y-65368215D01*
X84080520Y-65231283D01*
X83968716Y-65119479D01*
X83831784Y-65040422D01*
X83679057Y-64999499D01*
X83520943Y-64999499D01*
X83520940Y-64999499D01*
X83490777Y-65007581D01*
X83429675Y-65004378D01*
X83382126Y-64965871D01*
X83366292Y-64906770D01*
X83388220Y-64849649D01*
X83395142Y-64841960D01*
X84407607Y-63829496D01*
X84462124Y-63801719D01*
X84477611Y-63800500D01*
X84479055Y-63800500D01*
X84479057Y-63800500D01*
X84631784Y-63759577D01*
X84768716Y-63680520D01*
X84880520Y-63568716D01*
X84959577Y-63431784D01*
X85000500Y-63279057D01*
X85000500Y-63120943D01*
X84959577Y-62968216D01*
X84880520Y-62831284D01*
X84768716Y-62719480D01*
X84631784Y-62640423D01*
X84479057Y-62599500D01*
X84320943Y-62599500D01*
X84303967Y-62604048D01*
X84290776Y-62607583D01*
X84229674Y-62604380D01*
X84182125Y-62565874D01*
X84166290Y-62506774D01*
X84188217Y-62449652D01*
X84195140Y-62441962D01*
X85207607Y-61429496D01*
X85262124Y-61401719D01*
X85277611Y-61400500D01*
X85279055Y-61400500D01*
X85279057Y-61400500D01*
X85431784Y-61359577D01*
X85568716Y-61280520D01*
X85680520Y-61168716D01*
X85759577Y-61031784D01*
X85800500Y-60879057D01*
X85800500Y-60720943D01*
X85759577Y-60568216D01*
X85680520Y-60431284D01*
X85568716Y-60319480D01*
X85431784Y-60240423D01*
X85279057Y-60199500D01*
X85120943Y-60199500D01*
X84968216Y-60240423D01*
X84831284Y-60319480D01*
X84719480Y-60431284D01*
X84640423Y-60568216D01*
X84632041Y-60599500D01*
X84599500Y-60720944D01*
X84599500Y-60722388D01*
X84599180Y-60723371D01*
X84598653Y-60727377D01*
X84597910Y-60727279D01*
X84580593Y-60780579D01*
X84570504Y-60792392D01*
X64976069Y-80386826D01*
X64921552Y-80414603D01*
X64861120Y-80405032D01*
X64836064Y-80386828D01*
X64768716Y-80319480D01*
X64631784Y-80240423D01*
X64631783Y-80240422D01*
X64631782Y-80240422D01*
X64611991Y-80235119D01*
X64560678Y-80201794D01*
X64538753Y-80144671D01*
X64554590Y-80085571D01*
X64567608Y-80069494D01*
X81207607Y-63429496D01*
X81262124Y-63401719D01*
X81277611Y-63400500D01*
X81279055Y-63400500D01*
X81279057Y-63400500D01*
X81431784Y-63359577D01*
X81568716Y-63280520D01*
X81680520Y-63168716D01*
X81759577Y-63031784D01*
X81800500Y-62879057D01*
X81800500Y-62720943D01*
X81759577Y-62568216D01*
X81680520Y-62431284D01*
X81568716Y-62319480D01*
X81431784Y-62240423D01*
X81279057Y-62199500D01*
X81120943Y-62199500D01*
X80968216Y-62240423D01*
X80831284Y-62319480D01*
X80719480Y-62431284D01*
X80640423Y-62568216D01*
X80632041Y-62599500D01*
X80599500Y-62720944D01*
X80599500Y-62722389D01*
X80599180Y-62723373D01*
X80598653Y-62727377D01*
X80597911Y-62727279D01*
X80580593Y-62780580D01*
X80570504Y-62792393D01*
X62730510Y-80632386D01*
X62675993Y-80660163D01*
X62615561Y-80650592D01*
X62572296Y-80607327D01*
X62564879Y-80588005D01*
X62559577Y-80568216D01*
X62480520Y-80431284D01*
X62368716Y-80319480D01*
X62231784Y-80240423D01*
X62079057Y-80199500D01*
X61920943Y-80199500D01*
X61912382Y-80201794D01*
X61890776Y-80207583D01*
X61829674Y-80204380D01*
X61782125Y-80165874D01*
X61766290Y-80106774D01*
X61788217Y-80049652D01*
X61795140Y-80041962D01*
X63207607Y-78629496D01*
X63262124Y-78601719D01*
X63277611Y-78600500D01*
X63279055Y-78600500D01*
X63279057Y-78600500D01*
X63431784Y-78559577D01*
X63568716Y-78480520D01*
X63680520Y-78368716D01*
X63759577Y-78231784D01*
X63800500Y-78079057D01*
X63800500Y-77920943D01*
X63759577Y-77768216D01*
X63680520Y-77631284D01*
X63568716Y-77519480D01*
X63431784Y-77440423D01*
X63431783Y-77440422D01*
X63431782Y-77440422D01*
X63411991Y-77435119D01*
X63360678Y-77401794D01*
X63338753Y-77344671D01*
X63354590Y-77285571D01*
X63367608Y-77269494D01*
X87357607Y-53279496D01*
X87412124Y-53251719D01*
X87427611Y-53250500D01*
X96142946Y-53250500D01*
X96201137Y-53269407D01*
G37*
%TD.AperFunction*%
%TA.AperFunction,Conductor*%
G36*
X96885693Y-54201203D02*
G01*
X96939043Y-54203992D01*
X96986599Y-54242490D01*
X97002443Y-54301588D01*
X97000095Y-54316424D01*
X96999500Y-54320942D01*
X96999500Y-54320943D01*
X96999500Y-54479057D01*
X97040423Y-54631784D01*
X97119480Y-54768716D01*
X97120505Y-54769741D01*
X97120977Y-54770668D01*
X97123431Y-54773866D01*
X97122838Y-54774320D01*
X97148281Y-54824256D01*
X97149500Y-54839743D01*
X97149500Y-78172389D01*
X97130593Y-78230580D01*
X97120504Y-78242393D01*
X96358047Y-79004849D01*
X96303530Y-79032626D01*
X96243098Y-79023055D01*
X96199833Y-78979790D01*
X96190262Y-78919358D01*
X96192413Y-78909235D01*
X96200500Y-78879057D01*
X96200500Y-78720943D01*
X96159577Y-78568216D01*
X96080520Y-78431284D01*
X95968716Y-78319480D01*
X95831784Y-78240423D01*
X95679057Y-78199500D01*
X95679055Y-78199500D01*
X95642256Y-78199500D01*
X95584065Y-78180593D01*
X95572252Y-78170504D01*
X89829496Y-72427748D01*
X89801719Y-72373231D01*
X89800500Y-72357744D01*
X89800500Y-72320944D01*
X89800500Y-72320943D01*
X89759577Y-72168216D01*
X89680520Y-72031284D01*
X89568716Y-71919480D01*
X89431784Y-71840423D01*
X89279057Y-71799500D01*
X89120943Y-71799500D01*
X88968216Y-71840423D01*
X88831284Y-71919480D01*
X88719480Y-72031284D01*
X88640423Y-72168216D01*
X88599500Y-72320943D01*
X88599500Y-72479057D01*
X88640423Y-72631784D01*
X88719480Y-72768716D01*
X88831284Y-72880520D01*
X88968216Y-72959577D01*
X89120943Y-73000500D01*
X89157744Y-73000500D01*
X89215935Y-73019407D01*
X89227748Y-73029496D01*
X91860270Y-75662018D01*
X91888047Y-75716535D01*
X91878476Y-75776967D01*
X91835211Y-75820232D01*
X91815890Y-75827648D01*
X91768219Y-75840421D01*
X91768218Y-75840421D01*
X91674168Y-75894721D01*
X91631284Y-75919480D01*
X91519480Y-76031284D01*
X91440423Y-76168216D01*
X91399500Y-76320943D01*
X91399500Y-76479057D01*
X91440423Y-76631784D01*
X91519480Y-76768716D01*
X91631284Y-76880520D01*
X91768216Y-76959577D01*
X91920943Y-77000500D01*
X91922389Y-77000500D01*
X91923373Y-77000819D01*
X91927377Y-77001347D01*
X91927279Y-77002088D01*
X91980580Y-77019407D01*
X91992393Y-77029496D01*
X92320504Y-77357607D01*
X92348281Y-77412124D01*
X92349500Y-77427611D01*
X92349500Y-78142945D01*
X92330593Y-78201136D01*
X92281093Y-78237100D01*
X92224877Y-78238572D01*
X92175024Y-78225214D01*
X92079057Y-78199500D01*
X92079055Y-78199500D01*
X92042256Y-78199500D01*
X91984065Y-78180593D01*
X91972252Y-78170504D01*
X87829496Y-74027748D01*
X87801719Y-73973231D01*
X87800500Y-73957744D01*
X87800500Y-73920944D01*
X87800500Y-73920943D01*
X87759577Y-73768216D01*
X87680520Y-73631284D01*
X87568716Y-73519480D01*
X87431784Y-73440423D01*
X87279057Y-73399500D01*
X87120943Y-73399500D01*
X87103967Y-73404048D01*
X87090776Y-73407583D01*
X87029674Y-73404380D01*
X86982125Y-73365874D01*
X86966290Y-73306774D01*
X86988217Y-73249652D01*
X86995140Y-73241962D01*
X88807607Y-71429496D01*
X88862124Y-71401719D01*
X88877611Y-71400500D01*
X88879055Y-71400500D01*
X88879057Y-71400500D01*
X89031784Y-71359577D01*
X89168716Y-71280520D01*
X89280520Y-71168716D01*
X89359577Y-71031784D01*
X89400500Y-70879057D01*
X89400500Y-70720943D01*
X89359577Y-70568216D01*
X89280520Y-70431284D01*
X89168716Y-70319480D01*
X89031784Y-70240423D01*
X88879057Y-70199500D01*
X88720943Y-70199500D01*
X88568216Y-70240423D01*
X88431284Y-70319480D01*
X88319480Y-70431284D01*
X88240423Y-70568216D01*
X88199500Y-70720944D01*
X88199500Y-70722389D01*
X88199180Y-70723373D01*
X88198653Y-70727377D01*
X88197911Y-70727279D01*
X88180593Y-70780580D01*
X88170504Y-70792393D01*
X82619504Y-76343393D01*
X82564987Y-76371170D01*
X82504555Y-76361599D01*
X82461290Y-76318334D01*
X82450500Y-76273389D01*
X82450500Y-68627611D01*
X82469407Y-68569420D01*
X82479496Y-68557607D01*
X96807608Y-54229496D01*
X96862125Y-54201719D01*
X96877612Y-54200500D01*
X96879056Y-54200500D01*
X96879057Y-54200500D01*
X96879057Y-54200499D01*
X96885489Y-54199653D01*
X96885693Y-54201203D01*
G37*
%TD.AperFunction*%
%TA.AperFunction,Conductor*%
G36*
X63959191Y-20518907D02*
G01*
X63995155Y-20568407D01*
X64000000Y-20599000D01*
X64000000Y-26250000D01*
X64000001Y-26250000D01*
X111999999Y-26250000D01*
X112000000Y-26250000D01*
X112000000Y-20599000D01*
X112018907Y-20540809D01*
X112068407Y-20504845D01*
X112099000Y-20500000D01*
X119401000Y-20500000D01*
X119459191Y-20518907D01*
X119495155Y-20568407D01*
X119500000Y-20599000D01*
X119500000Y-99401000D01*
X119481093Y-99459191D01*
X119431593Y-99495155D01*
X119401000Y-99500000D01*
X20599000Y-99500000D01*
X20540809Y-99481093D01*
X20504845Y-99431593D01*
X20500000Y-99401000D01*
X20500000Y-94111893D01*
X29829500Y-94111893D01*
X29829500Y-95888106D01*
X29840123Y-95976565D01*
X29895637Y-96117339D01*
X29895638Y-96117341D01*
X29895639Y-96117342D01*
X29987078Y-96237922D01*
X30107658Y-96329361D01*
X30107659Y-96329361D01*
X30107660Y-96329362D01*
X30178047Y-96357119D01*
X30248436Y-96384877D01*
X30336898Y-96395500D01*
X30336900Y-96395500D01*
X31663100Y-96395500D01*
X31663102Y-96395500D01*
X31751564Y-96384877D01*
X31892342Y-96329361D01*
X32012922Y-96237922D01*
X32104361Y-96117342D01*
X32159877Y-95976564D01*
X32170500Y-95888102D01*
X32170500Y-94682915D01*
X32370000Y-94682915D01*
X32370000Y-94799999D01*
X32370001Y-94800000D01*
X32977600Y-94800000D01*
X32945000Y-94921667D01*
X32945000Y-95078333D01*
X32977600Y-95200000D01*
X32370001Y-95200000D01*
X32370000Y-95200001D01*
X32370000Y-95317084D01*
X32398807Y-95498971D01*
X32455718Y-95674124D01*
X32539324Y-95838211D01*
X32647573Y-95987202D01*
X32777797Y-96117426D01*
X32926788Y-96225675D01*
X33090875Y-96309281D01*
X33266027Y-96366192D01*
X33339999Y-96377907D01*
X33340000Y-96377906D01*
X33340000Y-95562399D01*
X33461667Y-95595000D01*
X33618333Y-95595000D01*
X33740000Y-95562399D01*
X33740000Y-96377907D01*
X33813972Y-96366192D01*
X33989124Y-96309281D01*
X34153211Y-96225675D01*
X34302202Y-96117426D01*
X34432426Y-95987202D01*
X34540675Y-95838211D01*
X34624281Y-95674124D01*
X34681192Y-95498971D01*
X34710000Y-95317084D01*
X34710000Y-95200001D01*
X34709999Y-95200000D01*
X34102400Y-95200000D01*
X34135000Y-95078333D01*
X34135000Y-94921667D01*
X34102400Y-94800000D01*
X34709999Y-94800000D01*
X34710000Y-94799999D01*
X34710000Y-94682915D01*
X34709994Y-94682876D01*
X34909500Y-94682876D01*
X34909500Y-95317123D01*
X34938321Y-95499090D01*
X34995253Y-95674312D01*
X34995254Y-95674315D01*
X34995255Y-95674316D01*
X35078899Y-95838475D01*
X35187193Y-95987529D01*
X35317471Y-96117807D01*
X35466525Y-96226101D01*
X35630684Y-96309745D01*
X35805907Y-96366678D01*
X35876797Y-96377906D01*
X35987877Y-96395500D01*
X35987880Y-96395500D01*
X36172123Y-96395500D01*
X36263106Y-96381089D01*
X36354093Y-96366678D01*
X36529316Y-96309745D01*
X36693475Y-96226101D01*
X36842529Y-96117807D01*
X36972807Y-95987529D01*
X37081101Y-95838475D01*
X37164745Y-95674316D01*
X37221678Y-95499093D01*
X37250500Y-95317120D01*
X37250500Y-94682880D01*
X37250500Y-94682878D01*
X37250500Y-94682876D01*
X37449500Y-94682876D01*
X37449500Y-95317123D01*
X37478321Y-95499090D01*
X37535253Y-95674312D01*
X37535254Y-95674315D01*
X37535255Y-95674316D01*
X37618899Y-95838475D01*
X37727193Y-95987529D01*
X37857471Y-96117807D01*
X38006525Y-96226101D01*
X38170684Y-96309745D01*
X38345907Y-96366678D01*
X38416797Y-96377906D01*
X38527877Y-96395500D01*
X38527880Y-96395500D01*
X38712123Y-96395500D01*
X38803106Y-96381089D01*
X38894093Y-96366678D01*
X39069316Y-96309745D01*
X39233475Y-96226101D01*
X39382529Y-96117807D01*
X39512807Y-95987529D01*
X39621101Y-95838475D01*
X39704745Y-95674316D01*
X39761678Y-95499093D01*
X39790500Y-95317120D01*
X39790500Y-94682880D01*
X39790500Y-94682878D01*
X39790500Y-94682876D01*
X39989500Y-94682876D01*
X39989500Y-95317123D01*
X40018321Y-95499090D01*
X40075253Y-95674312D01*
X40075254Y-95674315D01*
X40075255Y-95674316D01*
X40158899Y-95838475D01*
X40267193Y-95987529D01*
X40397471Y-96117807D01*
X40546525Y-96226101D01*
X40710684Y-96309745D01*
X40885907Y-96366678D01*
X40956797Y-96377906D01*
X41067877Y-96395500D01*
X41067880Y-96395500D01*
X41252123Y-96395500D01*
X41343106Y-96381089D01*
X41434093Y-96366678D01*
X41609316Y-96309745D01*
X41773475Y-96226101D01*
X41922529Y-96117807D01*
X42052807Y-95987529D01*
X42161101Y-95838475D01*
X42244745Y-95674316D01*
X42301678Y-95499093D01*
X42330500Y-95317120D01*
X42330500Y-94682880D01*
X42330500Y-94682878D01*
X42330500Y-94682876D01*
X42311285Y-94561564D01*
X42301678Y-94500907D01*
X42244745Y-94325684D01*
X42164887Y-94168957D01*
X42155316Y-94108526D01*
X42183093Y-94054009D01*
X50557608Y-85679496D01*
X50612125Y-85651719D01*
X50627612Y-85650500D01*
X50859309Y-85650500D01*
X50949669Y-85626287D01*
X50949672Y-85626287D01*
X50962903Y-85622741D01*
X50973887Y-85619799D01*
X51076614Y-85560489D01*
X53269491Y-83367611D01*
X53324006Y-83339836D01*
X53384438Y-83349407D01*
X53427703Y-83392672D01*
X53435119Y-83411991D01*
X53440423Y-83431784D01*
X53519480Y-83568716D01*
X53586827Y-83636063D01*
X53614603Y-83690578D01*
X53605032Y-83751010D01*
X53586826Y-83776069D01*
X43787393Y-93575504D01*
X43732876Y-93603281D01*
X43717389Y-93604500D01*
X43607877Y-93604500D01*
X43425909Y-93633321D01*
X43250687Y-93690253D01*
X43086527Y-93773897D01*
X42937472Y-93882192D01*
X42807192Y-94012472D01*
X42698897Y-94161527D01*
X42615253Y-94325687D01*
X42558321Y-94500909D01*
X42529500Y-94682876D01*
X42529500Y-95317123D01*
X42558321Y-95499090D01*
X42615253Y-95674312D01*
X42615254Y-95674315D01*
X42615255Y-95674316D01*
X42698899Y-95838475D01*
X42807193Y-95987529D01*
X42937471Y-96117807D01*
X43086525Y-96226101D01*
X43250684Y-96309745D01*
X43425907Y-96366678D01*
X43496797Y-96377906D01*
X43607877Y-96395500D01*
X43607880Y-96395500D01*
X43792123Y-96395500D01*
X43883106Y-96381089D01*
X43974093Y-96366678D01*
X44149316Y-96309745D01*
X44313475Y-96226101D01*
X44462529Y-96117807D01*
X44592807Y-95987529D01*
X44701101Y-95838475D01*
X44784745Y-95674316D01*
X44841678Y-95499093D01*
X44870500Y-95317120D01*
X44870500Y-94682880D01*
X44870500Y-94682878D01*
X44870500Y-94682876D01*
X44851285Y-94561564D01*
X44841678Y-94500907D01*
X44784745Y-94325684D01*
X44701101Y-94161525D01*
X44655897Y-94099307D01*
X44636991Y-94041118D01*
X44655898Y-93982927D01*
X44665981Y-93971120D01*
X54157607Y-84479496D01*
X54212124Y-84451719D01*
X54227611Y-84450500D01*
X54673388Y-84450500D01*
X54731579Y-84469407D01*
X54767543Y-84518907D01*
X54767543Y-84580093D01*
X54743392Y-84619504D01*
X46839508Y-92523389D01*
X46839507Y-92523390D01*
X46780200Y-92626112D01*
X46780200Y-92626113D01*
X46780201Y-92626114D01*
X46750776Y-92735931D01*
X46749500Y-92740692D01*
X46749500Y-93573547D01*
X46730593Y-93631738D01*
X46681093Y-93667702D01*
X46619908Y-93667702D01*
X46514090Y-93633321D01*
X46332123Y-93604500D01*
X46332120Y-93604500D01*
X46147880Y-93604500D01*
X46147877Y-93604500D01*
X45965909Y-93633321D01*
X45790687Y-93690253D01*
X45626527Y-93773897D01*
X45477472Y-93882192D01*
X45347192Y-94012472D01*
X45238897Y-94161527D01*
X45155253Y-94325687D01*
X45098321Y-94500909D01*
X45069500Y-94682876D01*
X45069500Y-95317123D01*
X45098321Y-95499090D01*
X45155253Y-95674312D01*
X45155254Y-95674315D01*
X45155255Y-95674316D01*
X45238899Y-95838475D01*
X45347193Y-95987529D01*
X45477471Y-96117807D01*
X45626525Y-96226101D01*
X45790684Y-96309745D01*
X45965907Y-96366678D01*
X46036797Y-96377906D01*
X46147877Y-96395500D01*
X46147880Y-96395500D01*
X46332123Y-96395500D01*
X46423106Y-96381089D01*
X46514093Y-96366678D01*
X46689316Y-96309745D01*
X46853475Y-96226101D01*
X47002529Y-96117807D01*
X47132807Y-95987529D01*
X47241101Y-95838475D01*
X47324745Y-95674316D01*
X47381678Y-95499093D01*
X47410500Y-95317120D01*
X47410500Y-94867610D01*
X47429407Y-94809419D01*
X47439489Y-94797614D01*
X47440498Y-94796604D01*
X47495013Y-94768829D01*
X47555445Y-94778400D01*
X47598710Y-94821665D01*
X47609500Y-94866610D01*
X47609500Y-95317123D01*
X47638321Y-95499090D01*
X47695253Y-95674312D01*
X47695254Y-95674315D01*
X47695255Y-95674316D01*
X47778899Y-95838475D01*
X47887193Y-95987529D01*
X48017471Y-96117807D01*
X48166525Y-96226101D01*
X48330684Y-96309745D01*
X48505907Y-96366678D01*
X48576797Y-96377906D01*
X48687877Y-96395500D01*
X48687880Y-96395500D01*
X48872123Y-96395500D01*
X48963106Y-96381089D01*
X49054093Y-96366678D01*
X49229316Y-96309745D01*
X49393475Y-96226101D01*
X49542529Y-96117807D01*
X49672807Y-95987529D01*
X49781101Y-95838475D01*
X49864745Y-95674316D01*
X49921678Y-95499093D01*
X49950500Y-95317120D01*
X49950500Y-94727610D01*
X49969407Y-94669419D01*
X49979490Y-94657612D01*
X50525209Y-94111893D01*
X51829500Y-94111893D01*
X51829500Y-95888106D01*
X51840123Y-95976565D01*
X51895637Y-96117339D01*
X51895638Y-96117341D01*
X51895639Y-96117342D01*
X51987078Y-96237922D01*
X52107658Y-96329361D01*
X52107659Y-96329361D01*
X52107660Y-96329362D01*
X52178047Y-96357119D01*
X52248436Y-96384877D01*
X52336898Y-96395500D01*
X52336900Y-96395500D01*
X53663100Y-96395500D01*
X53663102Y-96395500D01*
X53751564Y-96384877D01*
X53892342Y-96329361D01*
X54012922Y-96237922D01*
X54104361Y-96117342D01*
X54159877Y-95976564D01*
X54170500Y-95888102D01*
X54170500Y-94682876D01*
X54369500Y-94682876D01*
X54369500Y-95317123D01*
X54398321Y-95499090D01*
X54455253Y-95674312D01*
X54455254Y-95674315D01*
X54455255Y-95674316D01*
X54538899Y-95838475D01*
X54647193Y-95987529D01*
X54777471Y-96117807D01*
X54926525Y-96226101D01*
X55090684Y-96309745D01*
X55265907Y-96366678D01*
X55336797Y-96377906D01*
X55447877Y-96395500D01*
X55447880Y-96395500D01*
X55632123Y-96395500D01*
X55723106Y-96381089D01*
X55814093Y-96366678D01*
X55989316Y-96309745D01*
X56153475Y-96226101D01*
X56302529Y-96117807D01*
X56432807Y-95987529D01*
X56541101Y-95838475D01*
X56624745Y-95674316D01*
X56681678Y-95499093D01*
X56710500Y-95317120D01*
X56710500Y-94682880D01*
X56710500Y-94682878D01*
X56710500Y-94682876D01*
X56691285Y-94561564D01*
X56681678Y-94500907D01*
X56624745Y-94325684D01*
X56541101Y-94161525D01*
X56432807Y-94012471D01*
X56302529Y-93882193D01*
X56153475Y-93773899D01*
X56153474Y-93773898D01*
X56153472Y-93773897D01*
X55989312Y-93690253D01*
X55814090Y-93633321D01*
X55632123Y-93604500D01*
X55632120Y-93604500D01*
X55447880Y-93604500D01*
X55447877Y-93604500D01*
X55265909Y-93633321D01*
X55090687Y-93690253D01*
X54926527Y-93773897D01*
X54777472Y-93882192D01*
X54647192Y-94012472D01*
X54538897Y-94161527D01*
X54455253Y-94325687D01*
X54398321Y-94500909D01*
X54369500Y-94682876D01*
X54170500Y-94682876D01*
X54170500Y-94111898D01*
X54159877Y-94023436D01*
X54104361Y-93882658D01*
X54012922Y-93762078D01*
X53892342Y-93670639D01*
X53892341Y-93670638D01*
X53892339Y-93670637D01*
X53751565Y-93615123D01*
X53663106Y-93604500D01*
X53663102Y-93604500D01*
X52336898Y-93604500D01*
X52336893Y-93604500D01*
X52248434Y-93615123D01*
X52107660Y-93670637D01*
X52107656Y-93670640D01*
X51987081Y-93762075D01*
X51987075Y-93762081D01*
X51895640Y-93882656D01*
X51895637Y-93882660D01*
X51840123Y-94023434D01*
X51829500Y-94111893D01*
X50525209Y-94111893D01*
X57380496Y-87256605D01*
X57435013Y-87228829D01*
X57495445Y-87238400D01*
X57538710Y-87281665D01*
X57549500Y-87326610D01*
X57549500Y-93670953D01*
X57530593Y-93729144D01*
X57495447Y-93759162D01*
X57466525Y-93773899D01*
X57317472Y-93882192D01*
X57187192Y-94012472D01*
X57078897Y-94161527D01*
X56995253Y-94325687D01*
X56938321Y-94500909D01*
X56909500Y-94682876D01*
X56909500Y-95317123D01*
X56938321Y-95499090D01*
X56995253Y-95674312D01*
X56995254Y-95674315D01*
X56995255Y-95674316D01*
X57078899Y-95838475D01*
X57187193Y-95987529D01*
X57317471Y-96117807D01*
X57466525Y-96226101D01*
X57630684Y-96309745D01*
X57805907Y-96366678D01*
X57876797Y-96377906D01*
X57987877Y-96395500D01*
X57987880Y-96395500D01*
X58172123Y-96395500D01*
X58263106Y-96381089D01*
X58354093Y-96366678D01*
X58529316Y-96309745D01*
X58693475Y-96226101D01*
X58842529Y-96117807D01*
X58972807Y-95987529D01*
X59081101Y-95838475D01*
X59164745Y-95674316D01*
X59221678Y-95499093D01*
X59250500Y-95317120D01*
X59250500Y-94682880D01*
X59250500Y-94682878D01*
X59250500Y-94682876D01*
X59231285Y-94561564D01*
X59221678Y-94500907D01*
X59164745Y-94325684D01*
X59081101Y-94161525D01*
X58972807Y-94012471D01*
X58842529Y-93882193D01*
X58693475Y-93773899D01*
X58693474Y-93773898D01*
X58693472Y-93773897D01*
X58529312Y-93690253D01*
X58518901Y-93686870D01*
X58469403Y-93650902D01*
X58450500Y-93592717D01*
X58450500Y-87427611D01*
X58469407Y-87369420D01*
X58479496Y-87357607D01*
X60468887Y-85368216D01*
X62469491Y-83367611D01*
X62524006Y-83339836D01*
X62584438Y-83349407D01*
X62627703Y-83392672D01*
X62635119Y-83411991D01*
X62640423Y-83431784D01*
X62719480Y-83568716D01*
X62831284Y-83680520D01*
X62968216Y-83759577D01*
X62988006Y-83764879D01*
X63039320Y-83798203D01*
X63061246Y-83855325D01*
X63045410Y-83914425D01*
X63032386Y-83930510D01*
X60439508Y-86523389D01*
X60439507Y-86523390D01*
X60380200Y-86626112D01*
X60380200Y-86626113D01*
X60380201Y-86626114D01*
X60349500Y-86740692D01*
X60349500Y-93560226D01*
X60330593Y-93618417D01*
X60281093Y-93654381D01*
X60170686Y-93690254D01*
X60006527Y-93773897D01*
X59857472Y-93882192D01*
X59727192Y-94012472D01*
X59618897Y-94161527D01*
X59535253Y-94325687D01*
X59478321Y-94500909D01*
X59449500Y-94682876D01*
X59449500Y-95317123D01*
X59478321Y-95499090D01*
X59535253Y-95674312D01*
X59535254Y-95674315D01*
X59535255Y-95674316D01*
X59618899Y-95838475D01*
X59727193Y-95987529D01*
X59857471Y-96117807D01*
X60006525Y-96226101D01*
X60170684Y-96309745D01*
X60345907Y-96366678D01*
X60416797Y-96377906D01*
X60527877Y-96395500D01*
X60527880Y-96395500D01*
X60712123Y-96395500D01*
X60803106Y-96381089D01*
X60894093Y-96366678D01*
X61069316Y-96309745D01*
X61233475Y-96226101D01*
X61382529Y-96117807D01*
X61512807Y-95987529D01*
X61621101Y-95838475D01*
X61704745Y-95674316D01*
X61761678Y-95499093D01*
X61790500Y-95317120D01*
X61790500Y-94682880D01*
X61790500Y-94682878D01*
X61790500Y-94682876D01*
X61989500Y-94682876D01*
X61989500Y-95317123D01*
X62018321Y-95499090D01*
X62075253Y-95674312D01*
X62075254Y-95674315D01*
X62075255Y-95674316D01*
X62158899Y-95838475D01*
X62267193Y-95987529D01*
X62397471Y-96117807D01*
X62546525Y-96226101D01*
X62710684Y-96309745D01*
X62885907Y-96366678D01*
X62956797Y-96377906D01*
X63067877Y-96395500D01*
X63067880Y-96395500D01*
X63252123Y-96395500D01*
X63343106Y-96381089D01*
X63434093Y-96366678D01*
X63609316Y-96309745D01*
X63773475Y-96226101D01*
X63922529Y-96117807D01*
X64052807Y-95987529D01*
X64161101Y-95838475D01*
X64244745Y-95674316D01*
X64301678Y-95499093D01*
X64330500Y-95317120D01*
X64330500Y-94682915D01*
X64530000Y-94682915D01*
X64530000Y-94799999D01*
X64530001Y-94800000D01*
X65137600Y-94800000D01*
X65105000Y-94921667D01*
X65105000Y-95078333D01*
X65137600Y-95200000D01*
X64530001Y-95200000D01*
X64530000Y-95200001D01*
X64530000Y-95317084D01*
X64558807Y-95498971D01*
X64615718Y-95674124D01*
X64699324Y-95838211D01*
X64807573Y-95987202D01*
X64937797Y-96117426D01*
X65086788Y-96225675D01*
X65250875Y-96309281D01*
X65426027Y-96366192D01*
X65499999Y-96377907D01*
X65500000Y-96377906D01*
X65500000Y-95562399D01*
X65621667Y-95595000D01*
X65778333Y-95595000D01*
X65900000Y-95562399D01*
X65900000Y-96377907D01*
X65973972Y-96366192D01*
X66149124Y-96309281D01*
X66313211Y-96225675D01*
X66462202Y-96117426D01*
X66592426Y-95987202D01*
X66700675Y-95838211D01*
X66784281Y-95674124D01*
X66841192Y-95498971D01*
X66870000Y-95317084D01*
X66870000Y-95200001D01*
X66869999Y-95200000D01*
X66262400Y-95200000D01*
X66295000Y-95078333D01*
X66295000Y-94921667D01*
X66262400Y-94800000D01*
X66869999Y-94800000D01*
X66870000Y-94799999D01*
X66870000Y-94682915D01*
X66841192Y-94501028D01*
X66784281Y-94325875D01*
X66700675Y-94161788D01*
X66592426Y-94012797D01*
X66462202Y-93882573D01*
X66313211Y-93774324D01*
X66149124Y-93690718D01*
X65973971Y-93633807D01*
X65900000Y-93622091D01*
X65900000Y-94437600D01*
X65778333Y-94405000D01*
X65621667Y-94405000D01*
X65500000Y-94437600D01*
X65500000Y-93622092D01*
X65499999Y-93622091D01*
X65426028Y-93633807D01*
X65250875Y-93690718D01*
X65086788Y-93774324D01*
X64937797Y-93882573D01*
X64807573Y-94012797D01*
X64699324Y-94161788D01*
X64615718Y-94325875D01*
X64558807Y-94501028D01*
X64530000Y-94682915D01*
X64330500Y-94682915D01*
X64330500Y-94682880D01*
X64330500Y-94682878D01*
X64330500Y-94682876D01*
X64311285Y-94561564D01*
X64301678Y-94500907D01*
X64244745Y-94325684D01*
X64161101Y-94161525D01*
X64052807Y-94012471D01*
X63922529Y-93882193D01*
X63773475Y-93773899D01*
X63773474Y-93773898D01*
X63773472Y-93773897D01*
X63609312Y-93690253D01*
X63434090Y-93633321D01*
X63252123Y-93604500D01*
X63252120Y-93604500D01*
X63067880Y-93604500D01*
X63067877Y-93604500D01*
X62885909Y-93633321D01*
X62710687Y-93690253D01*
X62546527Y-93773897D01*
X62397472Y-93882192D01*
X62267192Y-94012472D01*
X62158897Y-94161527D01*
X62075253Y-94325687D01*
X62018321Y-94500909D01*
X61989500Y-94682876D01*
X61790500Y-94682876D01*
X61771285Y-94561564D01*
X61761678Y-94500907D01*
X61704745Y-94325684D01*
X61621101Y-94161525D01*
X61512807Y-94012471D01*
X61382529Y-93882193D01*
X61382525Y-93882190D01*
X61382523Y-93882188D01*
X61291309Y-93815916D01*
X61255345Y-93766416D01*
X61250500Y-93735824D01*
X61250500Y-87027611D01*
X61269407Y-86969420D01*
X61279496Y-86957607D01*
X72026846Y-76210257D01*
X82841953Y-65395149D01*
X82896468Y-65367374D01*
X82956900Y-65376945D01*
X83000165Y-65420210D01*
X83009736Y-65480642D01*
X83007582Y-65490776D01*
X82999500Y-65520939D01*
X82999500Y-65522387D01*
X82999180Y-65523370D01*
X82998653Y-65527376D01*
X82997910Y-65527278D01*
X82980593Y-65580578D01*
X82970504Y-65592391D01*
X74839508Y-73723389D01*
X74839507Y-73723390D01*
X74780202Y-73826109D01*
X74780201Y-73826112D01*
X74773712Y-73850324D01*
X74773713Y-73850325D01*
X74749500Y-73940691D01*
X74749500Y-78360256D01*
X74730593Y-78418447D01*
X74720510Y-78430253D01*
X74719483Y-78431279D01*
X74719480Y-78431283D01*
X74719480Y-78431284D01*
X74640423Y-78568216D01*
X74599500Y-78720943D01*
X74599500Y-78879057D01*
X74640423Y-79031784D01*
X74719480Y-79168716D01*
X74831284Y-79280520D01*
X74968216Y-79359577D01*
X75120943Y-79400500D01*
X75120945Y-79400500D01*
X75279055Y-79400500D01*
X75279057Y-79400500D01*
X75431784Y-79359577D01*
X75550502Y-79291035D01*
X75610349Y-79278315D01*
X75649496Y-79291034D01*
X75768216Y-79359577D01*
X75920943Y-79400500D01*
X75920945Y-79400500D01*
X76079055Y-79400500D01*
X76079057Y-79400500D01*
X76231784Y-79359577D01*
X76368716Y-79280520D01*
X76480520Y-79168716D01*
X76559577Y-79031784D01*
X76600500Y-78879057D01*
X76600500Y-78720943D01*
X76559577Y-78568216D01*
X76480520Y-78431284D01*
X76480517Y-78431281D01*
X76480516Y-78431279D01*
X76479490Y-78430253D01*
X76479016Y-78429324D01*
X76476569Y-78426134D01*
X76477160Y-78425680D01*
X76451717Y-78375734D01*
X76450500Y-78360256D01*
X76450500Y-76839743D01*
X76469407Y-76781552D01*
X76479490Y-76769745D01*
X76480520Y-76768716D01*
X76559577Y-76631784D01*
X76600500Y-76479057D01*
X76600500Y-76320943D01*
X76559577Y-76168216D01*
X76480520Y-76031284D01*
X76368716Y-75919480D01*
X76231784Y-75840423D01*
X76079057Y-75799500D01*
X75920943Y-75799500D01*
X75831243Y-75823535D01*
X75775123Y-75838572D01*
X75714021Y-75835369D01*
X75666471Y-75796864D01*
X75650500Y-75742945D01*
X75650500Y-74227610D01*
X75669407Y-74169419D01*
X75679490Y-74157612D01*
X81380496Y-68456605D01*
X81435013Y-68428829D01*
X81495445Y-68438400D01*
X81538710Y-68481665D01*
X81549500Y-68526610D01*
X81549500Y-78360256D01*
X81530593Y-78418447D01*
X81520510Y-78430253D01*
X81519483Y-78431279D01*
X81519480Y-78431283D01*
X81519480Y-78431284D01*
X81440423Y-78568216D01*
X81399500Y-78720943D01*
X81399500Y-78879057D01*
X81440423Y-79031784D01*
X81519480Y-79168716D01*
X81631284Y-79280520D01*
X81768216Y-79359577D01*
X81920943Y-79400500D01*
X81920945Y-79400500D01*
X82079055Y-79400500D01*
X82079057Y-79400500D01*
X82231784Y-79359577D01*
X82350502Y-79291035D01*
X82410349Y-79278315D01*
X82449496Y-79291034D01*
X82568216Y-79359577D01*
X82680403Y-79389637D01*
X82731717Y-79422961D01*
X82753644Y-79480083D01*
X82737808Y-79539183D01*
X82724784Y-79555268D01*
X69894723Y-92385331D01*
X69894722Y-92385332D01*
X69868552Y-92424500D01*
X69823534Y-92491873D01*
X69774500Y-92610252D01*
X69774499Y-92610257D01*
X69749500Y-92735930D01*
X69749500Y-93547324D01*
X69730593Y-93605515D01*
X69686819Y-93639421D01*
X69607661Y-93670637D01*
X69607656Y-93670640D01*
X69487081Y-93762075D01*
X69487075Y-93762081D01*
X69395640Y-93882656D01*
X69395637Y-93882660D01*
X69340123Y-94023434D01*
X69329500Y-94111893D01*
X69329500Y-95888106D01*
X69340123Y-95976565D01*
X69395637Y-96117339D01*
X69395638Y-96117341D01*
X69395639Y-96117342D01*
X69487078Y-96237922D01*
X69607658Y-96329361D01*
X69607659Y-96329361D01*
X69607660Y-96329362D01*
X69678047Y-96357119D01*
X69748436Y-96384877D01*
X69836898Y-96395500D01*
X69836900Y-96395500D01*
X71163100Y-96395500D01*
X71163102Y-96395500D01*
X71251564Y-96384877D01*
X71392342Y-96329361D01*
X71512922Y-96237922D01*
X71604361Y-96117342D01*
X71659877Y-95976564D01*
X71670500Y-95888102D01*
X71670500Y-94682915D01*
X71870000Y-94682915D01*
X71870000Y-94799999D01*
X71870001Y-94800000D01*
X72477600Y-94800000D01*
X72445000Y-94921667D01*
X72445000Y-95078333D01*
X72477600Y-95200000D01*
X71870001Y-95200000D01*
X71870000Y-95200001D01*
X71870000Y-95317084D01*
X71898807Y-95498971D01*
X71955718Y-95674124D01*
X72039324Y-95838211D01*
X72147573Y-95987202D01*
X72277797Y-96117426D01*
X72426788Y-96225675D01*
X72590875Y-96309281D01*
X72766027Y-96366192D01*
X72839999Y-96377907D01*
X72840000Y-96377906D01*
X72840000Y-95562399D01*
X72961667Y-95595000D01*
X73118333Y-95595000D01*
X73240000Y-95562399D01*
X73240000Y-96377907D01*
X73313972Y-96366192D01*
X73489124Y-96309281D01*
X73653211Y-96225675D01*
X73802202Y-96117426D01*
X73932426Y-95987202D01*
X74040675Y-95838211D01*
X74124281Y-95674124D01*
X74181192Y-95498971D01*
X74210000Y-95317084D01*
X74210000Y-95200001D01*
X74209999Y-95200000D01*
X73602400Y-95200000D01*
X73635000Y-95078333D01*
X73635000Y-94921667D01*
X73602400Y-94800000D01*
X74209999Y-94800000D01*
X74210000Y-94799999D01*
X74210000Y-94682915D01*
X74209994Y-94682876D01*
X74409500Y-94682876D01*
X74409500Y-95317123D01*
X74438321Y-95499090D01*
X74495253Y-95674312D01*
X74495254Y-95674315D01*
X74495255Y-95674316D01*
X74578899Y-95838475D01*
X74687193Y-95987529D01*
X74817471Y-96117807D01*
X74966525Y-96226101D01*
X75130684Y-96309745D01*
X75305907Y-96366678D01*
X75376797Y-96377906D01*
X75487877Y-96395500D01*
X75487880Y-96395500D01*
X75672123Y-96395500D01*
X75763106Y-96381089D01*
X75854093Y-96366678D01*
X76029316Y-96309745D01*
X76193475Y-96226101D01*
X76342529Y-96117807D01*
X76472807Y-95987529D01*
X76581101Y-95838475D01*
X76664745Y-95674316D01*
X76721678Y-95499093D01*
X76750500Y-95317120D01*
X76750500Y-94682880D01*
X76750500Y-94682878D01*
X76750500Y-94682876D01*
X76731285Y-94561564D01*
X76721678Y-94500907D01*
X76664745Y-94325684D01*
X76581101Y-94161525D01*
X76472807Y-94012471D01*
X76342529Y-93882193D01*
X76193475Y-93773899D01*
X76193474Y-93773898D01*
X76193472Y-93773897D01*
X76029312Y-93690253D01*
X75854090Y-93633321D01*
X75672123Y-93604500D01*
X75672120Y-93604500D01*
X75487880Y-93604500D01*
X75487877Y-93604500D01*
X75305909Y-93633321D01*
X75130687Y-93690253D01*
X74966527Y-93773897D01*
X74817472Y-93882192D01*
X74687192Y-94012472D01*
X74578897Y-94161527D01*
X74495253Y-94325687D01*
X74438321Y-94500909D01*
X74409500Y-94682876D01*
X74209994Y-94682876D01*
X74181192Y-94501028D01*
X74124281Y-94325875D01*
X74040675Y-94161788D01*
X73932426Y-94012797D01*
X73802202Y-93882573D01*
X73653211Y-93774324D01*
X73489124Y-93690718D01*
X73313971Y-93633807D01*
X73240000Y-93622091D01*
X73240000Y-94437600D01*
X73118333Y-94405000D01*
X72961667Y-94405000D01*
X72840000Y-94437600D01*
X72840000Y-93622092D01*
X72839999Y-93622091D01*
X72766028Y-93633807D01*
X72590875Y-93690718D01*
X72426788Y-93774324D01*
X72277797Y-93882573D01*
X72147573Y-94012797D01*
X72039324Y-94161788D01*
X71955718Y-94325875D01*
X71898807Y-94501028D01*
X71870000Y-94682915D01*
X71670500Y-94682915D01*
X71670500Y-94111898D01*
X71659877Y-94023436D01*
X71604361Y-93882658D01*
X71512922Y-93762078D01*
X71392342Y-93670639D01*
X71392341Y-93670638D01*
X71392339Y-93670637D01*
X71251565Y-93615123D01*
X71163106Y-93604500D01*
X71163102Y-93604500D01*
X71149500Y-93604500D01*
X71091309Y-93585593D01*
X71055345Y-93536093D01*
X71050500Y-93505500D01*
X71050500Y-93110453D01*
X71069407Y-93052262D01*
X71079490Y-93040455D01*
X87305276Y-76814670D01*
X87376465Y-76708127D01*
X87425501Y-76589744D01*
X87450499Y-76464069D01*
X87450499Y-76335931D01*
X87450499Y-76335929D01*
X87450489Y-76335828D01*
X87450499Y-76335782D01*
X87450499Y-76331067D01*
X87451534Y-76331067D01*
X87463601Y-76276064D01*
X87509337Y-76235421D01*
X87570227Y-76229423D01*
X87619016Y-76256119D01*
X87920504Y-76557607D01*
X87948281Y-76612124D01*
X87949500Y-76627611D01*
X87949500Y-78360256D01*
X87930593Y-78418447D01*
X87920510Y-78430253D01*
X87919483Y-78431279D01*
X87919480Y-78431283D01*
X87919480Y-78431284D01*
X87840423Y-78568216D01*
X87799500Y-78720943D01*
X87799500Y-78879057D01*
X87840423Y-79031784D01*
X87919480Y-79168716D01*
X88031284Y-79280520D01*
X88168216Y-79359577D01*
X88320943Y-79400500D01*
X88320945Y-79400500D01*
X88479055Y-79400500D01*
X88479057Y-79400500D01*
X88631784Y-79359577D01*
X88768716Y-79280520D01*
X88880520Y-79168716D01*
X88959577Y-79031784D01*
X89000500Y-78879057D01*
X89000500Y-78720943D01*
X88959577Y-78568216D01*
X88880520Y-78431284D01*
X88880517Y-78431281D01*
X88880516Y-78431279D01*
X88879490Y-78430253D01*
X88879016Y-78429324D01*
X88876569Y-78426134D01*
X88877160Y-78425680D01*
X88851717Y-78375734D01*
X88850500Y-78360256D01*
X88850500Y-76491256D01*
X88869407Y-76433065D01*
X88918907Y-76397101D01*
X88980093Y-76397101D01*
X89019504Y-76421252D01*
X91370504Y-78772252D01*
X91398281Y-78826769D01*
X91399500Y-78842256D01*
X91399500Y-78879057D01*
X91440423Y-79031784D01*
X91519480Y-79168716D01*
X91631284Y-79280520D01*
X91768216Y-79359577D01*
X91920943Y-79400500D01*
X91920945Y-79400500D01*
X92079056Y-79400500D01*
X92079057Y-79400500D01*
X92109222Y-79392417D01*
X92170322Y-79395618D01*
X92217872Y-79434122D01*
X92233709Y-79493222D01*
X92211784Y-79550344D01*
X92204849Y-79558047D01*
X78839508Y-92923389D01*
X78839507Y-92923390D01*
X78780200Y-93026112D01*
X78780200Y-93026113D01*
X78780201Y-93026114D01*
X78749500Y-93140692D01*
X78749500Y-93620510D01*
X78730593Y-93678701D01*
X78681093Y-93714665D01*
X78619907Y-93714665D01*
X78605555Y-93708720D01*
X78569312Y-93690253D01*
X78394090Y-93633321D01*
X78212123Y-93604500D01*
X78212120Y-93604500D01*
X78027880Y-93604500D01*
X78027877Y-93604500D01*
X77845909Y-93633321D01*
X77670687Y-93690253D01*
X77506527Y-93773897D01*
X77357472Y-93882192D01*
X77227192Y-94012472D01*
X77118897Y-94161527D01*
X77035253Y-94325687D01*
X76978321Y-94500909D01*
X76949500Y-94682876D01*
X76949500Y-95317123D01*
X76978321Y-95499090D01*
X77035253Y-95674312D01*
X77035254Y-95674315D01*
X77035255Y-95674316D01*
X77118899Y-95838475D01*
X77227193Y-95987529D01*
X77357471Y-96117807D01*
X77506525Y-96226101D01*
X77670684Y-96309745D01*
X77845907Y-96366678D01*
X77916797Y-96377906D01*
X78027877Y-96395500D01*
X78027880Y-96395500D01*
X78212123Y-96395500D01*
X78303106Y-96381089D01*
X78394093Y-96366678D01*
X78569316Y-96309745D01*
X78733475Y-96226101D01*
X78882529Y-96117807D01*
X79012807Y-95987529D01*
X79121101Y-95838475D01*
X79204745Y-95674316D01*
X79261678Y-95499093D01*
X79290500Y-95317120D01*
X79290500Y-94682880D01*
X79290499Y-94682876D01*
X79286497Y-94657606D01*
X79279757Y-94615057D01*
X79289327Y-94554627D01*
X79307528Y-94529573D01*
X79337150Y-94499951D01*
X79391663Y-94472177D01*
X79452095Y-94481748D01*
X79495360Y-94525013D01*
X79504931Y-94585444D01*
X79489500Y-94682875D01*
X79489500Y-95317123D01*
X79518321Y-95499090D01*
X79575253Y-95674312D01*
X79575254Y-95674315D01*
X79575255Y-95674316D01*
X79658899Y-95838475D01*
X79767193Y-95987529D01*
X79897471Y-96117807D01*
X80046525Y-96226101D01*
X80210684Y-96309745D01*
X80385907Y-96366678D01*
X80456797Y-96377906D01*
X80567877Y-96395500D01*
X80567880Y-96395500D01*
X80752123Y-96395500D01*
X80843106Y-96381089D01*
X80934093Y-96366678D01*
X81109316Y-96309745D01*
X81273475Y-96226101D01*
X81422529Y-96117807D01*
X81552807Y-95987529D01*
X81661101Y-95838475D01*
X81744745Y-95674316D01*
X81801678Y-95499093D01*
X81830500Y-95317120D01*
X81830500Y-94682880D01*
X81830500Y-94682878D01*
X81830500Y-94682876D01*
X81811285Y-94561564D01*
X81801678Y-94500907D01*
X81744745Y-94325684D01*
X81661101Y-94161525D01*
X81552807Y-94012471D01*
X81422529Y-93882193D01*
X81273475Y-93773899D01*
X81273474Y-93773898D01*
X81273472Y-93773897D01*
X81109312Y-93690253D01*
X80934090Y-93633321D01*
X80752123Y-93604500D01*
X80752120Y-93604500D01*
X80567880Y-93604500D01*
X80567877Y-93604500D01*
X80385909Y-93633321D01*
X80210687Y-93690253D01*
X80046527Y-93773897D01*
X79977341Y-93824164D01*
X79897471Y-93882193D01*
X79819501Y-93960162D01*
X79764987Y-93987938D01*
X79704555Y-93978367D01*
X79661290Y-93935102D01*
X79650500Y-93890157D01*
X79650500Y-93427610D01*
X79669407Y-93369419D01*
X79679490Y-93357612D01*
X93160489Y-79876614D01*
X93189690Y-79826035D01*
X93219767Y-79773942D01*
X93219776Y-79773924D01*
X93219798Y-79773887D01*
X93219799Y-79773886D01*
X93250500Y-79659309D01*
X93250500Y-77291256D01*
X93269407Y-77233065D01*
X93318907Y-77197101D01*
X93380093Y-77197101D01*
X93419504Y-77221252D01*
X94970504Y-78772252D01*
X94998281Y-78826769D01*
X94999500Y-78842256D01*
X94999500Y-78879057D01*
X95040423Y-79031784D01*
X95119480Y-79168716D01*
X95231284Y-79280520D01*
X95368216Y-79359577D01*
X95520943Y-79400500D01*
X95520945Y-79400500D01*
X95679056Y-79400500D01*
X95679057Y-79400500D01*
X95709222Y-79392417D01*
X95770322Y-79395618D01*
X95817872Y-79434122D01*
X95833709Y-79493222D01*
X95811784Y-79550344D01*
X95804849Y-79558047D01*
X82839508Y-92523389D01*
X82839507Y-92523390D01*
X82780200Y-92626112D01*
X82780200Y-92626113D01*
X82780201Y-92626114D01*
X82750776Y-92735931D01*
X82749500Y-92740692D01*
X82749500Y-93630191D01*
X82730593Y-93688382D01*
X82695445Y-93718400D01*
X82586535Y-93773892D01*
X82586528Y-93773896D01*
X82437472Y-93882192D01*
X82307192Y-94012472D01*
X82198897Y-94161527D01*
X82115253Y-94325687D01*
X82058321Y-94500909D01*
X82029500Y-94682876D01*
X82029500Y-95317123D01*
X82058321Y-95499090D01*
X82115253Y-95674312D01*
X82115254Y-95674315D01*
X82115255Y-95674316D01*
X82198899Y-95838475D01*
X82307193Y-95987529D01*
X82437471Y-96117807D01*
X82586525Y-96226101D01*
X82750684Y-96309745D01*
X82925907Y-96366678D01*
X82996797Y-96377906D01*
X83107877Y-96395500D01*
X83107880Y-96395500D01*
X83292123Y-96395500D01*
X83383106Y-96381089D01*
X83474093Y-96366678D01*
X83649316Y-96309745D01*
X83813475Y-96226101D01*
X83962529Y-96117807D01*
X84092807Y-95987529D01*
X84201101Y-95838475D01*
X84284745Y-95674316D01*
X84341678Y-95499093D01*
X84370500Y-95317120D01*
X84370500Y-94682880D01*
X84370500Y-94682878D01*
X84370500Y-94682876D01*
X84569500Y-94682876D01*
X84569500Y-95317123D01*
X84598321Y-95499090D01*
X84655253Y-95674312D01*
X84655254Y-95674315D01*
X84655255Y-95674316D01*
X84738899Y-95838475D01*
X84847193Y-95987529D01*
X84977471Y-96117807D01*
X85126525Y-96226101D01*
X85290684Y-96309745D01*
X85465907Y-96366678D01*
X85536797Y-96377906D01*
X85647877Y-96395500D01*
X85647880Y-96395500D01*
X85832123Y-96395500D01*
X85923106Y-96381089D01*
X86014093Y-96366678D01*
X86189316Y-96309745D01*
X86353475Y-96226101D01*
X86502529Y-96117807D01*
X86632807Y-95987529D01*
X86741101Y-95838475D01*
X86824745Y-95674316D01*
X86881678Y-95499093D01*
X86910500Y-95317120D01*
X86910500Y-94682880D01*
X86910500Y-94682878D01*
X86910500Y-94682876D01*
X87109500Y-94682876D01*
X87109500Y-95317123D01*
X87138321Y-95499090D01*
X87195253Y-95674312D01*
X87195254Y-95674315D01*
X87195255Y-95674316D01*
X87278899Y-95838475D01*
X87387193Y-95987529D01*
X87517471Y-96117807D01*
X87666525Y-96226101D01*
X87830684Y-96309745D01*
X88005907Y-96366678D01*
X88076797Y-96377906D01*
X88187877Y-96395500D01*
X88187880Y-96395500D01*
X88372123Y-96395500D01*
X88463106Y-96381089D01*
X88554093Y-96366678D01*
X88729316Y-96309745D01*
X88804956Y-96271204D01*
X90880000Y-96271204D01*
X90880000Y-96449999D01*
X90880001Y-96450000D01*
X91380000Y-96450000D01*
X91380000Y-96850000D01*
X90880001Y-96850000D01*
X90880000Y-96850001D01*
X90880000Y-97028795D01*
X90910742Y-97183349D01*
X90971048Y-97328940D01*
X90971052Y-97328949D01*
X91058599Y-97459969D01*
X91058602Y-97459973D01*
X91170026Y-97571397D01*
X91170030Y-97571400D01*
X91301050Y-97658947D01*
X91301059Y-97658951D01*
X91446644Y-97719254D01*
X91446655Y-97719258D01*
X91480000Y-97725890D01*
X91480000Y-97174265D01*
X91495795Y-97190060D01*
X91564204Y-97229556D01*
X91640504Y-97250000D01*
X91719496Y-97250000D01*
X91795796Y-97229556D01*
X91864205Y-97190060D01*
X91880000Y-97174265D01*
X91880000Y-97725889D01*
X91913344Y-97719258D01*
X91913355Y-97719254D01*
X92058940Y-97658951D01*
X92058949Y-97658947D01*
X92189969Y-97571400D01*
X92189973Y-97571397D01*
X92301397Y-97459973D01*
X92301400Y-97459969D01*
X92388947Y-97328949D01*
X92388951Y-97328940D01*
X92449257Y-97183349D01*
X92479999Y-97028795D01*
X92480000Y-97028792D01*
X92480000Y-96850001D01*
X92479999Y-96850000D01*
X91980000Y-96850000D01*
X91980000Y-96450000D01*
X92479999Y-96450000D01*
X92480000Y-96449999D01*
X92480000Y-96271207D01*
X92479999Y-96271204D01*
X99520000Y-96271204D01*
X99520000Y-96449999D01*
X99520001Y-96450000D01*
X100020000Y-96450000D01*
X100020000Y-96850000D01*
X99520001Y-96850000D01*
X99520000Y-96850001D01*
X99520000Y-97028795D01*
X99550742Y-97183349D01*
X99611048Y-97328940D01*
X99611052Y-97328949D01*
X99698599Y-97459969D01*
X99698602Y-97459973D01*
X99810026Y-97571397D01*
X99810030Y-97571400D01*
X99941050Y-97658947D01*
X99941059Y-97658951D01*
X100086644Y-97719254D01*
X100086655Y-97719258D01*
X100120000Y-97725890D01*
X100120000Y-97174265D01*
X100135795Y-97190060D01*
X100204204Y-97229556D01*
X100280504Y-97250000D01*
X100359496Y-97250000D01*
X100435796Y-97229556D01*
X100504205Y-97190060D01*
X100520000Y-97174265D01*
X100520000Y-97725889D01*
X100553344Y-97719258D01*
X100553355Y-97719254D01*
X100698940Y-97658951D01*
X100698949Y-97658947D01*
X100829969Y-97571400D01*
X100829973Y-97571397D01*
X100941397Y-97459973D01*
X100941400Y-97459969D01*
X101028947Y-97328949D01*
X101028951Y-97328940D01*
X101089257Y-97183349D01*
X101119999Y-97028795D01*
X101120000Y-97028792D01*
X101120000Y-96850001D01*
X101119999Y-96850000D01*
X100620000Y-96850000D01*
X100620000Y-96450000D01*
X101119999Y-96450000D01*
X101120000Y-96449999D01*
X101120000Y-96271207D01*
X101119999Y-96271204D01*
X101089257Y-96116650D01*
X101028951Y-95971059D01*
X101028947Y-95971050D01*
X100941400Y-95840030D01*
X100941397Y-95840026D01*
X100829973Y-95728602D01*
X100829969Y-95728599D01*
X100698949Y-95641052D01*
X100698940Y-95641048D01*
X100553349Y-95580742D01*
X100520000Y-95574109D01*
X100520000Y-96125735D01*
X100504205Y-96109940D01*
X100435796Y-96070444D01*
X100359496Y-96050000D01*
X100280504Y-96050000D01*
X100204204Y-96070444D01*
X100135795Y-96109940D01*
X100120000Y-96125735D01*
X100120000Y-95574109D01*
X100086650Y-95580742D01*
X99941059Y-95641048D01*
X99941050Y-95641052D01*
X99810030Y-95728599D01*
X99810026Y-95728602D01*
X99698602Y-95840026D01*
X99698599Y-95840030D01*
X99611052Y-95971050D01*
X99611048Y-95971059D01*
X99550742Y-96116650D01*
X99520000Y-96271204D01*
X92479999Y-96271204D01*
X92449257Y-96116650D01*
X92388951Y-95971059D01*
X92388947Y-95971050D01*
X92301400Y-95840030D01*
X92301397Y-95840026D01*
X92189973Y-95728602D01*
X92189969Y-95728599D01*
X92058949Y-95641052D01*
X92058940Y-95641048D01*
X91913349Y-95580742D01*
X91880000Y-95574109D01*
X91880000Y-96125735D01*
X91864205Y-96109940D01*
X91795796Y-96070444D01*
X91719496Y-96050000D01*
X91640504Y-96050000D01*
X91564204Y-96070444D01*
X91495795Y-96109940D01*
X91480000Y-96125735D01*
X91480000Y-95574109D01*
X91446650Y-95580742D01*
X91301059Y-95641048D01*
X91301050Y-95641052D01*
X91170030Y-95728599D01*
X91170026Y-95728602D01*
X91058602Y-95840026D01*
X91058599Y-95840030D01*
X90971052Y-95971050D01*
X90971048Y-95971059D01*
X90910742Y-96116650D01*
X90880000Y-96271204D01*
X88804956Y-96271204D01*
X88893475Y-96226101D01*
X89042529Y-96117807D01*
X89172807Y-95987529D01*
X89281101Y-95838475D01*
X89364745Y-95674316D01*
X89421678Y-95499093D01*
X89450500Y-95317120D01*
X89450500Y-94682880D01*
X89450500Y-94682878D01*
X89450500Y-94682876D01*
X89431285Y-94561564D01*
X89421678Y-94500907D01*
X89364745Y-94325684D01*
X89281101Y-94161525D01*
X89172807Y-94012471D01*
X89042529Y-93882193D01*
X88893475Y-93773899D01*
X88893474Y-93773898D01*
X88893472Y-93773897D01*
X88729312Y-93690253D01*
X88554090Y-93633321D01*
X88372123Y-93604500D01*
X88372120Y-93604500D01*
X88187880Y-93604500D01*
X88187877Y-93604500D01*
X88005909Y-93633321D01*
X87830687Y-93690253D01*
X87666527Y-93773897D01*
X87517472Y-93882192D01*
X87387192Y-94012472D01*
X87278897Y-94161527D01*
X87195253Y-94325687D01*
X87138321Y-94500909D01*
X87109500Y-94682876D01*
X86910500Y-94682876D01*
X86891285Y-94561564D01*
X86881678Y-94500907D01*
X86824745Y-94325684D01*
X86741101Y-94161525D01*
X86632807Y-94012471D01*
X86502529Y-93882193D01*
X86353475Y-93773899D01*
X86353474Y-93773898D01*
X86353472Y-93773897D01*
X86189312Y-93690253D01*
X86014090Y-93633321D01*
X85832123Y-93604500D01*
X85832120Y-93604500D01*
X85647880Y-93604500D01*
X85647877Y-93604500D01*
X85465909Y-93633321D01*
X85290687Y-93690253D01*
X85126527Y-93773897D01*
X84977472Y-93882192D01*
X84847192Y-94012472D01*
X84738897Y-94161527D01*
X84655253Y-94325687D01*
X84598321Y-94500909D01*
X84569500Y-94682876D01*
X84370500Y-94682876D01*
X84351285Y-94561564D01*
X84341678Y-94500907D01*
X84284745Y-94325684D01*
X84201101Y-94161525D01*
X84092807Y-94012471D01*
X83962529Y-93882193D01*
X83834609Y-93789254D01*
X83813471Y-93773896D01*
X83813464Y-93773892D01*
X83704555Y-93718400D01*
X83661290Y-93675136D01*
X83650500Y-93630191D01*
X83650500Y-93027610D01*
X83669407Y-92969419D01*
X83679490Y-92957612D01*
X84795898Y-91841204D01*
X90880000Y-91841204D01*
X90880000Y-92269999D01*
X90880001Y-92270000D01*
X91380000Y-92270000D01*
X91380000Y-92670000D01*
X90880001Y-92670000D01*
X90880000Y-92670001D01*
X90880000Y-93098795D01*
X90910742Y-93253349D01*
X90971048Y-93398940D01*
X90971052Y-93398949D01*
X91058599Y-93529969D01*
X91058602Y-93529973D01*
X91170026Y-93641397D01*
X91170030Y-93641400D01*
X91301050Y-93728947D01*
X91301059Y-93728951D01*
X91446644Y-93789254D01*
X91446655Y-93789258D01*
X91480000Y-93795890D01*
X91480000Y-93244265D01*
X91495795Y-93260060D01*
X91564204Y-93299556D01*
X91640504Y-93320000D01*
X91719496Y-93320000D01*
X91795796Y-93299556D01*
X91864205Y-93260060D01*
X91880000Y-93244265D01*
X91880000Y-93795889D01*
X91913344Y-93789258D01*
X91913355Y-93789254D01*
X92058940Y-93728951D01*
X92058949Y-93728947D01*
X92189969Y-93641400D01*
X92189973Y-93641397D01*
X92301397Y-93529973D01*
X92301400Y-93529969D01*
X92388947Y-93398949D01*
X92388953Y-93398937D01*
X92431953Y-93295125D01*
X92471689Y-93248599D01*
X92531184Y-93234315D01*
X92587712Y-93257729D01*
X92609153Y-93283510D01*
X92649481Y-93353360D01*
X92649483Y-93353362D01*
X92649485Y-93353365D01*
X92756635Y-93460515D01*
X92756637Y-93460516D01*
X92756639Y-93460518D01*
X92887861Y-93536279D01*
X92887859Y-93536279D01*
X92887863Y-93536280D01*
X92887865Y-93536281D01*
X93034234Y-93575500D01*
X93034236Y-93575500D01*
X93185764Y-93575500D01*
X93185766Y-93575500D01*
X93332135Y-93536281D01*
X93332137Y-93536279D01*
X93332139Y-93536279D01*
X93463360Y-93460518D01*
X93463360Y-93460517D01*
X93463365Y-93460515D01*
X93570515Y-93353365D01*
X93570518Y-93353360D01*
X93646279Y-93222139D01*
X93646279Y-93222137D01*
X93646281Y-93222135D01*
X93685500Y-93075766D01*
X93685500Y-92924234D01*
X93646281Y-92777865D01*
X93646279Y-92777862D01*
X93646279Y-92777860D01*
X93570518Y-92646639D01*
X93570516Y-92646637D01*
X93570515Y-92646635D01*
X93463365Y-92539485D01*
X93463362Y-92539483D01*
X93463360Y-92539481D01*
X93332138Y-92463720D01*
X93332140Y-92463720D01*
X93275347Y-92448503D01*
X93185766Y-92424500D01*
X93034234Y-92424500D01*
X92944652Y-92448503D01*
X92887860Y-92463720D01*
X92756639Y-92539481D01*
X92649481Y-92646639D01*
X92643402Y-92657168D01*
X92597930Y-92698106D01*
X92537079Y-92704497D01*
X92487665Y-92677666D01*
X92479999Y-92670000D01*
X91980000Y-92670000D01*
X91980000Y-92270000D01*
X92479999Y-92270000D01*
X92480000Y-92269999D01*
X92480000Y-91841207D01*
X92479999Y-91841204D01*
X92449257Y-91686650D01*
X92388951Y-91541059D01*
X92388947Y-91541050D01*
X92301400Y-91410030D01*
X92301397Y-91410026D01*
X92189973Y-91298602D01*
X92189969Y-91298599D01*
X92058949Y-91211052D01*
X92058940Y-91211048D01*
X91913349Y-91150742D01*
X91880000Y-91144109D01*
X91880000Y-91695735D01*
X91864205Y-91679940D01*
X91795796Y-91640444D01*
X91719496Y-91620000D01*
X91640504Y-91620000D01*
X91564204Y-91640444D01*
X91495795Y-91679940D01*
X91480000Y-91695735D01*
X91480000Y-91144109D01*
X91446650Y-91150742D01*
X91301059Y-91211048D01*
X91301050Y-91211052D01*
X91170030Y-91298599D01*
X91170026Y-91298602D01*
X91058602Y-91410026D01*
X91058599Y-91410030D01*
X90971052Y-91541050D01*
X90971048Y-91541059D01*
X90910742Y-91686650D01*
X90880000Y-91841204D01*
X84795898Y-91841204D01*
X87116159Y-89520943D01*
X92199500Y-89520943D01*
X92199500Y-89679057D01*
X92240423Y-89831784D01*
X92319480Y-89968716D01*
X92431284Y-90080520D01*
X92568216Y-90159577D01*
X92720943Y-90200500D01*
X92720945Y-90200500D01*
X92879055Y-90200500D01*
X92879057Y-90200500D01*
X93031784Y-90159577D01*
X93168716Y-90080520D01*
X93181730Y-90067506D01*
X93194742Y-90054495D01*
X93249259Y-90026719D01*
X93264744Y-90025500D01*
X93935256Y-90025500D01*
X93993447Y-90044407D01*
X94005258Y-90054495D01*
X94029819Y-90079055D01*
X94031284Y-90080520D01*
X94168216Y-90159577D01*
X94320943Y-90200500D01*
X94320945Y-90200500D01*
X94479055Y-90200500D01*
X94479057Y-90200500D01*
X94631784Y-90159577D01*
X94768716Y-90080520D01*
X94880520Y-89968716D01*
X94914264Y-89910269D01*
X94959733Y-89869328D01*
X95020583Y-89862932D01*
X95073571Y-89893525D01*
X95085734Y-89910266D01*
X95119480Y-89968716D01*
X95231284Y-90080520D01*
X95368216Y-90159577D01*
X95520943Y-90200500D01*
X95520945Y-90200500D01*
X95679055Y-90200500D01*
X95679057Y-90200500D01*
X95831784Y-90159577D01*
X95968716Y-90080520D01*
X96080520Y-89968716D01*
X96114264Y-89910269D01*
X96159733Y-89869328D01*
X96220583Y-89862932D01*
X96273571Y-89893525D01*
X96285734Y-89910266D01*
X96319480Y-89968716D01*
X96431284Y-90080520D01*
X96568216Y-90159577D01*
X96720943Y-90200500D01*
X96720945Y-90200500D01*
X96879056Y-90200500D01*
X96879057Y-90200500D01*
X96929786Y-90186907D01*
X96990886Y-90190109D01*
X97038436Y-90228614D01*
X97041139Y-90233025D01*
X97119480Y-90368716D01*
X97145505Y-90394741D01*
X97173281Y-90449256D01*
X97174500Y-90464743D01*
X97174500Y-92335256D01*
X97155593Y-92393447D01*
X97145505Y-92405258D01*
X97119482Y-92431281D01*
X97119480Y-92431283D01*
X97119480Y-92431284D01*
X97040423Y-92568216D01*
X96999500Y-92720943D01*
X96999500Y-92879057D01*
X97040423Y-93031784D01*
X97119480Y-93168716D01*
X97231284Y-93280520D01*
X97368216Y-93359577D01*
X97520943Y-93400500D01*
X97520945Y-93400500D01*
X97679055Y-93400500D01*
X97679057Y-93400500D01*
X97831784Y-93359577D01*
X97968716Y-93280520D01*
X98080520Y-93168716D01*
X98137839Y-93069434D01*
X98183307Y-93028494D01*
X98244158Y-93022098D01*
X98297146Y-93052691D01*
X98319200Y-93093309D01*
X98339406Y-93168716D01*
X98353720Y-93222139D01*
X98429481Y-93353360D01*
X98429483Y-93353362D01*
X98429485Y-93353365D01*
X98536635Y-93460515D01*
X98536637Y-93460516D01*
X98536639Y-93460518D01*
X98667861Y-93536279D01*
X98667859Y-93536279D01*
X98667863Y-93536280D01*
X98667865Y-93536281D01*
X98814234Y-93575500D01*
X98814236Y-93575500D01*
X98965764Y-93575500D01*
X98965766Y-93575500D01*
X99112135Y-93536281D01*
X99112137Y-93536279D01*
X99112139Y-93536279D01*
X99243360Y-93460518D01*
X99243360Y-93460517D01*
X99243365Y-93460515D01*
X99350515Y-93353365D01*
X99390847Y-93283508D01*
X99436315Y-93242569D01*
X99497165Y-93236173D01*
X99550153Y-93266766D01*
X99568046Y-93295124D01*
X99611048Y-93398940D01*
X99611052Y-93398949D01*
X99698599Y-93529969D01*
X99698602Y-93529973D01*
X99810026Y-93641397D01*
X99810030Y-93641400D01*
X99941050Y-93728947D01*
X99941059Y-93728951D01*
X100086644Y-93789254D01*
X100086655Y-93789258D01*
X100120000Y-93795890D01*
X100120000Y-93244265D01*
X100135795Y-93260060D01*
X100204204Y-93299556D01*
X100280504Y-93320000D01*
X100359496Y-93320000D01*
X100435796Y-93299556D01*
X100504205Y-93260060D01*
X100520000Y-93244265D01*
X100520000Y-93795889D01*
X100553344Y-93789258D01*
X100553355Y-93789254D01*
X100698940Y-93728951D01*
X100698949Y-93728947D01*
X100829969Y-93641400D01*
X100829973Y-93641397D01*
X100941397Y-93529973D01*
X100941400Y-93529969D01*
X101028947Y-93398949D01*
X101028951Y-93398940D01*
X101089257Y-93253349D01*
X101119999Y-93098795D01*
X101120000Y-93098792D01*
X101120000Y-92670001D01*
X101119999Y-92670000D01*
X100620000Y-92670000D01*
X100620000Y-92270000D01*
X101119999Y-92270000D01*
X101120000Y-92269999D01*
X101120000Y-91841207D01*
X101119999Y-91841204D01*
X101089257Y-91686650D01*
X101028951Y-91541059D01*
X101028947Y-91541050D01*
X100941400Y-91410030D01*
X100941397Y-91410026D01*
X100829973Y-91298602D01*
X100829969Y-91298599D01*
X100698949Y-91211052D01*
X100698940Y-91211048D01*
X100553349Y-91150742D01*
X100520000Y-91144109D01*
X100520000Y-91695735D01*
X100504205Y-91679940D01*
X100435796Y-91640444D01*
X100359496Y-91620000D01*
X100280504Y-91620000D01*
X100204204Y-91640444D01*
X100135795Y-91679940D01*
X100120000Y-91695735D01*
X100120000Y-91144109D01*
X100086650Y-91150742D01*
X99941059Y-91211048D01*
X99941050Y-91211052D01*
X99810030Y-91298599D01*
X99810026Y-91298602D01*
X99698602Y-91410026D01*
X99698599Y-91410030D01*
X99611052Y-91541050D01*
X99611048Y-91541059D01*
X99550742Y-91686650D01*
X99520000Y-91841204D01*
X99520000Y-92269999D01*
X99520001Y-92270000D01*
X100020000Y-92270000D01*
X100020000Y-92670000D01*
X99520000Y-92670000D01*
X99512333Y-92677667D01*
X99457816Y-92705443D01*
X99397384Y-92695871D01*
X99356595Y-92657164D01*
X99350518Y-92646639D01*
X99350516Y-92646637D01*
X99350515Y-92646635D01*
X99243365Y-92539485D01*
X99243362Y-92539483D01*
X99243360Y-92539481D01*
X99112138Y-92463720D01*
X99112140Y-92463720D01*
X99055347Y-92448503D01*
X98965766Y-92424500D01*
X98814234Y-92424500D01*
X98724652Y-92448503D01*
X98667860Y-92463720D01*
X98536639Y-92539481D01*
X98429483Y-92646637D01*
X98378988Y-92734096D01*
X98333518Y-92775036D01*
X98272668Y-92781431D01*
X98219680Y-92750838D01*
X98197627Y-92710222D01*
X98159577Y-92568216D01*
X98080520Y-92431284D01*
X98073736Y-92424500D01*
X98054495Y-92405258D01*
X98026719Y-92350741D01*
X98025500Y-92335256D01*
X98025500Y-90464743D01*
X98044407Y-90406552D01*
X98054490Y-90394745D01*
X98080520Y-90368716D01*
X98159577Y-90231784D01*
X98200500Y-90079057D01*
X98200500Y-89920943D01*
X98159577Y-89768216D01*
X98080520Y-89631284D01*
X97968716Y-89519480D01*
X97831784Y-89440423D01*
X97679057Y-89399500D01*
X97520943Y-89399500D01*
X97520940Y-89399500D01*
X97470212Y-89413092D01*
X97409111Y-89409889D01*
X97361561Y-89371382D01*
X97358866Y-89366985D01*
X97280520Y-89231284D01*
X97280517Y-89231281D01*
X97254495Y-89205258D01*
X97226719Y-89150741D01*
X97225500Y-89135256D01*
X97225500Y-88464743D01*
X97244407Y-88406552D01*
X97254490Y-88394745D01*
X97280520Y-88368716D01*
X97359577Y-88231784D01*
X97400500Y-88079057D01*
X97400500Y-87920943D01*
X97359577Y-87768216D01*
X97280520Y-87631284D01*
X97168716Y-87519480D01*
X97031784Y-87440423D01*
X96879057Y-87399500D01*
X96720943Y-87399500D01*
X96568216Y-87440423D01*
X96431284Y-87519480D01*
X96319478Y-87631286D01*
X96285736Y-87689730D01*
X96240267Y-87730671D01*
X96179417Y-87737067D01*
X96126429Y-87706474D01*
X96114264Y-87689730D01*
X96080521Y-87631286D01*
X96080520Y-87631284D01*
X95968716Y-87519480D01*
X95831784Y-87440423D01*
X95679057Y-87399500D01*
X95679055Y-87399500D01*
X95642256Y-87399500D01*
X95584065Y-87380593D01*
X95572252Y-87370504D01*
X93829496Y-85627748D01*
X93801719Y-85573231D01*
X93800500Y-85557744D01*
X93800500Y-85520944D01*
X93800500Y-85520943D01*
X93759577Y-85368216D01*
X93680520Y-85231284D01*
X93568716Y-85119480D01*
X93431784Y-85040423D01*
X93279057Y-84999500D01*
X93120943Y-84999500D01*
X92968216Y-85040423D01*
X92831284Y-85119480D01*
X92719480Y-85231284D01*
X92640423Y-85368216D01*
X92599500Y-85520943D01*
X92599500Y-85679057D01*
X92640423Y-85831784D01*
X92719480Y-85968716D01*
X92831284Y-86080520D01*
X92968216Y-86159577D01*
X93120943Y-86200500D01*
X93157744Y-86200500D01*
X93215935Y-86219407D01*
X93227748Y-86229496D01*
X94970504Y-87972252D01*
X94998281Y-88026769D01*
X94999500Y-88042256D01*
X94999500Y-88079057D01*
X95040423Y-88231784D01*
X95119480Y-88368716D01*
X95145505Y-88394741D01*
X95173281Y-88449256D01*
X95174500Y-88464743D01*
X95174500Y-89135256D01*
X95155593Y-89193447D01*
X95145505Y-89205258D01*
X95119479Y-89231283D01*
X95085736Y-89289730D01*
X95040267Y-89330671D01*
X94979417Y-89337067D01*
X94926429Y-89306474D01*
X94914264Y-89289730D01*
X94880521Y-89231286D01*
X94880520Y-89231284D01*
X94768716Y-89119480D01*
X94631784Y-89040423D01*
X94479057Y-88999500D01*
X94320943Y-88999500D01*
X94168216Y-89040423D01*
X94031281Y-89119482D01*
X94005258Y-89145505D01*
X93950741Y-89173281D01*
X93935256Y-89174500D01*
X93264744Y-89174500D01*
X93206553Y-89155593D01*
X93194742Y-89145505D01*
X93168718Y-89119482D01*
X93168716Y-89119480D01*
X93031784Y-89040423D01*
X92879057Y-88999500D01*
X92720943Y-88999500D01*
X92568216Y-89040423D01*
X92431284Y-89119480D01*
X92319480Y-89231284D01*
X92240423Y-89368216D01*
X92199500Y-89520943D01*
X87116159Y-89520943D01*
X97960489Y-78676614D01*
X97989690Y-78626035D01*
X98019767Y-78573942D01*
X98019776Y-78573924D01*
X98019798Y-78573887D01*
X98019799Y-78573886D01*
X98050500Y-78459309D01*
X98050500Y-57057054D01*
X98069407Y-56998863D01*
X98118907Y-56962899D01*
X98175120Y-56961427D01*
X98320943Y-57000500D01*
X98322389Y-57000500D01*
X98323373Y-57000819D01*
X98327377Y-57001347D01*
X98327279Y-57002088D01*
X98380580Y-57019407D01*
X98392393Y-57029496D01*
X99120504Y-57757607D01*
X99148281Y-57812124D01*
X99149500Y-57827611D01*
X99149500Y-58059309D01*
X99173713Y-58149673D01*
X99173712Y-58149673D01*
X99180200Y-58173886D01*
X99180202Y-58173890D01*
X99239507Y-58276609D01*
X99239509Y-58276611D01*
X99239511Y-58276614D01*
X102170505Y-61207608D01*
X102198281Y-61262123D01*
X102199500Y-61277610D01*
X102199500Y-61279057D01*
X102240423Y-61431784D01*
X102319480Y-61568716D01*
X102431284Y-61680520D01*
X102568216Y-61759577D01*
X102720943Y-61800500D01*
X102720945Y-61800500D01*
X102879056Y-61800500D01*
X102879057Y-61800500D01*
X102909222Y-61792417D01*
X102970322Y-61795618D01*
X103017872Y-61834122D01*
X103033709Y-61893222D01*
X103011784Y-61950344D01*
X103004849Y-61958047D01*
X101592393Y-63370504D01*
X101537876Y-63398281D01*
X101522389Y-63399500D01*
X101520943Y-63399500D01*
X101368216Y-63440423D01*
X101231284Y-63519480D01*
X101119480Y-63631284D01*
X101040423Y-63768216D01*
X100999500Y-63920943D01*
X100999500Y-64079057D01*
X101040423Y-64231784D01*
X101119480Y-64368716D01*
X101231284Y-64480520D01*
X101368216Y-64559577D01*
X101520943Y-64600500D01*
X101520945Y-64600500D01*
X101679055Y-64600500D01*
X101679057Y-64600500D01*
X101831784Y-64559577D01*
X101968716Y-64480520D01*
X102080520Y-64368716D01*
X102159577Y-64231784D01*
X102200500Y-64079057D01*
X102200500Y-64077610D01*
X102200820Y-64076624D01*
X102201347Y-64072623D01*
X102202088Y-64072720D01*
X102219407Y-64019419D01*
X102229490Y-64007612D01*
X102330209Y-63906893D01*
X112399500Y-63906893D01*
X112399500Y-66093106D01*
X112410123Y-66181565D01*
X112465637Y-66322339D01*
X112465638Y-66322341D01*
X112465639Y-66322342D01*
X112557078Y-66442922D01*
X112677658Y-66534361D01*
X112677659Y-66534361D01*
X112677660Y-66534362D01*
X112748047Y-66562119D01*
X112818436Y-66589877D01*
X112906898Y-66600500D01*
X112906900Y-66600500D01*
X115093100Y-66600500D01*
X115093102Y-66600500D01*
X115181564Y-66589877D01*
X115322342Y-66534361D01*
X115442922Y-66442922D01*
X115534361Y-66322342D01*
X115589877Y-66181564D01*
X115600500Y-66093102D01*
X115600500Y-63906898D01*
X115589877Y-63818436D01*
X115534361Y-63677658D01*
X115442922Y-63557078D01*
X115322342Y-63465639D01*
X115322341Y-63465638D01*
X115322339Y-63465637D01*
X115181565Y-63410123D01*
X115093106Y-63399500D01*
X115093102Y-63399500D01*
X112906898Y-63399500D01*
X112906893Y-63399500D01*
X112818434Y-63410123D01*
X112677660Y-63465637D01*
X112677656Y-63465640D01*
X112557081Y-63557075D01*
X112557075Y-63557081D01*
X112465640Y-63677656D01*
X112465637Y-63677660D01*
X112410123Y-63818434D01*
X112399500Y-63906893D01*
X102330209Y-63906893D01*
X103960489Y-62276614D01*
X104019799Y-62173887D01*
X104022741Y-62162903D01*
X104026287Y-62149672D01*
X104026287Y-62149669D01*
X104050500Y-62059309D01*
X104050500Y-59794073D01*
X112400000Y-59794073D01*
X112400000Y-60045926D01*
X112439395Y-60294663D01*
X112517221Y-60534187D01*
X112631556Y-60758582D01*
X112631560Y-60758588D01*
X112735503Y-60901652D01*
X113419668Y-60217486D01*
X113423978Y-60227890D01*
X113495112Y-60334351D01*
X113585649Y-60424888D01*
X113692110Y-60496022D01*
X113702510Y-60500330D01*
X113018346Y-61184494D01*
X113018346Y-61184495D01*
X113161411Y-61288439D01*
X113161417Y-61288443D01*
X113385812Y-61402778D01*
X113625336Y-61480604D01*
X113874074Y-61520000D01*
X114125926Y-61520000D01*
X114374663Y-61480604D01*
X114614187Y-61402778D01*
X114838582Y-61288443D01*
X114838587Y-61288439D01*
X114981652Y-61184495D01*
X114981652Y-61184494D01*
X114297488Y-60500330D01*
X114307890Y-60496022D01*
X114414351Y-60424888D01*
X114504888Y-60334351D01*
X114576022Y-60227890D01*
X114580330Y-60217488D01*
X115264494Y-60901652D01*
X115264495Y-60901652D01*
X115368439Y-60758587D01*
X115368443Y-60758582D01*
X115482778Y-60534187D01*
X115560604Y-60294663D01*
X115600000Y-60045926D01*
X115600000Y-59794073D01*
X115560604Y-59545336D01*
X115482778Y-59305812D01*
X115368443Y-59081417D01*
X115368439Y-59081411D01*
X115264495Y-58938346D01*
X115264494Y-58938346D01*
X114580330Y-59622510D01*
X114576022Y-59612110D01*
X114504888Y-59505649D01*
X114414351Y-59415112D01*
X114307890Y-59343978D01*
X114297486Y-59339668D01*
X114981652Y-58655503D01*
X114838588Y-58551560D01*
X114838582Y-58551556D01*
X114614187Y-58437221D01*
X114374663Y-58359395D01*
X114125926Y-58320000D01*
X113874074Y-58320000D01*
X113625336Y-58359395D01*
X113385812Y-58437221D01*
X113161419Y-58551555D01*
X113018347Y-58655504D01*
X113702512Y-59339669D01*
X113692110Y-59343978D01*
X113585649Y-59415112D01*
X113495112Y-59505649D01*
X113423978Y-59612110D01*
X113419669Y-59622512D01*
X112735504Y-58938347D01*
X112631555Y-59081419D01*
X112517221Y-59305812D01*
X112439395Y-59545336D01*
X112400000Y-59794073D01*
X104050500Y-59794073D01*
X104050500Y-52340691D01*
X104019799Y-52226114D01*
X104019799Y-52226113D01*
X103960490Y-52123386D01*
X100195149Y-48358046D01*
X100167373Y-48303530D01*
X100176944Y-48243098D01*
X100220209Y-48199833D01*
X100280641Y-48190262D01*
X100290772Y-48192415D01*
X100320943Y-48200500D01*
X100320944Y-48200500D01*
X100479055Y-48200500D01*
X100479057Y-48200500D01*
X100631784Y-48159577D01*
X100768716Y-48080520D01*
X100769741Y-48079494D01*
X100770668Y-48079022D01*
X100773866Y-48076569D01*
X100774320Y-48077161D01*
X100824256Y-48051719D01*
X100839743Y-48050500D01*
X102360257Y-48050500D01*
X102418448Y-48069407D01*
X102430254Y-48079490D01*
X102431284Y-48080520D01*
X102568216Y-48159577D01*
X102720943Y-48200500D01*
X102720945Y-48200500D01*
X102879055Y-48200500D01*
X102879057Y-48200500D01*
X103031784Y-48159577D01*
X103168716Y-48080520D01*
X103280520Y-47968716D01*
X103359577Y-47831784D01*
X103400500Y-47679057D01*
X103400500Y-47520943D01*
X103359577Y-47368216D01*
X103280520Y-47231284D01*
X103168716Y-47119480D01*
X103031784Y-47040423D01*
X102879057Y-46999500D01*
X102720943Y-46999500D01*
X102568216Y-47040423D01*
X102431284Y-47119480D01*
X102430258Y-47120505D01*
X102429331Y-47120977D01*
X102426134Y-47123431D01*
X102425679Y-47122838D01*
X102375744Y-47148281D01*
X102360257Y-47149500D01*
X100839743Y-47149500D01*
X100781552Y-47130593D01*
X100769745Y-47120509D01*
X100768716Y-47119480D01*
X100631784Y-47040423D01*
X100479057Y-46999500D01*
X100320943Y-46999500D01*
X100187078Y-47035369D01*
X100168216Y-47040423D01*
X100031284Y-47119480D01*
X99919478Y-47231286D01*
X99885736Y-47289730D01*
X99840267Y-47330671D01*
X99779417Y-47337067D01*
X99726429Y-47306474D01*
X99714264Y-47289730D01*
X99680521Y-47231286D01*
X99680520Y-47231284D01*
X99568716Y-47119480D01*
X99431784Y-47040423D01*
X99279057Y-46999500D01*
X99120943Y-46999500D01*
X98968216Y-47040423D01*
X98831284Y-47119480D01*
X98719480Y-47231284D01*
X98640423Y-47368216D01*
X98599500Y-47520943D01*
X98599500Y-47679057D01*
X98640423Y-47831784D01*
X98719480Y-47968716D01*
X98720505Y-47969741D01*
X98720977Y-47970668D01*
X98723431Y-47973866D01*
X98722838Y-47974320D01*
X98748281Y-48024256D01*
X98749500Y-48039743D01*
X98749500Y-48059308D01*
X98766668Y-48123383D01*
X98766669Y-48123385D01*
X98766670Y-48123387D01*
X98780201Y-48173887D01*
X98780202Y-48173889D01*
X98780203Y-48173892D01*
X98839507Y-48276609D01*
X98839509Y-48276611D01*
X98839511Y-48276614D01*
X103120505Y-52557608D01*
X103148281Y-52612123D01*
X103149500Y-52627610D01*
X103149500Y-55342945D01*
X103130593Y-55401136D01*
X103081093Y-55437100D01*
X103024877Y-55438572D01*
X102966962Y-55423054D01*
X102879057Y-55399500D01*
X102879055Y-55399500D01*
X102877611Y-55399500D01*
X102876626Y-55399180D01*
X102872623Y-55398653D01*
X102872720Y-55397911D01*
X102819420Y-55380593D01*
X102807607Y-55370504D01*
X101343996Y-53906893D01*
X99876614Y-52439511D01*
X99876611Y-52439509D01*
X99876610Y-52439508D01*
X99876609Y-52439507D01*
X99773890Y-52380202D01*
X99773886Y-52380200D01*
X99749673Y-52373712D01*
X99749673Y-52373713D01*
X99659309Y-52349500D01*
X99659307Y-52349500D01*
X89070976Y-52349500D01*
X89012785Y-52330593D01*
X88976821Y-52281093D01*
X88976821Y-52219907D01*
X89012785Y-52170407D01*
X89026204Y-52162891D01*
X89026164Y-52162821D01*
X89031781Y-52159577D01*
X89031784Y-52159577D01*
X89168716Y-52080520D01*
X89280520Y-51968716D01*
X89359577Y-51831784D01*
X89400500Y-51679057D01*
X89400500Y-51677611D01*
X89400819Y-51676626D01*
X89401347Y-51672623D01*
X89402088Y-51672720D01*
X89419407Y-51619420D01*
X89429496Y-51607607D01*
X93207608Y-47829496D01*
X93262125Y-47801719D01*
X93277612Y-47800500D01*
X93279055Y-47800500D01*
X93279057Y-47800500D01*
X93431784Y-47759577D01*
X93568716Y-47680520D01*
X93680520Y-47568716D01*
X93759577Y-47431784D01*
X93800500Y-47279057D01*
X93800500Y-47120943D01*
X93759577Y-46968216D01*
X93680520Y-46831284D01*
X93568716Y-46719480D01*
X93431784Y-46640423D01*
X93279057Y-46599500D01*
X93120943Y-46599500D01*
X93090776Y-46607582D01*
X93029676Y-46604380D01*
X92982126Y-46565875D01*
X92966291Y-46506774D01*
X92988218Y-46449653D01*
X92995151Y-46441952D01*
X94366129Y-45070975D01*
X100007608Y-39429496D01*
X100062125Y-39401719D01*
X100077612Y-39400500D01*
X100079055Y-39400500D01*
X100079057Y-39400500D01*
X100231784Y-39359577D01*
X100368716Y-39280520D01*
X100480520Y-39168716D01*
X100559577Y-39031784D01*
X100600500Y-38879057D01*
X100600500Y-38720943D01*
X100559577Y-38568216D01*
X100480520Y-38431284D01*
X100368716Y-38319480D01*
X100231784Y-38240423D01*
X100079057Y-38199500D01*
X99920943Y-38199500D01*
X99768216Y-38240423D01*
X99631284Y-38319480D01*
X99519480Y-38431284D01*
X99440423Y-38568216D01*
X99403767Y-38705021D01*
X99399500Y-38720944D01*
X99399500Y-38722388D01*
X99399180Y-38723371D01*
X99398653Y-38727377D01*
X99397910Y-38727279D01*
X99380593Y-38780579D01*
X99370504Y-38792392D01*
X87992393Y-50170504D01*
X87937876Y-50198281D01*
X87922389Y-50199500D01*
X87920943Y-50199500D01*
X87824975Y-50225214D01*
X87775123Y-50238572D01*
X87714021Y-50235369D01*
X87666471Y-50196864D01*
X87650500Y-50142945D01*
X87650500Y-48039743D01*
X87669407Y-47981552D01*
X87679490Y-47969745D01*
X87680520Y-47968716D01*
X87759577Y-47831784D01*
X87800500Y-47679057D01*
X87800500Y-47520943D01*
X87759577Y-47368216D01*
X87680520Y-47231284D01*
X87568716Y-47119480D01*
X87431784Y-47040423D01*
X87279057Y-46999500D01*
X87120943Y-46999500D01*
X87120942Y-46999500D01*
X87114511Y-47000347D01*
X87114307Y-46998801D01*
X87060934Y-46995999D01*
X87013388Y-46957490D01*
X86997557Y-46898388D01*
X86999904Y-46883577D01*
X87000500Y-46879056D01*
X87000500Y-46720944D01*
X86993072Y-46693222D01*
X86959577Y-46568216D01*
X86880520Y-46431284D01*
X86768716Y-46319480D01*
X86631784Y-46240423D01*
X86479057Y-46199500D01*
X86320943Y-46199500D01*
X86168216Y-46240423D01*
X86031284Y-46319480D01*
X85919480Y-46431284D01*
X85840423Y-46568216D01*
X85799500Y-46720943D01*
X85799500Y-46879057D01*
X85840423Y-47031784D01*
X85919480Y-47168716D01*
X85920505Y-47169741D01*
X85920977Y-47170668D01*
X85923431Y-47173866D01*
X85922838Y-47174320D01*
X85948281Y-47224256D01*
X85949500Y-47239743D01*
X85949500Y-52172388D01*
X85930593Y-52230579D01*
X85920504Y-52242392D01*
X82758048Y-55404848D01*
X82703531Y-55432625D01*
X82643099Y-55423054D01*
X82599834Y-55379789D01*
X82590263Y-55319357D01*
X82592414Y-55309231D01*
X82600500Y-55279057D01*
X82600500Y-55120943D01*
X82559577Y-54968216D01*
X82480520Y-54831284D01*
X82368716Y-54719480D01*
X82231784Y-54640423D01*
X82079057Y-54599500D01*
X81920943Y-54599500D01*
X81903967Y-54604048D01*
X81890776Y-54607583D01*
X81829674Y-54604380D01*
X81782125Y-54565874D01*
X81766290Y-54506774D01*
X81788217Y-54449652D01*
X81795140Y-54441962D01*
X82807607Y-53429496D01*
X82862124Y-53401719D01*
X82877611Y-53400500D01*
X82879055Y-53400500D01*
X82879057Y-53400500D01*
X83031784Y-53359577D01*
X83168716Y-53280520D01*
X83280520Y-53168716D01*
X83359577Y-53031784D01*
X83400500Y-52879057D01*
X83400500Y-52720943D01*
X83359577Y-52568216D01*
X83280520Y-52431284D01*
X83168716Y-52319480D01*
X83031784Y-52240423D01*
X82879057Y-52199500D01*
X82720943Y-52199500D01*
X82568216Y-52240423D01*
X82431284Y-52319480D01*
X82319480Y-52431284D01*
X82240423Y-52568216D01*
X82224509Y-52627610D01*
X82199500Y-52720944D01*
X82199500Y-52722389D01*
X82199180Y-52723373D01*
X82198653Y-52727377D01*
X82197911Y-52727279D01*
X82180593Y-52780580D01*
X82170504Y-52792393D01*
X52839507Y-82123390D01*
X52780200Y-82226112D01*
X52780200Y-82226113D01*
X52780201Y-82226114D01*
X52753068Y-82327377D01*
X52749500Y-82340692D01*
X52749500Y-82572389D01*
X52730593Y-82630580D01*
X52720504Y-82642393D01*
X50758047Y-84604849D01*
X50703530Y-84632626D01*
X50643098Y-84623055D01*
X50599833Y-84579790D01*
X50590262Y-84519358D01*
X50592413Y-84509235D01*
X50600500Y-84479057D01*
X50600500Y-84320943D01*
X50559577Y-84168216D01*
X50559576Y-84168214D01*
X50559575Y-84168210D01*
X50558036Y-84164495D01*
X50550500Y-84126610D01*
X50550500Y-82327525D01*
X50548736Y-82320943D01*
X50512984Y-82187515D01*
X50512982Y-82187512D01*
X50512982Y-82187510D01*
X50440512Y-82061989D01*
X50440508Y-82061984D01*
X50338015Y-81959490D01*
X50338015Y-81959491D01*
X46865902Y-78487377D01*
X46838125Y-78432860D01*
X46841751Y-78386785D01*
X46868477Y-78304534D01*
X46868478Y-78304529D01*
X46900500Y-78102355D01*
X46900500Y-77897644D01*
X46868478Y-77695470D01*
X46847623Y-77631284D01*
X46805220Y-77500781D01*
X46712287Y-77318390D01*
X46712285Y-77318386D01*
X46591970Y-77152786D01*
X46591968Y-77152784D01*
X46591966Y-77152781D01*
X46447219Y-77008034D01*
X46447215Y-77008031D01*
X46447213Y-77008029D01*
X46281613Y-76887714D01*
X46281609Y-76887712D01*
X46099219Y-76794780D01*
X45904529Y-76731521D01*
X45702355Y-76699500D01*
X45702352Y-76699500D01*
X45497648Y-76699500D01*
X45497645Y-76699500D01*
X45295470Y-76731521D01*
X45100780Y-76794780D01*
X44918390Y-76887712D01*
X44918386Y-76887714D01*
X44752786Y-77008029D01*
X44608029Y-77152786D01*
X44487714Y-77318386D01*
X44487712Y-77318390D01*
X44394780Y-77500780D01*
X44331521Y-77695470D01*
X44299500Y-77897644D01*
X44299500Y-78102355D01*
X44331521Y-78304529D01*
X44394780Y-78499219D01*
X44487712Y-78681609D01*
X44487714Y-78681613D01*
X44608029Y-78847213D01*
X44608031Y-78847215D01*
X44608034Y-78847219D01*
X44752781Y-78991966D01*
X44752784Y-78991968D01*
X44752786Y-78991970D01*
X44918386Y-79112285D01*
X44918390Y-79112287D01*
X45100781Y-79205220D01*
X45295466Y-79268477D01*
X45295467Y-79268477D01*
X45295470Y-79268478D01*
X45497645Y-79300500D01*
X45497648Y-79300500D01*
X45702355Y-79300500D01*
X45904529Y-79268478D01*
X45904530Y-79268477D01*
X45904534Y-79268477D01*
X45986783Y-79241751D01*
X46047964Y-79241751D01*
X46087377Y-79265902D01*
X49420504Y-82599028D01*
X49448281Y-82653545D01*
X49449500Y-82669032D01*
X49449500Y-84126610D01*
X49441964Y-84164495D01*
X49440424Y-84168210D01*
X49412022Y-84274206D01*
X49399500Y-84320943D01*
X49399500Y-84479057D01*
X49440423Y-84631784D01*
X49519480Y-84768716D01*
X49631284Y-84880520D01*
X49768216Y-84959577D01*
X49788006Y-84964879D01*
X49839317Y-84998200D01*
X49861246Y-85055320D01*
X49845412Y-85114421D01*
X49832386Y-85130509D01*
X41379533Y-93583362D01*
X41325016Y-93611139D01*
X41294043Y-93611139D01*
X41252124Y-93604500D01*
X41252120Y-93604500D01*
X41067880Y-93604500D01*
X41067877Y-93604500D01*
X40885909Y-93633321D01*
X40710687Y-93690253D01*
X40546527Y-93773897D01*
X40397472Y-93882192D01*
X40267192Y-94012472D01*
X40158897Y-94161527D01*
X40075253Y-94325687D01*
X40018321Y-94500909D01*
X39989500Y-94682876D01*
X39790500Y-94682876D01*
X39771285Y-94561564D01*
X39761678Y-94500907D01*
X39704745Y-94325684D01*
X39621101Y-94161525D01*
X39512807Y-94012471D01*
X39382529Y-93882193D01*
X39233475Y-93773899D01*
X39233474Y-93773898D01*
X39233472Y-93773897D01*
X39069312Y-93690253D01*
X38894090Y-93633321D01*
X38712123Y-93604500D01*
X38712120Y-93604500D01*
X38527880Y-93604500D01*
X38527877Y-93604500D01*
X38345909Y-93633321D01*
X38170687Y-93690253D01*
X38006527Y-93773897D01*
X37857472Y-93882192D01*
X37727192Y-94012472D01*
X37618897Y-94161527D01*
X37535253Y-94325687D01*
X37478321Y-94500909D01*
X37449500Y-94682876D01*
X37250500Y-94682876D01*
X37231285Y-94561564D01*
X37221678Y-94500907D01*
X37164745Y-94325684D01*
X37081101Y-94161525D01*
X36972807Y-94012471D01*
X36842529Y-93882193D01*
X36693475Y-93773899D01*
X36693474Y-93773898D01*
X36693472Y-93773897D01*
X36529312Y-93690253D01*
X36518901Y-93686870D01*
X36469403Y-93650902D01*
X36450500Y-93592717D01*
X36450500Y-90627611D01*
X36469407Y-90569420D01*
X36479496Y-90557607D01*
X44007607Y-83029496D01*
X44062124Y-83001719D01*
X44077611Y-83000500D01*
X44079055Y-83000500D01*
X44079057Y-83000500D01*
X44231784Y-82959577D01*
X44368716Y-82880520D01*
X44480520Y-82768716D01*
X44559577Y-82631784D01*
X44600500Y-82479057D01*
X44600500Y-82320943D01*
X44559577Y-82168216D01*
X44480520Y-82031284D01*
X44368716Y-81919480D01*
X44231784Y-81840423D01*
X44079057Y-81799500D01*
X43920943Y-81799500D01*
X43768216Y-81840423D01*
X43631284Y-81919480D01*
X43519480Y-82031284D01*
X43440423Y-82168216D01*
X43399500Y-82320944D01*
X43399500Y-82322389D01*
X43399180Y-82323373D01*
X43398653Y-82327377D01*
X43397911Y-82327279D01*
X43380593Y-82380580D01*
X43370504Y-82392393D01*
X35639507Y-90123390D01*
X35580200Y-90226112D01*
X35580200Y-90226113D01*
X35580201Y-90226114D01*
X35549500Y-90340692D01*
X35549500Y-93670953D01*
X35530593Y-93729144D01*
X35495447Y-93759162D01*
X35466525Y-93773899D01*
X35317472Y-93882192D01*
X35187192Y-94012472D01*
X35078897Y-94161527D01*
X34995253Y-94325687D01*
X34938321Y-94500909D01*
X34909500Y-94682876D01*
X34709994Y-94682876D01*
X34681192Y-94501028D01*
X34624281Y-94325875D01*
X34540675Y-94161788D01*
X34432426Y-94012797D01*
X34302202Y-93882573D01*
X34153211Y-93774324D01*
X33989124Y-93690718D01*
X33813971Y-93633807D01*
X33740000Y-93622091D01*
X33740000Y-94437600D01*
X33618333Y-94405000D01*
X33461667Y-94405000D01*
X33340000Y-94437600D01*
X33340000Y-93622092D01*
X33339999Y-93622091D01*
X33266028Y-93633807D01*
X33090875Y-93690718D01*
X32926788Y-93774324D01*
X32777797Y-93882573D01*
X32647573Y-94012797D01*
X32539324Y-94161788D01*
X32455718Y-94325875D01*
X32398807Y-94501028D01*
X32370000Y-94682915D01*
X32170500Y-94682915D01*
X32170500Y-94111898D01*
X32159877Y-94023436D01*
X32104361Y-93882658D01*
X32012922Y-93762078D01*
X31892342Y-93670639D01*
X31892341Y-93670638D01*
X31892339Y-93670637D01*
X31751565Y-93615123D01*
X31663106Y-93604500D01*
X31663102Y-93604500D01*
X30336898Y-93604500D01*
X30336893Y-93604500D01*
X30248434Y-93615123D01*
X30107660Y-93670637D01*
X30107656Y-93670640D01*
X29987081Y-93762075D01*
X29987075Y-93762081D01*
X29895640Y-93882656D01*
X29895637Y-93882660D01*
X29840123Y-94023434D01*
X29829500Y-94111893D01*
X20500000Y-94111893D01*
X20500000Y-76955130D01*
X36699500Y-76955130D01*
X36699500Y-79044860D01*
X36699501Y-79044863D01*
X36702414Y-79069990D01*
X36721090Y-79112287D01*
X36747794Y-79172765D01*
X36827235Y-79252206D01*
X36930009Y-79297585D01*
X36955135Y-79300500D01*
X39044864Y-79300499D01*
X39069991Y-79297585D01*
X39172765Y-79252206D01*
X39252206Y-79172765D01*
X39297585Y-79069991D01*
X39300500Y-79044865D01*
X39300499Y-76955136D01*
X39297585Y-76930009D01*
X39252206Y-76827235D01*
X39172765Y-76747794D01*
X39069991Y-76702415D01*
X39069990Y-76702414D01*
X39069988Y-76702414D01*
X39044868Y-76699500D01*
X36955139Y-76699500D01*
X36955136Y-76699501D01*
X36930009Y-76702414D01*
X36827235Y-76747794D01*
X36747794Y-76827235D01*
X36702414Y-76930011D01*
X36699500Y-76955130D01*
X20500000Y-76955130D01*
X20500000Y-59954034D01*
X25399500Y-59954034D01*
X25399500Y-60205965D01*
X25438908Y-60454780D01*
X25516759Y-60694379D01*
X25622369Y-60901652D01*
X25631130Y-60918845D01*
X25779207Y-61122656D01*
X25957344Y-61300793D01*
X26161155Y-61448870D01*
X26385621Y-61563241D01*
X26625215Y-61641090D01*
X26625216Y-61641090D01*
X26625219Y-61641091D01*
X26874035Y-61680500D01*
X26874038Y-61680500D01*
X27125965Y-61680500D01*
X27374780Y-61641091D01*
X27374781Y-61641090D01*
X27374785Y-61641090D01*
X27614379Y-61563241D01*
X27838845Y-61448870D01*
X28042656Y-61300793D01*
X28220793Y-61122656D01*
X28368870Y-60918845D01*
X28483241Y-60694379D01*
X28561090Y-60454785D01*
X28580165Y-60334351D01*
X28600500Y-60205965D01*
X28600500Y-59954034D01*
X28561091Y-59705219D01*
X28526603Y-59599076D01*
X28526603Y-59537890D01*
X28550752Y-59498481D01*
X31568713Y-56480521D01*
X31568716Y-56480520D01*
X31680520Y-56368716D01*
X31733695Y-56276613D01*
X31759577Y-56231785D01*
X31800500Y-56079058D01*
X31800500Y-55920943D01*
X31759577Y-55768216D01*
X31759576Y-55768214D01*
X31733695Y-55723386D01*
X31733695Y-55723385D01*
X31680521Y-55631286D01*
X31680520Y-55631284D01*
X31568716Y-55519480D01*
X31431784Y-55440423D01*
X31279057Y-55399500D01*
X31120942Y-55399500D01*
X31033037Y-55423054D01*
X30968210Y-55440424D01*
X30918095Y-55469359D01*
X30831284Y-55519479D01*
X30719479Y-55631283D01*
X30719480Y-55631284D01*
X30719478Y-55631286D01*
X27757736Y-58593027D01*
X27703219Y-58620804D01*
X27642788Y-58611233D01*
X27614382Y-58596760D01*
X27374780Y-58518908D01*
X27125965Y-58479500D01*
X27125962Y-58479500D01*
X26874038Y-58479500D01*
X26874035Y-58479500D01*
X26625219Y-58518908D01*
X26385620Y-58596759D01*
X26161157Y-58711128D01*
X25957345Y-58859206D01*
X25779206Y-59037345D01*
X25631128Y-59241157D01*
X25516759Y-59465620D01*
X25438908Y-59705219D01*
X25399500Y-59954034D01*
X20500000Y-59954034D01*
X20500000Y-53906893D01*
X25399500Y-53906893D01*
X25399500Y-56093106D01*
X25410123Y-56181565D01*
X25465637Y-56322339D01*
X25465638Y-56322341D01*
X25465639Y-56322342D01*
X25557078Y-56442922D01*
X25677658Y-56534361D01*
X25677659Y-56534361D01*
X25677660Y-56534362D01*
X25741601Y-56559577D01*
X25818436Y-56589877D01*
X25906898Y-56600500D01*
X25906900Y-56600500D01*
X28093100Y-56600500D01*
X28093102Y-56600500D01*
X28181564Y-56589877D01*
X28322342Y-56534361D01*
X28442922Y-56442922D01*
X28534361Y-56322342D01*
X28589877Y-56181564D01*
X28600500Y-56093102D01*
X28600500Y-53906898D01*
X28589877Y-53818436D01*
X28542536Y-53698388D01*
X28534362Y-53677660D01*
X28534361Y-53677659D01*
X28534361Y-53677658D01*
X28442922Y-53557078D01*
X28322342Y-53465639D01*
X28322341Y-53465638D01*
X28322339Y-53465637D01*
X28181565Y-53410123D01*
X28093106Y-53399500D01*
X28093102Y-53399500D01*
X25906898Y-53399500D01*
X25906893Y-53399500D01*
X25818434Y-53410123D01*
X25677660Y-53465637D01*
X25677656Y-53465640D01*
X25557081Y-53557075D01*
X25557075Y-53557081D01*
X25465640Y-53677656D01*
X25465637Y-53677660D01*
X25410123Y-53818434D01*
X25399500Y-53906893D01*
X20500000Y-53906893D01*
X20500000Y-47920943D01*
X33399500Y-47920943D01*
X33399500Y-48079057D01*
X33440423Y-48231784D01*
X33519480Y-48368716D01*
X33631284Y-48480520D01*
X33768216Y-48559577D01*
X33920943Y-48600500D01*
X33920945Y-48600500D01*
X34079055Y-48600500D01*
X34079057Y-48600500D01*
X34231784Y-48559577D01*
X34368716Y-48480520D01*
X34369741Y-48479494D01*
X34370668Y-48479022D01*
X34373866Y-48476569D01*
X34374320Y-48477161D01*
X34424256Y-48451719D01*
X34439743Y-48450500D01*
X35960257Y-48450500D01*
X36018448Y-48469407D01*
X36030254Y-48479490D01*
X36031284Y-48480520D01*
X36168216Y-48559577D01*
X36320943Y-48600500D01*
X36320945Y-48600500D01*
X36479055Y-48600500D01*
X36479057Y-48600500D01*
X36631784Y-48559577D01*
X36768716Y-48480520D01*
X36880520Y-48368716D01*
X36959577Y-48231784D01*
X37000500Y-48079057D01*
X37000500Y-47920943D01*
X36959577Y-47768216D01*
X36880520Y-47631284D01*
X36768716Y-47519480D01*
X36631784Y-47440423D01*
X36479057Y-47399500D01*
X36320943Y-47399500D01*
X36168216Y-47440423D01*
X36031284Y-47519480D01*
X36030258Y-47520505D01*
X36029331Y-47520977D01*
X36026134Y-47523431D01*
X36025679Y-47522838D01*
X35975744Y-47548281D01*
X35960257Y-47549500D01*
X34439743Y-47549500D01*
X34381552Y-47530593D01*
X34369745Y-47520509D01*
X34368716Y-47519480D01*
X34231784Y-47440423D01*
X34079057Y-47399500D01*
X33920943Y-47399500D01*
X33768216Y-47440423D01*
X33631284Y-47519480D01*
X33519480Y-47631284D01*
X33440423Y-47768216D01*
X33399500Y-47920943D01*
X20500000Y-47920943D01*
X20500000Y-37954073D01*
X25400000Y-37954073D01*
X25400000Y-38205926D01*
X25439395Y-38454663D01*
X25517221Y-38694187D01*
X25631556Y-38918582D01*
X25631560Y-38918588D01*
X25735503Y-39061652D01*
X26419668Y-38377486D01*
X26423978Y-38387890D01*
X26495112Y-38494351D01*
X26585649Y-38584888D01*
X26692110Y-38656022D01*
X26702510Y-38660330D01*
X26018346Y-39344494D01*
X26018346Y-39344495D01*
X26161411Y-39448439D01*
X26161417Y-39448443D01*
X26385812Y-39562778D01*
X26625336Y-39640604D01*
X26874074Y-39680000D01*
X27125926Y-39680000D01*
X27374663Y-39640604D01*
X27614187Y-39562778D01*
X27838582Y-39448443D01*
X27838587Y-39448439D01*
X27981652Y-39344495D01*
X27981652Y-39344494D01*
X27297488Y-38660330D01*
X27307890Y-38656022D01*
X27414351Y-38584888D01*
X27504888Y-38494351D01*
X27576022Y-38387890D01*
X27580330Y-38377488D01*
X28264494Y-39061652D01*
X28264495Y-39061652D01*
X28368439Y-38918587D01*
X28368443Y-38918582D01*
X28482778Y-38694187D01*
X28560604Y-38454663D01*
X28581783Y-38320943D01*
X72999500Y-38320943D01*
X72999500Y-38479057D01*
X73040423Y-38631784D01*
X73119480Y-38768716D01*
X73120505Y-38769741D01*
X73120977Y-38770668D01*
X73123431Y-38773866D01*
X73122838Y-38774320D01*
X73148281Y-38824256D01*
X73149500Y-38839743D01*
X73149500Y-48360256D01*
X73130593Y-48418447D01*
X73120510Y-48430253D01*
X73119483Y-48431279D01*
X73119480Y-48431283D01*
X73119480Y-48431284D01*
X73040423Y-48568216D01*
X72999500Y-48720943D01*
X72999500Y-48879057D01*
X73040423Y-49031784D01*
X73119480Y-49168716D01*
X73231284Y-49280520D01*
X73368216Y-49359577D01*
X73520943Y-49400500D01*
X73520945Y-49400500D01*
X73679055Y-49400500D01*
X73679057Y-49400500D01*
X73831784Y-49359577D01*
X73968716Y-49280520D01*
X74080520Y-49168716D01*
X74159577Y-49031784D01*
X74200500Y-48879057D01*
X74200500Y-48720943D01*
X74200499Y-48720942D01*
X74199653Y-48714511D01*
X74201202Y-48714307D01*
X74203993Y-48660951D01*
X74242494Y-48613398D01*
X74301593Y-48597556D01*
X74316407Y-48599902D01*
X74320942Y-48600499D01*
X74320943Y-48600500D01*
X74320944Y-48600500D01*
X74479055Y-48600500D01*
X74479057Y-48600500D01*
X74631784Y-48559577D01*
X74768716Y-48480520D01*
X74880520Y-48368716D01*
X74958855Y-48233033D01*
X75004324Y-48192093D01*
X75065174Y-48185697D01*
X75070206Y-48186905D01*
X75120943Y-48200500D01*
X75120945Y-48200500D01*
X75279055Y-48200500D01*
X75279057Y-48200500D01*
X75431784Y-48159577D01*
X75568716Y-48080520D01*
X75680520Y-47968716D01*
X75759577Y-47831784D01*
X75800500Y-47679057D01*
X75800500Y-47677611D01*
X75800819Y-47676626D01*
X75801347Y-47672623D01*
X75802088Y-47672720D01*
X75819407Y-47619420D01*
X75829496Y-47607607D01*
X79516160Y-43920943D01*
X82999500Y-43920943D01*
X82999500Y-44079057D01*
X83040423Y-44231784D01*
X83119480Y-44368716D01*
X83120505Y-44369741D01*
X83120977Y-44370668D01*
X83123431Y-44373866D01*
X83122838Y-44374320D01*
X83148281Y-44424256D01*
X83149500Y-44439743D01*
X83149500Y-47659308D01*
X83166668Y-47723383D01*
X83166669Y-47723385D01*
X83166670Y-47723387D01*
X83180201Y-47773887D01*
X83180202Y-47773889D01*
X83180203Y-47773892D01*
X83239507Y-47876609D01*
X83239509Y-47876611D01*
X83239511Y-47876614D01*
X83770505Y-48407608D01*
X83798281Y-48462123D01*
X83799500Y-48477610D01*
X83799500Y-48479057D01*
X83840423Y-48631784D01*
X83919480Y-48768716D01*
X84031284Y-48880520D01*
X84168216Y-48959577D01*
X84320943Y-49000500D01*
X84320945Y-49000500D01*
X84479055Y-49000500D01*
X84479057Y-49000500D01*
X84631784Y-48959577D01*
X84768716Y-48880520D01*
X84880520Y-48768716D01*
X84959577Y-48631784D01*
X85000500Y-48479057D01*
X85000500Y-48320943D01*
X84959577Y-48168216D01*
X84880520Y-48031284D01*
X84768716Y-47919480D01*
X84631784Y-47840423D01*
X84479057Y-47799500D01*
X84479055Y-47799500D01*
X84477612Y-47799500D01*
X84476628Y-47799180D01*
X84472623Y-47798653D01*
X84472720Y-47797910D01*
X84419421Y-47780593D01*
X84407608Y-47770504D01*
X84195152Y-47558048D01*
X84167375Y-47503531D01*
X84176946Y-47443099D01*
X84220211Y-47399834D01*
X84280643Y-47390263D01*
X84290768Y-47392414D01*
X84320943Y-47400500D01*
X84320945Y-47400500D01*
X84479055Y-47400500D01*
X84479057Y-47400500D01*
X84631784Y-47359577D01*
X84768716Y-47280520D01*
X84880520Y-47168716D01*
X84959577Y-47031784D01*
X85000500Y-46879057D01*
X85000500Y-46877611D01*
X85000819Y-46876626D01*
X85001347Y-46872623D01*
X85002088Y-46872720D01*
X85019407Y-46819420D01*
X85029496Y-46807607D01*
X87207607Y-44629496D01*
X87262124Y-44601719D01*
X87277611Y-44600500D01*
X87279055Y-44600500D01*
X87279057Y-44600500D01*
X87431784Y-44559577D01*
X87568716Y-44480520D01*
X87680520Y-44368716D01*
X87759577Y-44231784D01*
X87800500Y-44079057D01*
X87800500Y-43920943D01*
X87759577Y-43768216D01*
X87680520Y-43631284D01*
X87568716Y-43519480D01*
X87431784Y-43440423D01*
X87279057Y-43399500D01*
X87120943Y-43399500D01*
X86968216Y-43440423D01*
X86831284Y-43519480D01*
X86719480Y-43631284D01*
X86640423Y-43768216D01*
X86599500Y-43920944D01*
X86599500Y-43922389D01*
X86599180Y-43923373D01*
X86598653Y-43927377D01*
X86597911Y-43927279D01*
X86580593Y-43980580D01*
X86570504Y-43992393D01*
X84392393Y-46170504D01*
X84337876Y-46198281D01*
X84322389Y-46199500D01*
X84320943Y-46199500D01*
X84224975Y-46225214D01*
X84175123Y-46238572D01*
X84114021Y-46235369D01*
X84066471Y-46196864D01*
X84050500Y-46142945D01*
X84050500Y-44439743D01*
X84069407Y-44381552D01*
X84079490Y-44369745D01*
X84080520Y-44368716D01*
X84159577Y-44231784D01*
X84200500Y-44079057D01*
X84200500Y-43920943D01*
X84159577Y-43768216D01*
X84080520Y-43631284D01*
X83968716Y-43519480D01*
X83831784Y-43440423D01*
X83679057Y-43399500D01*
X83520943Y-43399500D01*
X83368216Y-43440423D01*
X83231284Y-43519480D01*
X83119480Y-43631284D01*
X83040423Y-43768216D01*
X82999500Y-43920943D01*
X79516160Y-43920943D01*
X80807607Y-42629496D01*
X80862124Y-42601719D01*
X80877611Y-42600500D01*
X80879055Y-42600500D01*
X80879057Y-42600500D01*
X81031784Y-42559577D01*
X81168716Y-42480520D01*
X81280520Y-42368716D01*
X81359577Y-42231784D01*
X81400500Y-42079057D01*
X81400500Y-41920943D01*
X81359577Y-41768216D01*
X81280520Y-41631284D01*
X81168716Y-41519480D01*
X81031784Y-41440423D01*
X80879057Y-41399500D01*
X80720943Y-41399500D01*
X80568216Y-41440423D01*
X80431284Y-41519480D01*
X80319480Y-41631284D01*
X80240423Y-41768216D01*
X80199500Y-41920944D01*
X80199500Y-41922389D01*
X80199180Y-41923373D01*
X80198653Y-41927377D01*
X80197911Y-41927279D01*
X80180593Y-41980580D01*
X80170504Y-41992393D01*
X77958047Y-44204849D01*
X77903530Y-44232626D01*
X77843098Y-44223055D01*
X77799833Y-44179790D01*
X77790262Y-44119358D01*
X77792413Y-44109235D01*
X77800500Y-44079057D01*
X77800500Y-43920943D01*
X77759577Y-43768216D01*
X77680520Y-43631284D01*
X77680517Y-43631281D01*
X77680516Y-43631279D01*
X77679490Y-43630253D01*
X77679016Y-43629324D01*
X77676569Y-43626134D01*
X77677160Y-43625680D01*
X77651717Y-43575734D01*
X77650500Y-43560256D01*
X77650500Y-39427610D01*
X77669407Y-39369419D01*
X77679497Y-39357606D01*
X78007608Y-39029496D01*
X78062124Y-39001719D01*
X78077611Y-39000500D01*
X78079055Y-39000500D01*
X78079057Y-39000500D01*
X78231784Y-38959577D01*
X78368716Y-38880520D01*
X78480520Y-38768716D01*
X78559577Y-38631784D01*
X78600500Y-38479057D01*
X78600500Y-38320943D01*
X78559577Y-38168216D01*
X78480520Y-38031284D01*
X78368716Y-37919480D01*
X78231784Y-37840423D01*
X78079057Y-37799500D01*
X77920943Y-37799500D01*
X77768216Y-37840423D01*
X77631284Y-37919480D01*
X77519480Y-38031284D01*
X77440423Y-38168216D01*
X77400001Y-38319076D01*
X77399500Y-38320944D01*
X77399500Y-38322388D01*
X77399180Y-38323371D01*
X77398653Y-38327377D01*
X77397910Y-38327279D01*
X77380593Y-38380579D01*
X77370503Y-38392392D01*
X77158047Y-38604847D01*
X77103531Y-38632624D01*
X77043099Y-38623053D01*
X76999834Y-38579788D01*
X76990263Y-38519356D01*
X76992418Y-38509219D01*
X77000499Y-38479059D01*
X77000500Y-38479056D01*
X77000500Y-38320944D01*
X77000108Y-38319480D01*
X76959577Y-38168216D01*
X76880520Y-38031284D01*
X76768716Y-37919480D01*
X76631784Y-37840423D01*
X76479057Y-37799500D01*
X76320943Y-37799500D01*
X76168216Y-37840423D01*
X76031284Y-37919480D01*
X75919478Y-38031286D01*
X75885736Y-38089730D01*
X75840267Y-38130671D01*
X75779417Y-38137067D01*
X75726429Y-38106474D01*
X75714264Y-38089730D01*
X75680521Y-38031286D01*
X75680520Y-38031284D01*
X75568716Y-37919480D01*
X75431784Y-37840423D01*
X75279057Y-37799500D01*
X75120943Y-37799500D01*
X75044579Y-37819961D01*
X74968214Y-37840423D01*
X74849499Y-37908963D01*
X74789651Y-37921684D01*
X74750501Y-37908963D01*
X74631785Y-37840423D01*
X74580875Y-37826782D01*
X74479057Y-37799500D01*
X74320943Y-37799500D01*
X74244579Y-37819961D01*
X74168214Y-37840423D01*
X74049499Y-37908963D01*
X73989651Y-37921684D01*
X73950501Y-37908963D01*
X73831785Y-37840423D01*
X73780875Y-37826782D01*
X73679057Y-37799500D01*
X73520943Y-37799500D01*
X73368216Y-37840423D01*
X73231284Y-37919480D01*
X73119480Y-38031284D01*
X73040423Y-38168216D01*
X72999500Y-38320943D01*
X28581783Y-38320943D01*
X28585264Y-38298967D01*
X28600000Y-38205926D01*
X28600000Y-37954073D01*
X28560604Y-37705336D01*
X28482778Y-37465812D01*
X28368443Y-37241417D01*
X28368439Y-37241411D01*
X28264495Y-37098346D01*
X28264494Y-37098346D01*
X27580330Y-37782510D01*
X27576022Y-37772110D01*
X27504888Y-37665649D01*
X27414351Y-37575112D01*
X27307890Y-37503978D01*
X27297486Y-37499668D01*
X27981652Y-36815503D01*
X27838588Y-36711560D01*
X27838582Y-36711556D01*
X27614187Y-36597221D01*
X27374663Y-36519395D01*
X27125926Y-36480000D01*
X26874074Y-36480000D01*
X26625336Y-36519395D01*
X26385812Y-36597221D01*
X26161419Y-36711555D01*
X26018347Y-36815504D01*
X26702512Y-37499669D01*
X26692110Y-37503978D01*
X26585649Y-37575112D01*
X26495112Y-37665649D01*
X26423978Y-37772110D01*
X26419669Y-37782512D01*
X25735504Y-37098347D01*
X25631555Y-37241419D01*
X25517221Y-37465812D01*
X25439395Y-37705336D01*
X25400000Y-37954073D01*
X20500000Y-37954073D01*
X20500000Y-31906893D01*
X25399500Y-31906893D01*
X25399500Y-34093106D01*
X25410123Y-34181565D01*
X25465637Y-34322339D01*
X25465638Y-34322341D01*
X25465639Y-34322342D01*
X25557078Y-34442922D01*
X25677658Y-34534361D01*
X25677659Y-34534361D01*
X25677660Y-34534362D01*
X25748047Y-34562119D01*
X25818436Y-34589877D01*
X25906898Y-34600500D01*
X25906900Y-34600500D01*
X28093100Y-34600500D01*
X28093102Y-34600500D01*
X28181564Y-34589877D01*
X28322342Y-34534361D01*
X28442922Y-34442922D01*
X28534361Y-34322342D01*
X28589877Y-34181564D01*
X28600500Y-34093102D01*
X28600500Y-31906898D01*
X28589877Y-31818436D01*
X28534361Y-31677658D01*
X28442922Y-31557078D01*
X28322342Y-31465639D01*
X28322341Y-31465638D01*
X28322339Y-31465637D01*
X28181565Y-31410123D01*
X28093106Y-31399500D01*
X28093102Y-31399500D01*
X25906898Y-31399500D01*
X25906893Y-31399500D01*
X25818434Y-31410123D01*
X25677660Y-31465637D01*
X25677656Y-31465640D01*
X25557081Y-31557075D01*
X25557075Y-31557081D01*
X25465640Y-31677656D01*
X25465637Y-31677660D01*
X25410123Y-31818434D01*
X25399500Y-31906893D01*
X20500000Y-31906893D01*
X20500000Y-27520943D01*
X65399500Y-27520943D01*
X65399500Y-27679057D01*
X65440423Y-27831784D01*
X65519480Y-27968716D01*
X65520505Y-27969741D01*
X65520977Y-27970668D01*
X65523431Y-27973866D01*
X65522838Y-27974320D01*
X65548281Y-28024256D01*
X65549500Y-28039743D01*
X65549500Y-29659308D01*
X65566668Y-29723383D01*
X65566669Y-29723385D01*
X65566670Y-29723387D01*
X65580201Y-29773887D01*
X65580202Y-29773889D01*
X65580203Y-29773892D01*
X65639507Y-29876609D01*
X65639509Y-29876611D01*
X65639511Y-29876614D01*
X65770505Y-30007608D01*
X65798281Y-30062123D01*
X65799500Y-30077610D01*
X65799500Y-30079057D01*
X65840423Y-30231784D01*
X65919480Y-30368716D01*
X66031284Y-30480520D01*
X66168216Y-30559577D01*
X66320943Y-30600500D01*
X66320945Y-30600500D01*
X66479055Y-30600500D01*
X66479057Y-30600500D01*
X66631784Y-30559577D01*
X66768716Y-30480520D01*
X66880520Y-30368716D01*
X66959577Y-30231784D01*
X67000500Y-30079057D01*
X67000500Y-29920943D01*
X66959577Y-29768216D01*
X66880520Y-29631284D01*
X66868737Y-29619501D01*
X66840962Y-29564987D01*
X66850533Y-29504555D01*
X66893798Y-29461290D01*
X66938743Y-29450500D01*
X69264068Y-29450500D01*
X69264069Y-29450500D01*
X69389744Y-29425501D01*
X69508127Y-29376465D01*
X69614669Y-29305276D01*
X69705276Y-29214669D01*
X69776465Y-29108127D01*
X69825501Y-28989744D01*
X69850500Y-28864069D01*
X69850500Y-28735931D01*
X69825501Y-28610256D01*
X69776465Y-28491873D01*
X69776463Y-28491870D01*
X69776461Y-28491866D01*
X69747717Y-28448848D01*
X69705276Y-28385331D01*
X69614669Y-28294724D01*
X69572226Y-28266365D01*
X69508133Y-28223538D01*
X69508125Y-28223534D01*
X69389747Y-28174500D01*
X69389745Y-28174499D01*
X69389744Y-28174499D01*
X69264069Y-28149500D01*
X66735931Y-28149500D01*
X66735930Y-28149500D01*
X66699217Y-28156803D01*
X66610256Y-28174499D01*
X66610254Y-28174499D01*
X66610248Y-28174501D01*
X66587385Y-28183972D01*
X66526389Y-28188773D01*
X66474220Y-28156803D01*
X66450805Y-28100275D01*
X66450500Y-28092508D01*
X66450500Y-28039743D01*
X66469407Y-27981552D01*
X66479490Y-27969745D01*
X66480520Y-27968716D01*
X66559577Y-27831784D01*
X66600500Y-27679057D01*
X66600500Y-27520943D01*
X66559577Y-27368216D01*
X66480520Y-27231284D01*
X66368716Y-27119480D01*
X66231784Y-27040423D01*
X66079057Y-26999500D01*
X65920943Y-26999500D01*
X65768216Y-27040423D01*
X65631284Y-27119480D01*
X65519480Y-27231284D01*
X65440423Y-27368216D01*
X65399500Y-27520943D01*
X20500000Y-27520943D01*
X20500000Y-20599000D01*
X20518907Y-20540809D01*
X20568407Y-20504845D01*
X20599000Y-20500000D01*
X63901000Y-20500000D01*
X63959191Y-20518907D01*
G37*
%TD.AperFunction*%
%TD*%
M02*
