<svg xmlns="http://www.w3.org/2000/svg" viewBox="0 0 820 960" font-family="'Courier New', monospace">
  <!--
    Generated by: Claude Code (hand-crafted SVG)
    Source of truth: components/app_config/include/app_config.h
    Last updated: 2026-04-06
    To update: ask Claude Code to regenerate, or edit SVG directly
  -->
  <defs>
    <style>
      .hole { fill: #1a1a1a; stroke: #555; stroke-width: 0.5; }
      .hole-used { fill: #333; stroke: #888; stroke-width: 0.8; }
      .esp-pin { fill: #e6c300; stroke: #a08800; stroke-width: 1; }
      .header-pin { fill: #c0c0c0; stroke: #888; stroke-width: 1; }
      .esp-body { fill: #1a472a; stroke: #2d7a4a; stroke-width: 2; }
      .esp-module { fill: #c0c0c0; stroke: #999; stroke-width: 1.5; }
      .esp-antenna { fill: none; stroke: #888; stroke-width: 1; stroke-dasharray: 3,2; }
      .label { font-size: 10px; fill: #fff; text-anchor: middle; }
      .label-small { font-size: 8px; fill: #ccc; text-anchor: middle; }
      .label-left { font-size: 9px; fill: #ddd; text-anchor: end; }
      .label-right { font-size: 9px; fill: #ddd; text-anchor: start; }
      .title { font-size: 16px; fill: #fff; text-anchor: middle; font-weight: bold; }
      .subtitle { font-size: 11px; fill: #aaa; text-anchor: middle; }
      .section-label { font-size: 12px; fill: #fff; text-anchor: middle; font-weight: bold; }
      .pin-label { font-size: 7px; fill: #fff; text-anchor: middle; }
      .gpio-label { font-size: 7px; fill: #ffa; text-anchor: middle; }
      .wire-spi { stroke: #4488ff; stroke-width: 2; fill: none; stroke-dasharray: 6,3; }
      .wire-gnd { stroke: #888; stroke-width: 2.5; fill: none; }
      .wire-pwr { stroke: #ff4444; stroke-width: 2; fill: none; stroke-dasharray: 4,2; }
      .wire-sig { stroke: #44cc44; stroke-width: 1.5; fill: none; stroke-dasharray: 3,3; }
      .header-box { fill: none; stroke-width: 2; rx: 3; }
      .btn-hdr { stroke: #44cc44; }
      .alm-hdr { stroke: #ff6600; }
      .vnt-hdr { stroke: #6666ff; }
      .tc-hdr { stroke: #ff4444; }
      .lcd-hdr { stroke: #4488ff; }
      .ssr-hdr { stroke: #ffaa00; }
      .legend-box { fill: #111; stroke: #444; stroke-width: 1; rx: 4; }
      .col-num { font-size: 7px; fill: #666; text-anchor: middle; }
      .row-num { font-size: 7px; fill: #666; text-anchor: end; }
      .keepout { fill: none; stroke: #ff4444; stroke-width: 1; stroke-dasharray: 4,4; rx: 3; }
    </style>
  </defs>

  <!-- Background -->
  <rect width="820" height="960" fill="#0a0a0a" rx="8"/>

  <!-- Title -->
  <text x="410" y="30" class="title">Bisque Kiln Controller - Perfboard Layout (Top View)</text>
  <text x="410" y="48" class="subtitle">7x9cm perfboard - 26 columns x 31 rows - 2.54mm pitch</text>

  <!-- Perfboard body -->
  <rect x="60" y="65" width="670" height="800" fill="#0d5e2d" stroke="#1a8a45" stroke-width="2" rx="6"/>

  <!-- Mounting holes -->
  <circle cx="80" cy="85" r="5" fill="none" stroke="#888" stroke-width="1.5"/>
  <circle cx="710" cy="85" r="5" fill="none" stroke="#888" stroke-width="1.5"/>
  <circle cx="80" cy="845" r="5" fill="none" stroke="#888" stroke-width="1.5"/>
  <circle cx="710" cy="845" r="5" fill="none" stroke="#888" stroke-width="1.5"/>

  <!-- Column numbers -->
  <g transform="translate(0, 75)">
    <text x="95" y="0" class="col-num">1</text>
    <text x="120" y="0" class="col-num">2</text>
    <text x="145" y="0" class="col-num">3</text>
    <text x="170" y="0" class="col-num">4</text>
    <text x="195" y="0" class="col-num">5</text>
    <text x="220" y="0" class="col-num">6</text>
    <text x="245" y="0" class="col-num">7</text>
    <text x="270" y="0" class="col-num">8</text>
    <text x="295" y="0" class="col-num">9</text>
    <text x="320" y="0" class="col-num">10</text>
    <text x="345" y="0" class="col-num">11</text>
    <text x="370" y="0" class="col-num">12</text>
    <text x="395" y="0" class="col-num">13</text>
    <text x="420" y="0" class="col-num">14</text>
    <text x="445" y="0" class="col-num">15</text>
    <text x="470" y="0" class="col-num">16</text>
    <text x="495" y="0" class="col-num">17</text>
    <text x="520" y="0" class="col-num">18</text>
    <text x="545" y="0" class="col-num">19</text>
    <text x="570" y="0" class="col-num">20</text>
    <text x="595" y="0" class="col-num">21</text>
    <text x="620" y="0" class="col-num">22</text>
    <text x="645" y="0" class="col-num">23</text>
    <text x="670" y="0" class="col-num">24</text>
    <text x="695" y="0" class="col-num">25</text>
    <text x="720" y="0" class="col-num">26</text>
  </g>

  <!-- Row numbers -->
  <g>
    <text x="82" y="100" class="row-num">1</text>
    <text x="82" y="125" class="row-num">2</text>
    <text x="82" y="150" class="row-num">3</text>
    <text x="82" y="175" class="row-num">4</text>
    <text x="82" y="200" class="row-num">5</text>
    <text x="82" y="225" class="row-num">6</text>
    <text x="82" y="250" class="row-num">7</text>
    <text x="82" y="275" class="row-num">8</text>
    <text x="82" y="300" class="row-num">9</text>
    <text x="82" y="325" class="row-num">10</text>
    <text x="82" y="350" class="row-num">11</text>
    <text x="82" y="375" class="row-num">12</text>
    <text x="82" y="400" class="row-num">13</text>
    <text x="82" y="425" class="row-num">14</text>
    <text x="82" y="450" class="row-num">15</text>
    <text x="82" y="475" class="row-num">16</text>
    <text x="82" y="500" class="row-num">17</text>
    <text x="82" y="525" class="row-num">18</text>
    <text x="82" y="550" class="row-num">19</text>
    <text x="82" y="575" class="row-num">20</text>
    <text x="82" y="600" class="row-num">21</text>
    <text x="82" y="625" class="row-num">22</text>
    <text x="82" y="650" class="row-num">23</text>
    <text x="82" y="675" class="row-num">24</text>
    <text x="82" y="700" class="row-num">25</text>
    <text x="82" y="725" class="row-num">26</text>
    <text x="82" y="750" class="row-num">27</text>
    <text x="82" y="775" class="row-num">28</text>
    <text x="82" y="800" class="row-num">29</text>
    <text x="82" y="825" class="row-num">30</text>
    <text x="82" y="850" class="row-num">31</text>
  </g>

  <!-- Grid of holes (simplified - show key areas) -->
  <!-- Top area holes (rows 1-5) -->
  <g opacity="0.4">
    <!-- Row 1 -->
    <circle cx="95" cy="96" r="2.5" class="hole"/><circle cx="120" cy="96" r="2.5" class="hole"/>
    <circle cx="145" cy="96" r="2.5" class="hole"/><circle cx="170" cy="96" r="2.5" class="hole"/>
    <circle cx="195" cy="96" r="2.5" class="hole"/><circle cx="220" cy="96" r="2.5" class="hole"/>
    <circle cx="245" cy="96" r="2.5" class="hole"/><circle cx="270" cy="96" r="2.5" class="hole"/>
    <circle cx="295" cy="96" r="2.5" class="hole"/><circle cx="320" cy="96" r="2.5" class="hole"/>
    <circle cx="345" cy="96" r="2.5" class="hole"/><circle cx="370" cy="96" r="2.5" class="hole"/>
    <circle cx="395" cy="96" r="2.5" class="hole"/><circle cx="420" cy="96" r="2.5" class="hole"/>
    <circle cx="445" cy="96" r="2.5" class="hole"/><circle cx="470" cy="96" r="2.5" class="hole"/>
    <circle cx="495" cy="96" r="2.5" class="hole"/><circle cx="520" cy="96" r="2.5" class="hole"/>
    <circle cx="545" cy="96" r="2.5" class="hole"/><circle cx="570" cy="96" r="2.5" class="hole"/>
    <circle cx="595" cy="96" r="2.5" class="hole"/><circle cx="620" cy="96" r="2.5" class="hole"/>
    <circle cx="645" cy="96" r="2.5" class="hole"/><circle cx="670" cy="96" r="2.5" class="hole"/>
    <circle cx="695" cy="96" r="2.5" class="hole"/><circle cx="720" cy="96" r="2.5" class="hole"/>
    <!-- Row 2 -->
    <circle cx="95" cy="121" r="2.5" class="hole"/><circle cx="120" cy="121" r="2.5" class="hole"/>
    <circle cx="145" cy="121" r="2.5" class="hole"/><circle cx="170" cy="121" r="2.5" class="hole"/>
    <circle cx="195" cy="121" r="2.5" class="hole"/><circle cx="220" cy="121" r="2.5" class="hole"/>
    <circle cx="245" cy="121" r="2.5" class="hole"/><circle cx="270" cy="121" r="2.5" class="hole"/>
    <circle cx="295" cy="121" r="2.5" class="hole"/><circle cx="320" cy="121" r="2.5" class="hole"/>
    <circle cx="345" cy="121" r="2.5" class="hole"/><circle cx="370" cy="121" r="2.5" class="hole"/>
    <circle cx="395" cy="121" r="2.5" class="hole"/><circle cx="420" cy="121" r="2.5" class="hole"/>
    <circle cx="445" cy="121" r="2.5" class="hole"/><circle cx="470" cy="121" r="2.5" class="hole"/>
    <circle cx="495" cy="121" r="2.5" class="hole"/><circle cx="520" cy="121" r="2.5" class="hole"/>
    <circle cx="545" cy="121" r="2.5" class="hole"/><circle cx="570" cy="121" r="2.5" class="hole"/>
    <circle cx="595" cy="121" r="2.5" class="hole"/><circle cx="620" cy="121" r="2.5" class="hole"/>
    <circle cx="645" cy="121" r="2.5" class="hole"/><circle cx="670" cy="121" r="2.5" class="hole"/>
    <circle cx="695" cy="121" r="2.5" class="hole"/><circle cx="720" cy="121" r="2.5" class="hole"/>
    <!-- Row 3 -->
    <circle cx="95" cy="146" r="2.5" class="hole"/><circle cx="120" cy="146" r="2.5" class="hole"/>
    <circle cx="145" cy="146" r="2.5" class="hole"/><circle cx="170" cy="146" r="2.5" class="hole"/>
    <circle cx="195" cy="146" r="2.5" class="hole"/><circle cx="220" cy="146" r="2.5" class="hole"/>
    <circle cx="245" cy="146" r="2.5" class="hole"/><circle cx="270" cy="146" r="2.5" class="hole"/>
    <circle cx="295" cy="146" r="2.5" class="hole"/><circle cx="320" cy="146" r="2.5" class="hole"/>
    <circle cx="345" cy="146" r="2.5" class="hole"/><circle cx="370" cy="146" r="2.5" class="hole"/>
    <circle cx="395" cy="146" r="2.5" class="hole"/><circle cx="420" cy="146" r="2.5" class="hole"/>
    <circle cx="445" cy="146" r="2.5" class="hole"/><circle cx="470" cy="146" r="2.5" class="hole"/>
    <circle cx="495" cy="146" r="2.5" class="hole"/><circle cx="520" cy="146" r="2.5" class="hole"/>
    <circle cx="545" cy="146" r="2.5" class="hole"/><circle cx="570" cy="146" r="2.5" class="hole"/>
    <circle cx="595" cy="146" r="2.5" class="hole"/><circle cx="620" cy="146" r="2.5" class="hole"/>
    <circle cx="645" cy="146" r="2.5" class="hole"/><circle cx="670" cy="146" r="2.5" class="hole"/>
    <circle cx="695" cy="146" r="2.5" class="hole"/><circle cx="720" cy="146" r="2.5" class="hole"/>
  </g>

  <!-- ==================== BUTTON HEADER (top-left) ==================== -->
  <rect x="88" y="86" width="105" height="38" class="header-box btn-hdr"/>
  <!-- Header pins -->
  <circle cx="95" cy="96" r="4" class="header-pin"/><circle cx="120" cy="96" r="4" class="header-pin"/>
  <circle cx="145" cy="96" r="4" class="header-pin"/><circle cx="170" cy="96" r="4" class="header-pin"/>
  <!-- Pin labels -->
  <text x="95" y="117" class="pin-label">GND</text>
  <text x="120" y="117" class="pin-label">UP</text>
  <text x="145" y="117" class="pin-label">DN</text>
  <text x="170" y="117" class="pin-label">SEL</text>
  <!-- GPIO labels -->
  <text x="120" y="128" class="gpio-label">GP4</text>
  <text x="145" y="128" class="gpio-label">GP5</text>
  <text x="170" y="128" class="gpio-label">GP6</text>
  <text x="133" y="83" class="section-label" fill="#44cc44">BUTTONS</text>

  <!-- ==================== ALARM HEADER (top-left area) ==================== -->
  <rect x="213" y="86" width="55" height="38" class="header-box alm-hdr"/>
  <circle cx="220" cy="96" r="4" class="header-pin"/><circle cx="245" cy="96" r="4" class="header-pin"/>
  <text x="220" y="117" class="pin-label">GND</text>
  <text x="245" y="117" class="pin-label">ALM</text>
  <text x="233" y="83" class="section-label" fill="#ff6600">ALARM</text>

  <!-- ==================== VENT HEADER (top-left area) ==================== -->
  <rect x="263" y="86" width="55" height="38" class="header-box vnt-hdr"/>
  <circle cx="270" cy="96" r="4" class="header-pin"/><circle cx="295" cy="96" r="4" class="header-pin"/>
  <text x="270" y="117" class="pin-label">GND</text>
  <text x="295" y="117" class="pin-label">VNT</text>
  <text x="283" y="83" class="section-label" fill="#6666ff">VENT</text>

  <!-- ==================== TC MODULE HEADER (top-right) ==================== -->
  <rect x="563" y="86" width="162" height="38" class="header-box tc-hdr"/>
  <circle cx="570" cy="96" r="4" class="header-pin"/><circle cx="595" cy="96" r="4" class="header-pin"/>
  <circle cx="620" cy="96" r="4" class="header-pin"/><circle cx="645" cy="96" r="4" class="header-pin"/>
  <circle cx="670" cy="96" r="4" class="header-pin"/><circle cx="695" cy="96" r="4" class="header-pin"/>
  <text x="570" y="117" class="pin-label">GND</text>
  <text x="595" y="117" class="pin-label">3V3</text>
  <text x="620" y="117" class="pin-label">MOSI</text>
  <text x="645" y="117" class="pin-label">MISO</text>
  <text x="670" y="117" class="pin-label">SCLK</text>
  <text x="695" y="117" class="pin-label">CS</text>
  <text x="620" y="128" class="gpio-label">GP11</text>
  <text x="645" y="128" class="gpio-label">GP13</text>
  <text x="670" y="128" class="gpio-label">GP12</text>
  <text x="695" y="128" class="gpio-label">GP10</text>
  <text x="645" y="83" class="section-label" fill="#ff4444">THERMOCOUPLE MODULE</text>

  <!-- ==================== ESP32-S3 DevKitC-1 (center, rows 6-27) ==================== -->
  <!-- PCB body -->
  <rect x="303" y="206" width="205" height="570" class="esp-body" rx="4"/>

  <!-- ESP32-S3-WROOM module (silver can) -->
  <rect x="333" y="216" width="145" height="170" class="esp-module" rx="3"/>
  <text x="405" y="280" font-size="10" fill="#333" text-anchor="middle" font-weight="bold">ESP32-S3</text>
  <text x="405" y="294" font-size="9" fill="#444" text-anchor="middle">WROOM-1</text>

  <!-- Antenna area -->
  <rect x="353" y="206" width="105" height="40" class="esp-antenna"/>
  <text x="405" y="228" font-size="7" fill="#888" text-anchor="middle">ANTENNA</text>

  <!-- RF keepout zone -->
  <rect x="340" y="150" width="130" height="60" class="keepout"/>
  <text x="405" y="175" font-size="7" fill="#ff4444" text-anchor="middle">RF KEEPOUT</text>
  <text x="405" y="185" font-size="6" fill="#ff4444" text-anchor="middle">No copper/wires</text>

  <!-- USB-C connector -->
  <rect x="380" y="755" width="50" height="20" fill="#555" stroke="#777" stroke-width="1.5" rx="3"/>
  <text x="405" y="769" font-size="7" fill="#ccc" text-anchor="middle">USB-C</text>

  <!-- Left pin row (column 9, rows 6-27 = y:221 to y:746) -->
  <!-- 22 pins, spaced 25px apart -->
  <g id="esp-left-pins">
    <circle cx="320" cy="221" r="3.5" class="esp-pin"/><text x="305" y="224" class="label-left" font-size="7">3V3</text>
    <circle cx="320" cy="246" r="3.5" class="esp-pin"/><text x="305" y="249" class="label-left" font-size="7">3V3</text>
    <circle cx="320" cy="271" r="3.5" class="esp-pin"/><text x="305" y="274" class="label-left" font-size="7">RST</text>
    <circle cx="320" cy="296" r="3.5" class="esp-pin"/><text x="305" y="299" class="label-left" font-size="7">GP4</text>
    <circle cx="320" cy="321" r="3.5" class="esp-pin"/><text x="305" y="324" class="label-left" font-size="7">GP5</text>
    <circle cx="320" cy="346" r="3.5" class="esp-pin"/><text x="305" y="349" class="label-left" font-size="7">GP6</text>
    <circle cx="320" cy="371" r="3.5" class="esp-pin"/><text x="305" y="374" class="label-left" font-size="7">GP7</text>
    <circle cx="320" cy="396" r="3.5" class="esp-pin"/><text x="305" y="399" class="label-left" font-size="7">GP15</text>
    <circle cx="320" cy="421" r="3.5" class="esp-pin"/><text x="305" y="424" class="label-left" font-size="7">GP16</text>
    <circle cx="320" cy="446" r="3.5" class="esp-pin"/><text x="305" y="449" class="label-left" font-size="7">GP17</text>
    <circle cx="320" cy="471" r="3.5" class="esp-pin"/><text x="305" y="474" class="label-left" font-size="7">GP18</text>
    <circle cx="320" cy="496" r="3.5" class="esp-pin"/><text x="305" y="499" class="label-left" font-size="7">GP8</text>
    <circle cx="320" cy="521" r="3.5" class="esp-pin"/><text x="305" y="524" class="label-left" font-size="7">GP3</text>
    <circle cx="320" cy="546" r="3.5" class="esp-pin"/><text x="305" y="549" class="label-left" font-size="7">GP46</text>
    <circle cx="320" cy="571" r="3.5" class="esp-pin"/><text x="305" y="574" class="label-left" font-size="7">GP9</text>
    <circle cx="320" cy="596" r="3.5" class="esp-pin"/><text x="305" y="599" class="label-left" font-size="7">GP10</text>
    <circle cx="320" cy="621" r="3.5" class="esp-pin"/><text x="305" y="624" class="label-left" font-size="7">GP11</text>
    <circle cx="320" cy="646" r="3.5" class="esp-pin"/><text x="305" y="649" class="label-left" font-size="7">GP12</text>
    <circle cx="320" cy="671" r="3.5" class="esp-pin"/><text x="305" y="674" class="label-left" font-size="7">GP13</text>
    <circle cx="320" cy="696" r="3.5" class="esp-pin"/><text x="305" y="699" class="label-left" font-size="7">GP14</text>
    <circle cx="320" cy="721" r="3.5" class="esp-pin"/><text x="305" y="724" class="label-left" font-size="7">5V</text>
    <circle cx="320" cy="746" r="3.5" class="esp-pin"/><text x="305" y="749" class="label-left" font-size="7">GND</text>
  </g>

  <!-- Right pin row (column 18, rows 6-27) -->
  <g id="esp-right-pins">
    <circle cx="490" cy="221" r="3.5" class="esp-pin"/><text x="505" y="224" class="label-right" font-size="7">GND</text>
    <circle cx="490" cy="246" r="3.5" class="esp-pin"/><text x="505" y="249" class="label-right" font-size="7">TX</text>
    <circle cx="490" cy="271" r="3.5" class="esp-pin"/><text x="505" y="274" class="label-right" font-size="7">RX</text>
    <circle cx="490" cy="296" r="3.5" class="esp-pin"/><text x="505" y="299" class="label-right" font-size="7">GP1</text>
    <circle cx="490" cy="321" r="3.5" class="esp-pin"/><text x="505" y="324" class="label-right" font-size="7">GP2</text>
    <circle cx="490" cy="346" r="3.5" class="esp-pin"/><text x="505" y="349" class="label-right" font-size="7">GP42</text>
    <circle cx="490" cy="371" r="3.5" class="esp-pin"/><text x="505" y="374" class="label-right" font-size="7">GP41</text>
    <circle cx="490" cy="396" r="3.5" class="esp-pin"/><text x="505" y="399" class="label-right" font-size="7">GP40</text>
    <circle cx="490" cy="421" r="3.5" class="esp-pin"/><text x="505" y="424" class="label-right" font-size="7">GP39</text>
    <circle cx="490" cy="446" r="3.5" class="esp-pin"/><text x="505" y="449" class="label-right" font-size="7">GP38</text>
    <circle cx="490" cy="471" r="3.5" class="esp-pin"/><text x="505" y="474" class="label-right" font-size="7">GP37</text>
    <circle cx="490" cy="496" r="3.5" class="esp-pin"/><text x="505" y="499" class="label-right" font-size="7">GP36</text>
    <circle cx="490" cy="521" r="3.5" class="esp-pin"/><text x="505" y="524" class="label-right" font-size="7">GP35</text>
    <circle cx="490" cy="546" r="3.5" class="esp-pin"/><text x="505" y="549" class="label-right" font-size="7">GP0</text>
    <circle cx="490" cy="571" r="3.5" class="esp-pin"/><text x="505" y="574" class="label-right" font-size="7">GP45</text>
    <circle cx="490" cy="596" r="3.5" class="esp-pin"/><text x="505" y="599" class="label-right" font-size="7">GP48</text>
    <circle cx="490" cy="621" r="3.5" class="esp-pin"/><text x="505" y="624" class="label-right" font-size="7">GP47</text>
    <circle cx="490" cy="646" r="3.5" class="esp-pin"/><text x="505" y="649" class="label-right" font-size="7">GP21</text>
    <circle cx="490" cy="671" r="3.5" class="esp-pin"/><text x="505" y="674" class="label-right" font-size="7">GP20</text>
    <circle cx="490" cy="696" r="3.5" class="esp-pin"/><text x="505" y="699" class="label-right" font-size="7">GP19</text>
    <circle cx="490" cy="721" r="3.5" class="esp-pin"/><text x="505" y="724" class="label-right" font-size="7">GND</text>
    <circle cx="490" cy="746" r="3.5" class="esp-pin"/><text x="505" y="749" class="label-right" font-size="7">GND</text>
  </g>

  <!-- Highlight used pins with colored rings -->
  <!-- GP4 (btn up) --><circle cx="320" cy="296" r="5.5" fill="none" stroke="#44cc44" stroke-width="1.5"/>
  <!-- GP5 (btn dn) --><circle cx="320" cy="321" r="5.5" fill="none" stroke="#44cc44" stroke-width="1.5"/>
  <!-- GP6 (btn sel) --><circle cx="320" cy="346" r="5.5" fill="none" stroke="#44cc44" stroke-width="1.5"/>
  <!-- GP17 (SSR) --><circle cx="320" cy="446" r="5.5" fill="none" stroke="#ffaa00" stroke-width="1.5"/>
  <!-- GP8 (BL) --><circle cx="320" cy="496" r="5.5" fill="none" stroke="#4488ff" stroke-width="1.5"/>
  <!-- GP3 (LCD RST) --><circle cx="320" cy="521" r="5.5" fill="none" stroke="#4488ff" stroke-width="1.5"/>
  <!-- GP46 (LCD DC) --><circle cx="320" cy="546" r="5.5" fill="none" stroke="#4488ff" stroke-width="1.5"/>
  <!-- GP9 (LCD CS) --><circle cx="320" cy="571" r="5.5" fill="none" stroke="#4488ff" stroke-width="1.5"/>
  <!-- GP10 (TC CS) --><circle cx="320" cy="596" r="5.5" fill="none" stroke="#ff4444" stroke-width="1.5"/>
  <!-- GP11 (MOSI) --><circle cx="320" cy="621" r="5.5" fill="none" stroke="#cc44ff" stroke-width="1.5"/>
  <!-- GP12 (SCLK) --><circle cx="320" cy="646" r="5.5" fill="none" stroke="#cc44ff" stroke-width="1.5"/>
  <!-- GP13 (MISO) --><circle cx="320" cy="671" r="5.5" fill="none" stroke="#cc44ff" stroke-width="1.5"/>
  <!-- 3V3 --><circle cx="320" cy="221" r="5.5" fill="none" stroke="#ff4444" stroke-width="1"/>
  <!-- GND --><circle cx="320" cy="746" r="5.5" fill="none" stroke="#888" stroke-width="1"/>
  <circle cx="490" cy="221" r="5.5" fill="none" stroke="#888" stroke-width="1"/>

  <!-- ==================== SSR HEADER (bottom-left) ==================== -->
  <rect x="88" y="786" width="55" height="38" class="header-box ssr-hdr"/>
  <circle cx="95" cy="796" r="4" class="header-pin"/><circle cx="120" cy="796" r="4" class="header-pin"/>
  <text x="95" y="817" class="pin-label">GND</text>
  <text x="120" y="817" class="pin-label">SIG</text>
  <text x="120" y="828" class="gpio-label">GP17</text>
  <text x="108" y="783" class="section-label" fill="#ffaa00">SSR</text>

  <!-- ==================== LCD HEADER (bottom-right) ==================== -->
  <rect x="538" y="786" width="210" height="42" class="header-box lcd-hdr"/>
  <circle cx="545" cy="796" r="4" class="header-pin"/><circle cx="570" cy="796" r="4" class="header-pin"/>
  <circle cx="595" cy="796" r="4" class="header-pin"/><circle cx="620" cy="796" r="4" class="header-pin"/>
  <circle cx="645" cy="796" r="4" class="header-pin"/><circle cx="670" cy="796" r="4" class="header-pin"/>
  <circle cx="695" cy="796" r="4" class="header-pin"/><circle cx="720" cy="796" r="4" class="header-pin"/>
  <text x="545" y="817" class="pin-label">GND</text>
  <text x="570" y="817" class="pin-label">3V3</text>
  <text x="595" y="817" class="pin-label">MOSI</text>
  <text x="620" y="817" class="pin-label">SCLK</text>
  <text x="645" y="817" class="pin-label">CS</text>
  <text x="670" y="817" class="pin-label">DC</text>
  <text x="695" y="817" class="pin-label">RST</text>
  <text x="720" y="817" class="pin-label">BL</text>
  <text x="595" y="828" class="gpio-label">GP11</text>
  <text x="620" y="828" class="gpio-label">GP12</text>
  <text x="645" y="828" class="gpio-label">GP9</text>
  <text x="670" y="828" class="gpio-label">GP46</text>
  <text x="695" y="828" class="gpio-label">GP3</text>
  <text x="720" y="828" class="gpio-label">GP8</text>
  <text x="646" y="783" class="section-label" fill="#4488ff">LCD DISPLAY</text>

  <!-- ==================== WIRE ROUTING HINTS ==================== -->
  <!-- SPI bus trace indicator (bottom side) -->
  <line x1="320" y1="621" x2="260" y2="621" class="wire-spi" opacity="0.5"/>
  <line x1="260" y1="621" x2="260" y2="140" class="wire-spi" opacity="0.5"/>
  <line x1="260" y1="140" x2="620" y2="140" class="wire-spi" opacity="0.5"/>
  <line x1="620" y1="140" x2="620" y2="96" class="wire-spi" opacity="0.5"/>

  <!-- SPI to LCD routing -->
  <line x1="260" y1="621" x2="260" y2="796" class="wire-spi" opacity="0.3"/>
  <line x1="260" y1="796" x2="695" y2="796" class="wire-spi" opacity="0.3"/>

  <!-- Button wires -->
  <line x1="320" y1="296" x2="120" y2="296" class="wire-sig" opacity="0.4"/>
  <line x1="120" y1="296" x2="120" y2="96" class="wire-sig" opacity="0.4"/>
  <line x1="320" y1="321" x2="145" y2="321" class="wire-sig" opacity="0.4"/>
  <line x1="145" y1="321" x2="145" y2="96" class="wire-sig" opacity="0.4"/>
  <line x1="320" y1="346" x2="170" y2="346" class="wire-sig" opacity="0.4"/>
  <line x1="170" y1="346" x2="170" y2="96" class="wire-sig" opacity="0.4"/>

  <!-- SSR wire -->
  <line x1="320" y1="446" x2="120" y2="446" stroke="#ffaa00" stroke-width="1.5" fill="none" stroke-dasharray="3,3" opacity="0.4"/>
  <line x1="120" y1="446" x2="120" y2="796" stroke="#ffaa00" stroke-width="1.5" fill="none" stroke-dasharray="3,3" opacity="0.4"/>

  <!-- ==================== POWER RAILS ==================== -->
  <!-- GND rail indicator -->
  <line x1="90" y1="850" x2="720" y2="850" class="wire-gnd" opacity="0.6"/>
  <text x="405" y="860" font-size="7" fill="#888" text-anchor="middle">GND BUS RAIL (bottom side, row 31)</text>

  <!-- 3V3 rail indicator -->
  <line x1="90" y1="840" x2="720" y2="840" class="wire-pwr" opacity="0.4"/>
  <text x="405" y="875" font-size="7" fill="#ff4444" text-anchor="middle">3V3 BUS RAIL (bottom side, row 30)</text>

  <!-- ==================== LEGEND ==================== -->
  <rect x="740" y="200" width="75" height="240" class="legend-box"/>
  <text x="777" y="218" font-size="9" fill="#fff" text-anchor="middle" font-weight="bold">Legend</text>

  <circle cx="755" cy="235" r="3.5" class="esp-pin"/>
  <text x="765" y="238" font-size="7" fill="#ccc" text-anchor="start">ESP32 pin</text>

  <circle cx="755" cy="255" r="3.5" class="header-pin"/>
  <text x="765" y="258" font-size="7" fill="#ccc" text-anchor="start">Header pin</text>

  <line x1="750" y1="275" x2="770" y2="275" class="wire-spi"/>
  <text x="775" y="278" font-size="7" fill="#4488ff" text-anchor="start">SPI</text>

  <line x1="750" y1="295" x2="770" y2="295" class="wire-sig"/>
  <text x="775" y="298" font-size="7" fill="#44cc44" text-anchor="start">Signal</text>

  <line x1="750" y1="315" x2="770" y2="315" class="wire-gnd"/>
  <text x="775" y="318" font-size="7" fill="#888" text-anchor="start">GND</text>

  <line x1="750" y1="335" x2="770" y2="335" class="wire-pwr"/>
  <text x="775" y="338" font-size="7" fill="#ff4444" text-anchor="start">3V3</text>

  <circle cx="755" cy="358" r="5" fill="none" stroke="#44cc44" stroke-width="1.5"/>
  <text x="765" y="361" font-size="7" fill="#44cc44" text-anchor="start">Buttons</text>

  <circle cx="755" cy="378" r="5" fill="none" stroke="#4488ff" stroke-width="1.5"/>
  <text x="765" y="381" font-size="7" fill="#4488ff" text-anchor="start">LCD</text>

  <circle cx="755" cy="398" r="5" fill="none" stroke="#ff4444" stroke-width="1.5"/>
  <text x="765" y="401" font-size="7" fill="#ff4444" text-anchor="start">TC</text>

  <circle cx="755" cy="418" r="5" fill="none" stroke="#ffaa00" stroke-width="1.5"/>
  <text x="765" y="421" font-size="7" fill="#ffaa00" text-anchor="start">SSR</text>

  <!-- Bottom note -->
  <text x="410" y="900" font-size="10" fill="#888" text-anchor="middle">Dashed lines show wire routing on bottom side of perfboard</text>
  <text x="410" y="915" font-size="10" fill="#888" text-anchor="middle">ESP32 pin labels follow ESP32-S3-DevKitC-1 pinout (verify against your board)</text>
  <text x="410" y="935" font-size="9" fill="#666" text-anchor="middle">All headers are female for plug-in connections | USB faces bottom edge for cable access</text>
</svg>